<?xml version="1.0" encoding="UTF-8" standalone="no"?>
<!-- Created with Inkscape (http://www.inkscape.org/) -->

<svg
   xmlns:dc="http://purl.org/dc/elements/1.1/"
   xmlns:cc="http://creativecommons.org/ns#"
   xmlns:rdf="http://www.w3.org/1999/02/22-rdf-syntax-ns#"
   xmlns:svg="http://www.w3.org/2000/svg"
   xmlns="http://www.w3.org/2000/svg"
   xmlns:sodipodi="http://sodipodi.sourceforge.net/DTD/sodipodi-0.dtd"
   xmlns:inkscape="http://www.inkscape.org/namespaces/inkscape"
   width="744.09448819"
   height="1052.3622047"
   id="svg2"
   version="1.1"
   inkscape:version="0.48.2 r9819"
   sodipodi:docname="toppanelsvg.svg">
  <defs
     id="defs4" />
  <sodipodi:namedview
     id="base"
     pagecolor="#ffffff"
     bordercolor="#666666"
     borderopacity="1.0"
     inkscape:pageopacity="0.0"
     inkscape:pageshadow="2"
     inkscape:zoom="2.7896866"
     inkscape:cx="123.26305"
     inkscape:cy="998.40802"
     inkscape:document-units="px"
     inkscape:current-layer="layer1"
     showgrid="false"
     inkscape:window-width="1328"
     inkscape:window-height="771"
     inkscape:window-x="0"
     inkscape:window-y="0"
     inkscape:window-maximized="0" />
  <metadata
     id="metadata7">
    <rdf:RDF>
      <cc:Work
         rdf:about="">
        <dc:format>image/svg+xml</dc:format>
        <dc:type
           rdf:resource="http://purl.org/dc/dcmitype/StillImage" />
        <dc:title></dc:title>
      </cc:Work>
    </rdf:RDF>
  </metadata>
  <g
     inkscape:label="Layer 1"
     inkscape:groupmode="layer"
     id="layer1">
    <path
       style="fill:#000000"
       d="m 82.63982,153.81828 c -0.13558,-0.13556 -0.65057,-1.69349 -0.941,-2.84663 -0.13515,-0.53659 -0.25442,-0.98294 -0.26504,-0.99187 -0.0106,-0.009 -0.30795,-0.0381 -0.66073,-0.0649 l -0.6414,-0.0486 -0.30739,0.73059 c -0.39338,0.935 -1.26373,2.66327 -1.41982,2.81935 -0.10785,0.10786 -0.18618,0.11169 -0.77533,0.038 -0.41741,-0.0522 -0.6781,-0.11871 -0.71799,-0.1831 -0.10288,-0.1661 -0.55099,-2.09415 -0.69543,-2.99213 -0.0739,-0.45975 -0.14962,-0.85108 -0.16816,-0.86962 -0.0559,-0.0559 -1.20278,-0.24264 -1.2627,-0.20561 -0.0306,0.0189 -0.27886,0.46102 -0.5517,0.98248 -0.27284,0.52145 -0.70853,1.28654 -0.9682,1.70018 -0.55858,0.88982 -0.4644,0.85857 -1.72325,0.57183 -0.0988,-0.0225 -0.20171,-0.12798 -0.25864,-0.26518 -0.12063,-0.29072 -0.36352,-1.82274 -0.4618,-2.91285 -0.0418,-0.4634 -0.0895,-0.86442 -0.10601,-0.89116 -0.0165,-0.0267 -0.28804,-0.10754 -0.60337,-0.17956 -0.68507,-0.15647 -0.60534,-0.20862 -1.22206,0.7994 -0.6688,1.09315 -1.62301,2.35402 -1.78148,2.35402 -0.30276,0 -1.25974,-0.31289 -1.32395,-0.43287 -0.10558,-0.19729 -0.21337,-1.40568 -0.24573,-2.75486 l -0.0297,-1.2389 -0.45661,-0.15403 c -0.25114,-0.0847 -0.5214,-0.17459 -0.60059,-0.19972 -0.12073,-0.0383 -0.24034,0.0846 -0.74109,0.76131 -0.75304,1.0177 -1.87245,2.31828 -1.99536,2.31828 -0.21804,0 -1.30694,-0.44988 -1.34816,-0.557 -0.0678,-0.17617 -0.0449,-2.73109 0.0302,-3.37607 0.0363,-0.31181 0.0444,-0.58738 0.018,-0.61237 -0.0557,-0.0526 -1.08551,-0.48605 -1.1549,-0.48605 -0.0256,0 -0.22781,0.22439 -0.44939,0.49863 -0.52621,0.65128 -2.03341,2.20909 -2.24891,2.32442 -0.14896,0.0797 -0.23871,0.0576 -0.78344,-0.19285 -0.47706,-0.21936 -0.624995,-0.32185 -0.658767,-0.45641 -0.05914,-0.23565 0.08227,-1.87117 0.254597,-2.9446 0.10555,-0.65741 0.12079,-0.90124 0.0609,-0.97345 -0.044,-0.053 -0.300922,-0.20689 -0.570991,-0.342 l -0.491036,-0.24566 -0.705892,0.70147 c -0.819286,0.81415 -2.150199,1.94124 -2.323009,1.96724 -0.199575,0.0301 -1.210294,-0.60286 -1.256456,-0.78679 -0.05365,-0.21378 0.198526,-1.76077 0.472824,-2.90052 0.167102,-0.69433 0.198968,-0.92851 0.136578,-1.00368 -0.09938,-0.11975 -0.906934,-0.60643 -1.006252,-0.60643 -0.0393,0 -0.34794,0.23391 -0.685866,0.51981 -0.61873,0.52347 -1.703289,1.34361 -2.262965,1.71124 l -0.302101,0.19844 -0.608696,-0.40508 -0.608696,-0.40507 0.04698,-0.31329 c 0.0725,-0.48345 0.503326,-2.12006 0.743731,-2.82525 0.118756,-0.34836 0.21592,-0.67416 0.21592,-0.72401 0,-0.0999 -0.894877,-0.80404 -1.021794,-0.80404 -0.04367,0 -0.365782,0.20924 -0.715809,0.46498 -0.642948,0.46976 -2.173848,1.43488 -2.530812,1.59549 -0.181763,0.0818 -0.226214,0.0621 -0.726378,-0.32096 -0.412169,-0.31569 -0.532766,-0.44816 -0.532766,-0.58519 0,-0.28491 0.333394,-1.31472 0.830206,-2.5644 l 0.461977,-1.16205 -0.380343,-0.33883 c -0.633629,-0.56447 -0.567497,-0.56271 -1.432265,-0.0383 -0.942728,0.57165 -2.542879,1.39023 -2.71762,1.39023 -0.07154,0 -0.347824,-0.19654 -0.613975,-0.43675 -0.435344,-0.39291 -0.479753,-0.45754 -0.442478,-0.64391 0.06086,-0.30428 0.698024,-1.79184 1.175422,-2.74419 l 0.415497,-0.82886 -0.467025,-0.46703 -0.467024,-0.46702 -0.828865,0.41549 c -0.952349,0.4774 -2.439909,1.11457 -2.744188,1.17542 -0.186372,0.0373 -0.250996,-0.007 -0.64391,-0.44247 -0.240211,-0.26615 -0.436748,-0.54244 -0.436748,-0.61398 0,-0.17474 0.818576,-1.77489 1.39023,-2.71762 0.52438,-0.86477 0.52615,-0.79864 -0.03832,-1.43226 l -0.33883,-0.38034 -1.162052,0.46197 c -1.249676,0.49681 -2.279488,0.83021 -2.5644,0.83021 -0.137033,0 -0.269498,-0.1206 -0.585194,-0.53277 -0.383094,-0.50016 -0.402735,-0.54461 -0.320954,-0.72637 0.160608,-0.35697 1.125723,-1.88787 1.595482,-2.53082 0.255741,-0.35002 0.464983,-0.67214 0.464983,-0.7158 0,-0.12692 -0.704172,-1.0218 -0.804043,-1.0218 -0.04985,0 -0.375647,0.0972 -0.724002,0.21592 -0.705192,0.24041 -2.341807,0.67123 -2.825253,0.74373 l -0.313288,0.047 -0.405079,-0.6087 -0.405079,-0.60869 0.198441,-0.3021 c 0.367636,-0.55968 1.187774,-1.64424 1.711245,-2.26297 0.285898,-0.33792 0.519814,-0.64656 0.519814,-0.68586 0,-0.0993 -0.486682,-0.90687 -0.606431,-1.00626 -0.07518,-0.0624 -0.309356,-0.0305 -1.003685,0.13658 -1.13975,0.2743 -2.686741,0.52648 -2.900518,0.47283 -0.183926,-0.0462 -0.816842,-1.05689 -0.786798,-1.25646 0.02601,-0.17281 1.153103,-1.50372 1.967249,-2.32301 l 0.701464,-0.70589 -0.245655,-0.49103 c -0.13511,-0.27008 -0.28901,-0.52702 -0.341999,-0.571 -0.07221,-0.0599 -0.316044,-0.0447 -0.973451,0.0609 -1.073427,0.17233 -2.708952,0.31375 -2.944601,0.2546 -0.134558,-0.0338 -0.237053,-0.18171 -0.45641,-0.65876 -0.250479,-0.54474 -0.272571,-0.63448 -0.192848,-0.78344 0.115329,-0.2155 1.673135,-1.7227 2.324415,-2.24891 0.274251,-0.22158 0.498638,-0.42381 0.498638,-0.44939 0,-0.0694 -0.4334,-1.0992 -0.486049,-1.1549 -0.025,-0.0264 -0.300565,-0.0184 -0.612376,0.018 -0.644978,0.0751 -3.199896,0.098 -3.376072,0.0302 -0.107116,-0.0412 -0.556999,-1.13011 -0.556999,-1.34816 0,-0.1229 1.300589,-1.24232 2.318287,-1.99535 0.676749,-0.50075 0.799628,-0.62036 0.761308,-0.7411 -0.02513,-0.0792 -0.115006,-0.34945 -0.199721,-0.60058 l -0.154027,-0.45661 -1.238908,-0.0297 c -1.349175,-0.0324 -2.557573,-0.14015 -2.754856,-0.24573 -0.119984,-0.0642 -0.432871,-1.02119 -0.432871,-1.32395 0,-0.15847 1.260874,-1.112682 2.354016,-1.781472 1.008025,-0.61673 0.95587,-0.537 0.799403,-1.22207 -0.07202,-0.31533 -0.152821,-0.58685 -0.17956,-0.60337 -0.02674,-0.0165 -0.427759,-0.0642 -0.891158,-0.10601 -1.090114,-0.0983 -2.622126,-0.34117 -2.912856,-0.4618 -0.137196,-0.0569 -0.242659,-0.1598 -0.265174,-0.25864 -0.286734,-1.25885 -0.317988,-1.16466 0.571826,-1.72325 0.413647,-0.25966 1.178731,-0.69536 1.700186,-0.9682 0.521455,-0.27284 0.963571,-0.5211 0.982482,-0.5517 0.03703,-0.0599 -0.149734,-1.20681 -0.205622,-1.2627 -0.01854,-0.0185 -0.409862,-0.0942 -0.869609,-0.16816 -0.897983,-0.14444 -2.826039,-0.59256 -2.992131,-0.69543 -0.0644,-0.0399 -0.13088,-0.30058 -0.183103,-0.71799 -0.07371,-0.58915 -0.06987,-0.66748 0.03798,-0.77533 0.156075,-0.15609 1.884354,-1.02644 2.819349,-1.41982 l 0.730595,-0.30739 -0.04863,-0.6414 c -0.02675,-0.35278 -0.05594,-0.65011 -0.06487,-0.66073 -0.0089,-0.0106 -0.455275,-0.12989 -0.991869,-0.26504 -1.153141,-0.29043 -2.711063,-0.80542 -2.846636,-0.94099 -0.105226,-0.10523 -0.137103,-1.25741 -0.03906,-1.4117 0.07976,-0.12551 1.600018,-0.76375 2.724642,-1.14388 l 0.974293,-0.3293 0,-0.67323 0,-0.67323 -0.974293,-0.32931 c -1.124628,-0.38027 -2.644884,-1.01852 -2.724646,-1.14403 -0.09805,-0.15428 -0.06617,-1.30647 0.03906,-1.41169 0.135573,-0.13558 1.693495,-0.65057 2.846636,-0.941 0.536594,-0.13515 0.982935,-0.25442 0.991869,-0.26504 0.0089,-0.0106 0.03813,-0.30795 0.06487,-0.66073 l 0.04863,-0.6414 -0.730595,-0.30739 c -0.934995,-0.39338 -2.663274,-1.26373 -2.819349,-1.41982 -0.107852,-0.10785 -0.111689,-0.18617 -0.03798,-0.77533 0.05222,-0.41741 0.118705,-0.6781 0.183103,-0.71799 0.166092,-0.10288 2.094148,-0.55099 2.992131,-0.69543 0.459747,-0.0739 0.85107,-0.14962 0.869609,-0.16816 0.05589,-0.0559 0.242652,-1.20278 0.205622,-1.2627 -0.01891,-0.0306 -0.461027,-0.27886 -0.982482,-0.5517 -0.521455,-0.27284 -1.286539,-0.70853 -1.700186,-0.9682 -0.889814,-0.55858 -0.85856,-0.4644 -0.571826,-1.723247 0.02251,-0.09885 0.127978,-0.201711 0.265174,-0.25864 0.29073,-0.120637 1.822742,-0.363521 2.912856,-0.461803 0.463399,-0.04178 0.86442,-0.08948 0.891158,-0.106007 0.02674,-0.01653 0.10754,-0.288043 0.17956,-0.603373 0.156467,-0.685073 0.208622,-0.605342 -0.799403,-1.222063 -1.093142,-0.668796 -2.354016,-1.623002 -2.354016,-1.781475 0,-0.302761 0.312887,-1.259737 0.432871,-1.32395 0.197283,-0.105583 1.405681,-0.213371 2.754856,-0.245732 l 1.238908,-0.02972 0.154027,-0.456612 c 0.08471,-0.251136 0.174589,-0.521398 0.199721,-0.600582 0.03832,-0.120732 -0.08456,-0.240349 -0.761308,-0.741099 -1.017698,-0.753031 -2.318287,-1.872448 -2.318287,-1.995352 0,-0.218047 0.449883,-1.306947 0.556999,-1.348163 0.176176,-0.06779 2.731094,-0.04492 3.376072,0.03023 0.311811,0.03633 0.58738,0.04441 0.612376,0.01796 0.05265,-0.05571 0.486049,-1.08551 0.486049,-1.154903 0,-0.02558 -0.224387,-0.227807 -0.498638,-0.449391 -0.65128,-0.52621 -2.209086,-2.033409 -2.324415,-2.248904 -0.07972,-0.148962 -0.05763,-0.238708 0.192848,-0.783445 0.219357,-0.477055 0.321852,-0.624992 0.45641,-0.658764 0.235649,-0.05914 1.871174,0.08227 2.944601,0.2546 0.657407,0.105542 0.901238,0.120785 0.973451,0.06085 0.05299,-0.04398 0.206889,-0.300926 0.341999,-0.570995 l 0.245655,-0.491036 -0.701464,-0.705893 c -0.814146,-0.819285 -1.941235,-2.150198 -1.967249,-2.323008 -0.03004,-0.199575 0.602872,-1.210294 0.786798,-1.256456 0.213777,-0.05365 1.760768,0.198526 2.900518,0.472824 0.694329,0.167101 0.92851,0.198968 1.003685,0.136578 0.119749,-0.09938 0.606431,-0.906934 0.606431,-1.006252 0,-0.0393 -0.233916,-0.34794 -0.519814,-0.685866 -0.523471,-0.61873 -1.343609,-1.703289 -1.711245,-2.262965 l -0.198441,-0.302101 0.405079,-0.608696 0.405079,-0.608696 0.313288,0.04698 c 0.483446,0.0725 2.120061,0.503326 2.825253,0.743731 0.348355,0.118756 0.674156,0.21592 0.724002,0.21592 0.09987,0 0.804043,-0.894877 0.804043,-1.021794 0,-0.04367 -0.209242,-0.365783 -0.464983,-0.71581 -0.469759,-0.642948 -1.434874,-2.173848 -1.595482,-2.530811 -0.08178,-0.181763 -0.06214,-0.226214 0.320954,-0.726378 0.315696,-0.412169 0.448161,-0.532766 0.585194,-0.532766 0.284912,0 1.314724,0.333394 2.5644,0.830206 l 1.162052,0.461976 0.33883,-0.380342 c 0.56447,-0.633629 0.5627,-0.567497 0.03832,-1.432265 -0.571654,-0.942728 -1.39023,-2.54288 -1.39023,-2.717621 0,-0.07153 0.196537,-0.347823 0.436748,-0.613974 0.392914,-0.435344 0.457538,-0.479753 0.64391,-0.442478 0.304279,0.06085 1.791839,0.698024 2.744188,1.175422 l 0.828865,0.415497 0.467024,-0.467025 0.467025,-0.467025 -0.415497,-0.828864 c -0.477398,-0.952349 -1.114566,-2.439909 -1.175422,-2.744188 -0.03728,-0.186372 0.0071,-0.250997 0.442478,-0.64391 0.266151,-0.240211 0.542439,-0.436748 0.613975,-0.436748 0.174741,0 1.774892,0.818576 2.71762,1.39023 0.864768,0.52438 0.798636,0.52615 1.432265,-0.03832 l 0.380343,-0.338829 -0.461977,-1.162052 c -0.496812,-1.249676 -0.830206,-2.279488 -0.830206,-2.5644 0,-0.137033 0.120597,-0.269498 0.532766,-0.585194 0.500164,-0.383094 0.544615,-0.402735 0.726378,-0.320954 0.356964,0.160608 1.887864,1.125723 2.530812,1.595482 0.350027,0.255741 0.672141,0.464983 0.715809,0.464983 0.126917,0 1.021794,-0.704172 1.021794,-0.804043 0,-0.04985 -0.09716,-0.375647 -0.21592,-0.724002 -0.240405,-0.705192 -0.671235,-2.341808 -0.743731,-2.825253 l -0.04698,-0.313288 0.608696,-0.405079 0.608696,-0.405079 0.302101,0.198441 c 0.559676,0.367636 1.644235,1.187774 2.262965,1.711244 0.337926,0.285899 0.646565,0.519815 0.685866,0.519815 0.09932,0 0.906869,-0.486682 1.006252,-0.606431 0.06239,-0.07518 0.03052,-0.309356 -0.136578,-1.003685 -0.274298,-1.13975 -0.526479,-2.686741 -0.472824,-2.900518 0.04616,-0.183926 1.056881,-0.816842 1.256456,-0.786798 0.17281,0.02601 1.503723,1.153103 2.323009,1.967249 l 0.705892,0.701464 0.491036,-0.245655 c 0.270069,-0.13511 0.527015,-0.28901 0.570995,-0.341999 0.0599,-0.07221 0.0447,-0.316044 -0.0609,-0.973451 -0.17233,-1.073427 -0.313745,-2.708952 -0.254601,-2.944602 0.03377,-0.134557 0.181711,-0.237052 0.658761,-0.456409 0.54474,-0.250479 0.63449,-0.272571 0.78345,-0.192849 0.21549,0.115329 1.72269,1.673136 2.2489,2.324416 0.22159,0.274251 0.42381,0.498638 0.44939,0.498638 0.0694,0 1.0992,-0.4334 1.15491,-0.486049 0.0265,-0.025 0.0184,-0.300565 -0.018,-0.612376 -0.0751,-0.644978 -0.098,-3.199896 -0.0302,-3.376072 0.0412,-0.107116 1.13011,-0.556999 1.34816,-0.556999 0.1229,0 1.24232,1.300588 1.99535,2.318286 0.50075,0.67675 0.62037,0.799628 0.7411,0.761309 0.0792,-0.02513 0.34945,-0.115007 0.60058,-0.199721 l 0.45661,-0.154027 0.0297,-1.238908 c 0.0324,-1.349175 0.14015,-2.557574 0.24574,-2.754856 0.0642,-0.119984 1.02119,-0.432871 1.32395,-0.432871 0.15847,0 1.11268,1.260874 1.78147,2.354016 0.61672,1.008025 0.53699,0.95587 1.22206,0.799403 0.31533,-0.07202 0.58685,-0.152821 0.60338,-0.17956 0.0165,-0.02674 0.0642,-0.427759 0.106,-0.891158 0.0983,-1.090114 0.34117,-2.622126 0.46181,-2.912856 0.0569,-0.137196 0.15979,-0.24266 0.25864,-0.265174 1.25885,-0.2867336 1.16466,-0.3179876 1.72325,0.571826 0.25966,0.413647 0.69535,1.178731 0.96819,1.700186 0.27284,0.521454 0.52111,0.963571 0.55171,0.982482 0.0599,0.03703 1.20681,-0.149734 1.2627,-0.205623 0.0185,-0.01854 0.0942,-0.409862 0.16816,-0.869608 0.14443,-0.897983 0.59255,-2.8260386 0.69542,-2.9921306 0.0399,-0.0644 0.30058,-0.13088 0.718,-0.183103 0.58915,-0.07371 0.66748,-0.06987 0.77533,0.03798 0.15608,0.156075 1.02643,1.8843536 1.41982,2.8193486 l 0.30739,0.730595 0.6414,-0.04863 c 0.35278,-0.02675 0.6501,-0.05594 0.66073,-0.06487 0.0106,-0.0089 0.12989,-0.455275 0.26504,-0.991869 0.29043,-1.153141 0.80542,-2.7110636 0.94099,-2.8466356 0.10522,-0.105226 1.25741,-0.137104 1.4117,-0.03906 0.12551,0.07976 0.76375,1.6000176 1.14388,2.7246406 l 0.3293,0.974294 0.67323,0 0.67323,0 0.32931,-0.974294 c 0.38012,-1.124623 1.01837,-2.6448786 1.14388,-2.7246406 0.15428,-0.09805 1.30647,-0.06617 1.41169,0.03906 0.13557,0.135572 0.65057,1.6934946 0.941,2.8466356 0.13515,0.536594 0.25441,0.982935 0.26504,0.991869 0.0106,0.0089 0.30794,0.03813 0.66072,0.06487 l 0.64141,0.04863 0.30738,-0.730595 c 0.39339,-0.934995 1.26374,-2.6632736 1.41982,-2.8193486 0.10785,-0.107852 0.18618,-0.111689 0.77533,-0.03798 0.41742,0.05222 0.67811,0.118704 0.718,0.183103 0.10287,0.166092 0.55099,2.0941476 0.69542,2.9921306 0.0739,0.459746 0.14962,0.85107 0.16816,0.869608 0.0559,0.05589 1.20279,0.242653 1.2627,0.205623 0.0306,-0.01891 0.27887,-0.461028 0.55171,-0.982482 0.27284,-0.521455 0.70853,-1.286539 0.9682,-1.700186 0.55858,-0.8898136 0.46439,-0.8585596 1.72324,-0.571826 0.0988,0.02251 0.20172,0.127978 0.25864,0.265174 0.12064,0.29073 0.36353,1.822742 0.4618,2.912856 0.0418,0.463399 0.0895,0.86442 0.10601,0.891158 0.0165,0.02674 0.28804,0.10754 0.60338,0.17956 0.68507,0.156467 0.60534,0.208622 1.22206,-0.799403 0.6688,-1.093142 1.623,-2.354016 1.78148,-2.354016 0.30275,0 1.25973,0.312887 1.32394,0.432871 0.10558,0.197282 0.21338,1.405681 0.24574,2.754856 l 0.0297,1.238908 0.45661,0.154027 c 0.25114,0.08471 0.5214,0.174589 0.60059,0.199721 0.12073,0.03832 0.24035,-0.08456 0.74109,-0.761309 0.75303,-1.017698 1.87246,-2.318286 1.99536,-2.318286 0.21804,0 1.30694,0.449883 1.34816,0.556999 0.0678,0.176176 0.0449,2.731094 -0.0302,3.376072 -0.0363,0.311811 -0.0444,0.58738 -0.0179,0.612376 0.0557,0.05265 1.0855,0.486049 1.15489,0.486049 0.0256,0 0.22781,-0.224387 0.44939,-0.498638 0.52621,-0.65128 2.03342,-2.209087 2.24891,-2.324416 0.14896,-0.07972 0.23871,-0.05763 0.78344,0.192849 0.47706,0.219357 0.625,0.321852 0.65877,0.456409 0.0591,0.23565 -0.0823,1.871175 -0.2546,2.944602 -0.10554,0.657407 -0.12079,0.901238 -0.0609,0.973451 0.044,0.05299 0.30093,0.206889 0.571,0.341999 l 0.49103,0.245655 0.7059,-0.701464 c 0.81928,-0.814146 2.1502,-1.941235 2.32301,-1.967249 0.19957,-0.03004 1.21029,0.602872 1.25645,0.786798 0.0537,0.213777 -0.19852,1.760768 -0.47282,2.900518 -0.16711,0.694329 -0.19897,0.92851 -0.13658,1.003685 0.0994,0.119749 0.90693,0.606431 1.00625,0.606431 0.0393,0 0.34794,-0.233916 0.68587,-0.519815 0.61873,-0.52347 1.70329,-1.343608 2.26297,-1.711244 l 0.30209,-0.198441 0.6087,0.405079 0.6087,0.405079 -0.047,0.313288 c -0.0725,0.483445 -0.50333,2.120061 -0.74373,2.825253 -0.11876,0.348355 -0.21593,0.674156 -0.21593,0.724002 0,0.09987 0.89488,0.804043 1.0218,0.804043 0.0437,0 0.36578,-0.209242 0.71581,-0.464983 0.64294,-0.469759 2.17384,-1.434874 2.53081,-1.595482 0.18177,-0.08178 0.22621,-0.06214 0.72638,0.320954 0.41216,0.315696 0.53276,0.448161 0.53276,0.585194 0,0.284912 -0.33339,1.314724 -0.8302,2.5644 l -0.46198,1.162052 0.38034,0.338829 c 0.63363,0.564471 0.5675,0.562701 1.43227,0.03832 0.94272,-0.571654 2.54288,-1.39023 2.71762,-1.39023 0.0715,0 0.34782,0.196537 0.61397,0.436748 0.43535,0.392913 0.47975,0.457538 0.44248,0.64391 -0.0608,0.304279 -0.69803,1.791839 -1.17542,2.744188 l -0.4155,0.828864 0.46702,0.467025 0.46703,0.467025 0.82887,-0.415497 c 0.95235,-0.477398 2.4399,-1.114567 2.74418,-1.175422 0.18637,-0.03728 0.251,0.0071 0.64391,0.442478 0.24022,0.266151 0.43675,0.542439 0.43675,0.613974 0,0.174741 -0.81857,1.774893 -1.39023,2.717621 -0.52438,0.864768 -0.52614,0.798636 0.0383,1.432265 l 0.33882,0.380342 1.16206,-0.461976 c 1.24967,-0.496812 2.27948,-0.830206 2.56439,-0.830206 0.13704,0 0.2695,0.120597 0.5852,0.532766 0.38309,0.500164 0.40273,0.544615 0.32096,0.726378 -0.16062,0.356963 -1.12573,1.887863 -1.59549,2.530811 -0.25574,0.350027 -0.46498,0.672142 -0.46498,0.71581 0,0.126917 0.70417,1.021794 0.80404,1.021794 0.0498,0 0.37564,-0.09716 0.724,-0.21592 0.7052,-0.240405 2.34181,-0.671235 2.82526,-0.743731 l 0.31328,-0.04698 0.40508,0.608696 0.40508,0.608696 -0.19844,0.302101 c -0.36763,0.559676 -1.18777,1.644235 -1.71124,2.262965 -0.2859,0.337926 -0.51982,0.646565 -0.51982,0.685866 0,0.09932 0.48668,0.906869 0.60643,1.006252 0.0752,0.06239 0.30936,0.03052 1.00369,-0.136578 1.13975,-0.274298 2.68674,-0.526479 2.90052,-0.472824 0.18392,0.04616 0.81684,1.056881 0.78679,1.256456 -0.026,0.17281 -1.1531,1.503723 -1.96724,2.323008 l -0.70147,0.705893 0.24565,0.491036 c 0.13512,0.270069 0.28902,0.527017 0.342,0.570995 0.0722,0.05993 0.31605,0.04469 0.97346,-0.06085 1.07342,-0.172331 2.70895,-0.313744 2.9446,-0.2546 0.13455,0.03377 0.23705,0.181709 0.45641,0.658764 0.25048,0.544737 0.27257,0.634483 0.19284,0.783445 -0.11532,0.215495 -1.67313,1.722694 -2.32441,2.248904 -0.27425,0.221584 -0.49864,0.42381 -0.49864,0.449391 0,0.06939 0.4334,1.099197 0.48605,1.154903 0.025,0.02645 0.30057,0.01836 0.61238,-0.01796 0.64497,-0.07514 3.19989,-0.09802 3.37607,-0.03023 0.10711,0.04122 0.557,1.130116 0.557,1.348163 0,0.122904 -1.30059,1.242321 -2.31829,1.995352 -0.67675,0.50075 -0.79962,0.620367 -0.76131,0.741099 0.0251,0.07918 0.11501,0.349446 0.19972,0.600582 l 0.15403,0.456612 1.23891,0.02972 c 1.34917,0.03236 2.55757,0.140149 2.75485,0.245732 0.11999,0.06421 0.43287,1.021189 0.43287,1.32395 0,0.158473 -1.26087,1.112679 -2.35401,1.781475 -1.00802,0.616721 -0.95587,0.53699 -0.7994,1.222063 0.072,0.31533 0.15281,0.586847 0.17955,0.603373 0.0267,0.01653 0.42776,0.06423 0.89117,0.106007 1.09011,0.09828 2.62212,0.341166 2.91285,0.461803 0.1372,0.05693 0.24266,0.159794 0.26517,0.25864 0.28674,1.258847 0.31799,1.164667 -0.57182,1.723247 -0.41365,0.25967 -1.17873,0.69536 -1.70019,0.9682 -0.52145,0.27284 -0.96357,0.52111 -0.98248,0.5517 -0.037,0.0599 0.14973,1.20682 0.20562,1.2627 0.0185,0.0185 0.40987,0.0942 0.86961,0.16816 0.89798,0.14444 2.82604,0.59255 2.99213,0.69543 0.0644,0.0399 0.13088,0.30058 0.18311,0.71799 0.0737,0.58916 0.0699,0.66748 -0.038,0.77533 -0.15608,0.15609 -1.88436,1.02644 -2.81935,1.41982 l -0.7306,0.30739 0.0486,0.6414 c 0.0268,0.35278 0.0559,0.65011 0.0649,0.66073 0.009,0.0106 0.45527,0.12989 0.99186,0.26504 1.15314,0.29043 2.71107,0.80542 2.84664,0.941 0.10523,0.10522 0.1371,1.25741 0.0391,1.41169 -0.0798,0.12551 -1.60002,0.76376 -2.72465,1.14388 l -0.97429,0.32931 0,0.67323 0,0.67323 0.97429,0.3293 c 1.12463,0.38013 2.64488,1.01837 2.72465,1.14388 0.098,0.15429 0.0662,1.30647 -0.0391,1.4117 -0.13557,0.13557 -1.6935,0.65056 -2.84664,0.94099 -0.53659,0.13515 -0.98293,0.25442 -0.99186,0.26504 -0.009,0.0106 -0.0381,0.30795 -0.0649,0.66073 l -0.0486,0.6414 0.7306,0.30739 c 0.93499,0.39338 2.66327,1.26373 2.81935,1.41982 0.10785,0.10785 0.11168,0.18618 0.038,0.77533 -0.0522,0.41741 -0.11871,0.6781 -0.18311,0.71799 -0.16609,0.10287 -2.09415,0.55099 -2.99213,0.69543 -0.45974,0.074 -0.85107,0.14962 -0.86961,0.16816 -0.0559,0.0559 -0.24265,1.20279 -0.20562,1.2627 0.0189,0.0306 0.46103,0.27886 0.98248,0.5517 0.52146,0.27284 1.28654,0.70854 1.70019,0.9682 0.88981,0.55859 0.85856,0.4644 0.57182,1.72325 -0.0225,0.0988 -0.12797,0.20171 -0.26517,0.25864 -0.29073,0.12063 -1.82274,0.36352 -2.91285,0.4618 -0.46341,0.0418 -0.86442,0.0895 -0.89117,0.10601 -0.0267,0.0165 -0.10754,0.28804 -0.17955,0.60337 -0.15647,0.68507 -0.20862,0.60534 0.7994,1.22207 1.09314,0.66879 2.35401,1.623002 2.35401,1.781472 0,0.30276 -0.31288,1.25973 -0.43287,1.32395 -0.19728,0.10558 -1.40568,0.21337 -2.75485,0.24573 l -1.23891,0.0297 -0.15403,0.45661 c -0.0847,0.25113 -0.17459,0.5214 -0.19972,0.60058 -0.0383,0.12074 0.0846,0.24035 0.76131,0.7411 1.0177,0.75303 2.31829,1.87245 2.31829,1.99535 0,0.21805 -0.44989,1.30695 -0.557,1.34816 -0.17618,0.0678 -2.7311,0.0449 -3.37607,-0.0302 -0.31181,-0.0363 -0.58738,-0.0444 -0.61238,-0.018 -0.0526,0.0557 -0.48605,1.08551 -0.48605,1.1549 0,0.0256 0.22439,0.22781 0.49864,0.44939 0.65128,0.52621 2.20909,2.03341 2.32441,2.24891 0.0797,0.14896 0.0576,0.2387 -0.19284,0.78344 -0.21936,0.47705 -0.32186,0.62499 -0.45641,0.65876 -0.23565,0.0592 -1.87118,-0.0823 -2.9446,-0.2546 -0.65741,-0.10554 -0.90124,-0.12078 -0.97346,-0.0609 -0.053,0.044 -0.20688,0.30092 -0.342,0.571 l -0.24565,0.49103 0.70147,0.70589 c 0.81414,0.81929 1.94123,2.1502 1.96724,2.32301 0.03,0.19957 -0.60287,1.2103 -0.78679,1.25646 -0.21378,0.0537 -1.76077,-0.19853 -2.90052,-0.47283 -0.69433,-0.1671 -0.92851,-0.19896 -1.00369,-0.13658 -0.11975,0.0994 -0.60643,0.90694 -0.60643,1.00626 0,0.0393 0.23392,0.34794 0.51982,0.68586 0.52347,0.61873 1.34361,1.70329 1.71124,2.26297 l 0.19844,0.3021 -0.40508,0.60869 -0.40508,0.6087 -0.31328,-0.047 c -0.48345,-0.0725 -2.12006,-0.50332 -2.82526,-0.74373 -0.34836,-0.11876 -0.67416,-0.21592 -0.724,-0.21592 -0.0999,0 -0.80404,0.89488 -0.80404,1.0218 0,0.0437 0.20924,0.36578 0.46498,0.7158 0.46976,0.64295 1.43487,2.17385 1.59549,2.53082 0.0818,0.18176 0.0621,0.22621 -0.32096,0.72637 -0.3157,0.41217 -0.44816,0.53277 -0.5852,0.53277 -0.28491,0 -1.31472,-0.3334 -2.56439,-0.83021 l -1.16206,-0.46197 -0.33882,0.38034 c -0.56447,0.63362 -0.56271,0.56749 -0.0383,1.43226 0.57166,0.94273 1.39023,2.54288 1.39023,2.71762 0,0.0715 -0.19653,0.34783 -0.43675,0.61398 -0.39291,0.43534 -0.45754,0.47975 -0.64391,0.44247 -0.30428,-0.0609 -1.79183,-0.69802 -2.74418,-1.17542 l -0.82887,-0.41549 -0.46703,0.46702 -0.46702,0.46703 0.4155,0.82886 c 0.47739,0.95235 1.11457,2.43991 1.17542,2.74419 0.0373,0.18637 -0.007,0.251 -0.44248,0.64391 -0.26615,0.24021 -0.54243,0.43675 -0.61397,0.43675 -0.17474,0 -1.7749,-0.81858 -2.71762,-1.39023 -0.86477,-0.52439 -0.79864,-0.52615 -1.43227,0.0383 l -0.38034,0.33883 0.46198,1.16205 c 0.49681,1.24968 0.8302,2.27949 0.8302,2.5644 0,0.13703 -0.1206,0.2695 -0.53276,0.58519 -0.50017,0.3831 -0.54461,0.40274 -0.72638,0.32096 -0.35697,-0.16061 -1.88787,-1.12573 -2.53081,-1.59549 -0.35003,-0.25574 -0.67214,-0.46498 -0.71581,-0.46498 -0.12692,0 -1.0218,0.70418 -1.0218,0.80404 0,0.0498 0.0972,0.37565 0.21593,0.72401 0.2404,0.70519 0.67123,2.3418 0.74373,2.82525 l 0.047,0.31329 -0.6087,0.40507 -0.6087,0.40508 -0.30209,-0.19844 c -0.55968,-0.36763 -1.64424,-1.18777 -2.26297,-1.71124 -0.33793,-0.2859 -0.64656,-0.51981 -0.68587,-0.51981 -0.0993,0 -0.90686,0.48668 -1.00625,0.60643 -0.0624,0.0752 -0.0305,0.30935 0.13658,1.00368 0.2743,1.13975 0.52648,2.68674 0.47282,2.90052 -0.0462,0.18393 -1.05688,0.81684 -1.25645,0.78679 -0.17281,-0.026 -1.50373,-1.15309 -2.32301,-1.96724 l -0.7059,-0.70147 -0.49103,0.24566 c -0.27007,0.13511 -0.52702,0.28901 -0.571,0.342 -0.0599,0.0722 -0.0447,0.31604 0.0609,0.97345 0.17233,1.07343 0.31374,2.70895 0.2546,2.9446 -0.0338,0.13456 -0.18171,0.23705 -0.65877,0.45641 -0.54473,0.25048 -0.63448,0.27257 -0.78344,0.19285 -0.21549,-0.11533 -1.7227,-1.67314 -2.24891,-2.32442 -0.22158,-0.27424 -0.4238,-0.49863 -0.44939,-0.49863 -0.0694,0 -1.09919,0.4334 -1.15489,0.48605 -0.0265,0.025 -0.0184,0.30056 0.0179,0.61237 0.0751,0.64498 0.098,3.1999 0.0302,3.37607 -0.0412,0.10712 -1.13012,0.557 -1.34816,0.557 -0.1229,0 -1.24233,-1.30058 -1.99536,-2.31828 -0.50074,-0.67675 -0.62036,-0.79963 -0.74109,-0.76131 -0.0792,0.0251 -0.34945,0.11501 -0.60059,0.19972 l -0.45661,0.15403 -0.0297,1.2389 c -0.0324,1.34918 -0.14016,2.55757 -0.24574,2.75486 -0.0642,0.11998 -1.02119,0.43287 -1.32394,0.43287 -0.15848,0 -1.11268,-1.26087 -1.78148,-2.35402 -0.61672,-1.00802 -0.53699,-0.95587 -1.22206,-0.7994 -0.31534,0.072 -0.58685,0.15282 -0.60338,0.17956 -0.0165,0.0267 -0.0642,0.42776 -0.10601,0.89116 -0.0983,1.09011 -0.34116,2.62213 -0.4618,2.91285 -0.0569,0.1372 -0.15979,0.24266 -0.25864,0.26518 -1.25885,0.28674 -1.16466,0.31799 -1.72324,-0.57183 -0.25967,-0.41364 -0.69536,-1.17873 -0.9682,-1.70018 -0.27284,-0.52146 -0.52111,-0.96358 -0.55171,-0.98248 -0.0599,-0.037 -1.20681,0.14973 -1.2627,0.20561 -0.0185,0.0185 -0.0942,0.40987 -0.16816,0.86962 -0.14443,0.89798 -0.59255,2.82603 -0.69542,2.99213 -0.0399,0.0644 -0.30058,0.13087 -0.718,0.1831 -0.58915,0.0737 -0.66748,0.0699 -0.77533,-0.038 -0.15608,-0.15608 -1.02643,-1.88435 -1.41982,-2.81935 l -0.30738,-0.73059 -0.64141,0.0486 c -0.35278,0.0267 -0.6501,0.0559 -0.66072,0.0649 -0.0106,0.009 -0.12989,0.45528 -0.26504,0.99187 -0.29043,1.15314 -0.80543,2.71107 -0.941,2.84663 -0.10522,0.10523 -1.25741,0.13711 -1.41169,0.0391 -0.12551,-0.0798 -0.76376,-1.60003 -1.14388,-2.72465 l -0.32931,-0.97429 -0.67323,0 -0.67323,0 -0.3293,0.97429 c -0.38013,1.12462 -1.01837,2.64488 -1.14388,2.72465 -0.15429,0.098 -1.30648,0.0662 -1.4117,-0.0391 z m 4.67674,-67.410622 c 1.34338,-0.27748 2.47477,-1.04737 3.27853,-2.23096 1.13025,-1.66437 1.13025,-4.13646 0,-5.80083 -0.37823,-0.55696 -0.93978,-1.11851 -1.49675,-1.49674 -1.66437,-1.13025 -4.13646,-1.13025 -5.80083,0 -0.84312,0.57255 -1.61424,1.49247 -1.95592,2.33334 -0.50532,1.24361 -0.50532,2.88403 0,4.12763 0.46437,1.14282 1.65132,2.32881 2.79632,2.79407 0.9269,0.37662 2.16401,0.48306 3.17865,0.27349 z"
       id="path3398"
       inkscape:connector-curvature="0" />
  </g>
</svg>
