<?xml version="1.0" encoding="UTF-8" standalone="no"?>
<!-- Created with Inkscape (http://www.inkscape.org/) -->

<svg
   xmlns:dc="http://purl.org/dc/elements/1.1/"
   xmlns:cc="http://creativecommons.org/ns#"
   xmlns:rdf="http://www.w3.org/1999/02/22-rdf-syntax-ns#"
   xmlns:svg="http://www.w3.org/2000/svg"
   xmlns="http://www.w3.org/2000/svg"
   xmlns:sodipodi="http://sodipodi.sourceforge.net/DTD/sodipodi-0.dtd"
   xmlns:inkscape="http://www.inkscape.org/namespaces/inkscape"
   width="744.09448819"
   height="1052.3622047"
   id="svg2"
   version="1.1"
   inkscape:version="0.48.2 r9819"
   sodipodi:docname="New document 1">
  <defs
     id="defs4" />
  <sodipodi:namedview
     id="base"
     pagecolor="#ffffff"
     bordercolor="#666666"
     borderopacity="1.0"
     inkscape:pageopacity="0.0"
     inkscape:pageshadow="2"
     inkscape:zoom="8.32355"
     inkscape:cx="44.448737"
     inkscape:cy="1010.4743"
     inkscape:document-units="px"
     inkscape:current-layer="layer1"
     showgrid="false"
     inkscape:window-width="1120"
     inkscape:window-height="655"
     inkscape:window-x="20"
     inkscape:window-y="20"
     inkscape:window-maximized="0" />
  <metadata
     id="metadata7">
    <rdf:RDF>
      <cc:Work
         rdf:about="">
        <dc:format>image/svg+xml</dc:format>
        <dc:type
           rdf:resource="http://purl.org/dc/dcmitype/StillImage" />
        <dc:title></dc:title>
      </cc:Work>
    </rdf:RDF>
  </metadata>
  <g
     inkscape:label="Layer 1"
     inkscape:groupmode="layer"
     id="layer1">
    <path
       style="fill:#000000"
       d="m 21.682314,54.772189 c -0.082,-0.05215 -0.575172,-1.118108 -0.714054,-1.543379 -0.07771,-0.23794 -0.169158,-0.599607 -0.203229,-0.8037 -0.05573,-0.333856 -0.05737,-0.427597 -0.01631,-0.934609 0.05036,-0.621757 0.04946,-0.625275 -0.159403,-0.626754 -0.134569,-9.57e-4 -0.692002,-0.08267 -1.234182,-0.180922 -0.230184,-0.04172 -0.425822,-0.06854 -0.434752,-0.05961 -0.0089,0.0089 -0.06409,0.230206 -0.122572,0.491723 -0.178456,0.79797 -0.563272,1.477859 -1.322887,2.33727 -0.189683,0.214602 -0.409061,0.432658 -0.487509,0.484573 l -0.142631,0.09439 -0.432877,-0.132872 c -0.5814,-0.178461 -0.741987,-0.259088 -0.775512,-0.38936 -0.07527,-0.292494 -0.142311,-1.052011 -0.141167,-1.599341 0.0017,-0.805803 0.05393,-1.082357 0.323533,-1.712623 0.117405,-0.274465 0.213464,-0.509032 0.213464,-0.521259 0,-0.01223 -0.180409,-0.107001 -0.400908,-0.210607 -0.2205,-0.103607 -0.596024,-0.29481 -0.834497,-0.424896 -0.238474,-0.130086 -0.447472,-0.22794 -0.46444,-0.217453 -0.01697,0.01049 -0.151948,0.224645 -0.299955,0.475907 -0.148008,0.251263 -0.342228,0.538173 -0.431602,0.637579 -0.359938,0.400337 -1.045893,0.883463 -1.800575,1.268163 l -0.455088,0.231982 -0.147795,-0.09707 c -0.228655,-0.150172 -0.818286,-0.588858 -0.849722,-0.632199 -0.06571,-0.09058 0.113956,-1.097775 0.29727,-1.666466 0.05723,-0.177539 0.207115,-0.530261 0.333081,-0.783827 0.195146,-0.392821 0.278995,-0.51699 0.566758,-0.839284 l 0.337728,-0.378255 -0.676548,-0.676547 -0.676547,-0.676548 -0.378255,0.337728 C 9.828837,46.311686 9.704668,46.395535 9.311847,46.590681 9.058281,46.716647 8.705559,46.866534 8.52802,46.923762 7.959329,47.107076 6.952139,47.286742 6.861552,47.221032 6.818212,47.189592 6.379526,46.599965 6.229354,46.37131 l -0.09707,-0.147795 0.231983,-0.455088 c 0.3847,-0.754682 0.867825,-1.440637 1.268162,-1.800575 0.09941,-0.08937 0.386316,-0.283595 0.637579,-0.431603 0.251262,-0.148007 0.46542,-0.282987 0.475907,-0.299955 0.01049,-0.01697 -0.08737,-0.225966 -0.217453,-0.46444 C 8.398376,42.533381 8.207173,42.157857 8.103566,41.937357 7.99996,41.716858 7.905186,41.536449 7.892959,41.536449 c -0.01223,0 -0.246794,0.09606 -0.521259,0.213464 C 6.741433,42.019517 6.464881,42.07176 5.659077,42.073446 5.111745,42.074546 4.352232,42.007556 4.059736,41.932279 3.929463,41.898759 3.848837,41.738167 3.670375,41.156767 L 3.537502,40.72389 3.631892,40.581259 c 0.115927,-0.175177 0.765699,-0.753949 1.184995,-1.055511 0.170629,-0.122718 0.501739,-0.318844 0.735799,-0.435837 0.347771,-0.173827 0.512486,-0.232151 0.90105,-0.319048 0.261516,-0.05848 0.482791,-0.113642 0.491721,-0.122572 0.0089,-0.0089 -0.0179,-0.204568 -0.05961,-0.434752 -0.09826,-0.54218 -0.179972,-1.099613 -0.180924,-1.234182 -0.0015,-0.208865 -0.005,-0.209761 -0.626755,-0.159403 C 5.57116,36.861014 5.477419,36.859384 5.14356,36.803644 4.939468,36.769574 4.577803,36.67812 4.339861,36.600415 3.91459,36.461533 2.848631,35.96836 2.796481,35.886361 c -0.01464,-0.02302 -0.02661,-0.305167 -0.02661,-0.627 0,-0.321834 0.01198,-0.603984 0.02661,-0.627001 0.05215,-0.082 1.118109,-0.575172 1.54338,-0.714054 0.237942,-0.07771 0.599607,-0.169158 0.803699,-0.203229 0.333859,-0.05573 0.4276,-0.05737 0.934608,-0.01631 0.621757,0.05036 0.625279,0.04946 0.626755,-0.159403 9.51e-4,-0.134569 0.08267,-0.692002 0.180924,-1.234182 0.04171,-0.230183 0.06854,-0.425822 0.05961,-0.434752 C 6.936557,31.86153 6.715252,31.80634 6.453736,31.747858 5.655766,31.569402 4.975874,31.184586 4.116467,30.424972 3.901864,30.235289 3.683806,30.01591 3.631892,29.937463 l -0.09439,-0.142632 0.132873,-0.432877 c 0.178462,-0.5814 0.259088,-0.741987 0.389361,-0.775512 0.292496,-0.07527 1.052009,-0.142311 1.599341,-0.141166 0.805804,0.0017 1.082356,0.05393 1.712623,0.323532 0.274465,0.117405 0.509032,0.213464 0.521259,0.213464 0.01223,0 0.107001,-0.180408 0.210607,-0.400908 0.103607,-0.2205 0.29481,-0.596023 0.424896,-0.834497 0.130086,-0.238474 0.22794,-0.447472 0.217453,-0.46444 C 8.735425,27.265457 8.52127,27.130479 8.270008,26.982472 8.018745,26.834464 7.731835,26.640243 7.632429,26.550869 7.232092,26.190932 6.748967,25.504976 6.364267,24.750295 l -0.231983,-0.455089 0.09707,-0.147795 c 0.150172,-0.228655 0.58886,-0.818286 0.632198,-0.849722 0.09059,-0.06571 1.097777,0.113956 1.666468,0.29727 0.177539,0.05723 0.530261,0.207115 0.783827,0.333081 0.392821,0.195146 0.51699,0.278996 0.839284,0.566758 l 0.378255,0.337728 0.676547,-0.676548 0.676548,-0.676547 -0.337728,-0.378255 c -0.287763,-0.322294 -0.371612,-0.446463 -0.566758,-0.839284 -0.125966,-0.253566 -0.275853,-0.606288 -0.333081,-0.783827 -0.183314,-0.568691 -0.36298,-1.57588 -0.29727,-1.666468 0.03144,-0.04334 0.621067,-0.482026 0.849722,-0.632198 l 0.147795,-0.09707 0.455088,0.231982 c 0.754682,0.3847 1.440637,0.867825 1.800575,1.268163 0.08937,0.09941 0.283594,0.386315 0.431602,0.637578 0.148007,0.251262 0.282987,0.465421 0.299955,0.475908 0.01697,0.01049 0.225966,-0.08737 0.46444,-0.217453 0.238473,-0.130086 0.613997,-0.32129 0.834497,-0.424897 0.220499,-0.103606 0.400908,-0.198379 0.400908,-0.210607 0,-0.01223 -0.09606,-0.246794 -0.213464,-0.521259 -0.269604,-0.630267 -0.321847,-0.906819 -0.323533,-1.712623 -0.0011,-0.547331 0.06589,-1.306845 0.141167,-1.599341 0.03352,-0.130273 0.194112,-0.210899 0.775512,-0.389361 l 0.432877,-0.132872 0.142631,0.09439 c 0.175177,0.115927 0.753949,0.7657 1.055511,1.184995 0.122718,0.170629 0.318844,0.501739 0.435837,0.7358 0.173827,0.34777 0.232151,0.512485 0.319048,0.901049 0.05848,0.261517 0.113642,0.482791 0.122572,0.491721 0.0089,0.0089 0.204568,-0.01789 0.434752,-0.05961 0.54218,-0.09826 1.099613,-0.179972 1.234182,-0.180924 0.208865,-0.0015 0.209761,-0.005 0.159403,-0.626755 -0.04106,-0.507008 -0.03943,-0.600749 0.01631,-0.934607 0.03407,-0.204093 0.125524,-0.565758 0.203229,-0.8037 0.138882,-0.425271 0.632055,-1.49123 0.714054,-1.543379 0.05459,-0.03472 1.199412,-0.03472 1.254001,0 0.082,0.05215 0.575172,1.118108 0.714054,1.543379 0.07771,0.237942 0.169158,0.599607 0.203229,0.8037 0.05573,0.333858 0.05737,0.427599 0.01631,0.934607 -0.05036,0.621758 -0.04946,0.625279 0.159403,0.626755 0.134569,9.51e-4 0.692002,0.08267 1.234182,0.180924 0.230183,0.04171 0.425822,0.06854 0.434752,0.05961 0.0089,-0.0089 0.06409,-0.230204 0.122572,-0.491721 0.178456,-0.79797 0.563272,-1.477862 1.322886,-2.337269 0.189683,-0.214602 0.409062,-0.432661 0.487509,-0.484575 l 0.142632,-0.09439 0.432877,0.132872 c 0.5814,0.178462 0.741987,0.259088 0.775512,0.389361 0.07527,0.292496 0.142311,1.05201 0.141166,1.599341 -0.0017,0.805804 -0.05393,1.082356 -0.323532,1.712623 -0.117405,0.274465 -0.213464,0.509032 -0.213464,0.521259 0,0.01223 0.180408,0.107001 0.400908,0.210607 0.2205,0.103607 0.596023,0.294811 0.834497,0.424897 0.238474,0.130086 0.447472,0.22794 0.46444,0.217453 0.01697,-0.01049 0.151948,-0.224646 0.299955,-0.475908 0.148008,-0.251263 0.342229,-0.538173 0.431603,-0.637578 0.359937,-0.400338 1.045893,-0.883463 1.800574,-1.268163 l 0.455089,-0.231982 0.147795,0.09707 c 0.228655,0.150172 0.818286,0.58886 0.849722,0.632198 0.06571,0.09059 -0.113956,1.097777 -0.29727,1.666468 -0.05723,0.177539 -0.207115,0.530261 -0.333081,0.783827 -0.195146,0.392821 -0.278996,0.51699 -0.566758,0.839284 l -0.337728,0.378255 0.676548,0.676547 0.676547,0.676548 0.378255,-0.337728 c 0.322294,-0.287762 0.446463,-0.371612 0.839284,-0.566758 0.253566,-0.125966 0.606288,-0.275853 0.783827,-0.333081 0.568691,-0.183314 1.575881,-0.362979 1.666466,-0.29727 0.04334,0.03144 0.482027,0.621067 0.632198,0.849722 l 0.09707,0.147795 -0.231982,0.455089 c -0.384701,0.754681 -0.867827,1.440637 -1.268164,1.800574 -0.0994,0.08937 -0.386315,0.283595 -0.637578,0.431603 -0.251262,0.148007 -0.465421,0.282987 -0.475908,0.299955 -0.01049,0.01697 0.08737,0.225966 0.217453,0.46444 0.130086,0.238474 0.32129,0.613997 0.424897,0.834497 0.103606,0.2205 0.198379,0.400908 0.210607,0.400908 0.01223,0 0.246794,-0.09606 0.521259,-0.213464 0.630266,-0.269604 0.906819,-0.321847 1.712623,-0.323532 0.54733,-0.0011 1.306846,0.06589 1.599341,0.141166 0.130272,0.03352 0.210899,0.194112 0.38936,0.775512 l 0.132872,0.432877 -0.09439,0.142632 c -0.115928,0.175176 -0.765701,0.753949 -1.184996,1.05551 -0.170627,0.122719 -0.501738,0.318845 -0.735799,0.435837 -0.347771,0.173827 -0.512486,0.232151 -0.901048,0.319048 -0.261517,0.05848 -0.482793,0.113643 -0.491723,0.122572 -0.0089,0.0089 0.0179,0.204569 0.05961,0.434752 0.09826,0.54218 0.179971,1.099613 0.180922,1.234182 0.0015,0.208865 0.005,0.209761 0.626754,0.159403 0.507011,-0.04106 0.600753,-0.03943 0.934608,0.01631 0.204094,0.03407 0.565761,0.125524 0.803701,0.203229 0.425271,0.138882 1.491229,0.632055 1.543379,0.714054 0.01464,0.02302 0.02661,0.305167 0.02661,0.627001 0,0.321833 -0.01198,0.603983 -0.02661,0.627 -0.05215,0.082 -1.118108,0.575172 -1.543379,0.714054 -0.23794,0.07771 -0.599607,0.169158 -0.803701,0.203229 -0.333855,0.05573 -0.427597,0.05737 -0.934608,0.01631 -0.621757,-0.05036 -0.625275,-0.04946 -0.626754,0.159403 -9.58e-4,0.134569 -0.08267,0.692002 -0.180922,1.234182 -0.04172,0.230184 -0.06854,0.425822 -0.05961,0.434752 0.0089,0.0089 0.230206,0.06409 0.491723,0.122572 0.797969,0.178456 1.477859,0.563272 2.33727,1.322887 0.214602,0.189683 0.432658,0.409061 0.484573,0.487509 l 0.09439,0.142631 -0.132872,0.432877 c -0.178461,0.5814 -0.259088,0.741987 -0.38936,0.775512 -0.292495,0.07527 -1.052011,0.142311 -1.599341,0.141167 -0.805804,-0.0017 -1.082357,-0.05393 -1.712623,-0.323533 -0.274465,-0.117405 -0.509032,-0.213464 -0.521259,-0.213464 -0.01223,0 -0.107001,0.180409 -0.210607,0.400908 -0.103607,0.2205 -0.294811,0.596024 -0.424897,0.834497 -0.130086,0.238474 -0.22794,0.447472 -0.217453,0.46444 0.01049,0.01697 0.224646,0.151948 0.475908,0.299955 0.251263,0.148008 0.538173,0.342229 0.637578,0.431603 0.400337,0.359938 0.883463,1.045893 1.268164,1.800575 l 0.231982,0.455088 -0.09707,0.147795 c -0.150171,0.228655 -0.588858,0.818286 -0.632198,0.849722 -0.09058,0.06571 -1.097775,-0.113956 -1.666466,-0.29727 -0.177539,-0.05723 -0.530261,-0.207115 -0.783827,-0.333081 -0.392821,-0.195146 -0.51699,-0.278995 -0.839284,-0.566758 l -0.378255,-0.337728 -0.676547,0.676548 -0.676548,0.676547 0.337728,0.378255 c 0.287762,0.322294 0.371612,0.446463 0.566758,0.839284 0.125966,0.253566 0.275853,0.606288 0.333081,0.783827 0.183314,0.568691 0.362979,1.575881 0.29727,1.666466 -0.03144,0.04334 -0.621067,0.482027 -0.849722,0.632199 l -0.147795,0.09707 -0.455089,-0.231982 c -0.754681,-0.3847 -1.440637,-0.867826 -1.800574,-1.268163 -0.08937,-0.09941 -0.283595,-0.386316 -0.431603,-0.637579 -0.148007,-0.251262 -0.282987,-0.46542 -0.299955,-0.475907 -0.01697,-0.01049 -0.225966,0.08737 -0.46444,0.217453 -0.238474,0.130086 -0.613997,0.321289 -0.834497,0.424896 -0.2205,0.103606 -0.400908,0.19838 -0.400908,0.210607 0,0.01223 0.09606,0.246794 0.213464,0.521259 0.269604,0.630266 0.321847,0.90682 0.323532,1.712623 0.0011,0.54733 -0.06589,1.306847 -0.141166,1.599341 -0.03352,0.130272 -0.194112,0.210899 -0.775512,0.38936 l -0.432877,0.132872 -0.142632,-0.09439 c -0.175181,-0.115928 -0.753954,-0.765702 -1.055515,-1.184997 -0.122719,-0.170627 -0.318845,-0.501738 -0.435837,-0.735798 -0.173827,-0.347772 -0.232151,-0.512487 -0.319048,-0.901049 -0.05848,-0.261517 -0.113643,-0.482793 -0.122572,-0.491723 -0.0089,-0.0089 -0.204569,0.01789 -0.434752,0.05961 -0.54218,0.09826 -1.099613,0.179972 -1.234182,0.180922 -0.208865,0.0015 -0.209761,0.005 -0.159403,0.626754 0.04106,0.507012 0.03943,0.600753 -0.01631,0.934609 -0.03407,0.204093 -0.125524,0.56576 -0.203229,0.8037 -0.138882,0.425271 -0.632055,1.49123 -0.714054,1.543379 -0.02302,0.01464 -0.305167,0.02662 -0.627001,0.02662 -0.321833,0 -0.603983,-0.01198 -0.627,-0.02662 z m 1.354007,-11.072303 c 0.845138,-0.07638 1.872908,-0.341267 2.707856,-0.697895 1.826712,-0.780237 3.527527,-2.481051 4.307763,-4.307763 0.465106,-1.088919 0.733151,-2.34473 0.733151,-3.434863 0,-1.090134 -0.268045,-2.345945 -0.733151,-3.434863 -0.780236,-1.826712 -2.481051,-3.527527 -4.307763,-4.307763 -1.088918,-0.465106 -2.344729,-0.733151 -3.434863,-0.733151 -1.090133,0 -2.345944,0.268045 -3.434863,0.733151 -1.826712,0.780236 -3.527526,2.481051 -4.307763,4.307763 -0.465105,1.088918 -0.73315,2.344729 -0.73315,3.434863 0,1.090133 0.268045,2.345944 0.73315,3.434863 0.780237,1.826712 2.481051,3.527526 4.307763,4.307763 1.352589,0.577725 2.802077,0.820787 4.16187,0.697895 z"
       id="path3109"
       inkscape:connector-curvature="0" />
  </g>
</svg>
