<?xml version="1.0" encoding="UTF-8" standalone="no"?>
<!-- Created with Inkscape (http://www.inkscape.org/) -->

<svg
   xmlns:dc="http://purl.org/dc/elements/1.1/"
   xmlns:cc="http://creativecommons.org/ns#"
   xmlns:rdf="http://www.w3.org/1999/02/22-rdf-syntax-ns#"
   xmlns:svg="http://www.w3.org/2000/svg"
   xmlns="http://www.w3.org/2000/svg"
   xmlns:sodipodi="http://sodipodi.sourceforge.net/DTD/sodipodi-0.dtd"
   xmlns:inkscape="http://www.inkscape.org/namespaces/inkscape"
   width="744.09448819"
   height="1052.3622047"
   id="svg2"
   version="1.1"
   inkscape:version="0.48.4 r9939"
   sodipodi:docname="New document 1">
  <defs
     id="defs4" />
  <sodipodi:namedview
     id="base"
     pagecolor="#ffffff"
     bordercolor="#666666"
     borderopacity="1.0"
     inkscape:pageopacity="0.0"
     inkscape:pageshadow="2"
     inkscape:zoom="1.24"
     inkscape:cx="122.91974"
     inkscape:cy="894.39845"
     inkscape:document-units="px"
     inkscape:current-layer="layer1"
     showgrid="false"
     showguides="true"
     inkscape:guide-bbox="true"
     inkscape:snap-global="true"
     inkscape:window-width="804"
     inkscape:window-height="553"
     inkscape:window-x="186"
     inkscape:window-y="68"
     inkscape:window-maximized="0">
    <inkscape:grid
       type="xygrid"
       id="grid3761" />
  </sodipodi:namedview>
  <metadata
     id="metadata7">
    <rdf:RDF>
      <cc:Work
         rdf:about="">
        <dc:format>image/svg+xml</dc:format>
        <dc:type
           rdf:resource="http://purl.org/dc/dcmitype/StillImage" />
        <dc:title></dc:title>
      </cc:Work>
    </rdf:RDF>
  </metadata>
  <g
     inkscape:label="Layer 1"
     inkscape:groupmode="layer"
     id="layer1">
    <path
       style="fill:none;stroke:#000000;stroke-width:0.2;stroke-miterlimit:4;stroke-opacity:1;stroke-dasharray:none"
       d="m 121.86371,246.45567 c -30.544885,-1.48982 -58.799245,-15.86958 -77.891865,-39.64222 -13.48115,-16.78568 -21.58194,-37.38953 -23.12576,-58.8189 -0.19391,-2.69169 -0.24988,-4.42178 -0.24988,-7.72441 0,-4.16417 0.13368,-7.00368 0.50045,-10.62992 2.8736,-28.4116 16.9756,-54.392911 39.21981,-72.258001 16.78568,-13.481154 37.38953,-21.581945 58.818895,-23.125759 2.69169,-0.193915 4.42178,-0.249883 7.72441,-0.249883 4.16417,0 7.00368,0.133682 10.62992,0.500445 26.27607,2.657608 50.54145,14.926761 68.25044,34.509051 15.82797,17.502298 25.43851,40.004307 27.13333,63.529657 0.19391,2.69169 0.24988,4.42178 0.24988,7.72441 0,4.16417 -0.13369,7.00369 -0.50045,10.62992 -2.65761,26.27608 -14.92676,50.54145 -34.50905,68.25044 -12.8682,11.63719 -28.54938,20.00096 -45.42336,24.22717 -6.91757,1.73256 -13.75992,2.73369 -21.08268,3.08471 -1.71192,0.0821 -8.01315,0.0777 -9.74409,-0.007 z m 6.22949,-3.57415 c 1.50126,-0.35387 2.89296,-1.4912 3.56015,-2.90944 0.36595,-0.7779 0.48385,-1.32885 0.48385,-2.26099 0,-0.93217 -0.11791,-1.48312 -0.48388,-2.26099 -0.51385,-1.09221 -1.44046,-2.01883 -2.53256,-2.53259 -0.7779,-0.36595 -1.32885,-0.48385 -2.26099,-0.48385 -0.93214,0 -1.4831,0.1179 -2.26099,0.48385 -1.09211,0.51376 -2.01871,1.44038 -2.53257,2.53259 -0.36596,0.77787 -0.48387,1.32882 -0.48387,2.26099 0,0.93214 0.1179,1.48309 0.48385,2.26099 0.65953,1.40197 2.05195,2.5489 3.52839,2.90631 0.56233,0.13614 1.92714,0.13784 2.49862,0.003 z m -15.11358,-1.24113 c 1.41477,-0.35817 2.77464,-1.47544 3.40242,-2.79544 0.40342,-0.84826 0.54273,-1.55225 0.50376,-2.54573 -0.0581,-1.48183 -0.48687,-2.45922 -1.54138,-3.51373 -1.04501,-1.04501 -2.03098,-1.4812 -3.48428,-1.54143 -1.03945,-0.0431 -1.69267,0.0877 -2.57518,0.51553 -1.85254,0.8981 -2.95377,2.6678 -2.95377,4.74677 0,2.05749 1.08838,3.82648 2.92254,4.75015 1.15532,0.58181 2.42665,0.7128 3.72589,0.38388 z m 30.48314,-0.003 c 1.04698,-0.26511 2.1842,-1.01277 2.81318,-1.8495 0.77149,-1.0263 1.1124,-2.03206 1.1124,-3.28179 0,-2.07822 -1.10278,-3.85052 -2.95377,-4.74705 -0.88287,-0.42763 -1.53603,-0.55831 -2.57517,-0.51525 -1.4533,0.0602 -2.43927,0.49642 -3.48428,1.54143 -1.05452,1.05451 -1.48327,2.0319 -1.54139,3.51372 -0.028,0.71515 -0.009,0.95397 0.11714,1.45276 0.29823,1.18122 0.9097,2.14688 1.82773,2.88638 1.33688,1.0769 2.98724,1.42899 4.68416,0.9993 z M 97.824525,238.1393 c 1.07182,-0.22546 1.99152,-0.74266 2.760835,-1.55255 1.37881,-1.45153 1.81993,-3.43846 1.18583,-5.34134 -0.62915,-1.88802 -2.206055,-3.21077 -4.222245,-3.54172 -0.6083,-0.0999 -0.8182,-0.10516 -1.37541,-0.0348 -2.17585,0.27482 -3.80253,1.62378 -4.5121,3.74179 -0.14246,0.4252 -0.16375,0.62802 -0.16297,1.55211 8.5e-4,0.98004 0.0164,1.10722 0.19898,1.62992 0.76897,2.20094 2.7196,3.6266 4.98643,3.64447 0.35799,0.003 0.87128,-0.0412 1.14065,-0.0979 z m 60.382675,-0.0398 c 1.78357,-0.42757 3.19112,-1.72146 3.8149,-3.5068 0.18262,-0.5227 0.19814,-0.64988 0.19897,-1.62992 7.8e-4,-0.92409 -0.0205,-1.12691 -0.16296,-1.55211 -0.57167,-1.70638 -1.71582,-2.89857 -3.33354,-3.47355 -0.83707,-0.29752 -1.68918,-0.37541 -2.55397,-0.23345 -2.42055,0.39733 -4.17066,2.21801 -4.47648,4.657 -0.32825,2.61785 1.52508,5.1971 4.1487,5.77369 0.65926,0.14489 1.67721,0.12988 2.36438,-0.0349 z m -74.207145,-5.88445 c 0.88829,-0.22719 1.59797,-0.64735 2.32431,-1.3761 0.35079,-0.35196 0.74512,-0.82294 0.87627,-1.04662 0.80494,-1.37276 0.94363,-3.18601 0.35605,-4.655 -0.58076,-1.45197 -1.78354,-2.58437 -3.28746,-3.09509 -0.75877,-0.25768 -1.95523,-0.31612 -2.77522,-0.13557 -2.21967,0.48877 -3.84891,2.28771 -4.14205,4.5735 -0.20155,1.57156 0.37011,3.20342 1.52654,4.35765 0.58972,0.5886 1.16896,0.95695 1.95715,1.24461 1.00841,0.36802 2.07002,0.41252 3.16441,0.13262 z m 87.743675,0.14241 c 1.17861,-0.14779 2.24903,-0.67297 3.09732,-1.51964 1.15642,-1.15423 1.72809,-2.78609 1.52654,-4.35765 -0.29314,-2.28579 -1.92238,-4.08473 -4.14205,-4.5735 -0.81999,-0.18055 -2.01646,-0.12211 -2.77522,0.13557 -1.85569,0.63018 -3.25787,2.23933 -3.58323,4.11216 -0.13777,0.79306 -0.0553,1.87148 0.19959,2.61109 0.30315,0.87947 0.59954,1.34207 1.3285,2.07346 0.88386,0.88679 1.77104,1.33752 2.97916,1.51353 0.59925,0.0873 0.70967,0.0877 1.36939,0.005 z M 70.946385,224.24275 c 2.29473,-0.61077 3.93307,-2.74088 3.93307,-5.11366 0,-0.86843 -0.15345,-1.53832 -0.53223,-2.32351 -0.86065,-1.78404 -2.50365,-2.8845 -4.46673,-2.99177 -1.63086,-0.0891 -3.05869,0.49415 -4.19918,1.71537 -0.57335,0.61393 -1.01258,1.40371 -1.23064,2.21277 -0.18886,0.70072 -0.20565,1.89277 -0.0365,2.5878 0.49097,2.01693 2.15838,3.60603 4.19262,3.99571 0.60673,0.11622 1.74307,0.0761 2.33956,-0.0827 z m 114.134215,0.0804 c 2.0433,-0.36455 3.72933,-1.95826 4.22473,-3.99341 0.16919,-0.69503 0.15239,-1.88708 -0.0365,-2.5878 -0.21806,-0.80906 -0.65729,-1.59884 -1.23064,-2.21277 -1.14049,-1.22122 -2.56832,-1.8045 -4.19918,-1.71537 -1.96308,0.10727 -3.60608,1.20773 -4.46673,2.99177 -0.72941,1.51198 -0.71891,3.15806 0.0298,4.67716 1.03935,2.10873 3.33716,3.25812 5.67845,2.84042 z M 59.253475,214.32678 c 0.58635,-0.14983 1.62409,-0.67519 2.08059,-1.05331 1.17041,-0.96943 1.83193,-2.30479 1.90492,-3.84529 0.0471,-0.99443 -0.0879,-1.66343 -0.51331,-2.54386 -0.55613,-1.15093 -1.32915,-1.92395 -2.48007,-2.48008 -0.88044,-0.42543 -1.54945,-0.56042 -2.54386,-0.5133 -1.54051,0.073 -2.87587,0.7345 -3.8453,1.90491 -0.38386,0.46343 -0.90264,1.49289 -1.06636,2.11603 -0.16374,0.62325 -0.15945,1.92624 0.008,2.54708 0.57233,2.11706 2.23839,3.62308 4.39988,3.97726 0.48217,0.079 1.53761,0.0228 2.05512,-0.10944 z m 137.813045,-0.005 c 1.88092,-0.4874 3.33636,-1.94592 3.85455,-3.86272 0.16784,-0.62084 0.17213,-1.92383 0.008,-2.54708 -0.16372,-0.62314 -0.6825,-1.6526 -1.06636,-2.11603 -0.63945,-0.77202 -1.53899,-1.37726 -2.51514,-1.69229 -0.74806,-0.24142 -1.90036,-0.29683 -2.67661,-0.1287 -1.12669,0.24402 -2.31135,0.96763 -3.02573,1.84818 -0.44865,0.553 -0.92912,1.55679 -1.08114,2.25868 -0.16813,0.77625 -0.11272,1.92856 0.1287,2.67661 0.61131,1.89416 2.14909,3.25145 4.12722,3.64278 0.59789,0.11828 1.62303,0.082 2.24612,-0.0794 z M 49.391785,202.67067 c 1.17731,-0.30111 2.36313,-1.1517 3.04901,-2.18708 1.28908,-1.94592 1.16986,-4.46984 -0.29715,-6.2908 -0.68702,-0.85279 -1.88544,-1.59194 -2.96715,-1.83005 -1.96927,-0.4335 -4.14901,0.35336 -5.34222,1.92846 -2.51774,3.32353 -0.53939,7.99218 3.61999,8.54269 0.44377,0.0587 1.37709,-0.0199 1.93752,-0.16322 z m 157.557955,0.0325 c 0.95616,-0.22176 1.94988,-0.81311 2.65124,-1.57774 2.37925,-2.59392 1.61356,-6.75737 -1.52861,-8.31187 -1.09607,-0.54226 -2.37302,-0.70537 -3.52932,-0.45083 -1.08172,0.23811 -2.28013,0.97726 -2.96715,1.83005 -1.2186,1.51262 -1.52852,3.6258 -0.7903,5.3886 0.56421,1.3473 1.89227,2.58404 3.23749,3.01492 0.89989,0.28823 1.97531,0.3275 2.92665,0.10687 z m -78.85654,-4.11298 c 1.50126,-0.35387 2.89296,-1.49121 3.56015,-2.90945 0.36595,-0.7779 0.48385,-1.32885 0.48385,-2.26099 0,-0.93217 -0.11791,-1.48312 -0.48388,-2.26099 -0.51385,-1.09221 -1.44046,-2.01883 -2.53256,-2.53259 -0.7779,-0.36595 -1.32885,-0.48385 -2.26099,-0.48385 -0.93214,0 -1.4831,0.1179 -2.26099,0.48385 -1.09211,0.51376 -2.01871,1.44038 -2.53257,2.53259 -0.36596,0.77787 -0.48387,1.32882 -0.48387,2.26099 0,0.93214 0.1179,1.48309 0.48385,2.26099 0.65953,1.40197 2.05195,2.5489 3.52839,2.90631 0.56233,0.13614 1.92714,0.13784 2.49862,0.003 z m -87.327515,-8.82568 c 1.43253,-0.19925 2.8387,-1.06007 3.64426,-2.23091 0.34075,-0.49526 0.67709,-1.28031 0.81304,-1.89769 0.18055,-0.81998 0.12211,-2.01645 -0.13556,-2.77522 -0.63019,-1.85569 -2.23934,-3.25786 -4.11216,-3.58322 -0.79307,-0.13778 -1.87149,-0.0553 -2.61111,0.19959 -0.87946,0.30314 -1.34206,0.59953 -2.07345,1.32849 -0.48716,0.48556 -0.70967,0.77317 -0.93206,1.20475 -0.52878,1.02616 -0.72109,2.0309 -0.59198,3.09275 0.28711,2.36134 2.00551,4.18637 4.36082,4.63143 0.63077,0.11919 0.95447,0.12512 1.6382,0.03 z m 173.660035,-8.5e-4 c 3.24321,-0.5032 5.26081,-3.67163 4.33752,-6.81161 -0.23104,-0.78577 -0.65761,-1.47192 -1.33441,-2.14648 -0.35195,-0.3508 -0.82294,-0.74512 -1.04661,-0.87628 -1.37277,-0.80494 -3.18601,-0.94363 -4.655,-0.35605 -1.45198,0.58076 -2.58437,1.78354 -3.09509,3.28747 -0.25768,0.75876 -0.31612,1.95523 -0.13557,2.77522 0.30344,1.37805 1.11988,2.55803 2.29666,3.31928 1.09911,0.71101 2.39772,1.00004 3.6325,0.80845 z M 35.759015,175.45642 c 1.04419,-0.35649 1.9096,-0.9399 2.51245,-1.69376 0.69943,-0.87464 1.0497,-1.70115 1.18928,-2.80628 0.20371,-1.61285 -0.46814,-3.39839 -1.69172,-4.49601 -2.09467,-1.87902 -5.19743,-1.84287 -7.22612,0.0842 -1.38829,1.31874 -1.95622,3.22326 -1.51277,5.07302 0.46178,1.92627 1.8919,3.37649 3.86113,3.91542 0.69865,0.19121 2.2009,0.1511 2.86775,-0.0766 z m 185.423585,-0.0286 c 2.19145,-0.74772 3.64729,-2.74936 3.64911,-5.01723 0.001,-1.51057 -0.56311,-2.8288 -1.65507,-3.86605 -1.45153,-1.37881 -3.43846,-1.81993 -5.34134,-1.18583 -1.88802,0.62915 -3.21077,2.20606 -3.54172,4.22225 -0.0999,0.6083 -0.10516,0.8182 -0.0348,1.37541 0.27303,2.16168 1.66614,3.84965 3.70636,4.49082 0.64965,0.20416 0.71031,0.21088 1.72927,0.19155 0.78893,-0.015 1.00269,-0.0453 1.48818,-0.21092 z M 31.990325,160.63765 c 0.99931,-0.25304 2.06161,-0.93532 2.74828,-1.76515 0.42648,-0.51538 0.91187,-1.53119 1.06121,-2.22084 0.0899,-0.41537 0.11165,-0.76396 0.086,-1.38189 -0.0602,-1.4533 -0.49642,-2.43927 -1.54143,-3.48428 -1.05451,-1.05451 -2.0319,-1.48327 -3.51372,-1.54138 -0.71515,-0.0281 -0.95397,-0.009 -1.45276,0.11714 -1.92918,0.48706 -3.40243,1.93045 -3.90357,3.82447 -0.19777,0.74743 -0.19658,1.89822 0.003,2.65198 0.29017,1.09737 1.02175,2.215 1.86465,2.84862 1.39422,1.04805 2.98273,1.37314 4.64857,0.95133 z m 192.472435,0 c 1.43886,-0.36434 2.69479,-1.39412 3.39424,-2.78306 0.72552,-1.44069 0.72399,-3.25882 -0.004,-4.70436 -0.70481,-1.39955 -1.96146,-2.39766 -3.51144,-2.78898 -0.49879,-0.12593 -0.73761,-0.14519 -1.45275,-0.11714 -1.48183,0.0581 -2.45921,0.48687 -3.51372,1.54138 -1.04502,1.04501 -1.4812,2.03098 -1.54143,3.48428 -0.0431,1.03945 0.0877,1.69267 0.51552,2.57518 1.11012,2.28988 3.60267,3.42849 6.11355,2.7927 z M 30.652255,145.44058 c 1.50126,-0.35387 2.89297,-1.49121 3.56015,-2.90945 0.36595,-0.77789 0.48386,-1.32885 0.48386,-2.26099 0,-0.93216 -0.11791,-1.48312 -0.48388,-2.26099 -0.51386,-1.09221 -1.44046,-2.01883 -2.53257,-2.53259 -0.77789,-0.36595 -1.32885,-0.48385 -2.26099,-0.48385 -0.93214,0 -1.48309,0.1179 -2.26099,0.48385 -1.41824,0.66719 -2.55557,2.05889 -2.90945,3.56015 -0.13902,0.5898 -0.13902,1.87706 0,2.46686 0.25274,1.07222 0.96153,2.17915 1.86099,2.90636 0.53214,0.43023 1.41959,0.87629 2.04427,1.02752 0.56233,0.13613 1.92714,0.13784 2.49861,0.003 z m 44.29134,0 c 1.50126,-0.35387 2.89297,-1.49121 3.56015,-2.90945 0.36595,-0.77789 0.48385,-1.32885 0.48385,-2.26099 0,-0.93216 -0.11791,-1.48312 -0.48387,-2.26099 -0.51386,-1.09221 -1.44046,-2.01883 -2.53257,-2.53259 -0.7779,-0.36595 -1.32885,-0.48385 -2.26099,-0.48385 -0.93214,0 -1.48309,0.1179 -2.26099,0.48385 -1.0921,0.51376 -2.01871,1.44038 -2.53256,2.53259 -0.36597,0.77787 -0.48388,1.32883 -0.48388,2.26099 0,0.93214 0.1179,1.4831 0.48385,2.26099 0.65954,1.40198 2.05195,2.5489 3.5284,2.90632 0.56233,0.13613 1.92713,0.13784 2.49861,0.003 z m 53.149605,0 c 1.50126,-0.35387 2.89296,-1.49121 3.56015,-2.90945 0.36595,-0.77789 0.48385,-1.32885 0.48385,-2.26099 0,-0.93216 -0.11791,-1.48312 -0.48388,-2.26099 -0.51385,-1.09221 -1.44046,-2.01883 -2.53256,-2.53259 -0.7779,-0.36595 -1.32885,-0.48385 -2.26099,-0.48385 -0.93214,0 -1.4831,0.1179 -2.26099,0.48385 -1.09211,0.51376 -2.01871,1.44038 -2.53257,2.53259 -0.36596,0.77787 -0.48387,1.32883 -0.48387,2.26099 0,0.93214 0.1179,1.4831 0.48385,2.26099 0.65953,1.40198 2.05195,2.5489 3.52839,2.90632 0.56233,0.13613 1.92714,0.13784 2.49862,0.003 z m 53.14961,0 c 1.50125,-0.35387 2.89296,-1.49121 3.56014,-2.90945 0.36596,-0.77789 0.48386,-1.32885 0.48386,-2.26099 0,-0.93216 -0.11791,-1.48312 -0.48388,-2.26099 -0.51386,-1.09221 -1.44046,-2.01883 -2.53256,-2.53259 -0.7779,-0.36595 -1.32886,-0.48385 -2.26099,-0.48385 -0.93214,0 -1.4831,0.1179 -2.261,0.48385 -1.0921,0.51376 -2.0187,1.44038 -2.53256,2.53259 -0.36597,0.77787 -0.48387,1.32883 -0.48387,2.26099 0,0.93214 0.1179,1.4831 0.48385,2.26099 0.65953,1.40198 2.05195,2.5489 3.52839,2.90632 0.56233,0.13613 1.92714,0.13784 2.49862,0.003 z m 44.29134,0 c 1.50125,-0.35387 2.89296,-1.49121 3.56014,-2.90945 0.36595,-0.77789 0.48385,-1.32885 0.48385,-2.26099 0,-0.93216 -0.1179,-1.48312 -0.48387,-2.26099 -0.51386,-1.09221 -1.44046,-2.01883 -2.53256,-2.53259 -0.7779,-0.36595 -1.32886,-0.48385 -2.261,-0.48385 -0.93213,0 -1.48309,0.1179 -2.26099,0.48385 -1.0921,0.51376 -2.0187,1.44038 -2.53256,2.53259 -0.36597,0.77787 -0.48388,1.32883 -0.48388,2.26099 0,0.93214 0.1179,1.4831 0.48386,2.26099 0.65953,1.40198 2.05195,2.5489 3.52839,2.90632 0.56233,0.13613 1.92714,0.13784 2.49862,0.003 z M 32.253475,130.07783 c 0.82282,-0.26988 1.40818,-0.64027 2.09095,-1.32304 1.04501,-1.04501 1.4812,-2.03098 1.54143,-3.48428 0.0431,-1.03914 -0.0876,-1.6923 -0.51525,-2.57517 -0.89653,-1.85099 -2.66884,-2.95377 -4.74705,-2.95377 -2.06773,0 -3.82589,1.08721 -4.76102,2.94412 -0.72555,1.44075 -0.72398,3.25882 0.004,4.70452 0.68986,1.36989 1.9354,2.37494 3.44593,2.78062 0.78284,0.21024 2.14805,0.16707 2.94095,-0.093 z m 192.124485,0.0928 c 1.51708,-0.38664 2.7773,-1.39495 3.47498,-2.78038 0.72805,-1.4457 0.72962,-3.26377 0.004,-4.70452 -0.53573,-1.06382 -1.28131,-1.82106 -2.33125,-2.36771 -0.792,-0.41235 -1.48357,-0.57641 -2.42976,-0.57641 -2.07822,0 -3.85052,1.10278 -4.74705,2.95377 -0.42763,0.88287 -0.55832,1.53603 -0.51525,2.57517 0.0568,1.37064 0.47659,2.38015 1.39933,3.36509 1.05483,1.12594 2.29158,1.66593 3.83391,1.67394 0.53071,0.003 0.91463,-0.0379 1.31103,-0.13895 z M 35.548745,115.28188 c 3.00118,-0.79723 4.67566,-3.97142 3.6372,-6.89476 -0.56767,-1.59803 -1.76844,-2.74627 -3.46698,-3.31532 -0.4252,-0.14245 -0.62802,-0.16374 -1.55211,-0.16296 -0.98004,8.5e-4 -1.10722,0.0164 -1.62992,0.19897 -2.20515,0.77045 -3.64728,2.7551 -3.64911,5.02187 -10e-4,1.51058 0.56312,2.8288 1.65508,3.86605 1.36506,1.29668 3.19565,1.76701 5.00584,1.28615 z m 185.244095,0.0364 c 0.77568,-0.17329 1.69814,-0.67902 2.34012,-1.28294 1.13164,-1.06457 1.69999,-2.37128 1.69875,-3.90565 -0.002,-2.26677 -1.44396,-4.25142 -3.64911,-5.02187 -0.52269,-0.18262 -0.64987,-0.19814 -1.62992,-0.19897 -0.92408,-7.8e-4 -1.1269,0.0205 -1.5521,0.16296 -1.70638,0.57167 -2.89857,1.71582 -3.47355,3.33354 -0.29752,0.83707 -0.37541,1.68918 -0.23345,2.55397 0.3317,2.02075 1.65312,3.59286 3.55184,4.22565 0.98063,0.32682 1.89593,0.36822 2.94742,0.13331 z M 41.151655,101.22814 c 1.80893,-0.38348 3.32517,-1.750539 3.93577,-3.548549 0.25767,-0.75877 0.31611,-1.95523 0.13556,-2.77521 -0.48876,-2.21968 -2.28771,-3.84892 -4.57349,-4.14206 -1.57157,-0.20154 -3.20343,0.37012 -4.35765,1.52654 -2.03274,2.03661 -2.09023,5.25351 -0.13112,7.33606 0.79134,0.841199 1.70326,1.371059 2.75417,1.600269 0.5663,0.12352 1.6612,0.12496 2.23676,0.003 z m 174.203005,-0.16327 c 0.88199,-0.30599 1.34367,-0.60206 2.07417,-1.330139 0.92253,-0.91947 1.34192,-1.77118 1.52285,-3.09263 0.14869,-1.08597 -0.14189,-2.39669 -0.75601,-3.4101 -1.02743,-1.69544 -3.158,-2.72202 -5.12562,-2.46968 -2.28578,0.29314 -4.08473,1.92238 -4.57349,4.14206 -0.18055,0.81998 -0.12211,2.01644 0.13557,2.77521 0.4993,1.4703 1.61035,2.670649 3.01764,3.260179 0.74216,0.31091 1.21754,0.38958 2.19819,0.36379 0.76687,-0.0202 0.9692,-0.0522 1.5067,-0.23869 z M 128.0932,92.290981 c 1.50126,-0.35388 2.89296,-1.49121 3.56015,-2.90945 0.36595,-0.7779 0.48385,-1.32885 0.48385,-2.26099 0,-0.93217 -0.11791,-1.48313 -0.48388,-2.26099 -0.51385,-1.09222 -1.44046,-2.01883 -2.53256,-2.53259 -0.7779,-0.36595 -1.32885,-0.48386 -2.26099,-0.48386 -0.93214,0 -1.4831,0.11791 -2.26099,0.48386 -1.09211,0.51376 -2.01871,1.44037 -2.53257,2.53259 -0.36596,0.77786 -0.48387,1.32882 -0.48387,2.26099 0,0.93214 0.1179,1.48309 0.48385,2.26099 0.65953,1.40197 2.05195,2.5489 3.52839,2.90631 0.56233,0.13613 1.92714,0.13784 2.49862,0.003 z m -78.916705,-4.11343 c 1.08171,-0.23811 2.28013,-0.97726 2.96715,-1.83005 1.2186,-1.51262 1.52852,-3.6258 0.7903,-5.3886 -0.61764,-1.474856 -1.99778,-2.680586 -3.54598,-3.097855 -0.70071,-0.188856 -1.89276,-0.205654 -2.5878,-0.03647 -2.47843,0.60331 -4.21622,2.925415 -4.06947,5.437775 0.1657,2.83662 2.43087,5.00779 5.24107,5.02357 0.38745,0.002 0.92025,-0.0457 1.20473,-0.10837 z m 157.768395,-0.029 c 3.50618,-0.88393 5.13103,-4.80667 3.27859,-7.915236 -0.68552,-1.150381 -1.96419,-2.082528 -3.3041,-2.408695 -0.69504,-0.169187 -1.88708,-0.152389 -2.5878,0.03647 -1.20028,0.323497 -2.36988,1.164696 -3.05284,2.195652 -1.28907,1.945919 -1.16985,4.469829 0.29716,6.290809 0.67417,0.83684 1.79215,1.54232 2.85956,1.80447 0.72676,0.17849 1.79352,0.17702 2.50943,-0.004 z M 59.097755,76.555505 c 0.66076,-0.145454 1.67309,-0.636337 2.20912,-1.071212 0.88055,-0.714383 1.60416,-1.899037 1.84819,-3.025723 0.16812,-0.776258 0.11271,-1.928562 -0.1287,-2.676614 -0.31504,-0.976159 -0.92028,-1.875689 -1.6923,-2.515144 -0.46343,-0.383857 -1.49288,-0.902641 -2.11602,-1.066356 -0.62326,-0.163744 -1.92624,-0.159454 -2.54709,0.0084 -1.92319,0.519921 -3.35256,1.949293 -3.87248,3.872487 -0.16784,0.620841 -0.17213,1.923829 -0.008,2.547082 0.16371,0.623143 0.6825,1.652592 1.06635,2.116024 0.56534,0.682532 1.46361,1.325474 2.24689,1.60822 0.88993,0.321244 2.08791,0.402397 2.99442,0.202849 z M 197.34796,76.43782 c 0.97855,-0.317769 1.87648,-0.922323 2.51514,-1.693384 0.38386,-0.463432 0.90264,-1.492881 1.06636,-2.116024 0.16374,-0.623253 0.15945,-1.926241 -0.008,-2.547082 -0.51992,-1.923194 -1.9493,-3.352566 -3.87248,-3.872487 -0.62085,-0.167841 -1.92384,-0.172131 -2.54709,-0.0084 -0.62314,0.163715 -1.65259,0.682499 -2.11603,1.066356 -0.77201,0.639455 -1.37725,1.538985 -1.69229,2.515144 -0.24142,0.748052 -0.29683,1.900356 -0.1287,2.676614 0.15202,0.701888 0.63249,1.70567 1.08114,2.258676 0.68519,0.844564 1.78605,1.541935 2.86858,1.817181 0.75589,0.192193 2.08382,0.146922 2.83376,-0.09661 z M 71.088125,66.53412 c 1.48589,-0.46702 2.59243,-1.417478 3.2591,-2.799409 0.72979,-1.512784 0.71891,-3.161603 -0.0309,-4.677166 -1.55451,-3.142175 -5.71795,-3.907863 -8.31187,-1.528613 -0.76924,0.705577 -1.34601,1.678166 -1.59028,2.681607 -0.16918,0.695032 -0.15239,1.887082 0.0365,2.587797 0.51131,1.897092 2.09076,3.404474 4.0191,3.835689 0.69704,0.155873 1.95758,0.107776 2.61835,-0.0999 z m 114.115035,0.09961 c 1.94598,-0.401952 3.54753,-1.912777 4.06571,-3.83539 0.18885,-0.700715 0.20565,-1.892765 0.0365,-2.587797 -0.79788,-3.277738 -4.42447,-5.011351 -7.45344,-3.562945 -1.83589,0.877896 -3.01181,2.737777 -3.01181,4.763597 0,3.391121 3.06212,5.904368 6.36308,5.222535 z M 84.269225,58.498698 c 1.85832,-0.634055 3.25793,-2.240623 3.58322,-4.113064 0.13778,-0.793064 0.0554,-1.871486 -0.19959,-2.611105 -0.30314,-0.879467 -0.59953,-1.342064 -1.32849,-2.073451 -0.91948,-0.922523 -1.77118,-1.341914 -3.09263,-1.522846 -1.08597,-0.14869 -2.3967,0.141897 -3.41011,0.756017 -1.69544,1.027423 -2.72201,3.157994 -2.46967,5.125612 0.28647,2.233814 1.84238,3.999355 4.00949,4.549691 0.77879,0.197774 2.15726,0.145223 2.90778,-0.110854 z m 88.001755,0.125645 c 2.18128,-0.488834 3.8061,-2.299233 4.09661,-4.564482 0.20155,-1.571565 -0.37012,-3.203424 -1.52654,-4.35765 -1.39411,-1.391458 -3.39463,-1.895623 -5.29939,-1.335542 -0.78576,0.231048 -1.47192,0.657612 -2.14648,1.334409 -0.35079,0.351962 -0.74512,0.82294 -0.87627,1.046618 -0.80202,1.367791 -0.94344,3.186467 -0.361,4.642667 0.64251,1.606357 1.95457,2.760969 3.64674,3.209108 0.63746,0.168818 1.77292,0.180268 2.46633,0.02487 z M 98.052685,52.748038 c 1.82237,-0.434227 3.307255,-1.915352 3.834085,-3.824351 0.19457,-0.70503 0.21006,-1.814088 0.0356,-2.551181 -0.19485,-0.823365 -0.68986,-1.729695 -1.29744,-2.375555 -1.064555,-1.131639 -2.371265,-1.69999 -3.905635,-1.698752 -2.26678,0.0018 -4.25143,1.443957 -5.02187,3.64911 -0.18262,0.522691 -0.19815,0.649875 -0.19898,1.629921 -7.8e-4,0.92409 0.0205,1.126905 0.16297,1.552105 0.44841,1.338463 1.27406,2.383995 2.42968,3.076752 1.07207,0.642661 2.63918,0.857046 3.96157,0.541951 z m 59.811025,0.07841 c 2.02038,-0.3658 3.52167,-1.689105 4.1944,-3.697114 0.14245,-0.4252 0.16374,-0.628015 0.16296,-1.552105 -8.5e-4,-0.980046 -0.0164,-1.10723 -0.19897,-1.629921 -0.77045,-2.205153 -2.7551,-3.647281 -5.02187,-3.64911 -1.51058,-0.0012 -2.8288,0.563119 -3.86605,1.655075 -1.37882,1.451532 -1.81993,3.438457 -1.18583,5.34134 0.82371,2.471901 3.37063,3.99257 5.91536,3.531835 z M 113.25347,49.07783 c 0.82282,-0.269883 1.40817,-0.640262 2.09095,-1.323036 1.05451,-1.054514 1.48327,-2.031897 1.54138,-3.513721 0.0281,-0.715149 0.009,-0.95397 -0.11714,-1.452756 -0.48705,-1.929129 -1.93051,-3.402442 -3.82447,-3.903576 -0.74743,-0.197765 -1.89822,-0.196577 -2.65198,0.0027 -1.86205,0.492367 -3.32327,1.95664 -3.81785,3.825806 -0.19776,0.747426 -0.19657,1.898207 0.003,2.651979 0.49242,1.862261 1.98611,3.342818 3.84811,3.814282 0.78284,0.198215 2.15962,0.150391 2.92825,-0.101716 z m 30.03325,0.123343 c 1.06853,-0.235214 2.22002,-0.945224 2.92103,-1.801109 1.30168,-1.589268 1.56399,-3.897962 0.64925,-5.714372 -0.70436,-1.398695 -1.93544,-2.403103 -3.42967,-2.798213 -0.75377,-0.199315 -1.90455,-0.200503 -2.65198,-0.0027 -1.89396,0.501135 -3.33743,1.974448 -3.82448,3.903577 -0.21014,0.832342 -0.1669,2.05373 0.1018,2.875526 0.4489,1.372934 1.5402,2.600061 2.84247,3.196262 0.95998,0.439494 2.32216,0.576479 3.39158,0.341068 z M 128.0932,47.999638 c 1.50126,-0.353873 2.89296,-1.491209 3.56015,-2.90945 0.36595,-0.777897 0.48385,-1.32885 0.48385,-2.260989 0,-0.932169 -0.11791,-1.483123 -0.48388,-2.26099 -0.66731,-1.418392 -2.0588,-2.555563 -3.56012,-2.90945 -0.5898,-0.139028 -1.87706,-0.139028 -2.46686,0 -1.50132,0.353887 -2.89282,1.491058 -3.56013,2.90945 -0.36596,0.777867 -0.48387,1.328821 -0.48387,2.26099 0,0.932139 0.1179,1.483092 0.48385,2.260989 0.65953,1.401974 2.05195,2.5489 3.52839,2.906317 0.56233,0.136129 1.92714,0.137841 2.49862,0.0031 z"
       id="path3800"
       inkscape:connector-curvature="0" />
  </g>
</svg>
