%TF.GenerationSoftware,KiCad,Pcbnew,10.0.5*%
%TF.CreationDate,2026-08-15T10:44:25+02:00*%
%TF.ProjectId,attiny44-ring,61747469-6e79-4343-942d-72696e672e6b,1.0*%
%TF.SameCoordinates,Original*%
%TF.FileFunction,Copper,L1,Top*%
%TF.FilePolarity,Positive*%
%FSLAX46Y46*%
G04 Gerber Fmt 4.6, Leading zero omitted, Abs format (unit mm)*
G04 Created by KiCad (PCBNEW 10.0.5) date 2026-08-15 10:44:25*
%MOMM*%
%LPD*%
G01*
G04 APERTURE LIST*
G04 Aperture macros list*
%AMRoundRect*
0 Rectangle with rounded corners*
0 $1 Rounding radius*
0 $2 $3 $4 $5 $6 $7 $8 $9 X,Y pos of 4 corners*
0 Add a 4 corners polygon primitive as box body*
4,1,4,$2,$3,$4,$5,$6,$7,$8,$9,$2,$3,0*
0 Add four circle primitives for the rounded corners*
1,1,$1+$1,$2,$3*
1,1,$1+$1,$4,$5*
1,1,$1+$1,$6,$7*
1,1,$1+$1,$8,$9*
0 Add four rect primitives between the rounded corners*
20,1,$1+$1,$2,$3,$4,$5,0*
20,1,$1+$1,$4,$5,$6,$7,0*
20,1,$1+$1,$6,$7,$8,$9,0*
20,1,$1+$1,$8,$9,$2,$3,0*%
G04 Aperture macros list end*
%TA.AperFunction,ComponentPad*%
%ADD10C,3.000000*%
%TD*%
%TA.AperFunction,ComponentPad*%
%ADD11RoundRect,0.250000X-0.725000X0.600000X-0.725000X-0.600000X0.725000X-0.600000X0.725000X0.600000X0*%
%TD*%
%TA.AperFunction,ComponentPad*%
%ADD12O,1.950000X1.700000*%
%TD*%
%TA.AperFunction,ComponentPad*%
%ADD13RoundRect,0.250000X-0.550000X-0.550000X0.550000X-0.550000X0.550000X0.550000X-0.550000X0.550000X0*%
%TD*%
%TA.AperFunction,ComponentPad*%
%ADD14C,1.600000*%
%TD*%
%TA.AperFunction,ComponentPad*%
%ADD15RoundRect,0.250000X0.725000X-0.600000X0.725000X0.600000X-0.725000X0.600000X-0.725000X-0.600000X0*%
%TD*%
%TA.AperFunction,SMDPad,CuDef*%
%ADD16RoundRect,0.250000X-0.337500X-0.475000X0.337500X-0.475000X0.337500X0.475000X-0.337500X0.475000X0*%
%TD*%
%TA.AperFunction,SMDPad,CuDef*%
%ADD17RoundRect,0.150000X0.150000X-0.825000X0.150000X0.825000X-0.150000X0.825000X-0.150000X-0.825000X0*%
%TD*%
%TA.AperFunction,ComponentPad*%
%ADD18RoundRect,0.250000X-0.600000X-0.600000X0.600000X-0.600000X0.600000X0.600000X-0.600000X0.600000X0*%
%TD*%
%TA.AperFunction,ComponentPad*%
%ADD19C,1.700000*%
%TD*%
%TA.AperFunction,ComponentPad*%
%ADD20RoundRect,0.250000X-0.600000X-0.725000X0.600000X-0.725000X0.600000X0.725000X-0.600000X0.725000X0*%
%TD*%
%TA.AperFunction,ComponentPad*%
%ADD21O,1.700000X1.950000*%
%TD*%
%TA.AperFunction,SMDPad,CuDef*%
%ADD22RoundRect,0.250000X-0.350000X-0.450000X0.350000X-0.450000X0.350000X0.450000X-0.350000X0.450000X0*%
%TD*%
%TA.AperFunction,ComponentPad*%
%ADD23RoundRect,0.250000X-0.750000X0.600000X-0.750000X-0.600000X0.750000X-0.600000X0.750000X0.600000X0*%
%TD*%
%TA.AperFunction,ComponentPad*%
%ADD24O,2.000000X1.700000*%
%TD*%
%TA.AperFunction,ViaPad*%
%ADD25C,0.700000*%
%TD*%
%TA.AperFunction,ViaPad*%
%ADD26C,0.900000*%
%TD*%
%TA.AperFunction,Conductor*%
%ADD27C,0.250000*%
%TD*%
%TA.AperFunction,Conductor*%
%ADD28C,1.000000*%
%TD*%
%TA.AperFunction,Conductor*%
%ADD29C,0.601000*%
%TD*%
%TA.AperFunction,Conductor*%
%ADD30C,0.500000*%
%TD*%
G04 APERTURE END LIST*
D10*
%TO.P,TP1,1*%
%TO.N,PB0*%
X132000000Y-123000000D03*
%TD*%
D11*
%TO.P,J2,1*%
%TO.N,+5V*%
X117500000Y-154000000D03*
D12*
%TO.P,J2,2*%
%TO.N,GND*%
X117500000Y-156500000D03*
%TO.P,J2,3*%
%TO.N,CLOCK*%
X117500000Y-159000000D03*
%TO.P,J2,4*%
%TO.N,LATCH*%
X117500000Y-161500000D03*
%TO.P,J2,5*%
%TO.N,DATA_OUT*%
X117500000Y-164000000D03*
%TO.P,J2,6*%
%TO.N,RETURN*%
X117500000Y-166500000D03*
%TD*%
D13*
%TO.P,C4,1*%
%TO.N,+5V*%
X124000000Y-144500000D03*
D14*
%TO.P,C4,2*%
%TO.N,GND*%
X126000000Y-144500000D03*
%TD*%
D15*
%TO.P,J1,1*%
%TO.N,+5V*%
X117500000Y-116500000D03*
D12*
%TO.P,J1,2*%
%TO.N,GND*%
X117500000Y-114000000D03*
%TO.P,J1,3*%
%TO.N,CLOCK*%
X117500000Y-111500000D03*
%TO.P,J1,4*%
%TO.N,LATCH*%
X117500000Y-109000000D03*
%TO.P,J1,5*%
%TO.N,DATA_IN*%
X117500000Y-106500000D03*
%TO.P,J1,6*%
%TO.N,RETURN*%
X117500000Y-104000000D03*
%TD*%
D16*
%TO.P,C3,1*%
%TO.N,HOME*%
X118462500Y-143500000D03*
%TO.P,C3,2*%
%TO.N,GND*%
X120537500Y-143500000D03*
%TD*%
D17*
%TO.P,U1,1*%
%TO.N,+5V*%
X105190000Y-135975000D03*
%TO.P,U1,2*%
%TO.N,PB0*%
X106460000Y-135975000D03*
%TO.P,U1,3*%
%TO.N,PB1*%
X107730000Y-135975000D03*
%TO.P,U1,4*%
%TO.N,RESET*%
X109000000Y-135975000D03*
%TO.P,U1,5*%
%TO.N,HOME*%
X110270000Y-135975000D03*
%TO.P,U1,6*%
%TO.N,LATCH*%
X111540000Y-135975000D03*
%TO.P,U1,7*%
%TO.N,DATA_IN*%
X112810000Y-135975000D03*
%TO.P,U1,8*%
%TO.N,DATA_OUT*%
X112810000Y-131025000D03*
%TO.P,U1,9*%
%TO.N,CLOCK*%
X111540000Y-131025000D03*
%TO.P,U1,10*%
%TO.N,MOTOR4*%
X110270000Y-131025000D03*
%TO.P,U1,11*%
%TO.N,MOTOR3*%
X109000000Y-131025000D03*
%TO.P,U1,12*%
%TO.N,MOTOR2*%
X107730000Y-131025000D03*
%TO.P,U1,13*%
%TO.N,MOTOR1*%
X106460000Y-131025000D03*
%TO.P,U1,14*%
%TO.N,GND*%
X105190000Y-131025000D03*
%TD*%
D18*
%TO.P,J5,1*%
%TO.N,DATA_OUT*%
X106500000Y-151500000D03*
D19*
%TO.P,J5,2*%
%TO.N,+5V*%
X109040000Y-151500000D03*
%TO.P,J5,3*%
%TO.N,CLOCK*%
X106500000Y-154040000D03*
%TO.P,J5,4*%
%TO.N,DATA_IN*%
X109040000Y-154040000D03*
%TO.P,J5,5*%
%TO.N,RESET*%
X106500000Y-156580000D03*
%TO.P,J5,6*%
%TO.N,GND*%
X109040000Y-156580000D03*
%TD*%
D20*
%TO.P,J3,1*%
%TO.N,COIL_A*%
X110000000Y-124500000D03*
D21*
%TO.P,J3,2*%
%TO.N,COIL_B*%
X112500000Y-124500000D03*
%TO.P,J3,3*%
%TO.N,COIL_C*%
X115000000Y-124500000D03*
%TO.P,J3,4*%
%TO.N,COIL_D*%
X117500000Y-124500000D03*
%TO.P,J3,5*%
%TO.N,+5V*%
X120000000Y-124500000D03*
%TD*%
D22*
%TO.P,R1,1*%
%TO.N,+5V*%
X102500000Y-143500000D03*
%TO.P,R1,2*%
%TO.N,HOME*%
X104500000Y-143500000D03*
%TD*%
D16*
%TO.P,C1,1*%
%TO.N,+5V*%
X110462500Y-143500000D03*
%TO.P,C1,2*%
%TO.N,GND*%
X112537500Y-143500000D03*
%TD*%
D11*
%TO.P,J4,1*%
%TO.N,+5V*%
X129000000Y-154000000D03*
D12*
%TO.P,J4,2*%
%TO.N,GND*%
X129000000Y-156500000D03*
%TO.P,J4,3*%
%TO.N,HOME*%
X129000000Y-159000000D03*
%TD*%
D17*
%TO.P,U2,1*%
%TO.N,MOTOR1*%
X119555000Y-135975000D03*
%TO.P,U2,2*%
%TO.N,MOTOR2*%
X120825000Y-135975000D03*
%TO.P,U2,3*%
%TO.N,MOTOR3*%
X122095000Y-135975000D03*
%TO.P,U2,4*%
%TO.N,MOTOR4*%
X123365000Y-135975000D03*
%TO.P,U2,5*%
%TO.N,unconnected-(U2-5B-Pad5)*%
X124635000Y-135975000D03*
%TO.P,U2,6*%
%TO.N,unconnected-(U2-6B-Pad6)*%
X125905000Y-135975000D03*
%TO.P,U2,7*%
%TO.N,unconnected-(U2-7B-Pad7)*%
X127175000Y-135975000D03*
%TO.P,U2,8*%
%TO.N,GND*%
X128445000Y-135975000D03*
%TO.P,U2,9*%
%TO.N,+5V*%
X128445000Y-131025000D03*
%TO.P,U2,10*%
%TO.N,unconnected-(U2-7C-Pad10)*%
X127175000Y-131025000D03*
%TO.P,U2,11*%
%TO.N,unconnected-(U2-6C-Pad11)*%
X125905000Y-131025000D03*
%TO.P,U2,12*%
%TO.N,unconnected-(U2-5C-Pad12)*%
X124635000Y-131025000D03*
%TO.P,U2,13*%
%TO.N,COIL_D*%
X123365000Y-131025000D03*
%TO.P,U2,14*%
%TO.N,COIL_C*%
X122095000Y-131025000D03*
%TO.P,U2,15*%
%TO.N,COIL_B*%
X120825000Y-131025000D03*
%TO.P,U2,16*%
%TO.N,COIL_A*%
X119555000Y-131025000D03*
%TD*%
D22*
%TO.P,R2,1*%
%TO.N,+5V*%
X106500000Y-143500000D03*
%TO.P,R2,2*%
%TO.N,RESET*%
X108500000Y-143500000D03*
%TD*%
D10*
%TO.P,TP2,1*%
%TO.N,PB1*%
X132000000Y-127000000D03*
%TD*%
D16*
%TO.P,C2,1*%
%TO.N,+5V*%
X114462500Y-143500000D03*
%TO.P,C2,2*%
%TO.N,GND*%
X116537500Y-143500000D03*
%TD*%
D23*
%TO.P,J6,1*%
%TO.N,+5V*%
X129000000Y-112000000D03*
D24*
%TO.P,J6,2*%
%TO.N,GND*%
X129000000Y-114500000D03*
%TD*%
D25*
%TO.N,PB0*%
X124949200Y-138482200D03*
%TO.N,CLOCK*%
X111310100Y-117693100D03*
%TO.N,LATCH*%
X118682100Y-148468900D03*
X111540000Y-137991000D03*
%TO.N,DATA_OUT*%
X113666400Y-131613500D03*
%TO.N,DATA_IN*%
X113677500Y-135745900D03*
%TO.N,HOME*%
X111831300Y-146115700D03*
X110270000Y-140748800D03*
%TO.N,PB1*%
X124970000Y-132694300D03*
%TO.N,RESET*%
X109186000Y-145333600D03*
X109416600Y-140257600D03*
X114941700Y-150641000D03*
D26*
%TO.N,COIL_A*%
X118238600Y-131025000D03*
%TO.N,COIL_B*%
X120825000Y-132653800D03*
%TD*%
%TO.N,PB0*%
D27*
X112724600Y-141432500D02*
X115674900Y-138482200D01*
X115674900Y-138482200D02*
X124949200Y-138482200D01*
X108664000Y-138612400D02*
X108664000Y-140488600D01*
X106460000Y-136408400D02*
X108664000Y-138612400D01*
X106460000Y-135975000D02*
X106460000Y-136408400D01*
X109607900Y-141432500D02*
X112724600Y-141432500D01*
X108664000Y-140488600D02*
X109607900Y-141432500D01*
%TO.N,+5V*%
D28*
X102500000Y-138665000D02*
X105190000Y-135975000D01*
X106500000Y-143500000D02*
X106500000Y-144205600D01*
X114462500Y-143839200D02*
X113287700Y-145014000D01*
D29*
X105407500Y-135757500D02*
X105190000Y-135975000D01*
D28*
X114462500Y-143500000D02*
X114462500Y-143839200D01*
X106500000Y-138788200D02*
X106500000Y-143500000D01*
X109040000Y-146435300D02*
X109040000Y-151500000D01*
X110462500Y-145014000D02*
X110462500Y-143500000D01*
D29*
X128225800Y-129384300D02*
X128225800Y-130805800D01*
D28*
X123341500Y-124500000D02*
X128225800Y-129384300D01*
X102500000Y-143500000D02*
X102500000Y-138665000D01*
X109040000Y-146435300D02*
X109642400Y-146435300D01*
X106500000Y-144205600D02*
X108729700Y-146435300D01*
X113287700Y-145014000D02*
X110462500Y-145014000D01*
X108729700Y-146435300D02*
X109040000Y-146435300D01*
X105407500Y-135404800D02*
X105407500Y-137695700D01*
X110462500Y-145615200D02*
X110462500Y-145014000D01*
D29*
X105407500Y-135404800D02*
X105407500Y-135757500D01*
D28*
X105407500Y-137695700D02*
X106500000Y-138788200D01*
D29*
X128225800Y-130805800D02*
X128445000Y-131025000D01*
D28*
X120000000Y-124500000D02*
X123341500Y-124500000D01*
X109642400Y-146435300D02*
X110462500Y-145615200D01*
%TO.N,GND*%
X117657300Y-142007000D02*
X119220000Y-142007000D01*
X129000000Y-156500000D02*
X128742700Y-156500000D01*
X105190000Y-122252900D02*
X113442900Y-114000000D01*
X116479200Y-143185100D02*
X116537500Y-143243500D01*
X129557500Y-134862500D02*
X128445000Y-135975000D01*
X128742700Y-156500000D02*
X126000000Y-153757300D01*
X128445000Y-135975000D02*
X128445000Y-140455200D01*
X121137300Y-142900200D02*
X120537500Y-143500000D01*
X113686500Y-141970800D02*
X115264800Y-141970800D01*
X129557500Y-116659200D02*
X129557500Y-134862500D01*
X112537500Y-143119800D02*
X113686500Y-141970800D01*
X113442900Y-114000000D02*
X117500000Y-114000000D01*
X126000000Y-142900200D02*
X121137300Y-142900200D01*
X112537500Y-143500000D02*
X112537500Y-143119800D01*
X129000000Y-114500000D02*
X129000000Y-116101700D01*
X126000000Y-153757300D02*
X126000000Y-144500000D01*
X116537500Y-143243500D02*
X116537500Y-143500000D01*
X126000000Y-142900200D02*
X126000000Y-144500000D01*
X116479200Y-143185100D02*
X117657300Y-142007000D01*
X120537500Y-143324500D02*
X120537500Y-143500000D01*
X105190000Y-131025000D02*
X105190000Y-122252900D01*
X115264800Y-141970800D02*
X116479200Y-143185100D01*
X128445000Y-140455200D02*
X126000000Y-142900200D01*
X129000000Y-116101700D02*
X129557500Y-116659200D01*
X119220000Y-142007000D02*
X120537500Y-143324500D01*
%TO.N,CLOCK*%
D27*
X101497900Y-124640200D02*
X101497900Y-149037900D01*
X101497900Y-149037900D02*
X106500000Y-154040000D01*
X114638100Y-111500000D02*
X101497900Y-124640200D01*
X111310100Y-130795100D02*
X111310100Y-117693100D01*
X117500000Y-111500000D02*
X114638100Y-111500000D01*
X111540000Y-131025000D02*
X111310100Y-130795100D01*
%TO.N,LATCH*%
X111540000Y-137991000D02*
X111540000Y-135975000D01*
X118682100Y-148468900D02*
X118855800Y-148642600D01*
X118855800Y-148642600D02*
X118855800Y-159482300D01*
X118014800Y-160323300D02*
X117500000Y-160323300D01*
X117500000Y-161500000D02*
X117500000Y-160323300D01*
X118855800Y-159482300D02*
X118014800Y-160323300D01*
%TO.N,DATA_OUT*%
X112810000Y-131025000D02*
X113077900Y-131025000D01*
X113077900Y-131025000D02*
X113666400Y-131613500D01*
%TO.N,DATA_IN*%
X113039100Y-135745900D02*
X113677500Y-135745900D01*
X112810000Y-135975000D02*
X113039100Y-135745900D01*
%TO.N,HOME*%
X129000000Y-159000000D02*
X129000000Y-157823300D01*
X108525700Y-152736000D02*
X107801000Y-152011300D01*
X118462500Y-147792200D02*
X118462500Y-143500000D01*
X128413700Y-157823300D02*
X119358800Y-148768400D01*
X119358800Y-148768400D02*
X119358800Y-148188600D01*
X129000000Y-157823300D02*
X128413700Y-157823300D01*
X107801000Y-146801000D02*
X104500000Y-143500000D01*
X116775100Y-147792200D02*
X111831300Y-152736000D01*
X118962400Y-147792200D02*
X118462500Y-147792200D01*
X111831300Y-152736000D02*
X111831300Y-146115700D01*
X118462500Y-147792200D02*
X116775100Y-147792200D01*
X110270000Y-140748800D02*
X110270000Y-135975000D01*
X119358800Y-148188600D02*
X118962400Y-147792200D01*
X107801000Y-152011300D02*
X107801000Y-146801000D01*
X111831300Y-152736000D02*
X108525700Y-152736000D01*
%TO.N,PB1*%
X123763400Y-137278000D02*
X124000000Y-137041400D01*
X117149300Y-137278000D02*
X123763400Y-137278000D01*
X107730000Y-135568500D02*
X108648700Y-134649800D01*
X107730000Y-135975000D02*
X107730000Y-135568500D01*
X124000000Y-137041400D02*
X124000000Y-133664300D01*
X114521100Y-134649800D02*
X117149300Y-137278000D01*
X108648700Y-134649800D02*
X114521100Y-134649800D01*
X124000000Y-133664300D02*
X124970000Y-132694300D01*
%TO.N,RESET*%
X107783100Y-157863100D02*
X109507300Y-157863100D01*
X109416600Y-136391600D02*
X109000000Y-135975000D01*
X109416600Y-140257600D02*
X109416600Y-136391600D01*
X109186000Y-145333600D02*
X109186000Y-144186000D01*
X114941700Y-152428700D02*
X114941700Y-150641000D01*
X106500000Y-156580000D02*
X107783100Y-157863100D01*
X109507300Y-157863100D02*
X114941700Y-152428700D01*
X109186000Y-144186000D02*
X108500000Y-143500000D01*
%TO.N,MOTOR4*%
X110270000Y-131025000D02*
X110270000Y-131511600D01*
X119257800Y-132327300D02*
X120363900Y-133433400D01*
X120363900Y-133433400D02*
X121281100Y-133433400D01*
X123365000Y-135517300D02*
X123365000Y-135975000D01*
X121281100Y-133433400D02*
X123365000Y-135517300D01*
X110270000Y-131511600D02*
X111085700Y-132327300D01*
X111085700Y-132327300D02*
X119257800Y-132327300D01*
%TO.N,MOTOR3*%
X110272500Y-132779000D02*
X118752400Y-132779000D01*
X118752400Y-132779000D02*
X119858500Y-133885100D01*
X120497300Y-133885100D02*
X122095000Y-135482800D01*
X122095000Y-135482800D02*
X122095000Y-135975000D01*
X109000000Y-131506500D02*
X110272500Y-132779000D01*
X119858500Y-133885100D02*
X120497300Y-133885100D01*
X109000000Y-131025000D02*
X109000000Y-131506500D01*
%TO.N,MOTOR2*%
X120825000Y-135499600D02*
X118596400Y-133271000D01*
X118596400Y-133271000D02*
X109511700Y-133271000D01*
X109511700Y-133271000D02*
X107730000Y-131489300D01*
X120825000Y-135975000D02*
X120825000Y-135499600D01*
X107730000Y-131489300D02*
X107730000Y-131025000D01*
%TO.N,MOTOR1*%
X106460000Y-131420600D02*
X106460000Y-131025000D01*
X119555000Y-135975000D02*
X117302700Y-133722700D01*
X108762100Y-133722700D02*
X106460000Y-131420600D01*
X117302700Y-133722700D02*
X108762100Y-133722700D01*
%TO.N,COIL_A*%
D30*
X118238600Y-131025000D02*
X119555000Y-131025000D01*
%TO.N,COIL_B*%
X120825000Y-131025000D02*
X120825000Y-132653800D01*
%TO.N,COIL_C*%
X121065700Y-129408400D02*
X122095000Y-130437700D01*
X119908400Y-129408400D02*
X121065700Y-129408400D01*
X122095000Y-130437700D02*
X122095000Y-131025000D01*
X115000000Y-124500000D02*
X119908400Y-129408400D01*
%TO.N,COIL_D*%
X123365000Y-130365000D02*
X117500000Y-124500000D01*
X123365000Y-131025000D02*
X123365000Y-130365000D01*
%TD*%
M02*
