%TF.GenerationSoftware,KiCad,Pcbnew,10.0.5*%
%TF.CreationDate,2026-08-18T14:54:11+02:00*%
%TF.ProjectId,attiny44-ring,61747469-6e79-4343-942d-72696e672e6b,2.0*%
%TF.SameCoordinates,Original*%
%TF.FileFunction,Legend,Top*%
%TF.FilePolarity,Positive*%
%FSLAX46Y46*%
G04 Gerber Fmt 4.6, Leading zero omitted, Abs format (unit mm)*
G04 Created by KiCad (PCBNEW 10.0.5) date 2026-08-18 14:54:11*
%MOMM*%
%LPD*%
G01*
G04 APERTURE LIST*
%ADD10C,0.150000*%
%ADD11C,0.120000*%
G04 APERTURE END LIST*
D10*
X104376191Y-113686104D02*
X104338095Y-113724200D01*
X104338095Y-113724200D02*
X104223810Y-113762295D01*
X104223810Y-113762295D02*
X104147619Y-113762295D01*
X104147619Y-113762295D02*
X104033333Y-113724200D01*
X104033333Y-113724200D02*
X103957143Y-113648009D01*
X103957143Y-113648009D02*
X103919048Y-113571819D01*
X103919048Y-113571819D02*
X103880952Y-113419438D01*
X103880952Y-113419438D02*
X103880952Y-113305152D01*
X103880952Y-113305152D02*
X103919048Y-113152771D01*
X103919048Y-113152771D02*
X103957143Y-113076580D01*
X103957143Y-113076580D02*
X104033333Y-113000390D01*
X104033333Y-113000390D02*
X104147619Y-112962295D01*
X104147619Y-112962295D02*
X104223810Y-112962295D01*
X104223810Y-112962295D02*
X104338095Y-113000390D01*
X104338095Y-113000390D02*
X104376191Y-113038485D01*
X104719048Y-113762295D02*
X104719048Y-112962295D01*
X104719048Y-113343247D02*
X105176191Y-113343247D01*
X105176191Y-113762295D02*
X105176191Y-112962295D01*
X105519047Y-113533723D02*
X105900000Y-113533723D01*
X105442857Y-113762295D02*
X105709524Y-112962295D01*
X105709524Y-112962295D02*
X105976190Y-113762295D01*
X106242857Y-113762295D02*
X106242857Y-112962295D01*
X106623809Y-113762295D02*
X106623809Y-112962295D01*
X106623809Y-112962295D02*
X107080952Y-113762295D01*
X107080952Y-113762295D02*
X107080952Y-112962295D01*
X119019048Y-147562295D02*
X119019048Y-146762295D01*
X119361904Y-147524200D02*
X119476190Y-147562295D01*
X119476190Y-147562295D02*
X119666666Y-147562295D01*
X119666666Y-147562295D02*
X119742857Y-147524200D01*
X119742857Y-147524200D02*
X119780952Y-147486104D01*
X119780952Y-147486104D02*
X119819047Y-147409914D01*
X119819047Y-147409914D02*
X119819047Y-147333723D01*
X119819047Y-147333723D02*
X119780952Y-147257533D01*
X119780952Y-147257533D02*
X119742857Y-147219438D01*
X119742857Y-147219438D02*
X119666666Y-147181342D01*
X119666666Y-147181342D02*
X119514285Y-147143247D01*
X119514285Y-147143247D02*
X119438095Y-147105152D01*
X119438095Y-147105152D02*
X119400000Y-147067057D01*
X119400000Y-147067057D02*
X119361904Y-146990866D01*
X119361904Y-146990866D02*
X119361904Y-146914676D01*
X119361904Y-146914676D02*
X119400000Y-146838485D01*
X119400000Y-146838485D02*
X119438095Y-146800390D01*
X119438095Y-146800390D02*
X119514285Y-146762295D01*
X119514285Y-146762295D02*
X119704762Y-146762295D01*
X119704762Y-146762295D02*
X119819047Y-146800390D01*
X120161905Y-147562295D02*
X120161905Y-146762295D01*
X120161905Y-146762295D02*
X120466667Y-146762295D01*
X120466667Y-146762295D02*
X120542857Y-146800390D01*
X120542857Y-146800390D02*
X120580952Y-146838485D01*
X120580952Y-146838485D02*
X120619048Y-146914676D01*
X120619048Y-146914676D02*
X120619048Y-147028961D01*
X120619048Y-147028961D02*
X120580952Y-147105152D01*
X120580952Y-147105152D02*
X120542857Y-147143247D01*
X120542857Y-147143247D02*
X120466667Y-147181342D01*
X120466667Y-147181342D02*
X120161905Y-147181342D01*
X133895238Y-138562295D02*
X133895238Y-137762295D01*
X133895238Y-137762295D02*
X134085714Y-137762295D01*
X134085714Y-137762295D02*
X134200000Y-137800390D01*
X134200000Y-137800390D02*
X134276190Y-137876580D01*
X134276190Y-137876580D02*
X134314285Y-137952771D01*
X134314285Y-137952771D02*
X134352381Y-138105152D01*
X134352381Y-138105152D02*
X134352381Y-138219438D01*
X134352381Y-138219438D02*
X134314285Y-138371819D01*
X134314285Y-138371819D02*
X134276190Y-138448009D01*
X134276190Y-138448009D02*
X134200000Y-138524200D01*
X134200000Y-138524200D02*
X134085714Y-138562295D01*
X134085714Y-138562295D02*
X133895238Y-138562295D01*
X135152381Y-138562295D02*
X134885714Y-138181342D01*
X134695238Y-138562295D02*
X134695238Y-137762295D01*
X134695238Y-137762295D02*
X135000000Y-137762295D01*
X135000000Y-137762295D02*
X135076190Y-137800390D01*
X135076190Y-137800390D02*
X135114285Y-137838485D01*
X135114285Y-137838485D02*
X135152381Y-137914676D01*
X135152381Y-137914676D02*
X135152381Y-138028961D01*
X135152381Y-138028961D02*
X135114285Y-138105152D01*
X135114285Y-138105152D02*
X135076190Y-138143247D01*
X135076190Y-138143247D02*
X135000000Y-138181342D01*
X135000000Y-138181342D02*
X134695238Y-138181342D01*
X135495238Y-138562295D02*
X135495238Y-137762295D01*
X135761904Y-137762295D02*
X136028571Y-138562295D01*
X136028571Y-138562295D02*
X136295237Y-137762295D01*
X136561904Y-138143247D02*
X136828570Y-138143247D01*
X136942856Y-138562295D02*
X136561904Y-138562295D01*
X136561904Y-138562295D02*
X136561904Y-137762295D01*
X136561904Y-137762295D02*
X136942856Y-137762295D01*
X137742857Y-138562295D02*
X137476190Y-138181342D01*
X137285714Y-138562295D02*
X137285714Y-137762295D01*
X137285714Y-137762295D02*
X137590476Y-137762295D01*
X137590476Y-137762295D02*
X137666666Y-137800390D01*
X137666666Y-137800390D02*
X137704761Y-137838485D01*
X137704761Y-137838485D02*
X137742857Y-137914676D01*
X137742857Y-137914676D02*
X137742857Y-138028961D01*
X137742857Y-138028961D02*
X137704761Y-138105152D01*
X137704761Y-138105152D02*
X137666666Y-138143247D01*
X137666666Y-138143247D02*
X137590476Y-138181342D01*
X137590476Y-138181342D02*
X137285714Y-138181342D01*
X127535714Y-102151414D02*
X127964286Y-102151414D01*
X127450000Y-102408557D02*
X127750000Y-101508557D01*
X127750000Y-101508557D02*
X128050000Y-102408557D01*
X128307143Y-101594271D02*
X128350000Y-101551414D01*
X128350000Y-101551414D02*
X128435715Y-101508557D01*
X128435715Y-101508557D02*
X128650000Y-101508557D01*
X128650000Y-101508557D02*
X128735715Y-101551414D01*
X128735715Y-101551414D02*
X128778572Y-101594271D01*
X128778572Y-101594271D02*
X128821429Y-101679985D01*
X128821429Y-101679985D02*
X128821429Y-101765700D01*
X128821429Y-101765700D02*
X128778572Y-101894271D01*
X128778572Y-101894271D02*
X128264286Y-102408557D01*
X128264286Y-102408557D02*
X128821429Y-102408557D01*
X130535714Y-101465700D02*
X129764286Y-102622842D01*
X131992857Y-102408557D02*
X131478571Y-102408557D01*
X131735714Y-102408557D02*
X131735714Y-101508557D01*
X131735714Y-101508557D02*
X131650000Y-101637128D01*
X131650000Y-101637128D02*
X131564285Y-101722842D01*
X131564285Y-101722842D02*
X131478571Y-101765700D01*
X132764286Y-101508557D02*
X132592857Y-101508557D01*
X132592857Y-101508557D02*
X132507143Y-101551414D01*
X132507143Y-101551414D02*
X132464286Y-101594271D01*
X132464286Y-101594271D02*
X132378571Y-101722842D01*
X132378571Y-101722842D02*
X132335714Y-101894271D01*
X132335714Y-101894271D02*
X132335714Y-102237128D01*
X132335714Y-102237128D02*
X132378571Y-102322842D01*
X132378571Y-102322842D02*
X132421428Y-102365700D01*
X132421428Y-102365700D02*
X132507143Y-102408557D01*
X132507143Y-102408557D02*
X132678571Y-102408557D01*
X132678571Y-102408557D02*
X132764286Y-102365700D01*
X132764286Y-102365700D02*
X132807143Y-102322842D01*
X132807143Y-102322842D02*
X132850000Y-102237128D01*
X132850000Y-102237128D02*
X132850000Y-102022842D01*
X132850000Y-102022842D02*
X132807143Y-101937128D01*
X132807143Y-101937128D02*
X132764286Y-101894271D01*
X132764286Y-101894271D02*
X132678571Y-101851414D01*
X132678571Y-101851414D02*
X132507143Y-101851414D01*
X132507143Y-101851414D02*
X132421428Y-101894271D01*
X132421428Y-101894271D02*
X132378571Y-101937128D01*
X132378571Y-101937128D02*
X132335714Y-102022842D01*
X133235714Y-102065700D02*
X133921429Y-102065700D01*
X134307143Y-101594271D02*
X134350000Y-101551414D01*
X134350000Y-101551414D02*
X134435715Y-101508557D01*
X134435715Y-101508557D02*
X134650000Y-101508557D01*
X134650000Y-101508557D02*
X134735715Y-101551414D01*
X134735715Y-101551414D02*
X134778572Y-101594271D01*
X134778572Y-101594271D02*
X134821429Y-101679985D01*
X134821429Y-101679985D02*
X134821429Y-101765700D01*
X134821429Y-101765700D02*
X134778572Y-101894271D01*
X134778572Y-101894271D02*
X134264286Y-102408557D01*
X134264286Y-102408557D02*
X134821429Y-102408557D01*
X135378572Y-101508557D02*
X135464286Y-101508557D01*
X135464286Y-101508557D02*
X135550000Y-101551414D01*
X135550000Y-101551414D02*
X135592858Y-101594271D01*
X135592858Y-101594271D02*
X135635715Y-101679985D01*
X135635715Y-101679985D02*
X135678572Y-101851414D01*
X135678572Y-101851414D02*
X135678572Y-102065700D01*
X135678572Y-102065700D02*
X135635715Y-102237128D01*
X135635715Y-102237128D02*
X135592858Y-102322842D01*
X135592858Y-102322842D02*
X135550000Y-102365700D01*
X135550000Y-102365700D02*
X135464286Y-102408557D01*
X135464286Y-102408557D02*
X135378572Y-102408557D01*
X135378572Y-102408557D02*
X135292858Y-102365700D01*
X135292858Y-102365700D02*
X135250000Y-102322842D01*
X135250000Y-102322842D02*
X135207143Y-102237128D01*
X135207143Y-102237128D02*
X135164286Y-102065700D01*
X135164286Y-102065700D02*
X135164286Y-101851414D01*
X135164286Y-101851414D02*
X135207143Y-101679985D01*
X135207143Y-101679985D02*
X135250000Y-101594271D01*
X135250000Y-101594271D02*
X135292858Y-101551414D01*
X135292858Y-101551414D02*
X135378572Y-101508557D01*
X136750000Y-102408557D02*
X136750000Y-101808557D01*
X136750000Y-101894271D02*
X136792857Y-101851414D01*
X136792857Y-101851414D02*
X136878572Y-101808557D01*
X136878572Y-101808557D02*
X137007143Y-101808557D01*
X137007143Y-101808557D02*
X137092857Y-101851414D01*
X137092857Y-101851414D02*
X137135715Y-101937128D01*
X137135715Y-101937128D02*
X137135715Y-102408557D01*
X137135715Y-101937128D02*
X137178572Y-101851414D01*
X137178572Y-101851414D02*
X137264286Y-101808557D01*
X137264286Y-101808557D02*
X137392857Y-101808557D01*
X137392857Y-101808557D02*
X137478572Y-101851414D01*
X137478572Y-101851414D02*
X137521429Y-101937128D01*
X137521429Y-101937128D02*
X137521429Y-102408557D01*
X137950000Y-102408557D02*
X137950000Y-101808557D01*
X137950000Y-101508557D02*
X137907143Y-101551414D01*
X137907143Y-101551414D02*
X137950000Y-101594271D01*
X137950000Y-101594271D02*
X137992857Y-101551414D01*
X137992857Y-101551414D02*
X137950000Y-101508557D01*
X137950000Y-101508557D02*
X137950000Y-101594271D01*
X138507143Y-102408557D02*
X138421428Y-102365700D01*
X138421428Y-102365700D02*
X138378571Y-102279985D01*
X138378571Y-102279985D02*
X138378571Y-101508557D01*
%TO.C,J5*%
D11*
X115880000Y-139350000D02*
X116450000Y-139350000D01*
X115880000Y-144650000D02*
X115880000Y-139350000D01*
X115880000Y-144650000D02*
X116450000Y-144650000D01*
X116450000Y-146040000D02*
X116450000Y-144650000D01*
X118070000Y-139350000D02*
X118990000Y-139350000D01*
X118070000Y-144650000D02*
X118990000Y-144650000D01*
X120610000Y-139350000D02*
X121530000Y-139350000D01*
X120610000Y-144650000D02*
X121530000Y-144650000D01*
X123150000Y-139350000D02*
X123720000Y-139350000D01*
X123150000Y-144650000D02*
X123720000Y-144650000D01*
X123720000Y-144650000D02*
X123720000Y-139350000D01*
%TO.C,JP19*%
X114272936Y-103590000D02*
X115727064Y-103590000D01*
X114272936Y-105410000D02*
X115727064Y-105410000D01*
%TO.C,C2*%
X143088748Y-115010000D02*
X144511252Y-115010000D01*
X143088748Y-116830000D02*
X144511252Y-116830000D01*
%TO.C,JP23*%
X115392421Y-115930645D02*
X116420645Y-114902421D01*
X116679355Y-117217579D02*
X117707579Y-116189355D01*
%TO.C,JP8*%
X110890000Y-115867064D02*
X110890000Y-114412936D01*
X112710000Y-115867064D02*
X112710000Y-114412936D01*
%TO.C,J1*%
X101360000Y-104770000D02*
X102750000Y-104770000D01*
X102750000Y-104200000D02*
X102750000Y-104770000D01*
X102750000Y-104200000D02*
X108050000Y-104200000D01*
X102750000Y-106390000D02*
X102750000Y-107310000D01*
X102750000Y-108930000D02*
X102750000Y-109850000D01*
X102750000Y-111470000D02*
X102750000Y-112040000D01*
X102750000Y-112040000D02*
X108050000Y-112040000D01*
X108050000Y-104200000D02*
X108050000Y-104770000D01*
X108050000Y-106390000D02*
X108050000Y-107310000D01*
X108050000Y-108930000D02*
X108050000Y-109850000D01*
X108050000Y-111470000D02*
X108050000Y-112040000D01*
%TO.C,JP7*%
X112490000Y-133132936D02*
X112490000Y-134587064D01*
X114310000Y-133132936D02*
X114310000Y-134587064D01*
%TO.C,JP21*%
X121342421Y-118520645D02*
X122370645Y-117492421D01*
X122629355Y-119807579D02*
X123657579Y-118779355D01*
%TO.C,JP20*%
X127272936Y-138550000D02*
X128727064Y-138550000D01*
X127272936Y-140370000D02*
X128727064Y-140370000D01*
%TO.C,C1*%
X119088748Y-122810000D02*
X120511252Y-122810000D01*
X119088748Y-124630000D02*
X120511252Y-124630000D01*
%TO.C,JP18*%
X114890000Y-120652936D02*
X114890000Y-122107064D01*
X116710000Y-120652936D02*
X116710000Y-122107064D01*
%TO.C,JP17*%
X104090000Y-127672936D02*
X104090000Y-129127064D01*
X105910000Y-127672936D02*
X105910000Y-129127064D01*
%TO.C,JP5*%
X125890000Y-123772936D02*
X125890000Y-125227064D01*
X127710000Y-123772936D02*
X127710000Y-125227064D01*
%TO.C,J3*%
X134420000Y-126330000D02*
X134420000Y-126900000D01*
X134420000Y-126330000D02*
X137180000Y-126330000D01*
X134420000Y-126900000D02*
X132950000Y-126900000D01*
X134420000Y-128520000D02*
X134420000Y-131980000D01*
X134420000Y-133600000D02*
X134420000Y-136710000D01*
X134420000Y-136710000D02*
X137180000Y-136710000D01*
X137180000Y-126900000D02*
X137180000Y-129440000D01*
X137180000Y-131060000D02*
X137180000Y-134520000D01*
X137180000Y-136140000D02*
X137180000Y-136710000D01*
%TO.C,R2*%
X108272936Y-127490000D02*
X109727064Y-127490000D01*
X108272936Y-129310000D02*
X109727064Y-129310000D01*
%TO.C,JP22*%
X106722936Y-121090000D02*
X108177064Y-121090000D01*
X106722936Y-122910000D02*
X108177064Y-122910000D01*
%TO.C,JP16*%
X125890000Y-131272936D02*
X125890000Y-132727064D01*
X127710000Y-131272936D02*
X127710000Y-132727064D01*
%TO.C,JP24*%
X131090000Y-142727064D02*
X131090000Y-141272936D01*
X132910000Y-142727064D02*
X132910000Y-141272936D01*
%TO.C,U1*%
X117740000Y-125525000D02*
X121860000Y-125525000D01*
X117740000Y-125590000D02*
X117740000Y-125525000D01*
X117740000Y-134395000D02*
X117740000Y-134330000D01*
X121860000Y-125525000D02*
X121860000Y-125590000D01*
X121860000Y-134330000D02*
X121860000Y-134395000D01*
X121860000Y-134395000D02*
X117740000Y-134395000D01*
X117200000Y-125590000D02*
X116960000Y-125260000D01*
X117440000Y-125260000D01*
X117200000Y-125590000D01*
G36*
X117200000Y-125590000D02*
G01*
X116960000Y-125260000D01*
X117440000Y-125260000D01*
X117200000Y-125590000D01*
G37*
%TO.C,JP6*%
X113090000Y-126072936D02*
X113090000Y-127527064D01*
X114910000Y-126072936D02*
X114910000Y-127527064D01*
%TO.C,JP25*%
X127870645Y-147157579D02*
X126842421Y-146129355D01*
X129157579Y-145870645D02*
X128129355Y-144842421D01*
%TD*%
M02*
