%TF.GenerationSoftware,KiCad,Pcbnew,10.0.5*%
%TF.CreationDate,2026-08-15T10:44:25+02:00*%
%TF.ProjectId,attiny44-ring,61747469-6e79-4343-942d-72696e672e6b,1.0*%
%TF.SameCoordinates,Original*%
%TF.FileFunction,Copper,L2,Bot*%
%TF.FilePolarity,Positive*%
%FSLAX46Y46*%
G04 Gerber Fmt 4.6, Leading zero omitted, Abs format (unit mm)*
G04 Created by KiCad (PCBNEW 10.0.5) date 2026-08-15 10:44:25*
%MOMM*%
%LPD*%
G01*
G04 APERTURE LIST*
G04 Aperture macros list*
%AMRoundRect*
0 Rectangle with rounded corners*
0 $1 Rounding radius*
0 $2 $3 $4 $5 $6 $7 $8 $9 X,Y pos of 4 corners*
0 Add a 4 corners polygon primitive as box body*
4,1,4,$2,$3,$4,$5,$6,$7,$8,$9,$2,$3,0*
0 Add four circle primitives for the rounded corners*
1,1,$1+$1,$2,$3*
1,1,$1+$1,$4,$5*
1,1,$1+$1,$6,$7*
1,1,$1+$1,$8,$9*
0 Add four rect primitives between the rounded corners*
20,1,$1+$1,$2,$3,$4,$5,0*
20,1,$1+$1,$4,$5,$6,$7,0*
20,1,$1+$1,$6,$7,$8,$9,0*
20,1,$1+$1,$8,$9,$2,$3,0*%
G04 Aperture macros list end*
%TA.AperFunction,ComponentPad*%
%ADD10C,3.000000*%
%TD*%
%TA.AperFunction,ComponentPad*%
%ADD11RoundRect,0.250000X-0.725000X0.600000X-0.725000X-0.600000X0.725000X-0.600000X0.725000X0.600000X0*%
%TD*%
%TA.AperFunction,ComponentPad*%
%ADD12O,1.950000X1.700000*%
%TD*%
%TA.AperFunction,ComponentPad*%
%ADD13RoundRect,0.250000X-0.550000X-0.550000X0.550000X-0.550000X0.550000X0.550000X-0.550000X0.550000X0*%
%TD*%
%TA.AperFunction,ComponentPad*%
%ADD14C,1.600000*%
%TD*%
%TA.AperFunction,ComponentPad*%
%ADD15RoundRect,0.250000X0.725000X-0.600000X0.725000X0.600000X-0.725000X0.600000X-0.725000X-0.600000X0*%
%TD*%
%TA.AperFunction,ComponentPad*%
%ADD16RoundRect,0.250000X-0.600000X-0.600000X0.600000X-0.600000X0.600000X0.600000X-0.600000X0.600000X0*%
%TD*%
%TA.AperFunction,ComponentPad*%
%ADD17C,1.700000*%
%TD*%
%TA.AperFunction,ComponentPad*%
%ADD18RoundRect,0.250000X-0.600000X-0.725000X0.600000X-0.725000X0.600000X0.725000X-0.600000X0.725000X0*%
%TD*%
%TA.AperFunction,ComponentPad*%
%ADD19O,1.700000X1.950000*%
%TD*%
%TA.AperFunction,ComponentPad*%
%ADD20RoundRect,0.250000X-0.750000X0.600000X-0.750000X-0.600000X0.750000X-0.600000X0.750000X0.600000X0*%
%TD*%
%TA.AperFunction,ComponentPad*%
%ADD21O,2.000000X1.700000*%
%TD*%
%TA.AperFunction,ViaPad*%
%ADD22C,0.700000*%
%TD*%
%TA.AperFunction,ViaPad*%
%ADD23C,0.900000*%
%TD*%
%TA.AperFunction,Conductor*%
%ADD24C,0.250000*%
%TD*%
%TA.AperFunction,Conductor*%
%ADD25C,1.000000*%
%TD*%
%TA.AperFunction,Conductor*%
%ADD26C,0.500000*%
%TD*%
G04 APERTURE END LIST*
D10*
%TO.P,TP1,1*%
%TO.N,PB0*%
X132000000Y-123000000D03*
%TD*%
D11*
%TO.P,J2,1*%
%TO.N,+5V*%
X117500000Y-154000000D03*
D12*
%TO.P,J2,2*%
%TO.N,GND*%
X117500000Y-156500000D03*
%TO.P,J2,3*%
%TO.N,CLOCK*%
X117500000Y-159000000D03*
%TO.P,J2,4*%
%TO.N,LATCH*%
X117500000Y-161500000D03*
%TO.P,J2,5*%
%TO.N,DATA_OUT*%
X117500000Y-164000000D03*
%TO.P,J2,6*%
%TO.N,RETURN*%
X117500000Y-166500000D03*
%TD*%
D13*
%TO.P,C4,1*%
%TO.N,+5V*%
X124000000Y-144500000D03*
D14*
%TO.P,C4,2*%
%TO.N,GND*%
X126000000Y-144500000D03*
%TD*%
D15*
%TO.P,J1,1*%
%TO.N,+5V*%
X117500000Y-116500000D03*
D12*
%TO.P,J1,2*%
%TO.N,GND*%
X117500000Y-114000000D03*
%TO.P,J1,3*%
%TO.N,CLOCK*%
X117500000Y-111500000D03*
%TO.P,J1,4*%
%TO.N,LATCH*%
X117500000Y-109000000D03*
%TO.P,J1,5*%
%TO.N,DATA_IN*%
X117500000Y-106500000D03*
%TO.P,J1,6*%
%TO.N,RETURN*%
X117500000Y-104000000D03*
%TD*%
D16*
%TO.P,J5,1*%
%TO.N,DATA_OUT*%
X106500000Y-151500000D03*
D17*
%TO.P,J5,2*%
%TO.N,+5V*%
X109040000Y-151500000D03*
%TO.P,J5,3*%
%TO.N,CLOCK*%
X106500000Y-154040000D03*
%TO.P,J5,4*%
%TO.N,DATA_IN*%
X109040000Y-154040000D03*
%TO.P,J5,5*%
%TO.N,RESET*%
X106500000Y-156580000D03*
%TO.P,J5,6*%
%TO.N,GND*%
X109040000Y-156580000D03*
%TD*%
D18*
%TO.P,J3,1*%
%TO.N,COIL_A*%
X110000000Y-124500000D03*
D19*
%TO.P,J3,2*%
%TO.N,COIL_B*%
X112500000Y-124500000D03*
%TO.P,J3,3*%
%TO.N,COIL_C*%
X115000000Y-124500000D03*
%TO.P,J3,4*%
%TO.N,COIL_D*%
X117500000Y-124500000D03*
%TO.P,J3,5*%
%TO.N,+5V*%
X120000000Y-124500000D03*
%TD*%
D11*
%TO.P,J4,1*%
%TO.N,+5V*%
X129000000Y-154000000D03*
D12*
%TO.P,J4,2*%
%TO.N,GND*%
X129000000Y-156500000D03*
%TO.P,J4,3*%
%TO.N,HOME*%
X129000000Y-159000000D03*
%TD*%
D10*
%TO.P,TP2,1*%
%TO.N,PB1*%
X132000000Y-127000000D03*
%TD*%
D20*
%TO.P,J6,1*%
%TO.N,+5V*%
X129000000Y-112000000D03*
D21*
%TO.P,J6,2*%
%TO.N,GND*%
X129000000Y-114500000D03*
%TD*%
D22*
%TO.N,PB0*%
X124949200Y-138482200D03*
%TO.N,CLOCK*%
X111310100Y-117693100D03*
%TO.N,LATCH*%
X118682100Y-148468900D03*
X111540000Y-137991000D03*
%TO.N,DATA_OUT*%
X113666400Y-131613500D03*
%TO.N,DATA_IN*%
X113677500Y-135745900D03*
%TO.N,HOME*%
X111831300Y-146115700D03*
X110270000Y-140748800D03*
%TO.N,PB1*%
X124970000Y-132694300D03*
%TO.N,RESET*%
X109186000Y-145333600D03*
X109416600Y-140257600D03*
X114941700Y-150641000D03*
D23*
%TO.N,COIL_A*%
X118238600Y-131025000D03*
%TO.N,COIL_B*%
X120825000Y-132653800D03*
%TD*%
%TO.N,PB0*%
D24*
X133878300Y-124878300D02*
X133878300Y-129553100D01*
X133878300Y-129553100D02*
X124949200Y-138482200D01*
X132000000Y-123000000D02*
X133878300Y-124878300D01*
%TO.N,+5V*%
D25*
X130766200Y-113766200D02*
X130766200Y-115165600D01*
X130766200Y-115165600D02*
X126931800Y-119000000D01*
X129000000Y-112000000D02*
X130766200Y-113766200D01*
X109040000Y-151500000D02*
X109282700Y-151742700D01*
X123847500Y-144347500D02*
X124000000Y-144500000D01*
X126931800Y-119000000D02*
X120000000Y-119000000D01*
X120000000Y-124500000D02*
X121601700Y-124500000D01*
X117209100Y-153709100D02*
X117209100Y-151742700D01*
X120000000Y-119000000D02*
X120000000Y-124500000D01*
X124000000Y-144951800D02*
X124000000Y-144500000D01*
X129000000Y-154000000D02*
X117500000Y-154000000D01*
X117500000Y-116500000D02*
X120000000Y-119000000D01*
X121601700Y-124500000D02*
X123847500Y-126745800D01*
X109282700Y-151742700D02*
X117209100Y-151742700D01*
X123847500Y-126745800D02*
X123847500Y-144347500D01*
X117500000Y-154000000D02*
X117209100Y-153709100D01*
X117209100Y-151742700D02*
X124000000Y-144951800D01*
%TO.N,GND*%
X119726700Y-114500000D02*
X129000000Y-114500000D01*
X117500000Y-156500000D02*
X115773300Y-156500000D01*
X119226700Y-114000000D02*
X119726700Y-114500000D01*
X109040000Y-156580000D02*
X115693300Y-156580000D01*
X117500000Y-156500000D02*
X129000000Y-156500000D01*
X115693300Y-156580000D02*
X115773300Y-156500000D01*
X117500000Y-114000000D02*
X119226700Y-114000000D01*
%TO.N,CLOCK*%
D24*
X116326500Y-112676700D02*
X111310100Y-117693100D01*
X107734700Y-157014400D02*
X109720300Y-159000000D01*
X117500000Y-111500000D02*
X117500000Y-112676700D01*
X109720300Y-159000000D02*
X117500000Y-159000000D01*
X106500000Y-154040000D02*
X107734700Y-155274700D01*
X117500000Y-112676700D02*
X116326500Y-112676700D01*
X107734700Y-155274700D02*
X107734700Y-157014400D01*
%TO.N,LATCH*%
X118682100Y-144228100D02*
X118682100Y-148468900D01*
X116985200Y-110176700D02*
X108794600Y-118367300D01*
X108794600Y-118367300D02*
X108794600Y-125478300D01*
X110135300Y-126819000D02*
X110499000Y-126819000D01*
X112445000Y-137991000D02*
X111540000Y-137991000D01*
X114842100Y-135593900D02*
X112445000Y-137991000D01*
X117500000Y-110176700D02*
X116985200Y-110176700D01*
X112445000Y-137991000D02*
X118682100Y-144228100D01*
X110499000Y-126819000D02*
X114842100Y-131162100D01*
X114842100Y-131162100D02*
X114842100Y-135593900D01*
X108794600Y-125478300D02*
X110135300Y-126819000D01*
X117500000Y-109000000D02*
X117500000Y-110176700D01*
%TO.N,DATA_OUT*%
X113666400Y-131613500D02*
X106500000Y-138779900D01*
X105266300Y-157105900D02*
X105266300Y-152733700D01*
X106500000Y-138779900D02*
X106500000Y-151500000D01*
X105266300Y-152733700D02*
X106500000Y-151500000D01*
X112160400Y-164000000D02*
X105266300Y-157105900D01*
X117500000Y-164000000D02*
X112160400Y-164000000D01*
%TO.N,RETURN*%
X117500000Y-104000000D02*
X117500000Y-105176700D01*
X104797200Y-117364700D02*
X104797200Y-157311700D01*
X113985500Y-166500000D02*
X117500000Y-166500000D01*
X116985200Y-105176700D02*
X104797200Y-117364700D01*
X117500000Y-105176700D02*
X116985200Y-105176700D01*
X104797200Y-157311700D02*
X113985500Y-166500000D01*
%TO.N,DATA_IN*%
X114390400Y-135033000D02*
X113677500Y-135745900D01*
X108279500Y-116382400D02*
X108279500Y-125609200D01*
X113404300Y-130734000D02*
X113763600Y-130734000D01*
X116985200Y-107676700D02*
X108279500Y-116382400D01*
X112806600Y-135745900D02*
X113677500Y-135745900D01*
X107795800Y-140756700D02*
X112806600Y-135745900D01*
X117500000Y-107676700D02*
X116985200Y-107676700D01*
X108279500Y-125609200D02*
X113404300Y-130734000D01*
X117500000Y-106500000D02*
X117500000Y-107676700D01*
X113763600Y-130734000D02*
X114390400Y-131360800D01*
X107795800Y-152795800D02*
X107795800Y-140756700D01*
X109040000Y-154040000D02*
X107795800Y-152795800D01*
X114390400Y-131360800D02*
X114390400Y-135033000D01*
%TO.N,HOME*%
X111831300Y-142310100D02*
X110270000Y-140748800D01*
X111831300Y-146115700D02*
X111831300Y-142310100D01*
%TO.N,PB1*%
X126305700Y-132694300D02*
X124970000Y-132694300D01*
X132000000Y-127000000D02*
X126305700Y-132694300D01*
%TO.N,RESET*%
X114941700Y-150641000D02*
X109634300Y-145333600D01*
X109634300Y-145333600D02*
X109416600Y-145333600D01*
X109416600Y-145333600D02*
X109416600Y-140257600D01*
X109416600Y-145333600D02*
X109186000Y-145333600D01*
%TO.N,COIL_A*%
D26*
X118238600Y-131025000D02*
X116525000Y-131025000D01*
X116525000Y-131025000D02*
X110000000Y-124500000D01*
%TO.N,COIL_B*%
X120825000Y-132336200D02*
X112988800Y-124500000D01*
X120825000Y-132653800D02*
X120825000Y-132336200D01*
X112988800Y-124500000D02*
X112500000Y-124500000D01*
%TD*%
M02*
