%TF.GenerationSoftware,KiCad,Pcbnew,10.0.5*%
%TF.CreationDate,2026-08-15T10:44:25+02:00*%
%TF.ProjectId,attiny44-ring,61747469-6e79-4343-942d-72696e672e6b,1.0*%
%TF.SameCoordinates,Original*%
%TF.FileFunction,Legend,Bot*%
%TF.FilePolarity,Positive*%
%FSLAX46Y46*%
G04 Gerber Fmt 4.6, Leading zero omitted, Abs format (unit mm)*
G04 Created by KiCad (PCBNEW 10.0.5) date 2026-08-15 10:44:25*
%MOMM*%
%LPD*%
G01*
G04 APERTURE LIST*
%ADD10C,0.150000*%
G04 APERTURE END LIST*
D10*
X128166667Y-130133723D02*
X127785714Y-130133723D01*
X128242857Y-130362295D02*
X127976190Y-129562295D01*
X127976190Y-129562295D02*
X127709524Y-130362295D01*
X127061905Y-130362295D02*
X127442857Y-130362295D01*
X127442857Y-130362295D02*
X127442857Y-129562295D01*
X126795238Y-130362295D02*
X126795238Y-129562295D01*
X126795238Y-129562295D02*
X126490476Y-129562295D01*
X126490476Y-129562295D02*
X126414286Y-129600390D01*
X126414286Y-129600390D02*
X126376191Y-129638485D01*
X126376191Y-129638485D02*
X126338095Y-129714676D01*
X126338095Y-129714676D02*
X126338095Y-129828961D01*
X126338095Y-129828961D02*
X126376191Y-129905152D01*
X126376191Y-129905152D02*
X126414286Y-129943247D01*
X126414286Y-129943247D02*
X126490476Y-129981342D01*
X126490476Y-129981342D02*
X126795238Y-129981342D01*
X125995238Y-130362295D02*
X125995238Y-129562295D01*
X125995238Y-129943247D02*
X125538095Y-129943247D01*
X125538095Y-130362295D02*
X125538095Y-129562295D01*
X125195239Y-130133723D02*
X124814286Y-130133723D01*
X125271429Y-130362295D02*
X125004762Y-129562295D01*
X125004762Y-129562295D02*
X124738096Y-130362295D01*
X124204763Y-129943247D02*
X124090477Y-129981342D01*
X124090477Y-129981342D02*
X124052382Y-130019438D01*
X124052382Y-130019438D02*
X124014286Y-130095628D01*
X124014286Y-130095628D02*
X124014286Y-130209914D01*
X124014286Y-130209914D02*
X124052382Y-130286104D01*
X124052382Y-130286104D02*
X124090477Y-130324200D01*
X124090477Y-130324200D02*
X124166667Y-130362295D01*
X124166667Y-130362295D02*
X124471429Y-130362295D01*
X124471429Y-130362295D02*
X124471429Y-129562295D01*
X124471429Y-129562295D02*
X124204763Y-129562295D01*
X124204763Y-129562295D02*
X124128572Y-129600390D01*
X124128572Y-129600390D02*
X124090477Y-129638485D01*
X124090477Y-129638485D02*
X124052382Y-129714676D01*
X124052382Y-129714676D02*
X124052382Y-129790866D01*
X124052382Y-129790866D02*
X124090477Y-129867057D01*
X124090477Y-129867057D02*
X124128572Y-129905152D01*
X124128572Y-129905152D02*
X124204763Y-129943247D01*
X124204763Y-129943247D02*
X124471429Y-129943247D01*
X123671429Y-129943247D02*
X123404763Y-129943247D01*
X123290477Y-130362295D02*
X123671429Y-130362295D01*
X123671429Y-130362295D02*
X123671429Y-129562295D01*
X123671429Y-129562295D02*
X123290477Y-129562295D01*
X123061905Y-129562295D02*
X122604762Y-129562295D01*
X122833334Y-130362295D02*
X122833334Y-129562295D01*
X122376191Y-130324200D02*
X122261905Y-130362295D01*
X122261905Y-130362295D02*
X122071429Y-130362295D01*
X122071429Y-130362295D02*
X121995238Y-130324200D01*
X121995238Y-130324200D02*
X121957143Y-130286104D01*
X121957143Y-130286104D02*
X121919048Y-130209914D01*
X121919048Y-130209914D02*
X121919048Y-130133723D01*
X121919048Y-130133723D02*
X121957143Y-130057533D01*
X121957143Y-130057533D02*
X121995238Y-130019438D01*
X121995238Y-130019438D02*
X122071429Y-129981342D01*
X122071429Y-129981342D02*
X122223810Y-129943247D01*
X122223810Y-129943247D02*
X122300000Y-129905152D01*
X122300000Y-129905152D02*
X122338095Y-129867057D01*
X122338095Y-129867057D02*
X122376191Y-129790866D01*
X122376191Y-129790866D02*
X122376191Y-129714676D01*
X122376191Y-129714676D02*
X122338095Y-129638485D01*
X122338095Y-129638485D02*
X122300000Y-129600390D01*
X122300000Y-129600390D02*
X122223810Y-129562295D01*
X122223810Y-129562295D02*
X122033333Y-129562295D01*
X122033333Y-129562295D02*
X121919048Y-129600390D01*
X121080952Y-129562295D02*
X120814285Y-130362295D01*
X120814285Y-130362295D02*
X120547619Y-129562295D01*
X120319048Y-129638485D02*
X120280952Y-129600390D01*
X120280952Y-129600390D02*
X120204762Y-129562295D01*
X120204762Y-129562295D02*
X120014286Y-129562295D01*
X120014286Y-129562295D02*
X119938095Y-129600390D01*
X119938095Y-129600390D02*
X119900000Y-129638485D01*
X119900000Y-129638485D02*
X119861905Y-129714676D01*
X119861905Y-129714676D02*
X119861905Y-129790866D01*
X119861905Y-129790866D02*
X119900000Y-129905152D01*
X119900000Y-129905152D02*
X120357143Y-130362295D01*
X120357143Y-130362295D02*
X119861905Y-130362295D01*
X118338095Y-129524200D02*
X119023809Y-130552771D01*
X117500000Y-130133723D02*
X117119047Y-130133723D01*
X117576190Y-130362295D02*
X117309523Y-129562295D01*
X117309523Y-129562295D02*
X117042857Y-130362295D01*
X116890476Y-129562295D02*
X116433333Y-129562295D01*
X116661905Y-130362295D02*
X116661905Y-129562295D01*
X116280952Y-129828961D02*
X115976190Y-129828961D01*
X116166666Y-129562295D02*
X116166666Y-130248009D01*
X116166666Y-130248009D02*
X116128571Y-130324200D01*
X116128571Y-130324200D02*
X116052381Y-130362295D01*
X116052381Y-130362295D02*
X115976190Y-130362295D01*
X115709523Y-130362295D02*
X115709523Y-129828961D01*
X115709523Y-129562295D02*
X115747619Y-129600390D01*
X115747619Y-129600390D02*
X115709523Y-129638485D01*
X115709523Y-129638485D02*
X115671428Y-129600390D01*
X115671428Y-129600390D02*
X115709523Y-129562295D01*
X115709523Y-129562295D02*
X115709523Y-129638485D01*
X115328571Y-129828961D02*
X115328571Y-130362295D01*
X115328571Y-129905152D02*
X115290476Y-129867057D01*
X115290476Y-129867057D02*
X115214286Y-129828961D01*
X115214286Y-129828961D02*
X115100000Y-129828961D01*
X115100000Y-129828961D02*
X115023809Y-129867057D01*
X115023809Y-129867057D02*
X114985714Y-129943247D01*
X114985714Y-129943247D02*
X114985714Y-130362295D01*
X114680952Y-129828961D02*
X114490476Y-130362295D01*
X114299999Y-129828961D02*
X114490476Y-130362295D01*
X114490476Y-130362295D02*
X114566666Y-130552771D01*
X114566666Y-130552771D02*
X114604761Y-130590866D01*
X114604761Y-130590866D02*
X114680952Y-130628961D01*
X113652380Y-129828961D02*
X113652380Y-130362295D01*
X113842856Y-129524200D02*
X114033333Y-130095628D01*
X114033333Y-130095628D02*
X113538094Y-130095628D01*
X112890475Y-129828961D02*
X112890475Y-130362295D01*
X113080951Y-129524200D02*
X113271428Y-130095628D01*
X113271428Y-130095628D02*
X112776189Y-130095628D01*
X111899999Y-130324200D02*
X111785713Y-130362295D01*
X111785713Y-130362295D02*
X111595237Y-130362295D01*
X111595237Y-130362295D02*
X111519046Y-130324200D01*
X111519046Y-130324200D02*
X111480951Y-130286104D01*
X111480951Y-130286104D02*
X111442856Y-130209914D01*
X111442856Y-130209914D02*
X111442856Y-130133723D01*
X111442856Y-130133723D02*
X111480951Y-130057533D01*
X111480951Y-130057533D02*
X111519046Y-130019438D01*
X111519046Y-130019438D02*
X111595237Y-129981342D01*
X111595237Y-129981342D02*
X111747618Y-129943247D01*
X111747618Y-129943247D02*
X111823808Y-129905152D01*
X111823808Y-129905152D02*
X111861903Y-129867057D01*
X111861903Y-129867057D02*
X111899999Y-129790866D01*
X111899999Y-129790866D02*
X111899999Y-129714676D01*
X111899999Y-129714676D02*
X111861903Y-129638485D01*
X111861903Y-129638485D02*
X111823808Y-129600390D01*
X111823808Y-129600390D02*
X111747618Y-129562295D01*
X111747618Y-129562295D02*
X111557141Y-129562295D01*
X111557141Y-129562295D02*
X111442856Y-129600390D01*
X111099998Y-130362295D02*
X111099998Y-129562295D01*
X111099998Y-129562295D02*
X110795236Y-129562295D01*
X110795236Y-129562295D02*
X110719046Y-129600390D01*
X110719046Y-129600390D02*
X110680951Y-129638485D01*
X110680951Y-129638485D02*
X110642855Y-129714676D01*
X110642855Y-129714676D02*
X110642855Y-129828961D01*
X110642855Y-129828961D02*
X110680951Y-129905152D01*
X110680951Y-129905152D02*
X110719046Y-129943247D01*
X110719046Y-129943247D02*
X110795236Y-129981342D01*
X110795236Y-129981342D02*
X111099998Y-129981342D01*
X110299998Y-130362295D02*
X110299998Y-129562295D01*
X108852379Y-130362295D02*
X109119046Y-129981342D01*
X109309522Y-130362295D02*
X109309522Y-129562295D01*
X109309522Y-129562295D02*
X109004760Y-129562295D01*
X109004760Y-129562295D02*
X108928570Y-129600390D01*
X108928570Y-129600390D02*
X108890475Y-129638485D01*
X108890475Y-129638485D02*
X108852379Y-129714676D01*
X108852379Y-129714676D02*
X108852379Y-129828961D01*
X108852379Y-129828961D02*
X108890475Y-129905152D01*
X108890475Y-129905152D02*
X108928570Y-129943247D01*
X108928570Y-129943247D02*
X109004760Y-129981342D01*
X109004760Y-129981342D02*
X109309522Y-129981342D01*
X108509522Y-130362295D02*
X108509522Y-129562295D01*
X108128570Y-130362295D02*
X108128570Y-129562295D01*
X108128570Y-129562295D02*
X107671427Y-130362295D01*
X107671427Y-130362295D02*
X107671427Y-129562295D01*
X106871428Y-129600390D02*
X106947618Y-129562295D01*
X106947618Y-129562295D02*
X107061904Y-129562295D01*
X107061904Y-129562295D02*
X107176190Y-129600390D01*
X107176190Y-129600390D02*
X107252380Y-129676580D01*
X107252380Y-129676580D02*
X107290475Y-129752771D01*
X107290475Y-129752771D02*
X107328571Y-129905152D01*
X107328571Y-129905152D02*
X107328571Y-130019438D01*
X107328571Y-130019438D02*
X107290475Y-130171819D01*
X107290475Y-130171819D02*
X107252380Y-130248009D01*
X107252380Y-130248009D02*
X107176190Y-130324200D01*
X107176190Y-130324200D02*
X107061904Y-130362295D01*
X107061904Y-130362295D02*
X106985713Y-130362295D01*
X106985713Y-130362295D02*
X106871428Y-130324200D01*
X106871428Y-130324200D02*
X106833332Y-130286104D01*
X106833332Y-130286104D02*
X106833332Y-130019438D01*
X106833332Y-130019438D02*
X106985713Y-130019438D01*
X126414285Y-134862295D02*
X126680952Y-134481342D01*
X126871428Y-134862295D02*
X126871428Y-134062295D01*
X126871428Y-134062295D02*
X126566666Y-134062295D01*
X126566666Y-134062295D02*
X126490476Y-134100390D01*
X126490476Y-134100390D02*
X126452381Y-134138485D01*
X126452381Y-134138485D02*
X126414285Y-134214676D01*
X126414285Y-134214676D02*
X126414285Y-134328961D01*
X126414285Y-134328961D02*
X126452381Y-134405152D01*
X126452381Y-134405152D02*
X126490476Y-134443247D01*
X126490476Y-134443247D02*
X126566666Y-134481342D01*
X126566666Y-134481342D02*
X126871428Y-134481342D01*
X126071428Y-134862295D02*
X126071428Y-134062295D01*
X125690476Y-134862295D02*
X125690476Y-134062295D01*
X125690476Y-134062295D02*
X125233333Y-134862295D01*
X125233333Y-134862295D02*
X125233333Y-134062295D01*
X124433334Y-134100390D02*
X124509524Y-134062295D01*
X124509524Y-134062295D02*
X124623810Y-134062295D01*
X124623810Y-134062295D02*
X124738096Y-134100390D01*
X124738096Y-134100390D02*
X124814286Y-134176580D01*
X124814286Y-134176580D02*
X124852381Y-134252771D01*
X124852381Y-134252771D02*
X124890477Y-134405152D01*
X124890477Y-134405152D02*
X124890477Y-134519438D01*
X124890477Y-134519438D02*
X124852381Y-134671819D01*
X124852381Y-134671819D02*
X124814286Y-134748009D01*
X124814286Y-134748009D02*
X124738096Y-134824200D01*
X124738096Y-134824200D02*
X124623810Y-134862295D01*
X124623810Y-134862295D02*
X124547619Y-134862295D01*
X124547619Y-134862295D02*
X124433334Y-134824200D01*
X124433334Y-134824200D02*
X124395238Y-134786104D01*
X124395238Y-134786104D02*
X124395238Y-134519438D01*
X124395238Y-134519438D02*
X124547619Y-134519438D01*
X124052381Y-134786104D02*
X124014286Y-134824200D01*
X124014286Y-134824200D02*
X124052381Y-134862295D01*
X124052381Y-134862295D02*
X124090477Y-134824200D01*
X124090477Y-134824200D02*
X124052381Y-134786104D01*
X124052381Y-134786104D02*
X124052381Y-134862295D01*
X124052381Y-134367057D02*
X124014286Y-134405152D01*
X124014286Y-134405152D02*
X124052381Y-134443247D01*
X124052381Y-134443247D02*
X124090477Y-134405152D01*
X124090477Y-134405152D02*
X124052381Y-134367057D01*
X124052381Y-134367057D02*
X124052381Y-134443247D01*
X122642858Y-134862295D02*
X123100001Y-134862295D01*
X122871429Y-134862295D02*
X122871429Y-134062295D01*
X122871429Y-134062295D02*
X122947620Y-134176580D01*
X122947620Y-134176580D02*
X123023810Y-134252771D01*
X123023810Y-134252771D02*
X123100001Y-134290866D01*
X121690476Y-134557533D02*
X121080953Y-134557533D01*
X121385714Y-134862295D02*
X121385714Y-134252771D01*
X120319048Y-134062295D02*
X120700000Y-134062295D01*
X120700000Y-134062295D02*
X120738096Y-134443247D01*
X120738096Y-134443247D02*
X120700000Y-134405152D01*
X120700000Y-134405152D02*
X120623810Y-134367057D01*
X120623810Y-134367057D02*
X120433334Y-134367057D01*
X120433334Y-134367057D02*
X120357143Y-134405152D01*
X120357143Y-134405152D02*
X120319048Y-134443247D01*
X120319048Y-134443247D02*
X120280953Y-134519438D01*
X120280953Y-134519438D02*
X120280953Y-134709914D01*
X120280953Y-134709914D02*
X120319048Y-134786104D01*
X120319048Y-134786104D02*
X120357143Y-134824200D01*
X120357143Y-134824200D02*
X120433334Y-134862295D01*
X120433334Y-134862295D02*
X120623810Y-134862295D01*
X120623810Y-134862295D02*
X120700000Y-134824200D01*
X120700000Y-134824200D02*
X120738096Y-134786104D01*
X120052381Y-134062295D02*
X119785714Y-134862295D01*
X119785714Y-134862295D02*
X119519048Y-134062295D01*
X118071429Y-134138485D02*
X118033333Y-134100390D01*
X118033333Y-134100390D02*
X117957143Y-134062295D01*
X117957143Y-134062295D02*
X117766667Y-134062295D01*
X117766667Y-134062295D02*
X117690476Y-134100390D01*
X117690476Y-134100390D02*
X117652381Y-134138485D01*
X117652381Y-134138485D02*
X117614286Y-134214676D01*
X117614286Y-134214676D02*
X117614286Y-134290866D01*
X117614286Y-134290866D02*
X117652381Y-134405152D01*
X117652381Y-134405152D02*
X118109524Y-134862295D01*
X118109524Y-134862295D02*
X117614286Y-134862295D01*
X116242857Y-134100390D02*
X116319047Y-134062295D01*
X116319047Y-134062295D02*
X116433333Y-134062295D01*
X116433333Y-134062295D02*
X116547619Y-134100390D01*
X116547619Y-134100390D02*
X116623809Y-134176580D01*
X116623809Y-134176580D02*
X116661904Y-134252771D01*
X116661904Y-134252771D02*
X116700000Y-134405152D01*
X116700000Y-134405152D02*
X116700000Y-134519438D01*
X116700000Y-134519438D02*
X116661904Y-134671819D01*
X116661904Y-134671819D02*
X116623809Y-134748009D01*
X116623809Y-134748009D02*
X116547619Y-134824200D01*
X116547619Y-134824200D02*
X116433333Y-134862295D01*
X116433333Y-134862295D02*
X116357142Y-134862295D01*
X116357142Y-134862295D02*
X116242857Y-134824200D01*
X116242857Y-134824200D02*
X116204761Y-134786104D01*
X116204761Y-134786104D02*
X116204761Y-134519438D01*
X116204761Y-134519438D02*
X116357142Y-134519438D01*
X115861904Y-134862295D02*
X115861904Y-134062295D01*
X115861904Y-134062295D02*
X115404761Y-134862295D01*
X115404761Y-134862295D02*
X115404761Y-134062295D01*
X115023809Y-134862295D02*
X115023809Y-134062295D01*
X115023809Y-134062295D02*
X114833333Y-134062295D01*
X114833333Y-134062295D02*
X114719047Y-134100390D01*
X114719047Y-134100390D02*
X114642857Y-134176580D01*
X114642857Y-134176580D02*
X114604762Y-134252771D01*
X114604762Y-134252771D02*
X114566666Y-134405152D01*
X114566666Y-134405152D02*
X114566666Y-134519438D01*
X114566666Y-134519438D02*
X114604762Y-134671819D01*
X114604762Y-134671819D02*
X114642857Y-134748009D01*
X114642857Y-134748009D02*
X114719047Y-134824200D01*
X114719047Y-134824200D02*
X114833333Y-134862295D01*
X114833333Y-134862295D02*
X115023809Y-134862295D01*
X113080952Y-134062295D02*
X112585714Y-134062295D01*
X112585714Y-134062295D02*
X112852380Y-134367057D01*
X112852380Y-134367057D02*
X112738095Y-134367057D01*
X112738095Y-134367057D02*
X112661904Y-134405152D01*
X112661904Y-134405152D02*
X112623809Y-134443247D01*
X112623809Y-134443247D02*
X112585714Y-134519438D01*
X112585714Y-134519438D02*
X112585714Y-134709914D01*
X112585714Y-134709914D02*
X112623809Y-134786104D01*
X112623809Y-134786104D02*
X112661904Y-134824200D01*
X112661904Y-134824200D02*
X112738095Y-134862295D01*
X112738095Y-134862295D02*
X112966666Y-134862295D01*
X112966666Y-134862295D02*
X113042857Y-134824200D01*
X113042857Y-134824200D02*
X113080952Y-134786104D01*
X111176189Y-134786104D02*
X111214285Y-134824200D01*
X111214285Y-134824200D02*
X111328570Y-134862295D01*
X111328570Y-134862295D02*
X111404761Y-134862295D01*
X111404761Y-134862295D02*
X111519047Y-134824200D01*
X111519047Y-134824200D02*
X111595237Y-134748009D01*
X111595237Y-134748009D02*
X111633332Y-134671819D01*
X111633332Y-134671819D02*
X111671428Y-134519438D01*
X111671428Y-134519438D02*
X111671428Y-134405152D01*
X111671428Y-134405152D02*
X111633332Y-134252771D01*
X111633332Y-134252771D02*
X111595237Y-134176580D01*
X111595237Y-134176580D02*
X111519047Y-134100390D01*
X111519047Y-134100390D02*
X111404761Y-134062295D01*
X111404761Y-134062295D02*
X111328570Y-134062295D01*
X111328570Y-134062295D02*
X111214285Y-134100390D01*
X111214285Y-134100390D02*
X111176189Y-134138485D01*
X110452380Y-134862295D02*
X110833332Y-134862295D01*
X110833332Y-134862295D02*
X110833332Y-134062295D01*
X110033332Y-134062295D02*
X109880951Y-134062295D01*
X109880951Y-134062295D02*
X109804761Y-134100390D01*
X109804761Y-134100390D02*
X109728570Y-134176580D01*
X109728570Y-134176580D02*
X109690475Y-134328961D01*
X109690475Y-134328961D02*
X109690475Y-134595628D01*
X109690475Y-134595628D02*
X109728570Y-134748009D01*
X109728570Y-134748009D02*
X109804761Y-134824200D01*
X109804761Y-134824200D02*
X109880951Y-134862295D01*
X109880951Y-134862295D02*
X110033332Y-134862295D01*
X110033332Y-134862295D02*
X110109523Y-134824200D01*
X110109523Y-134824200D02*
X110185713Y-134748009D01*
X110185713Y-134748009D02*
X110223809Y-134595628D01*
X110223809Y-134595628D02*
X110223809Y-134328961D01*
X110223809Y-134328961D02*
X110185713Y-134176580D01*
X110185713Y-134176580D02*
X110109523Y-134100390D01*
X110109523Y-134100390D02*
X110033332Y-134062295D01*
X108890475Y-134786104D02*
X108928571Y-134824200D01*
X108928571Y-134824200D02*
X109042856Y-134862295D01*
X109042856Y-134862295D02*
X109119047Y-134862295D01*
X109119047Y-134862295D02*
X109233333Y-134824200D01*
X109233333Y-134824200D02*
X109309523Y-134748009D01*
X109309523Y-134748009D02*
X109347618Y-134671819D01*
X109347618Y-134671819D02*
X109385714Y-134519438D01*
X109385714Y-134519438D02*
X109385714Y-134405152D01*
X109385714Y-134405152D02*
X109347618Y-134252771D01*
X109347618Y-134252771D02*
X109309523Y-134176580D01*
X109309523Y-134176580D02*
X109233333Y-134100390D01*
X109233333Y-134100390D02*
X109119047Y-134062295D01*
X109119047Y-134062295D02*
X109042856Y-134062295D01*
X109042856Y-134062295D02*
X108928571Y-134100390D01*
X108928571Y-134100390D02*
X108890475Y-134138485D01*
X108547618Y-134862295D02*
X108547618Y-134062295D01*
X108090475Y-134862295D02*
X108433333Y-134405152D01*
X108090475Y-134062295D02*
X108547618Y-134519438D01*
X125728571Y-136328961D02*
X125728571Y-136862295D01*
X125919047Y-136024200D02*
X126109524Y-136595628D01*
X126109524Y-136595628D02*
X125614285Y-136595628D01*
X124319047Y-136862295D02*
X124699999Y-136862295D01*
X124699999Y-136862295D02*
X124699999Y-136062295D01*
X124090476Y-136633723D02*
X123709523Y-136633723D01*
X124166666Y-136862295D02*
X123899999Y-136062295D01*
X123899999Y-136062295D02*
X123633333Y-136862295D01*
X123480952Y-136062295D02*
X123023809Y-136062295D01*
X123252381Y-136862295D02*
X123252381Y-136062295D01*
X122299999Y-136786104D02*
X122338095Y-136824200D01*
X122338095Y-136824200D02*
X122452380Y-136862295D01*
X122452380Y-136862295D02*
X122528571Y-136862295D01*
X122528571Y-136862295D02*
X122642857Y-136824200D01*
X122642857Y-136824200D02*
X122719047Y-136748009D01*
X122719047Y-136748009D02*
X122757142Y-136671819D01*
X122757142Y-136671819D02*
X122795238Y-136519438D01*
X122795238Y-136519438D02*
X122795238Y-136405152D01*
X122795238Y-136405152D02*
X122757142Y-136252771D01*
X122757142Y-136252771D02*
X122719047Y-136176580D01*
X122719047Y-136176580D02*
X122642857Y-136100390D01*
X122642857Y-136100390D02*
X122528571Y-136062295D01*
X122528571Y-136062295D02*
X122452380Y-136062295D01*
X122452380Y-136062295D02*
X122338095Y-136100390D01*
X122338095Y-136100390D02*
X122299999Y-136138485D01*
X121957142Y-136862295D02*
X121957142Y-136062295D01*
X121957142Y-136443247D02*
X121499999Y-136443247D01*
X121499999Y-136862295D02*
X121499999Y-136062295D01*
X119519047Y-136062295D02*
X119899999Y-136062295D01*
X119899999Y-136062295D02*
X119938095Y-136443247D01*
X119938095Y-136443247D02*
X119899999Y-136405152D01*
X119899999Y-136405152D02*
X119823809Y-136367057D01*
X119823809Y-136367057D02*
X119633333Y-136367057D01*
X119633333Y-136367057D02*
X119557142Y-136405152D01*
X119557142Y-136405152D02*
X119519047Y-136443247D01*
X119519047Y-136443247D02*
X119480952Y-136519438D01*
X119480952Y-136519438D02*
X119480952Y-136709914D01*
X119480952Y-136709914D02*
X119519047Y-136786104D01*
X119519047Y-136786104D02*
X119557142Y-136824200D01*
X119557142Y-136824200D02*
X119633333Y-136862295D01*
X119633333Y-136862295D02*
X119823809Y-136862295D01*
X119823809Y-136862295D02*
X119899999Y-136824200D01*
X119899999Y-136824200D02*
X119938095Y-136786104D01*
X118528570Y-136862295D02*
X118528570Y-136062295D01*
X118528570Y-136062295D02*
X118338094Y-136062295D01*
X118338094Y-136062295D02*
X118223808Y-136100390D01*
X118223808Y-136100390D02*
X118147618Y-136176580D01*
X118147618Y-136176580D02*
X118109523Y-136252771D01*
X118109523Y-136252771D02*
X118071427Y-136405152D01*
X118071427Y-136405152D02*
X118071427Y-136519438D01*
X118071427Y-136519438D02*
X118109523Y-136671819D01*
X118109523Y-136671819D02*
X118147618Y-136748009D01*
X118147618Y-136748009D02*
X118223808Y-136824200D01*
X118223808Y-136824200D02*
X118338094Y-136862295D01*
X118338094Y-136862295D02*
X118528570Y-136862295D01*
X117766666Y-136633723D02*
X117385713Y-136633723D01*
X117842856Y-136862295D02*
X117576189Y-136062295D01*
X117576189Y-136062295D02*
X117309523Y-136862295D01*
X117157142Y-136062295D02*
X116699999Y-136062295D01*
X116928571Y-136862295D02*
X116928571Y-136062295D01*
X116471428Y-136633723D02*
X116090475Y-136633723D01*
X116547618Y-136862295D02*
X116280951Y-136062295D01*
X116280951Y-136062295D02*
X116014285Y-136862295D01*
X114185713Y-136062295D02*
X114338094Y-136062295D01*
X114338094Y-136062295D02*
X114414285Y-136100390D01*
X114414285Y-136100390D02*
X114452380Y-136138485D01*
X114452380Y-136138485D02*
X114528570Y-136252771D01*
X114528570Y-136252771D02*
X114566666Y-136405152D01*
X114566666Y-136405152D02*
X114566666Y-136709914D01*
X114566666Y-136709914D02*
X114528570Y-136786104D01*
X114528570Y-136786104D02*
X114490475Y-136824200D01*
X114490475Y-136824200D02*
X114414285Y-136862295D01*
X114414285Y-136862295D02*
X114261904Y-136862295D01*
X114261904Y-136862295D02*
X114185713Y-136824200D01*
X114185713Y-136824200D02*
X114147618Y-136786104D01*
X114147618Y-136786104D02*
X114109523Y-136709914D01*
X114109523Y-136709914D02*
X114109523Y-136519438D01*
X114109523Y-136519438D02*
X114147618Y-136443247D01*
X114147618Y-136443247D02*
X114185713Y-136405152D01*
X114185713Y-136405152D02*
X114261904Y-136367057D01*
X114261904Y-136367057D02*
X114414285Y-136367057D01*
X114414285Y-136367057D02*
X114490475Y-136405152D01*
X114490475Y-136405152D02*
X114528570Y-136443247D01*
X114528570Y-136443247D02*
X114566666Y-136519438D01*
X112699998Y-136862295D02*
X112966665Y-136481342D01*
X113157141Y-136862295D02*
X113157141Y-136062295D01*
X113157141Y-136062295D02*
X112852379Y-136062295D01*
X112852379Y-136062295D02*
X112776189Y-136100390D01*
X112776189Y-136100390D02*
X112738094Y-136138485D01*
X112738094Y-136138485D02*
X112699998Y-136214676D01*
X112699998Y-136214676D02*
X112699998Y-136328961D01*
X112699998Y-136328961D02*
X112738094Y-136405152D01*
X112738094Y-136405152D02*
X112776189Y-136443247D01*
X112776189Y-136443247D02*
X112852379Y-136481342D01*
X112852379Y-136481342D02*
X113157141Y-136481342D01*
X112357141Y-136443247D02*
X112090475Y-136443247D01*
X111976189Y-136862295D02*
X112357141Y-136862295D01*
X112357141Y-136862295D02*
X112357141Y-136062295D01*
X112357141Y-136062295D02*
X111976189Y-136062295D01*
X111747617Y-136062295D02*
X111290474Y-136062295D01*
X111519046Y-136862295D02*
X111519046Y-136062295D01*
X111023807Y-136062295D02*
X111023807Y-136709914D01*
X111023807Y-136709914D02*
X110985712Y-136786104D01*
X110985712Y-136786104D02*
X110947617Y-136824200D01*
X110947617Y-136824200D02*
X110871426Y-136862295D01*
X110871426Y-136862295D02*
X110719045Y-136862295D01*
X110719045Y-136862295D02*
X110642855Y-136824200D01*
X110642855Y-136824200D02*
X110604760Y-136786104D01*
X110604760Y-136786104D02*
X110566664Y-136709914D01*
X110566664Y-136709914D02*
X110566664Y-136062295D01*
X109728569Y-136862295D02*
X109995236Y-136481342D01*
X110185712Y-136862295D02*
X110185712Y-136062295D01*
X110185712Y-136062295D02*
X109880950Y-136062295D01*
X109880950Y-136062295D02*
X109804760Y-136100390D01*
X109804760Y-136100390D02*
X109766665Y-136138485D01*
X109766665Y-136138485D02*
X109728569Y-136214676D01*
X109728569Y-136214676D02*
X109728569Y-136328961D01*
X109728569Y-136328961D02*
X109766665Y-136405152D01*
X109766665Y-136405152D02*
X109804760Y-136443247D01*
X109804760Y-136443247D02*
X109880950Y-136481342D01*
X109880950Y-136481342D02*
X110185712Y-136481342D01*
X109385712Y-136862295D02*
X109385712Y-136062295D01*
X109385712Y-136062295D02*
X108928569Y-136862295D01*
X108928569Y-136862295D02*
X108928569Y-136062295D01*
M02*
