M48
; DRILL file KiCad 10.0.5 date 2026-08-15T10:44:26
; FORMAT={-:-/ absolute / metric / decimal}
; #@! TF.CreationDate,2026-08-15T10:44:26+02:00
; #@! TF.GenerationSoftware,Kicad,Pcbnew,10.0.5
; #@! TF.FileFunction,Plated,1,2,PTH
FMAT,2
METRIC
; #@! TA.AperFunction,Plated,PTH,ViaDrill
T1C0.350
; #@! TA.AperFunction,Plated,PTH,ViaDrill
T2C0.450
; #@! TA.AperFunction,Plated,PTH,ComponentDrill
T3C0.800
; #@! TA.AperFunction,Plated,PTH,ComponentDrill
T4C0.950
; #@! TA.AperFunction,Plated,PTH,ComponentDrill
T5C1.000
; #@! TA.AperFunction,Plated,PTH,ComponentDrill
T6C2.000
%
G90
G05
T1
X109.186Y-145.334
X109.417Y-140.258
X110.27Y-140.749
X111.31Y-117.693
X111.54Y-137.991
X111.831Y-146.116
X113.666Y-131.613
X113.677Y-135.746
X114.942Y-150.641
X118.682Y-148.469
X124.949Y-138.482
X124.97Y-132.694
T2
X118.239Y-131.025
X120.825Y-132.654
T3
X124.0Y-144.5
X126.0Y-144.5
T4
X110.0Y-124.5
X112.5Y-124.5
X115.0Y-124.5
X117.5Y-104.0
X117.5Y-106.5
X117.5Y-109.0
X117.5Y-111.5
X117.5Y-114.0
X117.5Y-116.5
X117.5Y-124.5
X117.5Y-154.0
X117.5Y-156.5
X117.5Y-159.0
X117.5Y-161.5
X117.5Y-164.0
X117.5Y-166.5
X120.0Y-124.5
X129.0Y-154.0
X129.0Y-156.5
X129.0Y-159.0
T5
X106.5Y-151.5
X106.5Y-154.04
X106.5Y-156.58
X109.04Y-151.5
X109.04Y-154.04
X109.04Y-156.58
X129.0Y-112.0
X129.0Y-114.5
T6
X132.0Y-123.0
X132.0Y-127.0
M30
