%TF.GenerationSoftware,KiCad,Pcbnew,10.0.5*%
%TF.CreationDate,2026-08-18T14:37:43+02:00*%
%TF.ProjectId,attiny44-ring,61747469-6e79-4343-942d-72696e672e6b,2.0*%
%TF.SameCoordinates,Original*%
%TF.FileFunction,Copper,L1,Top*%
%TF.FilePolarity,Positive*%
%FSLAX46Y46*%
G04 Gerber Fmt 4.6, Leading zero omitted, Abs format (unit mm)*
G04 Created by KiCad (PCBNEW 10.0.5) date 2026-08-18 14:37:43*
%MOMM*%
%LPD*%
G01*
G04 APERTURE LIST*
G04 Aperture macros list*
%AMRoundRect*
0 Rectangle with rounded corners*
0 $1 Rounding radius*
0 $2 $3 $4 $5 $6 $7 $8 $9 X,Y pos of 4 corners*
0 Add a 4 corners polygon primitive as box body*
4,1,4,$2,$3,$4,$5,$6,$7,$8,$9,$2,$3,0*
0 Add four circle primitives for the rounded corners*
1,1,$1+$1,$2,$3*
1,1,$1+$1,$4,$5*
1,1,$1+$1,$6,$7*
1,1,$1+$1,$8,$9*
0 Add four rect primitives between the rounded corners*
20,1,$1+$1,$2,$3,$4,$5,0*
20,1,$1+$1,$4,$5,$6,$7,0*
20,1,$1+$1,$6,$7,$8,$9,0*
20,1,$1+$1,$8,$9,$2,$3,0*%
G04 Aperture macros list end*
%TA.AperFunction,SMDPad,CuDef*%
%ADD10R,2.510000X1.000000*%
%TD*%
%TA.AperFunction,SMDPad,CuDef*%
%ADD11RoundRect,0.250000X0.220971X-0.662913X0.662913X-0.220971X-0.220971X0.662913X-0.662913X0.220971X0*%
%TD*%
%TA.AperFunction,SMDPad,CuDef*%
%ADD12RoundRect,0.250000X-0.400000X-0.625000X0.400000X-0.625000X0.400000X0.625000X-0.400000X0.625000X0*%
%TD*%
%TA.AperFunction,SMDPad,CuDef*%
%ADD13RoundRect,0.250000X-0.412500X-0.650000X0.412500X-0.650000X0.412500X0.650000X-0.412500X0.650000X0*%
%TD*%
%TA.AperFunction,SMDPad,CuDef*%
%ADD14RoundRect,0.250000X-0.312500X-0.625000X0.312500X-0.625000X0.312500X0.625000X-0.312500X0.625000X0*%
%TD*%
%TA.AperFunction,SMDPad,CuDef*%
%ADD15RoundRect,0.250000X0.662913X0.220971X0.220971X0.662913X-0.662913X-0.220971X-0.220971X-0.662913X0*%
%TD*%
%TA.AperFunction,SMDPad,CuDef*%
%ADD16RoundRect,0.150000X-0.825000X-0.150000X0.825000X-0.150000X0.825000X0.150000X-0.825000X0.150000X0*%
%TD*%
%TA.AperFunction,SMDPad,CuDef*%
%ADD17RoundRect,0.250000X0.625000X-0.312500X0.625000X0.312500X-0.625000X0.312500X-0.625000X-0.312500X0*%
%TD*%
%TA.AperFunction,SMDPad,CuDef*%
%ADD18RoundRect,0.250000X-0.625000X0.400000X-0.625000X-0.400000X0.625000X-0.400000X0.625000X0.400000X0*%
%TD*%
%TA.AperFunction,SMDPad,CuDef*%
%ADD19R,1.000000X3.150000*%
%TD*%
%TA.AperFunction,SMDPad,CuDef*%
%ADD20RoundRect,0.250000X0.625000X-0.400000X0.625000X0.400000X-0.625000X0.400000X-0.625000X-0.400000X0*%
%TD*%
%TA.AperFunction,SMDPad,CuDef*%
%ADD21R,3.150000X1.000000*%
%TD*%
%TA.AperFunction,Conductor*%
%ADD22C,0.508000*%
%TD*%
%TA.AperFunction,Conductor*%
%ADD23C,0.406400*%
%TD*%
G04 APERTURE END LIST*
D10*
%TO.P,J3,1*%
%TO.N,MOTOR1*%
X134145000Y-127710000D03*
%TO.P,J3,2*%
%TO.N,MOTOR2*%
X137455000Y-130250000D03*
%TO.P,J3,3*%
%TO.N,MOTOR3*%
X134145000Y-132790000D03*
%TO.P,J3,4*%
%TO.N,MOTOR4*%
X137455000Y-135330000D03*
%TD*%
D11*
%TO.P,JP21,1*%
%TO.N,+5V_MID*%
X121660311Y-119489689D03*
%TO.P,JP21,2*%
%TO.N,+5V_TOP*%
X123339689Y-117810311D03*
%TD*%
D12*
%TO.P,R2,1*%
%TO.N,+5V*%
X107450000Y-128400000D03*
%TO.P,R2,2*%
%TO.N,RESET*%
X110550000Y-128400000D03*
%TD*%
%TO.P,JP19,1*%
%TO.N,+5V_CHAIN*%
X113450000Y-104500000D03*
%TO.P,JP19,2*%
%TO.N,+5V_TOP*%
X116550000Y-104500000D03*
%TD*%
D13*
%TO.P,C2,1*%
%TO.N,+5V_TOP*%
X142237500Y-115920000D03*
%TO.P,C2,2*%
%TO.N,GND*%
X145362500Y-115920000D03*
%TD*%
D14*
%TO.P,JP22,1*%
%TO.N,LATCH_CONN*%
X106262500Y-122000000D03*
%TO.P,JP22,2*%
%TO.N,LATCH_TOP*%
X108637500Y-122000000D03*
%TD*%
D15*
%TO.P,JP25,1*%
%TO.N,CLOCK_ISP*%
X128839689Y-146839689D03*
%TO.P,JP25,2*%
%TO.N,CLOCK_U1*%
X127160311Y-145160311D03*
%TD*%
D16*
%TO.P,U1,1*%
%TO.N,+5V_U1*%
X117325000Y-126150000D03*
%TO.P,U1,2*%
%TO.N,unconnected-(U1-PB0-Pad2)*%
X117325000Y-127420000D03*
%TO.P,U1,3*%
%TO.N,unconnected-(U1-PB1-Pad3)*%
X117325000Y-128690000D03*
%TO.P,U1,4*%
%TO.N,RESET*%
X117325000Y-129960000D03*
%TO.P,U1,5*%
%TO.N,unconnected-(U1-HOME{slash}PB2-Pad5)*%
X117325000Y-131230000D03*
%TO.P,U1,6*%
%TO.N,LATCH_A*%
X117325000Y-132500000D03*
%TO.P,U1,7*%
%TO.N,DATA_IN*%
X117325000Y-133770000D03*
%TO.P,U1,8*%
%TO.N,DATA_OUT_A*%
X122275000Y-133770000D03*
%TO.P,U1,9*%
%TO.N,CLOCK_U1*%
X122275000Y-132500000D03*
%TO.P,U1,10*%
%TO.N,MOTOR4*%
X122275000Y-131230000D03*
%TO.P,U1,11*%
%TO.N,MOTOR3*%
X122275000Y-129960000D03*
%TO.P,U1,12*%
%TO.N,MOTOR2*%
X122275000Y-128690000D03*
%TO.P,U1,13*%
%TO.N,MOTOR1*%
X122275000Y-127420000D03*
%TO.P,U1,14*%
%TO.N,GND*%
X122275000Y-126150000D03*
%TD*%
D17*
%TO.P,JP24,1*%
%TO.N,RESET_ISP*%
X132000000Y-143187500D03*
%TO.P,JP24,2*%
%TO.N,RESET*%
X132000000Y-140812500D03*
%TD*%
D18*
%TO.P,JP7,1*%
%TO.N,DATA_IN*%
X113400000Y-132310000D03*
%TO.P,JP7,2*%
%TO.N,DATA_TOP*%
X113400000Y-135410000D03*
%TD*%
%TO.P,JP5,1*%
%TO.N,CLOCK_TOP*%
X126800000Y-122950000D03*
%TO.P,JP5,2*%
%TO.N,CLOCK_A*%
X126800000Y-126050000D03*
%TD*%
D11*
%TO.P,JP23,1*%
%TO.N,+5V*%
X115710311Y-116899689D03*
%TO.P,JP23,2*%
%TO.N,+5V_MID*%
X117389689Y-115220311D03*
%TD*%
D19*
%TO.P,J5,1*%
%TO.N,DATA_OUT_A*%
X117260000Y-144525000D03*
%TO.P,J5,2*%
%TO.N,ISP_VCC*%
X117260000Y-139475000D03*
%TO.P,J5,3*%
%TO.N,CLOCK_ISP*%
X119800000Y-144525000D03*
%TO.P,J5,4*%
%TO.N,DATA_IN*%
X119800000Y-139475000D03*
%TO.P,J5,5*%
%TO.N,RESET_ISP*%
X122340000Y-144525000D03*
%TO.P,J5,6*%
%TO.N,GND*%
X122340000Y-139475000D03*
%TD*%
D18*
%TO.P,JP18,1*%
%TO.N,+5V*%
X115800000Y-119830000D03*
%TO.P,JP18,2*%
%TO.N,+5V_U1*%
X115800000Y-122930000D03*
%TD*%
D20*
%TO.P,JP8,1*%
%TO.N,DATA_OUT_A*%
X111800000Y-116690000D03*
%TO.P,JP8,2*%
%TO.N,DATA_OUT_CHAIN*%
X111800000Y-113590000D03*
%TD*%
D21*
%TO.P,J1,1*%
%TO.N,LATCH_CONN*%
X102875000Y-105580000D03*
%TO.P,J1,2*%
%TO.N,CLOCK_TOP*%
X107925000Y-105580000D03*
%TO.P,J1,3*%
%TO.N,DATA_CHAIN_IN*%
X102875000Y-108120000D03*
%TO.P,J1,4*%
%TO.N,+5V_CHAIN*%
X107925000Y-108120000D03*
%TO.P,J1,5*%
%TO.N,DATA_OUT_CHAIN*%
X102875000Y-110660000D03*
%TO.P,J1,6*%
%TO.N,GND*%
X107925000Y-110660000D03*
%TD*%
D18*
%TO.P,JP6,1*%
%TO.N,LATCH_TOP*%
X114000000Y-125250000D03*
%TO.P,JP6,2*%
%TO.N,LATCH_A*%
X114000000Y-128350000D03*
%TD*%
D14*
%TO.P,JP20,1*%
%TO.N,ISP_VCC*%
X126812500Y-139460000D03*
%TO.P,JP20,2*%
%TO.N,+5V_TOP*%
X129187500Y-139460000D03*
%TD*%
D13*
%TO.P,C1,1*%
%TO.N,+5V_U1*%
X118237500Y-123720000D03*
%TO.P,C1,2*%
%TO.N,GND*%
X121362500Y-123720000D03*
%TD*%
D18*
%TO.P,JP16,1*%
%TO.N,CLOCK_A*%
X126800000Y-130450000D03*
%TO.P,JP16,2*%
%TO.N,CLOCK_U1*%
X126800000Y-133550000D03*
%TD*%
%TO.P,JP17,1*%
%TO.N,DATA_CHAIN_IN*%
X105000000Y-126850000D03*
%TO.P,JP17,2*%
%TO.N,DATA_TOP*%
X105000000Y-129950000D03*
%TD*%
%TO.N,MOTOR1*%
D22*
X132490160Y-127710000D02*
X134145000Y-127710000D01*
X131790039Y-127420000D02*
X122275000Y-127420000D01*
X132140100Y-127565000D02*
G75*
G03*
X131790039Y-127419984I-350100J-350100D01*
G01*
X132140100Y-127565000D02*
G75*
G03*
X132490160Y-127710016I350100J350100D01*
G01*
%TO.N,MOTOR2*%
D23*
X130494604Y-128325500D02*
X122864895Y-128325500D01*
D22*
X132485120Y-130090620D02*
X130879379Y-128484879D01*
X122480120Y-128484879D02*
X122275000Y-128690000D01*
X132869895Y-130250000D02*
X137455000Y-130250000D01*
D23*
X122864895Y-128325500D02*
G75*
G03*
X122480134Y-128484893I5J-544100D01*
G01*
D22*
X132485120Y-130090620D02*
G75*
G03*
X132869895Y-130249989I384780J384820D01*
G01*
D23*
X130879379Y-128484879D02*
G75*
G03*
X130494604Y-128325511I-384779J-384821D01*
G01*
%TO.N,MOTOR3*%
D22*
X132510495Y-132790000D02*
X134145000Y-132790000D01*
D23*
X128447604Y-129177900D02*
X124055995Y-129177900D01*
X123207878Y-129800620D02*
X123671220Y-129337279D01*
D22*
X122823104Y-129960000D02*
X122275000Y-129960000D01*
X128832379Y-129337279D02*
X132125720Y-132630620D01*
D23*
X124055995Y-129177900D02*
G75*
G03*
X123671234Y-129337293I5J-544100D01*
G01*
D22*
X132125720Y-132630620D02*
G75*
G03*
X132510495Y-132789989I384780J384820D01*
G01*
X123207878Y-129800620D02*
G75*
G02*
X122823104Y-129959988I-384778J384820D01*
G01*
D23*
X128832379Y-129337279D02*
G75*
G03*
X128447604Y-129177911I-384779J-384821D01*
G01*
%TO.N,MOTOR4*%
D22*
X128359904Y-131873000D02*
X125822995Y-131873000D01*
X124729204Y-131230000D02*
X122275000Y-131230000D01*
X132267695Y-135330000D02*
X137455000Y-135330000D01*
X128744679Y-132032379D02*
X131882920Y-135170620D01*
X125113979Y-131389379D02*
X125438220Y-131713620D01*
X125113979Y-131389379D02*
G75*
G03*
X124729204Y-131230011I-384779J-384821D01*
G01*
X128744679Y-132032379D02*
G75*
G03*
X128359904Y-131873011I-384779J-384821D01*
G01*
X131882920Y-135170620D02*
G75*
G03*
X132267695Y-135329989I384780J384820D01*
G01*
X125438220Y-131713620D02*
G75*
G03*
X125822995Y-131872989I384780J384820D01*
G01*
%TO.N,+5V_MID*%
X117390300Y-115220300D02*
X117389700Y-115220300D01*
X117391324Y-115220724D02*
X121660300Y-119489700D01*
X117391324Y-115220724D02*
G75*
G03*
X117390300Y-115220285I-1024J-976D01*
G01*
%TO.N,+5V_TOP*%
D23*
X136095978Y-139300620D02*
X146501520Y-128895079D01*
X146501520Y-114784320D02*
X146236979Y-114519779D01*
X146660900Y-115169095D02*
X146660900Y-128510304D01*
D22*
X144022495Y-114360400D02*
X145852204Y-114360400D01*
X123180320Y-111130320D02*
X116550000Y-104500000D01*
X143637720Y-114519779D02*
X142237500Y-115920000D01*
X123339700Y-115920000D02*
X123339700Y-117810300D01*
X142237500Y-115920000D02*
X123339700Y-115920000D01*
X123339700Y-115920000D02*
X123339700Y-111515095D01*
X135711204Y-139460000D02*
X129187500Y-139460000D01*
X123180320Y-111130320D02*
G75*
G02*
X123339689Y-111515095I-384820J-384780D01*
G01*
D23*
X146236979Y-114519779D02*
G75*
G03*
X145852204Y-114360411I-384779J-384821D01*
G01*
D22*
X144022495Y-114360400D02*
G75*
G03*
X143637734Y-114519793I5J-544100D01*
G01*
X136095978Y-139300620D02*
G75*
G02*
X135711204Y-139459988I-384778J384820D01*
G01*
X146660900Y-128510304D02*
G75*
G02*
X146501528Y-128895087I-544200J4D01*
G01*
D23*
X146501520Y-114784320D02*
G75*
G02*
X146660889Y-115169095I-384820J-384780D01*
G01*
%TO.N,+5V*%
D22*
X115710300Y-116899700D02*
X115800000Y-118407400D01*
X107450000Y-118731900D02*
X110761700Y-115420200D01*
D23*
X107450000Y-128400000D02*
X107450000Y-118731900D01*
X112812800Y-115420200D02*
X115800000Y-118407400D01*
D22*
X115800000Y-118407400D02*
X115800000Y-119830000D01*
D23*
X110761700Y-115420200D02*
X112812800Y-115420200D01*
D22*
X115710300Y-116899700D02*
X115710000Y-116900000D01*
%TO.N,RESET*%
D23*
X112829520Y-127242578D02*
X112006427Y-128065672D01*
D22*
X111919100Y-128400000D02*
X111919100Y-128276500D01*
X116734695Y-129960000D02*
X117325000Y-129960000D01*
X115612700Y-127931595D02*
X115612700Y-128838004D01*
X113921504Y-133860000D02*
X112901095Y-133860000D01*
D23*
X114787220Y-134500320D02*
X114306279Y-134019379D01*
X117678820Y-149038720D02*
X115105979Y-146465879D01*
D22*
X132816504Y-140812500D02*
X132000000Y-140812500D01*
X114946600Y-134885095D02*
X114946600Y-146081104D01*
X111919100Y-128400000D02*
X110550000Y-128400000D01*
D23*
X134395300Y-143918304D02*
X134395300Y-142391295D01*
X129115504Y-149198100D02*
X118063595Y-149198100D01*
X112516320Y-133700620D02*
X112078479Y-133262779D01*
X115772079Y-129222779D02*
X116349920Y-129800620D01*
X113214295Y-127083200D02*
X114764304Y-127083200D01*
X115453320Y-127546820D02*
X115149079Y-127242579D01*
X134235920Y-144303078D02*
X129500279Y-149038720D01*
D22*
X133201279Y-140971879D02*
X134235920Y-142006520D01*
D23*
X111919100Y-128400000D02*
X111919100Y-132878004D01*
D22*
X116349920Y-129800620D02*
G75*
G03*
X116734695Y-129959989I384780J384820D01*
G01*
X133201279Y-140971879D02*
G75*
G03*
X132816504Y-140812511I-384779J-384821D01*
G01*
X112516320Y-133700620D02*
G75*
G03*
X112901095Y-133859989I384780J384820D01*
G01*
X134395300Y-143918304D02*
G75*
G02*
X134235929Y-144303087I-544200J4D01*
G01*
X115453320Y-127546820D02*
G75*
G02*
X115612689Y-127931595I-384820J-384780D01*
G01*
X134235920Y-142006520D02*
G75*
G02*
X134395289Y-142391295I-384820J-384780D01*
G01*
D23*
X111919100Y-132878004D02*
G75*
G03*
X112078471Y-133262787I544200J4D01*
G01*
D22*
X129500279Y-149038720D02*
G75*
G02*
X129115504Y-149198089I-384779J384820D01*
G01*
X117678820Y-149038720D02*
G75*
G03*
X118063595Y-149198089I384780J384820D01*
G01*
D23*
X113214295Y-127083200D02*
G75*
G03*
X112829534Y-127242592I5J-544100D01*
G01*
D22*
X115612700Y-128838004D02*
G75*
G03*
X115772071Y-129222787I544200J4D01*
G01*
D23*
X115149079Y-127242579D02*
G75*
G03*
X114764304Y-127083211I-384779J-384821D01*
G01*
D22*
X114306279Y-134019379D02*
G75*
G03*
X113921504Y-133860011I-384779J-384821D01*
G01*
X114946600Y-146081104D02*
G75*
G03*
X115105971Y-146465887I544200J4D01*
G01*
X114787220Y-134500320D02*
G75*
G02*
X114946589Y-134885095I-384820J-384780D01*
G01*
X112006427Y-128065672D02*
G75*
G03*
X111919083Y-128276500I210773J-210828D01*
G01*
%TO.N,+5V_CHAIN*%
X109967450Y-108120000D02*
X107925000Y-108120000D01*
X110202091Y-107747908D02*
X113450000Y-104500000D01*
X110202091Y-107747908D02*
G75*
G03*
X110104925Y-107982550I234609J-234592D01*
G01*
X110104900Y-107982550D02*
G75*
G02*
X109967450Y-108120000I-137500J50D01*
G01*
%TO.N,GND*%
D23*
X120691200Y-134592300D02*
X120691200Y-125656400D01*
X121362500Y-120845500D02*
X111177000Y-110660000D01*
X120691200Y-125656400D02*
X121110100Y-125237500D01*
D22*
X122340000Y-139475000D02*
X122340000Y-136241100D01*
X111177000Y-110660000D02*
X107925000Y-110660000D01*
X121362500Y-125237500D02*
X121362500Y-123720000D01*
X121110100Y-125237500D02*
X121362500Y-125237500D01*
X122275000Y-126150000D02*
X121362500Y-125237500D01*
X136784000Y-124498500D02*
X123926500Y-124498500D01*
D23*
X121362500Y-123720000D02*
X121362500Y-120845500D01*
D22*
X145362500Y-115920000D02*
X136784000Y-124498500D01*
X123926500Y-124498500D02*
X122275000Y-126150000D01*
D23*
X122340000Y-136241100D02*
X120691200Y-134592300D01*
%TO.N,LATCH_CONN*%
D22*
X100854479Y-116591979D02*
X106262500Y-122000000D01*
X104310704Y-109390000D02*
X101412995Y-109390000D01*
D23*
X104695478Y-109230620D02*
X104895520Y-109030579D01*
X100854478Y-109723120D02*
X101028220Y-109549379D01*
X100695100Y-110107895D02*
X100695100Y-116207204D01*
D22*
X104854900Y-105580000D02*
X102875000Y-105580000D01*
D23*
X105054900Y-108645804D02*
X105054900Y-105779999D01*
D22*
X101412995Y-109390000D02*
G75*
G03*
X101028234Y-109549393I5J-544100D01*
G01*
D23*
X100854478Y-109723120D02*
G75*
G03*
X100695080Y-110107895I384722J-384780D01*
G01*
D22*
X104695478Y-109230620D02*
G75*
G02*
X104310704Y-109389988I-384778J384820D01*
G01*
X105054900Y-105779999D02*
G75*
G03*
X104854900Y-105580000I-200000J-1D01*
G01*
D23*
X105054900Y-108645804D02*
G75*
G02*
X104895528Y-109030587I-544200J4D01*
G01*
X100695100Y-116207204D02*
G75*
G03*
X100854471Y-116591987I544200J4D01*
G01*
%TO.N,LATCH_TOP*%
D22*
X112112895Y-125250000D02*
X114000000Y-125250000D01*
X111728120Y-125090620D02*
X108637500Y-122000000D01*
X111728120Y-125090620D02*
G75*
G03*
X112112895Y-125249989I384780J384820D01*
G01*
%TO.N,CLOCK_ISP*%
X119800000Y-146479504D02*
X119800000Y-144525000D01*
X119959379Y-146864279D02*
X120468120Y-147373020D01*
X128306379Y-147373020D02*
X128839700Y-146839700D01*
D23*
X127921604Y-147532400D02*
X120852895Y-147532400D01*
X120468120Y-147373020D02*
G75*
G03*
X120852895Y-147532389I384780J384820D01*
G01*
X128306379Y-147373020D02*
G75*
G02*
X127921604Y-147532389I-384779J384820D01*
G01*
D22*
X119800000Y-146479504D02*
G75*
G03*
X119959371Y-146864287I544200J4D01*
G01*
%TO.N,CLOCK_U1*%
X125786379Y-143786379D02*
X127160300Y-145160300D01*
D23*
X125627000Y-143401604D02*
X125627000Y-133550000D01*
D22*
X125627000Y-133550000D02*
X126800000Y-133550000D01*
X125627000Y-133550000D02*
X124736379Y-132659379D01*
X124351604Y-132500000D02*
X122275000Y-132500000D01*
X124736379Y-132659379D02*
G75*
G03*
X124351604Y-132500011I-384779J-384821D01*
G01*
X125627000Y-143401604D02*
G75*
G03*
X125786371Y-143786387I544200J4D01*
G01*
%TO.N,+5V_U1*%
X117325000Y-126150000D02*
X117325000Y-124114500D01*
X118237500Y-125237500D02*
X118237500Y-123720000D01*
X117206100Y-123995600D02*
X116865600Y-123995600D01*
X117325000Y-124114500D02*
X117206100Y-123995600D01*
X117325000Y-126150000D02*
X118237500Y-125237500D01*
X116865600Y-123995600D02*
X115800000Y-122930000D01*
%TO.N,LATCH_A*%
X114159379Y-130179179D02*
X116320820Y-132340620D01*
X114000000Y-129794404D02*
X114000000Y-128350000D01*
X116705595Y-132500000D02*
X117325000Y-132500000D01*
X116320820Y-132340620D02*
G75*
G03*
X116705595Y-132499989I384780J384820D01*
G01*
X114000000Y-129794404D02*
G75*
G03*
X114159371Y-130179187I544200J4D01*
G01*
%TO.N,DATA_IN*%
X119800000Y-137164595D02*
X119800000Y-139475000D01*
X116541595Y-133770000D02*
X117325000Y-133770000D01*
X116156820Y-133610620D02*
X115015579Y-132469379D01*
X119640620Y-136779820D02*
X117484379Y-134623579D01*
X114630804Y-132310000D02*
X113400000Y-132310000D01*
X117325000Y-133770000D02*
X117325000Y-134238804D01*
X119640620Y-136779820D02*
G75*
G02*
X119799989Y-137164595I-384820J-384780D01*
G01*
X115015579Y-132469379D02*
G75*
G03*
X114630804Y-132310011I-384779J-384821D01*
G01*
X116156820Y-133610620D02*
G75*
G03*
X116541595Y-133769989I384780J384820D01*
G01*
X117325000Y-134238804D02*
G75*
G03*
X117484371Y-134623587I544200J4D01*
G01*
%TO.N,DATA_OUT_A*%
D23*
X119640620Y-122828320D02*
X118636879Y-121824579D01*
D22*
X123297020Y-134792020D02*
X122275000Y-133770000D01*
X119800000Y-123213095D02*
X119800000Y-134878904D01*
X120921600Y-141685100D02*
X120420979Y-142185720D01*
X120762220Y-136066520D02*
X119959379Y-135263679D01*
D23*
X120921600Y-141685100D02*
X122835004Y-141685100D01*
X123297020Y-141448478D02*
X123219779Y-141525720D01*
X123456400Y-135176795D02*
X123456400Y-141063704D01*
X120921600Y-141685100D02*
X120921600Y-136451295D01*
X117459999Y-142345100D02*
X120036204Y-142345100D01*
X111959379Y-118234579D02*
X115230620Y-121505820D01*
X118252104Y-121665200D02*
X115615395Y-121665200D01*
D22*
X111800000Y-117849804D02*
X111800000Y-116690000D01*
X117260000Y-142545099D02*
X117260000Y-144525000D01*
X120762220Y-136066520D02*
G75*
G02*
X120921589Y-136451295I-384820J-384780D01*
G01*
D23*
X120420979Y-142185720D02*
G75*
G02*
X120036204Y-142345089I-384779J384820D01*
G01*
D22*
X111800000Y-117849804D02*
G75*
G03*
X111959371Y-118234587I544200J4D01*
G01*
D23*
X123219779Y-141525720D02*
G75*
G02*
X122835004Y-141685089I-384779J384820D01*
G01*
D22*
X119640620Y-122828320D02*
G75*
G02*
X119799989Y-123213095I-384820J-384780D01*
G01*
X118636879Y-121824579D02*
G75*
G03*
X118252104Y-121665211I-384779J-384821D01*
G01*
D23*
X123456400Y-141063704D02*
G75*
G02*
X123297029Y-141448487I-544200J4D01*
G01*
X115230620Y-121505820D02*
G75*
G03*
X115615395Y-121665189I384780J384820D01*
G01*
D22*
X119800000Y-134878904D02*
G75*
G03*
X119959371Y-135263687I544200J4D01*
G01*
X117459999Y-142345100D02*
G75*
G03*
X117260000Y-142545099I1J-200000D01*
G01*
X123297020Y-134792020D02*
G75*
G02*
X123456389Y-135176795I-384820J-384780D01*
G01*
%TO.N,RESET_ISP*%
D23*
X130653120Y-143346878D02*
X127454479Y-146545520D01*
D22*
X131037895Y-143187500D02*
X132000000Y-143187500D01*
D23*
X127069704Y-146704900D02*
X122539999Y-146704900D01*
D22*
X122340000Y-146504900D02*
X122340000Y-144525000D01*
X131037895Y-143187500D02*
G75*
G03*
X130653134Y-143346892I5J-544100D01*
G01*
D23*
X127454479Y-146545520D02*
G75*
G02*
X127069704Y-146704889I-384779J384820D01*
G01*
X122340000Y-146504900D02*
G75*
G03*
X122539999Y-146704900I200000J0D01*
G01*
%TO.N,DATA_TOP*%
D22*
X110685395Y-135410000D02*
X113400000Y-135410000D01*
X110300621Y-135250620D02*
X105000000Y-129949999D01*
X110300621Y-135250620D02*
G75*
G03*
X110685395Y-135409989I384779J384820D01*
G01*
%TO.N,CLOCK_TOP*%
D23*
X115159379Y-111309379D02*
X126800000Y-122950000D01*
X114364879Y-103139679D02*
X114840620Y-103615420D01*
X113980104Y-102980300D02*
X112929995Y-102980300D01*
D22*
X115000000Y-104000195D02*
X115000000Y-110924604D01*
D23*
X110264278Y-105420620D02*
X112545220Y-103139679D01*
D22*
X109879504Y-105580000D02*
X107925000Y-105580000D01*
X110264278Y-105420620D02*
G75*
G02*
X109879504Y-105579988I-384778J384820D01*
G01*
X114840620Y-103615420D02*
G75*
G02*
X114999989Y-104000195I-384820J-384780D01*
G01*
X115000000Y-110924604D02*
G75*
G03*
X115159371Y-111309387I544200J4D01*
G01*
D23*
X114364879Y-103139679D02*
G75*
G03*
X113980104Y-102980311I-384779J-384821D01*
G01*
X112929995Y-102980300D02*
G75*
G03*
X112545234Y-103139693I5J-544100D01*
G01*
%TO.N,CLOCK_A*%
X136195604Y-133943200D02*
X132439995Y-133943200D01*
X128880779Y-130609379D02*
X132055220Y-133783820D01*
D22*
X128496004Y-130450000D02*
X126800000Y-130450000D01*
D23*
X139314900Y-129700995D02*
X139314900Y-130823904D01*
X139155520Y-129316220D02*
X136048679Y-126209379D01*
D22*
X135663904Y-126050000D02*
X126800000Y-126050000D01*
D23*
X136580378Y-133783820D02*
X139155520Y-131208679D01*
X139155520Y-129316220D02*
G75*
G02*
X139314889Y-129700995I-384820J-384780D01*
G01*
D22*
X136048679Y-126209379D02*
G75*
G03*
X135663904Y-126050011I-384779J-384821D01*
G01*
X132055220Y-133783820D02*
G75*
G03*
X132439995Y-133943189I384780J384820D01*
G01*
X136580378Y-133783820D02*
G75*
G02*
X136195604Y-133943188I-384778J384820D01*
G01*
D23*
X139314900Y-130823904D02*
G75*
G02*
X139155528Y-131208687I-544200J4D01*
G01*
X128880779Y-130609379D02*
G75*
G03*
X128496004Y-130450011I-384779J-384821D01*
G01*
%TO.N,ISP_VCC*%
D22*
X129193120Y-141840620D02*
X126812500Y-139460000D01*
D23*
X124388539Y-148359900D02*
X118387595Y-148359900D01*
X118002820Y-148200520D02*
X116276279Y-146473979D01*
X129577895Y-142000000D02*
X132043539Y-142000000D01*
X133134579Y-142160879D02*
X133387220Y-142413520D01*
X132749804Y-142001500D02*
X132047160Y-142001500D01*
D22*
X116277779Y-140457220D02*
X117260000Y-139475000D01*
D23*
X133546600Y-142798295D02*
X133546600Y-143614204D01*
D22*
X116118400Y-141823139D02*
X116118400Y-140841995D01*
D23*
X124392160Y-148361400D02*
X128797204Y-148361400D01*
X116116900Y-141826760D02*
X116116900Y-146089204D01*
X130790977Y-146595222D02*
X133387220Y-143998979D01*
X130787222Y-146596777D02*
X129181979Y-148202020D01*
D22*
X116117650Y-141824950D02*
G75*
G03*
X116116854Y-141826759I1750J-1850D01*
G01*
D23*
X118002820Y-148200520D02*
G75*
G03*
X118387595Y-148359889I384780J384820D01*
G01*
D22*
X116277779Y-140457220D02*
G75*
G03*
X116118381Y-140841995I384721J-384780D01*
G01*
D23*
X133387220Y-142413520D02*
G75*
G02*
X133546589Y-142798295I-384820J-384780D01*
G01*
X124390350Y-148360650D02*
G75*
G03*
X124392160Y-148361416I1850J1850D01*
G01*
X133546600Y-143614204D02*
G75*
G02*
X133387228Y-143998987I-544200J4D01*
G01*
X133134579Y-142160879D02*
G75*
G03*
X132749804Y-142001511I-384779J-384821D01*
G01*
X132045350Y-142000750D02*
G75*
G03*
X132043539Y-141999984I-1850J-1850D01*
G01*
X130789100Y-146596000D02*
G75*
G03*
X130787234Y-146596789I0J-2600D01*
G01*
X116116900Y-146089204D02*
G75*
G03*
X116276271Y-146473987I544200J4D01*
G01*
X132045350Y-142000750D02*
G75*
G03*
X132047160Y-142001516I1850J1850D01*
G01*
D22*
X129193120Y-141840620D02*
G75*
G03*
X129577895Y-141999989I384780J384820D01*
G01*
D23*
X129181979Y-148202020D02*
G75*
G02*
X128797204Y-148361389I-384779J384820D01*
G01*
X130790977Y-146595222D02*
G75*
G02*
X130789100Y-146595986I-1877J1922D01*
G01*
X124390350Y-148360650D02*
G75*
G03*
X124388539Y-148359884I-1850J-1850D01*
G01*
D22*
X116118400Y-141823139D02*
G75*
G02*
X116117639Y-141824939I-2600J39D01*
G01*
%TO.N,DATA_OUT_CHAIN*%
X107687320Y-113430620D02*
X105103761Y-110847061D01*
X108072095Y-113590000D02*
X111800000Y-113590000D01*
X104985800Y-110660000D02*
X102875000Y-110660000D01*
X107687320Y-113430620D02*
G75*
G03*
X108072095Y-113589989I384780J384820D01*
G01*
X105054900Y-110729100D02*
G75*
G03*
X104985800Y-110660000I-69100J0D01*
G01*
X105054900Y-110729100D02*
G75*
G03*
X105103766Y-110847056I166800J0D01*
G01*
%TO.N,DATA_CHAIN_IN*%
X100920495Y-108120000D02*
X102875000Y-108120000D01*
X100046378Y-108768720D02*
X100535720Y-108279379D01*
X100046379Y-121896379D02*
X105000000Y-126850000D01*
D23*
X99887000Y-121511604D02*
X99887000Y-109153495D01*
D22*
X100920495Y-108120000D02*
G75*
G03*
X100535734Y-108279393I5J-544100D01*
G01*
X100046378Y-108768720D02*
G75*
G03*
X99886980Y-109153495I384722J-384780D01*
G01*
X99887000Y-121511604D02*
G75*
G03*
X100046371Y-121896387I544200J4D01*
G01*
%TD*%
%TA.AperFunction,Conductor*%
%TO.N,CLOCK_U1*%
G36*
X126713545Y-144353951D02*
G01*
X126768407Y-144406268D01*
X126768427Y-144406287D01*
X126829330Y-144458668D01*
X126829347Y-144458681D01*
X126829350Y-144458684D01*
X126887504Y-144503113D01*
X126942307Y-144539392D01*
X126993176Y-144567339D01*
X126993180Y-144567340D01*
X126993188Y-144567345D01*
X127039576Y-144586799D01*
X127080898Y-144597580D01*
X127108527Y-144599077D01*
X127116603Y-144602947D01*
X127119039Y-144607201D01*
X127352285Y-145337581D01*
X127351538Y-145346504D01*
X127344699Y-145352285D01*
X127337581Y-145352285D01*
X126607201Y-145119039D01*
X126600362Y-145113258D01*
X126599077Y-145108527D01*
X126597580Y-145080898D01*
X126586799Y-145039576D01*
X126567345Y-144993188D01*
X126567340Y-144993180D01*
X126567339Y-144993176D01*
X126539392Y-144942307D01*
X126539391Y-144942306D01*
X126503126Y-144887524D01*
X126503113Y-144887504D01*
X126458684Y-144829350D01*
X126458681Y-144829347D01*
X126458668Y-144829330D01*
X126406287Y-144768427D01*
X126406268Y-144768407D01*
X126353951Y-144713545D01*
X126350721Y-144705193D01*
X126354144Y-144697199D01*
X126697199Y-144354144D01*
X126705471Y-144350718D01*
X126713545Y-144353951D01*
G37*
%TD.AperFunction*%
%TD*%
%TA.AperFunction,Conductor*%
%TO.N,RESET_ISP*%
G36*
X122345364Y-144290121D02*
G01*
X122350398Y-144295155D01*
X122661529Y-144898239D01*
X122662276Y-144907162D01*
X122660285Y-144910888D01*
X122660286Y-144910889D01*
X122660285Y-144910890D01*
X122648847Y-144925257D01*
X122648844Y-144925262D01*
X122634654Y-144956238D01*
X122622480Y-144996995D01*
X122622478Y-144997002D01*
X122612389Y-145046576D01*
X122612387Y-145046587D01*
X122604432Y-145104120D01*
X122598676Y-145168641D01*
X122595179Y-145239241D01*
X122594179Y-145303482D01*
X122590623Y-145311701D01*
X122582480Y-145315000D01*
X122097519Y-145315000D01*
X122089246Y-145311573D01*
X122085820Y-145303483D01*
X122084820Y-145239244D01*
X122081323Y-145168643D01*
X122075567Y-145104119D01*
X122067613Y-145046595D01*
X122057519Y-144996996D01*
X122045346Y-144956242D01*
X122031153Y-144925258D01*
X122031152Y-144925257D01*
X122031152Y-144925256D01*
X122019715Y-144910889D01*
X122017244Y-144902282D01*
X122018471Y-144898238D01*
X122329602Y-144295155D01*
X122336441Y-144289374D01*
X122345364Y-144290121D01*
G37*
%TD.AperFunction*%
%TD*%
%TA.AperFunction,Conductor*%
%TO.N,DATA_OUT_A*%
G36*
X117510753Y-143738427D02*
G01*
X117514179Y-143746518D01*
X117515179Y-143810757D01*
X117518676Y-143881357D01*
X117524432Y-143945878D01*
X117532387Y-144003411D01*
X117532389Y-144003422D01*
X117542478Y-144052996D01*
X117542480Y-144053003D01*
X117554654Y-144093760D01*
X117568846Y-144124742D01*
X117580284Y-144139110D01*
X117582755Y-144147717D01*
X117581528Y-144151761D01*
X117270398Y-144754844D01*
X117263559Y-144760625D01*
X117254636Y-144759878D01*
X117249602Y-144754844D01*
X116938470Y-144151760D01*
X116937723Y-144142837D01*
X116939713Y-144139111D01*
X116951153Y-144124741D01*
X116965346Y-144093757D01*
X116977519Y-144053003D01*
X116987613Y-144003404D01*
X116995567Y-143945880D01*
X117001323Y-143881356D01*
X117004820Y-143810755D01*
X117005820Y-143746516D01*
X117009376Y-143738299D01*
X117017519Y-143735000D01*
X117502480Y-143735000D01*
X117510753Y-143738427D01*
G37*
%TD.AperFunction*%
%TD*%
%TA.AperFunction,Conductor*%
%TO.N,CLOCK_TOP*%
G36*
X108310889Y-105259715D02*
G01*
X108325256Y-105271152D01*
X108325257Y-105271152D01*
X108325258Y-105271153D01*
X108356242Y-105285346D01*
X108396996Y-105297519D01*
X108446595Y-105307613D01*
X108504119Y-105315567D01*
X108568643Y-105321323D01*
X108639244Y-105324820D01*
X108703483Y-105325820D01*
X108711701Y-105329376D01*
X108715000Y-105337519D01*
X108715000Y-105822480D01*
X108711573Y-105830753D01*
X108703482Y-105834179D01*
X108639241Y-105835179D01*
X108568641Y-105838676D01*
X108525627Y-105842513D01*
X108504119Y-105844432D01*
X108471577Y-105848931D01*
X108446587Y-105852387D01*
X108446576Y-105852389D01*
X108397002Y-105862478D01*
X108396995Y-105862480D01*
X108356238Y-105874654D01*
X108325262Y-105888844D01*
X108325258Y-105888846D01*
X108310889Y-105900285D01*
X108302283Y-105902756D01*
X108298239Y-105901529D01*
X107695155Y-105590398D01*
X107689374Y-105583559D01*
X107690121Y-105574636D01*
X107695155Y-105569602D01*
X108145015Y-105337519D01*
X108298239Y-105258470D01*
X108307161Y-105257724D01*
X108310889Y-105259715D01*
G37*
%TD.AperFunction*%
%TD*%
%TA.AperFunction,Conductor*%
%TO.N,GND*%
G36*
X122590753Y-138688427D02*
G01*
X122594179Y-138696518D01*
X122595179Y-138760757D01*
X122598676Y-138831357D01*
X122604432Y-138895878D01*
X122612387Y-138953411D01*
X122612389Y-138953422D01*
X122622478Y-139002996D01*
X122622480Y-139003003D01*
X122634654Y-139043760D01*
X122648846Y-139074742D01*
X122660284Y-139089110D01*
X122662755Y-139097717D01*
X122661528Y-139101761D01*
X122350398Y-139704844D01*
X122343559Y-139710625D01*
X122334636Y-139709878D01*
X122329602Y-139704844D01*
X122018470Y-139101760D01*
X122017723Y-139092837D01*
X122019713Y-139089111D01*
X122031153Y-139074741D01*
X122045346Y-139043757D01*
X122057519Y-139003003D01*
X122067613Y-138953404D01*
X122075567Y-138895880D01*
X122081323Y-138831356D01*
X122084820Y-138760755D01*
X122085820Y-138696516D01*
X122089376Y-138688299D01*
X122097519Y-138685000D01*
X122582480Y-138685000D01*
X122590753Y-138688427D01*
G37*
%TD.AperFunction*%
%TD*%
%TA.AperFunction,Conductor*%
%TO.N,+5V_MID*%
G36*
X117942863Y-115260730D02*
G01*
X117949711Y-115266501D01*
X117951003Y-115271227D01*
X117952557Y-115298987D01*
X117963461Y-115340431D01*
X117963463Y-115340435D01*
X117983080Y-115386940D01*
X118011243Y-115437965D01*
X118047747Y-115492911D01*
X118047761Y-115492931D01*
X118074391Y-115527694D01*
X118092428Y-115551241D01*
X118092446Y-115551263D01*
X118092451Y-115551268D01*
X118145074Y-115612354D01*
X118145098Y-115612381D01*
X118197666Y-115667477D01*
X118200898Y-115675829D01*
X118197474Y-115683827D01*
X117854425Y-116026876D01*
X117846152Y-116030303D01*
X117838077Y-116027070D01*
X117837453Y-116026475D01*
X117783088Y-115974628D01*
X117783082Y-115974623D01*
X117783077Y-115974618D01*
X117753170Y-115948891D01*
X117722041Y-115922111D01*
X117663779Y-115877583D01*
X117638662Y-115860949D01*
X117608872Y-115841221D01*
X117585909Y-115828602D01*
X117557897Y-115813209D01*
X117534660Y-115803465D01*
X117511425Y-115793721D01*
X117511422Y-115793720D01*
X117470031Y-115782938D01*
X117470032Y-115782938D01*
X117442331Y-115781467D01*
X117434252Y-115777605D01*
X117431812Y-115773359D01*
X117307756Y-115386947D01*
X117197442Y-115043336D01*
X117198176Y-115034412D01*
X117205006Y-115028620D01*
X117212121Y-115028609D01*
X117942863Y-115260730D01*
G37*
%TD.AperFunction*%
%TD*%
%TA.AperFunction,Conductor*%
%TO.N,+5V_U1*%
G36*
X118242864Y-123403871D02*
G01*
X118247898Y-123408905D01*
X118664225Y-124215898D01*
X118664972Y-124224821D01*
X118662138Y-124229497D01*
X118633112Y-124258791D01*
X118633104Y-124258800D01*
X118600221Y-124303613D01*
X118570252Y-124358011D01*
X118543985Y-124422088D01*
X118522196Y-124495963D01*
X118522193Y-124495976D01*
X118505663Y-124579751D01*
X118505660Y-124579774D01*
X118495171Y-124673553D01*
X118495170Y-124673567D01*
X118491899Y-124766213D01*
X118488182Y-124774360D01*
X118480206Y-124777500D01*
X117994794Y-124777500D01*
X117986521Y-124774073D01*
X117983101Y-124766213D01*
X117979829Y-124673565D01*
X117969337Y-124579758D01*
X117952804Y-124495968D01*
X117931013Y-124422087D01*
X117904743Y-124358004D01*
X117874776Y-124303611D01*
X117841893Y-124258798D01*
X117812859Y-124229495D01*
X117809471Y-124221208D01*
X117810771Y-124215902D01*
X118227102Y-123408904D01*
X118233941Y-123403124D01*
X118242864Y-123403871D01*
G37*
%TD.AperFunction*%
%TD*%
%TA.AperFunction,Conductor*%
%TO.N,+5V_CHAIN*%
G36*
X108310889Y-107799715D02*
G01*
X108325256Y-107811152D01*
X108325257Y-107811152D01*
X108325258Y-107811153D01*
X108356242Y-107825346D01*
X108396996Y-107837519D01*
X108446595Y-107847613D01*
X108504119Y-107855567D01*
X108568643Y-107861323D01*
X108639244Y-107864820D01*
X108703483Y-107865820D01*
X108711701Y-107869376D01*
X108715000Y-107877519D01*
X108715000Y-108362480D01*
X108711573Y-108370753D01*
X108703482Y-108374179D01*
X108639241Y-108375179D01*
X108568641Y-108378676D01*
X108525627Y-108382513D01*
X108504119Y-108384432D01*
X108471577Y-108388931D01*
X108446587Y-108392387D01*
X108446576Y-108392389D01*
X108397002Y-108402478D01*
X108396995Y-108402480D01*
X108356238Y-108414654D01*
X108325262Y-108428844D01*
X108325258Y-108428846D01*
X108310889Y-108440285D01*
X108302283Y-108442756D01*
X108298239Y-108441529D01*
X107695155Y-108130398D01*
X107689374Y-108123559D01*
X107690121Y-108114636D01*
X107695155Y-108109602D01*
X108145015Y-107877519D01*
X108298239Y-107798470D01*
X108307161Y-107797724D01*
X108310889Y-107799715D01*
G37*
%TD.AperFunction*%
%TD*%
%TA.AperFunction,Conductor*%
%TO.N,MOTOR1*%
G36*
X133771757Y-127388469D02*
G01*
X133924985Y-127467519D01*
X134374844Y-127699602D01*
X134380625Y-127706441D01*
X134379878Y-127715364D01*
X134374844Y-127720398D01*
X133771761Y-128031528D01*
X133762838Y-128032275D01*
X133759110Y-128030284D01*
X133744742Y-128018846D01*
X133713760Y-128004654D01*
X133673003Y-127992480D01*
X133672996Y-127992478D01*
X133623422Y-127982389D01*
X133623411Y-127982387D01*
X133623404Y-127982386D01*
X133565880Y-127974432D01*
X133522864Y-127970594D01*
X133501357Y-127968676D01*
X133430757Y-127965179D01*
X133366518Y-127964179D01*
X133358299Y-127960623D01*
X133355000Y-127952480D01*
X133355000Y-127467519D01*
X133358427Y-127459246D01*
X133366516Y-127455820D01*
X133430755Y-127454820D01*
X133501356Y-127451323D01*
X133565880Y-127445567D01*
X133623404Y-127437613D01*
X133673003Y-127427519D01*
X133713757Y-127415346D01*
X133744741Y-127401153D01*
X133759110Y-127389714D01*
X133767716Y-127387243D01*
X133771757Y-127388469D01*
G37*
%TD.AperFunction*%
%TD*%
%TA.AperFunction,Conductor*%
%TO.N,DATA_OUT_CHAIN*%
G36*
X103260889Y-110339715D02*
G01*
X103275256Y-110351152D01*
X103275257Y-110351152D01*
X103275258Y-110351153D01*
X103306242Y-110365346D01*
X103346996Y-110377519D01*
X103396595Y-110387613D01*
X103454119Y-110395567D01*
X103518643Y-110401323D01*
X103589244Y-110404820D01*
X103653483Y-110405820D01*
X103661701Y-110409376D01*
X103665000Y-110417519D01*
X103665000Y-110902480D01*
X103661573Y-110910753D01*
X103653482Y-110914179D01*
X103589241Y-110915179D01*
X103518641Y-110918676D01*
X103475627Y-110922513D01*
X103454119Y-110924432D01*
X103421577Y-110928931D01*
X103396587Y-110932387D01*
X103396576Y-110932389D01*
X103347002Y-110942478D01*
X103346995Y-110942480D01*
X103306238Y-110954654D01*
X103275262Y-110968844D01*
X103275258Y-110968846D01*
X103260889Y-110980285D01*
X103252283Y-110982756D01*
X103248239Y-110981529D01*
X102645155Y-110670398D01*
X102639374Y-110663559D01*
X102640121Y-110654636D01*
X102645155Y-110649602D01*
X103095015Y-110417519D01*
X103248239Y-110338470D01*
X103257161Y-110337724D01*
X103260889Y-110339715D01*
G37*
%TD.AperFunction*%
%TD*%
%TA.AperFunction,Conductor*%
%TO.N,MOTOR2*%
G36*
X137081757Y-129928469D02*
G01*
X137234985Y-130007519D01*
X137684844Y-130239602D01*
X137690625Y-130246441D01*
X137689878Y-130255364D01*
X137684844Y-130260398D01*
X137081761Y-130571528D01*
X137072838Y-130572275D01*
X137069110Y-130570284D01*
X137054742Y-130558846D01*
X137023760Y-130544654D01*
X136983003Y-130532480D01*
X136982996Y-130532478D01*
X136933422Y-130522389D01*
X136933411Y-130522387D01*
X136933404Y-130522386D01*
X136875880Y-130514432D01*
X136832864Y-130510594D01*
X136811357Y-130508676D01*
X136740757Y-130505179D01*
X136676518Y-130504179D01*
X136668299Y-130500623D01*
X136665000Y-130492480D01*
X136665000Y-130007519D01*
X136668427Y-129999246D01*
X136676516Y-129995820D01*
X136740755Y-129994820D01*
X136811356Y-129991323D01*
X136875880Y-129985567D01*
X136933404Y-129977613D01*
X136983003Y-129967519D01*
X137023757Y-129955346D01*
X137054741Y-129941153D01*
X137069110Y-129929714D01*
X137077716Y-129927243D01*
X137081757Y-129928469D01*
G37*
%TD.AperFunction*%
%TD*%
%TA.AperFunction,Conductor*%
%TO.N,GND*%
G36*
X121533391Y-123719999D02*
G01*
X121533391Y-123720000D01*
X121632781Y-123912654D01*
X121789225Y-124215898D01*
X121789972Y-124224821D01*
X121787138Y-124229497D01*
X121758112Y-124258791D01*
X121758104Y-124258800D01*
X121725221Y-124303613D01*
X121695252Y-124358011D01*
X121668985Y-124422088D01*
X121647196Y-124495963D01*
X121647193Y-124495976D01*
X121630663Y-124579751D01*
X121630660Y-124579774D01*
X121620171Y-124673553D01*
X121620170Y-124673567D01*
X121616899Y-124766213D01*
X121613182Y-124774360D01*
X121605206Y-124777500D01*
X121119794Y-124777500D01*
X121111521Y-124774073D01*
X121108101Y-124766213D01*
X121104829Y-124673565D01*
X121094337Y-124579758D01*
X121077804Y-124495968D01*
X121056013Y-124422087D01*
X121029743Y-124358004D01*
X120999776Y-124303611D01*
X120966893Y-124258798D01*
X120937859Y-124229495D01*
X120934471Y-124221208D01*
X120935771Y-124215902D01*
X121191608Y-123720000D01*
X121362500Y-123388750D01*
X121533391Y-123719999D01*
G37*
%TD.AperFunction*%
%TD*%
%TA.AperFunction,Conductor*%
%TO.N,+5V_TOP*%
G36*
X142813645Y-115000615D02*
G01*
X143156883Y-115343852D01*
X143160310Y-115352125D01*
X143157170Y-115360101D01*
X143093969Y-115427930D01*
X143093963Y-115427937D01*
X143035072Y-115501660D01*
X143035059Y-115501678D01*
X142987510Y-115572602D01*
X142987503Y-115572613D01*
X142950665Y-115640272D01*
X142923929Y-115704160D01*
X142906660Y-115763801D01*
X142906657Y-115763811D01*
X142898223Y-115818741D01*
X142898222Y-115818751D01*
X142898033Y-115859997D01*
X142894568Y-115868254D01*
X142889892Y-115871088D01*
X142295830Y-116060799D01*
X142295826Y-116060801D01*
X142295822Y-116060802D01*
X142295822Y-116060803D01*
X142295819Y-116060804D01*
X142003271Y-116154229D01*
X142286412Y-115267604D01*
X142292192Y-115260767D01*
X142297498Y-115259465D01*
X142338751Y-115259276D01*
X142348064Y-115257845D01*
X142393687Y-115250841D01*
X142393689Y-115250840D01*
X142393691Y-115250840D01*
X142453342Y-115233568D01*
X142517231Y-115206830D01*
X142584881Y-115169997D01*
X142655820Y-115122438D01*
X142655829Y-115122430D01*
X142655837Y-115122425D01*
X142729559Y-115063534D01*
X142729566Y-115063528D01*
X142729570Y-115063525D01*
X142797396Y-115000327D01*
X142805785Y-114997195D01*
X142813645Y-115000615D01*
G37*
%TD.AperFunction*%
%TD*%
%TA.AperFunction,Conductor*%
%TO.N,+5V_TOP*%
G36*
X117185981Y-104546678D02*
G01*
X117189954Y-104547947D01*
X117196793Y-104553728D01*
X117198095Y-104559005D01*
X117198383Y-104598012D01*
X117206783Y-104650714D01*
X117206783Y-104650715D01*
X117223795Y-104708142D01*
X117223797Y-104708146D01*
X117223798Y-104708150D01*
X117249995Y-104769816D01*
X117285939Y-104835207D01*
X117285951Y-104835225D01*
X117285953Y-104835228D01*
X117332190Y-104903810D01*
X117332198Y-104903821D01*
X117389337Y-104975158D01*
X117450219Y-105040451D01*
X117453355Y-105048838D01*
X117449935Y-105056702D01*
X117106702Y-105399935D01*
X117098429Y-105403362D01*
X117090451Y-105400219D01*
X117025158Y-105339337D01*
X116953821Y-105282198D01*
X116953810Y-105282190D01*
X116885228Y-105235953D01*
X116885225Y-105235951D01*
X116885207Y-105235939D01*
X116819816Y-105199995D01*
X116758150Y-105173798D01*
X116758146Y-105173797D01*
X116758142Y-105173795D01*
X116700714Y-105156783D01*
X116648011Y-105148383D01*
X116648013Y-105148383D01*
X116609005Y-105148095D01*
X116600758Y-105144607D01*
X116597947Y-105139954D01*
X116566171Y-105040450D01*
X116327089Y-104291791D01*
X116327836Y-104282870D01*
X116334675Y-104277089D01*
X116341791Y-104277089D01*
X117185981Y-104546678D01*
G37*
%TD.AperFunction*%
%TD*%
%TA.AperFunction,Conductor*%
%TO.N,+5V_MID*%
G36*
X121213545Y-118683351D02*
G01*
X121268403Y-118735665D01*
X121329345Y-118788077D01*
X121387496Y-118832504D01*
X121387507Y-118832511D01*
X121387515Y-118832517D01*
X121408608Y-118846478D01*
X121442298Y-118868779D01*
X121493177Y-118896729D01*
X121493179Y-118896729D01*
X121493183Y-118896732D01*
X121508308Y-118903074D01*
X121539564Y-118916181D01*
X121580885Y-118926960D01*
X121608513Y-118928456D01*
X121616587Y-118932325D01*
X121619024Y-118936579D01*
X121852289Y-119666952D01*
X121851542Y-119675876D01*
X121844704Y-119681657D01*
X121837585Y-119681658D01*
X121107199Y-119448433D01*
X121100360Y-119442652D01*
X121099075Y-119437921D01*
X121097577Y-119410293D01*
X121086796Y-119368971D01*
X121067342Y-119322584D01*
X121067337Y-119322576D01*
X121067336Y-119322572D01*
X121039389Y-119271703D01*
X121039388Y-119271702D01*
X121003124Y-119216921D01*
X121003111Y-119216901D01*
X120958682Y-119158748D01*
X120958679Y-119158745D01*
X120958666Y-119158728D01*
X120906286Y-119097826D01*
X120906267Y-119097806D01*
X120853951Y-119042945D01*
X120850721Y-119034593D01*
X120854144Y-119026599D01*
X121197199Y-118683544D01*
X121205471Y-118680118D01*
X121213545Y-118683351D01*
G37*
%TD.AperFunction*%
%TD*%
%TA.AperFunction,Conductor*%
%TO.N,GND*%
G36*
X121562829Y-122665927D02*
G01*
X121566242Y-122673631D01*
X121570850Y-122768330D01*
X121570850Y-122768338D01*
X121585388Y-122861844D01*
X121607945Y-122943977D01*
X121607950Y-122943989D01*
X121637155Y-123015669D01*
X121637160Y-123015681D01*
X121671651Y-123077849D01*
X121708939Y-123129871D01*
X121710053Y-123131425D01*
X121751001Y-123177348D01*
X121786630Y-123210500D01*
X121790351Y-123218643D01*
X121789057Y-123224428D01*
X121533392Y-123719999D01*
X121533391Y-123720000D01*
X121362500Y-124051250D01*
X120935941Y-123224427D01*
X120935195Y-123215505D01*
X120938366Y-123210503D01*
X120973998Y-123177348D01*
X121014946Y-123131425D01*
X121053351Y-123077844D01*
X121087842Y-123015674D01*
X121117051Y-122943985D01*
X121139610Y-122861847D01*
X121154149Y-122768329D01*
X121158758Y-122673630D01*
X121162583Y-122665534D01*
X121170444Y-122662500D01*
X121554556Y-122662500D01*
X121562829Y-122665927D01*
G37*
%TD.AperFunction*%
%TD*%
%TA.AperFunction,Conductor*%
%TO.N,DATA_OUT_A*%
G36*
X111805364Y-116380121D02*
G01*
X111810398Y-116385155D01*
X112218612Y-117176421D01*
X112219359Y-117185344D01*
X112216548Y-117189997D01*
X112189176Y-117217775D01*
X112189174Y-117217778D01*
X112157845Y-117260985D01*
X112157836Y-117261000D01*
X112129268Y-117313620D01*
X112129257Y-117313644D01*
X112104182Y-117375759D01*
X112083361Y-117447411D01*
X112083360Y-117447414D01*
X112067549Y-117528659D01*
X112057514Y-117619485D01*
X112057514Y-117619487D01*
X112054395Y-117708709D01*
X112050681Y-117716857D01*
X112042702Y-117720000D01*
X111557298Y-117720000D01*
X111549025Y-117716573D01*
X111545605Y-117708709D01*
X111542485Y-117619490D01*
X111532447Y-117528644D01*
X111516639Y-117447416D01*
X111495817Y-117375761D01*
X111470737Y-117313633D01*
X111442154Y-117260986D01*
X111410823Y-117217776D01*
X111383450Y-117189996D01*
X111380085Y-117181699D01*
X111381386Y-117176424D01*
X111789602Y-116385154D01*
X111796441Y-116379374D01*
X111805364Y-116380121D01*
G37*
%TD.AperFunction*%
%TD*%
%TA.AperFunction,Conductor*%
%TO.N,+5V*%
G36*
X115699865Y-116633711D02*
G01*
X115705189Y-116638437D01*
X116096549Y-117297751D01*
X116097825Y-117306614D01*
X116095645Y-117311005D01*
X116078424Y-117332659D01*
X116078421Y-117332663D01*
X116059054Y-117370716D01*
X116059048Y-117370728D01*
X116042806Y-117418320D01*
X116029930Y-117474936D01*
X116020677Y-117540019D01*
X116015300Y-117612967D01*
X116014041Y-117693339D01*
X116016745Y-117769112D01*
X116013615Y-117777502D01*
X116005747Y-117781208D01*
X115521455Y-117810021D01*
X115512993Y-117807092D01*
X115509100Y-117799315D01*
X115502801Y-117723754D01*
X115492024Y-117644110D01*
X115478029Y-117572277D01*
X115461128Y-117508764D01*
X115441634Y-117454081D01*
X115419858Y-117408736D01*
X115396113Y-117373241D01*
X115396111Y-117373239D01*
X115396109Y-117373236D01*
X115376445Y-117353779D01*
X115372974Y-117345524D01*
X115373975Y-117340728D01*
X115684432Y-116639669D01*
X115690913Y-116633494D01*
X115699865Y-116633711D01*
G37*
%TD.AperFunction*%
%TD*%
%TA.AperFunction,Conductor*%
%TO.N,+5V_TOP*%
G36*
X141741598Y-115493272D02*
G01*
X142147476Y-115702665D01*
X142147476Y-115702664D01*
X142568750Y-115920000D01*
X142295832Y-116060798D01*
X142295830Y-116060799D01*
X142295826Y-116060801D01*
X141741601Y-116346726D01*
X141732678Y-116347473D01*
X141728003Y-116344639D01*
X141698701Y-116315606D01*
X141653888Y-116282723D01*
X141653886Y-116282722D01*
X141653885Y-116282721D01*
X141628858Y-116268933D01*
X141599495Y-116252756D01*
X141599492Y-116252754D01*
X141599487Y-116252752D01*
X141535410Y-116226485D01*
X141461535Y-116204696D01*
X141461522Y-116204693D01*
X141377747Y-116188163D01*
X141377744Y-116188162D01*
X141377741Y-116188162D01*
X141377729Y-116188160D01*
X141377724Y-116188160D01*
X141283945Y-116177671D01*
X141283939Y-116177670D01*
X141283934Y-116177670D01*
X141269055Y-116177144D01*
X141191287Y-116174398D01*
X141183140Y-116170681D01*
X141180000Y-116162705D01*
X141180000Y-115677294D01*
X141183427Y-115669021D01*
X141191286Y-115665601D01*
X141283934Y-115662329D01*
X141377741Y-115651837D01*
X141461531Y-115635304D01*
X141535412Y-115613513D01*
X141599495Y-115587243D01*
X141653888Y-115557276D01*
X141698701Y-115524393D01*
X141728004Y-115495358D01*
X141736291Y-115491971D01*
X141741598Y-115493272D01*
G37*
%TD.AperFunction*%
%TD*%
%TA.AperFunction,Conductor*%
%TO.N,GND*%
G36*
X145584049Y-115693416D02*
G01*
X145589830Y-115700255D01*
X145589830Y-115707373D01*
X145313588Y-116572392D01*
X145307807Y-116579231D01*
X145302497Y-116580533D01*
X145261251Y-116580722D01*
X145261241Y-116580723D01*
X145206311Y-116589157D01*
X145206301Y-116589160D01*
X145146661Y-116606429D01*
X145082773Y-116633165D01*
X145015114Y-116670003D01*
X145015103Y-116670010D01*
X144944179Y-116717559D01*
X144944161Y-116717572D01*
X144870438Y-116776463D01*
X144870431Y-116776469D01*
X144802602Y-116839670D01*
X144794213Y-116842803D01*
X144786353Y-116839383D01*
X144443115Y-116496145D01*
X144439688Y-116487872D01*
X144442828Y-116479896D01*
X144506025Y-116412070D01*
X144506034Y-116412059D01*
X144564925Y-116338337D01*
X144564930Y-116338329D01*
X144564938Y-116338320D01*
X144612497Y-116267381D01*
X144649330Y-116199731D01*
X144676068Y-116135842D01*
X144693340Y-116076191D01*
X144701776Y-116021251D01*
X144701965Y-115979999D01*
X144705430Y-115971745D01*
X144710102Y-115968913D01*
X145575128Y-115692669D01*
X145584049Y-115693416D01*
G37*
%TD.AperFunction*%
%TD*%
%TA.AperFunction,Conductor*%
%TO.N,DATA_IN*%
G36*
X113899995Y-131893450D02*
G01*
X113927776Y-131920823D01*
X113970986Y-131952154D01*
X113970993Y-131952157D01*
X113971000Y-131952162D01*
X114023620Y-131980730D01*
X114023633Y-131980737D01*
X114085761Y-132005817D01*
X114157416Y-132026639D01*
X114238644Y-132042447D01*
X114238654Y-132042448D01*
X114238659Y-132042449D01*
X114273208Y-132046266D01*
X114329490Y-132052485D01*
X114418709Y-132055605D01*
X114426857Y-132059319D01*
X114430000Y-132067298D01*
X114430000Y-132552701D01*
X114426573Y-132560974D01*
X114418709Y-132564394D01*
X114329487Y-132567514D01*
X114329485Y-132567514D01*
X114238659Y-132577549D01*
X114157414Y-132593360D01*
X114157411Y-132593361D01*
X114085759Y-132614182D01*
X114023644Y-132639257D01*
X114023620Y-132639268D01*
X113971000Y-132667836D01*
X113970985Y-132667845D01*
X113927778Y-132699174D01*
X113927775Y-132699176D01*
X113899997Y-132726548D01*
X113891699Y-132729914D01*
X113886421Y-132728612D01*
X113095155Y-132320398D01*
X113089374Y-132313559D01*
X113090121Y-132304636D01*
X113095155Y-132299602D01*
X113886422Y-131891386D01*
X113895344Y-131890640D01*
X113899995Y-131893450D01*
G37*
%TD.AperFunction*%
%TD*%
%TA.AperFunction,Conductor*%
%TO.N,DATA_TOP*%
G36*
X105635981Y-129996678D02*
G01*
X105639954Y-129997947D01*
X105646793Y-130003728D01*
X105648095Y-130009005D01*
X105648383Y-130048012D01*
X105656783Y-130100714D01*
X105656783Y-130100715D01*
X105673798Y-130158153D01*
X105699988Y-130219800D01*
X105699992Y-130219808D01*
X105699995Y-130219815D01*
X105735940Y-130285206D01*
X105735952Y-130285224D01*
X105735954Y-130285227D01*
X105782190Y-130353810D01*
X105782198Y-130353821D01*
X105839337Y-130425157D01*
X105900219Y-130490450D01*
X105903355Y-130498837D01*
X105899935Y-130506701D01*
X105556702Y-130849934D01*
X105548429Y-130853361D01*
X105540451Y-130850218D01*
X105475158Y-130789337D01*
X105403822Y-130732197D01*
X105403817Y-130732193D01*
X105403810Y-130732188D01*
X105335228Y-130685953D01*
X105335225Y-130685951D01*
X105335207Y-130685939D01*
X105269816Y-130649994D01*
X105208151Y-130623798D01*
X105208147Y-130623797D01*
X105208143Y-130623795D01*
X105150715Y-130606783D01*
X105098012Y-130598383D01*
X105098014Y-130598383D01*
X105059006Y-130598095D01*
X105050759Y-130594607D01*
X105047948Y-130589954D01*
X104910052Y-130158150D01*
X104777089Y-129741791D01*
X104777836Y-129732870D01*
X104784675Y-129727089D01*
X104791791Y-129727089D01*
X105635981Y-129996678D01*
G37*
%TD.AperFunction*%
%TD*%
%TA.AperFunction,Conductor*%
%TO.N,DATA_IN*%
G36*
X120050753Y-138688427D02*
G01*
X120054179Y-138696518D01*
X120055179Y-138760757D01*
X120058676Y-138831357D01*
X120064432Y-138895878D01*
X120072387Y-138953411D01*
X120072389Y-138953422D01*
X120082478Y-139002996D01*
X120082480Y-139003003D01*
X120094654Y-139043760D01*
X120108846Y-139074742D01*
X120120284Y-139089110D01*
X120122755Y-139097717D01*
X120121528Y-139101761D01*
X119810398Y-139704844D01*
X119803559Y-139710625D01*
X119794636Y-139709878D01*
X119789602Y-139704844D01*
X119478470Y-139101760D01*
X119477723Y-139092837D01*
X119479713Y-139089111D01*
X119491153Y-139074741D01*
X119505346Y-139043757D01*
X119517519Y-139003003D01*
X119527613Y-138953404D01*
X119535567Y-138895880D01*
X119541323Y-138831356D01*
X119544820Y-138760755D01*
X119545820Y-138696516D01*
X119549376Y-138688299D01*
X119557519Y-138685000D01*
X120042480Y-138685000D01*
X120050753Y-138688427D01*
G37*
%TD.AperFunction*%
%TD*%
%TA.AperFunction,Conductor*%
%TO.N,CLOCK_U1*%
G36*
X126313576Y-133131386D02*
G01*
X126606386Y-133282447D01*
X127104844Y-133539602D01*
X127110625Y-133546441D01*
X127109878Y-133555364D01*
X127104844Y-133560398D01*
X126313578Y-133968612D01*
X126304655Y-133969359D01*
X126300002Y-133966548D01*
X126272223Y-133939176D01*
X126272220Y-133939174D01*
X126229013Y-133907845D01*
X126228998Y-133907836D01*
X126176378Y-133879268D01*
X126176371Y-133879265D01*
X126176366Y-133879262D01*
X126176354Y-133879257D01*
X126114239Y-133854182D01*
X126042587Y-133833361D01*
X126042584Y-133833360D01*
X125991317Y-133823383D01*
X125961355Y-133817552D01*
X125961353Y-133817551D01*
X125961339Y-133817549D01*
X125870512Y-133807514D01*
X125781291Y-133804394D01*
X125773143Y-133800680D01*
X125770000Y-133792701D01*
X125770000Y-133307298D01*
X125773427Y-133299025D01*
X125781290Y-133295605D01*
X125870509Y-133292485D01*
X125934659Y-133285396D01*
X125961339Y-133282449D01*
X125961341Y-133282448D01*
X125961355Y-133282447D01*
X126042583Y-133266639D01*
X126114238Y-133245817D01*
X126176366Y-133220737D01*
X126229013Y-133192154D01*
X126272223Y-133160823D01*
X126300004Y-133133450D01*
X126308300Y-133130085D01*
X126313576Y-133131386D01*
G37*
%TD.AperFunction*%
%TD*%
%TA.AperFunction,Conductor*%
%TO.N,GND*%
G36*
X108310889Y-110339715D02*
G01*
X108325256Y-110351152D01*
X108325257Y-110351152D01*
X108325258Y-110351153D01*
X108356242Y-110365346D01*
X108396996Y-110377519D01*
X108446595Y-110387613D01*
X108504119Y-110395567D01*
X108568643Y-110401323D01*
X108639244Y-110404820D01*
X108703483Y-110405820D01*
X108711701Y-110409376D01*
X108715000Y-110417519D01*
X108715000Y-110902480D01*
X108711573Y-110910753D01*
X108703482Y-110914179D01*
X108639241Y-110915179D01*
X108568641Y-110918676D01*
X108525627Y-110922513D01*
X108504119Y-110924432D01*
X108471577Y-110928931D01*
X108446587Y-110932387D01*
X108446576Y-110932389D01*
X108397002Y-110942478D01*
X108396995Y-110942480D01*
X108356238Y-110954654D01*
X108325262Y-110968844D01*
X108325258Y-110968846D01*
X108310889Y-110980285D01*
X108302283Y-110982756D01*
X108298239Y-110981529D01*
X107695155Y-110670398D01*
X107689374Y-110663559D01*
X107690121Y-110654636D01*
X107695155Y-110649602D01*
X108145015Y-110417519D01*
X108298239Y-110338470D01*
X108307161Y-110337724D01*
X108310889Y-110339715D01*
G37*
%TD.AperFunction*%
%TD*%
%TA.AperFunction,Conductor*%
%TO.N,LATCH_TOP*%
G36*
X109037627Y-121992416D02*
G01*
X109190609Y-122041271D01*
X109197448Y-122047052D01*
X109198733Y-122051783D01*
X109200230Y-122079412D01*
X109200230Y-122079413D01*
X109211009Y-122120730D01*
X109230464Y-122167121D01*
X109230465Y-122167124D01*
X109258413Y-122217997D01*
X109258414Y-122217998D01*
X109294691Y-122272800D01*
X109294700Y-122272812D01*
X109294703Y-122272816D01*
X109339115Y-122330947D01*
X109339118Y-122330951D01*
X109391531Y-122391893D01*
X109443847Y-122446753D01*
X109447077Y-122455105D01*
X109443653Y-122463100D01*
X109100600Y-122806153D01*
X109092327Y-122809580D01*
X109084253Y-122806347D01*
X109029393Y-122754031D01*
X108968451Y-122701618D01*
X108968447Y-122701615D01*
X108910316Y-122657203D01*
X108910312Y-122657200D01*
X108910300Y-122657191D01*
X108855498Y-122620914D01*
X108855497Y-122620913D01*
X108804624Y-122592965D01*
X108804621Y-122592964D01*
X108758230Y-122573509D01*
X108716913Y-122562730D01*
X108689283Y-122561233D01*
X108681207Y-122557363D01*
X108678771Y-122553109D01*
X108571754Y-122217998D01*
X108445525Y-121822727D01*
X108446272Y-121813806D01*
X108453111Y-121808025D01*
X108460227Y-121808025D01*
X109037627Y-121992416D01*
G37*
%TD.AperFunction*%
%TD*%
%TA.AperFunction,Conductor*%
%TO.N,CLOCK_ISP*%
G36*
X129025876Y-146648456D02*
G01*
X129031657Y-146655294D01*
X129031658Y-146662413D01*
X128798141Y-147393712D01*
X128792360Y-147400551D01*
X128788966Y-147401686D01*
X128737776Y-147410436D01*
X128737773Y-147410437D01*
X128674256Y-147444523D01*
X128674254Y-147444524D01*
X128603137Y-147495945D01*
X128522226Y-147557825D01*
X128521859Y-147558094D01*
X128429210Y-147623410D01*
X128428354Y-147623959D01*
X128321668Y-147686040D01*
X128320355Y-147686698D01*
X128197302Y-147738932D01*
X128195592Y-147739506D01*
X128124894Y-147757344D01*
X128122032Y-147757700D01*
X128059771Y-147757700D01*
X128051498Y-147754273D01*
X128048230Y-147747924D01*
X128006233Y-147495966D01*
X127971010Y-147284646D01*
X127973030Y-147275925D01*
X127979234Y-147271506D01*
X128014990Y-147260940D01*
X128053508Y-147249560D01*
X128053512Y-147249557D01*
X128053519Y-147249556D01*
X128122437Y-147208697D01*
X128177206Y-147156422D01*
X128218971Y-147097292D01*
X128248877Y-147035867D01*
X128268070Y-146976708D01*
X128277693Y-146924375D01*
X128278650Y-146891709D01*
X128282318Y-146883541D01*
X128286783Y-146880909D01*
X129016954Y-146647709D01*
X129025876Y-146648456D01*
G37*
%TD.AperFunction*%
%TD*%
%TA.AperFunction,Conductor*%
%TO.N,+5V_U1*%
G36*
X116435981Y-122976678D02*
G01*
X116439954Y-122977947D01*
X116446793Y-122983728D01*
X116448095Y-122989005D01*
X116448383Y-123028012D01*
X116456783Y-123080714D01*
X116456783Y-123080715D01*
X116473795Y-123138142D01*
X116473797Y-123138146D01*
X116473798Y-123138150D01*
X116499995Y-123199816D01*
X116535939Y-123265207D01*
X116535951Y-123265225D01*
X116535953Y-123265228D01*
X116582190Y-123333810D01*
X116582198Y-123333821D01*
X116639337Y-123405158D01*
X116700219Y-123470451D01*
X116703355Y-123478838D01*
X116699935Y-123486702D01*
X116356702Y-123829935D01*
X116348429Y-123833362D01*
X116340451Y-123830219D01*
X116275158Y-123769337D01*
X116203821Y-123712198D01*
X116203810Y-123712190D01*
X116135228Y-123665953D01*
X116135225Y-123665951D01*
X116135207Y-123665939D01*
X116069816Y-123629995D01*
X116008150Y-123603798D01*
X116008146Y-123603797D01*
X116008142Y-123603795D01*
X115950714Y-123586783D01*
X115898011Y-123578383D01*
X115898013Y-123578383D01*
X115859005Y-123578095D01*
X115850758Y-123574607D01*
X115847947Y-123569954D01*
X115816171Y-123470450D01*
X115577089Y-122721791D01*
X115577836Y-122712870D01*
X115584675Y-122707089D01*
X115591791Y-122707089D01*
X116435981Y-122976678D01*
G37*
%TD.AperFunction*%
%TD*%
%TA.AperFunction,Conductor*%
%TO.N,DATA_CHAIN_IN*%
G36*
X102501757Y-107798469D02*
G01*
X102654985Y-107877519D01*
X103104844Y-108109602D01*
X103110625Y-108116441D01*
X103109878Y-108125364D01*
X103104844Y-108130398D01*
X102501761Y-108441528D01*
X102492838Y-108442275D01*
X102489110Y-108440284D01*
X102474742Y-108428846D01*
X102443760Y-108414654D01*
X102403003Y-108402480D01*
X102402996Y-108402478D01*
X102353422Y-108392389D01*
X102353411Y-108392387D01*
X102353404Y-108392386D01*
X102295880Y-108384432D01*
X102252864Y-108380594D01*
X102231357Y-108378676D01*
X102160757Y-108375179D01*
X102096518Y-108374179D01*
X102088299Y-108370623D01*
X102085000Y-108362480D01*
X102085000Y-107877519D01*
X102088427Y-107869246D01*
X102096516Y-107865820D01*
X102160755Y-107864820D01*
X102231356Y-107861323D01*
X102295880Y-107855567D01*
X102353404Y-107847613D01*
X102403003Y-107837519D01*
X102443757Y-107825346D01*
X102474741Y-107811153D01*
X102489110Y-107799714D01*
X102497716Y-107797243D01*
X102501757Y-107798469D01*
G37*
%TD.AperFunction*%
%TD*%
%TA.AperFunction,Conductor*%
%TO.N,LATCH_CONN*%
G36*
X103260889Y-105259715D02*
G01*
X103275256Y-105271152D01*
X103275257Y-105271152D01*
X103275258Y-105271153D01*
X103306242Y-105285346D01*
X103346996Y-105297519D01*
X103396595Y-105307613D01*
X103454119Y-105315567D01*
X103518643Y-105321323D01*
X103589244Y-105324820D01*
X103653483Y-105325820D01*
X103661701Y-105329376D01*
X103665000Y-105337519D01*
X103665000Y-105822480D01*
X103661573Y-105830753D01*
X103653482Y-105834179D01*
X103589241Y-105835179D01*
X103518641Y-105838676D01*
X103475627Y-105842513D01*
X103454119Y-105844432D01*
X103421577Y-105848931D01*
X103396587Y-105852387D01*
X103396576Y-105852389D01*
X103347002Y-105862478D01*
X103346995Y-105862480D01*
X103306238Y-105874654D01*
X103275262Y-105888844D01*
X103275258Y-105888846D01*
X103260889Y-105900285D01*
X103252283Y-105902756D01*
X103248239Y-105901529D01*
X102645155Y-105590398D01*
X102639374Y-105583559D01*
X102640121Y-105574636D01*
X102645155Y-105569602D01*
X103095015Y-105337519D01*
X103248239Y-105258470D01*
X103257161Y-105257724D01*
X103260889Y-105259715D01*
G37*
%TD.AperFunction*%
%TD*%
%TA.AperFunction,Conductor*%
%TO.N,MOTOR3*%
G36*
X133771757Y-132468469D02*
G01*
X133924985Y-132547519D01*
X134374844Y-132779602D01*
X134380625Y-132786441D01*
X134379878Y-132795364D01*
X134374844Y-132800398D01*
X133771761Y-133111528D01*
X133762838Y-133112275D01*
X133759110Y-133110284D01*
X133744742Y-133098846D01*
X133713760Y-133084654D01*
X133673003Y-133072480D01*
X133672996Y-133072478D01*
X133623422Y-133062389D01*
X133623411Y-133062387D01*
X133623404Y-133062386D01*
X133565880Y-133054432D01*
X133522864Y-133050594D01*
X133501357Y-133048676D01*
X133430757Y-133045179D01*
X133366518Y-133044179D01*
X133358299Y-133040623D01*
X133355000Y-133032480D01*
X133355000Y-132547519D01*
X133358427Y-132539246D01*
X133366516Y-132535820D01*
X133430755Y-132534820D01*
X133501356Y-132531323D01*
X133565880Y-132525567D01*
X133623404Y-132517613D01*
X133673003Y-132507519D01*
X133713757Y-132495346D01*
X133744741Y-132481153D01*
X133759110Y-132469714D01*
X133767716Y-132467243D01*
X133771757Y-132468469D01*
G37*
%TD.AperFunction*%
%TD*%
%TA.AperFunction,Conductor*%
%TO.N,CLOCK_TOP*%
G36*
X126223617Y-122085482D02*
G01*
X126291284Y-122146857D01*
X126291294Y-122146865D01*
X126365278Y-122200932D01*
X126365280Y-122200933D01*
X126436970Y-122241755D01*
X126436978Y-122241758D01*
X126436981Y-122241760D01*
X126506066Y-122270912D01*
X126506069Y-122270913D01*
X126506072Y-122270914D01*
X126572182Y-122289944D01*
X126572190Y-122289945D01*
X126572196Y-122289947D01*
X126635032Y-122300428D01*
X126694236Y-122303914D01*
X126740613Y-122302279D01*
X126749002Y-122305413D01*
X126752170Y-122310413D01*
X127022910Y-123158206D01*
X127022163Y-123167129D01*
X127015324Y-123172910D01*
X127008206Y-123172910D01*
X126160413Y-122902170D01*
X126153574Y-122896389D01*
X126152279Y-122890613D01*
X126153914Y-122844236D01*
X126150428Y-122785032D01*
X126139947Y-122722196D01*
X126139945Y-122722190D01*
X126139944Y-122722182D01*
X126120914Y-122656072D01*
X126120913Y-122656069D01*
X126120912Y-122656066D01*
X126091760Y-122586981D01*
X126091758Y-122586978D01*
X126091755Y-122586970D01*
X126050933Y-122515280D01*
X126050932Y-122515278D01*
X125996865Y-122441294D01*
X125996857Y-122441284D01*
X125935482Y-122373617D01*
X125932462Y-122365187D01*
X125935874Y-122357485D01*
X126207485Y-122085874D01*
X126215757Y-122082448D01*
X126223617Y-122085482D01*
G37*
%TD.AperFunction*%
%TD*%
%TA.AperFunction,Conductor*%
%TO.N,+5V_TOP*%
G36*
X123590547Y-116916227D02*
G01*
X123593971Y-116924222D01*
X123595771Y-117000024D01*
X123601800Y-117080165D01*
X123611506Y-117152718D01*
X123611507Y-117152723D01*
X123624602Y-117217105D01*
X123640815Y-117272855D01*
X123659857Y-117319407D01*
X123659858Y-117319408D01*
X123659859Y-117319410D01*
X123681455Y-117356254D01*
X123681457Y-117356256D01*
X123699933Y-117376849D01*
X123702907Y-117385295D01*
X123701622Y-117390026D01*
X123350082Y-118071404D01*
X123343243Y-118077186D01*
X123334320Y-118076438D01*
X123329286Y-118071404D01*
X122977771Y-117390011D01*
X122977025Y-117381089D01*
X122979461Y-117376835D01*
X122997939Y-117356240D01*
X123019536Y-117319399D01*
X123038581Y-117272843D01*
X123054794Y-117217100D01*
X123067894Y-117152697D01*
X123077598Y-117080161D01*
X123083627Y-117000020D01*
X123085428Y-116924220D01*
X123089051Y-116916033D01*
X123097125Y-116912800D01*
X123582274Y-116912800D01*
X123590547Y-116916227D01*
G37*
%TD.AperFunction*%
%TD*%
%TA.AperFunction,Conductor*%
%TO.N,LATCH_A*%
G36*
X114005364Y-128040121D02*
G01*
X114010398Y-128045155D01*
X114418612Y-128836421D01*
X114419359Y-128845344D01*
X114416548Y-128849997D01*
X114389176Y-128877775D01*
X114389174Y-128877778D01*
X114357845Y-128920985D01*
X114357836Y-128921000D01*
X114329268Y-128973620D01*
X114329257Y-128973644D01*
X114304182Y-129035759D01*
X114283361Y-129107411D01*
X114283360Y-129107414D01*
X114267549Y-129188659D01*
X114257514Y-129279485D01*
X114257514Y-129279487D01*
X114254395Y-129368709D01*
X114250681Y-129376857D01*
X114242702Y-129380000D01*
X113757298Y-129380000D01*
X113749025Y-129376573D01*
X113745605Y-129368709D01*
X113742485Y-129279490D01*
X113732447Y-129188644D01*
X113716639Y-129107416D01*
X113695817Y-129035761D01*
X113670737Y-128973633D01*
X113642154Y-128920986D01*
X113610823Y-128877776D01*
X113583450Y-128849996D01*
X113580085Y-128841699D01*
X113581386Y-128836424D01*
X113989602Y-128045154D01*
X113996441Y-128039374D01*
X114005364Y-128040121D01*
G37*
%TD.AperFunction*%
%TD*%
%TA.AperFunction,Conductor*%
%TO.N,DATA_OUT_CHAIN*%
G36*
X111313576Y-113171386D02*
G01*
X111606386Y-113322447D01*
X112104844Y-113579602D01*
X112110625Y-113586441D01*
X112109878Y-113595364D01*
X112104844Y-113600398D01*
X111313578Y-114008612D01*
X111304655Y-114009359D01*
X111300002Y-114006548D01*
X111272223Y-113979176D01*
X111272220Y-113979174D01*
X111229013Y-113947845D01*
X111228998Y-113947836D01*
X111176378Y-113919268D01*
X111176371Y-113919265D01*
X111176366Y-113919262D01*
X111176354Y-113919257D01*
X111114239Y-113894182D01*
X111042587Y-113873361D01*
X111042584Y-113873360D01*
X110991317Y-113863383D01*
X110961355Y-113857552D01*
X110961353Y-113857551D01*
X110961339Y-113857549D01*
X110870512Y-113847514D01*
X110781291Y-113844394D01*
X110773143Y-113840680D01*
X110770000Y-113832701D01*
X110770000Y-113347298D01*
X110773427Y-113339025D01*
X110781290Y-113335605D01*
X110870509Y-113332485D01*
X110934659Y-113325396D01*
X110961339Y-113322449D01*
X110961341Y-113322448D01*
X110961355Y-113322447D01*
X111042583Y-113306639D01*
X111114238Y-113285817D01*
X111176366Y-113260737D01*
X111229013Y-113232154D01*
X111272223Y-113200823D01*
X111300004Y-113173450D01*
X111308300Y-113170085D01*
X111313576Y-113171386D01*
G37*
%TD.AperFunction*%
%TD*%
%TA.AperFunction,Conductor*%
%TO.N,RESET_ISP*%
G36*
X131579708Y-142825574D02*
G01*
X132261094Y-143177102D01*
X132266875Y-143183941D01*
X132266128Y-143192864D01*
X132261094Y-143197898D01*
X131579709Y-143549425D01*
X131570786Y-143550172D01*
X131566532Y-143547736D01*
X131545939Y-143529260D01*
X131545937Y-143529258D01*
X131509095Y-143507662D01*
X131462545Y-143488618D01*
X131406809Y-143472408D01*
X131406795Y-143472404D01*
X131342414Y-143459308D01*
X131342409Y-143459307D01*
X131342396Y-143459305D01*
X131342395Y-143459305D01*
X131269860Y-143449601D01*
X131243146Y-143447591D01*
X131189721Y-143443572D01*
X131113922Y-143441771D01*
X131105733Y-143438148D01*
X131102500Y-143430074D01*
X131102500Y-142944925D01*
X131105927Y-142936652D01*
X131113920Y-142933228D01*
X131189719Y-142931427D01*
X131269860Y-142925398D01*
X131342395Y-142915694D01*
X131406797Y-142902594D01*
X131462540Y-142886382D01*
X131509095Y-142867337D01*
X131545937Y-142845741D01*
X131566532Y-142827263D01*
X131574977Y-142824289D01*
X131579708Y-142825574D01*
G37*
%TD.AperFunction*%
%TD*%
%TA.AperFunction,Conductor*%
%TO.N,CLOCK_A*%
G36*
X127299995Y-130033450D02*
G01*
X127327776Y-130060823D01*
X127370986Y-130092154D01*
X127370993Y-130092157D01*
X127371000Y-130092162D01*
X127423620Y-130120730D01*
X127423633Y-130120737D01*
X127485761Y-130145817D01*
X127557416Y-130166639D01*
X127638644Y-130182447D01*
X127638654Y-130182448D01*
X127638659Y-130182449D01*
X127673208Y-130186266D01*
X127729490Y-130192485D01*
X127818709Y-130195605D01*
X127826857Y-130199319D01*
X127830000Y-130207298D01*
X127830000Y-130692701D01*
X127826573Y-130700974D01*
X127818709Y-130704394D01*
X127729487Y-130707514D01*
X127729485Y-130707514D01*
X127638659Y-130717549D01*
X127557414Y-130733360D01*
X127557411Y-130733361D01*
X127485759Y-130754182D01*
X127423644Y-130779257D01*
X127423620Y-130779268D01*
X127371000Y-130807836D01*
X127370985Y-130807845D01*
X127327778Y-130839174D01*
X127327775Y-130839176D01*
X127299997Y-130866548D01*
X127291699Y-130869914D01*
X127286421Y-130868612D01*
X126495155Y-130460398D01*
X126489374Y-130453559D01*
X126490121Y-130444636D01*
X126495155Y-130439602D01*
X127286422Y-130031386D01*
X127295344Y-130030640D01*
X127299995Y-130033450D01*
G37*
%TD.AperFunction*%
%TD*%
%TA.AperFunction,Conductor*%
%TO.N,RESET*%
G36*
X132433235Y-140450854D02*
G01*
X132479340Y-140482631D01*
X132553955Y-140502827D01*
X132647759Y-140514781D01*
X132756999Y-140525795D01*
X132757430Y-140525848D01*
X132878213Y-140543176D01*
X132879255Y-140543374D01*
X133008064Y-140574229D01*
X133009554Y-140574693D01*
X133143005Y-140626266D01*
X133144734Y-140627103D01*
X133269435Y-140700692D01*
X133274819Y-140707847D01*
X133273565Y-140716713D01*
X133273010Y-140717567D01*
X132991197Y-141112115D01*
X132983600Y-141116856D01*
X132976060Y-141115579D01*
X132969729Y-141112115D01*
X132898410Y-141073091D01*
X132811058Y-141049976D01*
X132808638Y-141049887D01*
X132725848Y-141046845D01*
X132725836Y-141046846D01*
X132645500Y-141059333D01*
X132645496Y-141059334D01*
X132572750Y-141083074D01*
X132572747Y-141083075D01*
X132542683Y-141097826D01*
X132510338Y-141113698D01*
X132510335Y-141113699D01*
X132510335Y-141113700D01*
X132460994Y-141146839D01*
X132433485Y-141172504D01*
X132425098Y-141175642D01*
X132420140Y-141174347D01*
X131738905Y-140822898D01*
X131733124Y-140816059D01*
X131733871Y-140807136D01*
X131738905Y-140802102D01*
X131921605Y-140707847D01*
X132421232Y-140450088D01*
X132430154Y-140449342D01*
X132433235Y-140450854D01*
G37*
%TD.AperFunction*%
%TD*%
%TA.AperFunction,Conductor*%
%TO.N,LATCH_CONN*%
G36*
X105815745Y-121193651D02*
G01*
X105870605Y-121245966D01*
X105870625Y-121245985D01*
X105931526Y-121298364D01*
X105931549Y-121298383D01*
X105988692Y-121342039D01*
X105989699Y-121342808D01*
X106044500Y-121379084D01*
X106095374Y-121407033D01*
X106095375Y-121407033D01*
X106095380Y-121407036D01*
X106141767Y-121426489D01*
X106183088Y-121437269D01*
X106210716Y-121438766D01*
X106218792Y-121442636D01*
X106221228Y-121446890D01*
X106454474Y-122177270D01*
X106453727Y-122186193D01*
X106446888Y-122191974D01*
X106439770Y-122191974D01*
X105709390Y-121958728D01*
X105702551Y-121952947D01*
X105701266Y-121948216D01*
X105699769Y-121920588D01*
X105688989Y-121879267D01*
X105669536Y-121832880D01*
X105641584Y-121782000D01*
X105605308Y-121727199D01*
X105604539Y-121726192D01*
X105560883Y-121669049D01*
X105560864Y-121669026D01*
X105508485Y-121608125D01*
X105508466Y-121608105D01*
X105456151Y-121553245D01*
X105452921Y-121544893D01*
X105456344Y-121536899D01*
X105799399Y-121193844D01*
X105807671Y-121190418D01*
X105815745Y-121193651D01*
G37*
%TD.AperFunction*%
%TD*%
%TA.AperFunction,Conductor*%
%TO.N,MOTOR4*%
G36*
X137081757Y-135008469D02*
G01*
X137234985Y-135087519D01*
X137684844Y-135319602D01*
X137690625Y-135326441D01*
X137689878Y-135335364D01*
X137684844Y-135340398D01*
X137081761Y-135651528D01*
X137072838Y-135652275D01*
X137069110Y-135650284D01*
X137054742Y-135638846D01*
X137023760Y-135624654D01*
X136983003Y-135612480D01*
X136982996Y-135612478D01*
X136933422Y-135602389D01*
X136933411Y-135602387D01*
X136933404Y-135602386D01*
X136875880Y-135594432D01*
X136832864Y-135590594D01*
X136811357Y-135588676D01*
X136740757Y-135585179D01*
X136676518Y-135584179D01*
X136668299Y-135580623D01*
X136665000Y-135572480D01*
X136665000Y-135087519D01*
X136668427Y-135079246D01*
X136676516Y-135075820D01*
X136740755Y-135074820D01*
X136811356Y-135071323D01*
X136875880Y-135065567D01*
X136933404Y-135057613D01*
X136983003Y-135047519D01*
X137023757Y-135035346D01*
X137054741Y-135021153D01*
X137069110Y-135009714D01*
X137077716Y-135007243D01*
X137081757Y-135008469D01*
G37*
%TD.AperFunction*%
%TD*%
%TA.AperFunction,Conductor*%
%TO.N,CLOCK_A*%
G36*
X127299995Y-125633450D02*
G01*
X127327776Y-125660823D01*
X127370986Y-125692154D01*
X127370993Y-125692157D01*
X127371000Y-125692162D01*
X127423620Y-125720730D01*
X127423633Y-125720737D01*
X127485761Y-125745817D01*
X127557416Y-125766639D01*
X127638644Y-125782447D01*
X127638654Y-125782448D01*
X127638659Y-125782449D01*
X127673208Y-125786266D01*
X127729490Y-125792485D01*
X127818709Y-125795605D01*
X127826857Y-125799319D01*
X127830000Y-125807298D01*
X127830000Y-126292701D01*
X127826573Y-126300974D01*
X127818709Y-126304394D01*
X127729487Y-126307514D01*
X127729485Y-126307514D01*
X127638659Y-126317549D01*
X127557414Y-126333360D01*
X127557411Y-126333361D01*
X127485759Y-126354182D01*
X127423644Y-126379257D01*
X127423620Y-126379268D01*
X127371000Y-126407836D01*
X127370985Y-126407845D01*
X127327778Y-126439174D01*
X127327775Y-126439176D01*
X127299997Y-126466548D01*
X127291699Y-126469914D01*
X127286421Y-126468612D01*
X126495155Y-126060398D01*
X126489374Y-126053559D01*
X126490121Y-126044636D01*
X126495155Y-126039602D01*
X127286422Y-125631386D01*
X127295344Y-125630640D01*
X127299995Y-125633450D01*
G37*
%TD.AperFunction*%
%TD*%
%TA.AperFunction,Conductor*%
%TO.N,LATCH_TOP*%
G36*
X113513576Y-124831386D02*
G01*
X113806386Y-124982447D01*
X114304844Y-125239602D01*
X114310625Y-125246441D01*
X114309878Y-125255364D01*
X114304844Y-125260398D01*
X113513578Y-125668612D01*
X113504655Y-125669359D01*
X113500002Y-125666548D01*
X113472223Y-125639176D01*
X113472220Y-125639174D01*
X113429013Y-125607845D01*
X113428998Y-125607836D01*
X113376378Y-125579268D01*
X113376371Y-125579265D01*
X113376366Y-125579262D01*
X113376354Y-125579257D01*
X113314239Y-125554182D01*
X113242587Y-125533361D01*
X113242584Y-125533360D01*
X113191317Y-125523383D01*
X113161355Y-125517552D01*
X113161353Y-125517551D01*
X113161339Y-125517549D01*
X113070512Y-125507514D01*
X112981291Y-125504394D01*
X112973143Y-125500680D01*
X112970000Y-125492701D01*
X112970000Y-125007298D01*
X112973427Y-124999025D01*
X112981290Y-124995605D01*
X113070509Y-124992485D01*
X113134659Y-124985396D01*
X113161339Y-124982449D01*
X113161341Y-124982448D01*
X113161355Y-124982447D01*
X113242583Y-124966639D01*
X113314238Y-124945817D01*
X113376366Y-124920737D01*
X113429013Y-124892154D01*
X113472223Y-124860823D01*
X113500004Y-124833450D01*
X113508300Y-124830085D01*
X113513576Y-124831386D01*
G37*
%TD.AperFunction*%
%TD*%
%TA.AperFunction,Conductor*%
%TO.N,RESET*%
G36*
X111049995Y-127983450D02*
G01*
X111077776Y-128010823D01*
X111120986Y-128042154D01*
X111120993Y-128042157D01*
X111121000Y-128042162D01*
X111173620Y-128070730D01*
X111173633Y-128070737D01*
X111235761Y-128095817D01*
X111307416Y-128116639D01*
X111388644Y-128132447D01*
X111388654Y-128132448D01*
X111388659Y-128132449D01*
X111423208Y-128136266D01*
X111479490Y-128142485D01*
X111568709Y-128145605D01*
X111576857Y-128149319D01*
X111580000Y-128157298D01*
X111580000Y-128642701D01*
X111576573Y-128650974D01*
X111568709Y-128654394D01*
X111479487Y-128657514D01*
X111479485Y-128657514D01*
X111388659Y-128667549D01*
X111307414Y-128683360D01*
X111307411Y-128683361D01*
X111235759Y-128704182D01*
X111173644Y-128729257D01*
X111173620Y-128729268D01*
X111121000Y-128757836D01*
X111120985Y-128757845D01*
X111077778Y-128789174D01*
X111077775Y-128789176D01*
X111049997Y-128816548D01*
X111041699Y-128819914D01*
X111036421Y-128818612D01*
X110245155Y-128410398D01*
X110239374Y-128403559D01*
X110240121Y-128394636D01*
X110245155Y-128389602D01*
X111036422Y-127981386D01*
X111045344Y-127980640D01*
X111049995Y-127983450D01*
G37*
%TD.AperFunction*%
%TD*%
%TA.AperFunction,Conductor*%
%TO.N,DATA_CHAIN_IN*%
G36*
X104459546Y-125949778D02*
G01*
X104524841Y-126010661D01*
X104596177Y-126067800D01*
X104664792Y-126114059D01*
X104730183Y-126150004D01*
X104730196Y-126150009D01*
X104730197Y-126150010D01*
X104791844Y-126176200D01*
X104791843Y-126176200D01*
X104838491Y-126190018D01*
X104849287Y-126193216D01*
X104883801Y-126198716D01*
X104901987Y-126201615D01*
X104901988Y-126201615D01*
X104901995Y-126201616D01*
X104940994Y-126201904D01*
X104949241Y-126205392D01*
X104952052Y-126210045D01*
X105222910Y-127058206D01*
X105222163Y-127067129D01*
X105215324Y-127072910D01*
X105208206Y-127072910D01*
X104360045Y-126802052D01*
X104353206Y-126796271D01*
X104351904Y-126790994D01*
X104351616Y-126751995D01*
X104343216Y-126699287D01*
X104326201Y-126641848D01*
X104326200Y-126641844D01*
X104300010Y-126580197D01*
X104300009Y-126580196D01*
X104300004Y-126580183D01*
X104264059Y-126514792D01*
X104217800Y-126446177D01*
X104160661Y-126374841D01*
X104099778Y-126309546D01*
X104096643Y-126301160D01*
X104100062Y-126293297D01*
X104443297Y-125950062D01*
X104451569Y-125946636D01*
X104459546Y-125949778D01*
G37*
%TD.AperFunction*%
%TD*%
%TA.AperFunction,Conductor*%
%TO.N,+5V*%
G36*
X116050975Y-118803427D02*
G01*
X116054395Y-118811291D01*
X116057514Y-118900511D01*
X116057514Y-118900513D01*
X116067549Y-118991339D01*
X116083360Y-119072584D01*
X116083361Y-119072587D01*
X116104182Y-119144239D01*
X116129257Y-119206354D01*
X116129268Y-119206378D01*
X116157836Y-119258998D01*
X116157845Y-119259013D01*
X116189174Y-119302220D01*
X116189176Y-119302223D01*
X116216548Y-119330002D01*
X116219914Y-119338300D01*
X116218612Y-119343578D01*
X115810398Y-120134844D01*
X115803559Y-120140625D01*
X115794636Y-120139878D01*
X115789602Y-120134844D01*
X115381387Y-119343578D01*
X115380640Y-119334655D01*
X115383449Y-119330005D01*
X115410823Y-119302223D01*
X115442154Y-119259013D01*
X115470737Y-119206366D01*
X115495817Y-119144238D01*
X115516639Y-119072583D01*
X115532447Y-118991355D01*
X115542485Y-118900509D01*
X115545605Y-118811290D01*
X115549319Y-118803143D01*
X115557298Y-118800000D01*
X116042702Y-118800000D01*
X116050975Y-118803427D01*
G37*
%TD.AperFunction*%
%TD*%
%TA.AperFunction,Conductor*%
%TO.N,+5V_TOP*%
G36*
X129620967Y-139099763D02*
G01*
X129641562Y-139118241D01*
X129678404Y-139139837D01*
X129704714Y-139150600D01*
X129724953Y-139158880D01*
X129724956Y-139158881D01*
X129724959Y-139158882D01*
X129780702Y-139175094D01*
X129845104Y-139188194D01*
X129917639Y-139197898D01*
X129997780Y-139203927D01*
X130073579Y-139205728D01*
X130081767Y-139209351D01*
X130085000Y-139217425D01*
X130085000Y-139702574D01*
X130081573Y-139710847D01*
X130073578Y-139714271D01*
X129997777Y-139716072D01*
X129917639Y-139722101D01*
X129845089Y-139731807D01*
X129845084Y-139731808D01*
X129780703Y-139744904D01*
X129780689Y-139744908D01*
X129724953Y-139761118D01*
X129678403Y-139780162D01*
X129641563Y-139801757D01*
X129641559Y-139801760D01*
X129620967Y-139820236D01*
X129612521Y-139823210D01*
X129607790Y-139821925D01*
X128926405Y-139470398D01*
X128920624Y-139463559D01*
X128921371Y-139454636D01*
X128926405Y-139449602D01*
X129607792Y-139098073D01*
X129616713Y-139097327D01*
X129620967Y-139099763D01*
G37*
%TD.AperFunction*%
%TD*%
%TA.AperFunction,Conductor*%
%TO.N,ISP_VCC*%
G36*
X117424096Y-139305869D02*
G01*
X117429877Y-139312708D01*
X117429877Y-139319826D01*
X117223436Y-139966274D01*
X117217655Y-139973113D01*
X117213611Y-139974340D01*
X117195363Y-139976412D01*
X117195358Y-139976413D01*
X117163418Y-139988285D01*
X117163407Y-139988290D01*
X117126000Y-140008489D01*
X117083798Y-140036418D01*
X117037480Y-140071481D01*
X116987781Y-140113038D01*
X116935387Y-140160488D01*
X116889260Y-140205201D01*
X116880935Y-140208499D01*
X116872844Y-140205073D01*
X116529925Y-139862153D01*
X116526498Y-139853880D01*
X116529797Y-139845737D01*
X116574513Y-139799607D01*
X116621963Y-139747211D01*
X116663518Y-139697516D01*
X116698569Y-139651216D01*
X116726504Y-139609006D01*
X116746713Y-139571582D01*
X116758586Y-139539637D01*
X116760658Y-139521386D01*
X116764996Y-139513554D01*
X116768718Y-139511565D01*
X117415175Y-139305122D01*
X117424096Y-139305869D01*
G37*
%TD.AperFunction*%
%TD*%
%TA.AperFunction,Conductor*%
%TO.N,CLOCK_ISP*%
G36*
X119805364Y-144290121D02*
G01*
X119810398Y-144295155D01*
X120121529Y-144898239D01*
X120122276Y-144907162D01*
X120120285Y-144910888D01*
X120120286Y-144910889D01*
X120120285Y-144910890D01*
X120108847Y-144925257D01*
X120108844Y-144925262D01*
X120094654Y-144956238D01*
X120082480Y-144996995D01*
X120082478Y-144997002D01*
X120072389Y-145046576D01*
X120072387Y-145046587D01*
X120064432Y-145104120D01*
X120058676Y-145168641D01*
X120055179Y-145239241D01*
X120054179Y-145303482D01*
X120050623Y-145311701D01*
X120042480Y-145315000D01*
X119557519Y-145315000D01*
X119549246Y-145311573D01*
X119545820Y-145303483D01*
X119544820Y-145239244D01*
X119541323Y-145168643D01*
X119535567Y-145104119D01*
X119527613Y-145046595D01*
X119517519Y-144996996D01*
X119505346Y-144956242D01*
X119491153Y-144925258D01*
X119491152Y-144925257D01*
X119491152Y-144925256D01*
X119479715Y-144910889D01*
X119477244Y-144902282D01*
X119478471Y-144898238D01*
X119789602Y-144295155D01*
X119796441Y-144289374D01*
X119805364Y-144290121D01*
G37*
%TD.AperFunction*%
%TD*%
%TA.AperFunction,Conductor*%
%TO.N,DATA_TOP*%
G36*
X112913576Y-134991386D02*
G01*
X113206386Y-135142447D01*
X113704844Y-135399602D01*
X113710625Y-135406441D01*
X113709878Y-135415364D01*
X113704844Y-135420398D01*
X112913578Y-135828612D01*
X112904655Y-135829359D01*
X112900002Y-135826548D01*
X112872223Y-135799176D01*
X112872220Y-135799174D01*
X112829013Y-135767845D01*
X112828998Y-135767836D01*
X112776378Y-135739268D01*
X112776371Y-135739265D01*
X112776366Y-135739262D01*
X112776354Y-135739257D01*
X112714239Y-135714182D01*
X112642587Y-135693361D01*
X112642584Y-135693360D01*
X112591317Y-135683383D01*
X112561355Y-135677552D01*
X112561353Y-135677551D01*
X112561339Y-135677549D01*
X112470512Y-135667514D01*
X112381291Y-135664394D01*
X112373143Y-135660680D01*
X112370000Y-135652701D01*
X112370000Y-135167298D01*
X112373427Y-135159025D01*
X112381290Y-135155605D01*
X112470509Y-135152485D01*
X112534659Y-135145396D01*
X112561339Y-135142449D01*
X112561341Y-135142448D01*
X112561355Y-135142447D01*
X112642583Y-135126639D01*
X112714238Y-135105817D01*
X112776366Y-135080737D01*
X112829013Y-135052154D01*
X112872223Y-135020823D01*
X112900004Y-134993450D01*
X112908300Y-134990085D01*
X112913576Y-134991386D01*
G37*
%TD.AperFunction*%
%TD*%
%TA.AperFunction,Conductor*%
%TO.N,ISP_VCC*%
G36*
X127212627Y-139452416D02*
G01*
X127365609Y-139501271D01*
X127372448Y-139507052D01*
X127373733Y-139511783D01*
X127375230Y-139539412D01*
X127375230Y-139539413D01*
X127386009Y-139580730D01*
X127405464Y-139627121D01*
X127405465Y-139627124D01*
X127433413Y-139677997D01*
X127433414Y-139677998D01*
X127469691Y-139732800D01*
X127469700Y-139732812D01*
X127469703Y-139732816D01*
X127514115Y-139790947D01*
X127514118Y-139790951D01*
X127566531Y-139851893D01*
X127618847Y-139906753D01*
X127622077Y-139915105D01*
X127618653Y-139923100D01*
X127275600Y-140266153D01*
X127267327Y-140269580D01*
X127259253Y-140266347D01*
X127204393Y-140214031D01*
X127143451Y-140161618D01*
X127143447Y-140161615D01*
X127085316Y-140117203D01*
X127085312Y-140117200D01*
X127085300Y-140117191D01*
X127030498Y-140080914D01*
X127030497Y-140080913D01*
X126979624Y-140052965D01*
X126979621Y-140052964D01*
X126933230Y-140033509D01*
X126891913Y-140022730D01*
X126864283Y-140021233D01*
X126856207Y-140017363D01*
X126853771Y-140013109D01*
X126746754Y-139677998D01*
X126620525Y-139282727D01*
X126621272Y-139273806D01*
X126628111Y-139268025D01*
X126635227Y-139268025D01*
X127212627Y-139452416D01*
G37*
%TD.AperFunction*%
%TD*%
%TA.AperFunction,Conductor*%
%TO.N,+5V_CHAIN*%
G36*
X113667129Y-104277836D02*
G01*
X113672910Y-104284675D01*
X113672910Y-104291793D01*
X113402052Y-105139954D01*
X113396271Y-105146793D01*
X113390994Y-105148095D01*
X113351986Y-105148383D01*
X113299284Y-105156783D01*
X113299283Y-105156783D01*
X113241844Y-105173798D01*
X113180197Y-105199988D01*
X113180177Y-105199998D01*
X113114801Y-105235934D01*
X113114792Y-105235939D01*
X113114783Y-105235944D01*
X113114770Y-105235953D01*
X113046187Y-105282190D01*
X113046176Y-105282198D01*
X112974844Y-105339333D01*
X112974834Y-105339342D01*
X112909548Y-105400219D01*
X112901160Y-105403355D01*
X112893296Y-105399935D01*
X112550063Y-105056702D01*
X112546636Y-105048429D01*
X112549777Y-105040453D01*
X112610661Y-104975158D01*
X112667800Y-104903821D01*
X112714059Y-104835207D01*
X112750004Y-104769816D01*
X112776200Y-104708150D01*
X112793216Y-104650712D01*
X112801616Y-104598004D01*
X112801904Y-104559004D01*
X112805392Y-104550758D01*
X112810043Y-104547947D01*
X113658208Y-104277089D01*
X113667129Y-104277836D01*
G37*
%TD.AperFunction*%
%TD*%
%TA.AperFunction,Conductor*%
%TO.N,+5V*%
G36*
X107650330Y-127373427D02*
G01*
X107653743Y-127381130D01*
X107658191Y-127472380D01*
X107672274Y-127562925D01*
X107672276Y-127562932D01*
X107694107Y-127642505D01*
X107722345Y-127711970D01*
X107755645Y-127772190D01*
X107792666Y-127824033D01*
X107832065Y-127868362D01*
X107832068Y-127868365D01*
X107832071Y-127868368D01*
X107866013Y-127899999D01*
X107869729Y-127908146D01*
X107868434Y-127913922D01*
X107460398Y-128704844D01*
X107453559Y-128710625D01*
X107444636Y-128709878D01*
X107439602Y-128704844D01*
X107031564Y-127913921D01*
X107030817Y-127904998D01*
X107033983Y-127900000D01*
X107067934Y-127868362D01*
X107107333Y-127824033D01*
X107144354Y-127772190D01*
X107177654Y-127711970D01*
X107205892Y-127642505D01*
X107227723Y-127562932D01*
X107241807Y-127472385D01*
X107246257Y-127381129D01*
X107250083Y-127373034D01*
X107257943Y-127370000D01*
X107642057Y-127370000D01*
X107650330Y-127373427D01*
G37*
%TD.AperFunction*%
%TD*%
M02*
