<?xml version="1.0" encoding="UTF-8" standalone="no"?>
<!-- Created with Inkscape (http://www.inkscape.org/) -->

<svg
   xmlns:dc="http://purl.org/dc/elements/1.1/"
   xmlns:cc="http://creativecommons.org/ns#"
   xmlns:rdf="http://www.w3.org/1999/02/22-rdf-syntax-ns#"
   xmlns:svg="http://www.w3.org/2000/svg"
   xmlns="http://www.w3.org/2000/svg"
   xmlns:sodipodi="http://sodipodi.sourceforge.net/DTD/sodipodi-0.dtd"
   xmlns:inkscape="http://www.inkscape.org/namespaces/inkscape"
   width="744.09448819"
   height="1052.3622047"
   id="svg2"
   version="1.1"
   inkscape:version="0.48.4 r9939"
   sodipodi:docname="motor.svg">
  <defs
     id="defs4" />
  <sodipodi:namedview
     id="base"
     pagecolor="#ffffff"
     bordercolor="#666666"
     borderopacity="1.0"
     inkscape:pageopacity="0.0"
     inkscape:pageshadow="2"
     inkscape:zoom="0.56085362"
     inkscape:cx="197.2111"
     inkscape:cy="718.16757"
     inkscape:document-units="px"
     inkscape:current-layer="layer1"
     showgrid="false"
     inkscape:window-width="1120"
     inkscape:window-height="655"
     inkscape:window-x="20"
     inkscape:window-y="20"
     inkscape:window-maximized="0" />
  <metadata
     id="metadata7">
    <rdf:RDF>
      <cc:Work
         rdf:about="">
        <dc:format>image/svg+xml</dc:format>
        <dc:type
           rdf:resource="http://purl.org/dc/dcmitype/StillImage" />
        <dc:title></dc:title>
      </cc:Work>
    </rdf:RDF>
  </metadata>
  <g
     inkscape:label="Layer 1"
     inkscape:groupmode="layer"
     id="layer1">
    <path
       style="fill:#000000"
       d="m 30.422488,526.45156 c -0.10119,-0.10121 -0.11136,-22.74023 -0.11136,-247.98931 0,-225.249081 0.0102,-247.888101 0.11136,-247.989311 0.10116,-0.10118 12.42934,-0.11138 134.569752,-0.11138 122.14041,0 134.46859,0.0102 134.56975,0.11138 0.10119,0.10121 0.11136,22.74023 0.11136,247.989311 0,225.24908 -0.0102,247.8881 -0.11136,247.98931 -0.10116,0.10117 -12.42934,0.11138 -134.56975,0.11138 -122.140412,0 -134.468592,-0.0102 -134.569752,-0.11138 z m 72.136682,-12.54909 c 1.37729,-0.33296 2.73186,-1.44154 3.36636,-2.75502 0.39749,-0.82282 0.51,-1.33878 0.51,-2.3389 0,-1.56399 -0.44179,-2.64814 -1.51848,-3.72632 -1.16252,-1.16414 -2.57868,-1.64446 -4.35661,-1.47763 -2.336632,0.21924 -4.331762,2.21465 -4.550982,4.55159 -0.16736,1.78411 0.31238,3.19256 1.48789,4.36822 1.12152,1.12168 2.44293,1.60829 4.105122,1.51173 0.29233,-0.017 0.72284,-0.0771 0.9567,-0.13367 z m 127.55906,-0.005 c 1.39483,-0.34513 2.72905,-1.43472 3.36796,-2.75045 0.41046,-0.84527 0.50227,-1.2728 0.50227,-2.3389 0,-1.0661 -0.0918,-1.49363 -0.50227,-2.3389 -0.32062,-0.66026 -0.84407,-1.29916 -1.48099,-1.80762 -1.08023,-0.86235 -2.33159,-1.20285 -3.8857,-1.05731 -2.33092,0.21827 -4.33226,2.21983 -4.55098,4.55147 -0.16692,1.77951 0.31521,3.19427 1.48845,4.36767 1.1194,1.11955 2.45285,1.6105 4.10456,1.5112 0.29233,-0.0176 0.72284,-0.0793 0.9567,-0.13716 z m 48.22441,-214.17295 0,-180.69781 -113.3504,0 -113.350402,0 0,180.69781 0,180.69782 113.350402,0 113.3504,0 0,-180.69782 z M 102.55917,53.205289 c 1.76711,-0.43724 3.28444,-1.96313 3.75693,-3.77814 0.15851,-0.60891 0.15828,-2.06165 -7.1e-4,-2.65784 -0.47796,-1.79546 -1.99368,-3.29795 -3.79194,-3.75884 -0.62259,-0.15956 -1.99946,-0.15956 -2.622052,0 -1.79825,0.46089 -3.31398,1.96338 -3.79194,3.75884 -0.1587,0.59619 -0.15894,2.04893 -7.1e-4,2.65784 0.35876,1.37809 1.44121,2.74966 2.6559,3.36528 1.10797,0.56152 2.556202,0.71912 3.793952,0.41286 z m 127.55906,0 c 1.76711,-0.43724 3.28444,-1.96313 3.75693,-3.77814 0.15851,-0.60891 0.15828,-2.06165 -7.1e-4,-2.65784 -0.47796,-1.79546 -1.99368,-3.29795 -3.79194,-3.75884 -0.62259,-0.15956 -1.99946,-0.15956 -2.62205,0 -1.79825,0.46089 -3.31397,1.96338 -3.79194,3.75884 -0.1587,0.59619 -0.15894,2.04893 -7.1e-4,2.65784 0.35876,1.37809 1.44122,2.74966 2.6559,3.36528 1.10798,0.56152 2.5562,0.71912 3.79395,0.41286 z"
       id="path3183"
       inkscape:connector-curvature="0" />
  </g>
</svg>
