<?xml version="1.0" encoding="UTF-8" standalone="no"?>
<!-- Created with Inkscape (http://www.inkscape.org/) -->

<svg
   xmlns:dc="http://purl.org/dc/elements/1.1/"
   xmlns:cc="http://creativecommons.org/ns#"
   xmlns:rdf="http://www.w3.org/1999/02/22-rdf-syntax-ns#"
   xmlns:svg="http://www.w3.org/2000/svg"
   xmlns="http://www.w3.org/2000/svg"
   xmlns:sodipodi="http://sodipodi.sourceforge.net/DTD/sodipodi-0.dtd"
   xmlns:inkscape="http://www.inkscape.org/namespaces/inkscape"
   width="744.09448819"
   height="1052.3622047"
   id="svg2"
   version="1.1"
   inkscape:version="0.48.2 r9819"
   sodipodi:docname="frontpanel.svg">
  <defs
     id="defs4" />
  <sodipodi:namedview
     id="base"
     pagecolor="#ffffff"
     bordercolor="#666666"
     borderopacity="1.0"
     inkscape:pageopacity="0.0"
     inkscape:pageshadow="2"
     inkscape:zoom="1.6751616"
     inkscape:cx="310.20252"
     inkscape:cy="890.31489"
     inkscape:document-units="px"
     inkscape:current-layer="layer1"
     showgrid="false"
     inkscape:window-width="1328"
     inkscape:window-height="771"
     inkscape:window-x="0"
     inkscape:window-y="0"
     inkscape:window-maximized="0" />
  <metadata
     id="metadata7">
    <rdf:RDF>
      <cc:Work
         rdf:about="">
        <dc:format>image/svg+xml</dc:format>
        <dc:type
           rdf:resource="http://purl.org/dc/dcmitype/StillImage" />
        <dc:title></dc:title>
      </cc:Work>
    </rdf:RDF>
  </metadata>
  <g
     inkscape:label="Layer 1"
     inkscape:groupmode="layer"
     id="layer1">
    <path
       style="fill:#000000"
       d="m 13.032169,507.18285 c -0.12412,-0.12413 -0.12412,-495.981405 0,-496.105529 0.12412,-0.124118 389.753061,-0.124118 389.877181,0 0.12412,0.124124 0.12412,495.981399 0,496.105529 -0.12412,0.12411 -389.753061,0.12411 -389.877181,0 z m 90.304051,-12.84081 c 1.07047,-0.36832 2.00127,-1.09382 2.65247,-2.06744 1.13743,-1.7006 1.13743,-3.9585 0,-5.6591 -0.64869,-0.96987 -1.57307,-1.69195 -2.65247,-2.07197 -0.52728,-0.18563 -0.64185,-0.19936 -1.66468,-0.19936 -1.02282,0 -1.13739,0.0137 -1.66467,0.19936 -1.079401,0.38002 -2.003781,1.1021 -2.652471,2.07197 -1.1085,1.65733 -1.13623,3.90978 -0.0685,5.56181 0.54858,0.84877 1.48904,1.67413 2.29506,2.01416 0.728071,0.30715 1.243061,0.39214 2.232291,0.36838 0.8218,-0.0197 1.03653,-0.0505 1.52294,-0.21781 z m 212.59843,0 c 0.31143,-0.10715 0.75363,-0.30866 0.98266,-0.44778 0.9009,-0.54727 1.82808,-1.63605 2.17129,-2.54973 0.75965,-2.0223 0.25664,-4.21405 -1.30168,-5.67178 -0.57103,-0.53417 -1.12996,-0.87492 -1.85227,-1.12922 -0.52728,-0.18563 -0.64185,-0.19936 -1.66468,-0.19936 -1.02282,0 -1.13739,0.0137 -1.66467,0.19936 -1.0794,0.38002 -2.00378,1.1021 -2.65247,2.07197 -1.10849,1.65733 -1.13622,3.90978 -0.0685,5.56181 0.54858,0.84877 1.48905,1.67413 2.29506,2.01416 0.72807,0.30715 1.24306,0.39214 2.23229,0.36838 0.8218,-0.0197 1.03653,-0.0505 1.52294,-0.21781 z m 14.17323,-92.12598 c 0.31143,-0.10716 0.75363,-0.30866 0.98266,-0.44779 0.9009,-0.54727 1.82808,-1.63605 2.17129,-2.54973 0.75965,-2.02229 0.25664,-4.21404 -1.30168,-5.67178 -0.57103,-0.53417 -1.12996,-0.87491 -1.85227,-1.12922 -0.52728,-0.18563 -0.64185,-0.19936 -1.66468,-0.19936 -1.02282,0 -1.13739,0.0137 -1.66467,0.19936 -1.0794,0.38002 -2.00378,1.10211 -2.65247,2.07197 -1.1085,1.65734 -1.13623,3.90979 -0.0685,5.56181 0.54858,0.84877 1.48904,1.67413 2.29506,2.01417 0.72807,0.30715 1.24306,0.39214 2.23229,0.36837 0.82179,-0.0197 1.03653,-0.0505 1.52294,-0.2178 z m -72.70799,-51.94214 c 0.78529,-0.25419 1.38681,-0.62667 2.01887,-1.25013 1.11415,-1.09897 1.63207,-2.43506 1.53778,-3.96705 -0.0838,-1.36184 -0.52888,-2.32901 -1.53449,-3.33463 -1.09395,-1.09395 -2.09901,-1.51495 -3.61664,-1.51495 -1.51764,0 -2.5227,0.421 -3.61664,1.51495 -1.00562,1.00562 -1.45068,1.97279 -1.5345,3.33463 -0.0916,1.48766 0.41376,2.83569 1.46257,3.9017 1.09777,1.11578 2.26056,1.57453 3.86573,1.52516 0.67103,-0.0206 0.96997,-0.0649 1.41732,-0.20968 z M 112.90315,246.31054 c 1.07047,-0.36832 2.00127,-1.09382 2.65247,-2.06744 1.13743,-1.7006 1.13743,-3.9585 0,-5.6591 -0.64869,-0.96987 -1.57308,-1.69195 -2.65247,-2.07197 -0.52728,-0.18563 -0.64185,-0.19936 -1.66468,-0.19936 -1.02282,0 -1.13739,0.0137 -1.66467,0.19936 -1.0794,0.38002 -2.00378,1.1021 -2.65247,2.07197 -1.1085,1.65733 -1.13623,3.90978 -0.0685,5.56181 0.54858,0.84877 1.48904,1.67413 2.29506,2.01416 0.72807,0.30715 1.24306,0.39214 2.23229,0.36838 0.82179,-0.0197 1.03653,-0.0505 1.52294,-0.21781 z M 103.33622,33.712109 c 1.07047,-0.36832 2.00127,-1.093818 2.65247,-2.067438 1.13743,-1.700599 1.13743,-3.95851 0,-5.659108 -0.64869,-0.969867 -1.57307,-1.691945 -2.65247,-2.071966 -0.52728,-0.185638 -0.64185,-0.199358 -1.66468,-0.199358 -1.02282,0 -1.13739,0.01372 -1.66467,0.199358 -1.079401,0.380021 -2.003781,1.102099 -2.652471,2.071966 -1.1085,1.657338 -1.13623,3.90979 -0.0685,5.56181 0.54858,0.848773 1.48904,1.67413 2.29506,2.014167 0.728071,0.30715 1.243061,0.392135 2.232291,0.368376 0.8218,-0.01974 1.03653,-0.05045 1.52294,-0.217807 z m 212.59843,0 c 0.31143,-0.107157 0.75363,-0.30866 0.98266,-0.447786 0.9009,-0.54727 1.82808,-1.636044 2.17129,-2.549734 0.75965,-2.022293 0.25664,-4.214039 -1.30168,-5.671774 -0.57103,-0.534167 -1.12996,-0.874917 -1.85227,-1.129218 -0.52728,-0.185638 -0.64185,-0.199358 -1.66468,-0.199358 -1.02282,0 -1.13739,0.01372 -1.66467,0.199358 -1.0794,0.380021 -2.00378,1.102099 -2.65247,2.071966 -1.10849,1.657338 -1.13622,3.90979 -0.0685,5.56181 0.54858,0.848773 1.48905,1.67413 2.29506,2.014167 0.72807,0.30715 1.24306,0.392135 2.23229,0.368376 0.8218,-0.01974 1.03653,-0.05045 1.52294,-0.217807 z"
       id="path3114"
       inkscape:connector-curvature="0" />
  </g>
</svg>
