<?xml version="1.0" encoding="UTF-8" standalone="no"?>
<!-- Created with Inkscape (http://www.inkscape.org/) -->

<svg
   xmlns:dc="http://purl.org/dc/elements/1.1/"
   xmlns:cc="http://creativecommons.org/ns#"
   xmlns:rdf="http://www.w3.org/1999/02/22-rdf-syntax-ns#"
   xmlns:svg="http://www.w3.org/2000/svg"
   xmlns="http://www.w3.org/2000/svg"
   xmlns:sodipodi="http://sodipodi.sourceforge.net/DTD/sodipodi-0.dtd"
   xmlns:inkscape="http://www.inkscape.org/namespaces/inkscape"
   width="744.09448819"
   height="1052.3622047"
   id="svg2"
   version="1.1"
   inkscape:version="0.48.2 r9819"
   sodipodi:docname="sidepanelsvg.svg">
  <defs
     id="defs4" />
  <sodipodi:namedview
     id="base"
     pagecolor="#ffffff"
     bordercolor="#666666"
     borderopacity="1.0"
     inkscape:pageopacity="0.0"
     inkscape:pageshadow="2"
     inkscape:zoom="0.55228922"
     inkscape:cx="439.83597"
     inkscape:cy="628.3371"
     inkscape:document-units="px"
     inkscape:current-layer="layer1"
     showgrid="false"
     inkscape:window-width="1328"
     inkscape:window-height="771"
     inkscape:window-x="0"
     inkscape:window-y="0"
     inkscape:window-maximized="0" />
  <metadata
     id="metadata7">
    <rdf:RDF>
      <cc:Work
         rdf:about="">
        <dc:format>image/svg+xml</dc:format>
        <dc:type
           rdf:resource="http://purl.org/dc/dcmitype/StillImage" />
        <dc:title></dc:title>
      </cc:Work>
    </rdf:RDF>
  </metadata>
  <g
     inkscape:label="Layer 1"
     inkscape:groupmode="layer"
     id="layer1">
    <path
       style="fill:#000000"
       d="m 27.542295,517.16077 c -0.0185,-0.0487 -0.0255,-111.70277 -0.0155,-248.12009 l 0.0181,-248.031497 177.236215,0 177.23622,0 0,248.102357 0,248.10237 -177.22072,0.0177 c -141.739555,0.0142 -177.227445,-1e-5 -177.254305,-0.0709 z m 89.818695,-12.70556 c 1.01499,-0.23924 2.08917,-0.90406 2.80197,-1.73413 0.40299,-0.4693 0.91569,-1.49397 1.06339,-2.12528 0.0593,-0.25335 0.10777,-0.77953 0.10777,-1.16929 0,-0.89017 -0.1318,-1.45806 -0.52631,-2.26772 -0.51994,-1.0671 -1.34226,-1.87747 -2.41926,-2.38413 -0.75959,-0.35734 -1.33226,-0.48385 -2.19013,-0.48385 -0.89017,0 -1.45805,0.1318 -2.26771,0.52631 -1.06686,0.51982 -1.88231,1.34711 -2.37807,2.41254 -0.36056,0.77491 -0.49201,1.36183 -0.49201,2.19685 0,0.83502 0.13145,1.42193 0.49201,2.19685 0.30144,0.64782 0.78732,1.28346 1.35122,1.76768 0.4564,0.39193 1.48571,0.91353 2.08984,1.05904 0.5683,0.13688 1.79707,0.13954 2.36729,0.005 z m 212.60515,-7.7e-4 c 0.63131,-0.14771 1.65598,-0.6604 2.12527,-1.0634 0.5639,-0.48422 1.04978,-1.11986 1.35121,-1.76768 0.36057,-0.77492 0.49202,-1.36183 0.49202,-2.19685 0,-0.83502 -0.13145,-1.42194 -0.49202,-2.19685 -0.49575,-1.06543 -1.3112,-1.89272 -2.37806,-2.41254 -0.80966,-0.39451 -1.37754,-0.52631 -2.26771,-0.52631 -0.85787,0 -1.43054,0.12651 -2.19013,0.48385 -1.077,0.50666 -1.89932,1.31703 -2.41926,2.38413 -0.39451,0.80966 -0.52631,1.37755 -0.52631,2.26772 0,0.89017 0.1318,1.45805 0.52631,2.26771 0.35088,0.72015 0.77808,1.25406 1.41227,1.76509 0.49602,0.39969 1.39629,0.84595 2.00279,0.99277 0.55966,0.13548 1.78937,0.13671 2.36362,0.002 z m 14.17323,-92.12599 c 0.63131,-0.1477 1.65597,-0.6604 2.12527,-1.06339 0.5639,-0.48423 1.04978,-1.11986 1.35121,-1.76769 0.36057,-0.77491 0.49202,-1.36182 0.49202,-2.19685 0,-0.83502 -0.13145,-1.42193 -0.49202,-2.19685 -0.49575,-1.06543 -1.31121,-1.89271 -2.37806,-2.41254 -0.80966,-0.39451 -1.37755,-0.52631 -2.26772,-0.52631 -0.89017,0 -1.45805,0.1318 -2.26771,0.52631 -1.06637,0.51959 -1.82208,1.27531 -2.34167,2.34168 -0.39452,0.80966 -0.52631,1.37754 -0.52631,2.26771 0,0.89017 0.13179,1.45806 0.52631,2.26772 0.35088,0.72014 0.77808,1.25405 1.41227,1.76508 0.49602,0.3997 1.39629,0.84595 2.00279,0.99277 0.55966,0.13549 1.78937,0.13671 2.36362,0.002 z m -72.67323,-51.97262 c 1.05626,-0.25453 1.92615,-0.75514 2.63174,-1.51452 0.87854,-0.94553 1.29918,-1.97432 1.35473,-3.31343 0.0279,-0.67229 0.008,-0.92318 -0.11108,-1.39369 -0.38338,-1.51605 -1.36207,-2.73827 -2.73568,-3.41642 -0.76331,-0.37685 -1.4006,-0.52362 -2.27357,-0.52362 -2.01445,0 -3.72958,1.07951 -4.64429,2.92311 -0.37622,0.75827 -0.51537,1.46291 -0.47604,2.41062 0.0556,1.33911 0.47619,2.3679 1.35473,3.31343 1.24593,1.34092 3.16195,1.93321 4.89946,1.51452 z M 126.93011,256.4202 c 0.65046,-0.15746 1.66829,-0.66434 2.12981,-1.06066 0.83008,-0.7128 1.49489,-1.78698 1.73414,-2.80197 0.14077,-0.5972 0.13904,-1.73841 -0.004,-2.32732 -0.15745,-0.65046 -0.66434,-1.66829 -1.06065,-2.12981 -0.48423,-0.56389 -1.11986,-1.04977 -1.76769,-1.35121 -0.77491,-0.36057 -1.36182,-0.49202 -2.19685,-0.49202 -0.83502,0 -1.42193,0.13145 -2.19685,0.49202 -1.06824,0.49706 -1.8974,1.31565 -2.40875,2.37806 -0.39769,0.82625 -0.53219,1.39938 -0.53219,2.26772 0,0.83502 0.13145,1.42193 0.49201,2.19685 0.63639,1.36767 1.87599,2.39617 3.37465,2.79996 0.63213,0.17032 1.79367,0.18385 2.4359,0.0284 z M 117.36319,43.820273 c 1.89185,-0.46411 3.3948,-1.96707 3.85891,-3.85892 0.14452,-0.58908 0.14659,-1.7257 0.004,-2.33406 -0.14605,-0.62426 -0.65899,-1.65436 -1.05115,-2.11093 -0.72773,-0.84728 -1.76649,-1.49187 -2.81201,-1.74497 -0.60124,-0.14554 -1.72829,-0.14554 -2.32953,0 -1.04552,0.2531 -2.08428,0.89769 -2.81202,1.74497 -0.39215,0.45657 -0.90509,1.48667 -1.05115,2.11093 -0.14233,0.60836 -0.14026,1.74498 0.004,2.33406 0.45778,1.86603 1.89739,3.33148 3.76859,3.83622 0.61909,0.167 1.78699,0.17795 2.41986,0.0227 z m 212.59842,0 c 1.89186,-0.46411 3.39481,-1.96707 3.85892,-3.85892 0.14721,-0.60009 0.14794,-1.72462 10e-4,-2.32953 -0.2531,-1.04552 -0.89768,-2.08428 -1.74496,-2.81202 -0.44879,-0.38547 -1.4723,-0.89271 -2.11546,-1.04841 -0.60124,-0.14554 -1.72829,-0.14554 -2.32953,0 -1.04552,0.2531 -2.08428,0.89769 -2.81202,1.74497 -0.39215,0.45657 -0.90509,1.48667 -1.05115,2.11093 -0.13797,0.58973 -0.13836,1.74818 -7.8e-4,2.33186 0.43243,1.83451 1.90768,3.3351 3.77361,3.83842 0.6191,0.167 1.787,0.17795 2.41986,0.0227 z"
       id="path3197"
       inkscape:connector-curvature="0" />
  </g>
</svg>
