<?xml version="1.0" encoding="UTF-8" standalone="no"?>
<!-- Created with Inkscape (http://www.inkscape.org/) -->

<svg
   xmlns:dc="http://purl.org/dc/elements/1.1/"
   xmlns:cc="http://creativecommons.org/ns#"
   xmlns:rdf="http://www.w3.org/1999/02/22-rdf-syntax-ns#"
   xmlns:svg="http://www.w3.org/2000/svg"
   xmlns="http://www.w3.org/2000/svg"
   xmlns:sodipodi="http://sodipodi.sourceforge.net/DTD/sodipodi-0.dtd"
   xmlns:inkscape="http://www.inkscape.org/namespaces/inkscape"
   width="744.09448819"
   height="1052.3622047"
   id="svg2"
   version="1.1"
   inkscape:version="0.48.2 r9819"
   sodipodi:docname="sidepanel_A4.svg">
  <defs
     id="defs4" />
  <sodipodi:namedview
     id="base"
     pagecolor="#ffffff"
     bordercolor="#666666"
     borderopacity="1.0"
     inkscape:pageopacity="0.0"
     inkscape:pageshadow="2"
     inkscape:zoom="1.0763215"
     inkscape:cx="287.6815"
     inkscape:cy="814.89697"
     inkscape:document-units="px"
     inkscape:current-layer="layer1"
     showgrid="false"
     inkscape:window-width="1328"
     inkscape:window-height="771"
     inkscape:window-x="0"
     inkscape:window-y="0"
     inkscape:window-maximized="0" />
  <metadata
     id="metadata7">
    <rdf:RDF>
      <cc:Work
         rdf:about="">
        <dc:format>image/svg+xml</dc:format>
        <dc:type
           rdf:resource="http://purl.org/dc/dcmitype/StillImage" />
        <dc:title></dc:title>
      </cc:Work>
    </rdf:RDF>
  </metadata>
  <g
     inkscape:label="Layer 1"
     inkscape:groupmode="layer"
     id="layer1">
    <path
       style="fill:#000000"
       d="m 23.134244,289.16224 c -0.0701,-0.0184 -0.13865,-0.12752 -0.16172,-0.25755 -0.0647,-0.36477 -0.006,-269.038708 0.059,-269.103528 0.0772,-0.0772 389.781036,-0.0772 389.858266,0 0.0772,0.0772 0.0772,269.237748 0,269.314978 -0.0595,0.0595 -389.529136,0.1056 -389.755556,0.0461 z m 90.353646,-23.53318 c 1.48002,-0.55729 2.61103,-1.73427 3.11469,-3.24127 0.17177,-0.51396 0.18948,-0.66625 0.18948,-1.62993 0,-0.96367 -0.0177,-1.11596 -0.18948,-1.62992 -0.50285,-1.50458 -1.62514,-2.67397 -3.11469,-3.24544 -0.57801,-0.22175 -0.60377,-0.22492 -1.82644,-0.22492 -1.22267,0 -1.24843,0.003 -1.82645,0.22492 -1.48955,0.57147 -2.61184,1.74086 -3.11469,3.24544 -0.17177,0.51396 -0.18947,0.66625 -0.18947,1.62992 0,0.96368 0.0177,1.11597 0.18947,1.62993 0.56719,1.69709 1.86029,2.91054 3.63011,3.4065 0.25318,0.0709 0.66792,0.0931 1.45276,0.0774 1.02907,-0.0205 1.13545,-0.0358 1.68471,-0.24265 z m 212.59844,0 c 1.48001,-0.55729 2.61102,-1.73427 3.11468,-3.24127 0.17178,-0.51396 0.18948,-0.66625 0.18948,-1.62993 0,-0.96367 -0.0177,-1.11596 -0.18948,-1.62992 -0.50285,-1.50458 -1.62513,-2.67397 -3.11468,-3.24544 -0.57802,-0.22175 -0.60378,-0.22492 -1.82645,-0.22492 -1.22267,0 -1.24843,0.003 -1.82645,0.22492 -1.48955,0.57147 -2.61183,1.74086 -3.11469,3.24544 -0.17177,0.51396 -0.18947,0.66625 -0.18947,1.62992 0,0.96368 0.0177,1.11597 0.18947,1.62993 0.5672,1.69709 1.86029,2.91054 3.63011,3.4065 0.25318,0.0709 0.66792,0.0931 1.45276,0.0774 1.02907,-0.0205 1.13545,-0.0358 1.68472,-0.24265 z M 113.48789,53.030632 c 1.48002,-0.5573 2.61103,-1.73427 3.11469,-3.24128 0.17177,-0.51396 0.18948,-0.66625 0.18948,-1.62992 0,-0.96367 -0.0177,-1.11596 -0.18948,-1.62992 -0.50285,-1.50459 -1.62514,-2.67398 -3.11469,-3.24544 -0.57801,-0.22175 -0.60377,-0.22493 -1.82644,-0.22493 -1.22267,0 -1.24843,0.003 -1.82645,0.22493 -1.48955,0.57146 -2.61184,1.74085 -3.11469,3.24544 -0.17177,0.51396 -0.18947,0.66625 -0.18947,1.62992 0,0.96367 0.0177,1.11596 0.18947,1.62992 0.56719,1.6971 1.86029,2.91054 3.63011,3.40651 0.25318,0.0709 0.66792,0.093 1.45276,0.0774 1.02907,-0.0205 1.13545,-0.0358 1.68471,-0.24265 z m 212.59844,0 c 1.48001,-0.5573 2.61102,-1.73427 3.11468,-3.24128 0.17178,-0.51396 0.18948,-0.66625 0.18948,-1.62992 0,-0.96367 -0.0177,-1.11596 -0.18948,-1.62992 -0.50285,-1.50459 -1.62513,-2.67398 -3.11468,-3.24544 -0.57802,-0.22175 -0.60378,-0.22493 -1.82645,-0.22493 -1.22267,0 -1.24843,0.003 -1.82645,0.22493 -1.48955,0.57146 -2.61183,1.74085 -3.11469,3.24544 -0.17177,0.51396 -0.18947,0.66625 -0.18947,1.62992 0,0.96367 0.0177,1.11596 0.18947,1.62992 0.5672,1.6971 1.86029,2.91054 3.63011,3.40651 0.25318,0.0709 0.66792,0.093 1.45276,0.0774 1.02907,-0.0205 1.13545,-0.0358 1.68472,-0.24265 z"
       id="path3280"
       inkscape:connector-curvature="0" />
  </g>
</svg>
