<?xml version="1.0" encoding="UTF-8" standalone="no"?>
<!-- Created with Inkscape (http://www.inkscape.org/) -->

<svg
   xmlns:dc="http://purl.org/dc/elements/1.1/"
   xmlns:cc="http://creativecommons.org/ns#"
   xmlns:rdf="http://www.w3.org/1999/02/22-rdf-syntax-ns#"
   xmlns:svg="http://www.w3.org/2000/svg"
   xmlns="http://www.w3.org/2000/svg"
   xmlns:sodipodi="http://sodipodi.sourceforge.net/DTD/sodipodi-0.dtd"
   xmlns:inkscape="http://www.inkscape.org/namespaces/inkscape"
   id="svg2"
   version="1.1"
   inkscape:version="0.92.2 2405546, 2018-03-11"
   width="1388.7979mm"
   height="278.00055mm"
   xml:space="preserve"
   sodipodi:docname="cutprint.svg"
   inkscape:export-filename="/home/irix/Repositories/Beach Lab/BeachLab_alphabets/V2/Hardware/letters.png"
   inkscape:export-xdpi="600.01703"
   inkscape:export-ydpi="600.01703"><metadata
     id="metadata8"><rdf:RDF><cc:Work
         rdf:about=""><dc:format>image/svg+xml</dc:format><dc:type
           rdf:resource="http://purl.org/dc/dcmitype/StillImage" /><dc:title /></cc:Work></rdf:RDF></metadata><defs
     id="defs6"><clipPath
       clipPathUnits="userSpaceOnUse"
       id="clipPath18"><path
         d="M 0,0 H 1683.78 V 2383.937 H 0 Z"
         id="path20"
         inkscape:connector-curvature="0" /></clipPath></defs><sodipodi:namedview
     pagecolor="#ffffff"
     bordercolor="#666666"
     borderopacity="1"
     objecttolerance="10"
     gridtolerance="10"
     guidetolerance="10"
     inkscape:pageopacity="0"
     inkscape:pageshadow="2"
     inkscape:window-width="1920"
     inkscape:window-height="1018"
     id="namedview4"
     showgrid="false"
     inkscape:zoom="0.18666348"
     inkscape:cx="2703.2904"
     inkscape:cy="450.16888"
     inkscape:window-x="0"
     inkscape:window-y="0"
     inkscape:window-maximized="1"
     inkscape:current-layer="layer4"
     units="mm"
     fit-margin-top="5"
     fit-margin-left="5"
     fit-margin-bottom="5"
     fit-margin-right="5"
     borderlayer="true"
     showguides="false"
     inkscape:guide-bbox="true"><sodipodi:guide
       position="18.89762,1031.8131"
       orientation="1,0"
       id="guide1365"
       inkscape:locked="false" /><sodipodi:guide
       position="2136.1056,1031.8131"
       orientation="1,0"
       id="guide1367"
       inkscape:locked="false" /></sodipodi:namedview><g
     inkscape:groupmode="layer"
     id="layer2"
     inkscape:label="cards"
     style="display:inline"
     transform="translate(-48.00348,-26.878162)"><g
       id="g1218"><path
         inkscape:connector-curvature="0"
         id="path26"
         style="display:inline;fill:#ffcc00;fill-opacity:1;fill-rule:nonzero;stroke:none;stroke-width:1.06666672"
         d="M 28.282049,2252.5636 H 194.58125 V 1992.5321 H 28.282049 Z"
         transform="matrix(1.25,0,0,-1.25,31.548557,2861.4803)" /><path
         inkscape:connector-curvature="0"
         id="path34"
         style="display:inline;fill:#ffcc00;fill-opacity:1;fill-rule:nonzero;stroke:none;stroke-width:1.06666672"
         d="m 219.21545,2252.5636 h 166.2992 v -260.0315 h -166.2992 z"
         transform="matrix(1.25,0,0,-1.25,31.548557,2861.4803)" /><path
         inkscape:connector-curvature="0"
         id="path36"
         style="display:inline;fill:#ffcc00;fill-opacity:1;fill-rule:nonzero;stroke:none;stroke-width:1.06666672"
         d="m 410.14875,2252.5636 h 166.2992 v -260.0315 h -166.2992 z"
         transform="matrix(1.25,0,0,-1.25,31.548557,2861.4803)" /><path
         inkscape:connector-curvature="0"
         id="path38"
         style="display:inline;fill:#ffcc00;fill-opacity:1;fill-rule:nonzero;stroke:none;stroke-width:1.06666672"
         d="m 601.08205,2252.5636 h 166.2992 v -260.0315 h -166.2992 z"
         transform="matrix(1.25,0,0,-1.25,31.548557,2861.4803)" /><path
         inkscape:connector-curvature="0"
         id="path40"
         style="display:inline;fill:#ffcc00;fill-opacity:1;fill-rule:nonzero;stroke:none;stroke-width:1.06666672"
         d="M 792.01545,2252.5636 H 958.31466 V 1992.5321 H 792.01545 Z"
         transform="matrix(1.25,0,0,-1.25,31.548557,2861.4803)" /><path
         inkscape:connector-curvature="0"
         id="path42"
         style="display:inline;fill:#ffcc00;fill-opacity:1;fill-rule:nonzero;stroke:none;stroke-width:1.06666672"
         d="M 982.94876,2252.5636 H 1149.2484 V 1992.5321 H 982.94876 Z"
         transform="matrix(1.25,0,0,-1.25,31.548557,2861.4803)" /><path
         inkscape:connector-curvature="0"
         id="path44"
         style="display:inline;fill:#ffcc00;fill-opacity:1;fill-rule:nonzero;stroke:none;stroke-width:1.06666672"
         d="m 1173.882,2252.5636 h 166.2997 V 1992.5321 H 1173.882 Z"
         transform="matrix(1.25,0,0,-1.25,31.548557,2861.4803)" /><path
         inkscape:connector-curvature="0"
         id="path46"
         style="display:inline;fill:#ffcc00;fill-opacity:1;fill-rule:nonzero;stroke:none;stroke-width:1.06666672"
         d="m 1364.8153,2252.5636 h 166.2998 v -260.0315 h -166.2998 z"
         transform="matrix(1.25,0,0,-1.25,31.548557,2861.4803)" /><path
         inkscape:connector-curvature="0"
         id="path48"
         style="display:inline;fill:#ffcc00;fill-opacity:1;fill-rule:nonzero;stroke:none;stroke-width:1.06666672"
         d="m 1555.7487,2252.5636 h 166.2997 v -260.0315 h -166.2997 z"
         transform="matrix(1.25,0,0,-1.25,31.548557,2861.4803)" /><path
         inkscape:connector-curvature="0"
         id="path50"
         style="display:inline;fill:#ffcc00;fill-opacity:1;fill-rule:nonzero;stroke:none;stroke-width:1.33333337"
         d="m 2206.7861,45.7758 h 207.874 v 325.03925 h -207.874 z" /><path
         inkscape:connector-curvature="0"
         id="path52"
         style="display:inline;fill:#ffcc00;fill-opacity:1;fill-rule:nonzero;stroke:none;stroke-width:1.33333337"
         d="m 2445.4527,45.7758 h 207.874 v 325.03925 h -207.874 z" /><path
         inkscape:connector-curvature="0"
         id="path54"
         style="display:inline;fill:#ffcc00;fill-opacity:1;fill-rule:nonzero;stroke:none;stroke-width:1.33333337"
         d="m 2684.1193,45.7758 h 207.874 v 325.03925 h -207.874 z" /><path
         inkscape:connector-curvature="0"
         id="path56"
         style="display:inline;fill:#ffcc00;fill-opacity:1;fill-rule:nonzero;stroke:none;stroke-width:1.33333337"
         d="M 2922.7861,45.7758 H 3130.66 v 325.03925 h -207.8739 z" /><path
         inkscape:connector-curvature="0"
         id="path58"
         style="display:inline;fill:#ffcc00;fill-opacity:1;fill-rule:nonzero;stroke:none;stroke-width:1.33333337"
         d="m 3161.4526,45.7758 h 207.8741 v 325.03925 h -207.8741 z" /><path
         inkscape:connector-curvature="0"
         id="path60"
         style="display:inline;fill:#ffcc00;fill-opacity:1;fill-rule:nonzero;stroke:none;stroke-width:1.33333337"
         d="M 3400.1193,45.7758 H 3607.994 V 370.81505 H 3400.1193 Z" /><path
         inkscape:connector-curvature="0"
         id="path62"
         style="display:inline;fill:#ffcc00;fill-opacity:1;fill-rule:nonzero;stroke:none;stroke-width:1.33333337"
         d="m 3638.786,45.7758 h 207.8746 V 370.81505 H 3638.786 Z" /><path
         inkscape:connector-curvature="0"
         id="path64"
         style="display:inline;fill:#ffcc00;fill-opacity:1;fill-rule:nonzero;stroke:none;stroke-width:1.33333337"
         d="m 3877.4526,45.7758 h 207.8747 v 325.03925 h -207.8747 z" /><path
         inkscape:connector-curvature="0"
         id="path66"
         style="display:inline;fill:#ffcc00;fill-opacity:1;fill-rule:nonzero;stroke:none;stroke-width:1.33333337"
         d="M 4116.1193,45.7758 H 4323.994 V 370.81505 H 4116.1193 Z" /><path
         inkscape:connector-curvature="0"
         id="path68"
         style="display:inline;fill:#ffcc00;fill-opacity:1;fill-rule:nonzero;stroke:none;stroke-width:1.33333337"
         d="M 74.460508,385.93425 H 282.33451 v 325.0394 H 74.460508 Z" /><path
         inkscape:connector-curvature="0"
         id="path70"
         style="display:inline;fill:#ffcc00;fill-opacity:1;fill-rule:nonzero;stroke:none;stroke-width:1.33333337"
         d="m 313.12711,385.93425 h 207.874 v 325.0394 h -207.874 z" /><path
         inkscape:connector-curvature="0"
         id="path72"
         style="display:inline;fill:#ffcc00;fill-opacity:1;fill-rule:nonzero;stroke:none;stroke-width:1.33333337"
         d="m 551.79391,385.93425 h 207.874 v 325.0394 h -207.874 z" /><path
         inkscape:connector-curvature="0"
         id="path74"
         style="display:inline;fill:#ffcc00;fill-opacity:1;fill-rule:nonzero;stroke:none;stroke-width:1.33333337"
         d="m 790.46051,385.93425 h 207.874 v 325.0394 h -207.874 z" /><path
         inkscape:connector-curvature="0"
         id="path76"
         style="display:inline;fill:#ffcc00;fill-opacity:1;fill-rule:nonzero;stroke:none;stroke-width:1.33333337"
         d="m 1029.1271,385.93425 h 207.8741 v 325.0394 h -207.8741 z" /><path
         inkscape:connector-curvature="0"
         id="path78"
         style="display:inline;fill:#ffcc00;fill-opacity:1;fill-rule:nonzero;stroke:none;stroke-width:1.33333337"
         d="m 1267.794,385.93425 h 207.8745 v 325.0394 H 1267.794 Z" /><path
         inkscape:connector-curvature="0"
         id="path80"
         style="display:inline;fill:#ffcc00;fill-opacity:1;fill-rule:nonzero;stroke:none;stroke-width:1.33333337"
         d="m 1506.4605,385.93425 h 207.8746 v 325.0394 h -207.8746 z" /><path
         inkscape:connector-curvature="0"
         id="path82"
         style="display:inline;fill:#ffcc00;fill-opacity:1;fill-rule:nonzero;stroke:none;stroke-width:1.33333337"
         d="m 1745.1271,385.93425 h 207.8747 v 325.0394 h -207.8747 z" /><path
         inkscape:connector-curvature="0"
         id="path84"
         style="display:inline;fill:#ffcc00;fill-opacity:1;fill-rule:nonzero;stroke:none;stroke-width:1.33333337"
         d="m 1983.7938,385.93425 h 207.8747 v 325.0394 h -207.8747 z" /><path
         inkscape:connector-curvature="0"
         id="path86"
         style="display:inline;fill:#ffcc00;fill-opacity:1;fill-rule:nonzero;stroke:none;stroke-width:1.33333337"
         d="m 2214.3455,385.93425 h 207.874 v 325.0394 h -207.874 z" /><path
         inkscape:connector-curvature="0"
         id="path88"
         style="display:inline;fill:#ffcc00;fill-opacity:1;fill-rule:nonzero;stroke:none;stroke-width:1.33333337"
         d="m 2453.0121,385.93425 h 207.874 v 325.0394 h -207.874 z" /><path
         inkscape:connector-curvature="0"
         id="path90"
         style="display:inline;fill:#ffcc00;fill-opacity:1;fill-rule:nonzero;stroke:none;stroke-width:1.33333337"
         d="m 2691.6788,385.93425 h 207.874 v 325.0394 h -207.874 z" /><path
         inkscape:connector-curvature="0"
         id="path92"
         style="display:inline;fill:#ffcc00;fill-opacity:1;fill-rule:nonzero;stroke:none;stroke-width:1.33333337"
         d="m 2930.3455,385.93425 h 207.874 v 325.0394 h -207.874 z" /><path
         inkscape:connector-curvature="0"
         id="path94"
         style="display:inline;fill:#ffcc00;fill-opacity:1;fill-rule:nonzero;stroke:none;stroke-width:1.33333337"
         d="m 3169.0122,385.93425 h 207.874 v 325.0394 h -207.874 z" /><path
         inkscape:connector-curvature="0"
         id="path96"
         style="display:inline;fill:#ffcc00;fill-opacity:1;fill-rule:nonzero;stroke:none;stroke-width:1.33333337"
         d="m 3407.6788,385.93425 h 207.8747 v 325.0394 h -207.8747 z" /><path
         inkscape:connector-curvature="0"
         id="path98"
         style="display:inline;fill:#ffcc00;fill-opacity:1;fill-rule:nonzero;stroke:none;stroke-width:1.33333337"
         d="m 3646.3455,385.93425 h 207.8746 v 325.0394 h -207.8746 z" /><path
         inkscape:connector-curvature="0"
         id="path100"
         style="display:inline;fill:#ffcc00;fill-opacity:1;fill-rule:nonzero;stroke:none;stroke-width:1.33333337"
         d="m 3885.0121,385.93425 h 207.8748 v 325.0394 h -207.8748 z" /><path
         inkscape:connector-curvature="0"
         id="path102"
         style="display:inline;fill:#ffcc00;fill-opacity:1;fill-rule:nonzero;stroke:none;stroke-width:1.33333337"
         d="m 4123.6789,385.93425 h 207.8746 v 325.0394 h -207.8746 z" /><path
         inkscape:connector-curvature="0"
         id="path104"
         style="display:inline;fill:#ffcc00;fill-opacity:1;fill-rule:nonzero;stroke:none;stroke-width:1.33333337"
         d="M 74.46099,733.65083 H 282.335 V 1058.6907 H 74.46099 Z" /><path
         inkscape:connector-curvature="0"
         id="path106"
         style="display:inline;fill:#ffcc00;fill-opacity:1;fill-rule:nonzero;stroke:none;stroke-width:1.33333337"
         d="m 313.12751,733.65083 h 207.874 v 325.03987 h -207.874 z" /><path
         inkscape:connector-curvature="0"
         id="path108"
         style="display:inline;fill:#ffcc00;fill-opacity:1;fill-rule:nonzero;stroke:none;stroke-width:1.33333337"
         d="m 551.79401,733.65083 h 207.874 v 325.03987 h -207.874 z" /><path
         inkscape:connector-curvature="0"
         id="path362"
         style="display:inline;fill:#ffcc00;fill-opacity:1;fill-rule:nonzero;stroke:none;stroke-width:1.33333337"
         d="m 1029.127,733.65083 h 207.8746 V 1058.6907 H 1029.127 Z" /><path
         inkscape:connector-curvature="0"
         id="path364"
         style="display:inline;fill:#ffcc00;fill-opacity:1;fill-rule:nonzero;stroke:none;stroke-width:1.33333337"
         d="m 1267.7942,733.65083 h 207.8745 v 325.03987 h -207.8745 z" /><path
         inkscape:connector-curvature="0"
         id="path366"
         style="display:inline;fill:#ffcc00;fill-opacity:1;fill-rule:nonzero;stroke:none;stroke-width:1.33333337"
         d="m 1506.4612,733.65083 h 207.8746 v 325.03987 h -207.8746 z" /><path
         inkscape:connector-curvature="0"
         id="path398"
         style="display:inline;fill:#ffcc00;fill-opacity:1;fill-rule:nonzero;stroke:none;stroke-width:1.33333337"
         d="M 790.46051,733.65083 H 998.3345 V 1058.6907 H 790.46051 Z" /><path
         inkscape:connector-curvature="0"
         id="path410"
         style="display:inline;fill:#ffcc00;fill-opacity:1;fill-rule:nonzero;stroke:none;stroke-width:1.33333337"
         d="m 1745.1283,733.65073 h 207.874 v 325.03987 h -207.874 z" /><path
         inkscape:connector-curvature="0"
         id="path412"
         style="display:inline;fill:#ffcc00;fill-opacity:1;fill-rule:nonzero;stroke:none;stroke-width:1.33333337"
         d="m 1983.7948,733.65073 h 207.874 v 325.03987 h -207.874 z" /><path
         inkscape:connector-curvature="0"
         id="path414"
         style="display:inline;fill:#ffcc00;fill-opacity:1;fill-rule:nonzero;stroke:none;stroke-width:1.33333337"
         d="m 2214.3457,733.65083 h 207.8741 v 325.03987 h -207.8741 z" /><path
         inkscape:connector-curvature="0"
         id="path438"
         style="display:inline;fill:#ffcc00;fill-opacity:1;fill-rule:nonzero;stroke:none;stroke-width:1.33333337"
         d="m 2691.6786,733.65083 h 207.874 v 325.03987 h -207.874 z" /><path
         inkscape:connector-curvature="0"
         id="path440"
         style="display:inline;fill:#ffcc00;fill-opacity:1;fill-rule:nonzero;stroke:none;stroke-width:1.33333337"
         d="m 2930.345,733.65083 h 207.8746 V 1058.6907 H 2930.345 Z" /><path
         inkscape:connector-curvature="0"
         id="path442"
         style="display:inline;fill:#ffcc00;fill-opacity:1;fill-rule:nonzero;stroke:none;stroke-width:1.33333337"
         d="m 3169.012,733.65083 h 207.8748 V 1058.6907 H 3169.012 Z" /><path
         inkscape:connector-curvature="0"
         id="path444"
         style="display:inline;fill:#ffcc00;fill-opacity:1;fill-rule:nonzero;stroke:none;stroke-width:1.33333337"
         d="m 3407.6792,733.65083 h 207.8746 v 325.03987 h -207.8746 z" /><path
         inkscape:connector-curvature="0"
         id="path446"
         style="display:inline;fill:#ffcc00;fill-opacity:1;fill-rule:nonzero;stroke:none;stroke-width:1.33333337"
         d="m 3646.346,733.65083 h 207.8748 V 1058.6907 H 3646.346 Z" /><path
         inkscape:connector-curvature="0"
         id="path478"
         style="display:inline;fill:#ffcc00;fill-opacity:1;fill-rule:nonzero;stroke:none;stroke-width:1.33333337"
         d="m 2453.0121,733.65083 h 207.874 v 325.03987 h -207.874 z" /><path
         inkscape:connector-curvature="0"
         id="path490"
         style="display:inline;fill:#ffcc00;fill-opacity:1;fill-rule:nonzero;stroke:none;stroke-width:1.33333337"
         d="m 3885.0132,733.65083 h 207.874 v 325.03987 h -207.874 z" /><path
         inkscape:connector-curvature="0"
         id="path492"
         style="display:inline;fill:#ffcc00;fill-opacity:1;fill-rule:nonzero;stroke:none;stroke-width:1.33333337"
         d="m 4123.6795,733.65083 h 207.874 v 325.03987 h -207.874 z" /><path
         inkscape:connector-curvature="0"
         id="path494"
         style="display:inline;fill:#ffcc00;fill-opacity:1;fill-rule:nonzero;stroke:none;stroke-width:1.33333337"
         d="m 4346.671,45.7758 h 207.874 v 325.04 h -207.874 z" /><path
         inkscape:connector-curvature="0"
         id="path558"
         style="display:inline;fill:#ffcc00;fill-opacity:1;fill-rule:nonzero;stroke:none;stroke-width:1.33333337"
         d="m 4585.3374,45.7758 h 207.874 v 325.04 h -207.874 z" /><path
         inkscape:connector-curvature="0"
         id="path570"
         style="display:inline;fill:#ffcc00;fill-opacity:1;fill-rule:nonzero;stroke:none;stroke-width:1.33333337"
         d="m 4824.0039,45.7758 h 207.874 v 325.04 h -207.874 z" /><path
         inkscape:connector-curvature="0"
         id="path586"
         style="display:inline;fill:#ffcc00;fill-opacity:1;fill-rule:nonzero;stroke:none;stroke-width:1.33333337"
         d="m 5062.6703,45.7758 h 207.8747 v 325.04 h -207.8747 z" /><path
         inkscape:connector-curvature="0"
         id="path584-52"
         style="display:inline;opacity:0.92000002;fill:#ffcc00;fill-opacity:1;fill-rule:nonzero;stroke:none;stroke-width:1.33333337"
         d="m 4544.8942,359.05609 h 207.8745 v 325.04 h -207.8745 z"
         transform="translate(48.003477,26.878162)" /><path
         inkscape:connector-curvature="0"
         id="path582-4"
         style="display:inline;opacity:0.92000002;fill:#ffcc00;fill-opacity:1;fill-rule:nonzero;stroke:none;stroke-width:1.33333337"
         d="m 4306.227,359.05609 h 207.8748 v 325.04 H 4306.227 Z"
         transform="translate(48.003477,26.878162)" /><path
         inkscape:connector-curvature="0"
         id="path360-3-0"
         style="display:inline;opacity:0.92000002;fill:#ffcc00;fill-opacity:1;fill-rule:nonzero;stroke:none;stroke-width:1.33333337"
         d="m 4783.561,359.05609 h 207.8748 v 325.0399 H 4783.561 Z"
         transform="translate(48.003477,26.878162)" /><path
         inkscape:connector-curvature="0"
         id="path574-6-7"
         style="display:inline;opacity:0.92000002;fill:#ffcc00;fill-opacity:1;fill-rule:nonzero;stroke:none;stroke-width:1.33333337"
         d="m 5022.2282,359.05609 h 207.874 v 325.04 h -207.874 z"
         transform="translate(48.003477,26.878162)" /><path
         inkscape:connector-curvature="0"
         id="path572-4-5"
         style="display:inline;opacity:0.92000002;fill:#ffcc00;fill-opacity:1;fill-rule:nonzero;stroke:none;stroke-width:1.33333337"
         d="m 4306.227,706.77327 h 207.874 v 325.03983 h -207.874 z"
         transform="translate(48.003477,26.878162)" /></g></g><g
     id="g10"
     inkscape:groupmode="layer"
     inkscape:label="letters"
     transform="matrix(1.25,0,0,-1.25,-16.45498,2834.6021)"
     style="display:inline"><g
       id="g1151"><g
         id="text30"
         transform="matrix(1,0,0,-1,-22.917951,1959.2975)"><path
           inkscape:connector-curvature="0"
           id="path4620"
           style="font-variant:normal;font-weight:normal;font-size:290px;font-family:BlueHighwayD;-inkscape-font-specification:BlueHighwayD-Regular;writing-mode:lr-tb;fill:#000000;fill-opacity:1;fill-rule:nonzero;stroke:none;stroke-width:1.06666672"
           d="M 169.51078,-94.887467 H 99.60145 l -10.208,42.688 h -33.408 L 114.14012,-274.3008 h 40.832 l 57.84533,222.101333 h -32.78933 l -10.51734,-42.688 m -62.176,-32.789333 h 54.13334 l -27.22134,-112.90667 -26.912,112.90667" /></g><g
         id="text112"
         transform="matrix(1,0,0,-1,-22.917951,1959.2975)"><path
           inkscape:connector-curvature="0"
           id="path4617"
           style="font-variant:normal;font-weight:normal;font-size:290px;font-family:BlueHighwayD;-inkscape-font-specification:BlueHighwayD-Regular;writing-mode:lr-tb;fill:#000000;fill-opacity:1;fill-rule:nonzero;stroke:none;stroke-width:1.06666672"
           d="m 296.10327,-84.9888 h 39.28534 c 7.83635,3.2e-5 14.02301,-2.887075 18.56,-8.661333 4.743,-5.774175 7.11456,-13.919947 7.11466,-24.437337 -10e-5,-9.89859 -2.16544,-17.63191 -6.496,-23.2 -4.12454,-5.5679 -10.20809,-8.3519 -18.25066,-8.352 h -40.21334 v 64.65067 m 33.09867,-97.44 c 3.29948,1.3e-4 6.2897,-0.82476 8.97067,-2.47467 2.6808,-1.85586 4.84613,-4.12431 6.496,-6.80533 1.64968,-2.88697 2.88702,-6.08341 3.712,-9.58933 1.03101,-3.71185 1.54657,-7.42384 1.54666,-11.136 -9e-5,-8.24873 -1.95921,-15.05405 -5.87733,-20.416 -3.71208,-5.56782 -8.66142,-8.35181 -14.848,-8.352 h -33.09867 v 58.77333 h 33.09867 m -0.30933,-91.872 c 6.80525,2.2e-4 13.30124,1.34066 19.488,4.02133 6.18656,2.47488 11.65144,6.28999 16.39466,11.44534 4.74299,4.94953 8.45499,11.13619 11.136,18.56 2.88699,7.42418 4.33054,15.87928 4.33067,25.36533 -1.3e-4,9.48638 -1.64991,17.73525 -4.94933,24.74667 -3.09345,6.80546 -7.321,12.68279 -12.68267,17.632 3.9181,1.03123 7.83632,2.88723 11.75467,5.568 3.91809,2.681 7.32076,6.18677 10.208,10.51733 2.88697,4.33076 5.25853,9.58943 7.11466,15.776 1.85587,5.98052 2.78386,12.99207 2.784,21.03467 -1.4e-4,21.240931 -5.56813,37.841804 -16.704,49.802663 -10.92989,11.754672 -26.91209,17.632 -47.94666,17.632 H 265.16994 V -274.3008 h 63.72267" /></g><g
         id="text118"
         transform="matrix(1,0,0,-1,-22.917951,1959.2975)"><path
           inkscape:connector-curvature="0"
           id="path4614"
           style="font-variant:normal;font-weight:normal;font-size:290px;font-family:BlueHighwayD;-inkscape-font-specification:BlueHighwayD-Regular;writing-mode:lr-tb;fill:#000000;fill-opacity:1;fill-rule:nonzero;stroke:none;stroke-width:1.06666672"
           d="m 563.75167,-218.6208 c -4.53701,-8.66116 -9.79568,-14.7447 -15.776,-18.25067 -5.98056,-3.50559 -14.12633,-5.25847 -24.43733,-5.25866 -7.63031,1.9e-4 -14.43564,1.85619 -20.416,5.568 -5.7743,3.71218 -10.72362,9.07395 -14.848,16.08533 -4.12451,6.80549 -7.32094,15.05438 -9.58934,24.74667 -2.06227,9.69257 -3.09337,20.51923 -3.09333,32.48 -4e-5,11.13609 1.13418,21.55031 3.40267,31.24266 2.47461,9.4863 5.77416,17.73517 9.89866,24.74667 4.33061,7.0116 9.48616,12.579598 15.46667,16.704 6.18659,3.918256 12.99191,5.877365 20.416,5.877333 9.48612,3.2e-5 17.01323,-1.959077 22.58133,-5.877333 5.56789,-3.91818 10.62032,-8.661286 15.15734,-14.22933 l 25.056,18.250663 c -14.43571,24.952898 -35.77968,37.42933 -64.032,37.429334 -11.54853,-4e-6 -22.27208,-2.887112 -32.17067,-8.661334 -9.69249,-5.774211 -18.04449,-13.713759 -25.056,-23.818666 -7.01158,-10.10485 -12.47647,-22.065727 -16.39467,-35.882667 -3.91824,-14.02303 -5.87734,-29.28346 -5.87733,-45.78133 -10e-6,-16.08521 1.85599,-31.0363 5.568,-44.85334 3.71198,-14.02294 8.97063,-26.08693 15.776,-36.192 7.01151,-10.31091 15.36351,-18.35356 25.056,-24.128 9.89859,-5.98022 20.93148,-8.97044 33.09867,-8.97066 30.31453,2.2e-4 52.27718,13.40465 65.888,40.21333 l -25.67467,18.56" /></g><g
         id="text124"
         transform="matrix(1,0,0,-1,-22.917951,1959.2975)"><path
           inkscape:connector-curvature="0"
           id="path4611"
           style="font-variant:normal;font-weight:normal;font-size:290px;font-family:BlueHighwayD;-inkscape-font-specification:BlueHighwayD-Regular;writing-mode:lr-tb;fill:#000000;fill-opacity:1;fill-rule:nonzero;stroke:none;stroke-width:1.06666672"
           d="m 665.28631,-241.20213 v 155.594663 h 19.79734 c 10.51726,3.3e-5 19.90035,-1.855964 28.14933,-5.568 8.24879,-3.918179 15.15723,-9.383063 20.72533,-16.394663 5.77411,-7.0115 10.10476,-15.26038 12.992,-24.74667 3.09321,-9.48613 4.63987,-20.00346 4.64,-31.552 -1.3e-4,-11.75454 -1.44369,-22.37498 -4.33066,-31.86133 -2.68102,-9.48607 -6.80546,-17.52873 -12.37334,-24.128 -5.5681,-6.80517 -12.47654,-12.06382 -20.72533,-15.776 -8.24898,-3.71181 -17.94141,-5.56781 -29.07733,-5.568 H 665.28631 M 635.89965,-52.199467 V -274.3008 h 55.06133 c 13.61058,2.2e-4 26.08701,2.78422 37.42933,8.352 11.34211,5.36198 21.03454,12.9922 29.07734,22.89067 8.24873,9.69263 14.53852,21.34417 18.86933,34.95466 4.53673,13.40459 6.80516,28.04635 6.80533,43.92534 -1.7e-4,17.32276 -2.37172,32.99563 -7.11466,47.01866 -4.74327,13.81694 -11.34237,25.571598 -19.79734,35.264003 -8.24902,9.486242 -18.14768,16.807124 -29.696,21.962667 -11.34231,5.155557 -23.71563,7.733333 -37.12,7.733333 h -53.51466" /></g><g
         id="text130"
         transform="matrix(1,0,0,-1,-22.917951,1959.2975)"><path
           inkscape:connector-curvature="0"
           id="path4608"
           style="font-variant:normal;font-weight:normal;font-size:290px;font-family:BlueHighwayD;-inkscape-font-specification:BlueHighwayD-Regular;writing-mode:lr-tb;fill:#000000;fill-opacity:1;fill-rule:nonzero;stroke:none;stroke-width:1.06666672"
           d="m 846.16631,-274.3008 h 104.864 v 33.09867 h -73.93066 v 58.77333 h 45.78133 v 32.78933 h -45.78133 v 64.65067 h 73.93066 v 32.789333 h -104.864 V -274.3008" /></g><g
         id="text136"
         transform="matrix(1,0,0,-1,-22.917951,1959.2975)"><path
           inkscape:connector-curvature="0"
           id="path4605"
           style="font-variant:normal;font-weight:normal;font-size:290px;font-family:BlueHighwayD;-inkscape-font-specification:BlueHighwayD-Regular;writing-mode:lr-tb;fill:#000000;fill-opacity:1;fill-rule:nonzero;stroke:none;stroke-width:1.06666672"
           d="m 1072.2102,-182.4288 h 47.328 v 32.78933 h -47.328 v 97.440003 h -30.9333 V -274.3008 h 104.864 v 33.09867 h -73.9307 v 58.77333" /></g><g
         id="text142"
         transform="matrix(1,0,0,-1,-22.917951,1959.2975)"><path
           inkscape:connector-curvature="0"
           id="path4602"
           style="font-variant:normal;font-weight:normal;font-size:290px;font-family:BlueHighwayD;-inkscape-font-specification:BlueHighwayD-Regular;writing-mode:lr-tb;fill:#000000;fill-opacity:1;fill-rule:nonzero;stroke:none;stroke-width:1.06666672"
           d="m 1282.1667,-49.106133 c -11.7548,-4e-6 -22.4783,-2.887112 -32.1706,-8.661334 -9.6926,-5.980433 -18.0445,-14.023092 -25.056,-24.128 -6.8055,-10.311071 -12.1672,-22.375063 -16.0854,-36.192003 -3.7121,-14.02303 -5.5681,-29.07723 -5.568,-45.16266 -1e-4,-17.52876 1.9591,-33.30475 5.8774,-47.328 3.9181,-14.22917 9.2798,-26.29316 16.0853,-36.192 7.0115,-9.89847 15.3634,-17.42557 25.056,-22.58134 9.6924,-5.36155 20.3127,-8.04244 31.8613,-8.04266 16.2914,2.2e-4 29.5928,3.40289 39.904,10.208 10.311,6.59931 19.2816,16.8073 26.912,30.624 l -25.984,17.94133 c -4.537,-8.66116 -9.7957,-14.7447 -15.776,-18.25067 -5.7744,-3.50559 -13.3014,-5.25847 -22.5813,-5.25866 -15.4668,1.9e-4 -27.5308,6.39307 -36.192,19.17866 -8.4553,12.78593 -12.6828,32.68636 -12.6827,59.70134 -10e-5,11.54854 1.0311,22.16898 3.0934,31.86133 2.062,9.69251 5.0523,18.14762 8.9706,25.36533 4.1244,7.011605 9.0737,12.5796 14.848,16.704003 5.7741,3.918255 12.2701,5.877365 19.488,5.877334 13.6106,3.1e-5 23.5091,-4.12441 29.696,-12.373334 6.3928,-8.455063 9.5891,-20.106603 9.5894,-34.954663 h -36.192 v -33.09867 h 73.312 v 14.848 c -3e-4,13.61075 -1.6501,26.49963 -4.9494,38.66667 -3.2997,11.960931 -8.249,22.478255 -14.848,31.551997 -6.393,9.073795 -14.3326,16.291566 -23.8186,21.653333 -9.4864,5.361777 -20.4162,8.042663 -32.7894,8.042667" /></g><g
         id="text148"
         transform="matrix(1,0,0,-1,-22.917951,1959.2975)"><path
           inkscape:connector-curvature="0"
           id="path4599"
           style="font-variant:normal;font-weight:normal;font-size:290px;font-family:BlueHighwayD;-inkscape-font-specification:BlueHighwayD-Regular;writing-mode:lr-tb;fill:#000000;fill-opacity:1;fill-rule:nonzero;stroke:none;stroke-width:1.06666672"
           d="m 1507.1276,-149.63947 h -72.384 v 97.440003 h -30.9334 V -274.3008 h 30.9334 v 91.872 h 72.384 v -91.872 h 30.9333 v 222.101333 h -30.9333 v -97.440003" /></g><g
         id="text154"
         transform="matrix(1,0,0,-1,-22.917951,1959.2975)"><path
           inkscape:connector-curvature="0"
           id="path4596"
           style="font-variant:normal;font-weight:normal;font-size:290px;font-family:BlueHighwayD;-inkscape-font-specification:BlueHighwayD-Regular;writing-mode:lr-tb;fill:#000000;fill-opacity:1;fill-rule:nonzero;stroke:none;stroke-width:1.06666672"
           d="m 1646.4006,-274.3008 h 30.9334 v 222.101333 h -30.9334 V -274.3008" /></g><g
         id="text160"
         transform="matrix(1,0,0,-1,1688.99,1673.4308)"><path
           inkscape:connector-curvature="0"
           id="path4593"
           style="font-variant:normal;font-weight:normal;font-size:290px;font-family:BlueHighwayD;-inkscape-font-specification:BlueHighwayD-Regular;writing-mode:lr-tb;fill:#000000;fill-opacity:1;fill-rule:nonzero;stroke:none;stroke-width:1.06666672"
           d="m 170.90241,-560.16748 v 142.60267 c -1e-4,11.54851 -1.64987,22.27205 -4.94933,32.17067 -3.09342,9.89869 -7.63031,18.45691 -13.61067,25.67466 -5.77429,7.21779 -12.88895,12.8889 -21.344,17.01334 -8.24893,4.12444 -17.42581,6.18666 -27.53067,6.18666 -5.774236,0 -10.31112,-0.30933 -13.610664,-0.928 -3.299561,-0.41245 -5.568003,-0.82488 -6.805333,-1.23733 l 3.712,-31.24267 c 4.536878,0.6187 8.970652,0.92803 13.301337,0.928 13.19818,3e-5 23.19995,-4.0213 30.00533,-12.064 6.80528,-8.24884 10.20794,-21.9626 10.208,-41.14133 v -137.96267 h 30.624" /></g><g
         id="text166"
         transform="matrix(1,0,0,-1,1688.99,1673.4308)"><path
           inkscape:connector-curvature="0"
           id="path4590"
           style="font-variant:normal;font-weight:normal;font-size:290px;font-family:BlueHighwayD;-inkscape-font-specification:BlueHighwayD-Regular;writing-mode:lr-tb;fill:#000000;fill-opacity:1;fill-rule:nonzero;stroke:none;stroke-width:1.06666672"
           d="m 321.00402,-432.72214 -25.984,42.37866 v 52.27734 h -30.93333 v -222.10134 h 30.93333 v 111.97867 l 66.50667,-111.97867 h 36.81066 l -56.29866,96.82134 60.62933,125.28 h -38.048 l -43.616,-94.656" /></g><g
         id="text172"
         transform="matrix(1,0,0,-1,1688.99,1673.4308)"><path
           inkscape:connector-curvature="0"
           id="path4587"
           style="font-variant:normal;font-weight:normal;font-size:290px;font-family:BlueHighwayD;-inkscape-font-specification:BlueHighwayD-Regular;writing-mode:lr-tb;fill:#000000;fill-opacity:1;fill-rule:nonzero;stroke:none;stroke-width:1.06666672"
           d="m 466.157,-560.16748 h 30.93334 v 189.312 h 80.736 v 32.78934 H 466.157 v -222.10134" /></g><g
         id="text178"
         transform="matrix(1,0,0,-1,1688.99,1673.4308)"><path
           inkscape:connector-curvature="0"
           id="path4584"
           style="font-variant:normal;font-weight:normal;font-size:290px;font-family:BlueHighwayD;-inkscape-font-specification:BlueHighwayD-Regular;writing-mode:lr-tb;fill:#000000;fill-opacity:1;fill-rule:nonzero;stroke:none;stroke-width:1.06666672"
           d="m 758.24076,-489.63948 -48.56534,151.57334 h -1.54666 l -51.65867,-151.88267 v 151.88267 h -30.93333 v -222.10134 h 42.06933 l 41.45067,128.064 40.21333,-128.064 h 39.59467 v 222.10134 h -30.624 v -151.57334" /></g><g
         id="text184"
         transform="matrix(1,0,0,-1,1688.99,1673.4308)"><path
           inkscape:connector-curvature="0"
           id="path4581"
           style="font-variant:normal;font-weight:normal;font-size:290px;font-family:BlueHighwayD;-inkscape-font-specification:BlueHighwayD-Regular;writing-mode:lr-tb;fill:#000000;fill-opacity:1;fill-rule:nonzero;stroke:none;stroke-width:1.06666672"
           d="m 860.3952,-496.13548 v 158.06934 h -30.624 v -222.10134 h 37.73867 l 68.05333,151.57334 v -151.57334 h 30.93333 v 222.10134 H 931.54187 L 860.3952,-496.13548" /></g><g
         id="text190"
         transform="matrix(1,0,0,-1,1688.99,1673.4308)"><path
           inkscape:connector-curvature="0"
           id="path4578"
           style="font-variant:normal;font-weight:normal;font-size:290px;font-family:BlueHighwayD;-inkscape-font-specification:BlueHighwayD-Regular;writing-mode:lr-tb;fill:#000000;fill-opacity:1;fill-rule:nonzero;stroke:none;stroke-width:1.06666672"
           d="m 1088.9134,-334.97281 c -11.7548,0 -22.4783,-2.57778 -32.1707,-7.73333 -9.4863,-5.36177 -17.7352,-12.88888 -24.7467,-22.58134 -7.0116,-9.89863 -12.4764,-21.85951 -16.3946,-35.88266 -3.7121,-14.22926 -5.5681,-30.21147 -5.568,-47.94667 -10e-5,-17.94121 1.8559,-33.92341 5.568,-47.94667 3.9182,-14.22916 9.383,-26.19003 16.3946,-35.88266 7.0115,-9.89847 15.2604,-17.42557 24.7467,-22.58134 9.6924,-5.15534 20.4159,-7.73311 32.1707,-7.73333 11.7545,2.2e-4 22.4781,2.57799 32.1707,7.73333 9.6922,5.15577 18.0442,12.68287 25.056,22.58134 7.0114,9.69263 12.3731,21.6535 16.0853,35.88266 3.918,14.02326 5.8771,30.00546 5.8773,47.94667 -2e-4,17.7352 -1.9593,33.71741 -5.8773,47.94667 -3.7122,14.02315 -9.0739,25.98403 -16.0853,35.88266 -7.0118,9.69246 -15.3638,17.21957 -25.056,22.58134 -9.6926,5.15555 -20.4162,7.73333 -32.1707,7.73333 m 0,-34.64533 c 14.2292,3e-5 25.8807,-6.49597 34.9547,-19.488 9.2797,-12.99194 13.9197,-32.99548 13.92,-60.01067 -3e-4,-27.01498 -4.2278,-47.01851 -12.6827,-60.01067 -8.4553,-13.19803 -20.5193,-19.79714 -36.192,-19.79733 -15.4668,1.9e-4 -27.4277,6.5993 -35.8827,19.79733 -8.4552,12.99216 -12.6827,32.99569 -12.6827,60.01067 0,27.01519 4.5369,47.01873 13.6107,60.01067 9.0737,12.99203 20.7252,19.48803 34.9547,19.488" /></g><g
         id="text196"
         transform="matrix(1,0,0,-1,1688.99,1673.4308)"><path
           inkscape:connector-curvature="0"
           id="path4575"
           style="font-variant:normal;font-weight:normal;font-size:290px;font-family:BlueHighwayD;-inkscape-font-specification:BlueHighwayD-Regular;writing-mode:lr-tb;fill:#000000;fill-opacity:1;fill-rule:nonzero;stroke:none;stroke-width:1.06666672"
           d="m 1250.9233,-527.06881 v 68.672 h 40.832 c 10.1048,1.2e-4 17.4256,-2.78388 21.9627,-8.352 4.5367,-5.56787 6.8052,-13.91986 6.8053,-25.056 -10e-5,-11.75451 -2.2686,-20.51894 -6.8053,-26.29333 -4.5371,-5.98026 -11.8579,-8.97048 -21.9627,-8.97067 h -40.832 m 0,101.46133 v 87.54134 H 1219.99 v -222.10134 h 69.2906 c 8.8675,2.3e-4 17.1163,1.44378 24.7467,4.33067 7.6301,2.6811 14.1261,6.80555 19.488,12.37333 5.5678,5.56821 9.8985,12.57975 12.992,21.03467 3.0931,8.45528 4.6398,18.35394 4.64,29.696 -2e-4,21.85969 -5.6712,38.56367 -17.0133,50.112 -11.1361,11.34231 -26.0873,17.01342 -44.8534,17.01333 h -38.3573" /></g><g
         id="text202"
         transform="matrix(1,0,0,-1,1688.99,1673.4308)"><path
           inkscape:connector-curvature="0"
           id="path4572"
           style="font-variant:normal;font-weight:normal;font-size:290px;font-family:BlueHighwayD;-inkscape-font-specification:BlueHighwayD-Regular;writing-mode:lr-tb;fill:#000000;fill-opacity:1;fill-rule:nonzero;stroke:none;stroke-width:1.06666672"
           d="m 1470.7801,-334.97281 c -11.7547,0 -22.4783,-2.57778 -32.1707,-7.73333 -9.4863,-5.36177 -17.7352,-12.88888 -24.7467,-22.58134 -7.0115,-9.89863 -12.4765,-21.85951 -16.3946,-35.88266 -3.712,-14.22926 -5.568,-30.21147 -5.568,-47.94667 0,-17.94121 1.856,-33.92341 5.568,-47.94667 3.9181,-14.22916 9.3831,-26.19003 16.3946,-35.88266 7.0115,-9.89847 15.2604,-17.42557 24.7467,-22.58134 9.6924,-5.15534 20.416,-7.73311 32.1707,-7.73333 11.7545,2.2e-4 22.4781,2.57799 32.1706,7.73333 9.6924,5.15577 18.0444,12.68287 25.056,22.58134 7.0114,9.69263 12.3732,21.6535 16.0854,35.88266 3.918,14.02326 5.8772,30.00546 5.8773,47.94667 -10e-5,18.76631 -2.1655,35.36719 -6.496,49.80267 -4.1246,14.22937 -9.8988,26.29336 -17.3227,36.192 l 14.848,21.65333 -21.9626,19.79733 -13.92,-22.272 c -10.3112,5.98044 -21.7565,8.97067 -34.336,8.97067 m 0,-33.408 c 6.1865,3e-5 11.7545,-1.1342 16.704,-3.40267 l -27.5307,-40.52266 21.6533,-20.72534 26.6027,42.06934 c 4.1244,-6.59905 7.0114,-14.64172 8.6613,-24.128 1.8559,-9.69237 2.7839,-21.03457 2.784,-34.02667 -10e-5,-27.01498 -4.2276,-47.01851 -12.6826,-60.01067 -8.4552,-13.19803 -20.5192,-19.79714 -36.192,-19.79733 -15.4667,1.9e-4 -27.4277,6.5993 -35.8827,19.79733 -8.4552,12.99216 -12.6827,32.99569 -12.6827,60.01067 0,26.80897 4.5369,47.01873 13.6107,60.62933 9.0737,13.40448 20.7253,20.1067 34.9547,20.10667" /></g><g
         id="text208"
         transform="matrix(1,0,0,-1,1688.99,1673.4308)"><path
           inkscape:connector-curvature="0"
           id="path4569"
           style="font-variant:normal;font-weight:normal;font-size:290px;font-family:BlueHighwayD;-inkscape-font-specification:BlueHighwayD-Regular;writing-mode:lr-tb;fill:#000000;fill-opacity:1;fill-rule:nonzero;stroke:none;stroke-width:1.06666672"
           d="m 1631.0884,-527.06881 v 68.672 h 40.832 c 10.1048,1.2e-4 17.4256,-2.78388 21.9627,-8.352 4.5367,-5.56787 6.8051,-13.91986 6.8053,-25.056 -2e-4,-11.75451 -2.2686,-20.51894 -6.8053,-26.29333 -4.5371,-5.98026 -11.8579,-8.97048 -21.9627,-8.97067 h -40.832 m 31.8614,101.46133 h -31.8614 v 87.54134 h -30.9333 v -222.10134 h 69.2907 c 20.622,2.3e-4 36.0887,5.98066 46.4,17.94134 10.3109,11.75485 15.4664,28.25261 15.4666,49.49333 -2e-4,16.08547 -3.2997,29.28368 -9.8986,39.59467 -6.5993,10.31121 -15.7763,17.52898 -27.5307,21.65333 l 37.7387,93.41867 h -33.408 l -35.264,-87.54134" /></g><g
         id="text214"
         transform="matrix(1,0,0,-1,-16.870374,1115.4375)"><path
           inkscape:connector-curvature="0"
           id="path4566"
           style="font-variant:normal;font-weight:normal;font-size:290px;font-family:BlueHighwayD;-inkscape-font-specification:BlueHighwayD-Regular;writing-mode:lr-tb;fill:#000000;fill-opacity:1;fill-rule:nonzero;stroke:none;stroke-width:1.06666672"
           d="m 84.133409,-671.87948 c 6.59908,4.94938 13.610628,9.07382 21.034671,12.37334 7.63016,3.29958 16.70393,4.94936 27.22133,4.94933 10.10481,3e-5 18.14746,-2.37152 24.128,-7.11467 5.98034,-4.94929 8.97056,-11.75462 8.97066,-20.416 -1e-4,-7.83638 -2.88721,-14.74482 -8.66133,-20.72533 -5.56809,-6.18658 -14.02319,-13.09502 -25.36533,-20.72533 -7.21785,-4.74301 -14.95117,-9.89856 -23.2,-15.46667 -8.04271,-5.7741 -15.26048,-12.57944 -21.653334,-20.416 -4.33069,-5.36164 -7.424021,-10.6203 -9.28,-15.776 -1.856017,-5.36162 -2.784016,-12.37317 -2.784,-21.03467 -1.6e-5,-8.66115 1.64976,-16.29137 4.949333,-22.89066 3.299532,-6.59892 7.630194,-12.0638 12.992,-16.39467 5.567961,-4.53667 11.857731,-7.93934 18.869331,-10.208 7.21772,-2.26822 14.64171,-3.40244 22.272,-3.40267 11.54836,2.3e-4 22.16879,1.44378 31.86133,4.33067 9.89855,2.68111 16.91011,6.49621 21.03467,11.44533 l -8.352,34.02667 c -4.94945,-4.74293 -10.92989,-8.45493 -17.94133,-11.136 -7.01165,-2.6807 -15.15742,-4.02114 -24.43734,-4.02133 -9.48629,1.9e-4 -17.01339,1.95929 -22.58133,5.87733 -5.36182,3.71218 -8.04271,9.07395 -8.04266,16.08533 -5e-5,3.91839 1.03106,7.63038 3.09333,11.136 2.26839,3.29971 4.94928,6.49615 8.04266,9.58934 3.2995,2.88725 6.90839,5.56813 10.82667,8.04266 3.91816,2.47481 7.63015,4.84636 11.136,7.11467 8.2488,5.3619 15.87902,10.51745 22.89067,15.46667 7.21767,4.94944 13.40433,10.2081 18.56,15.776 5.15543,5.36187 9.17676,11.34231 12.064,17.94133 3.09319,6.39296 4.63986,13.81696 4.64,22.272 -1.4e-4,9.89872 -1.64991,18.86938 -4.94934,26.912 -3.29968,7.83647 -7.83656,14.53869 -13.61066,20.10667 -5.77434,5.56801 -12.57966,9.89866 -20.416,12.992 -7.83654,2.8871 -16.29164,4.33066 -25.36534,4.33066 -13.19828,0 -24.6436,-1.75289 -34.335994,-5.25866 -9.692474,-3.50577 -18.044465,-7.93956 -25.056,-13.30134 l 11.445333,-32.48" /></g><g
         id="text220"
         transform="matrix(1,0,0,-1,-16.870374,1115.4375)"><path
           inkscape:connector-curvature="0"
           id="path4563"
           style="font-variant:normal;font-weight:normal;font-size:290px;font-family:BlueHighwayD;-inkscape-font-specification:BlueHighwayD-Regular;writing-mode:lr-tb;fill:#000000;fill-opacity:1;fill-rule:nonzero;stroke:none;stroke-width:1.06666672"
           d="m 342.34818,-623.93281 h -33.71733 v -189.00267 h -51.04 v -33.09866 h 135.17866 v 33.09866 h -50.42133 v 189.00267" /></g><g
         id="text226"
         transform="matrix(1,0,0,-1,-16.870374,1115.4375)"><path
           inkscape:connector-curvature="0"
           id="path4560"
           style="font-variant:normal;font-weight:normal;font-size:290px;font-family:BlueHighwayD;-inkscape-font-specification:BlueHighwayD-Regular;writing-mode:lr-tb;fill:#000000;fill-opacity:1;fill-rule:nonzero;stroke:none;stroke-width:1.06666672"
           d="m 517.50555,-620.83948 c -10.72363,0 -20.31295,-1.95911 -28.768,-5.87733 -8.24894,-3.91822 -15.3636,-9.48621 -21.344,-16.704 -5.77425,-7.21775 -10.20802,-15.87908 -13.30134,-25.984 -3.09335,-10.31106 -4.64002,-21.75638 -4.64,-34.336 v -142.29333 h 30.624 v 142.29333 c -4e-5,18.56006 3.1964,31.55204 9.58934,38.976 6.39282,7.42403 15.67282,11.13603 27.84,11.136 11.54835,3e-5 20.31279,-3.71197 26.29333,-11.136 5.98033,-7.42396 8.97055,-20.41594 8.97067,-38.976 v -142.29333 h 30.624 v 142.29333 c -1.5e-4,12.3734 -1.4437,23.7156 -4.33067,34.02667 -2.88725,10.10492 -7.11481,18.86935 -12.68267,26.29333 -5.56812,7.21779 -12.47656,12.78578 -20.72533,16.704 -8.04277,3.91822 -17.42588,5.87733 -28.14933,5.87733" /></g><g
         id="text232"
         transform="matrix(1,0,0,-1,-16.870374,1115.4375)"><path
           inkscape:connector-curvature="0"
           id="path4557"
           style="font-variant:normal;font-weight:normal;font-size:290px;font-family:BlueHighwayD;-inkscape-font-specification:BlueHighwayD-Regular;writing-mode:lr-tb;fill:#000000;fill-opacity:1;fill-rule:nonzero;stroke:none;stroke-width:1.06666672"
           d="m 687.86811,-623.93281 -59.08267,-222.10133 h 35.57333 l 42.688,175.392 42.688,-175.392 h 35.57334 l -60.32,222.10133 h -37.12" /></g><g
         id="text238"
         transform="matrix(0.95902088,0,0,-1,20.205026,1115.4375)"><path
           inkscape:connector-curvature="0"
           id="path4554"
           style="font-variant:normal;font-weight:normal;font-size:290px;font-family:BlueHighwayCondensed;-inkscape-font-specification:BlueHighwayCondensed-Regular;writing-mode:lr-tb;fill:#000000;fill-opacity:1;fill-rule:nonzero;stroke:none;stroke-width:1.06666672"
           d="m 843.53804,-623.93281 -31.24267,-222.10133 h 30.93333 l 19.488,150.02666 19.79734,-150.02666 h 31.24266 l 19.17867,149.408 19.79733,-149.408 h 31.24267 l -32.48,222.10133 h -38.048 l -16.08533,-115.69067 -17.32267,115.69067 h -36.50133" /></g><g
         id="text244"
         transform="matrix(1,0,0,-1,-16.870374,1115.4375)"><path
           inkscape:connector-curvature="0"
           id="path4551"
           style="font-variant:normal;font-weight:normal;font-size:290px;font-family:BlueHighwayD;-inkscape-font-specification:BlueHighwayD-Regular;writing-mode:lr-tb;fill:#000000;fill-opacity:1;fill-rule:nonzero;stroke:none;stroke-width:1.06666672"
           d="m 1108.4013,-734.67414 54.752,110.74133 h -35.8827 l -39.2853,-80.736 -39.5947,80.736 h -35.5733 l 55.3706,-111.97867 -55.3706,-110.12266 h 36.5013 l 40.2133,78.88 40.5227,-78.88 h 35.264 l -56.9173,111.36" /></g><g
         id="text250"
         transform="matrix(1,0,0,-1,-16.870374,1115.4375)"><path
           inkscape:connector-curvature="0"
           id="path4548"
           style="font-variant:normal;font-weight:normal;font-size:290px;font-family:BlueHighwayD;-inkscape-font-specification:BlueHighwayD-Regular;writing-mode:lr-tb;fill:#000000;fill-opacity:1;fill-rule:nonzero;stroke:none;stroke-width:1.06666672"
           d="m 1296.8599,-623.93281 h -33.408 v -84.13867 l -57.536,-137.96266 h 34.6454 l 39.904,100.224 39.5946,-100.224 h 34.336 l -57.536,137.344 v 84.75733" /></g><g
         id="text256"
         transform="matrix(1,0,0,-1,-16.870374,1115.4375)"><path
           inkscape:connector-curvature="0"
           id="path4545"
           style="font-variant:normal;font-weight:normal;font-size:290px;font-family:BlueHighwayD;-inkscape-font-specification:BlueHighwayD-Regular;writing-mode:lr-tb;fill:#000000;fill-opacity:1;fill-rule:nonzero;stroke:none;stroke-width:1.06666672"
           d="m 1409.9953,-657.65014 89.088,-157.45067 h -89.088 v -30.93333 h 123.424 v 34.336 l -89.088,157.14133 h 89.7067 v 30.624 h -124.0427 v -33.71733" /></g><g
         id="text262"
         transform="matrix(1,0,0,-1,-16.870374,1115.4375)"><path
           inkscape:connector-curvature="0"
           id="path4542"
           style="font-variant:normal;font-weight:normal;font-size:290px;font-family:BlueHighwayD;-inkscape-font-specification:BlueHighwayD-Regular;writing-mode:lr-tb;fill:#000000;fill-opacity:1;fill-rule:nonzero;stroke:none;stroke-width:1.06666672"
           d="m 1662.4876,-623.93281 c -4.7432,0 -8.7645,-2.16533 -12.064,-6.496 -3.0935,-4.53688 -4.6401,-9.79554 -4.64,-15.776 -10e-5,-6.39286 1.5465,-11.75464 4.64,-16.08533 3.2995,-4.33063 7.3208,-6.49596 12.064,-6.496 4.1243,4e-5 7.7332,2.16537 10.8266,6.496 3.0933,4.33069 4.6399,9.69247 4.64,16.08533 -10e-5,5.98046 -1.5467,11.23912 -4.64,15.776 -3.0934,4.33067 -6.7023,6.496 -10.8266,6.496 m 0,-120.64 c -4.7432,1.2e-4 -8.7645,-2.16522 -12.064,-6.496 -3.0935,-4.33054 -4.6401,-9.5892 -4.64,-15.776 -10e-5,-6.18652 1.5465,-11.44518 4.64,-15.776 3.2995,-4.33051 7.3208,-6.49584 12.064,-6.496 4.1243,1.6e-4 7.7332,2.16549 10.8266,6.496 3.0933,4.33082 4.6399,9.58948 4.64,15.776 -10e-5,6.1868 -1.5467,11.44546 -4.64,15.776 -3.0934,4.33078 -6.7023,6.49612 -10.8266,6.496" /></g><g
         id="text268"
         transform="matrix(1,0,0,-1,1695.0375,829.5707)"><path
           inkscape:connector-curvature="0"
           id="path4539"
           style="font-variant:normal;font-weight:normal;font-size:290px;font-family:BlueHighwayD;-inkscape-font-specification:BlueHighwayD-Regular;writing-mode:lr-tb;fill:#000000;fill-opacity:1;fill-rule:nonzero;stroke:none;stroke-width:1.06666672"
           d="m 133.93657,-909.79948 c -5.36181,0 -9.58936,-2.16533 -12.68267,-6.496 -3.09335,-4.53687 -4.64001,-9.79554 -4.64,-15.776 -1e-5,-6.39286 1.54665,-11.75463 4.64,-16.08533 3.09331,-4.33062 7.32086,-6.49596 12.68267,-6.496 4.74307,4e-5 8.86752,2.16538 12.37333,6.496 3.71196,4.3307 5.56795,9.69247 5.568,16.08533 -5e-5,5.98046 -1.85604,11.23913 -5.568,15.776 -3.50581,4.33067 -7.63026,6.496 -12.37333,6.496" /></g><g
         id="text274"
         transform="matrix(1,0,0,-1,1695.0375,829.5707)"><path
           inkscape:connector-curvature="0"
           id="path4536"
           style="font-variant:normal;font-weight:normal;font-size:290px;font-family:BlueHighwayD;-inkscape-font-specification:BlueHighwayD-Regular;writing-mode:lr-tb;fill:#000000;fill-opacity:1;fill-rule:nonzero;stroke:none;stroke-width:1.06666672"
           d="m 325.18082,-1102.8235 c -14.84807,2e-4 -25.46851,6.9086 -31.86133,20.7254 -6.18672,13.817 -9.28006,34.233 -9.28,61.248 -6e-5,27.84004 3.2995,48.25602 9.89866,61.24796 6.59906,12.99203 17.01326,19.48803 31.24267,19.488 14.43546,3e-5 24.95278,-6.49597 31.552,-19.488 6.80521,-12.99194 10.20787,-33.40792 10.208,-61.24796 -1.3e-4,-27.015 -3.09346,-47.431 -9.28,-61.248 -5.98056,-13.8168 -16.80722,-20.7252 -32.48,-20.7254 m 0,196.11736 c -23.09696,0 -40.83205,-9.69244 -53.20533,-29.07734 -12.37336,-19.59107 -18.56002,-47.94659 -18.56,-85.06662 -2e-5,-36.9137 6.08353,-65.1661 18.25066,-84.7574 12.37328,-19.5909 30.10838,-29.3864 53.20534,-29.3866 23.71544,2e-4 41.65676,9.7957 53.824,29.3866 12.37317,19.3851 18.55984,47.6375 18.56,84.7574 -1.6e-4,37.12003 -5.9806,65.47555 -17.94134,85.06662 -11.96102,19.3849 -30.00545,29.07734 -54.13333,29.07734" /></g><g
         id="text280"
         transform="matrix(1,0,0,-1,1695.0375,829.5707)"><path
           inkscape:connector-curvature="0"
           id="path4533"
           style="font-variant:normal;font-weight:normal;font-size:290px;font-family:BlueHighwayD;-inkscape-font-specification:BlueHighwayD-Regular;writing-mode:lr-tb;fill:#000000;fill-opacity:1;fill-rule:nonzero;stroke:none;stroke-width:1.06666672"
           d="m 504.512,-1081.4795 h -16.704 v -30.3146 c 6.18665,-0.4123 11.44531,-2.3714 15.776,-5.8774 4.53685,-3.5056 7.32085,-8.2486 8.352,-14.2293 h 23.2 v 222.10132 h -30.624 v -171.68002" /></g><g
         id="text286"
         transform="matrix(1,0,0,-1,1695.0375,829.5707)"><path
           inkscape:connector-curvature="0"
           id="path4530"
           style="font-variant:normal;font-weight:normal;font-size:290px;font-family:BlueHighwayD;-inkscape-font-specification:BlueHighwayD-Regular;writing-mode:lr-tb;fill:#000000;fill-opacity:1;fill-rule:nonzero;stroke:none;stroke-width:1.06666672"
           d="m 649.5113,-927.43148 c -3e-5,-12.57953 0.82486,-23.71552 2.47466,-33.408 1.85598,-9.69238 4.63997,-18.3537 8.352,-25.984 3.71197,-7.63014 8.35196,-14.43542 13.92,-20.41602 5.77417,-5.9803 12.5795,-11.4452 20.416,-16.3946 5.36171,-3.5057 10.62037,-6.3928 15.776,-8.6614 5.15547,-2.4745 9.69235,-5.5678 13.61067,-9.28 3.91812,-3.7118 6.39279,-7.6301 7.424,-11.7546 1.23723,-4.1243 1.85589,-9.7954 1.856,-17.0134 -1.1e-4,-9.2799 -1.85611,-16.3944 -5.568,-21.344 -3.7121,-5.1554 -10.20809,-7.7331 -19.488,-7.7333 -7.83651,2e-4 -14.74495,1.5469 -20.72533,4.64 -5.77428,3.0935 -11.23916,9.2802 -16.39467,18.56 l -20.416,-28.768 c 7.21775,-10.1047 15.46662,-17.6318 24.74667,-22.5813 9.48616,-4.9492 21.0346,-7.4238 34.64533,-7.424 8.04258,2e-4 15.36346,1.4437 21.96267,4.3306 6.59899,2.6811 12.2701,6.7024 17.01333,12.064 4.9492,5.362 8.76432,11.9611 11.44533,19.7974 2.68076,7.8366 4.0212,16.7041 4.02134,26.6026 -1.4e-4,10.5175 -1.34058,19.5913 -4.02134,27.2214 -2.47479,7.6303 -5.98056,14.3325 -10.51733,20.1066 -4.33078,5.5681 -9.48634,10.6206 -15.46667,15.1574 -5.98054,4.3307 -12.37343,8.4552 -19.17866,12.37329 -11.75475,6.80541 -19.90052,14.64184 -24.43734,23.50933 -4.33072,8.86761 -6.49605,19.28183 -6.496,31.24267 h 80.11734 v 32.78933 h -115.072 v -17.632" /></g><g
         id="text292"
         transform="matrix(1,0,0,-1,1695.0375,829.5707)"><path
           inkscape:connector-curvature="0"
           id="path4527"
           style="font-variant:normal;font-weight:normal;font-size:290px;font-family:BlueHighwayD;-inkscape-font-specification:BlueHighwayD-Regular;writing-mode:lr-tb;fill:#000000;fill-opacity:1;fill-rule:nonzero;stroke:none;stroke-width:1.06666672"
           d="m 895.6598,-906.70614 c -25.98405,0 -44.02847,-10.51733 -54.13334,-31.552 l 25.67467,-20.10667 c 2.47462,5.98048 5.98041,10.72359 10.51733,14.22933 4.74307,3.29959 10.7235,4.94937 17.94134,4.94934 8.66126,3e-5 15.36347,-3.29952 20.10666,-9.89867 4.94925,-6.59907 7.42391,-15.15728 7.424,-25.67467 -9e-5,-13.61059 -2.57786,-23.40613 -7.73333,-29.38662 -5.15564,-6.1866 -12.37341,-9.2799 -21.65333,-9.28 h -11.44534 v -32.7894 h 11.44534 c 7.63015,2e-4 13.09504,-2.3714 16.39466,-7.1146 3.29948,-4.9492 4.94925,-12.4763 4.94934,-22.5814 -9e-5,-7.8362 -1.54675,-14.126 -4.64,-18.8693 -3.09341,-4.9491 -8.24896,-7.4238 -15.46667,-7.424 -5.9805,2e-4 -10.31117,1.2375 -12.992,3.712 -2.47471,2.2686 -4.94938,5.4651 -7.424,9.5893 l -25.056,-10.8266 c 0.82488,-3.9181 2.47465,-7.9394 4.94933,-12.064 2.47465,-4.1243 5.67109,-7.8363 9.58934,-11.136 4.1244,-3.5056 8.7644,-6.3927 13.92,-8.6614 5.36173,-2.2682 11.23905,-3.4024 17.632,-3.4026 6.59904,2e-4 12.7857,1.2375 18.56,3.712 5.77413,2.4748 10.82657,6.0837 15.15733,10.8266 4.33056,4.7433 7.73323,10.7238 10.208,17.9414 2.47456,7.0117 3.71189,15.1575 3.712,24.4373 -1.1e-4,11.7548 -1.753,21.3441 -5.25867,28.768 -3.29965,7.4241 -8.24898,13.3015 -14.848,17.632 3.71191,1.4437 7.42391,3.8152 11.136,7.1147 3.7119,3.2996 7.01145,7.4241 9.89867,12.3733 3.09322,4.7432 5.46477,10.3112 7.11467,16.70399 1.85588,6.18674 2.78388,12.99207 2.784,20.416 -1.2e-4,9.89872 -1.34057,19.07559 -4.02134,27.53067 -2.681,8.45513 -6.4961,15.6729 -11.44533,21.65333 -4.94944,5.98045 -11.03298,10.72356 -18.25067,14.22933 -7.21785,3.29955 -15.46674,4.94934 -24.74666,4.94934" /></g><g
         id="text298"
         transform="matrix(1,0,0,-1,1695.0375,829.5707)"><path
           inkscape:connector-curvature="0"
           id="path4524"
           style="font-variant:normal;font-weight:normal;font-size:290px;font-family:BlueHighwayD;-inkscape-font-specification:BlueHighwayD-Regular;writing-mode:lr-tb;fill:#000000;fill-opacity:1;fill-rule:nonzero;stroke:none;stroke-width:1.06666672"
           d="m 1057.0516,-999.81548 h 44.544 v -80.42662 l -44.544,80.42662 m 74.8587,90.016 h -30.3147 v -57.536 h -79.808 v -27.84 l 78.88,-136.72532 h 31.2427 v 132.08532 h 20.416 v 32.48 h -20.416 v 57.536" /></g><g
         id="text304"
         transform="matrix(1,0,0,-1,1695.0375,829.5707)"><path
           inkscape:connector-curvature="0"
           id="path4521"
           style="font-variant:normal;font-weight:normal;font-size:290px;font-family:BlueHighwayD;-inkscape-font-specification:BlueHighwayD-Regular;writing-mode:lr-tb;fill:#000000;fill-opacity:1;fill-rule:nonzero;stroke:none;stroke-width:1.06666672"
           d="m 1275.0527,-906.70614 c -14.2293,0 -25.4685,-1.54667 -33.7173,-4.64 -8.0427,-3.09334 -15.1574,-7.32089 -21.344,-12.68267 l 15.4666,-32.78933 c 7.2177,5.77426 13.92,9.89869 20.1067,12.37333 6.3928,2.26848 12.6826,3.4027 18.8693,3.40267 11.1359,3e-5 20.1066,-3.50575 26.912,-10.51734 6.8053,-7.01151 10.2079,-17.32261 10.208,-30.93333 -10e-5,-14.43547 -2.9903,-25.26209 -8.9706,-32.47999 -5.9805,-7.2177 -13.3015,-10.8266 -21.9627,-10.8267 -5.1556,10e-5 -10.2081,1.2375 -15.1573,3.712 -4.9494,2.4748 -9.6925,6.4961 -14.2294,12.064 l -28.4586,-13.6106 7.7333,-108.2667 h 98.9867 v 33.0987 h -71.1467 l -4.3307,51.3493 c 4.1244,-4.1243 8.6614,-7.1145 13.6107,-8.9707 4.9492,-2.0621 10.0017,-3.0932 15.1573,-3.0933 18.7662,1e-4 33.2017,6.8055 43.3067,20.416 10.1047,13.6108 15.1572,32.5832 15.1573,56.91732 -10e-5,12.37339 -1.6499,23.30316 -4.9493,32.78934 -3.2996,9.28003 -7.9396,17.11647 -13.92,23.50933 -5.7743,6.3929 -12.7859,11.23911 -21.0347,14.53867 -8.0427,3.09333 -16.8071,4.64 -26.2933,4.64" /></g><g
         id="text310"
         transform="matrix(1,0,0,-1,1695.0375,829.5707)"><path
           inkscape:connector-curvature="0"
           id="path4518"
           style="font-variant:normal;font-weight:normal;font-size:290px;font-family:BlueHighwayD;-inkscape-font-specification:BlueHighwayD-Regular;writing-mode:lr-tb;fill:#000000;fill-opacity:1;fill-rule:nonzero;stroke:none;stroke-width:1.06666672"
           d="m 1472.9449,-1023.3248 c -9.4862,10e-5 -16.8072,3.7121 -21.9627,11.136 -5.1555,7.4241 -7.7333,17.63207 -7.7333,30.62399 0,12.99205 2.2684,23.30316 6.8053,30.93333 4.7431,7.63025 11.8578,11.44537 21.344,11.44534 9.4862,3e-5 16.9102,-3.71197 22.272,-11.136 5.568,-7.63018 8.352,-17.94128 8.352,-30.93334 0,-12.99191 -2.681,-23.19992 -8.0427,-30.62402 -5.1556,-7.6301 -12.1671,-11.4452 -21.0346,-11.4453 m -3.4027,116.61866 c -8.6613,0 -16.4978,-2.06223 -23.5093,-6.18667 -7.0116,-4.12444 -12.992,-10.00177 -17.9414,-17.632 -4.743,-7.6302 -8.455,-16.91019 -11.136,-27.84 -2.6808,-10.92972 -4.0213,-23.19993 -4.0213,-36.81067 0,-18.14742 2.0623,-35.36702 6.1867,-51.65862 4.1244,-16.2914 9.7956,-30.6239 17.0133,-42.9974 7.2178,-12.3731 15.776,-22.3749 25.6747,-30.0053 10.1048,-7.63 21.0346,-11.9606 32.7893,-12.992 l 4.9493,30.9333 c -6.8053,1.65 -13.3013,4.0216 -19.488,7.1147 -6.1866,3.0935 -11.8578,7.3211 -17.0133,12.6827 -4.9493,5.3619 -9.28,12.0641 -12.992,20.1066 -3.5058,7.8366 -6.0835,17.4259 -7.7333,28.768 1.856,-2.6807 4.1244,-5.2585 6.8053,-7.7333 2.8871,-2.6808 5.8773,-4.9492 8.9707,-6.8053 3.2995,-2.0621 6.7021,-3.7119 10.208,-4.9494 3.5057,-1.2372 6.9083,-1.8558 10.208,-1.856 7.424,2e-4 14.2293,1.7531 20.416,5.2587 6.3928,3.2997 11.8577,8.1459 16.3946,14.5387 4.5369,6.1867 8.0426,13.6107 10.5174,22.272 2.6808,8.6614 4.0212,18.25071 4.0213,28.76796 -10e-5,25.5716 -5.465,44.85336 -16.3947,57.84533 -10.7236,12.78578 -25.3653,19.17867 -43.9253,19.17867" /></g><g
         id="text316"
         transform="matrix(1,0,0,-1,1695.0375,829.5707)"><path
           inkscape:connector-curvature="0"
           id="path4515"
           style="font-variant:normal;font-weight:normal;font-size:290px;font-family:BlueHighwayD;-inkscape-font-specification:BlueHighwayD-Regular;writing-mode:lr-tb;fill:#000000;fill-opacity:1;fill-rule:nonzero;stroke:none;stroke-width:1.06666672"
           d="m 1630.4695,-909.79948 c 0.8248,-18.76621 2.6808,-37.22307 5.568,-55.37066 2.8871,-18.35371 6.7021,-35.67636 11.4454,-51.96796 4.9492,-16.4977 10.7234,-31.655 17.3226,-45.472 6.8053,-14.023 14.4355,-26.087 22.8907,-36.192 h -83.2107 v -33.0987 h 117.5467 v 38.048 c -8.6615,8.8677 -16.6011,20.0037 -23.8187,33.408 -7.0117,13.1983 -13.0952,27.8401 -18.2506,43.9253 -5.1558,16.0854 -9.1771,33.30498 -12.064,51.65869 -2.8873,18.14759 -4.4339,36.50135 -4.64,55.06133 h -32.7894" /></g><g
         id="text322"
         transform="matrix(1,0,0,-1,-16.870052,265.53093)"><path
           inkscape:connector-curvature="0"
           id="path4512"
           style="font-variant:normal;font-weight:normal;font-size:290px;font-family:BlueHighwayD;-inkscape-font-specification:BlueHighwayD-Regular;writing-mode:lr-tb;fill:#000000;fill-opacity:1;fill-rule:nonzero;stroke:none;stroke-width:1.06666672"
           d="m 135.4846,-1304.2421 c -21.44717,10e-5 -32.17071,13.8169 -32.17067,41.4506 -4e-5,12.992 2.88707,22.8907 8.66133,29.696 5.77417,6.5992 13.61061,9.8987 23.50934,9.8987 9.89858,0 17.6319,-2.9902 23.2,-8.9707 5.56789,-6.1866 8.35189,-16.3946 8.352,-30.624 -1.1e-4,-14.2292 -2.47478,-24.6435 -7.424,-31.2426 -4.94943,-6.8053 -12.99209,-10.2079 -24.128,-10.208 m 0,-86.304 c -8.04273,2e-4 -13.81695,2.5779 -17.32267,7.7333 -3.29962,4.9495 -4.94939,11.8579 -4.94933,20.7253 -6e-5,17.7353 7.42393,26.6028 22.272,26.6027 6.59903,10e-5 11.65146,-2.4746 15.15733,-7.424 3.50569,-4.9492 5.25857,-11.3421 5.25867,-19.1787 -1e-4,-8.8674 -1.54677,-15.7758 -4.64,-20.7253 -2.8872,-5.1554 -8.14587,-7.7331 -15.776,-7.7333 m -0.928,197.9733 c -9.07385,0 -17.32272,-1.5467 -24.74667,-4.64 -7.21782,-3.0933 -13.404481,-7.6302 -18.56,-13.6107 -5.155582,-5.9804 -9.176911,-13.1982 -12.064,-21.6533 -2.887128,-8.6613 -4.330682,-18.56 -4.330667,-29.696 -1.5e-5,-7.4239 0.721762,-14.4355 2.165333,-21.0347 1.649759,-6.8052 3.81509,-12.8888 6.496,-18.2506 2.887085,-5.5679 6.186637,-10.2079 9.898667,-13.92 3.918186,-3.7119 8.042627,-6.2897 12.373337,-7.7334 -6.599154,-5.3617 -11.239149,-11.7545 -13.920004,-19.1786 -2.680917,-7.6301 -4.021361,-15.7759 -4.021333,-24.4374 -2.8e-5,-16.7038 4.124413,-29.902 12.373337,-39.5946 8.45506,-9.6923 19.79727,-14.5385 34.02666,-14.5387 15.05414,2e-4 26.9119,4.434 35.57334,13.3013 8.86743,8.6616 13.3012,22.3753 13.30133,41.1414 -1.3e-4,8.8677 -1.44368,17.2197 -4.33067,25.056 -2.88723,7.6304 -8.249,14.2294 -16.08533,19.7973 5.15545,1.2374 9.79545,3.8153 13.92,7.7333 4.12432,3.7121 7.52699,8.249 10.208,13.6107 2.88698,5.3618 5.05231,11.3423 6.496,17.9413 1.44342,6.5992 2.1652,13.3015 2.16533,20.1067 -1.3e-4,22.4783 -5.46502,39.6978 -16.39466,51.6587 -10.92989,11.9608 -25.77787,17.9413 -44.544,17.9413" /></g><g
         id="text328"
         transform="matrix(1,0,0,-1,-16.87014,265.53093)"><path
           inkscape:connector-curvature="0"
           id="path4509"
           style="font-variant:normal;font-weight:normal;font-size:290px;font-family:BlueHighwayD;-inkscape-font-specification:BlueHighwayD-Regular;writing-mode:lr-tb;fill:#000000;fill-opacity:1;fill-rule:nonzero;stroke:none;stroke-width:1.06666672"
           d="m 323.17034,-1303.3141 c 9.48614,10e-5 16.70391,-3.6088 21.65333,-10.8267 5.15547,-7.4239 7.73324,-17.6319 7.73333,-30.624 -9e-5,-12.9919 -2.37165,-23.3029 -7.11466,-30.9333 -4.74319,-7.8363 -11.75475,-11.7545 -21.03467,-11.7547 -9.28005,2e-4 -16.60094,3.9184 -21.96267,11.7547 -5.15559,7.6304 -7.73336,17.7352 -7.73333,30.3146 -3e-5,12.9921 2.37152,23.3033 7.11467,30.9334 4.94928,7.4241 12.06394,11.1361 21.344,11.136 m 4.02133,-117.5467 c 8.86748,2e-4 16.70391,2.1655 23.50933,6.496 7.01146,4.1247 12.88878,10.1051 17.632,17.9413 4.94922,7.6304 8.66122,17.0136 11.136,28.1494 2.68077,11.1361 4.02121,23.5094 4.02134,37.12 -1.3e-4,18.3539 -2.06235,35.7796 -6.18667,52.2773 -4.12457,16.2916 -9.89877,30.7271 -17.32267,43.3067 -7.21787,12.3733 -15.8792,22.3751 -25.984,30.0053 -9.89873,7.6302 -20.8285,11.7547 -32.78933,12.3733 l -3.712,-31.2426 c 6.39284,-0.6187 12.5795,-2.4747 18.56,-5.568 5.98038,-3.0934 11.44526,-7.424 16.39467,-12.992 4.94925,-5.568 9.1768,-12.4764 12.68266,-20.7254 3.71191,-8.2488 6.28969,-17.9412 7.73334,-29.0773 -3.09343,6.5991 -8.04276,11.7548 -14.848,15.4667 -6.59919,3.7121 -13.3014,5.5681 -20.10667,5.568 -7.8365,10e-5 -14.95116,-1.7529 -21.344,-5.2587 -6.39292,-3.5057 -11.8578,-8.3519 -16.39467,-14.5387 -4.5369,-6.1865 -8.14579,-13.6105 -10.82666,-22.272 -2.47468,-8.6612 -3.71201,-18.2505 -3.712,-28.768 -1e-5,-25.5714 5.36176,-44.9562 16.08533,-58.1546 10.92974,-13.4043 26.08706,-20.1065 45.472,-20.1067" /></g><g
         id="text334"
         transform="matrix(1,0,0,-1,-16.870337,265.53093)"><path
           inkscape:connector-curvature="0"
           id="path4506"
           style="font-variant:normal;font-weight:normal;font-size:290px;font-family:BlueHighway;-inkscape-font-specification:BlueHighway-Regular;writing-mode:lr-tb;fill:#000000;fill-opacity:1;fill-rule:nonzero;stroke:none;stroke-width:1.06666672"
           d="m 523.38353,-1247.0155 c 12.37323,-4.5368 18.55989,-12.992 18.56,-25.3653 -1.1e-4,-4.743 -1.753,-8.9706 -5.25867,-12.6827 -3.29965,-3.7119 -7.73343,-6.7022 -13.30133,-8.9706 v 47.0186 m -29.38667,-120.64 c -4.94939,0.6188 -8.55828,2.4748 -10.82666,5.568 -2.26849,3.0935 -3.40272,6.9086 -3.40267,11.4454 -5e-5,3.2997 1.23728,6.4961 3.712,9.5893 2.47461,3.0934 5.98038,5.4651 10.51733,7.1147 v -33.7174 m 29.38667,171.9894 h -29.38667 v -19.7974 c -8.66138,-1.2373 -16.80715,-2.9902 -24.43733,-5.2586 -7.42403,-2.2685 -14.22935,-5.1556 -20.416,-8.6614 l 9.28,-30.3146 c 4.74308,2.8871 10.00174,5.568 15.776,8.0426 5.9804,2.2685 12.5795,4.1245 19.79733,5.568 v -54.4426 c -30.52091,-10.1048 -45.78135,-27.9431 -45.78133,-53.5147 -2e-5,-5.5679 1.03109,-10.8266 3.09333,-15.776 2.0622,-5.1554 4.94932,-9.5891 8.66134,-13.3013 3.91818,-3.9181 8.66129,-7.1145 14.22933,-9.5894 5.77418,-2.6807 12.37328,-4.3304 19.79733,-4.9493 v -20.1067 h 29.38667 v 18.8694 c 16.29145,2.2686 28.87099,6.5992 37.73867,12.992 l -8.352,31.552 c -5.98057,-5.1554 -15.77611,-9.0736 -29.38667,-11.7547 v 39.904 c 16.08523,3.9183 27.94299,10.2081 35.57333,18.8693 7.63009,8.4553 11.4452,20.1068 11.44534,34.9547 -1.4e-4,31.552 -15.67302,50.3182 -47.01867,56.2987 v 20.416" /></g><g
         id="text382"
         style="font-size:11.56309319px"
         transform="matrix(0.96359109,0,0,-1.0377846,-398.73726,265.53093)"><path
           inkscape:connector-curvature="0"
           id="path4497"
           style="font-variant:normal;font-weight:normal;font-size:279.44140625px;font-family:BlueHighwayD;-inkscape-font-specification:BlueHighwayD-Regular;writing-mode:lr-tb;fill:#000000;fill-opacity:1;fill-rule:nonzero;stroke:none;stroke-width:1.06666672"
           d="m 1292.5809,-1250.8975 c -4.5704,3.3782 -8.346,7.6506 -11.3266,12.817 -2.9808,5.1667 -4.4712,11.5255 -4.4712,19.0766 0,21.2624 9.6377,31.8936 28.913,31.8935 6.16,10e-5 11.6246,-1.4903 16.3938,-4.471 4.7691,-2.9807 8.4452,-6.7563 11.0287,-11.3268 l -40.5377,-47.9893 m 62.5949,71.537 c -5.3653,7.9486 -12.3203,14.5061 -20.865,19.6726 -8.5447,4.9679 -18.7785,7.4518 -30.7012,7.4518 -8.9422,0 -17.1888,-1.391 -24.7399,-4.173 -7.3525,-2.7819 -13.7113,-6.7562 -19.0765,-11.9228 -5.3654,-5.3653 -9.5384,-11.9228 -12.5191,-19.6727 -2.7819,-7.7497 -4.173,-16.5925 -4.1729,-26.5283 -10e-5,-7.7498 0.8942,-14.6053 2.6826,-20.5668 1.9872,-6.1601 4.471,-11.6248 7.4518,-16.394 2.9807,-4.769 6.3589,-8.8426 10.1344,-12.2209 3.9742,-3.5767 8.0479,-6.6568 12.2209,-9.2402 -8.346,-7.551 -14.2081,-15.4995 -17.5862,-23.8456 -3.3781,-8.3458 -5.0672,-17.5861 -5.0672,-27.7207 0,-9.1406 1.6891,-16.7911 5.0672,-22.9514 3.5768,-6.1599 8.0479,-11.0284 13.4132,-14.6055 5.3652,-3.7753 11.2273,-6.3586 17.5862,-7.7498 6.3588,-1.5895 12.4196,-2.3844 18.1824,-2.3846 31.794,2e-4 48.2873,15.0031 49.4796,45.0088 l -32.1915,12.5189 c -0.9937,-10.1342 -2.8815,-17.1886 -5.6634,-21.163 -2.7821,-3.9742 -7.3525,-5.9613 -13.7113,-5.9615 -6.5576,2e-4 -11.2274,1.9873 -14.0093,5.9615 -2.782,3.7757 -4.1731,9.6378 -4.1731,17.5862 0,2.7821 0.4968,5.8621 1.4905,9.2402 0.9935,3.3782 3.5767,8.2467 7.7498,14.6054 4.3716,6.1603 10.8298,14.4069 19.3746,24.74 8.5446,10.1345 20.3681,23.4483 35.4704,39.9414 2.5832,-5.564 4.471,-12.1215 5.6633,-19.6726 1.391,-7.5511 2.4839,-16.0958 3.2789,-25.6342 h 32.4897 c -10e-5,7.1538 -0.5963,14.4068 -1.7884,21.7592 -0.9938,7.3525 -2.2854,14.3075 -3.875,20.8649 -1.5899,6.5577 -3.4776,12.5191 -5.6634,17.8843 -1.9873,5.3653 -3.8749,9.6376 -5.6633,12.8171 l 37.855,46.4991 h -39.6434 l -18.4804,-24.1438" /></g><g
         id="text388"
         transform="matrix(1,0,0,-1,-398.73693,265.53093)"><path
           inkscape:connector-curvature="0"
           id="path4494"
           style="font-variant:normal;font-weight:normal;font-size:290px;font-family:BlueHighwayCondensed;-inkscape-font-specification:BlueHighwayCondensed-Regular;writing-mode:lr-tb;fill:#000000;fill-opacity:1;fill-rule:nonzero;stroke:none;stroke-width:1.06666672"
           d="m 1503.8794,-1289.6608 c 1.4434,5.1556 4.9492,7.7333 10.5173,7.7333 2.0621,0 3.8149,-0.8248 5.2587,-2.4746 1.6496,-1.6497 2.99,-4.4337 4.0213,-8.352 1.0309,-4.1244 1.7527,-9.5893 2.1653,-16.3947 0.6186,-6.8052 0.9279,-15.4666 0.928,-25.984 -10e-5,-19.7972 -4.1246,-35.4701 -12.3733,-47.0187 -8.0428,-11.7544 -21.1379,-17.6318 -39.2853,-17.632 -12.1672,2e-4 -21.9628,1.9593 -29.3867,5.8774 -7.2178,3.9184 -12.7858,9.7957 -16.704,17.632 -3.9183,7.8366 -6.5992,17.7352 -8.0427,29.696 -1.2373,11.7547 -1.856,25.4686 -1.856,41.1413 0,15.4668 1.2374,28.4587 3.712,38.976 2.4747,10.5173 5.9804,19.1787 10.5174,25.984 4.743,6.5991 10.2079,11.5485 16.3946,14.848 6.3929,3.2995 13.5075,5.568 21.344,6.8053 l -4.3306,23.5094 c -11.1361,-2.2685 -21.241,-5.9805 -30.3147,-11.136 -8.8676,-5.1557 -16.4978,-12.1672 -22.8907,-21.0347 -6.1866,-8.8675 -10.9298,-19.6942 -14.2293,-32.48 -3.2995,-12.7857 -4.9493,-28.0462 -4.9493,-45.7813 0,-39.8008 6.2898,-68.9813 18.8693,-87.5414 12.5795,-18.766 32.3768,-28.1491 59.392,-28.1493 24.9527,2e-4 44.1314,7.4242 57.536,22.272 13.6106,14.8481 20.4158,36.1921 20.416,64.032 -2e-4,13.1983 -0.6189,24.4374 -1.856,33.7173 -1.2374,9.0738 -3.4028,16.4978 -6.496,22.272 -2.8873,5.568 -6.7024,9.6925 -11.4453,12.3734 -4.5371,2.4746 -10.2081,3.712 -17.0134,3.712 -4.7432,0 -8.9707,-1.0311 -12.6826,-3.0934 -3.7121,-2.2683 -6.5993,-4.743 -8.6614,-7.424 -2.6809,2.681 -5.7743,5.1557 -9.28,7.424 -3.5059,2.2685 -8.2489,3.4027 -14.2293,3.4027 -8.6614,0 -15.4668,-3.6089 -20.416,-10.8267 -4.9494,-7.424 -7.424,-19.1785 -7.424,-35.264 0,-14.2292 2.3715,-24.9527 7.1147,-32.1706 4.9492,-7.2177 11.7545,-10.8266 20.416,-10.8267 4.743,10e-5 8.3519,0.6188 10.8266,1.856 2.4746,1.2374 4.6399,2.681 6.496,4.3307 v -5.2587 h 17.9414 v 61.248 m -31.8614,-45.1627 c -4.3307,10e-5 -7.3209,1.8561 -8.9706,5.568 -1.4437,3.7121 -2.1655,10.5175 -2.1654,20.416 -10e-5,9.2801 0.7217,15.8792 2.1654,19.7974 1.6497,3.9183 4.9492,5.8773 9.8986,5.8773 5.3617,0 9.2799,-1.8559 11.7547,-5.568 v -40.2133 c -3.0934,-3.9181 -7.321,-5.8773 -12.6827,-5.8774" /></g><g
         id="text394"
         transform="matrix(1,0,0,-1,-398.73652,265.53093)"><path
           inkscape:connector-curvature="0"
           id="path4491"
           style="font-variant:normal;font-weight:normal;font-size:290px;font-family:BlueHighwayCondensed;-inkscape-font-specification:BlueHighwayCondensed-Regular;writing-mode:lr-tb;fill:#000000;fill-opacity:1;fill-rule:nonzero;stroke:none;stroke-width:1.06666672"
           d="m 1587.7835,-1195.6661 v 0 m 30.624,-100.224 c -9.8987,10e-5 -17.529,-5.2586 -22.8907,-15.776 -5.1556,-10.5173 -7.7333,-26.3963 -7.7333,-47.6374 0,-21.6531 2.5777,-37.5322 7.7333,-47.6373 5.3617,-10.3109 12.992,-15.4665 22.8907,-15.4667 9.8985,2e-4 17.5288,5.1558 22.8906,15.4667 5.3617,10.1051 8.0426,25.9842 8.0427,47.6373 -10e-5,21.2411 -2.681,37.1201 -8.0427,47.6374 -5.3618,10.5174 -12.9921,15.7761 -22.8906,15.776 m 0,-21.344 c 3.7119,10e-5 6.4959,-3.2994 8.352,-9.8987 2.0622,-6.5989 3.0932,-17.3226 3.0933,-32.1707 -10e-5,-14.8478 -1.0311,-25.5714 -3.0933,-32.1706 -1.8561,-6.8052 -4.6401,-10.2078 -8.352,-10.208 -3.9183,2e-4 -6.8054,3.4028 -8.6614,10.208 -1.6498,6.5992 -2.4746,17.3228 -2.4746,32.1706 0,13.6108 0.8248,24.0251 2.4746,31.2427 1.856,7.2179 4.7431,10.8268 8.6614,10.8267 m -18.2507,121.568 103.008,-222.1014 h 21.344 l -103.6267,222.1014 h -20.7253 m 105.1733,4.9493 c -9.8987,0 -17.529,-5.2587 -22.8906,-15.776 -5.1557,-10.5173 -7.7335,-26.3964 -7.7334,-47.6373 -1e-4,-21.6533 2.5777,-37.5324 7.7334,-47.6374 5.3616,-10.311 12.9919,-15.4665 22.8906,-15.4666 9.8986,10e-5 17.5288,5.1556 22.8907,15.4666 5.3616,10.105 8.0425,25.9841 8.0427,47.6374 -2e-4,21.2409 -2.6811,37.12 -8.0427,47.6373 -5.3619,10.5173 -12.9921,15.776 -22.8907,15.776 m 0,-21.344 c 3.7119,0 6.4959,-3.2995 8.352,-9.8987 2.0621,-6.599 3.0933,-17.3226 3.0934,-32.1706 -10e-5,-14.8479 -1.0313,-25.5716 -3.0934,-32.1707 -1.8561,-6.8052 -4.6401,-10.2079 -8.352,-10.208 -3.9184,10e-5 -6.8054,3.4028 -8.6613,10.208 -1.6499,6.5991 -2.4748,17.3228 -2.4747,32.1707 -10e-5,13.6106 0.8248,24.0249 2.4747,31.2426 1.8559,7.2178 4.7429,10.8267 8.6613,10.8267" /></g><g
         id="text402"
         transform="matrix(1,0,0,-1,-16.870438,265.53093)"><path
           inkscape:connector-curvature="0"
           id="path4488"
           style="font-variant:normal;font-weight:normal;font-size:290px;font-family:BlueHighway;-inkscape-font-specification:BlueHighway-Regular;writing-mode:lr-tb;fill:#000000;fill-opacity:1;fill-rule:nonzero;stroke:none;stroke-width:1.06666672"
           d="m 638.71534,-1349.7141 h 12.992 c 5.36175,-21.6532 14.3324,-38.8728 26.912,-51.6587 12.78572,-12.9918 28.76792,-19.4878 47.94667,-19.488 20.41588,2e-4 37.42919,6.4962 51.04,19.488 l -15.46667,35.8827 c -5.15568,-6.1865 -10.51746,-10.7234 -16.08533,-13.6107 -5.36189,-3.0931 -11.85789,-4.6398 -19.488,-4.64 -9.89876,2e-4 -18.14764,3.0935 -24.74667,9.28 -6.59918,5.9806 -11.85784,14.2294 -15.776,24.7467 h 68.98133 l -13.61066,32.7893 h -61.86667 v 17.9413 h 54.13333 l -14.22933,33.408 h -32.78933 c 4.3306,11.136 9.8986,19.9005 16.704,26.2934 6.80524,6.3929 14.84791,9.5893 24.128,9.5893 5.77411,0 11.44522,-1.3404 17.01333,-4.0213 5.56788,-2.6809 10.62032,-5.9804 15.15733,-9.8987 l 19.488,28.768 c -12.99214,14.848 -30.52101,22.272 -52.58666,22.272 -9.07387,0 -17.63209,-1.7529 -25.67467,-5.2587 -7.83651,-3.5058 -14.95117,-8.4551 -21.344,-14.848 -6.39294,-6.3928 -11.96093,-14.023 -16.704,-22.8906 -4.74315,-9.0737 -8.45514,-19.0756 -11.136,-30.0054 h -18.56 l 5.568,-33.408 h 8.66133 v -18.56 h -14.22933 l 5.568,-32.1706" /></g><g
         id="text418"
         transform="matrix(1,0,0,-1,1320.7307,-16.069062)"><path
           inkscape:connector-curvature="0"
           id="path4485"
           style="font-variant:normal;font-weight:normal;font-size:290px;font-family:BlueHighway;-inkscape-font-specification:BlueHighway-Regular;writing-mode:lr-tb;fill:#000000;fill-opacity:1;fill-rule:nonzero;stroke:none;stroke-width:1.06666672"
           d="m 114.45033,-1584.6368 -45.472004,-45.472 20.106667,-19.7973 45.471997,45.472 45.16267,-45.472 19.79733,20.1066 -45.16266,45.1627 45.16266,45.1627 -19.79733,20.1066 -45.16267,-45.472 -45.471997,45.472 -20.106667,-19.7973 45.472004,-45.472" /></g><g
         id="text424"
         style="font-size:11.89938927px"
         transform="matrix(1.0084551,0,0,-0.99161576,1320.7305,-16.069062)"><path
           inkscape:connector-curvature="0"
           id="path4482"
           style="font-variant:normal;font-weight:bold;font-size:287.568573px;font-family:BlueHighway;-inkscape-font-specification:BlueHighway-Bold;writing-mode:lr-tb;fill:#000000;fill-opacity:1;fill-rule:nonzero;stroke:none;stroke-width:1.06666672"
           d="m 262.80762,-1472.9594 84.66019,-258.5816 h 32.51442 l -84.66019,258.5816 h -32.51442" /></g><g
         id="text430"
         transform="matrix(1,0,0,-1,1314.2377,-16.069079)"><path
           inkscape:connector-curvature="0"
           id="path4479"
           style="font-variant:normal;font-weight:normal;font-size:290px;font-family:BlueHighwayD;-inkscape-font-specification:BlueHighwayD-Regular;writing-mode:lr-tb;fill:#000000;fill-opacity:1;fill-rule:nonzero;stroke:none;stroke-width:1.06666672"
           d="m 497.4139,-1563.8795 v 0 m 17.32267,0 c -5.36181,10e-5 -9.58936,-2.1652 -12.68267,-6.496 -3.09335,-4.5368 -4.64001,-9.7954 -4.64,-15.776 -1e-5,-6.3927 1.54665,-11.7545 4.64,-16.0853 3.09331,-4.3306 7.32086,-6.4959 12.68267,-6.496 4.74307,10e-5 8.86752,2.1654 12.37333,6.496 3.71196,4.3308 5.56795,9.6926 5.568,16.0853 -5e-5,5.9806 -1.85604,11.2392 -5.568,15.776 -3.50581,4.3308 -7.63026,6.4961 -12.37333,6.496" /></g><g
         id="text450"
         transform="matrix(1,0,0,-1,1314.2372,-16.069079)"><path
           inkscape:connector-curvature="0"
           id="path4476"
           style="font-variant:normal;font-weight:bold;font-size:290px;font-family:BlueHighway;-inkscape-font-specification:BlueHighway-Bold;writing-mode:lr-tb;fill:#000000;fill-opacity:1;fill-rule:nonzero;stroke:none;stroke-width:1.06666672"
           d="m 818.653,-1616.1568 v -34.336 h 156.52267 v 34.336 H 818.653 m 0,92.8 v -34.336 h 156.52267 v 34.336 H 818.653" /></g><g
         id="text456"
         style="font-size:11.90561104px"
         transform="matrix(0.99213426,0,0,-1.0079281,1314.2371,-16.069079)"><path
           inkscape:connector-curvature="0"
           id="path4473"
           style="font-variant:normal;font-weight:bold;font-size:287.71893311px;font-family:BlueHighway;-inkscape-font-specification:BlueHighway-Bold;writing-mode:lr-tb;fill:#000000;fill-opacity:1;fill-rule:nonzero;stroke:none;stroke-width:1.06666672"
           d="m 1070.0992,-1577.0933 -56.7765,-30.6901 13.5036,-24.552 55.8558,32.8383 -1.5345,-65.0628 h 27.621 v 65.0628 l 55.2421,-34.0659 14.4243,24.2451 -56.4697,31.9177 56.7766,30.6899 -13.8105,24.5521 -55.5489,-32.8384 1.5344,65.0629 h -27.314 v -64.7559 l -55.549,34.0659 -14.1174,-24.5521 56.1627,-31.9175" /></g><g
         id="text462"
         transform="matrix(1,0,0,-1,1314.2375,-16.069079)"><path
           inkscape:connector-curvature="0"
           id="path4470"
           style="font-variant:normal;font-weight:normal;font-size:290px;font-family:BlueHighwayD;-inkscape-font-specification:BlueHighwayD-Regular;writing-mode:lr-tb;fill:#000000;fill-opacity:1;fill-rule:nonzero;stroke:none;stroke-width:1.06666672"
           d="m 1264.861,-1574.5568 h -64.3413 v -28.1493 h 64.3413 v -64.032 h 28.1493 v 64.032 h 64.032 v 28.1493 h -64.032 v 64.3413 h -28.1493 v -64.3413" /></g><g
         id="text468"
         transform="matrix(1,0,0,-1,1314.2378,-16.069079)"><path
           inkscape:connector-curvature="0"
           id="path4467"
           style="font-variant:normal;font-weight:normal;font-size:290px;font-family:BlueHighway;-inkscape-font-specification:BlueHighway-Regular;writing-mode:lr-tb;fill:#000000;fill-opacity:1;fill-rule:nonzero;stroke:none;stroke-width:1.06666672"
           d="m 1402.5868,-1620.7221 h 121.568 v 32.7893 h -121.568 v -32.7893" /></g><g
         id="text474"
         transform="matrix(1,0,0,-1,1314.2381,-16.069079)"><path
           inkscape:connector-curvature="0"
           id="path4464"
           style="font-variant:normal;font-weight:normal;font-size:290px;font-family:BlueHighwayCondensed;-inkscape-font-specification:BlueHighwayCondensed-Regular;writing-mode:lr-tb;fill:#000000;fill-opacity:1;fill-rule:nonzero;stroke:none;stroke-width:1.06666672"
           d="m 1583.453,-1495.8261 v 0 m 64.3413,-95.584 h -64.3413 v -28.1494 h 64.3413 v -64.032 h 28.1494 v 64.032 h 64.032 v 28.1494 h -64.032 v 64.3413 h -28.1494 v -64.3413 m -64.3413,109.1946 v -28.1493 h 156.5227 v 28.1493 H 1583.453" /></g><g
         id="text482"
         style="font-size:11.51867104px"
         transform="matrix(0.95988925,0,0,-1.0417869,1314.2374,-16.069079)"><path
           inkscape:connector-curvature="0"
           id="path4461"
           style="font-variant:normal;font-weight:bold;font-size:278.3678894px;font-family:BlueHighway;-inkscape-font-specification:BlueHighway-Bold;writing-mode:lr-tb;fill:#000000;fill-opacity:1;fill-rule:nonzero;stroke:none;stroke-width:1.06666672"
           d="M 714.41532,-1499.9635 H 747.671 l 10.98625,-50.4774 h -34.44338 l -9.79855,50.4774 m 69.48062,-49.8835 -10.68933,49.2897 h 34.14647 v 30.8803 h -39.49113 l -11.28318,51.6651 H 731.637 l 10.09548,-51.6651 h -33.55261 l -10.68932,51.6651 h -25.23869 l 10.09547,-51.6651 h -32.06798 v -30.8803 h 38.30342 l 9.79855,-49.2897 h -34.44338 v -31.1772 h 40.97575 l 9.50163,-50.1805 h 26.12946 l -9.50162,50.1805 h 32.95875 l 10.98626,-50.1805 h 25.23869 l -10.39241,50.1805 h 30.58335 v 31.1772 h -36.52186" /></g><g
         id="text498"
         style="font-size:11.37989998px"
         transform="matrix(1.0544909,0,0,-0.94832496,3034.7718,-295.53584)"><path
           inkscape:connector-curvature="0"
           id="path4458"
           style="font-variant:normal;font-weight:bold;font-size:275.01425171px;font-family:BlueHighway;-inkscape-font-specification:BlueHighway-Bold;writing-mode:lr-tb;fill:#000000;fill-opacity:1;fill-rule:nonzero;stroke:none;stroke-width:1.06666672"
           d="m 136.00878,-1833.7747 c -25.22801,-43.6112 -37.84199,-88.8846 -37.841963,-135.8204 -2.7e-5,-46.74 12.613953,-92.0134 37.841963,-135.8204 H 172.384 c -29.5305,40.0911 -44.29569,85.3646 -44.29564,135.8204 -5e-5,45.1757 14.4718,90.4491 43.41559,135.8204 h -35.49517" /></g><g
         id="text504"
         style="font-size:11.37990093px"
         transform="matrix(1.0544909,0,0,-0.94832492,3034.7715,-295.53584)"><path
           inkscape:connector-curvature="0"
           id="path4455"
           style="font-variant:normal;font-weight:bold;font-size:275.01428223px;font-family:BlueHighway;-inkscape-font-specification:BlueHighway-Bold;writing-mode:lr-tb;fill:#000000;fill-opacity:1;fill-rule:nonzero;stroke:none;stroke-width:1.06666672"
           d="m 258.11241,-1834.0716 c 7.82261,-11.9296 14.47185,-23.3701 19.9477,-34.3218 5.67138,-10.9517 10.26716,-21.8055 13.78739,-32.5617 3.52014,-10.9517 6.06248,-22.0011 7.62706,-33.1484 1.56447,-11.3427 2.34673,-23.2722 2.34678,-35.7884 -5e-5,-12.9074 -0.97787,-25.228 -2.93348,-36.962 -1.76014,-11.7338 -4.49806,-23.0767 -8.21376,-34.0284 -3.71579,-11.1471 -8.31157,-22.001 -13.78738,-32.5618 -5.47586,-10.5603 -11.83174,-21.3164 -19.06766,-32.2682 h 35.78852 c 13.10285,22.2946 22.68556,44.3935 28.74816,66.2967 6.06247,21.9035 9.09373,45.078 9.09381,69.5237 -8e-5,24.4457 -3.03134,47.6202 -9.09381,69.5236 -6.0626,21.9032 -15.64531,44.0022 -28.74816,66.2967 h -35.49517" /></g><g
         id="text510"
         transform="matrix(1,0,0,-1,3022.2312,254.76409)"><path
           inkscape:connector-curvature="0"
           id="path4452"
           style="font-variant:normal;font-weight:bold;font-size:290px;font-family:BlueHighway;-inkscape-font-specification:BlueHighway-Bold;writing-mode:lr-tb;fill:#000000;fill-opacity:1;fill-rule:nonzero;stroke:none;stroke-width:1.06666672"
           d="m 434.653,-1849.2235 v -34.336 l 156.52267,-58.7733 v 34.336 l -115.38133,41.76 115.38133,41.4507 v 34.336 L 434.653,-1849.2235" /></g><g
         id="text562"
         transform="matrix(1,0,0,-1,3022.231,254.76409)"><path
           inkscape:connector-curvature="0"
           id="path4449"
           style="font-variant:normal;font-weight:bold;font-size:290px;font-family:BlueHighway;-inkscape-font-specification:BlueHighway-Bold;writing-mode:lr-tb;fill:#000000;fill-opacity:1;fill-rule:nonzero;stroke:none;stroke-width:1.06666672"
           d="m 625.58634,-1790.4501 v -34.336 l 115.38133,-41.4507 -115.38133,-41.76 v -34.336 l 156.52266,58.7733 v 34.336 l -156.52266,58.7734" /></g><g
         id="text590"
         transform="matrix(1,0,0,-1,3787.0309,-32.16931)"><path
           inkscape:connector-curvature="0"
           id="path4446"
           style="font-variant:normal;font-weight:normal;font-size:290px;font-family:BlueHighwayD;-inkscape-font-specification:BlueHighwayD-Regular;writing-mode:lr-tb;fill:#000000;fill-opacity:1;fill-rule:nonzero;stroke:none;stroke-width:1.06666672"
           d="m 117.91675,-2046.9941 c 5.36175,-1.2374 9.17685,-3.5058 11.44533,-6.8054 2.47463,-3.0933 4.12441,-8.2489 4.94933,-15.4666 h -5.568 c -5.3618,0 -9.58935,-2.2685 -12.68266,-6.8054 -2.88713,-4.5368 -4.33069,-9.6924 -4.33067,-15.4666 -2e-5,-6.3929 1.64976,-11.7547 4.94933,-16.0854 3.50575,-4.3306 7.93953,-6.496 13.30134,-6.496 4.33062,0 8.35195,2.1654 12.064,6.496 3.91817,4.3307 5.87728,9.6925 5.87733,16.0854 -5e-5,6.1866 -0.61872,12.1671 -1.856,17.9413 -1.23739,5.568 -3.19649,10.5173 -5.87733,14.848 -2.47471,4.5369 -5.56805,8.2489 -9.28,11.136 -3.71204,3.0933 -8.0427,5.0524 -12.992,5.8773 v -5.2586" /></g><g
         id="text638"
         transform="matrix(1,0,0,-1,2450.4973,-32.16931)"><path
           inkscape:connector-curvature="0"
           id="path4422"
           style="font-variant:normal;font-weight:normal;font-size:290px;font-family:BlueHighwayD;-inkscape-font-specification:BlueHighwayD-Regular;writing-mode:lr-tb;fill:#000000;fill-opacity:1;fill-rule:nonzero;stroke:none;stroke-width:1.06666672"
           d="m 1639.9425,-2180.7008 -5.2587,-96.2027 h 28.4587 l -6.1867,96.2027 h -17.0133" /></g><g
         id="text626-2"
         transform="matrix(1,0,0,-1,2265.6121,-304.29615)"
         style="display:inline;opacity:0.92000002"><path
           inkscape:connector-curvature="0"
           id="path4428-0"
           style="font-variant:normal;font-weight:normal;font-size:290px;font-family:BlueHighwayD;-inkscape-font-specification:BlueHighwayD-Regular;writing-mode:lr-tb;fill:#000000;fill-opacity:1;fill-rule:nonzero;stroke:none;stroke-width:1.06666672"
           d="m 1275.4256,-2275.3143 c 4.5369,2e-4 8.8675,0.9282 12.992,2.784 4.1245,1.65 7.7333,4.0215 10.8267,7.1146 3.0933,3.0936 5.4648,6.7024 7.1146,10.8267 1.856,3.9184 2.784,8.146 2.784,12.6827 0,4.537 -0.928,8.8677 -2.784,12.992 -1.6498,3.9184 -4.0213,7.4242 -7.1146,10.5173 -3.0934,3.0935 -6.7022,5.5682 -10.8267,7.424 -4.1245,1.6499 -8.4551,2.4749 -12.992,2.4747 -4.5369,2e-4 -8.8675,-0.8248 -12.992,-2.4747 -3.9182,-1.8558 -7.424,-4.3305 -10.5173,-7.424 -2.8871,-3.0931 -5.2587,-6.5989 -7.1147,-10.5173 -1.6497,-4.1243 -2.4747,-8.455 -2.4747,-12.992 0,-4.5367 0.825,-8.7643 2.4747,-12.6827 1.856,-4.1243 4.2276,-7.7331 7.1147,-10.8267 3.0933,-3.0931 6.5991,-5.4646 10.5173,-7.1146 4.1245,-1.8558 8.4551,-2.7838 12.992,-2.784 m 0,18.2506 c -4.5369,2e-4 -8.2489,1.5469 -11.136,4.64 -2.8871,2.8874 -4.3307,6.3931 -4.3307,10.5174 0,4.537 1.4436,8.3522 4.3307,11.4453 2.8871,2.8872 6.5991,4.3309 11.136,4.3307 4.3307,2e-4 8.0427,-1.4435 11.136,-4.3307 3.0933,-3.0931 4.64,-6.9083 4.64,-11.4453 0,-4.1243 -1.5467,-7.63 -4.64,-10.5174 -3.0933,-3.0931 -6.8053,-4.6398 -11.136,-4.64" /></g><g
         id="text376-9"
         transform="matrix(1,0,0,-1,2834.1461,543.70393)"
         style="display:inline;opacity:0.92000002"><path
           inkscape:connector-curvature="0"
           id="path4500-2"
           style="font-variant:normal;font-weight:normal;font-size:290px;font-family:BlueHighway;-inkscape-font-specification:BlueHighway-Regular;writing-mode:lr-tb;fill:#000000;fill-opacity:1;fill-rule:nonzero;stroke:none;stroke-width:1.06666672"
           d="m 1029.9851,-1331.7728 h 12.6826 v -25.6747 c 0,-8.2487 0.928,-16.1882 2.784,-23.8186 1.856,-7.6301 4.8462,-14.3323 8.9707,-20.1067 4.3306,-5.9803 9.8986,-10.7233 16.704,-14.2293 6.8052,-3.5056 15.1572,-5.2585 25.056,-5.2587 11.9607,2e-4 21.1376,2.4749 27.5307,7.424 6.5989,4.7434 11.4452,10.6206 14.5386,17.632 l -21.0346,19.7973 c -2.2686,-4.1242 -5.2588,-7.2176 -8.9707,-9.28 -3.7121,-2.2682 -8.5583,-3.4024 -14.5387,-3.4026 -6.8054,2e-4 -12.0641,2.5779 -15.776,7.7333 -3.5058,5.1557 -5.2587,12.4766 -5.2586,21.9627 v 27.2213 h 35.5733 v 33.0987 h -35.5733 v 40.832 c -10e-5,7.8364 -1.1343,14.2293 -3.4027,19.1786 -2.0623,4.7432 -4.2276,8.1458 -6.496,10.208 h 80.736 v 32.7894 h -125.8987 v -32.7894 h 3.712 c 6.5991,0 11.7547,-2.784 15.4667,-8.352 3.9182,-5.7742 5.8773,-13.6106 5.8773,-23.5093 v -38.3573 h -12.6826 v -33.0987" /></g><g
         id="text602-6"
         transform="matrix(1,0,0,-1,3602.1465,-304.29607)"
         style="display:inline;opacity:0.92000002"><path
           inkscape:connector-curvature="0"
           id="path4440-6"
           style="font-variant:normal;font-weight:normal;font-size:290px;font-family:BlueHighwayD;-inkscape-font-specification:BlueHighwayD-Regular;writing-mode:lr-tb;fill:#000000;fill-opacity:1;fill-rule:nonzero;stroke:none;stroke-width:1.06666672"
           d="m 482.61485,-2218.4395 c 7.42393,2e-4 13.7137,1.4438 18.86933,4.3307 5.3617,2.6811 10.20792,5.7744 14.53867,9.28 4.33058,3.2997 8.3519,6.3931 12.064,9.28 3.91812,2.6811 8.04256,4.0214 12.37333,4.0213 5.36167,1e-4 9.89855,-1.9589 13.61067,-5.8773 3.71187,-4.1243 7.11454,-9.0736 10.208,-14.848 l 18.25066,15.776 c -5.36192,9.8988 -11.7548,17.529 -19.17866,22.8907 -7.42413,5.1556 -15.05434,7.7334 -22.89067,7.7333 -6.59921,1e-4 -12.47654,-1.3404 -17.632,-4.0213 -4.94942,-2.8871 -9.69252,-5.9804 -14.22933,-9.28 -4.53696,-3.5056 -8.97074,-6.599 -13.30134,-9.28 -4.1245,-2.887 -8.45516,-4.3306 -12.992,-4.3307 -4.74315,10e-5 -8.9707,1.7531 -12.68266,5.2587 -3.50582,3.2997 -6.70225,7.7334 -9.58934,13.3013 l -18.86933,-14.848 c 5.36176,-9.8986 11.65153,-17.2194 18.86933,-21.9627 7.21774,-4.9492 14.74485,-7.4238 22.58134,-7.424"
           sodipodi:nodetypes="ccccccccccccccccccc" /></g><g
         id="text596-4-1"
         transform="matrix(1,0,0,-1,3220.2789,-582.46975)"
         style="display:inline;opacity:0.92000002"><path
           inkscape:connector-curvature="0"
           id="path4443-9-7"
           style="font-variant:normal;font-weight:bold;font-size:200px;font-family:BlueHighway;-inkscape-font-specification:BlueHighway-Bold;writing-mode:lr-tb;fill:#000000;fill-opacity:1;fill-rule:nonzero;stroke:none;stroke-width:1.06666672"
           d="m 244.48095,-2154.3861 c -1e-5,-10.8089 1.9911,-20.9777 5.97333,-30.5067 3.98221,-9.671 9.38665,-18.0621 16.21334,-25.1733 6.96885,-7.111 15.07551,-12.7288 24.32,-16.8534 9.3866,-4.1242 19.34215,-6.1865 29.86666,-6.1866 10.52435,10e-5 20.40879,2.0624 29.65334,6.1866 9.38655,4.1246 17.4932,9.7424 24.32,16.8534 6.96874,7.1112 12.44429,15.5023 16.42666,25.1733 4.12429,9.529 6.18651,19.6978 6.18667,30.5067 -1.6e-4,10.9511 -2.06238,21.1911 -6.18667,30.72 -3.98237,9.5289 -9.45792,17.8488 -16.42666,24.96 -6.8268,7.1111 -14.93345,12.7288 -24.32,16.8533 -9.24455,4.1245 -19.12899,6.1867 -29.65334,6.1867 -10.52451,0 -20.48006,-2.0622 -29.86666,-6.1867 -9.24449,-4.1245 -17.35115,-9.7422 -24.32,-16.8533 -6.82669,-7.1112 -12.23113,-15.4311 -16.21334,-24.96 -3.98223,-9.5289 -5.97334,-19.7689 -5.97333,-30.72 m 15.57333,0 c -2e-5,8.3911 1.56442,16.2844 4.69334,23.68 3.27108,7.3956 7.60885,13.8666 13.01333,19.4133 5.54662,5.4045 12.01773,9.7422 19.41333,13.0133 7.39549,3.1289 15.28881,4.6934 23.68,4.6934 8.53324,0 16.49768,-1.5645 23.89334,-4.6934 7.39544,-3.2711 13.79543,-7.6088 19.2,-13.0133 5.54653,-5.5467 9.88431,-12.0177 13.01333,-19.4133 3.27096,-7.3956 4.90652,-15.2889 4.90667,-23.68 -1.5e-4,-8.5333 -1.63571,-16.4977 -4.90667,-23.8934 -3.12902,-7.3954 -7.4668,-13.7954 -13.01333,-19.2 -5.40457,-5.5465 -11.80456,-9.8843 -19.2,-13.0133 -7.39566,-3.271 -15.3601,-4.9066 -23.89334,-4.9067 -8.39119,1e-4 -16.28451,1.6357 -23.68,4.9067 -7.3956,3.129 -13.86671,7.4668 -19.41333,13.0133 -5.40448,5.4046 -9.74225,11.8046 -13.01333,19.2 -3.12892,7.3957 -4.69336,15.3601 -4.69334,23.8934 m 77.22667,-19.84 c -2.41788,-3.2711 -4.90676,-5.5466 -7.46667,-6.8267 -2.56008,-1.4221 -5.47563,-2.1332 -8.74666,-2.1333 -6.11564,10e-5 -10.88008,2.4889 -14.29334,7.4666 -3.41339,4.9778 -5.12006,11.7335 -5.12,20.2667 -6e-5,8.1068 1.77771,14.7911 5.33334,20.0533 3.6977,5.2623 8.53325,7.8934 14.50666,7.8934 2.84437,0 5.6888,-0.7822 8.53334,-2.3467 2.98657,-1.5644 5.47545,-3.4844 7.46666,-5.76 l 13.01334,8.96 c -7.25344,10.9511 -17.06677,16.4267 -29.44,16.4267 -5.26231,0 -10.09786,-1.1377 -14.50667,-3.4134 -4.26673,-2.2755 -8.03562,-5.4043 -11.30667,-9.3866 -3.12894,-4.1244 -5.61783,-8.8889 -7.46666,-14.2934 -1.70672,-5.5466 -2.56005,-11.591 -2.56,-18.1333 -5e-5,-6.3999 0.85328,-12.3022 2.56,-17.7067 1.70661,-5.4043 4.05328,-10.0977 7.04,-14.08 3.12883,-4.1243 6.89771,-7.3243 11.30666,-9.6 4.40881,-2.2754 9.38659,-3.4132 14.93334,-3.4133 13.51101,1e-4 23.60877,5.7601 30.29333,17.28 l -14.08,8.7467" /></g></g></g><g
     inkscape:groupmode="layer"
     id="layer4"
     inkscape:label="cuts"
     style="display:inline;opacity:0.92000002"
     transform="translate(-3.4547244e-6,-6.2204725e-5)"><g
       id="g1024"
       style="stroke-width:0.33333333;stroke-miterlimit:4;stroke-dasharray:none;stroke:#ff00ff"><path
         inkscape:connector-curvature="0"
         id="path26-3"
         d="M 26.457031,26.457031 V 178.02734 H 219.21289 V 26.457031 Z m 238.666019,0 V 178.02734 H 457.87891 V 26.457031 Z m 238.66601,0 V 178.02734 H 696.54688 V 26.457031 Z m 238.66797,0 V 178.02734 H 935.21289 V 26.457031 Z m 238.66602,0 V 178.02734 H 1173.8789 V 26.457031 Z m 238.66605,0 V 178.02734 h 192.7578 V 26.457031 Z m 238.6679,0 V 178.02734 h 192.7559 V 26.457031 Z m 238.666,0 V 178.02734 h 192.7579 V 26.457031 Z m 238.6661,0 V 178.02734 h 192.7578 V 26.457031 Z M 26.457031,184.80859 V 336.37891 H 219.21289 V 184.80859 Z m 238.666019,0 V 336.37891 H 457.87891 V 184.80859 Z m 238.66601,0 V 336.37891 H 696.54688 V 184.80859 Z m 238.66797,0 V 336.37891 H 935.21289 V 184.80859 Z m 238.66602,0 V 336.37891 H 1173.8789 V 184.80859 Z m 238.66605,0 v 151.57032 h 192.7578 V 184.80859 Z m 238.6679,0 v 151.57032 h 192.7559 V 184.80859 Z m 238.666,0 v 151.57032 h 192.7579 V 184.80859 Z m 238.6661,0 v 151.57032 h 192.7578 V 184.80859 Z"
         style="display:inline;fill:none;fill-opacity:1;fill-rule:nonzero;stroke:#ff00ff;stroke-width:0.33333333;stroke-miterlimit:4;stroke-dasharray:none;stroke-opacity:1;image-rendering:auto" /><path
         inkscape:connector-curvature="0"
         id="path50-1"
         d="m 2166.342,26.45598 v 151.57031 h 192.7558 V 26.45598 Z m 238.666,0 v 151.57031 h 192.7558 V 26.45598 Z m 238.666,0 v 151.57031 h 192.7578 V 26.45598 Z m 238.668,0 v 151.57031 h 192.7558 V 26.45598 Z m 238.666,0 v 151.57031 h 192.7558 V 26.45598 Z m 238.666,0 v 151.57031 h 192.7578 V 26.45598 Z m 238.6679,0 v 151.57031 h 192.7559 V 26.45598 Z m 238.666,0 v 151.57031 h 192.7579 V 26.45598 Z m 238.6661,0 v 151.57031 h 192.7578 V 26.45598 Z M 2166.342,184.80754 v 151.57031 h 192.7558 V 184.80754 Z m 238.666,0 v 151.57031 h 192.7558 V 184.80754 Z m 238.666,0 v 151.57031 h 192.7578 V 184.80754 Z m 238.668,0 v 151.57031 h 192.7558 V 184.80754 Z m 238.666,0 v 151.57031 h 192.7558 V 184.80754 Z m 238.666,0 v 151.57031 h 192.7578 V 184.80754 Z m 238.6679,0 v 151.57031 h 192.7559 V 184.80754 Z m 238.666,0 v 151.57031 h 192.7579 V 184.80754 Z m 238.6661,0 v 151.57031 h 192.7578 V 184.80754 Z"
         style="display:inline;fill:none;fill-opacity:1;fill-rule:nonzero;stroke:#ff00ff;stroke-width:0.33333333;stroke-miterlimit:4;stroke-dasharray:none;stroke-opacity:1" /><path
         inkscape:connector-curvature="0"
         id="path68-2"
         d="M 34.016408,366.61487 V 518.18518 H 226.77231 V 366.61487 Z m 238.666002,0 v 151.57031 h 192.7559 V 366.61487 Z m 238.666,0 v 151.57031 h 192.7579 V 366.61487 Z m 238.668,0 v 151.57031 h 192.7559 V 366.61487 Z m 238.666,0 V 518.18518 H 1181.4383 V 366.61487 Z m 238.66609,0 v 151.57031 h 192.7578 V 366.61487 Z m 238.6679,0 v 151.57031 h 192.7559 V 366.61487 Z m 238.666,0 v 151.57031 h 192.7579 V 366.61487 Z m 238.6661,0 v 151.57031 h 192.7578 V 366.61487 Z M 34.016408,524.96643 V 676.53675 H 226.77231 V 524.96643 Z m 238.666002,0 v 151.57032 h 192.7559 V 524.96643 Z m 238.666,0 v 151.57032 h 192.7579 V 524.96643 Z m 238.668,0 v 151.57032 h 192.7559 V 524.96643 Z m 238.666,0 V 676.53675 H 1181.4383 V 524.96643 Z m 238.66609,0 v 151.57032 h 192.7578 V 524.96643 Z m 238.6679,0 v 151.57032 h 192.7559 V 524.96643 Z m 238.666,0 v 151.57032 h 192.7579 V 524.96643 Z m 238.6661,0 v 151.57032 h 192.7578 V 524.96643 Z"
         style="display:inline;fill:none;fill-opacity:1;fill-rule:nonzero;stroke:#ff00ff;stroke-width:0.33333333;stroke-miterlimit:4;stroke-dasharray:none;stroke-opacity:1" /><path
         inkscape:connector-curvature="0"
         id="path86-3"
         d="m 2173.9008,366.61535 c 0,50.5234 0,101.0469 0,151.5703 h 192.7559 v -151.5703 z m 238.666,0 v 151.5703 h 192.7579 v -151.5703 z m 238.668,0 v 151.5703 h 192.7559 v -151.5703 z m 238.666,0 v 151.5703 h 192.7559 v -151.5703 z m 238.666,0 v 151.5703 h 192.7579 v -151.5703 z m 238.668,0 v 151.5703 h 192.7559 v -151.5703 z m 238.6661,0 v 151.5703 h 192.7578 v -151.5703 z m 238.666,0 v 151.5703 h 192.7578 v -151.5703 z m 238.6679,0 v 151.5703 h 192.7559 v -151.5703 z m -1909.334,158.3515 c 0,50.5235 0,101.0469 0,151.5704 h 192.7559 v -151.5704 z m 238.666,0 v 151.5704 h 192.7579 v -151.5704 z m 238.668,0 v 151.5704 h 192.7559 v -151.5704 z m 238.666,0 v 151.5704 h 192.7559 v -151.5704 z m 238.666,0 v 151.5704 h 192.7579 v -151.5704 z m 238.668,0 v 151.5704 h 192.7559 v -151.5704 z m 238.6661,0 v 151.5704 h 192.7578 v -151.5704 z m 238.666,0 v 151.5704 h 192.7578 v -151.5704 z m 238.6679,0 v 151.5704 h 192.7559 v -151.5704 z"
         style="display:inline;fill:none;fill-opacity:1;fill-rule:nonzero;stroke:#ff00ff;stroke-width:0.33333333;stroke-miterlimit:4;stroke-dasharray:none;stroke-opacity:1" /><path
         sodipodi:nodetypes="cccccccccccccccccccccccccccccccccccccccc"
         inkscape:connector-curvature="0"
         id="path584-3"
         d="m 4306.227,26.4563 v 151.5703 h 192.7558 V 26.4563 Z m 238.666,0 v 151.5703 h 192.7558 V 26.4563 Z m 238.666,0 v 151.5703 h 192.7559 V 26.4563 Z m 238.666,0 v 151.5703 h 192.7578 V 26.4563 Z m -715.998,158.3515 v 151.5704 h 192.7558 V 184.8078 Z m 238.666,0 v 151.5704 h 192.7558 V 184.8078 Z m 238.666,0 v 151.5704 h 192.7559 V 184.8078 Z m 238.666,0 v 151.5704 h 192.7578 V 184.8078 Z"
         style="display:inline;fill:none;fill-opacity:1;fill-rule:nonzero;stroke:#ff00ff;stroke-width:0.33333333;stroke-miterlimit:4;stroke-dasharray:none;stroke-opacity:1" /><path
         inkscape:connector-curvature="0"
         id="path104-6"
         d="M 34.01691,714.33203 V 865.90248 H 226.77277 V 714.33203 Z m 238.66602,0 V 865.90248 H 465.43879 V 714.33203 Z m 238.66601,0 V 865.90248 H 704.10676 V 714.33203 Z m 238.66602,0 V 865.90248 H 942.7728 V 714.33203 Z m 238.66794,0 v 151.57045 h 192.7559 V 714.33203 Z m 238.6661,0 v 151.57045 h 192.7578 V 714.33203 Z m 238.6679,0 v 151.57045 h 192.7559 V 714.33203 Z m 238.666,0 v 151.57045 h 192.7579 V 714.33203 Z m 238.6661,0 v 151.57045 h 192.7578 V 714.33203 Z M 34.01691,872.68368 V 1024.2538 H 226.77277 V 872.68368 Z m 238.66602,0 V 1024.2538 H 465.43879 V 872.68368 Z m 238.66601,0 V 1024.2538 H 704.10676 V 872.68368 Z m 238.66602,0 V 1024.2538 H 942.7728 V 872.68368 Z m 238.66794,0 v 151.57012 h 192.7559 V 872.68368 Z m 238.6661,0 v 151.57012 h 192.7578 V 872.68368 Z m 238.6679,0 v 151.57012 h 192.7559 V 872.68368 Z m 238.666,0 v 151.57012 h 192.7579 V 872.68368 Z m 238.6661,0 v 151.57012 h 192.7578 V 872.68368 Z"
         style="display:inline;fill:none;fill-opacity:1;fill-rule:nonzero;stroke:#ff00ff;stroke-width:0.33333333;stroke-miterlimit:4;stroke-dasharray:none;stroke-opacity:1" /><path
         inkscape:connector-curvature="0"
         id="path414-8"
         d="m 2173.9017,714.33173 v 151.57035 h 192.7558 V 714.33173 Z m 238.666,0 v 151.57035 h 192.7558 V 714.33173 Z m 238.666,0 v 151.57035 h 192.7559 V 714.33173 Z m 238.666,0 v 151.57035 h 192.7578 V 714.33173 Z m 238.668,0 v 151.57035 h 192.7578 V 714.33173 Z m 238.666,0 v 151.57035 h 192.7578 V 714.33173 Z m 238.6679,0 v 151.57035 h 192.7578 V 714.33173 Z m 238.666,0 v 151.57035 h 192.7579 V 714.33173 Z m 238.6661,0 v 151.57035 h 192.7578 V 714.33173 Z m -1909.332,158.35155 v 151.57012 h 192.7558 V 872.68328 Z m 238.666,0 v 151.57012 h 192.7558 V 872.68328 Z m 238.666,0 v 151.57012 h 192.7559 V 872.68328 Z m 238.666,0 v 151.57012 h 192.7578 V 872.68328 Z m 238.668,0 v 151.57012 h 192.7578 V 872.68328 Z m 238.666,0 v 151.57012 h 192.7578 V 872.68328 Z m 238.6679,0 v 151.57012 h 192.7578 V 872.68328 Z m 238.666,0 v 151.57012 h 192.7579 V 872.68328 Z m 238.6661,0 v 151.57012 h 192.7578 V 872.68328 Z"
         style="display:inline;fill:none;fill-opacity:1;fill-rule:nonzero;stroke:#ff00ff;stroke-width:0.33333333;stroke-miterlimit:4;stroke-dasharray:none;stroke-opacity:1" /><path
         sodipodi:nodetypes="cccccccccccccccccccccccccccccccccccccccc"
         inkscape:connector-curvature="0"
         id="path584-3-8"
         d="m 4313.7861,366.61479 v 151.5703 h 192.7579 v -151.5703 z m 238.6661,0 v 151.5703 H 4745.21 v -151.5703 z m 238.6679,0 v 151.5703 h 192.7578 v -151.5703 z m 238.666,0 v 151.5703 h 192.7579 v -151.5703 z m -716,158.3515 v 151.5704 h 192.7579 v -151.5704 z m 238.6661,0 v 151.5704 H 4745.21 v -151.5704 z m 238.6679,0 v 151.5704 h 192.7578 v -151.5704 z m 238.666,0 v 151.5704 h 192.7579 v -151.5704 z"
         style="display:inline;opacity:0.92000002;fill:none;fill-opacity:1;fill-rule:nonzero;stroke:#ff00ff;stroke-width:0.33333333;stroke-miterlimit:4;stroke-dasharray:none;stroke-opacity:1" /><path
         sodipodi:nodetypes="cccccccccc"
         inkscape:connector-curvature="0"
         id="path584-3-8-7"
         d="m 4313.7847,714.33197 v 151.5703 h 192.7578 v -151.5703 z m 0,158.3515 v 151.57023 h 192.7578 V 872.68347 Z"
         style="display:inline;opacity:0.92000002;fill:none;fill-opacity:1;fill-rule:nonzero;stroke:#ff00ff;stroke-width:0.33333333;stroke-miterlimit:4;stroke-dasharray:none;stroke-opacity:1" /></g></g></svg>