<?xml version="1.0" encoding="UTF-8" standalone="no"?>
<!-- Created with Inkscape (http://www.inkscape.org/) -->

<svg
   xmlns:dc="http://purl.org/dc/elements/1.1/"
   xmlns:cc="http://creativecommons.org/ns#"
   xmlns:rdf="http://www.w3.org/1999/02/22-rdf-syntax-ns#"
   xmlns:svg="http://www.w3.org/2000/svg"
   xmlns="http://www.w3.org/2000/svg"
   xmlns:sodipodi="http://sodipodi.sourceforge.net/DTD/sodipodi-0.dtd"
   xmlns:inkscape="http://www.inkscape.org/namespaces/inkscape"
   width="1771.6534"
   height="885.82672"
   id="svg2"
   version="1.1"
   inkscape:version="0.48.5 r10040"
   sodipodi:docname="cards-vector.svg">
  <defs
     id="defs4" />
  <sodipodi:namedview
     id="base"
     pagecolor="#ffffff"
     bordercolor="#666666"
     borderopacity="1.0"
     inkscape:pageopacity="0.0"
     inkscape:pageshadow="2"
     inkscape:zoom="0.50383782"
     inkscape:cx="811.55464"
     inkscape:cy="463.82355"
     inkscape:document-units="px"
     inkscape:current-layer="layer1"
     showgrid="false"
     showguides="true"
     inkscape:guide-bbox="true"
     inkscape:snap-global="true"
     inkscape:window-width="1196"
     inkscape:window-height="843"
     inkscape:window-x="108"
     inkscape:window-y="0"
     inkscape:window-maximized="0"
     units="cm"
     fit-margin-top="0"
     fit-margin-left="0"
     fit-margin-right="0"
     fit-margin-bottom="0">
    <inkscape:grid
       type="xygrid"
       id="grid3761"
       units="cm"
       empspacing="5"
       visible="true"
       enabled="true"
       snapvisiblegridlinesonly="true"
       originx="-0.36336111cm"
       originy="-0.24742228cm" />
  </sodipodi:namedview>
  <metadata
     id="metadata7">
    <rdf:RDF>
      <cc:Work
         rdf:about="">
        <dc:format>image/svg+xml</dc:format>
        <dc:type
           rdf:resource="http://purl.org/dc/dcmitype/StillImage" />
        <dc:title />
      </cc:Work>
    </rdf:RDF>
  </metadata>
  <g
     inkscape:label="Layer 1"
     inkscape:groupmode="layer"
     id="layer1"
     transform="translate(-12.875,-157.767)">
    <g
       id="g3381"
       transform="translate(13.815083,-36.499114)">
      <path
         inkscape:connector-curvature="0"
         id="rect2985"
         d="m 12.995176,230.89625 0,10.625 14.125,0 0,141.71875 194.874994,0 0,-141.71875 14,0 0,-10.625 -14,0 -0.15625,0 -194.687494,0 -0.0312,0 -14.125,0 z"
         style="fill:none;stroke:#000000;stroke-width:0.25;stroke-miterlimit:4;stroke-opacity:1" />
      <path
         style="fill:none;stroke:#000000;stroke-width:0.25;stroke-miterlimit:4;stroke-opacity:1"
         d="m 230.24987,1043.4627 0,-10.625 14.125,0 0,-141.71876 194.875,0 0,141.71876 14,0 0,10.625 -14,0 -0.15625,0 -194.6875,0 -0.0312,0 -14.125,0 z"
         id="path3769"
         inkscape:connector-curvature="0" />
      <path
         style="fill:none;stroke:#000000;stroke-width:0.25;stroke-miterlimit:4;stroke-opacity:1"
         d="m 12.995176,395.95192 0,10.625 14.125,0 0,141.71875 194.874994,0 0,-141.71875 14,0 0,-10.625 -14,0 -0.15625,0 -194.687494,0 -0.0312,0 -14.125,0 z"
         id="path3771"
         inkscape:connector-curvature="0" />
      <path
         inkscape:connector-curvature="0"
         id="path3773"
         d="m 230.24987,878.407 0,-10.625 14.125,0 0,-141.71875 194.875,0 0,141.71875 14,0 0,10.625 -14,0 -0.15625,0 -194.6875,0 -0.0312,0 -14.125,0 z"
         style="fill:none;stroke:#000000;stroke-width:0.25;stroke-miterlimit:4;stroke-opacity:1" />
      <path
         inkscape:connector-curvature="0"
         id="path3775"
         d="m 12.995176,561.00759 0,10.625 14.125,0 0,141.71875 194.874994,0 0,-141.71875 14,0 0,-10.625 -14,0 -0.15625,0 -194.687494,0 -0.0312,0 -14.125,0 z"
         style="fill:none;stroke:#000000;stroke-width:0.25;stroke-miterlimit:4;stroke-opacity:1" />
      <path
         style="fill:none;stroke:#000000;stroke-width:0.25;stroke-miterlimit:4;stroke-opacity:1"
         d="m 230.24987,713.35134 0,-10.625 14.125,0 0,-141.71875 194.875,0 0,141.71875 14,0 0,10.625 -14,0 -0.15625,0 -194.6875,0 -0.0312,0 -14.125,0 z"
         id="path3777"
         inkscape:connector-curvature="0" />
      <path
         style="fill:none;stroke:#000000;stroke-width:0.25;stroke-miterlimit:4;stroke-opacity:1"
         d="m 12.995176,726.06325 0,10.625 14.125,0 0,141.71875 194.874994,0 0,-141.71875 14,0 0,-10.625 -14,0 -0.15625,0 -194.687494,0 -0.0312,0 -14.125,0 z"
         id="path3779"
         inkscape:connector-curvature="0" />
      <path
         inkscape:connector-curvature="0"
         id="path3781"
         d="m 230.24987,548.29567 0,-10.625 14.125,0 0,-141.71875 194.875,0 0,141.71875 14,0 0,10.625 -14,0 -0.15625,0 -194.6875,0 -0.0312,0 -14.125,0 z"
         style="fill:none;stroke:#000000;stroke-width:0.25;stroke-miterlimit:4;stroke-opacity:1" />
      <path
         inkscape:connector-curvature="0"
         id="path3783"
         d="m 12.995176,891.11896 0,10.625 14.125,0 0,141.71874 194.874994,0 0,-141.71874 14,0 0,-10.625 -14,0 -0.15625,0 -194.687494,0 -0.0312,0 -14.125,0 z"
         style="fill:none;stroke:#000000;stroke-width:0.25;stroke-miterlimit:4;stroke-opacity:1" />
      <path
         style="fill:none;stroke:#000000;stroke-width:0.25;stroke-miterlimit:4;stroke-opacity:1"
         d="m 230.24987,383.23997 0,-10.625 14.125,0 0,-141.7187 194.875,0 0,141.7187 14,0 0,10.625 -14,0 -0.15625,0 -194.6875,0 -0.0312,0 -14.125,0 z"
         id="path3785"
         inkscape:connector-curvature="0" />
      <path
         inkscape:connector-curvature="0"
         id="rect2985-2"
         d="m 447.50458,230.89625 0,10.625 14.125,0 0,141.71875 194.87499,0 0,-141.71875 14,0 0,-10.625 -14,0 -0.15625,0 -194.68749,0 -0.0312,0 -14.125,0 z"
         style="fill:none;stroke:#000000;stroke-width:0.25;stroke-miterlimit:4;stroke-opacity:1" />
      <path
         style="fill:none;stroke:#000000;stroke-width:0.25;stroke-miterlimit:4;stroke-opacity:1"
         d="m 664.75927,1043.4627 0,-10.625 14.125,0 0,-141.71878 194.875,0 0,141.71878 14,0 0,10.625 -14,0 -0.15625,0 -194.6875,0 -0.0312,0 -14.125,0 z"
         id="path3769-3"
         inkscape:connector-curvature="0" />
      <path
         style="fill:none;stroke:#000000;stroke-width:0.25;stroke-miterlimit:4;stroke-opacity:1"
         d="m 447.50458,395.95192 0,10.625 14.125,0 0,141.71875 194.87499,0 0,-141.71875 14,0 0,-10.625 -14,0 -0.15625,0 -194.68749,0 -0.0312,0 -14.125,0 z"
         id="path3771-0"
         inkscape:connector-curvature="0" />
      <path
         inkscape:connector-curvature="0"
         id="path3773-4"
         d="m 664.75927,878.40698 0,-10.625 14.125,0 0,-141.7187 194.875,0 0,141.7187 14,0 0,10.625 -14,0 -0.15625,0 -194.6875,0 -0.0312,0 -14.125,0 z"
         style="fill:none;stroke:#000000;stroke-width:0.25;stroke-miterlimit:4;stroke-opacity:1" />
      <path
         inkscape:connector-curvature="0"
         id="path3775-7"
         d="m 447.50458,561.0076 0,10.625 14.125,0 0,141.71871 194.87499,0 0,-141.71871 14,0 0,-10.625 -14,0 -0.15625,0 -194.68749,0 -0.0312,0 -14.125,0 z"
         style="fill:none;stroke:#000000;stroke-width:0.25;stroke-miterlimit:4;stroke-opacity:1" />
      <path
         style="fill:none;stroke:#000000;stroke-width:0.25;stroke-miterlimit:4;stroke-opacity:1"
         d="m 664.75927,713.35131 0,-10.625 14.125,0 0,-141.71871 194.875,0 0,141.71871 14,0 0,10.625 -14,0 -0.15625,0 -194.6875,0 -0.0312,0 -14.125,0 z"
         id="path3777-4"
         inkscape:connector-curvature="0" />
      <path
         style="fill:none;stroke:#000000;stroke-width:0.25;stroke-miterlimit:4;stroke-opacity:1"
         d="m 447.50458,726.06328 0,10.625 14.125,0 0,141.7187 194.87499,0 0,-141.7187 14,0 0,-10.625 -14,0 -0.15625,0 -194.68749,0 -0.0312,0 -14.125,0 z"
         id="path3779-3"
         inkscape:connector-curvature="0" />
      <path
         inkscape:connector-curvature="0"
         id="path3781-5"
         d="m 664.75927,548.29567 0,-10.625 14.125,0 0,-141.71875 194.875,0 0,141.71875 14,0 0,10.625 -14,0 -0.15625,0 -194.6875,0 -0.0312,0 -14.125,0 z"
         style="fill:none;stroke:#000000;stroke-width:0.25;stroke-miterlimit:4;stroke-opacity:1" />
      <path
         inkscape:connector-curvature="0"
         id="path3783-8"
         d="m 447.50458,891.11892 0,10.625 14.125,0 0,141.71878 194.87499,0 0,-141.71878 14,0 0,-10.625 -14,0 -0.15625,0 -194.68749,0 -0.0312,0 -14.125,0 z"
         style="fill:none;stroke:#000000;stroke-width:0.25;stroke-miterlimit:4;stroke-opacity:1" />
      <path
         style="fill:none;stroke:#000000;stroke-width:0.25;stroke-miterlimit:4;stroke-opacity:1"
         d="m 664.75927,383.23998 0,-10.625 14.125,0 0,-141.7187 194.875,0 0,141.7187 14,0 0,10.625 -14,0 -0.15625,0 -194.6875,0 -0.0312,0 -14.125,0 z"
         id="path3785-0"
         inkscape:connector-curvature="0" />
      <path
         inkscape:connector-curvature="0"
         id="rect2985-2-1"
         d="m 882.01398,230.89625 0,10.625 14.125,0 0,141.71875 194.87502,0 0,-141.71875 14,0 0,-10.625 -14,0 -0.1562,0 -194.68757,0 -0.0312,0 -14.125,0 z"
         style="fill:none;stroke:#000000;stroke-width:0.25;stroke-miterlimit:4;stroke-opacity:1" />
      <path
         style="fill:none;stroke:#000000;stroke-width:0.25;stroke-miterlimit:4;stroke-opacity:1"
         d="m 1099.2687,1043.4627 0,-10.6249 14.125,0 0,-141.71886 194.875,0 0,141.71886 14,0 0,10.6249 -14,0 -0.1562,0 -194.6875,0 -0.031,0 -14.125,0 z"
         id="path3769-3-4"
         inkscape:connector-curvature="0" />
      <path
         style="fill:none;stroke:#000000;stroke-width:0.25;stroke-miterlimit:4;stroke-opacity:1"
         d="m 882.01398,395.95192 0,10.625 14.125,0 0,141.71875 194.87502,0 0,-141.71875 14,0 0,-10.625 -14,0 -0.1562,0 -194.68757,0 -0.0312,0 -14.125,0 z"
         id="path3771-0-1"
         inkscape:connector-curvature="0" />
      <path
         inkscape:connector-curvature="0"
         id="path3773-4-1"
         d="m 1099.2687,878.40698 0,-10.625 14.125,0 0,-141.7187 194.875,0 0,141.7187 14,0 0,10.625 -14,0 -0.1562,0 -194.6875,0 -0.031,0 -14.125,0 z"
         style="fill:none;stroke:#000000;stroke-width:0.25;stroke-miterlimit:4;stroke-opacity:1" />
      <path
         inkscape:connector-curvature="0"
         id="path3775-7-9"
         d="m 882.01398,561.00763 0,10.625 14.125,0 0,141.71866 194.87502,0 0,-141.71866 14,0 0,-10.625 -14,0 -0.1562,0 -194.68757,0 -0.0312,0 -14.125,0 z"
         style="fill:none;stroke:#000000;stroke-width:0.25;stroke-miterlimit:4;stroke-opacity:1" />
      <path
         style="fill:none;stroke:#000000;stroke-width:0.25;stroke-miterlimit:4;stroke-opacity:1"
         d="m 1099.2687,713.35129 0,-10.625 14.125,0 0,-141.71866 194.875,0 0,141.71866 14,0 0,10.625 -14,0 -0.1562,0 -194.6875,0 -0.031,0 -14.125,0 z"
         id="path3777-4-1"
         inkscape:connector-curvature="0" />
      <path
         style="fill:none;stroke:#000000;stroke-width:0.25;stroke-miterlimit:4;stroke-opacity:1"
         d="m 882.01398,726.06328 0,10.625 14.125,0 0,141.7187 194.87502,0 0,-141.7187 14,0 0,-10.625 -14,0 -0.1562,0 -194.68757,0 -0.0312,0 -14.125,0 z"
         id="path3779-3-2"
         inkscape:connector-curvature="0" />
      <path
         inkscape:connector-curvature="0"
         id="path3781-5-9"
         d="m 1099.2687,548.29567 0,-10.625 14.125,0 0,-141.71875 194.875,0 0,141.71875 14,0 0,10.625 -14,0 -0.1562,0 -194.6875,0 -0.031,0 -14.125,0 z"
         style="fill:none;stroke:#000000;stroke-width:0.25;stroke-miterlimit:4;stroke-opacity:1" />
      <path
         inkscape:connector-curvature="0"
         id="path3783-8-4"
         d="m 882.01398,891.11894 0,10.625 14.125,0 0,141.71876 194.87502,0 0,-141.71876 14,0 0,-10.625 -14,0 -0.1562,0 -194.68757,0 -0.0312,0 -14.125,0 z"
         style="fill:none;stroke:#000000;stroke-width:0.25;stroke-miterlimit:4;stroke-opacity:1" />
      <path
         style="fill:none;stroke:#000000;stroke-width:0.25;stroke-miterlimit:4;stroke-opacity:1"
         d="m 1099.2687,383.23998 0,-10.625 14.125,0 0,-141.7187 194.875,0 0,141.7187 14,0 0,10.625 -14,0 -0.1562,0 -194.6875,0 -0.031,0 -14.125,0 z"
         id="path3785-0-8"
         inkscape:connector-curvature="0" />
      <path
         inkscape:connector-curvature="0"
         id="rect2985-2-1-7"
         d="m 1316.5234,230.89625 0,10.625 14.125,0 0,141.71875 194.875,0 0,-141.71875 14,0 0,-10.625 -14,0 -0.1562,0 -194.6875,0 -0.031,0 -14.125,0 z"
         style="fill:none;stroke:#000000;stroke-width:0.25;stroke-miterlimit:4;stroke-opacity:1" />
      <path
         style="fill:none;stroke:#000000;stroke-width:0.25;stroke-miterlimit:4;stroke-opacity:1"
         d="m 1533.7781,1043.4627 0,-10.625 14.125,0 0,-141.71878 194.875,0 0,141.71878 14,0 0,10.625 -14,0 -0.1562,0 -194.6875,0 -0.031,0 -14.125,0 z"
         id="path3769-3-4-6"
         inkscape:connector-curvature="0" />
      <path
         style="fill:none;stroke:#000000;stroke-width:0.25;stroke-miterlimit:4;stroke-opacity:1"
         d="m 1316.5234,395.95192 0,10.625 14.125,0 0,141.71875 194.875,0 0,-141.71875 14,0 0,-10.625 -14,0 -0.1562,0 -194.6875,0 -0.031,0 -14.125,0 z"
         id="path3771-0-1-4"
         inkscape:connector-curvature="0" />
      <path
         inkscape:connector-curvature="0"
         id="path3773-4-1-3"
         d="m 1533.7781,878.40698 0,-10.625 14.125,0 0,-141.7187 194.875,0 0,141.7187 14,0 0,10.625 -14,0 -0.1562,0 -194.6875,0 -0.031,0 -14.125,0 z"
         style="fill:none;stroke:#000000;stroke-width:0.25;stroke-miterlimit:4;stroke-opacity:1" />
      <path
         inkscape:connector-curvature="0"
         id="path3775-7-9-3"
         d="m 1316.5234,561.00763 0,10.625 14.125,0 0,141.71866 194.875,0 0,-141.71866 14,0 0,-10.625 -14,0 -0.1562,0 -194.6875,0 -0.031,0 -14.125,0 z"
         style="fill:none;stroke:#000000;stroke-width:0.25;stroke-miterlimit:4;stroke-opacity:1" />
      <path
         style="fill:none;stroke:#000000;stroke-width:0.25;stroke-miterlimit:4;stroke-opacity:1"
         d="m 1533.7781,713.35129 0,-10.625 14.125,0 0,-141.71866 194.875,0 0,141.71866 14,0 0,10.625 -14,0 -0.1562,0 -194.6875,0 -0.031,0 -14.125,0 z"
         id="path3777-4-1-5"
         inkscape:connector-curvature="0" />
      <path
         style="fill:none;stroke:#000000;stroke-width:0.25;stroke-miterlimit:4;stroke-opacity:1"
         d="m 1316.5234,726.06328 0,10.625 14.125,0 0,141.7187 194.875,0 0,-141.7187 14,0 0,-10.625 -14,0 -0.1562,0 -194.6875,0 -0.031,0 -14.125,0 z"
         id="path3779-3-2-0"
         inkscape:connector-curvature="0" />
      <path
         inkscape:connector-curvature="0"
         id="path3781-5-9-0"
         d="m 1533.7781,548.29567 0,-10.625 14.125,0 0,-141.71875 194.875,0 0,141.71875 14,0 0,10.625 -14,0 -0.1562,0 -194.6875,0 -0.031,0 -14.125,0 z"
         style="fill:none;stroke:#000000;stroke-width:0.25;stroke-miterlimit:4;stroke-opacity:1" />
      <path
         inkscape:connector-curvature="0"
         id="path3783-8-4-6"
         d="m 1316.5234,891.11892 0,10.625 14.125,0 0,141.71878 194.875,0 0,-141.71878 14,0 0,-10.625 -14,0 -0.1562,0 -194.6875,0 -0.031,0 -14.125,0 z"
         style="fill:none;stroke:#000000;stroke-width:0.25;stroke-miterlimit:4;stroke-opacity:1" />
      <path
         style="fill:none;stroke:#000000;stroke-width:0.25;stroke-miterlimit:4;stroke-opacity:1"
         d="m 1533.7781,383.23998 0,-10.625 14.125,0 0,-141.7187 194.875,0 0,141.7187 14,0 0,10.625 -14,0 -0.1562,0 -194.6875,0 -0.031,0 -14.125,0 z"
         id="path3785-0-8-6"
         inkscape:connector-curvature="0" />
    </g>
  </g>
</svg>
