<?xml version="1.0" encoding="UTF-8" standalone="no"?>
<!-- Created with Inkscape (http://www.inkscape.org/) -->

<svg
   xmlns:dc="http://purl.org/dc/elements/1.1/"
   xmlns:cc="http://creativecommons.org/ns#"
   xmlns:rdf="http://www.w3.org/1999/02/22-rdf-syntax-ns#"
   xmlns:svg="http://www.w3.org/2000/svg"
   xmlns="http://www.w3.org/2000/svg"
   xmlns:sodipodi="http://sodipodi.sourceforge.net/DTD/sodipodi-0.dtd"
   xmlns:inkscape="http://www.inkscape.org/namespaces/inkscape"
   width="1889.7637"
   height="944.88184"
   id="svg2"
   version="1.1"
   inkscape:version="0.92.2 5c3e80d, 2017-08-06"
   sodipodi:docname="40-cards-vector_backup_backup.svg">
  <defs
     id="defs4" />
  <sodipodi:namedview
     id="base"
     pagecolor="#ffffff"
     bordercolor="#666666"
     borderopacity="1.0"
     inkscape:pageopacity="0.0"
     inkscape:pageshadow="2"
     inkscape:zoom="3.3184711"
     inkscape:cx="-1707.1495"
     inkscape:cy="2053.0145"
     inkscape:document-units="px"
     inkscape:current-layer="layer1"
     showgrid="false"
     showguides="true"
     inkscape:guide-bbox="true"
     inkscape:snap-global="true"
     inkscape:window-width="1920"
     inkscape:window-height="990"
     inkscape:window-x="0"
     inkscape:window-y="28"
     inkscape:window-maximized="1"
     units="cm"
     fit-margin-top="0"
     fit-margin-left="0"
     fit-margin-right="0"
     fit-margin-bottom="0">
    <inkscape:grid
       type="xygrid"
       id="grid3761"
       units="cm"
       empspacing="5"
       visible="true"
       enabled="true"
       snapvisiblegridlinesonly="true"
       originx="-13.733333"
       originy="-9.3513933"
       spacingx="1"
       spacingy="1" />
  </sodipodi:namedview>
  <metadata
     id="metadata7">
    <rdf:RDF>
      <cc:Work
         rdf:about="">
        <dc:format>image/svg+xml</dc:format>
        <dc:type
           rdf:resource="http://purl.org/dc/dcmitype/StillImage" />
        <dc:title></dc:title>
      </cc:Work>
    </rdf:RDF>
  </metadata>
  <g
     inkscape:label="Layer 1"
     inkscape:groupmode="layer"
     id="layer1"
     transform="translate(-13.733333,-168.2848)">
    <path
       style="fill:none;stroke:#ff0000;stroke-width:0.18897638;stroke-miterlimit:4;stroke-opacity:1;stroke-dasharray:none"
       d="m 28.59761,207.35694 v 11.33334 H 43.664277 V 369.85694 H 251.53094 V 218.69028 h 14.93333 V 207.35694 H 251.53094 251.36427 43.69761 43.66433 28.597663 Z"
       id="rect2985"
       inkscape:connector-curvature="0" />
    <path
       inkscape:connector-curvature="0"
       id="path3769"
       d="m 260.33595,1074.0945 v -11.3334 h 15.06667 V 911.59448 h 207.86666 v 151.16662 h 14.93334 v 11.3334 h -14.93334 -0.16666 -207.66667 -0.0333 -15.06667 z"
       style="fill:none;stroke:#ff0000;stroke-width:0.18897638;stroke-miterlimit:4;stroke-opacity:1;stroke-dasharray:none" />
    <path
       inkscape:connector-curvature="0"
       id="path3771"
       d="m 28.59761,383.41632 v 11.33334 H 43.664277 V 545.91632 H 251.53094 V 394.74966 h 14.93333 V 383.41632 H 251.53094 251.36427 43.69761 43.66433 28.597663 Z"
       style="fill:none;stroke:#ff0000;stroke-width:0.18897638;stroke-miterlimit:4;stroke-opacity:1;stroke-dasharray:none" />
    <path
       style="fill:none;stroke:#ff0000;stroke-width:0.18897638;stroke-miterlimit:4;stroke-opacity:1;stroke-dasharray:none"
       d="m 260.33595,898.03508 v -11.33334 h 15.06667 V 735.53508 h 207.86666 v 151.16666 h 14.93334 v 11.33334 h -14.93334 -0.16666 -207.66667 -0.0333 -15.06667 z"
       id="path3773"
       inkscape:connector-curvature="0" />
    <path
       style="fill:none;stroke:#ff0000;stroke-width:0.18897638;stroke-miterlimit:4;stroke-opacity:1;stroke-dasharray:none"
       d="m 28.59761,559.47571 v 11.33333 H 43.664277 V 721.97571 H 251.53094 V 570.80904 h 14.93333 V 559.47571 H 251.53094 251.36427 43.69761 43.66433 28.597663 Z"
       id="path3775"
       inkscape:connector-curvature="0" />
    <path
       inkscape:connector-curvature="0"
       id="path3777"
       d="m 260.33595,721.97571 v -11.33334 h 15.06667 V 559.47571 h 207.86666 v 151.16666 h 14.93334 v 11.33334 h -14.93334 -0.16666 -207.66667 -0.0333 -15.06667 z"
       style="fill:none;stroke:#ff0000;stroke-width:0.18897638;stroke-miterlimit:4;stroke-opacity:1;stroke-dasharray:none" />
    <path
       inkscape:connector-curvature="0"
       id="path3779"
       d="m 28.59761,735.53508 v 11.33333 H 43.664277 V 898.03508 H 251.53094 V 746.86841 h 14.93333 V 735.53508 H 251.53094 251.36427 43.69761 43.66433 28.597663 Z"
       style="fill:none;stroke:#ff0000;stroke-width:0.18897638;stroke-miterlimit:4;stroke-opacity:1;stroke-dasharray:none" />
    <path
       style="fill:none;stroke:#ff0000;stroke-width:0.18897638;stroke-miterlimit:4;stroke-opacity:1;stroke-dasharray:none"
       d="m 260.33595,545.91632 v -11.33333 h 15.06667 V 383.41632 h 207.86666 v 151.16667 h 14.93334 v 11.33333 h -14.93334 -0.16666 -207.66667 -0.0333 -15.06667 z"
       id="path3781"
       inkscape:connector-curvature="0" />
    <path
       style="fill:none;stroke:#ff0000;stroke-width:0.18897638;stroke-miterlimit:4;stroke-opacity:1;stroke-dasharray:none"
       d="m 28.59761,911.5945 v 11.33333 H 43.664277 V 1074.0945 H 251.53094 V 922.92783 h 14.93333 V 911.5945 H 251.53094 251.36427 43.69761 43.66433 28.597663 Z"
       id="path3783"
       inkscape:connector-curvature="0" />
    <path
       inkscape:connector-curvature="0"
       id="path3785"
       d="m 260.33595,369.85691 v -11.33333 h 15.06667 V 207.35696 h 207.86666 v 151.16662 h 14.93334 v 11.33333 h -14.93334 -0.16666 -207.66667 -0.0333 -15.06667 z"
       style="fill:none;stroke:#ff0000;stroke-width:0.18897638;stroke-miterlimit:4;stroke-opacity:1;stroke-dasharray:none" />
    <path
       style="fill:none;stroke:#ff0000;stroke-width:0.18897638;stroke-miterlimit:4;stroke-opacity:1;stroke-dasharray:none"
       d="m 492.07431,207.35694 v 11.33334 h 15.06667 V 369.85694 H 715.00763 V 218.69028 h 14.93333 v -11.33334 h -14.93333 -0.16667 -207.66665 -0.0333 -15.06667 z"
       id="rect2985-2"
       inkscape:connector-curvature="0" />
    <path
       inkscape:connector-curvature="0"
       id="path3769-3"
       d="m 723.81264,1074.0945 v -11.3334 h 15.06667 V 911.59446 h 207.86667 v 151.16664 h 14.93333 v 11.3334 h -14.93333 -0.16667 -207.66667 -0.0333 -15.06666 z"
       style="fill:none;stroke:#ff0000;stroke-width:0.18897638;stroke-miterlimit:4;stroke-opacity:1;stroke-dasharray:none" />
    <path
       inkscape:connector-curvature="0"
       id="path3771-0"
       d="m 492.07431,383.41632 v 11.33334 h 15.06667 V 545.91632 H 715.00763 V 394.74966 h 14.93333 v -11.33334 h -14.93333 -0.16667 -207.66665 -0.0333 -15.06667 z"
       style="fill:none;stroke:#ff0000;stroke-width:0.18897638;stroke-miterlimit:4;stroke-opacity:1;stroke-dasharray:none" />
    <path
       style="fill:none;stroke:#ff0000;stroke-width:0.18897638;stroke-miterlimit:4;stroke-opacity:1;stroke-dasharray:none"
       d="m 723.81264,898.03506 v -11.33334 h 15.06667 V 735.53511 h 207.86667 v 151.16661 h 14.93333 v 11.33334 h -14.93333 -0.16667 -207.66667 -0.0333 -15.06666 z"
       id="path3773-4"
       inkscape:connector-curvature="0" />
    <path
       style="fill:none;stroke:#ff0000;stroke-width:0.18897638;stroke-miterlimit:4;stroke-opacity:1;stroke-dasharray:none"
       d="m 492.07431,559.47572 v 11.33333 h 15.06667 V 721.97567 H 715.00763 V 570.80905 h 14.93333 v -11.33333 h -14.93333 -0.16667 -207.66665 -0.0333 -15.06667 z"
       id="path3775-7"
       inkscape:connector-curvature="0" />
    <path
       inkscape:connector-curvature="0"
       id="path3777-4"
       d="m 723.81264,721.97567 v -11.33333 h 15.06667 V 559.47572 h 207.86667 v 151.16662 h 14.93333 v 11.33333 h -14.93333 -0.16667 -207.66667 -0.0333 -15.06666 z"
       style="fill:none;stroke:#ff0000;stroke-width:0.18897638;stroke-miterlimit:4;stroke-opacity:1;stroke-dasharray:none" />
    <path
       inkscape:connector-curvature="0"
       id="path3779-3"
       d="m 492.07431,735.53511 v 11.33333 h 15.06667 V 898.03506 H 715.00763 V 746.86844 h 14.93333 v -11.33333 h -14.93333 -0.16667 -207.66665 -0.0333 -15.06667 z"
       style="fill:none;stroke:#ff0000;stroke-width:0.18897638;stroke-miterlimit:4;stroke-opacity:1;stroke-dasharray:none" />
    <path
       style="fill:none;stroke:#ff0000;stroke-width:0.18897638;stroke-miterlimit:4;stroke-opacity:1;stroke-dasharray:none"
       d="m 723.81264,545.91632 v -11.33333 h 15.06667 V 383.41632 h 207.86667 v 151.16667 h 14.93333 v 11.33333 h -14.93333 -0.16667 -207.66667 -0.0333 -15.06666 z"
       id="path3781-5"
       inkscape:connector-curvature="0" />
    <path
       style="fill:none;stroke:#ff0000;stroke-width:0.18897638;stroke-miterlimit:4;stroke-opacity:1;stroke-dasharray:none"
       d="m 492.07431,911.59446 v 11.33333 h 15.06667 V 1074.0945 H 715.00763 V 922.92779 h 14.93333 v -11.33333 h -14.93333 -0.16667 -207.66665 -0.0333 -15.06667 z"
       id="path3783-8"
       inkscape:connector-curvature="0" />
    <path
       inkscape:connector-curvature="0"
       id="path3785-0"
       d="m 723.81264,369.85692 v -11.33333 h 15.06667 V 207.35698 h 207.86667 v 151.16661 h 14.93333 v 11.33333 h -14.93333 -0.16667 -207.66667 -0.0333 -15.06666 z"
       style="fill:none;stroke:#ff0000;stroke-width:0.18897638;stroke-miterlimit:4;stroke-opacity:1;stroke-dasharray:none" />
    <path
       style="fill:none;stroke:#ff0000;stroke-width:0.18897638;stroke-miterlimit:4;stroke-opacity:1;stroke-dasharray:none"
       d="m 955.551,207.35694 v 11.33334 h 15.06667 V 369.85694 H 1178.4844 V 218.69028 h 14.9333 v -11.33334 h -14.9333 -0.1666 -207.6668 -0.0333 -15.06666 z"
       id="rect2985-2-1"
       inkscape:connector-curvature="0" />
    <path
       inkscape:connector-curvature="0"
       id="path3769-3-4"
       d="m 1187.2894,1074.0945 v -11.3332 h 15.0666 V 911.59448 h 207.8667 v 151.16682 h 14.9333 v 11.3332 h -14.9333 -0.1666 -207.6667 -0.033 -15.0667 z"
       style="fill:none;stroke:#ff0000;stroke-width:0.18897638;stroke-miterlimit:4;stroke-opacity:1;stroke-dasharray:none" />
    <path
       inkscape:connector-curvature="0"
       id="path3771-0-1"
       d="m 955.551,383.41632 v 11.33334 h 15.06667 V 545.91632 H 1178.4844 V 394.74966 h 14.9333 v -11.33334 h -14.9333 -0.1666 -207.6668 -0.0333 -15.06666 z"
       style="fill:none;stroke:#ff0000;stroke-width:0.18897638;stroke-miterlimit:4;stroke-opacity:1;stroke-dasharray:none" />
    <path
       style="fill:none;stroke:#ff0000;stroke-width:0.18897638;stroke-miterlimit:4;stroke-opacity:1;stroke-dasharray:none"
       d="m 1187.2894,898.03506 v -11.33334 h 15.0666 V 735.53511 h 207.8667 v 151.16661 h 14.9333 v 11.33334 h -14.9333 -0.1666 -207.6667 -0.033 -15.0667 z"
       id="path3773-4-1"
       inkscape:connector-curvature="0" />
    <path
       style="fill:none;stroke:#ff0000;stroke-width:0.18897638;stroke-miterlimit:4;stroke-opacity:1;stroke-dasharray:none"
       d="m 955.551,559.47575 v 11.33333 h 15.06667 V 721.97565 H 1178.4844 V 570.80908 h 14.9333 v -11.33333 h -14.9333 -0.1666 -207.6668 -0.0333 -15.06666 z"
       id="path3775-7-9"
       inkscape:connector-curvature="0" />
    <path
       inkscape:connector-curvature="0"
       id="path3777-4-1"
       d="m 1187.2894,721.97565 v -11.33333 h 15.0666 V 559.47575 h 207.8667 v 151.16657 h 14.9333 v 11.33333 h -14.9333 -0.1666 -207.6667 -0.033 -15.0667 z"
       style="fill:none;stroke:#ff0000;stroke-width:0.18897638;stroke-miterlimit:4;stroke-opacity:1;stroke-dasharray:none" />
    <path
       inkscape:connector-curvature="0"
       id="path3779-3-2"
       d="m 955.551,735.53511 v 11.33333 h 15.06667 V 898.03506 H 1178.4844 V 746.86844 h 14.9333 v -11.33333 h -14.9333 -0.1666 -207.6668 -0.0333 -15.06666 z"
       style="fill:none;stroke:#ff0000;stroke-width:0.18897638;stroke-miterlimit:4;stroke-opacity:1;stroke-dasharray:none" />
    <path
       style="fill:none;stroke:#ff0000;stroke-width:0.18897638;stroke-miterlimit:4;stroke-opacity:1;stroke-dasharray:none"
       d="m 1187.2894,545.91632 v -11.33333 h 15.0666 V 383.41632 h 207.8667 v 151.16667 h 14.9333 v 11.33333 h -14.9333 -0.1666 -207.6667 -0.033 -15.0667 z"
       id="path3781-5-9"
       inkscape:connector-curvature="0" />
    <path
       style="fill:none;stroke:#ff0000;stroke-width:0.18897638;stroke-miterlimit:4;stroke-opacity:1;stroke-dasharray:none"
       d="m 955.551,911.59448 v 11.33333 h 15.06667 V 1074.0945 H 1178.4844 V 922.92781 h 14.9333 v -11.33333 h -14.9333 -0.1666 -207.6668 -0.0333 -15.06666 z"
       id="path3783-8-4"
       inkscape:connector-curvature="0" />
    <path
       inkscape:connector-curvature="0"
       id="path3785-0-8"
       d="m 1187.2894,369.85692 v -11.33333 h 15.0666 V 207.35698 h 207.8667 v 151.16661 h 14.9333 v 11.33333 h -14.9333 -0.1666 -207.6667 -0.033 -15.0667 z"
       style="fill:none;stroke:#ff0000;stroke-width:0.18897638;stroke-miterlimit:4;stroke-opacity:1;stroke-dasharray:none" />
    <path
       style="fill:none;stroke:#ff0000;stroke-width:0.18897638;stroke-miterlimit:4;stroke-opacity:1;stroke-dasharray:none"
       d="m 1419.0277,207.35694 v 11.33334 h 15.0667 v 151.16666 h 207.8667 V 218.69028 h 14.9333 v -11.33334 h -14.9333 -0.1667 -207.6666 -0.033 -15.0667 z"
       id="rect2985-2-1-7"
       inkscape:connector-curvature="0" />
    <path
       inkscape:connector-curvature="0"
       id="path3769-3-4-6"
       d="m 1650.7661,1074.0945 v -11.3334 h 15.0666 V 911.59446 h 207.8667 v 151.16664 h 14.9333 v 11.3334 h -14.9333 -0.1666 -207.6667 -0.033 -15.0667 z"
       style="fill:none;stroke:#ff0000;stroke-width:0.18897638;stroke-miterlimit:4;stroke-opacity:1;stroke-dasharray:none" />
    <path
       inkscape:connector-curvature="0"
       id="path3771-0-1-4"
       d="m 1419.0277,383.41632 v 11.33334 h 15.0667 v 151.16666 h 207.8667 V 394.74966 h 14.9333 v -11.33334 h -14.9333 -0.1667 -207.6666 -0.033 -15.0667 z"
       style="fill:none;stroke:#ff0000;stroke-width:0.18897638;stroke-miterlimit:4;stroke-opacity:1;stroke-dasharray:none" />
    <path
       style="fill:none;stroke:#ff0000;stroke-width:0.18897638;stroke-miterlimit:4;stroke-opacity:1;stroke-dasharray:none"
       d="m 1650.7661,898.03506 v -11.33334 h 15.0666 V 735.53511 h 207.8667 v 151.16661 h 14.9333 v 11.33334 h -14.9333 -0.1666 -207.6667 -0.033 -15.0667 z"
       id="path3773-4-1-3"
       inkscape:connector-curvature="0" />
    <path
       style="fill:none;stroke:#ff0000;stroke-width:0.18897638;stroke-miterlimit:4;stroke-opacity:1;stroke-dasharray:none"
       d="m 1419.0277,559.47575 v 11.33333 h 15.0667 v 151.16657 h 207.8667 V 570.80908 h 14.9333 v -11.33333 h -14.9333 -0.1667 -207.6666 -0.033 -15.0667 z"
       id="path3775-7-9-3"
       inkscape:connector-curvature="0" />
    <path
       inkscape:connector-curvature="0"
       id="path3777-4-1-5"
       d="m 1650.7661,721.97565 v -11.33333 h 15.0666 V 559.47575 h 207.8667 v 151.16657 h 14.9333 v 11.33333 h -14.9333 -0.1666 -207.6667 -0.033 -15.0667 z"
       style="fill:none;stroke:#ff0000;stroke-width:0.18897638;stroke-miterlimit:4;stroke-opacity:1;stroke-dasharray:none" />
    <path
       inkscape:connector-curvature="0"
       id="path3779-3-2-0"
       d="m 1419.0277,735.53511 v 11.33333 h 15.0667 v 151.16662 h 207.8667 V 746.86844 h 14.9333 v -11.33333 h -14.9333 -0.1667 -207.6666 -0.033 -15.0667 z"
       style="fill:none;stroke:#ff0000;stroke-width:0.18897638;stroke-miterlimit:4;stroke-opacity:1;stroke-dasharray:none" />
    <path
       style="fill:none;stroke:#ff0000;stroke-width:0.18897638;stroke-miterlimit:4;stroke-opacity:1;stroke-dasharray:none"
       d="m 1650.7661,545.91632 v -11.33333 h 15.0666 V 383.41632 h 207.8667 v 151.16667 h 14.9333 v 11.33333 h -14.9333 -0.1666 -207.6667 -0.033 -15.0667 z"
       id="path3781-5-9-0"
       inkscape:connector-curvature="0" />
    <path
       style="fill:none;stroke:#ff0000;stroke-width:0.18897638;stroke-miterlimit:4;stroke-opacity:1;stroke-dasharray:none"
       d="m 1419.0277,911.59446 v 11.33333 h 15.0667 v 151.16671 h 207.8667 V 922.92779 h 14.9333 v -11.33333 h -14.9333 -0.1667 -207.6666 -0.033 -15.0667 z"
       id="path3783-8-4-6"
       inkscape:connector-curvature="0" />
    <path
       inkscape:connector-curvature="0"
       id="path3785-0-8-6"
       d="m 1650.7661,369.85692 v -11.33333 h 15.0666 V 207.35698 h 207.8667 v 151.16661 h 14.9333 v 11.33333 h -14.9333 -0.1666 -207.6667 -0.033 -15.0667 z"
       style="fill:none;stroke:#ff0000;stroke-width:0.18897638;stroke-miterlimit:4;stroke-opacity:1;stroke-dasharray:none" />
  </g>
</svg>
