<?xml version="1.0" encoding="UTF-8" standalone="no"?>
<!-- Created with Inkscape (http://www.inkscape.org/) -->

<svg
   xmlns:dc="http://purl.org/dc/elements/1.1/"
   xmlns:cc="http://creativecommons.org/ns#"
   xmlns:rdf="http://www.w3.org/1999/02/22-rdf-syntax-ns#"
   xmlns:svg="http://www.w3.org/2000/svg"
   xmlns="http://www.w3.org/2000/svg"
   xmlns:sodipodi="http://sodipodi.sourceforge.net/DTD/sodipodi-0.dtd"
   xmlns:inkscape="http://www.inkscape.org/namespaces/inkscape"
   id="svg3139"
   version="1.1"
   inkscape:version="0.48.2 r9819"
   width="2094.9219"
   height="1715.5906"
   xml:space="preserve"
   sodipodi:docname="letters.pdf"
   inkscape:export-filename="/Users/Francisco/Desktop/letters.png"
   inkscape:export-xdpi="500"
   inkscape:export-ydpi="500"><metadata
     id="metadata3145"><rdf:RDF><cc:Work
         rdf:about=""><dc:format>image/svg+xml</dc:format><dc:type
           rdf:resource="http://purl.org/dc/dcmitype/StillImage" /><dc:title></dc:title></cc:Work></rdf:RDF></metadata><defs
     id="defs3143"><clipPath
       clipPathUnits="userSpaceOnUse"
       id="clipPath3155"><path
         d="m 0,0 1683.78,0 0,2383.937 L 0,2383.937 0,0 z"
         id="path3157"
         inkscape:connector-curvature="0" /></clipPath></defs><sodipodi:namedview
     pagecolor="#ffffff"
     bordercolor="#666666"
     borderopacity="1"
     objecttolerance="10"
     gridtolerance="10"
     guidetolerance="10"
     inkscape:pageopacity="0"
     inkscape:pageshadow="2"
     inkscape:window-width="1124"
     inkscape:window-height="779"
     id="namedview3141"
     showgrid="false"
     showguides="true"
     inkscape:guide-bbox="true"
     units="mm"
     fit-margin-left="0"
     fit-margin-right="0"
     fit-margin-top="10"
     fit-margin-bottom="10"
     inkscape:zoom="0.39"
     inkscape:cx="1079.8474"
     inkscape:cy="917.01442"
     inkscape:window-x="189"
     inkscape:window-y="0"
     inkscape:window-maximized="0"
     inkscape:current-layer="g3147" /><g
     id="g3147"
     inkscape:groupmode="layer"
     inkscape:label="letters"
     transform="matrix(1.25,0,0,-1.25,1.25,1719.1043)"><path
       d="m 48,274.937 155.9055,0 0,-243.77953 -155.9055,0 0,243.77953 z"
       style="fill:#c0c0c0;fill-opacity:1;fill-rule:nonzero;stroke:none"
       id="path3163"
       inkscape:connector-curvature="0" /><path
       d="m 158.91636,88.957 -65.54,0 -9.57,-40.02 -31.32,0 54.52,208.22 38.28,0 54.23,-208.22 -30.74,0 -9.86,40.02 m -58.29,30.74 50.75,0 -25.52,105.85 -25.23,-105.85"
       style="font-size:290px;font-variant:normal;font-weight:normal;writing-mode:lr-tb;fill:#000000;fill-opacity:1;fill-rule:nonzero;stroke:none;font-family:BlueHighwayD;-inkscape-font-specification:BlueHighwayD-Regular"
       id="path4248"
       inkscape:connector-curvature="0" /><path
       d="m 227,274.937 155.9055,0 0,-243.77953 -155.9055,0 0,243.77953 z"
       style="fill:#c0c0c0;fill-opacity:1;fill-rule:nonzero;stroke:none"
       id="path3171"
       inkscape:connector-curvature="0" /><path
       d="m 406,274.937 155.9055,0 0,-243.77953 -155.9055,0 0,243.77953 z"
       style="fill:#c0c0c0;fill-opacity:1;fill-rule:nonzero;stroke:none"
       id="path3173"
       inkscape:connector-curvature="0" /><path
       d="m 585,274.937 155.9055,0 0,-243.77953 -155.9055,0 0,243.77953 z"
       style="fill:#c0c0c0;fill-opacity:1;fill-rule:nonzero;stroke:none"
       id="path3175"
       inkscape:connector-curvature="0" /><path
       d="m 764,274.937 155.9055,0 0,-243.77953 -155.9055,0 0,243.77953 z"
       style="fill:#c0c0c0;fill-opacity:1;fill-rule:nonzero;stroke:none"
       id="path3177"
       inkscape:connector-curvature="0" /><path
       d="m 943,274.937 155.906,0 0,-243.77953 -155.906,0 0,243.77953 z"
       style="fill:#c0c0c0;fill-opacity:1;fill-rule:nonzero;stroke:none"
       id="path3179"
       inkscape:connector-curvature="0" /><path
       d="m 1122,274.937 155.906,0 0,-243.77953 -155.906,0 0,243.77953 z"
       style="fill:#c0c0c0;fill-opacity:1;fill-rule:nonzero;stroke:none"
       id="path3181"
       inkscape:connector-curvature="0" /><path
       d="m 1301,274.937 155.906,0 0,-243.77953 -155.906,0 0,243.77953 z"
       style="fill:#c0c0c0;fill-opacity:1;fill-rule:nonzero;stroke:none"
       id="path3183"
       inkscape:connector-curvature="0" /><path
       d="m 1480,274.937 155.906,0 0,-243.77953 -155.906,0 0,243.77953 z"
       style="fill:#c0c0c0;fill-opacity:1;fill-rule:nonzero;stroke:none"
       id="path3185"
       inkscape:connector-curvature="0" /><path
       d="m 48,542.937 155.9055,0 0,-243.7795 -155.9055,0 0,243.7795 z"
       style="fill:#c0c0c0;fill-opacity:1;fill-rule:nonzero;stroke:none"
       id="path3187"
       inkscape:connector-curvature="0" /><path
       d="m 227,542.937 155.9055,0 0,-243.7795 -155.9055,0 0,243.7795 z"
       style="fill:#c0c0c0;fill-opacity:1;fill-rule:nonzero;stroke:none"
       id="path3189"
       inkscape:connector-curvature="0" /><path
       d="m 406,542.937 155.9055,0 0,-243.7795 -155.9055,0 0,243.7795 z"
       style="fill:#c0c0c0;fill-opacity:1;fill-rule:nonzero;stroke:none"
       id="path3191"
       inkscape:connector-curvature="0" /><path
       d="m 585,542.937 155.9055,0 0,-243.7795 -155.9055,0 0,243.7795 z"
       style="fill:#c0c0c0;fill-opacity:1;fill-rule:nonzero;stroke:none"
       id="path3193"
       inkscape:connector-curvature="0" /><path
       d="m 764,542.937 155.9055,0 0,-243.7795 -155.9055,0 0,243.7795 z"
       style="fill:#c0c0c0;fill-opacity:1;fill-rule:nonzero;stroke:none"
       id="path3195"
       inkscape:connector-curvature="0" /><path
       d="m 943,542.937 155.906,0 0,-243.7795 -155.906,0 0,243.7795 z"
       style="fill:#c0c0c0;fill-opacity:1;fill-rule:nonzero;stroke:none"
       id="path3197"
       inkscape:connector-curvature="0" /><path
       d="m 1122,542.937 155.906,0 0,-243.7795 -155.906,0 0,243.7795 z"
       style="fill:#c0c0c0;fill-opacity:1;fill-rule:nonzero;stroke:none"
       id="path3199"
       inkscape:connector-curvature="0" /><path
       d="m 1301,542.937 155.906,0 0,-243.7795 -155.906,0 0,243.7795 z"
       style="fill:#c0c0c0;fill-opacity:1;fill-rule:nonzero;stroke:none"
       id="path3201"
       inkscape:connector-curvature="0" /><path
       d="m 1480,542.937 155.906,0 0,-243.7795 -155.906,0 0,243.7795 z"
       style="fill:#c0c0c0;fill-opacity:1;fill-rule:nonzero;stroke:none"
       id="path3203"
       inkscape:connector-curvature="0" /><path
       d="m 48,810.937 155.9055,0 0,-243.7795 -155.9055,0 0,243.7795 z"
       style="fill:#c0c0c0;fill-opacity:1;fill-rule:nonzero;stroke:none"
       id="path3205"
       inkscape:connector-curvature="0" /><path
       d="m 227,810.937 155.9055,0 0,-243.7795 -155.9055,0 0,243.7795 z"
       style="fill:#c0c0c0;fill-opacity:1;fill-rule:nonzero;stroke:none"
       id="path3207"
       inkscape:connector-curvature="0" /><path
       d="m 406,810.937 155.9055,0 0,-243.7795 -155.9055,0 0,243.7795 z"
       style="fill:#c0c0c0;fill-opacity:1;fill-rule:nonzero;stroke:none"
       id="path3209"
       inkscape:connector-curvature="0" /><path
       d="m 585,810.937 155.9055,0 0,-243.7795 -155.9055,0 0,243.7795 z"
       style="fill:#c0c0c0;fill-opacity:1;fill-rule:nonzero;stroke:none"
       id="path3211"
       inkscape:connector-curvature="0" /><path
       d="m 764,810.937 155.9055,0 0,-243.7795 -155.9055,0 0,243.7795 z"
       style="fill:#c0c0c0;fill-opacity:1;fill-rule:nonzero;stroke:none"
       id="path3213"
       inkscape:connector-curvature="0" /><path
       d="m 943,810.937 155.906,0 0,-243.7795 -155.906,0 0,243.7795 z"
       style="fill:#c0c0c0;fill-opacity:1;fill-rule:nonzero;stroke:none"
       id="path3215"
       inkscape:connector-curvature="0" /><path
       d="m 1122,810.937 155.906,0 0,-243.7795 -155.906,0 0,243.7795 z"
       style="fill:#c0c0c0;fill-opacity:1;fill-rule:nonzero;stroke:none"
       id="path3217"
       inkscape:connector-curvature="0" /><path
       d="m 1301,810.937 155.906,0 0,-243.7795 -155.906,0 0,243.7795 z"
       style="fill:#c0c0c0;fill-opacity:1;fill-rule:nonzero;stroke:none"
       id="path3219"
       inkscape:connector-curvature="0" /><path
       d="m 1480,810.937 155.906,0 0,-243.7795 -155.906,0 0,243.7795 z"
       style="fill:#c0c0c0;fill-opacity:1;fill-rule:nonzero;stroke:none"
       id="path3221"
       inkscape:connector-curvature="0" /><path
       d="m 48,1078.937 155.9055,0 0,-243.7795 -155.9055,0 0,243.7795 z"
       style="fill:#c0c0c0;fill-opacity:1;fill-rule:nonzero;stroke:none"
       id="path3223"
       inkscape:connector-curvature="0" /><path
       d="m 227,1078.937 155.9055,0 0,-243.7795 -155.9055,0 0,243.7795 z"
       style="fill:#c0c0c0;fill-opacity:1;fill-rule:nonzero;stroke:none"
       id="path3225"
       inkscape:connector-curvature="0" /><path
       d="m 406,1078.937 155.9055,0 0,-243.7795 -155.9055,0 0,243.7795 z"
       style="fill:#c0c0c0;fill-opacity:1;fill-rule:nonzero;stroke:none"
       id="path3227"
       inkscape:connector-curvature="0" /><path
       d="m 585,1078.937 155.9055,0 0,-243.7795 -155.9055,0 0,243.7795 z"
       style="fill:#c0c0c0;fill-opacity:1;fill-rule:nonzero;stroke:none"
       id="path3229"
       inkscape:connector-curvature="0" /><path
       d="m 764,1078.937 155.9055,0 0,-243.7795 -155.9055,0 0,243.7795 z"
       style="fill:#c0c0c0;fill-opacity:1;fill-rule:nonzero;stroke:none"
       id="path3231"
       inkscape:connector-curvature="0" /><path
       d="m 943,1078.937 155.906,0 0,-243.7795 -155.906,0 0,243.7795 z"
       style="fill:#c0c0c0;fill-opacity:1;fill-rule:nonzero;stroke:none"
       id="path3233"
       inkscape:connector-curvature="0" /><path
       d="m 1122,1078.937 155.906,0 0,-243.7795 -155.906,0 0,243.7795 z"
       style="fill:#c0c0c0;fill-opacity:1;fill-rule:nonzero;stroke:none"
       id="path3235"
       inkscape:connector-curvature="0" /><path
       d="m 1301,1078.937 155.906,0 0,-243.7795 -155.906,0 0,243.7795 z"
       style="fill:#c0c0c0;fill-opacity:1;fill-rule:nonzero;stroke:none"
       id="path3237"
       inkscape:connector-curvature="0" /><path
       d="m 1480,1078.937 155.906,0 0,-243.7795 -155.906,0 0,243.7795 z"
       style="fill:#c0c0c0;fill-opacity:1;fill-rule:nonzero;stroke:none"
       id="path3239"
       inkscape:connector-curvature="0" /><path
       style="fill:#c6c6c6;fill-opacity:1;fill-rule:nonzero;stroke:none;stroke-opacity:1"
       d="M 61.25 35.4375 L 61.25 340.15625 L 256.125 340.15625 L 256.125 35.4375 L 61.25 35.4375 z M 285 35.4375 L 285 340.15625 L 479.875 340.15625 L 479.875 35.4375 L 285 35.4375 z M 508.75 35.4375 L 508.75 340.15625 L 703.625 340.15625 L 703.625 35.4375 L 508.75 35.4375 z M 732.5 35.4375 L 732.5 340.15625 L 927.375 340.15625 L 927.375 35.4375 L 732.5 35.4375 z "
       transform="matrix(0.8,0,0,-0.8,-1,1375.2834)"
       id="path3241" /><path
       d="m 277.59682,79.677 36.83,0 c 7.34658,-3.1e-5 13.14657,2.706633 17.4,8.12 4.44656,5.413289 6.66989,13.04995 6.67,22.91 -1.1e-4,9.27993 -2.03011,16.52992 -6.09,21.75 -3.86676,5.21991 -9.57009,7.82991 -17.11,7.83 l -37.7,0 0,-60.61 m 31.03,91.35 c 3.09325,-1.2e-4 5.89658,0.77321 8.41,2.32 2.51325,1.73987 4.54324,3.86654 6.09,6.38 1.54657,2.70653 2.70657,5.7032 3.48,8.99 0.96657,3.47986 1.4499,6.95985 1.45,10.44 -1e-4,7.73318 -1.83676,14.11317 -5.51,19.14 -3.48009,5.21983 -8.12008,7.82982 -13.92,7.83 l -31.03,0 0,-55.1 31.03,0 m -0.29,86.13 c 6.37992,-2.1e-4 12.46991,-1.25687 18.27,-3.77 5.7999,-2.3202 10.92323,-5.89687 15.37,-10.73 4.44655,-4.64019 7.92655,-10.44018 10.44,-17.4 2.70654,-6.96017 4.05987,-14.88683 4.06,-23.78 -1.3e-4,-8.89348 -1.54679,-16.6268 -4.64,-23.2 -2.90012,-6.38012 -6.86345,-11.89012 -11.89,-16.53 3.67322,-0.96678 7.34655,-2.70678 11.02,-5.22 3.67321,-2.51344 6.86321,-5.8001 9.57,-9.86 2.70653,-4.06009 4.92987,-8.99009 6.67,-14.79 1.73986,-5.60674 2.60986,-12.18007 2.61,-19.72 -1.4e-4,-19.913377 -5.22013,-35.476694 -15.66,-46.69 -10.24678,-11.020006 -25.2301,-16.53 -44.95,-16.53 l -60.61,0 0,208.22 59.74,0"
       style="font-size:290px;font-variant:normal;font-weight:normal;writing-mode:lr-tb;fill:#000000;fill-opacity:1;fill-rule:nonzero;stroke:none;font-family:BlueHighwayD;-inkscape-font-specification:BlueHighwayD-Regular"
       id="path4251"
       inkscape:connector-curvature="0" /><path
       d="m 528.51718,204.957 c -4.25346,8.11984 -9.18345,13.82316 -14.79,17.11 -5.60677,3.28649 -13.24343,4.92982 -22.91,4.93 -7.15342,-1.8e-4 -13.53341,-1.74018 -19.14,-5.22 -5.4134,-3.48017 -10.05339,-8.50683 -13.92,-15.08 -3.86672,-6.38015 -6.86338,-14.11348 -8.99,-23.2 -1.93338,-9.08679 -2.90004,-19.23678 -2.9,-30.45 -4e-5,-10.44009 1.06329,-20.20342 3.19,-29.29 2.31995,-8.8934 5.41328,-16.62673 9.28,-23.2 4.05994,-6.573378 8.89327,-11.793373 14.5,-15.66 5.79992,-3.673366 12.17992,-5.51003 19.14,-5.51 8.89323,-3e-5 15.94989,1.836634 21.17,5.51 5.21988,3.673294 9.95655,8.119956 14.21,13.34 l 23.49,-17.11 c -13.53347,-23.393342 -33.54345,-35.089997 -60.03,-35.09 -10.82674,3e-6 -20.88007,2.706667 -30.16,8.12 -9.08672,5.413323 -16.91671,12.856649 -23.49,22.33 -6.57336,9.473296 -11.69669,20.686618 -15.37,33.64 -3.67335,13.14659 -5.51001,27.45324 -5.51,42.92 -10e-6,15.07988 1.73998,29.09653 5.22,42.05 3.47998,13.14651 8.40997,24.4565 14.79,33.93 6.57329,9.66648 14.40328,17.20647 23.49,22.62 9.27993,5.60646 19.62325,8.40979 31.03,8.41 28.41988,-2.1e-4 49.00986,-12.56687 61.77,-37.7 l -24.07,-17.4"
       style="font-size:290px;font-variant:normal;font-weight:normal;writing-mode:lr-tb;fill:#000000;fill-opacity:1;fill-rule:nonzero;stroke:none;font-family:BlueHighwayD;-inkscape-font-specification:BlueHighwayD-Regular"
       id="path4254"
       inkscape:connector-curvature="0" /><path
       d="m 623.70592,226.127 0,-145.87 18.56,0 c 9.85993,-3.1e-5 18.65658,1.739967 26.39,5.22 7.73324,3.673293 14.2099,8.796621 19.43,15.37 5.41322,6.57327 9.47321,14.3066 12.18,23.2 2.89988,8.89325 4.34987,18.75324 4.35,29.58 -1.3e-4,11.01988 -1.35346,20.97654 -4.06,29.87 -2.51345,8.89319 -6.38012,16.43318 -11.6,22.62 -5.2201,6.37984 -11.69677,11.30983 -19.43,14.79 -7.73342,3.47982 -16.82007,5.21982 -27.26,5.22 l -18.56,0 m -27.55,-177.19 0,208.22 51.62,0 c 12.75992,-2.1e-4 24.45657,-2.61021 35.09,-7.83 10.63322,-5.02686 19.71988,-12.18019 27.26,-21.46 7.73319,-9.08684 13.62985,-20.01016 17.69,-32.77 4.25318,-12.5668 6.37984,-26.29345 6.38,-41.18 -1.6e-4,-16.24009 -2.22349,-30.93341 -6.67,-44.08 -4.44681,-12.953381 -10.63347,-23.97337 -18.56,-33.06 -7.73346,-8.893352 -17.01345,-15.756679 -27.84,-20.59 -10.63343,-4.833336 -22.23341,-7.25 -34.8,-7.25 l -50.17,0"
       style="font-size:290px;font-variant:normal;font-weight:normal;writing-mode:lr-tb;fill:#000000;fill-opacity:1;fill-rule:nonzero;stroke:none;font-family:BlueHighwayD;-inkscape-font-specification:BlueHighwayD-Regular"
       id="path4257"
       inkscape:connector-curvature="0" /><path
       d="m 793.28092,257.157 98.31,0 0,-31.03 -69.31,0 0,-55.1 42.92,0 0,-30.74 -42.92,0 0,-60.61 69.31,0 0,-30.74 -98.31,0 0,208.22"
       style="font-size:290px;font-variant:normal;font-weight:normal;writing-mode:lr-tb;fill:#000000;fill-opacity:1;fill-rule:nonzero;stroke:none;font-family:BlueHighwayD;-inkscape-font-specification:BlueHighwayD-Regular"
       id="path4260"
       inkscape:connector-curvature="0" /><path
       d="m 1005.1971,171.027 44.37,0 0,-30.74 -44.37,0 0,-91.35 -29.00001,0 0,208.22 98.31001,0 0,-31.03 -69.31,0 0,-55.1"
       style="font-size:290px;font-variant:normal;font-weight:normal;writing-mode:lr-tb;fill:#000000;fill-opacity:1;fill-rule:nonzero;stroke:none;font-family:BlueHighwayD;-inkscape-font-specification:BlueHighwayD-Regular"
       id="path4263"
       inkscape:connector-curvature="0" /><path
       d="m 1202.0312,46.037 c -11.0201,3e-6 -21.0734,2.706667 -30.16,8.12 -9.0867,5.606656 -16.9167,13.146648 -23.49,22.62 -6.38,9.666629 -11.4067,20.976618 -15.08,33.93 -3.48,13.14659 -5.22,27.25991 -5.22,42.34 0,16.43321 1.8366,31.2232 5.51,44.37 3.6733,13.33984 8.7,24.64983 15.08,33.93 6.5733,9.27981 14.4033,16.33647 23.49,21.17 9.0866,5.02646 19.0433,7.53979 29.87,7.54 15.2732,-2.1e-4 27.7432,-3.19021 37.41,-9.57 9.6665,-6.18686 18.0765,-15.75685 25.23,-28.71 l -24.36,-16.82 c -4.2535,8.11984 -9.1835,13.82316 -14.79,17.11 -5.4134,3.28649 -12.4701,4.92982 -21.17,4.93 -14.5001,-1.8e-4 -25.8101,-5.99351 -33.93,-17.98 -7.9267,-11.98681 -11.89,-30.64346 -11.89,-55.97 0,-10.82676 0.9666,-20.78342 2.9,-29.87 1.9333,-9.08673 4.7366,-17.01339 8.41,-23.78 3.8666,-6.573377 8.5066,-11.793372 13.92,-15.66 5.4133,-3.673364 11.5033,-5.510029 18.27,-5.51 12.7599,-2.9e-5 22.0399,3.866634 27.84,11.6 5.9932,7.926618 8.9899,18.84994 8.99,32.77 l -33.93,0 0,31.03 68.73,0 0,-13.92 c -2e-4,-12.76008 -1.5468,-24.8434 -4.64,-36.25 -3.0935,-11.213377 -7.7335,-21.073367 -13.92,-29.58 -5.9935,-8.506683 -13.4368,-15.273343 -22.33,-20.3 -8.8934,-5.026666 -19.1401,-7.539997 -30.74,-7.54"
       style="font-size:290px;font-variant:normal;font-weight:normal;writing-mode:lr-tb;fill:#000000;fill-opacity:1;fill-rule:nonzero;stroke:none;font-family:BlueHighwayD;-inkscape-font-specification:BlueHighwayD-Regular"
       id="path4266"
       inkscape:connector-curvature="0" /><path
       d="m 1412.9321,140.287 -67.86,0 0,-91.35 -29,0 0,208.22 29,0 0,-86.13 67.86,0 0,86.13 29,0 0,-208.22 -29,0 0,91.35"
       style="font-size:290px;font-variant:normal;font-weight:normal;writing-mode:lr-tb;fill:#000000;fill-opacity:1;fill-rule:nonzero;stroke:none;font-family:BlueHighwayD;-inkscape-font-specification:BlueHighwayD-Regular"
       id="path4269"
       inkscape:connector-curvature="0" /><path
       d="m 1543.5005,257.157 29,0 0,-208.22 -29,0 0,208.22"
       style="font-size:290px;font-variant:normal;font-weight:normal;writing-mode:lr-tb;fill:#000000;fill-opacity:1;fill-rule:nonzero;stroke:none;font-family:BlueHighwayD;-inkscape-font-specification:BlueHighwayD-Regular"
       id="path4272"
       inkscape:connector-curvature="0" /><path
       d="m 160.22101,525.157 0,-133.69 c -8e-5,-10.82673 -1.54675,-20.88005 -4.64,-30.16 -2.90008,-9.28003 -7.15341,-17.30336 -12.76,-24.07 -5.41339,-6.76668 -12.08339,-12.08334 -20.01,-15.95 -7.73337,-3.86667 -16.3367,-5.8 -25.81,-5.8 -5.413349,0 -9.666678,0.29 -12.76,0.87 -3.093339,0.38667 -5.220003,0.77333 -6.38,1.16 l 3.48,29.29 c 4.253324,-0.58003 8.409986,-0.87003 12.47,-0.87 12.3733,-3e-5 21.74996,3.76997 28.13,11.31 6.37995,7.73328 9.56994,20.58994 9.57,38.57 l 0,129.34 28.71,0"
       style="font-size:290px;font-variant:normal;font-weight:normal;writing-mode:lr-tb;fill:#000000;fill-opacity:1;fill-rule:nonzero;stroke:none;font-family:BlueHighwayD;-inkscape-font-specification:BlueHighwayD-Regular"
       id="path4275"
       inkscape:connector-curvature="0" /><path
       d="m 300.94127,405.677 -24.36,-39.73 0,-49.01 -29,0 0,208.22 29,0 0,-104.98 62.35,104.98 34.51,0 -52.78,-90.77 56.84,-117.45 -35.67,0 -40.89,88.74"
       style="font-size:290px;font-variant:normal;font-weight:normal;writing-mode:lr-tb;fill:#000000;fill-opacity:1;fill-rule:nonzero;stroke:none;font-family:BlueHighwayD;-inkscape-font-specification:BlueHighwayD-Regular"
       id="path4278"
       inkscape:connector-curvature="0" /><path
       d="m 437.02218,525.157 29,0 0,-177.48 75.69,0 0,-30.74 -104.69,0 0,208.22"
       style="font-size:290px;font-variant:normal;font-weight:normal;writing-mode:lr-tb;fill:#000000;fill-opacity:1;fill-rule:nonzero;stroke:none;font-family:BlueHighwayD;-inkscape-font-specification:BlueHighwayD-Regular"
       id="path4281"
       inkscape:connector-curvature="0" /><path
       d="m 710.85073,459.037 -45.53,-142.1 -1.45,0 -48.43,142.39 0,-142.39 -29,0 0,208.22 39.44,0 38.86,-120.06 37.7,120.06 37.12,0 0,-208.22 -28.71,0 0,142.1"
       style="font-size:290px;font-variant:normal;font-weight:normal;writing-mode:lr-tb;fill:#000000;fill-opacity:1;fill-rule:nonzero;stroke:none;font-family:BlueHighwayD;-inkscape-font-specification:BlueHighwayD-Regular"
       id="path4284"
       inkscape:connector-curvature="0" /><path
       d="m 806.62051,465.127 0,-148.19 -28.71,0 0,208.22 35.38,0 63.8,-142.1 0,142.1 29,0 0,-208.22 -32.77,0 -66.7,148.19"
       style="font-size:290px;font-variant:normal;font-weight:normal;writing-mode:lr-tb;fill:#000000;fill-opacity:1;fill-rule:nonzero;stroke:none;font-family:BlueHighwayD;-inkscape-font-specification:BlueHighwayD-Regular"
       id="path4287"
       inkscape:connector-curvature="0" /><path
       d="m 1020.8563,314.037 c -11.0201,0 -21.07344,2.41667 -30.16004,7.25 -8.89338,5.02666 -16.62671,12.08332 -23.2,21.17 -6.57336,9.27996 -11.69669,20.49329 -15.37,33.64 -3.48002,13.33993 -5.22001,28.32325 -5.22,44.95 -10e-6,16.81988 1.73998,31.8032 5.22,44.95 3.67331,13.33984 8.79664,24.55316 15.37,33.64 6.57329,9.27981 14.30662,16.33647 23.2,21.17 9.0866,4.83312 19.13994,7.24979 30.16004,7.25 11.0199,-2.1e-4 21.0732,-2.41688 30.16,-7.25 9.0865,-4.83353 16.9165,-11.89019 23.49,-21.17 6.5731,-9.08684 11.5998,-20.30016 15.08,-33.64 3.6731,-13.1468 5.5098,-28.13012 5.51,-44.95 -2e-4,-16.62675 -1.8369,-31.61007 -5.51,-44.95 -3.4802,-13.14671 -8.5069,-24.36004 -15.08,-33.64 -6.5735,-9.08668 -14.4035,-16.14334 -23.49,-21.17 -9.0868,-4.83333 -19.1401,-7.25 -30.16,-7.25 m 0,32.48 c 13.3399,-3e-5 24.2632,6.08996 32.77,18.27 8.6998,12.17994 13.0498,30.93325 13.05,56.26 -2e-4,25.32654 -3.9635,44.07985 -11.89,56.26 -7.9268,12.37316 -19.2368,18.55982 -33.93,18.56 -14.5001,-1.8e-4 -25.71344,-6.18684 -33.64004,-18.56 -7.92671,-12.18015 -11.89004,-30.93346 -11.89,-56.26 -4e-5,-25.32675 4.25329,-44.08006 12.76,-56.26 8.5066,-12.18004 19.42994,-18.27003 32.77004,-18.27"
       style="font-size:290px;font-variant:normal;font-weight:normal;writing-mode:lr-tb;fill:#000000;fill-opacity:1;fill-rule:nonzero;stroke:none;font-family:BlueHighwayD;-inkscape-font-specification:BlueHighwayD-Regular"
       id="path4290"
       inkscape:connector-curvature="0" /><path
       d="m 1172.7406,494.127 0,-64.38 38.28,0 c 9.4732,-1.1e-4 16.3366,2.60988 20.59,7.83 4.2532,5.21987 6.3799,13.04987 6.38,23.49 -10e-5,11.01984 -2.1268,19.2365 -6.38,24.65 -4.2534,5.60649 -11.1168,8.40982 -20.59,8.41 l -38.28,0 m 0,-95.12 0,-82.07 -29,0 0,208.22 64.96,0 c 8.3132,-2.1e-4 16.0466,-1.35354 23.2,-4.06 7.1532,-2.51353 13.2432,-6.3802 18.27,-11.6 5.2199,-5.22019 9.2799,-11.79351 12.18,-19.72 2.8999,-7.92683 4.3499,-17.20682 4.35,-27.84 -10e-5,-20.49346 -5.3168,-36.15344 -15.95,-46.98 -10.4401,-10.63342 -24.4568,-15.95008 -42.05,-15.95 l -35.96,0"
       style="font-size:290px;font-variant:normal;font-weight:normal;writing-mode:lr-tb;fill:#000000;fill-opacity:1;fill-rule:nonzero;stroke:none;font-family:BlueHighwayD;-inkscape-font-specification:BlueHighwayD-Regular"
       id="path4293"
       inkscape:connector-curvature="0" /><path
       d="m 1378.8563,314.037 c -11.0201,0 -21.0734,2.41667 -30.16,7.25 -8.8934,5.02666 -16.6267,12.08332 -23.2,21.17 -6.5734,9.27996 -11.6967,20.49329 -15.37,33.64 -3.48,13.33993 -5.22,28.32325 -5.22,44.95 0,16.81988 1.74,31.8032 5.22,44.95 3.6733,13.33984 8.7966,24.55316 15.37,33.64 6.5733,9.27981 14.3066,16.33647 23.2,21.17 9.0866,4.83312 19.1399,7.24979 30.16,7.25 11.0199,-2.1e-4 21.0732,-2.41688 30.16,-7.25 9.0865,-4.83353 16.9165,-11.89019 23.49,-21.17 6.5732,-9.08684 11.5998,-20.30016 15.08,-33.64 3.6732,-13.1468 5.5098,-28.13012 5.51,-44.95 -2e-4,-17.59342 -2.0302,-33.15674 -6.09,-46.69 -3.8668,-13.34004 -9.2801,-24.65003 -16.24,-33.93 l 13.92,-20.3 -20.59,-18.56 -13.05,20.88 c -9.6668,-5.60667 -20.3968,-8.41 -32.19,-8.41 m 0,31.32 c 5.7999,-3e-5 11.0199,1.0633 15.66,3.19 l -25.81,37.99 20.3,19.43 24.94,-39.44 c 3.8665,6.18661 6.5732,13.7266 8.12,22.62 1.7399,9.08658 2.6099,19.71991 2.61,31.9 -10e-5,25.32654 -3.9635,44.07985 -11.89,56.26 -7.9268,12.37316 -19.2368,18.55982 -33.93,18.56 -14.5001,-1.8e-4 -25.7134,-6.18684 -33.64,-18.56 -7.9267,-12.18015 -11.89,-30.93346 -11.89,-56.26 0,-25.13341 4.2533,-44.08006 12.76,-56.84 8.5066,-12.5667 19.4299,-18.85003 32.77,-18.85"
       style="font-size:290px;font-variant:normal;font-weight:normal;writing-mode:lr-tb;fill:#000000;fill-opacity:1;fill-rule:nonzero;stroke:none;font-family:BlueHighwayD;-inkscape-font-specification:BlueHighwayD-Regular"
       id="path4296"
       inkscape:connector-curvature="0" /><path
       d="m 1529.1454,494.127 0,-64.38 38.28,0 c 9.4732,-1.1e-4 16.3366,2.60988 20.59,7.83 4.2532,5.21987 6.3799,13.04987 6.38,23.49 -1e-4,11.01984 -2.1268,19.2365 -6.38,24.65 -4.2534,5.60649 -11.1168,8.40982 -20.59,8.41 l -38.28,0 m 29.87,-95.12 -29.87,0 0,-82.07 -29,0 0,208.22 64.96,0 c 19.3332,-2.1e-4 33.8332,-5.60687 43.5,-16.82 9.6665,-11.02018 14.4999,-26.48683 14.5,-46.4 -10e-5,-15.08013 -3.0935,-27.45345 -9.28,-37.12 -6.1868,-9.66677 -14.7901,-16.43343 -25.81,-20.3 l 35.38,-87.58 -31.32,0 -33.06,82.07"
       style="font-size:290px;font-variant:normal;font-weight:normal;writing-mode:lr-tb;fill:#000000;fill-opacity:1;fill-rule:nonzero;stroke:none;font-family:BlueHighwayD;-inkscape-font-specification:BlueHighwayD-Regular"
       id="path4299"
       inkscape:connector-curvature="0" /><path
       d="m 78.87507,629.887 c 6.186637,-4.64004 12.759964,-8.5067 19.72,-11.6 7.15328,-3.09336 15.65994,-4.64003 25.52,-4.64 9.47325,-3e-5 17.01325,2.2233 22.62,6.67 5.60657,4.63996 8.4099,11.01995 8.41,19.14 -1e-4,7.34661 -2.70676,13.82326 -8.12,19.43 -5.22009,5.79992 -13.14675,12.27658 -23.78,19.43 -6.76673,4.44657 -14.01672,9.2799 -21.75,14.5 -7.540039,5.41322 -14.306698,11.79321 -20.3,19.14 -4.060022,5.02653 -6.960019,9.95653 -8.7,14.79 -1.740015,5.02652 -2.610014,11.59985 -2.61,19.72 -1.4e-5,8.11983 1.546651,15.27316 4.64,21.46 3.093311,6.18648 7.153307,11.30981 12.18,15.37 5.219963,4.25313 11.116624,7.44313 17.69,9.57 6.76661,2.12646 13.7266,3.18979 20.88,3.19 10.82659,-2.1e-4 20.78324,-1.35354 29.87,-4.06 9.27989,-2.51354 15.85322,-6.0902 19.72,-10.73 l -7.83,-31.9 c -4.64011,4.4465 -10.24677,7.92649 -16.82,10.44 -6.57342,2.51316 -14.21008,3.76982 -22.91,3.77 -8.8934,-1.8e-4 -15.95006,-1.83684 -21.17,-5.51 -5.02671,-3.48017 -7.540043,-8.50683 -7.54,-15.08 -4.3e-5,-3.67349 0.966622,-7.15348 2.9,-10.44 2.12662,-3.09348 4.63995,-6.09014 7.54,-8.99 3.09328,-2.7068 6.47661,-5.22013 10.15,-7.54 3.67327,-2.32013 7.15326,-4.54346 10.44,-6.67 7.73325,-5.02679 14.88658,-9.86011 21.46,-14.5 6.76656,-4.64011 12.56656,-9.5701 17.4,-14.79 4.83322,-5.02676 8.60321,-10.63342 11.31,-16.82 2.89987,-5.99341 4.34987,-12.9534 4.35,-20.88 -1.3e-4,-9.28005 -1.54679,-17.69004 -4.64,-25.23 -3.09345,-7.34669 -7.34678,-13.63002 -12.76,-18.85 -5.41344,-5.22001 -11.79343,-9.28 -19.14,-12.18 -7.34675,-2.70667 -15.27341,-4.06 -23.78,-4.06 -12.37339,0 -23.10338,1.64333 -32.19,4.93 -9.086694,3.28666 -16.916686,7.44332 -23.49,12.47 l 10.73,30.45"
       style="font-size:290px;font-variant:normal;font-weight:normal;writing-mode:lr-tb;fill:#000000;fill-opacity:1;fill-rule:nonzero;stroke:none;font-family:BlueHighwayD;-inkscape-font-specification:BlueHighwayD-Regular"
       id="path4302"
       inkscape:connector-curvature="0" /><path
       d="m 320.95142,584.937 -31.61,0 0,177.19 -47.85,0 0,31.03 126.73,0 0,-31.03 -47.27,0 0,-177.19"
       style="font-size:290px;font-variant:normal;font-weight:normal;writing-mode:lr-tb;fill:#000000;fill-opacity:1;fill-rule:nonzero;stroke:none;font-family:BlueHighwayD;-inkscape-font-specification:BlueHighwayD-Regular"
       id="path4305"
       inkscape:connector-curvature="0" /><path
       d="m 485.16145,582.037 c -10.0534,0 -19.04339,1.83667 -26.97,5.51 -7.73338,3.67333 -14.40337,8.89332 -20.01,15.66 -5.41336,6.76664 -9.57002,14.88663 -12.47,24.36 -2.90002,9.66661 -4.35002,20.3966 -4.35,32.19 l 0,133.4 28.71,0 0,-133.4 c -4e-5,-17.40006 2.99662,-29.58004 8.99,-36.54 5.99327,-6.96003 14.69326,-10.44003 26.1,-10.44 10.82658,-3e-5 19.04323,3.47997 24.65,10.44 5.60656,6.95996 8.40989,19.13994 8.41,36.54 l 0,133.4 28.71,0 0,-133.4 c -1.4e-4,-11.60006 -1.35347,-22.23339 -4.06,-31.9 -2.7068,-9.47337 -6.67013,-17.69003 -11.89,-24.65 -5.22012,-6.76668 -11.69678,-11.98667 -19.43,-15.66 -7.5401,-3.67333 -16.33676,-5.51 -26.39,-5.51"
       style="font-size:290px;font-variant:normal;font-weight:normal;writing-mode:lr-tb;fill:#000000;fill-opacity:1;fill-rule:nonzero;stroke:none;font-family:BlueHighwayD;-inkscape-font-specification:BlueHighwayD-Regular"
       id="path4308"
       inkscape:connector-curvature="0" /><path
       d="m 644.87636,584.937 -55.39,208.22 33.35,0 40.02,-164.43 40.02,164.43 33.35,0 -56.55,-208.22 -34.8,0"
       style="font-size:290px;font-variant:normal;font-weight:normal;writing-mode:lr-tb;fill:#000000;fill-opacity:1;fill-rule:nonzero;stroke:none;font-family:BlueHighwayD;-inkscape-font-specification:BlueHighwayD-Regular"
       id="path4311"
       inkscape:connector-curvature="0" /><path
       d="m 860.1262,688.757 51.33,-103.82 -33.64,0 -36.83,75.69 -37.12,-75.69 -33.35,0 51.91,104.98 -51.91,103.24 34.22,0 37.7,-73.95 37.99,73.95 33.06,0 -53.36,-104.4"
       style="font-size:290px;font-variant:normal;font-weight:normal;writing-mode:lr-tb;fill:#000000;fill-opacity:1;fill-rule:nonzero;stroke:none;font-family:BlueHighwayD;-inkscape-font-specification:BlueHighwayD-Regular"
       id="path4314"
       inkscape:connector-curvature="0" /><path
       d="m 1036.8062,584.937 -31.32,0 0,78.88 -53.94001,129.34 32.48,0 37.41001,-93.96 37.12,93.96 32.19,0 -53.94,-128.76 0,-79.46"
       style="font-size:290px;font-variant:normal;font-weight:normal;writing-mode:lr-tb;fill:#000000;fill-opacity:1;fill-rule:nonzero;stroke:none;font-family:BlueHighwayD;-inkscape-font-specification:BlueHighwayD-Regular"
       id="path4317"
       inkscape:connector-curvature="0" /><path
       d="m 1142.8706,616.547 83.52,147.61 -83.52,0 0,29 115.71,0 0,-32.19 -83.52,-147.32 84.1,0 0,-28.71 -116.29,0 0,31.61"
       style="font-size:290px;font-variant:normal;font-weight:normal;writing-mode:lr-tb;fill:#000000;fill-opacity:1;fill-rule:nonzero;stroke:none;font-family:BlueHighwayD;-inkscape-font-specification:BlueHighwayD-Regular"
       id="path4320"
       inkscape:connector-curvature="0" /><path
       d="m 1367.98,745.887 -15.66,0 0,28.42 c 5.8,0.38648 10.73,2.22314 14.79,5.51 4.2533,3.28647 6.8633,7.73313 7.83,13.34 l 21.75,0 0,-208.22 -28.71,0 0,160.95"
       style="font-size:290px;font-variant:normal;font-weight:normal;writing-mode:lr-tb;fill:#000000;fill-opacity:1;fill-rule:nonzero;stroke:none;font-family:BlueHighwayD;-inkscape-font-specification:BlueHighwayD-Regular"
       id="path4323"
       inkscape:connector-curvature="0" /><path
       d="m 1503.9168,601.467 c 0,11.79331 0.7733,22.23329 2.32,31.32 1.74,9.08661 4.35,17.2066 7.83,24.36 3.48,7.15325 7.83,13.53325 13.05,19.14 5.4133,5.60657 11.7933,10.7299 19.14,15.37 5.0266,3.28656 9.9566,5.99322 14.79,8.12 4.8333,2.31988 9.0866,5.21988 12.76,8.7 3.6732,3.47987 5.9932,7.1532 6.96,11.02 1.1599,3.86653 1.7399,9.18319 1.74,15.95 -1e-4,8.69984 -1.7401,15.36983 -5.22,20.01 -3.4801,4.83316 -9.5701,7.24982 -18.27,7.25 -7.3467,-1.8e-4 -13.8234,-1.45018 -19.43,-4.35 -5.4134,-2.90017 -10.5367,-8.70016 -15.37,-17.4 l -19.14,26.97 c 6.7666,9.47314 14.5,16.5298 23.2,21.17 8.8933,4.63979 19.7199,6.95979 32.48,6.96 7.5399,-2.1e-4 14.4032,-1.35354 20.59,-4.06 6.1866,-2.51354 11.5032,-6.28353 15.95,-11.31 4.6399,-5.02686 8.2166,-11.21352 10.73,-18.56 2.5132,-7.34684 3.7699,-15.66016 3.77,-24.94 -10e-5,-9.86014 -1.2568,-18.3668 -3.77,-25.52 -2.3201,-7.15345 -5.6068,-13.43678 -9.86,-18.85 -4.0601,-5.2201 -8.8934,-9.95677 -14.5,-14.21 -5.6068,-4.06009 -11.6001,-7.92675 -17.98,-11.6 -11.0201,-6.38008 -18.6567,-13.72674 -22.91,-22.04 -4.06,-8.31338 -6.09,-18.07671 -6.09,-29.29 l 75.11,0 0,-30.74 -107.88,0 0,16.53"
       style="font-size:290px;font-variant:normal;font-weight:normal;writing-mode:lr-tb;fill:#000000;fill-opacity:1;fill-rule:nonzero;stroke:none;font-family:BlueHighwayD;-inkscape-font-specification:BlueHighwayD-Regular"
       id="path4326"
       inkscape:connector-curvature="0" /><path
       d="m 123.68108,850.037 c -24.36004,0 -41.276689,9.85999 -50.75,29.58 l 24.07,18.85 c 2.31996,-5.60671 5.60662,-10.05337 9.86,-13.34 4.44661,-3.09336 10.05328,-4.64003 16.82,-4.64 8.11993,-3e-5 14.40325,3.0933 18.85,9.28 4.63991,6.18662 6.95991,14.20995 6.96,24.07 -9e-5,12.75993 -2.41675,21.94325 -7.25,27.55 -4.83341,5.79991 -11.60007,8.6999 -20.3,8.7 l -10.73,0 0,30.74 10.73,0 c 7.15326,-1.3e-4 12.27659,2.2232 15.37,6.67 3.09325,4.63986 4.63992,11.69652 4.64,21.17 -8e-5,7.3465 -1.45008,13.2432 -4.35,17.69 -2.90008,4.6398 -7.7334,6.9598 -14.5,6.96 -5.60672,-2e-4 -9.66672,-1.1602 -12.18,-3.48 -2.32005,-2.1268 -4.64005,-5.1235 -6.96,-8.99 l -23.49,10.15 c 0.773312,3.6732 2.319977,7.4432 4.64,11.31 2.319972,3.8665 5.316636,7.3465 8.99,10.44 3.866628,3.2865 8.21662,5.9931 13.05,8.12 5.02661,2.1265 10.53661,3.1898 16.53,3.19 6.1866,-2e-4 11.98659,-1.1602 17.4,-3.48 5.41325,-2.3202 10.14991,-5.7035 14.21,-10.15 4.0599,-4.4469 7.2499,-10.0535 9.57,-16.82 2.31989,-6.5735 3.47989,-14.2102 3.48,-22.91 -1.1e-4,-11.02015 -1.64344,-20.01014 -4.93,-26.97 -3.09343,-6.96012 -7.73343,-12.47012 -13.92,-16.53 3.47991,-1.35345 6.9599,-3.57678 10.44,-6.67 3.4799,-3.09344 6.57323,-6.9601 9.28,-11.6 2.89989,-4.44676 5.12322,-9.66675 6.67,-15.66 1.73988,-5.80007 2.60988,-12.18007 2.61,-19.14 -1.2e-4,-9.28005 -1.25678,-17.88338 -3.77,-25.81 -2.51345,-7.92669 -6.09011,-14.69335 -10.73,-20.3 -4.6401,-5.60668 -10.34343,-10.05334 -17.11,-13.34 -6.76675,-3.09333 -14.50007,-4.64 -23.2,-4.64"
       style="font-size:290px;font-variant:normal;font-weight:normal;writing-mode:lr-tb;fill:#000000;fill-opacity:1;fill-rule:nonzero;stroke:none;font-family:BlueHighwayD;-inkscape-font-specification:BlueHighwayD-Regular"
       id="path4329"
       inkscape:connector-curvature="0" /><path
       d="m 274.98587,937.327 41.76,0 0,75.4 -41.76,-75.4 m 70.18,-84.39 -28.42,0 0,53.94 -74.82,0 0,26.1 73.95,128.18 29.29,0 0,-123.83 19.14,0 0,-30.45 -19.14,0 0,-53.94"
       style="font-size:290px;font-variant:normal;font-weight:normal;writing-mode:lr-tb;fill:#000000;fill-opacity:1;fill-rule:nonzero;stroke:none;font-family:BlueHighwayD;-inkscape-font-specification:BlueHighwayD-Regular"
       id="path4332"
       inkscape:connector-curvature="0" /><path
       d="m 479.36189,850.037 c -13.34005,0 -23.87671,1.45 -31.61,4.35 -7.54003,2.9 -14.21002,6.86332 -20.01,11.89 l 14.5,30.74 c 6.76663,-5.41337 13.04996,-9.28003 18.85,-11.6 5.99328,-2.1267 11.88994,-3.19003 17.69,-3.19 10.43992,-3e-5 18.84991,3.28663 25.23,9.86 6.3799,6.57329 9.5699,16.23995 9.57,29 -1e-4,13.53325 -2.80343,23.68324 -8.41,30.45 -5.60675,6.76656 -12.47008,10.14989 -20.59,10.15 -4.8334,-1.1e-4 -9.57006,-1.16011 -14.21,-3.48 -4.64005,-2.3201 -9.08672,-6.0901 -13.34,-11.31 l -26.68,12.76 7.25,101.5 92.8,0 0,-31.03 -66.7,0 -4.06,-48.14 c 3.86661,3.86653 8.11994,6.66986 12.76,8.41 4.63993,1.93319 9.3766,2.89986 14.21,2.9 17.59324,-1.4e-4 31.12656,-6.38013 40.6,-19.14 9.47321,-12.76011 14.20987,-30.54676 14.21,-53.36 -1.3e-4,-11.60006 -1.54679,-21.84671 -4.64,-30.74 -3.09345,-8.70003 -7.44345,-16.04669 -13.05,-22.04 -5.41344,-5.99334 -11.98677,-10.53667 -19.72,-13.63 -7.54008,-2.9 -15.75674,-4.35 -24.65,-4.35"
       style="font-size:290px;font-variant:normal;font-weight:normal;writing-mode:lr-tb;fill:#000000;fill-opacity:1;fill-rule:nonzero;stroke:none;font-family:BlueHighwayD;-inkscape-font-specification:BlueHighwayD-Regular"
       id="path4335"
       inkscape:connector-curvature="0" /><path
       d="m 664.88585,959.367 c -8.89339,-1.1e-4 -15.75672,-3.4801 -20.59,-10.44 -4.83338,-6.96009 -7.25004,-16.53008 -7.25,-28.71 -4e-5,-12.18005 2.12662,-21.84671 6.38,-29 4.44661,-7.15336 11.11661,-10.73003 20.01,-10.73 8.89326,-3e-5 15.85325,3.47997 20.88,10.44 5.2199,7.15329 7.8299,16.81994 7.83,29 -10e-5,12.17992 -2.51343,21.74991 -7.54,28.71 -4.83342,7.15323 -11.40674,10.72989 -19.72,10.73 m -3.19,-109.33 c -8.12006,0 -15.46672,1.93333 -22.04,5.8 -6.57337,3.86666 -12.18003,9.37665 -16.82,16.53 -4.44669,7.15331 -7.92669,15.8533 -10.44,26.1 -2.51335,10.24661 -3.77001,21.74993 -3.77,34.51 -10e-6,17.01324 1.93332,33.15655 5.8,48.43 3.86664,15.27319 9.1833,28.7098 15.95,40.31 6.76662,11.5998 14.78995,20.9765 24.07,28.13 9.47326,7.1531 19.71992,11.2131 30.74,12.18 l 4.64,-29 c -6.38009,-1.5468 -12.47008,-3.7702 -18.27,-6.67 -5.80007,-2.9002 -11.11673,-6.8635 -15.95,-11.89 -4.64006,-5.0268 -8.70005,-11.3101 -12.18,-18.85 -3.28671,-7.3468 -5.70338,-16.33679 -7.25,-26.97 1.73996,2.51322 3.86662,4.92988 6.38,7.25 2.70662,2.51321 5.50995,4.63987 8.41,6.38 3.09327,1.9332 6.28327,3.47987 9.57,4.64 3.2866,1.15986 6.4766,1.73986 9.57,1.74 6.95992,-1.4e-4 13.33991,-1.64347 19.14,-4.93 5.99323,-3.09346 11.11656,-7.63679 15.37,-13.63 4.25322,-5.80011 7.53988,-12.7601 9.86,-20.88 2.51321,-8.12009 3.76988,-17.11008 3.77,-26.97 -1.2e-4,-23.97338 -5.12345,-42.05003 -15.37,-54.23 -10.05343,-11.98667 -23.78008,-17.98 -41.18,-17.98"
       style="font-size:290px;font-variant:normal;font-weight:normal;writing-mode:lr-tb;fill:#000000;fill-opacity:1;fill-rule:nonzero;stroke:none;font-family:BlueHighwayD;-inkscape-font-specification:BlueHighwayD-Regular"
       id="path4338"
       inkscape:connector-curvature="0" /><path
       d="m 812.56521,852.937 c 0.7733,17.59332 2.51329,34.89663 5.22,51.91 2.70662,17.2066 6.28328,33.44658 10.73,48.72 4.63994,15.46655 10.05327,29.67654 16.24,42.63 6.37992,13.1465 13.53325,24.4565 21.46,33.93 l -78.01,0 0,31.03 110.2,0 0,-35.67 c -8.12012,-8.3135 -15.56344,-18.7535 -22.33,-31.32 -6.57343,-12.37346 -12.27676,-26.10012 -17.11,-41.18 -4.83341,-15.08008 -8.60341,-31.2234 -11.31,-48.43 -2.70674,-17.01337 -4.15674,-34.22002 -4.35,-51.62 l -30.74,0"
       style="font-size:290px;font-variant:normal;font-weight:normal;writing-mode:lr-tb;fill:#000000;fill-opacity:1;fill-rule:nonzero;stroke:none;font-family:BlueHighwayD;-inkscape-font-specification:BlueHighwayD-Regular"
       id="path4341"
       inkscape:connector-curvature="0" /><path
       d="m 1022.0168,954.727 c -20.1067,-10e-5 -30.16003,-12.95342 -30.15999,-38.86 -4e-5,-12.18005 2.70662,-21.46004 8.12,-27.84 5.41329,-6.1867 12.75989,-9.28003 22.03999,-9.28 9.2799,-3e-5 16.5299,2.8033 21.75,8.41 5.2199,5.79996 7.8299,15.36995 7.83,28.71 -10e-5,13.33992 -2.3201,23.10325 -6.96,29.29 -4.6401,6.3799 -12.1801,9.5699 -22.62,9.57 m 0,80.91 c -7.5401,-2e-4 -12.9534,-2.4168 -16.24,-7.25 -3.0934,-4.6402 -4.64,-11.1168 -4.64,-19.43 0,-16.62681 6.96,-24.94013 20.88,-24.94 6.1866,-1.3e-4 10.9233,2.31987 14.21,6.96 3.2866,4.63986 4.9299,10.6332 4.93,17.98 -10e-5,8.3132 -1.4501,14.7898 -4.35,19.43 -2.7067,4.8332 -7.6367,7.2498 -14.79,7.25 m -0.87,-185.6 c -8.5067,0 -16.24,1.45 -23.19999,4.35 -6.76671,2.9 -12.5667,7.15332 -17.4,12.76 -4.83336,5.60665 -8.60335,12.37331 -11.31,20.3 -2.70668,8.11996 -4.06001,17.39995 -4.06,27.84 -1e-5,6.95993 0.67665,13.53326 2.03,19.72 1.54665,6.37991 3.57665,12.08324 6.09,17.11 2.70664,5.2199 5.79997,9.56989 9.28,13.05 3.6733,3.47988 7.53996,5.89655 11.6,7.25 -6.1867,5.02654 -10.5367,11.01987 -13.05,17.98 -2.51336,7.15319 -3.77003,14.7899 -3.77,22.91 -3e-5,15.6598 3.86664,28.0331 11.6,37.12 7.92662,9.0865 18.55999,13.6298 31.89999,13.63 14.1133,-2e-4 25.2299,-4.1569 33.35,-12.47 8.3132,-8.1202 12.4699,-20.9768 12.47,-38.57 -10e-5,-8.3135 -1.3534,-16.14348 -4.06,-23.49 -2.7068,-7.15346 -7.7334,-13.34012 -15.08,-18.56 4.8332,-1.16012 9.1832,-3.57678 13.05,-7.25 3.8666,-3.48011 7.0566,-7.73344 9.57,-12.76 2.7066,-5.02676 4.7366,-10.63342 6.09,-16.82 1.3532,-6.18674 2.0299,-12.47007 2.03,-18.85 -1e-4,-21.07338 -5.1234,-37.21669 -15.37,-48.43 -10.2468,-11.21334 -24.1667,-16.82 -41.76,-16.82"
       style="font-size:290px;font-variant:normal;font-weight:normal;writing-mode:lr-tb;fill:#000000;fill-opacity:1;fill-rule:nonzero;stroke:none;font-family:BlueHighwayD;-inkscape-font-specification:BlueHighwayD-Regular"
       id="path4344"
       inkscape:connector-curvature="0" /><path
       d="m 1197.9722,953.857 c 8.8933,-10e-5 15.6599,3.38323 20.3,10.15 4.8332,6.95988 7.2499,16.52987 7.25,28.71 -1e-4,12.1798 -2.2234,21.8465 -6.67,29 -4.4467,7.3465 -11.0201,11.0198 -19.72,11.02 -8.7001,-2e-4 -15.5634,-3.6735 -20.59,-11.02 -4.8334,-7.1535 -7.25,-16.6268 -7.25,-28.42 0,-12.18013 2.2233,-21.84679 6.67,-29 4.6399,-6.9601 11.3099,-10.4401 20.01,-10.44 m 3.77,110.2 c 8.3133,-2e-4 15.6599,-2.0302 22.04,-6.09 6.5732,-3.8669 12.0832,-9.4735 16.53,-16.82 4.6399,-7.1535 8.1199,-15.9502 10.44,-26.39 2.5132,-10.4401 3.7699,-22.04014 3.77,-34.8 -1e-4,-17.20678 -1.9334,-33.54343 -5.8,-49.01 -3.8668,-15.2734 -9.2801,-28.80672 -16.24,-40.6 -6.7668,-11.60003 -14.8868,-20.97668 -24.36,-28.13 -9.2801,-7.15334 -19.5267,-11.02 -30.74,-11.6 l -3.48,29.29 c 5.9933,0.57997 11.7933,2.31997 17.4,5.22 5.6066,2.89997 10.7299,6.95996 15.37,12.18 4.6399,5.21995 8.6033,11.69661 11.89,19.43 3.4799,7.73326 5.8966,16.81992 7.25,27.26 -2.9001,-6.18675 -7.5401,-11.02008 -13.92,-14.5 -6.1867,-3.48007 -12.4701,-5.22007 -18.85,-5.22 -7.3467,-7e-5 -14.0167,1.64326 -20.01,4.93 -5.9934,3.28659 -11.1167,7.82992 -15.37,13.63 -4.2534,5.7999 -7.6367,12.7599 -10.15,20.88 -2.32,8.11988 -3.48,17.10987 -3.48,26.97 0,23.9732 5.0266,42.1465 15.08,54.52 10.2466,12.5665 24.4566,18.8498 42.63,18.85"
       style="font-size:290px;font-variant:normal;font-weight:normal;writing-mode:lr-tb;fill:#000000;fill-opacity:1;fill-rule:nonzero;stroke:none;font-family:BlueHighwayD;-inkscape-font-specification:BlueHighwayD-Regular"
       id="path4347"
       inkscape:connector-curvature="0" /><path
       d="m 1378.857,1033.897 c -13.9201,-2e-4 -23.8767,-6.4768 -29.87,-19.43 -5.8,-12.9535 -8.7,-32.09346 -8.7,-57.42 0,-26.10008 3.0933,-45.24006 9.28,-57.42 6.1866,-12.18004 15.9499,-18.27003 29.29,-18.27 13.5332,-3e-5 23.3932,6.08996 29.58,18.27 6.3799,12.17994 9.5699,31.31992 9.57,57.42 -10e-5,25.32654 -2.9001,44.4665 -8.7,57.42 -5.6068,12.9532 -15.7568,19.4298 -30.45,19.43 m 0,-183.86 c -21.6534,0 -38.28,9.08666 -49.88,27.26 -11.6,18.36662 -17.4,44.94993 -17.4,79.75 0,34.60653 5.7033,61.0932 17.11,79.46 11.6,18.3665 28.2266,27.5498 49.88,27.55 22.2332,-2e-4 39.0532,-9.1835 50.46,-27.55 11.5999,-18.1735 17.3999,-44.66014 17.4,-79.46 -10e-5,-34.80007 -5.6068,-61.38338 -16.82,-79.75 -11.2134,-18.17334 -28.1301,-27.26 -50.75,-27.26"
       style="font-size:290px;font-variant:normal;font-weight:normal;writing-mode:lr-tb;fill:#000000;fill-opacity:1;fill-rule:nonzero;stroke:none;font-family:BlueHighwayD;-inkscape-font-specification:BlueHighwayD-Regular"
       id="path4350"
       inkscape:connector-curvature="0" /><path
       d="m 1557.5655,852.937 c -5.0267,0 -8.99,2.03 -11.89,6.09 -2.9,4.25332 -4.35,9.18332 -4.35,14.79 0,5.99331 1.45,11.01997 4.35,15.08 2.9,4.05996 6.8633,6.08996 11.89,6.09 4.4466,-4e-5 8.3133,-2.03004 11.6,-6.09 3.48,-4.06003 5.22,-9.08669 5.22,-15.08 0,-5.60668 -1.74,-10.53668 -5.22,-14.79 -3.2867,-4.06 -7.1534,-6.09 -11.6,-6.09"
       style="font-size:290px;font-variant:normal;font-weight:normal;writing-mode:lr-tb;fill:#000000;fill-opacity:1;fill-rule:nonzero;stroke:none;font-family:BlueHighwayD;-inkscape-font-specification:BlueHighwayD-Regular"
       id="path4353"
       inkscape:connector-curvature="0" /><path
       style="font-size:290px;font-variant:normal;font-weight:normal;writing-mode:lr-tb;fill:#000000;fill-opacity:1;fill-rule:nonzero;stroke:none;font-family:BlueHighwayD;-inkscape-font-specification:BlueHighwayD-Regular"
       d="M 402.625 54.03125 C 380.14991 54.0315 361.42076 61.65025 346.4375 76.875 C 331.69579 91.858625 321.18955 112.0315 314.90625 137.40625 L 299.65625 137.40625 L 293.15625 175.09375 L 309.8125 175.09375 L 309.8125 196.84375 L 299.65625 196.84375 L 293.15625 236 L 314.90625 236 C 318.04789 248.80838 322.37912 260.523 327.9375 271.15625 C 333.49579 281.548 340.03953 290.50837 347.53125 298 C 355.02285 305.49163 363.34784 311.29787 372.53125 315.40625 C 381.95615 319.51463 391.99156 321.5625 402.625 321.5625 C 428.48319 321.5625 449.02484 312.86875 464.25 295.46875 L 441.40625 261.75 C 436.08944 266.34175 430.18111 270.20213 423.65625 273.34375 C 417.13113 276.4855 410.48529 278.0625 403.71875 278.0625 C 392.84365 278.0625 383.4124 274.30425 375.4375 266.8125 C 367.46242 259.32087 360.91868 249.05012 355.84375 236 L 394.28125 236 L 410.96875 196.84375 L 347.53125 196.84375 L 347.53125 175.84375 L 420.03125 175.84375 L 435.96875 137.40625 L 355.125 137.40625 C 359.71659 125.0815 365.89159 115.41475 373.625 108.40625 C 381.35824 101.1565 391.0249 97.5315 402.625 97.53125 C 411.56654 97.5315 419.18529 99.344 425.46875 102.96875 C 431.9936 106.35225 438.27069 111.6565 444.3125 118.90625 L 462.4375 76.875 C 446.48734 61.65025 426.54986 54.0315 402.625 54.03125 z M 737.59375 56.28125 L 773.71875 316.5625 L 807.1875 316.5625 L 831.125 135.3125 L 852.6875 316.5625 L 887.03125 316.5625 L 922.71875 56.28125 L 883.5625 56.28125 L 870.59375 190.8125 L 851.40625 56.28125 L 810.09375 56.28125 L 790.21875 191.1875 L 776.375 56.28125 L 737.59375 56.28125 z M 582.5 57.65625 L 514.34375 317.9375 L 553.5 317.9375 L 565.46875 267.90625 L 647.40625 267.90625 L 659.71875 317.9375 L 698.15625 317.9375 L 630.34375 57.65625 L 582.5 57.65625 z M 606.0625 97.15625 L 637.96875 229.46875 L 574.53125 229.46875 L 606.0625 97.15625 z M 159.46875 124.34375 C 153.91039 124.34388 149.21039 126.89387 145.34375 131.96875 C 141.71872 137.04387 139.90622 143.21888 139.90625 150.46875 C 139.90622 157.71887 141.71872 163.86262 145.34375 168.9375 C 149.21039 174.01262 153.91039 176.56263 159.46875 176.5625 C 164.30204 176.56263 168.5312 174.01262 172.15625 168.9375 C 175.78119 163.86262 177.59369 157.71887 177.59375 150.46875 C 177.59369 143.21888 175.78119 137.04387 172.15625 131.96875 C 168.5312 126.89387 164.30204 124.34388 159.46875 124.34375 z M 159.46875 265.375 C 153.91039 265.375 149.21039 267.89375 145.34375 272.96875 C 141.71872 278.04375 139.90622 284.35212 139.90625 291.84375 C 139.90622 298.85213 141.71872 304.99587 145.34375 310.3125 C 149.21039 315.3875 153.91039 317.9375 159.46875 317.9375 C 164.30204 317.9375 168.5312 315.3875 172.15625 310.3125 C 175.78119 304.99588 177.59369 298.85213 177.59375 291.84375 C 177.59369 284.35213 175.78119 278.04375 172.15625 272.96875 C 168.5312 267.89375 164.30204 265.375 159.46875 265.375 z "
       transform="matrix(0.8,0,0,-0.8,-1,1375.2834)"
       id="path4356" /><path
       style="font-size:medium;font-style:normal;font-variant:normal;font-weight:normal;font-stretch:normal;text-indent:0;text-align:start;text-decoration:none;line-height:normal;letter-spacing:normal;word-spacing:normal;text-transform:none;direction:ltr;block-progression:tb;writing-mode:lr-tb;text-anchor:start;baseline-shift:baseline;color:#000000;fill:#ffffff;fill-opacity:1;stroke:none;stroke-width:5;marker:none;visibility:visible;display:inline;overflow:visible;enable-background:accumulate;font-family:Sans;-inkscape-font-specification:Sans"
       d="m 8.09375,1222.4375 0,5 1666.84375,0 0,-5 -1666.84375,0 z"
       id="path3479"
       inkscape:connector-curvature="0" /><path
       style="font-size:medium;font-style:normal;font-variant:normal;font-weight:normal;font-stretch:normal;text-indent:0;text-align:start;text-decoration:none;line-height:normal;letter-spacing:normal;word-spacing:normal;text-transform:none;direction:ltr;block-progression:tb;writing-mode:lr-tb;text-anchor:start;baseline-shift:baseline;color:#000000;fill:#ffffff;fill-opacity:1;stroke:none;stroke-width:5;marker:none;visibility:visible;display:inline;overflow:visible;enable-background:accumulate;font-family:Sans;-inkscape-font-specification:Sans"
       d="m -1,955.4375 0,5 1666.8125,0 0,-5 -1666.8125,0 z"
       id="path3483"
       inkscape:connector-curvature="0" /><path
       style="font-size:medium;font-style:normal;font-variant:normal;font-weight:normal;font-stretch:normal;text-indent:0;text-align:start;text-decoration:none;line-height:normal;letter-spacing:normal;word-spacing:normal;text-transform:none;direction:ltr;block-progression:tb;writing-mode:lr-tb;text-anchor:start;baseline-shift:baseline;color:#000000;fill:#ffffff;fill-opacity:1;stroke:none;stroke-width:5;marker:none;visibility:visible;display:inline;overflow:visible;enable-background:accumulate;font-family:Sans;-inkscape-font-specification:Sans"
       d="m 8,687.4375 0,5 1666.8125,0 0,-5 -1666.8125,0 z"
       id="path3487"
       inkscape:connector-curvature="0" /><path
       style="font-size:medium;font-style:normal;font-variant:normal;font-weight:normal;font-stretch:normal;text-indent:0;text-align:start;text-decoration:none;line-height:normal;letter-spacing:normal;word-spacing:normal;text-transform:none;direction:ltr;block-progression:tb;writing-mode:lr-tb;text-anchor:start;baseline-shift:baseline;color:#000000;fill:#ffffff;fill-opacity:1;stroke:none;stroke-width:5;marker:none;visibility:visible;display:inline;overflow:visible;enable-background:accumulate;font-family:Sans;-inkscape-font-specification:Sans"
       d="m 8,419.4375 0,5 1666.8125,0 0,-5 -1666.8125,0 z"
       id="path3491"
       inkscape:connector-curvature="0" /><path
       style="font-size:medium;font-style:normal;font-variant:normal;font-weight:normal;font-stretch:normal;text-indent:0;text-align:start;text-decoration:none;line-height:normal;letter-spacing:normal;word-spacing:normal;text-transform:none;direction:ltr;block-progression:tb;writing-mode:lr-tb;text-anchor:start;baseline-shift:baseline;color:#000000;fill:#ffffff;fill-opacity:1;stroke:none;stroke-width:5;marker:none;visibility:visible;display:inline;overflow:visible;enable-background:accumulate;font-family:Sans;-inkscape-font-specification:Sans"
       d="m 8,151.4375 0,5 1666.8125,0 0,-5 -1666.8125,0 z"
       id="path3495"
       inkscape:connector-curvature="0" /></g></svg>