ISO-10303-21;
/* ALPHABETS_LICENSE_BEGIN */
/* SPDX-FileCopyrightText: 2014-2026 The Beach Lab <https://beachlab.org> */
/* SPDX-License-Identifier: MIT */
/* ALPHABETS_LICENSE_END */
HEADER;
FILE_DESCRIPTION(('Open CASCADE Model'),'2;1');
FILE_NAME('Open CASCADE Shape Model','1970-01-01T00:00:00',('Author'),(
    'Open CASCADE'),'Open CASCADE STEP processor 7.9','Open CASCADE 7.9'
  ,'Unknown');
FILE_SCHEMA(('AUTOMOTIVE_DESIGN { 1 0 10303 214 1 1 1 1 }'));
ENDSEC;
DATA;
#1 = APPLICATION_PROTOCOL_DEFINITION('international standard',
  'automotive_design',2000,#2);
#2 = APPLICATION_CONTEXT(
  'core data for automotive mechanical design processes');
#3 = SHAPE_DEFINITION_REPRESENTATION(#4,#10);
#4 = PRODUCT_DEFINITION_SHAPE('','',#5);
#5 = PRODUCT_DEFINITION('design','',#6,#9);
#6 = PRODUCT_DEFINITION_FORMATION('','',#7);
#7 = PRODUCT('Open CASCADE STEP translator 7.9 3',
  'Open CASCADE STEP translator 7.9 3','',(#8));
#8 = PRODUCT_CONTEXT('',#2,'mechanical');
#9 = PRODUCT_DEFINITION_CONTEXT('part definition',#2,'design');
#10 = ADVANCED_BREP_SHAPE_REPRESENTATION('',(#11,#15),#1213);
#11 = AXIS2_PLACEMENT_3D('',#12,#13,#14);
#12 = CARTESIAN_POINT('',(0.,0.,0.));
#13 = DIRECTION('',(0.,0.,1.));
#14 = DIRECTION('',(1.,0.,-0.));
#15 = MANIFOLD_SOLID_BREP('',#16);
#16 = CLOSED_SHELL('',(#17,#165,#246,#334,#427,#512,#560,#593,#720,#751,
    #869,#1009,#1035,#1111,#1165,#1199,#1205));
#17 = ADVANCED_FACE('',(#18),#32,.F.);
#18 = FACE_BOUND('',#19,.F.);
#19 = EDGE_LOOP('',(#20,#55,#83,#111,#139));
#20 = ORIENTED_EDGE('',*,*,#21,.T.);
#21 = EDGE_CURVE('',#22,#24,#26,.T.);
#22 = VERTEX_POINT('',#23);
#23 = CARTESIAN_POINT('',(-5.,40.301814675,11.915963143));
#24 = VERTEX_POINT('',#25);
#25 = CARTESIAN_POINT('',(-5.,41.301812976,11.915963143));
#26 = SURFACE_CURVE('',#27,(#31,#43),.PCURVE_S1.);
#27 = LINE('',#28,#29);
#28 = CARTESIAN_POINT('',(-5.,40.301814675,11.915963143));
#29 = VECTOR('',#30,1.);
#30 = DIRECTION('',(-0.,1.,-0.));
#31 = PCURVE('',#32,#37);
#32 = PLANE('',#33);
#33 = AXIS2_PLACEMENT_3D('',#34,#35,#36);
#34 = CARTESIAN_POINT('',(-5.,40.301814675,11.915963143));
#35 = DIRECTION('',(0.,0.,-1.));
#36 = DIRECTION('',(1.,0.,0.));
#37 = DEFINITIONAL_REPRESENTATION('',(#38),#42);
#38 = LINE('',#39,#40);
#39 = CARTESIAN_POINT('',(0.,0.));
#40 = VECTOR('',#41,1.);
#41 = DIRECTION('',(0.,-1.));
#42 = ( GEOMETRIC_REPRESENTATION_CONTEXT(2)
PARAMETRIC_REPRESENTATION_CONTEXT() REPRESENTATION_CONTEXT('2D SPACE',''
  ) );
#43 = PCURVE('',#44,#49);
#44 = PLANE('',#45);
#45 = AXIS2_PLACEMENT_3D('',#46,#47,#48);
#46 = CARTESIAN_POINT('',(-2.,40.301814675,5.915962763));
#47 = DIRECTION('',(0.894427202329,0.,0.447213572841));
#48 = DIRECTION('',(-0.447213572841,0.,0.894427202329));
#49 = DEFINITIONAL_REPRESENTATION('',(#50),#54);
#50 = LINE('',#51,#52);
#51 = CARTESIAN_POINT('',(6.708204272382,0.));
#52 = VECTOR('',#53,1.);
#53 = DIRECTION('',(0.,-1.));
#54 = ( GEOMETRIC_REPRESENTATION_CONTEXT(2)
PARAMETRIC_REPRESENTATION_CONTEXT() REPRESENTATION_CONTEXT('2D SPACE',''
  ) );
#55 = ORIENTED_EDGE('',*,*,#56,.T.);
#56 = EDGE_CURVE('',#24,#57,#59,.T.);
#57 = VERTEX_POINT('',#58);
#58 = CARTESIAN_POINT('',(-9.265260047531E-16,41.301812976,11.915963143)
  );
#59 = SURFACE_CURVE('',#60,(#64,#71),.PCURVE_S1.);
#60 = LINE('',#61,#62);
#61 = CARTESIAN_POINT('',(-5.,41.301812976,11.915963143));
#62 = VECTOR('',#63,1.);
#63 = DIRECTION('',(1.,0.,0.));
#64 = PCURVE('',#32,#65);
#65 = DEFINITIONAL_REPRESENTATION('',(#66),#70);
#66 = LINE('',#67,#68);
#67 = CARTESIAN_POINT('',(0.,-0.999998301));
#68 = VECTOR('',#69,1.);
#69 = DIRECTION('',(1.,0.));
#70 = ( GEOMETRIC_REPRESENTATION_CONTEXT(2)
PARAMETRIC_REPRESENTATION_CONTEXT() REPRESENTATION_CONTEXT('2D SPACE',''
  ) );
#71 = PCURVE('',#72,#77);
#72 = PLANE('',#73);
#73 = AXIS2_PLACEMENT_3D('',#74,#75,#76);
#74 = CARTESIAN_POINT('',(-5.,41.801812976,11.415963143));
#75 = DIRECTION('',(5.911709633991E-18,-0.707106781187,-0.707106781187)
  );
#76 = DIRECTION('',(-1.,-4.180209970601E-18,-4.180209970601E-18));
#77 = DEFINITIONAL_REPRESENTATION('',(#78),#82);
#78 = LINE('',#79,#80);
#79 = CARTESIAN_POINT('',(-0.,-0.707106781187));
#80 = VECTOR('',#81,1.);
#81 = DIRECTION('',(-1.,0.));
#82 = ( GEOMETRIC_REPRESENTATION_CONTEXT(2)
PARAMETRIC_REPRESENTATION_CONTEXT() REPRESENTATION_CONTEXT('2D SPACE',''
  ) );
#83 = ORIENTED_EDGE('',*,*,#84,.T.);
#84 = EDGE_CURVE('',#57,#85,#87,.T.);
#85 = VERTEX_POINT('',#86);
#86 = CARTESIAN_POINT('',(5.,41.301812976,11.915963143));
#87 = SURFACE_CURVE('',#88,(#92,#99),.PCURVE_S1.);
#88 = LINE('',#89,#90);
#89 = CARTESIAN_POINT('',(-5.,41.301812976,11.915963143));
#90 = VECTOR('',#91,1.);
#91 = DIRECTION('',(1.,0.,0.));
#92 = PCURVE('',#32,#93);
#93 = DEFINITIONAL_REPRESENTATION('',(#94),#98);
#94 = LINE('',#95,#96);
#95 = CARTESIAN_POINT('',(0.,-0.999998301));
#96 = VECTOR('',#97,1.);
#97 = DIRECTION('',(1.,0.));
#98 = ( GEOMETRIC_REPRESENTATION_CONTEXT(2)
PARAMETRIC_REPRESENTATION_CONTEXT() REPRESENTATION_CONTEXT('2D SPACE',''
  ) );
#99 = PCURVE('',#100,#105);
#100 = PLANE('',#101);
#101 = AXIS2_PLACEMENT_3D('',#102,#103,#104);
#102 = CARTESIAN_POINT('',(-5.,41.801812976,11.415963143));
#103 = DIRECTION('',(5.911709633991E-18,-0.707106781187,-0.707106781187)
  );
#104 = DIRECTION('',(-1.,-4.180209970601E-18,-4.180209970601E-18));
#105 = DEFINITIONAL_REPRESENTATION('',(#106),#110);
#106 = LINE('',#107,#108);
#107 = CARTESIAN_POINT('',(-0.,-0.707106781187));
#108 = VECTOR('',#109,1.);
#109 = DIRECTION('',(-1.,0.));
#110 = ( GEOMETRIC_REPRESENTATION_CONTEXT(2)
PARAMETRIC_REPRESENTATION_CONTEXT() REPRESENTATION_CONTEXT('2D SPACE',''
  ) );
#111 = ORIENTED_EDGE('',*,*,#112,.F.);
#112 = EDGE_CURVE('',#113,#85,#115,.T.);
#113 = VERTEX_POINT('',#114);
#114 = CARTESIAN_POINT('',(5.,40.301814675,11.915963143));
#115 = SURFACE_CURVE('',#116,(#120,#127),.PCURVE_S1.);
#116 = LINE('',#117,#118);
#117 = CARTESIAN_POINT('',(5.,40.301814675,11.915963143));
#118 = VECTOR('',#119,1.);
#119 = DIRECTION('',(-0.,1.,-0.));
#120 = PCURVE('',#32,#121);
#121 = DEFINITIONAL_REPRESENTATION('',(#122),#126);
#122 = LINE('',#123,#124);
#123 = CARTESIAN_POINT('',(10.,0.));
#124 = VECTOR('',#125,1.);
#125 = DIRECTION('',(0.,-1.));
#126 = ( GEOMETRIC_REPRESENTATION_CONTEXT(2)
PARAMETRIC_REPRESENTATION_CONTEXT() REPRESENTATION_CONTEXT('2D SPACE',''
  ) );
#127 = PCURVE('',#128,#133);
#128 = PLANE('',#129);
#129 = AXIS2_PLACEMENT_3D('',#130,#131,#132);
#130 = CARTESIAN_POINT('',(5.,40.301814675,11.915963143));
#131 = DIRECTION('',(-0.894427202329,0.,0.447213572841));
#132 = DIRECTION('',(-0.447213572841,0.,-0.894427202329));
#133 = DEFINITIONAL_REPRESENTATION('',(#134),#138);
#134 = LINE('',#135,#136);
#135 = CARTESIAN_POINT('',(0.,0.));
#136 = VECTOR('',#137,1.);
#137 = DIRECTION('',(0.,-1.));
#138 = ( GEOMETRIC_REPRESENTATION_CONTEXT(2)
PARAMETRIC_REPRESENTATION_CONTEXT() REPRESENTATION_CONTEXT('2D SPACE',''
  ) );
#139 = ORIENTED_EDGE('',*,*,#140,.F.);
#140 = EDGE_CURVE('',#22,#113,#141,.T.);
#141 = SURFACE_CURVE('',#142,(#146,#153),.PCURVE_S1.);
#142 = LINE('',#143,#144);
#143 = CARTESIAN_POINT('',(-5.,40.301814675,11.915963143));
#144 = VECTOR('',#145,1.);
#145 = DIRECTION('',(1.,0.,0.));
#146 = PCURVE('',#32,#147);
#147 = DEFINITIONAL_REPRESENTATION('',(#148),#152);
#148 = LINE('',#149,#150);
#149 = CARTESIAN_POINT('',(0.,0.));
#150 = VECTOR('',#151,1.);
#151 = DIRECTION('',(1.,0.));
#152 = ( GEOMETRIC_REPRESENTATION_CONTEXT(2)
PARAMETRIC_REPRESENTATION_CONTEXT() REPRESENTATION_CONTEXT('2D SPACE',''
  ) );
#153 = PCURVE('',#154,#159);
#154 = PLANE('',#155);
#155 = AXIS2_PLACEMENT_3D('',#156,#157,#158);
#156 = CARTESIAN_POINT('',(-1.295834818408E-16,40.301814675,
    9.572504130179));
#157 = DIRECTION('',(0.,1.,0.));
#158 = DIRECTION('',(0.,-0.,1.));
#159 = DEFINITIONAL_REPRESENTATION('',(#160),#164);
#160 = LINE('',#161,#162);
#161 = CARTESIAN_POINT('',(2.343459012821,-5.));
#162 = VECTOR('',#163,1.);
#163 = DIRECTION('',(0.,1.));
#164 = ( GEOMETRIC_REPRESENTATION_CONTEXT(2)
PARAMETRIC_REPRESENTATION_CONTEXT() REPRESENTATION_CONTEXT('2D SPACE',''
  ) );
#165 = ADVANCED_FACE('',(#166),#44,.F.);
#166 = FACE_BOUND('',#167,.F.);
#167 = EDGE_LOOP('',(#168,#198,#224,#225));
#168 = ORIENTED_EDGE('',*,*,#169,.T.);
#169 = EDGE_CURVE('',#170,#172,#174,.T.);
#170 = VERTEX_POINT('',#171);
#171 = CARTESIAN_POINT('',(-2.,40.301814675,5.915962763));
#172 = VERTEX_POINT('',#173);
#173 = CARTESIAN_POINT('',(-2.,41.301812976,5.915962763));
#174 = SURFACE_CURVE('',#175,(#179,#186),.PCURVE_S1.);
#175 = LINE('',#176,#177);
#176 = CARTESIAN_POINT('',(-2.,40.301814675,5.915962763));
#177 = VECTOR('',#178,1.);
#178 = DIRECTION('',(-0.,1.,-0.));
#179 = PCURVE('',#44,#180);
#180 = DEFINITIONAL_REPRESENTATION('',(#181),#185);
#181 = LINE('',#182,#183);
#182 = CARTESIAN_POINT('',(0.,0.));
#183 = VECTOR('',#184,1.);
#184 = DIRECTION('',(0.,-1.));
#185 = ( GEOMETRIC_REPRESENTATION_CONTEXT(2)
PARAMETRIC_REPRESENTATION_CONTEXT() REPRESENTATION_CONTEXT('2D SPACE',''
  ) );
#186 = PCURVE('',#187,#192);
#187 = CYLINDRICAL_SURFACE('',#188,2.);
#188 = AXIS2_PLACEMENT_3D('',#189,#190,#191);
#189 = CARTESIAN_POINT('',(0.,40.301814675,5.915962763));
#190 = DIRECTION('',(0.,-1.,0.));
#191 = DIRECTION('',(1.,0.,0.));
#192 = DEFINITIONAL_REPRESENTATION('',(#193),#197);
#193 = LINE('',#194,#195);
#194 = CARTESIAN_POINT('',(3.14159265359,0.));
#195 = VECTOR('',#196,1.);
#196 = DIRECTION('',(0.,-1.));
#197 = ( GEOMETRIC_REPRESENTATION_CONTEXT(2)
PARAMETRIC_REPRESENTATION_CONTEXT() REPRESENTATION_CONTEXT('2D SPACE',''
  ) );
#198 = ORIENTED_EDGE('',*,*,#199,.T.);
#199 = EDGE_CURVE('',#172,#24,#200,.T.);
#200 = SURFACE_CURVE('',#201,(#205,#212),.PCURVE_S1.);
#201 = LINE('',#202,#203);
#202 = CARTESIAN_POINT('',(-2.,41.301812976,5.915962763));
#203 = VECTOR('',#204,1.);
#204 = DIRECTION('',(-0.447213572841,0.,0.894427202329));
#205 = PCURVE('',#44,#206);
#206 = DEFINITIONAL_REPRESENTATION('',(#207),#211);
#207 = LINE('',#208,#209);
#208 = CARTESIAN_POINT('',(0.,-0.999998301));
#209 = VECTOR('',#210,1.);
#210 = DIRECTION('',(1.,0.));
#211 = ( GEOMETRIC_REPRESENTATION_CONTEXT(2)
PARAMETRIC_REPRESENTATION_CONTEXT() REPRESENTATION_CONTEXT('2D SPACE',''
  ) );
#212 = PCURVE('',#213,#218);
#213 = PLANE('',#214);
#214 = AXIS2_PLACEMENT_3D('',#215,#216,#217);
#215 = CARTESIAN_POINT('',(-1.552786398835,41.801812976,6.139569549421)
  );
#216 = DIRECTION('',(0.632455540045,-0.707106781187,0.316227749995));
#217 = DIRECTION('',(0.447213572841,-2.664306562318E-17,-0.894427202329)
  );
#218 = DEFINITIONAL_REPRESENTATION('',(#219),#223);
#219 = LINE('',#220,#221);
#220 = CARTESIAN_POINT('',(-8.881784197001E-16,-0.707106781187));
#221 = VECTOR('',#222,1.);
#222 = DIRECTION('',(-1.,0.));
#223 = ( GEOMETRIC_REPRESENTATION_CONTEXT(2)
PARAMETRIC_REPRESENTATION_CONTEXT() REPRESENTATION_CONTEXT('2D SPACE',''
  ) );
#224 = ORIENTED_EDGE('',*,*,#21,.F.);
#225 = ORIENTED_EDGE('',*,*,#226,.F.);
#226 = EDGE_CURVE('',#170,#22,#227,.T.);
#227 = SURFACE_CURVE('',#228,(#232,#239),.PCURVE_S1.);
#228 = LINE('',#229,#230);
#229 = CARTESIAN_POINT('',(-2.,40.301814675,5.915962763));
#230 = VECTOR('',#231,1.);
#231 = DIRECTION('',(-0.447213572841,0.,0.894427202329));
#232 = PCURVE('',#44,#233);
#233 = DEFINITIONAL_REPRESENTATION('',(#234),#238);
#234 = LINE('',#235,#236);
#235 = CARTESIAN_POINT('',(0.,0.));
#236 = VECTOR('',#237,1.);
#237 = DIRECTION('',(1.,0.));
#238 = ( GEOMETRIC_REPRESENTATION_CONTEXT(2)
PARAMETRIC_REPRESENTATION_CONTEXT() REPRESENTATION_CONTEXT('2D SPACE',''
  ) );
#239 = PCURVE('',#154,#240);
#240 = DEFINITIONAL_REPRESENTATION('',(#241),#245);
#241 = LINE('',#242,#243);
#242 = CARTESIAN_POINT('',(-3.656541367179,-2.));
#243 = VECTOR('',#244,1.);
#244 = DIRECTION('',(0.894427202329,-0.447213572841));
#245 = ( GEOMETRIC_REPRESENTATION_CONTEXT(2)
PARAMETRIC_REPRESENTATION_CONTEXT() REPRESENTATION_CONTEXT('2D SPACE',''
  ) );
#246 = ADVANCED_FACE('',(#247),#72,.F.);
#247 = FACE_BOUND('',#248,.T.);
#248 = EDGE_LOOP('',(#249,#272,#273,#308));
#249 = ORIENTED_EDGE('',*,*,#250,.F.);
#250 = EDGE_CURVE('',#24,#251,#253,.T.);
#251 = VERTEX_POINT('',#252);
#252 = CARTESIAN_POINT('',(-3.381966057079,42.301812976,10.915963143));
#253 = SURFACE_CURVE('',#254,(#258,#265),.PCURVE_S1.);
#254 = LINE('',#255,#256);
#255 = CARTESIAN_POINT('',(-2.748135418865,42.693541864622,
    10.524234254378));
#256 = VECTOR('',#257,1.);
#257 = DIRECTION('',(0.752937750929,0.465341134667,-0.465341134667));
#258 = PCURVE('',#72,#259);
#259 = DEFINITIONAL_REPRESENTATION('',(#260),#264);
#260 = LINE('',#261,#262);
#261 = CARTESIAN_POINT('',(-2.251864581135,1.261095088249));
#262 = VECTOR('',#263,1.);
#263 = DIRECTION('',(-0.752937750929,0.658091743776));
#264 = ( GEOMETRIC_REPRESENTATION_CONTEXT(2)
PARAMETRIC_REPRESENTATION_CONTEXT() REPRESENTATION_CONTEXT('2D SPACE',''
  ) );
#265 = PCURVE('',#213,#266);
#266 = DEFINITIONAL_REPRESENTATION('',(#267),#271);
#267 = LINE('',#268,#269);
#268 = CARTESIAN_POINT('',(-4.456339691247,1.261095088249));
#269 = VECTOR('',#270,1.);
#270 = DIRECTION('',(0.752937750929,0.658091743776));
#271 = ( GEOMETRIC_REPRESENTATION_CONTEXT(2)
PARAMETRIC_REPRESENTATION_CONTEXT() REPRESENTATION_CONTEXT('2D SPACE',''
  ) );
#272 = ORIENTED_EDGE('',*,*,#56,.T.);
#273 = ORIENTED_EDGE('',*,*,#274,.T.);
#274 = EDGE_CURVE('',#57,#275,#277,.T.);
#275 = VERTEX_POINT('',#276);
#276 = CARTESIAN_POINT('',(-2.2360679775,42.301812976,10.915963143));
#277 = SURFACE_CURVE('',#278,(#283,#290),.PCURVE_S1.);
#278 = ELLIPSE('',#279,4.242640687119,3.);
#279 = AXIS2_PLACEMENT_3D('',#280,#281,#282);
#280 = CARTESIAN_POINT('',(0.,44.301812976,8.915963143));
#281 = DIRECTION('',(5.911709633991E-18,-0.707106781187,-0.707106781187)
  );
#282 = DIRECTION('',(-5.911709633991E-18,-0.707106781187,0.707106781187)
  );
#283 = PCURVE('',#72,#284);
#284 = DEFINITIONAL_REPRESENTATION('',(#285),#289);
#285 = ELLIPSE('',#286,4.242640687119,3.);
#286 = AXIS2_PLACEMENT_2D('',#287,#288);
#287 = CARTESIAN_POINT('',(-5.,3.535533905933));
#288 = DIRECTION('',(5.911709633991E-18,-1.));
#289 = ( GEOMETRIC_REPRESENTATION_CONTEXT(2)
PARAMETRIC_REPRESENTATION_CONTEXT() REPRESENTATION_CONTEXT('2D SPACE',''
  ) );
#290 = PCURVE('',#291,#296);
#291 = CYLINDRICAL_SURFACE('',#292,3.);
#292 = AXIS2_PLACEMENT_3D('',#293,#294,#295);
#293 = CARTESIAN_POINT('',(0.,42.351812976,8.915963143));
#294 = DIRECTION('',(0.,-1.,0.));
#295 = DIRECTION('',(0.,-0.,-1.));
#296 = DEFINITIONAL_REPRESENTATION('',(#297),#307);
#297 = B_SPLINE_CURVE_WITH_KNOTS('',8,(#298,#299,#300,#301,#302,#303,
    #304,#305,#306),.UNSPECIFIED.,.F.,.F.,(9,9),(5.419973153929,
    7.14639746043),.PIECEWISE_BEZIER_KNOTS.);
#298 = CARTESIAN_POINT('',(2.27838050034,-6.000000070117E-07));
#299 = CARTESIAN_POINT('',(2.494183538652,0.491987843555));
#300 = CARTESIAN_POINT('',(2.709986576962,0.880189652295));
#301 = CARTESIAN_POINT('',(2.925789615284,1.12969044684));
#302 = CARTESIAN_POINT('',(3.141592653572,1.2158892117));
#303 = CARTESIAN_POINT('',(3.357395691909,1.12969044684));
#304 = CARTESIAN_POINT('',(3.573198730211,0.880189652295));
#305 = CARTESIAN_POINT('',(3.789001768527,0.491987843555));
#306 = CARTESIAN_POINT('',(4.00480480684,-6.000000070117E-07));
#307 = ( GEOMETRIC_REPRESENTATION_CONTEXT(2)
PARAMETRIC_REPRESENTATION_CONTEXT() REPRESENTATION_CONTEXT('2D SPACE',''
  ) );
#308 = ORIENTED_EDGE('',*,*,#309,.F.);
#309 = EDGE_CURVE('',#251,#275,#310,.T.);
#310 = SURFACE_CURVE('',#311,(#315,#322),.PCURVE_S1.);
#311 = LINE('',#312,#313);
#312 = CARTESIAN_POINT('',(-5.,42.301812976,10.915963143));
#313 = VECTOR('',#314,1.);
#314 = DIRECTION('',(1.,0.,0.));
#315 = PCURVE('',#72,#316);
#316 = DEFINITIONAL_REPRESENTATION('',(#317),#321);
#317 = LINE('',#318,#319);
#318 = CARTESIAN_POINT('',(-0.,0.707106781187));
#319 = VECTOR('',#320,1.);
#320 = DIRECTION('',(-1.,0.));
#321 = ( GEOMETRIC_REPRESENTATION_CONTEXT(2)
PARAMETRIC_REPRESENTATION_CONTEXT() REPRESENTATION_CONTEXT('2D SPACE',''
  ) );
#322 = PCURVE('',#323,#328);
#323 = PLANE('',#324);
#324 = AXIS2_PLACEMENT_3D('',#325,#326,#327);
#325 = CARTESIAN_POINT('',(-1.295834818408E-16,42.301812976,
    9.572504130179));
#326 = DIRECTION('',(0.,1.,0.));
#327 = DIRECTION('',(0.,-0.,1.));
#328 = DEFINITIONAL_REPRESENTATION('',(#329),#333);
#329 = LINE('',#330,#331);
#330 = CARTESIAN_POINT('',(1.343459012821,-5.));
#331 = VECTOR('',#332,1.);
#332 = DIRECTION('',(0.,1.));
#333 = ( GEOMETRIC_REPRESENTATION_CONTEXT(2)
PARAMETRIC_REPRESENTATION_CONTEXT() REPRESENTATION_CONTEXT('2D SPACE',''
  ) );
#334 = ADVANCED_FACE('',(#335),#100,.F.);
#335 = FACE_BOUND('',#336,.T.);
#336 = EDGE_LOOP('',(#337,#372,#373,#401));
#337 = ORIENTED_EDGE('',*,*,#338,.T.);
#338 = EDGE_CURVE('',#339,#57,#341,.T.);
#339 = VERTEX_POINT('',#340);
#340 = CARTESIAN_POINT('',(2.2360679775,42.301812976,10.915963143));
#341 = SURFACE_CURVE('',#342,(#347,#354),.PCURVE_S1.);
#342 = ELLIPSE('',#343,4.242640687119,3.);
#343 = AXIS2_PLACEMENT_3D('',#344,#345,#346);
#344 = CARTESIAN_POINT('',(0.,44.301812976,8.915963143));
#345 = DIRECTION('',(5.911709633991E-18,-0.707106781187,-0.707106781187)
  );
#346 = DIRECTION('',(-5.911709633991E-18,-0.707106781187,0.707106781187)
  );
#347 = PCURVE('',#100,#348);
#348 = DEFINITIONAL_REPRESENTATION('',(#349),#353);
#349 = ELLIPSE('',#350,4.242640687119,3.);
#350 = AXIS2_PLACEMENT_2D('',#351,#352);
#351 = CARTESIAN_POINT('',(-5.,3.535533905933));
#352 = DIRECTION('',(5.911709633991E-18,-1.));
#353 = ( GEOMETRIC_REPRESENTATION_CONTEXT(2)
PARAMETRIC_REPRESENTATION_CONTEXT() REPRESENTATION_CONTEXT('2D SPACE',''
  ) );
#354 = PCURVE('',#355,#360);
#355 = CYLINDRICAL_SURFACE('',#356,3.);
#356 = AXIS2_PLACEMENT_3D('',#357,#358,#359);
#357 = CARTESIAN_POINT('',(0.,42.351812976,8.915963143));
#358 = DIRECTION('',(0.,-1.,0.));
#359 = DIRECTION('',(0.,-0.,-1.));
#360 = DEFINITIONAL_REPRESENTATION('',(#361),#371);
#361 = B_SPLINE_CURVE_WITH_KNOTS('',8,(#362,#363,#364,#365,#366,#367,
    #368,#369,#370),.UNSPECIFIED.,.F.,.F.,(9,9),(5.419973153929,
    7.14639746043),.PIECEWISE_BEZIER_KNOTS.);
#362 = CARTESIAN_POINT('',(2.27838050034,-6.000000070117E-07));
#363 = CARTESIAN_POINT('',(2.494183538652,0.491987843555));
#364 = CARTESIAN_POINT('',(2.709986576962,0.880189652295));
#365 = CARTESIAN_POINT('',(2.925789615284,1.12969044684));
#366 = CARTESIAN_POINT('',(3.141592653572,1.2158892117));
#367 = CARTESIAN_POINT('',(3.357395691909,1.12969044684));
#368 = CARTESIAN_POINT('',(3.573198730211,0.880189652295));
#369 = CARTESIAN_POINT('',(3.789001768527,0.491987843555));
#370 = CARTESIAN_POINT('',(4.00480480684,-6.000000070117E-07));
#371 = ( GEOMETRIC_REPRESENTATION_CONTEXT(2)
PARAMETRIC_REPRESENTATION_CONTEXT() REPRESENTATION_CONTEXT('2D SPACE',''
  ) );
#372 = ORIENTED_EDGE('',*,*,#84,.T.);
#373 = ORIENTED_EDGE('',*,*,#374,.T.);
#374 = EDGE_CURVE('',#85,#375,#377,.T.);
#375 = VERTEX_POINT('',#376);
#376 = CARTESIAN_POINT('',(3.381966057079,42.301812976,10.915963143));
#377 = SURFACE_CURVE('',#378,(#382,#389),.PCURVE_S1.);
#378 = LINE('',#379,#380);
#379 = CARTESIAN_POINT('',(1.815050808781,43.270219884367,9.947556234633
    ));
#380 = VECTOR('',#381,1.);
#381 = DIRECTION('',(-0.752937750929,0.465341134667,-0.465341134667));
#382 = PCURVE('',#100,#383);
#383 = DEFINITIONAL_REPRESENTATION('',(#384),#388);
#384 = LINE('',#385,#386);
#385 = CARTESIAN_POINT('',(-6.815050808781,2.076640964895));
#386 = VECTOR('',#387,1.);
#387 = DIRECTION('',(0.752937750929,0.658091743776));
#388 = ( GEOMETRIC_REPRESENTATION_CONTEXT(2)
PARAMETRIC_REPRESENTATION_CONTEXT() REPRESENTATION_CONTEXT('2D SPACE',''
  ) );
#389 = PCURVE('',#390,#395);
#390 = PLANE('',#391);
#391 = AXIS2_PLACEMENT_3D('',#392,#393,#394);
#392 = CARTESIAN_POINT('',(4.552786398835,41.801812976,12.139569929421)
  );
#393 = DIRECTION('',(-0.632455540045,-0.707106781187,0.316227749995));
#394 = DIRECTION('',(0.447213572841,2.664306784671E-17,0.894427202329));
#395 = DEFINITIONAL_REPRESENTATION('',(#396),#400);
#396 = LINE('',#397,#398);
#397 = CARTESIAN_POINT('',(-3.184949191219,2.076640964895));
#398 = VECTOR('',#399,1.);
#399 = DIRECTION('',(-0.752937750929,0.658091743776));
#400 = ( GEOMETRIC_REPRESENTATION_CONTEXT(2)
PARAMETRIC_REPRESENTATION_CONTEXT() REPRESENTATION_CONTEXT('2D SPACE',''
  ) );
#401 = ORIENTED_EDGE('',*,*,#402,.F.);
#402 = EDGE_CURVE('',#339,#375,#403,.T.);
#403 = SURFACE_CURVE('',#404,(#408,#415),.PCURVE_S1.);
#404 = LINE('',#405,#406);
#405 = CARTESIAN_POINT('',(-5.,42.301812976,10.915963143));
#406 = VECTOR('',#407,1.);
#407 = DIRECTION('',(1.,0.,0.));
#408 = PCURVE('',#100,#409);
#409 = DEFINITIONAL_REPRESENTATION('',(#410),#414);
#410 = LINE('',#411,#412);
#411 = CARTESIAN_POINT('',(-0.,0.707106781187));
#412 = VECTOR('',#413,1.);
#413 = DIRECTION('',(-1.,0.));
#414 = ( GEOMETRIC_REPRESENTATION_CONTEXT(2)
PARAMETRIC_REPRESENTATION_CONTEXT() REPRESENTATION_CONTEXT('2D SPACE',''
  ) );
#415 = PCURVE('',#416,#421);
#416 = PLANE('',#417);
#417 = AXIS2_PLACEMENT_3D('',#418,#419,#420);
#418 = CARTESIAN_POINT('',(-1.295834818408E-16,42.301812976,
    9.572504130179));
#419 = DIRECTION('',(0.,1.,0.));
#420 = DIRECTION('',(0.,-0.,1.));
#421 = DEFINITIONAL_REPRESENTATION('',(#422),#426);
#422 = LINE('',#423,#424);
#423 = CARTESIAN_POINT('',(1.343459012821,-5.));
#424 = VECTOR('',#425,1.);
#425 = DIRECTION('',(0.,1.));
#426 = ( GEOMETRIC_REPRESENTATION_CONTEXT(2)
PARAMETRIC_REPRESENTATION_CONTEXT() REPRESENTATION_CONTEXT('2D SPACE',''
  ) );
#427 = ADVANCED_FACE('',(#428,#481),#154,.F.);
#428 = FACE_BOUND('',#429,.F.);
#429 = EDGE_LOOP('',(#430,#431,#432,#455));
#430 = ORIENTED_EDGE('',*,*,#226,.T.);
#431 = ORIENTED_EDGE('',*,*,#140,.T.);
#432 = ORIENTED_EDGE('',*,*,#433,.T.);
#433 = EDGE_CURVE('',#113,#434,#436,.T.);
#434 = VERTEX_POINT('',#435);
#435 = CARTESIAN_POINT('',(2.,40.301814675,5.915962763));
#436 = SURFACE_CURVE('',#437,(#441,#448),.PCURVE_S1.);
#437 = LINE('',#438,#439);
#438 = CARTESIAN_POINT('',(5.,40.301814675,11.915963143));
#439 = VECTOR('',#440,1.);
#440 = DIRECTION('',(-0.447213572841,0.,-0.894427202329));
#441 = PCURVE('',#154,#442);
#442 = DEFINITIONAL_REPRESENTATION('',(#443),#447);
#443 = LINE('',#444,#445);
#444 = CARTESIAN_POINT('',(2.343459012821,5.));
#445 = VECTOR('',#446,1.);
#446 = DIRECTION('',(-0.894427202329,-0.447213572841));
#447 = ( GEOMETRIC_REPRESENTATION_CONTEXT(2)
PARAMETRIC_REPRESENTATION_CONTEXT() REPRESENTATION_CONTEXT('2D SPACE',''
  ) );
#448 = PCURVE('',#128,#449);
#449 = DEFINITIONAL_REPRESENTATION('',(#450),#454);
#450 = LINE('',#451,#452);
#451 = CARTESIAN_POINT('',(0.,0.));
#452 = VECTOR('',#453,1.);
#453 = DIRECTION('',(1.,0.));
#454 = ( GEOMETRIC_REPRESENTATION_CONTEXT(2)
PARAMETRIC_REPRESENTATION_CONTEXT() REPRESENTATION_CONTEXT('2D SPACE',''
  ) );
#455 = ORIENTED_EDGE('',*,*,#456,.F.);
#456 = EDGE_CURVE('',#170,#434,#457,.T.);
#457 = SURFACE_CURVE('',#458,(#463,#474),.PCURVE_S1.);
#458 = CIRCLE('',#459,2.);
#459 = AXIS2_PLACEMENT_3D('',#460,#461,#462);
#460 = CARTESIAN_POINT('',(0.,40.301814675,5.915962763));
#461 = DIRECTION('',(0.,-1.,0.));
#462 = DIRECTION('',(1.,0.,0.));
#463 = PCURVE('',#154,#464);
#464 = DEFINITIONAL_REPRESENTATION('',(#465),#473);
#465 = ( BOUNDED_CURVE() B_SPLINE_CURVE(2,(#466,#467,#468,#469,#470,#471
,#472),.UNSPECIFIED.,.T.,.F.) B_SPLINE_CURVE_WITH_KNOTS((1,2,2,2,2,1),(
    -2.094395102393,0.,2.094395102393,4.188790204786,6.28318530718,
8.377580409573),.UNSPECIFIED.) CURVE() GEOMETRIC_REPRESENTATION_ITEM()
RATIONAL_B_SPLINE_CURVE((1.,0.5,1.,0.5,1.,0.5,1.)) REPRESENTATION_ITEM(
  '') );
#466 = CARTESIAN_POINT('',(-3.656541367179,2.));
#467 = CARTESIAN_POINT('',(-0.192439752041,2.));
#468 = CARTESIAN_POINT('',(-1.92449055961,-1.));
#469 = CARTESIAN_POINT('',(-3.656541367179,-4.));
#470 = CARTESIAN_POINT('',(-5.388592174748,-1.));
#471 = CARTESIAN_POINT('',(-7.120642982317,2.));
#472 = CARTESIAN_POINT('',(-3.656541367179,2.));
#473 = ( GEOMETRIC_REPRESENTATION_CONTEXT(2)
PARAMETRIC_REPRESENTATION_CONTEXT() REPRESENTATION_CONTEXT('2D SPACE',''
  ) );
#474 = PCURVE('',#187,#475);
#475 = DEFINITIONAL_REPRESENTATION('',(#476),#480);
#476 = LINE('',#477,#478);
#477 = CARTESIAN_POINT('',(0.,0.));
#478 = VECTOR('',#479,1.);
#479 = DIRECTION('',(1.,0.));
#480 = ( GEOMETRIC_REPRESENTATION_CONTEXT(2)
PARAMETRIC_REPRESENTATION_CONTEXT() REPRESENTATION_CONTEXT('2D SPACE',''
  ) );
#481 = FACE_BOUND('',#482,.F.);
#482 = EDGE_LOOP('',(#483));
#483 = ORIENTED_EDGE('',*,*,#484,.F.);
#484 = EDGE_CURVE('',#485,#485,#487,.T.);
#485 = VERTEX_POINT('',#486);
#486 = CARTESIAN_POINT('',(-4.163799117101E-16,40.301814675,10.615963143
    ));
#487 = SURFACE_CURVE('',#488,(#493,#500),.PCURVE_S1.);
#488 = CIRCLE('',#489,1.7);
#489 = AXIS2_PLACEMENT_3D('',#490,#491,#492);
#490 = CARTESIAN_POINT('',(0.,40.301814675,8.915963143));
#491 = DIRECTION('',(0.,1.,0.));
#492 = DIRECTION('',(0.,-0.,1.));
#493 = PCURVE('',#154,#494);
#494 = DEFINITIONAL_REPRESENTATION('',(#495),#499);
#495 = CIRCLE('',#496,1.7);
#496 = AXIS2_PLACEMENT_2D('',#497,#498);
#497 = CARTESIAN_POINT('',(-0.656540987179,1.295834818408E-16));
#498 = DIRECTION('',(1.,0.));
#499 = ( GEOMETRIC_REPRESENTATION_CONTEXT(2)
PARAMETRIC_REPRESENTATION_CONTEXT() REPRESENTATION_CONTEXT('2D SPACE',''
  ) );
#500 = PCURVE('',#501,#506);
#501 = CYLINDRICAL_SURFACE('',#502,1.7);
#502 = AXIS2_PLACEMENT_3D('',#503,#504,#505);
#503 = CARTESIAN_POINT('',(0.,40.251814675,8.915963143));
#504 = DIRECTION('',(0.,1.,0.));
#505 = DIRECTION('',(0.,-0.,1.));
#506 = DEFINITIONAL_REPRESENTATION('',(#507),#511);
#507 = LINE('',#508,#509);
#508 = CARTESIAN_POINT('',(0.,4.999999999998E-02));
#509 = VECTOR('',#510,1.);
#510 = DIRECTION('',(1.,0.));
#511 = ( GEOMETRIC_REPRESENTATION_CONTEXT(2)
PARAMETRIC_REPRESENTATION_CONTEXT() REPRESENTATION_CONTEXT('2D SPACE',''
  ) );
#512 = ADVANCED_FACE('',(#513),#128,.F.);
#513 = FACE_BOUND('',#514,.F.);
#514 = EDGE_LOOP('',(#515,#516,#539,#559));
#515 = ORIENTED_EDGE('',*,*,#112,.T.);
#516 = ORIENTED_EDGE('',*,*,#517,.T.);
#517 = EDGE_CURVE('',#85,#518,#520,.T.);
#518 = VERTEX_POINT('',#519);
#519 = CARTESIAN_POINT('',(2.,41.301812976,5.915962763));
#520 = SURFACE_CURVE('',#521,(#525,#532),.PCURVE_S1.);
#521 = LINE('',#522,#523);
#522 = CARTESIAN_POINT('',(5.,41.301812976,11.915963143));
#523 = VECTOR('',#524,1.);
#524 = DIRECTION('',(-0.447213572841,0.,-0.894427202329));
#525 = PCURVE('',#128,#526);
#526 = DEFINITIONAL_REPRESENTATION('',(#527),#531);
#527 = LINE('',#528,#529);
#528 = CARTESIAN_POINT('',(0.,-0.999998301));
#529 = VECTOR('',#530,1.);
#530 = DIRECTION('',(1.,0.));
#531 = ( GEOMETRIC_REPRESENTATION_CONTEXT(2)
PARAMETRIC_REPRESENTATION_CONTEXT() REPRESENTATION_CONTEXT('2D SPACE',''
  ) );
#532 = PCURVE('',#390,#533);
#533 = DEFINITIONAL_REPRESENTATION('',(#534),#538);
#534 = LINE('',#535,#536);
#535 = CARTESIAN_POINT('',(-0.,-0.707106781187));
#536 = VECTOR('',#537,1.);
#537 = DIRECTION('',(-1.,0.));
#538 = ( GEOMETRIC_REPRESENTATION_CONTEXT(2)
PARAMETRIC_REPRESENTATION_CONTEXT() REPRESENTATION_CONTEXT('2D SPACE',''
  ) );
#539 = ORIENTED_EDGE('',*,*,#540,.F.);
#540 = EDGE_CURVE('',#434,#518,#541,.T.);
#541 = SURFACE_CURVE('',#542,(#546,#553),.PCURVE_S1.);
#542 = LINE('',#543,#544);
#543 = CARTESIAN_POINT('',(2.,40.301814675,5.915962763));
#544 = VECTOR('',#545,1.);
#545 = DIRECTION('',(-0.,1.,-0.));
#546 = PCURVE('',#128,#547);
#547 = DEFINITIONAL_REPRESENTATION('',(#548),#552);
#548 = LINE('',#549,#550);
#549 = CARTESIAN_POINT('',(6.708204272382,0.));
#550 = VECTOR('',#551,1.);
#551 = DIRECTION('',(0.,-1.));
#552 = ( GEOMETRIC_REPRESENTATION_CONTEXT(2)
PARAMETRIC_REPRESENTATION_CONTEXT() REPRESENTATION_CONTEXT('2D SPACE',''
  ) );
#553 = PCURVE('',#187,#554);
#554 = DEFINITIONAL_REPRESENTATION('',(#555),#558);
#555 = B_SPLINE_CURVE_WITH_KNOTS('',1,(#556,#557),.UNSPECIFIED.,.F.,.F.,
  (2,2),(0.,1.999998301),.PIECEWISE_BEZIER_KNOTS.);
#556 = CARTESIAN_POINT('',(6.28318530718,0.));
#557 = CARTESIAN_POINT('',(6.28318530718,-1.999998301));
#558 = ( GEOMETRIC_REPRESENTATION_CONTEXT(2)
PARAMETRIC_REPRESENTATION_CONTEXT() REPRESENTATION_CONTEXT('2D SPACE',''
  ) );
#559 = ORIENTED_EDGE('',*,*,#433,.F.);
#560 = ADVANCED_FACE('',(#561),#187,.T.);
#561 = FACE_BOUND('',#562,.T.);
#562 = EDGE_LOOP('',(#563,#564,#565,#566));
#563 = ORIENTED_EDGE('',*,*,#540,.F.);
#564 = ORIENTED_EDGE('',*,*,#456,.F.);
#565 = ORIENTED_EDGE('',*,*,#169,.T.);
#566 = ORIENTED_EDGE('',*,*,#567,.T.);
#567 = EDGE_CURVE('',#172,#518,#568,.T.);
#568 = SURFACE_CURVE('',#569,(#574,#581),.PCURVE_S1.);
#569 = CIRCLE('',#570,2.);
#570 = AXIS2_PLACEMENT_3D('',#571,#572,#573);
#571 = CARTESIAN_POINT('',(0.,41.301812976,5.915962763));
#572 = DIRECTION('',(-0.,-1.,-0.));
#573 = DIRECTION('',(-1.,0.,0.));
#574 = PCURVE('',#187,#575);
#575 = DEFINITIONAL_REPRESENTATION('',(#576),#580);
#576 = LINE('',#577,#578);
#577 = CARTESIAN_POINT('',(3.14159265359,-0.999998301));
#578 = VECTOR('',#579,1.);
#579 = DIRECTION('',(1.,0.));
#580 = ( GEOMETRIC_REPRESENTATION_CONTEXT(2)
PARAMETRIC_REPRESENTATION_CONTEXT() REPRESENTATION_CONTEXT('2D SPACE',''
  ) );
#581 = PCURVE('',#582,#587);
#582 = CONICAL_SURFACE('',#583,2.,0.785398163397);
#583 = AXIS2_PLACEMENT_3D('',#584,#585,#586);
#584 = CARTESIAN_POINT('',(0.,41.301812976,5.915962763));
#585 = DIRECTION('',(-0.,-1.,-0.));
#586 = DIRECTION('',(-1.,0.,0.));
#587 = DEFINITIONAL_REPRESENTATION('',(#588),#592);
#588 = LINE('',#589,#590);
#589 = CARTESIAN_POINT('',(0.,0.));
#590 = VECTOR('',#591,1.);
#591 = DIRECTION('',(1.,0.));
#592 = ( GEOMETRIC_REPRESENTATION_CONTEXT(2)
PARAMETRIC_REPRESENTATION_CONTEXT() REPRESENTATION_CONTEXT('2D SPACE',''
  ) );
#593 = ADVANCED_FACE('',(#594),#213,.F.);
#594 = FACE_BOUND('',#595,.T.);
#595 = EDGE_LOOP('',(#596,#667,#668,#669,#692));
#596 = ORIENTED_EDGE('',*,*,#597,.F.);
#597 = EDGE_CURVE('',#172,#598,#600,.T.);
#598 = VERTEX_POINT('',#599);
#599 = CARTESIAN_POINT('',(-1.04512222399,42.239928093518,6.103896369802
    ));
#600 = SURFACE_CURVE('',#601,(#606,#613),.PCURVE_S1.);
#601 = PARABOLA('',#602,7.465124114176E-02);
#602 = AXIS2_PLACEMENT_3D('',#603,#604,#605);
#603 = CARTESIAN_POINT('',(9.442718206266E-02,43.196240178329,
    5.963176351041));
#604 = DIRECTION('',(0.632455540045,-0.707106781187,0.316227749995));
#605 = DIRECTION('',(-0.632455540045,-0.707106781187,-0.316227749995));
#606 = PCURVE('',#213,#607);
#607 = DEFINITIONAL_REPRESENTATION('',(#608),#612);
#608 = B_SPLINE_CURVE_WITH_KNOTS('',2,(#609,#610,#611),.UNSPECIFIED.,.F.
  ,.F.,(3,3),(-0.894427145683,-0.61458012354),.PIECEWISE_BEZIER_KNOTS.);
#609 = CARTESIAN_POINT('',(-2.541300503367E-13,-0.707106781188));
#610 = CARTESIAN_POINT('',(0.139923511071,0.131133713592));
#611 = CARTESIAN_POINT('',(0.279847022142,0.707106781186));
#612 = ( GEOMETRIC_REPRESENTATION_CONTEXT(2)
PARAMETRIC_REPRESENTATION_CONTEXT() REPRESENTATION_CONTEXT('2D SPACE',''
  ) );
#613 = PCURVE('',#582,#614);
#614 = DEFINITIONAL_REPRESENTATION('',(#615),#666);
#615 = B_SPLINE_CURVE_WITH_KNOTS('',9,(#616,#617,#618,#619,#620,#621,
    #622,#623,#624,#625,#626,#627,#628,#629,#630,#631,#632,#633,#634,
    #635,#636,#637,#638,#639,#640,#641,#642,#643,#644,#645,#646,#647,
    #648,#649,#650,#651,#652,#653,#654,#655,#656,#657,#658,#659,#660,
    #661,#662,#663,#664,#665),.UNSPECIFIED.,.F.,.F.,(10,8,8,8,8,8,10),(
    -0.894427145683,-0.824465390147,-0.754503634611,-0.719522756844,
    -0.684541879076,-0.649561001308,-0.61458012354),.UNSPECIFIED.);
#616 = CARTESIAN_POINT('',(1.775406473026E-15,1.866558657559E-17));
#617 = CARTESIAN_POINT('',(-3.886764196419E-03,-3.292919656246E-02));
#618 = CARTESIAN_POINT('',(-7.845553067359E-03,-6.553644838871E-02));
#619 = CARTESIAN_POINT('',(-1.187855509058E-02,-9.782156683205E-02));
#620 = CARTESIAN_POINT('',(-1.598820920135E-02,-0.129785290065));
#621 = CARTESIAN_POINT('',(-2.017674487858E-02,-0.161425941418));
#622 = CARTESIAN_POINT('',(-2.444709299538E-02,-0.192745988248));
#623 = CARTESIAN_POINT('',(-2.880164425328E-02,-0.2237430415));
#624 = CARTESIAN_POINT('',(-3.324347287741E-02,-0.25441859869));
#625 = CARTESIAN_POINT('',(-4.230755457324E-02,-0.315125563499));
#626 = CARTESIAN_POINT('',(-4.692982456008E-02,-0.345157090762));
#627 = CARTESIAN_POINT('',(-5.164534888439E-02,-0.374866709178));
#628 = CARTESIAN_POINT('',(-5.645726350198E-02,-0.404254228379));
#629 = CARTESIAN_POINT('',(-6.136893878022E-02,-0.433319879452));
#630 = CARTESIAN_POINT('',(-6.638387113737E-02,-0.462063617166));
#631 = CARTESIAN_POINT('',(-7.150571525188E-02,-0.490485216278));
#632 = CARTESIAN_POINT('',(-7.67384278628E-02,-0.518585004697));
#633 = CARTESIAN_POINT('',(-8.475992499911E-02,-0.560251651245));
#634 = CARTESIAN_POINT('',(-8.74624997713E-02,-0.574060050966));
#635 = CARTESIAN_POINT('',(-9.019433465484E-02,-0.587787978431));
#636 = CARTESIAN_POINT('',(-9.295594638368E-02,-0.601435374048));
#637 = CARTESIAN_POINT('',(-9.574788562118E-02,-0.615002270528));
#638 = CARTESIAN_POINT('',(-9.857072363777E-02,-0.628488726459));
#639 = CARTESIAN_POINT('',(-0.101425028557,-0.64189471043));
#640 = CARTESIAN_POINT('',(-0.104311368966,-0.655220114687));
#641 = CARTESIAN_POINT('',(-0.110149396437,-0.681710040119));
#642 = CARTESIAN_POINT('',(-0.113101072712,-0.694874510807));
#643 = CARTESIAN_POINT('',(-0.116086020348,-0.707958490648));
#644 = CARTESIAN_POINT('',(-0.119104865255,-0.72096198054));
#645 = CARTESIAN_POINT('',(-0.122158251159,-0.733884980932));
#646 = CARTESIAN_POINT('',(-0.125246840325,-0.746727491657));
#647 = CARTESIAN_POINT('',(-0.128371314287,-0.759489511764));
#648 = CARTESIAN_POINT('',(-0.131532374572,-0.772171039349));
#649 = CARTESIAN_POINT('',(-0.137929112275,-0.797373103429));
#650 = CARTESIAN_POINT('',(-0.141164796678,-0.809893666468));
#651 = CARTESIAN_POINT('',(-0.144438506931,-0.822333712832));
#652 = CARTESIAN_POINT('',(-0.147750992337,-0.834693260895));
#653 = CARTESIAN_POINT('',(-0.151103025294,-0.846972333865));
#654 = CARTESIAN_POINT('',(-0.154495394074,-0.859170929969));
#655 = CARTESIAN_POINT('',(-0.157928904296,-0.871289024023));
#656 = CARTESIAN_POINT('',(-0.161404389077,-0.883326600396));
#657 = CARTESIAN_POINT('',(-0.168441066685,-0.907240834319));
#658 = CARTESIAN_POINT('',(-0.172002239418,-0.91911742375));
#659 = CARTESIAN_POINT('',(-0.175607132825,-0.930913563356));
#660 = CARTESIAN_POINT('',(-0.179256621431,-0.942629208808));
#661 = CARTESIAN_POINT('',(-0.182951615091,-0.954264342183));
#662 = CARTESIAN_POINT('',(-0.186693063614,-0.965818984873));
#663 = CARTESIAN_POINT('',(-0.190481942921,-0.977293151397));
#664 = CARTESIAN_POINT('',(-0.194319247177,-0.988686820505));
#665 = CARTESIAN_POINT('',(-0.198206011374,-1.000000000001));
#666 = ( GEOMETRIC_REPRESENTATION_CONTEXT(2)
PARAMETRIC_REPRESENTATION_CONTEXT() REPRESENTATION_CONTEXT('2D SPACE',''
  ) );
#667 = ORIENTED_EDGE('',*,*,#199,.T.);
#668 = ORIENTED_EDGE('',*,*,#250,.T.);
#669 = ORIENTED_EDGE('',*,*,#670,.F.);
#670 = EDGE_CURVE('',#671,#251,#673,.T.);
#671 = VERTEX_POINT('',#672);
#672 = CARTESIAN_POINT('',(-2.850135208717,42.301812976,9.852301378912)
  );
#673 = SURFACE_CURVE('',#674,(#678,#685),.PCURVE_S1.);
#674 = LINE('',#675,#676);
#675 = CARTESIAN_POINT('',(-1.105572797671,42.301812976,6.363176335841)
  );
#676 = VECTOR('',#677,1.);
#677 = DIRECTION('',(-0.447213572841,0.,0.894427202329));
#678 = PCURVE('',#213,#679);
#679 = DEFINITIONAL_REPRESENTATION('',(#680),#684);
#680 = LINE('',#681,#682);
#681 = CARTESIAN_POINT('',(-8.881784197001E-16,0.707106781187));
#682 = VECTOR('',#683,1.);
#683 = DIRECTION('',(-1.,0.));
#684 = ( GEOMETRIC_REPRESENTATION_CONTEXT(2)
PARAMETRIC_REPRESENTATION_CONTEXT() REPRESENTATION_CONTEXT('2D SPACE',''
  ) );
#685 = PCURVE('',#323,#686);
#686 = DEFINITIONAL_REPRESENTATION('',(#687),#691);
#687 = LINE('',#688,#689);
#688 = CARTESIAN_POINT('',(-3.209327794338,-1.105572797671));
#689 = VECTOR('',#690,1.);
#690 = DIRECTION('',(0.894427202329,-0.447213572841));
#691 = ( GEOMETRIC_REPRESENTATION_CONTEXT(2)
PARAMETRIC_REPRESENTATION_CONTEXT() REPRESENTATION_CONTEXT('2D SPACE',''
  ) );
#692 = ORIENTED_EDGE('',*,*,#693,.T.);
#693 = EDGE_CURVE('',#671,#598,#694,.T.);
#694 = SURFACE_CURVE('',#695,(#700,#707),.PCURVE_S1.);
#695 = ELLIPSE('',#696,4.242640687119,3.);
#696 = AXIS2_PLACEMENT_3D('',#697,#698,#699);
#697 = CARTESIAN_POINT('',(0.,44.432308269123,8.915963143));
#698 = DIRECTION('',(0.632455540045,-0.707106781187,0.316227749995));
#699 = DIRECTION('',(-0.632455540045,-0.707106781187,-0.316227749995));
#700 = PCURVE('',#213,#701);
#701 = DEFINITIONAL_REPRESENTATION('',(#702),#706);
#702 = ELLIPSE('',#703,4.242640687119,3.);
#703 = AXIS2_PLACEMENT_2D('',#704,#705);
#704 = CARTESIAN_POINT('',(-1.788854801188,3.720082119293));
#705 = DIRECTION('',(1.461650337473E-16,-1.));
#706 = ( GEOMETRIC_REPRESENTATION_CONTEXT(2)
PARAMETRIC_REPRESENTATION_CONTEXT() REPRESENTATION_CONTEXT('2D SPACE',''
  ) );
#707 = PCURVE('',#291,#708);
#708 = DEFINITIONAL_REPRESENTATION('',(#709),#719);
#709 = B_SPLINE_CURVE_WITH_KNOTS('',8,(#710,#711,#712,#713,#714,#715,
    #716,#717,#718),.UNSPECIFIED.,.F.,.F.,(9,9),(5.478722320946,
    7.087648293413),.PIECEWISE_BEZIER_KNOTS.);
#710 = CARTESIAN_POINT('',(4.371573577819,-6.000000070117E-07));
#711 = CARTESIAN_POINT('',(4.572689324377,0.434685943985));
#712 = CARTESIAN_POINT('',(4.773805070934,0.77320004355));
#713 = CARTESIAN_POINT('',(4.97492081749,0.988749930502));
#714 = CARTESIAN_POINT('',(5.176036564035,1.062843374975));
#715 = CARTESIAN_POINT('',(5.377152310602,0.988749930502));
#716 = CARTESIAN_POINT('',(5.578268057168,0.77320004355));
#717 = CARTESIAN_POINT('',(5.779383803727,0.434685943985));
#718 = CARTESIAN_POINT('',(5.980499550285,-6.000000070117E-07));
#719 = ( GEOMETRIC_REPRESENTATION_CONTEXT(2)
PARAMETRIC_REPRESENTATION_CONTEXT() REPRESENTATION_CONTEXT('2D SPACE',''
  ) );
#720 = ADVANCED_FACE('',(#721),#323,.T.);
#721 = FACE_BOUND('',#722,.T.);
#722 = EDGE_LOOP('',(#723,#749,#750));
#723 = ORIENTED_EDGE('',*,*,#724,.T.);
#724 = EDGE_CURVE('',#275,#671,#725,.T.);
#725 = SURFACE_CURVE('',#726,(#731,#742),.PCURVE_S1.);
#726 = CIRCLE('',#727,3.);
#727 = AXIS2_PLACEMENT_3D('',#728,#729,#730);
#728 = CARTESIAN_POINT('',(0.,42.301812976,8.915963143));
#729 = DIRECTION('',(0.,-1.,0.));
#730 = DIRECTION('',(0.,-0.,-1.));
#731 = PCURVE('',#323,#732);
#732 = DEFINITIONAL_REPRESENTATION('',(#733),#741);
#733 = ( BOUNDED_CURVE() B_SPLINE_CURVE(2,(#734,#735,#736,#737,#738,#739
,#740),.UNSPECIFIED.,.T.,.F.) B_SPLINE_CURVE_WITH_KNOTS((1,2,2,2,2,1),(
    -2.094395102393,0.,2.094395102393,4.188790204786,6.28318530718,
8.377580409573),.UNSPECIFIED.) CURVE() GEOMETRIC_REPRESENTATION_ITEM()
RATIONAL_B_SPLINE_CURVE((1.,0.5,1.,0.5,1.,0.5,1.)) REPRESENTATION_ITEM(
  '') );
#734 = CARTESIAN_POINT('',(-3.656540987179,1.295834818408E-16));
#735 = CARTESIAN_POINT('',(-3.656540987179,5.196152422707));
#736 = CARTESIAN_POINT('',(0.843459012821,2.598076211353));
#737 = CARTESIAN_POINT('',(5.343459012821,8.643715613292E-16));
#738 = CARTESIAN_POINT('',(0.843459012821,-2.598076211353));
#739 = CARTESIAN_POINT('',(-3.656540987179,-5.196152422707));
#740 = CARTESIAN_POINT('',(-3.656540987179,1.295834818408E-16));
#741 = ( GEOMETRIC_REPRESENTATION_CONTEXT(2)
PARAMETRIC_REPRESENTATION_CONTEXT() REPRESENTATION_CONTEXT('2D SPACE',''
  ) );
#742 = PCURVE('',#291,#743);
#743 = DEFINITIONAL_REPRESENTATION('',(#744),#748);
#744 = LINE('',#745,#746);
#745 = CARTESIAN_POINT('',(0.,5.000000000001E-02));
#746 = VECTOR('',#747,1.);
#747 = DIRECTION('',(1.,0.));
#748 = ( GEOMETRIC_REPRESENTATION_CONTEXT(2)
PARAMETRIC_REPRESENTATION_CONTEXT() REPRESENTATION_CONTEXT('2D SPACE',''
  ) );
#749 = ORIENTED_EDGE('',*,*,#670,.T.);
#750 = ORIENTED_EDGE('',*,*,#309,.T.);
#751 = ADVANCED_FACE('',(#752),#291,.F.);
#752 = FACE_BOUND('',#753,.F.);
#753 = EDGE_LOOP('',(#754,#789,#812,#839,#840,#841,#842));
#754 = ORIENTED_EDGE('',*,*,#755,.T.);
#755 = EDGE_CURVE('',#756,#758,#760,.T.);
#756 = VERTEX_POINT('',#757);
#757 = CARTESIAN_POINT('',(-0.98601323652,42.301812976,6.082629788556));
#758 = VERTEX_POINT('',#759);
#759 = CARTESIAN_POINT('',(-7.347880794884E-16,42.301812976,5.915963143)
  );
#760 = SURFACE_CURVE('',#761,(#766,#773),.PCURVE_S1.);
#761 = CIRCLE('',#762,3.);
#762 = AXIS2_PLACEMENT_3D('',#763,#764,#765);
#763 = CARTESIAN_POINT('',(0.,42.301812976,8.915963143));
#764 = DIRECTION('',(0.,-1.,0.));
#765 = DIRECTION('',(0.,-0.,-1.));
#766 = PCURVE('',#291,#767);
#767 = DEFINITIONAL_REPRESENTATION('',(#768),#772);
#768 = LINE('',#769,#770);
#769 = CARTESIAN_POINT('',(0.,5.000000000001E-02));
#770 = VECTOR('',#771,1.);
#771 = DIRECTION('',(1.,0.));
#772 = ( GEOMETRIC_REPRESENTATION_CONTEXT(2)
PARAMETRIC_REPRESENTATION_CONTEXT() REPRESENTATION_CONTEXT('2D SPACE',''
  ) );
#773 = PCURVE('',#774,#779);
#774 = PLANE('',#775);
#775 = AXIS2_PLACEMENT_3D('',#776,#777,#778);
#776 = CARTESIAN_POINT('',(-1.295834818408E-16,42.301812976,
    9.572504130179));
#777 = DIRECTION('',(0.,1.,0.));
#778 = DIRECTION('',(0.,-0.,1.));
#779 = DEFINITIONAL_REPRESENTATION('',(#780),#788);
#780 = ( BOUNDED_CURVE() B_SPLINE_CURVE(2,(#781,#782,#783,#784,#785,#786
,#787),.UNSPECIFIED.,.T.,.F.) B_SPLINE_CURVE_WITH_KNOTS((1,2,2,2,2,1),(
    -2.094395102393,0.,2.094395102393,4.188790204786,6.28318530718,
8.377580409573),.UNSPECIFIED.) CURVE() GEOMETRIC_REPRESENTATION_ITEM()
RATIONAL_B_SPLINE_CURVE((1.,0.5,1.,0.5,1.,0.5,1.)) REPRESENTATION_ITEM(
  '') );
#781 = CARTESIAN_POINT('',(-3.656540987179,1.295834818408E-16));
#782 = CARTESIAN_POINT('',(-3.656540987179,5.196152422707));
#783 = CARTESIAN_POINT('',(0.843459012821,2.598076211353));
#784 = CARTESIAN_POINT('',(5.343459012821,8.643715613292E-16));
#785 = CARTESIAN_POINT('',(0.843459012821,-2.598076211353));
#786 = CARTESIAN_POINT('',(-3.656540987179,-5.196152422707));
#787 = CARTESIAN_POINT('',(-3.656540987179,1.295834818408E-16));
#788 = ( GEOMETRIC_REPRESENTATION_CONTEXT(2)
PARAMETRIC_REPRESENTATION_CONTEXT() REPRESENTATION_CONTEXT('2D SPACE',''
  ) );
#789 = ORIENTED_EDGE('',*,*,#790,.T.);
#790 = EDGE_CURVE('',#758,#791,#793,.T.);
#791 = VERTEX_POINT('',#792);
#792 = CARTESIAN_POINT('',(-7.347880794884E-16,41.301812976,5.915963143)
  );
#793 = SURFACE_CURVE('',#794,(#798,#805),.PCURVE_S1.);
#794 = LINE('',#795,#796);
#795 = CARTESIAN_POINT('',(-7.347880794884E-16,42.351812976,5.915963143)
  );
#796 = VECTOR('',#797,1.);
#797 = DIRECTION('',(0.,-1.,0.));
#798 = PCURVE('',#291,#799);
#799 = DEFINITIONAL_REPRESENTATION('',(#800),#804);
#800 = LINE('',#801,#802);
#801 = CARTESIAN_POINT('',(6.28318530718,-0.));
#802 = VECTOR('',#803,1.);
#803 = DIRECTION('',(0.,1.));
#804 = ( GEOMETRIC_REPRESENTATION_CONTEXT(2)
PARAMETRIC_REPRESENTATION_CONTEXT() REPRESENTATION_CONTEXT('2D SPACE',''
  ) );
#805 = PCURVE('',#355,#806);
#806 = DEFINITIONAL_REPRESENTATION('',(#807),#811);
#807 = LINE('',#808,#809);
#808 = CARTESIAN_POINT('',(0.,-0.));
#809 = VECTOR('',#810,1.);
#810 = DIRECTION('',(0.,1.));
#811 = ( GEOMETRIC_REPRESENTATION_CONTEXT(2)
PARAMETRIC_REPRESENTATION_CONTEXT() REPRESENTATION_CONTEXT('2D SPACE',''
  ) );
#812 = ORIENTED_EDGE('',*,*,#813,.F.);
#813 = EDGE_CURVE('',#57,#791,#814,.T.);
#814 = SURFACE_CURVE('',#815,(#820,#827),.PCURVE_S1.);
#815 = CIRCLE('',#816,3.);
#816 = AXIS2_PLACEMENT_3D('',#817,#818,#819);
#817 = CARTESIAN_POINT('',(0.,41.301812976,8.915963143));
#818 = DIRECTION('',(0.,-1.,0.));
#819 = DIRECTION('',(0.,-0.,-1.));
#820 = PCURVE('',#291,#821);
#821 = DEFINITIONAL_REPRESENTATION('',(#822),#826);
#822 = LINE('',#823,#824);
#823 = CARTESIAN_POINT('',(0.,1.05));
#824 = VECTOR('',#825,1.);
#825 = DIRECTION('',(1.,0.));
#826 = ( GEOMETRIC_REPRESENTATION_CONTEXT(2)
PARAMETRIC_REPRESENTATION_CONTEXT() REPRESENTATION_CONTEXT('2D SPACE',''
  ) );
#827 = PCURVE('',#828,#833);
#828 = PLANE('',#829);
#829 = AXIS2_PLACEMENT_3D('',#830,#831,#832);
#830 = CARTESIAN_POINT('',(0.,41.301812976,8.915963143));
#831 = DIRECTION('',(0.,-1.,0.));
#832 = DIRECTION('',(0.,-0.,-1.));
#833 = DEFINITIONAL_REPRESENTATION('',(#834),#838);
#834 = CIRCLE('',#835,3.);
#835 = AXIS2_PLACEMENT_2D('',#836,#837);
#836 = CARTESIAN_POINT('',(0.,0.));
#837 = DIRECTION('',(1.,0.));
#838 = ( GEOMETRIC_REPRESENTATION_CONTEXT(2)
PARAMETRIC_REPRESENTATION_CONTEXT() REPRESENTATION_CONTEXT('2D SPACE',''
  ) );
#839 = ORIENTED_EDGE('',*,*,#274,.T.);
#840 = ORIENTED_EDGE('',*,*,#724,.T.);
#841 = ORIENTED_EDGE('',*,*,#693,.T.);
#842 = ORIENTED_EDGE('',*,*,#843,.T.);
#843 = EDGE_CURVE('',#598,#756,#844,.T.);
#844 = SURFACE_CURVE('',#845,(#851,#860),.PCURVE_S1.);
#845 = B_SPLINE_CURVE_WITH_KNOTS('',4,(#846,#847,#848,#849,#850),
  .UNSPECIFIED.,.F.,.F.,(5,5),(0.,1.),.PIECEWISE_BEZIER_KNOTS.);
#846 = CARTESIAN_POINT('',(-1.158331545404,42.12035005368,6.148605553001
    ));
#847 = CARTESIAN_POINT('',(-1.115676597998,42.165685534543,
    6.130751492028));
#848 = CARTESIAN_POINT('',(-1.072722639684,42.2110423959,6.113802480528)
  );
#849 = CARTESIAN_POINT('',(-1.029493664172,42.256418794735,
    6.097761180394));
#850 = CARTESIAN_POINT('',(-0.986013236519,42.301812976001,
    6.082629788555));
#851 = PCURVE('',#291,#852);
#852 = DEFINITIONAL_REPRESENTATION('',(#853),#859);
#853 = B_SPLINE_CURVE_WITH_KNOTS('',4,(#854,#855,#856,#857,#858),
  .UNSPECIFIED.,.F.,.F.,(5,5),(0.,1.),.PIECEWISE_BEZIER_KNOTS.);
#854 = CARTESIAN_POINT('',(5.886773915108,0.23146292232));
#855 = CARTESIAN_POINT('',(5.902187516718,0.186127441457));
#856 = CARTESIAN_POINT('',(5.917576577117,0.1407705801));
#857 = CARTESIAN_POINT('',(5.932943136976,9.539418126465E-02));
#858 = CARTESIAN_POINT('',(5.948289170151,4.999999999887E-02));
#859 = ( GEOMETRIC_REPRESENTATION_CONTEXT(2)
PARAMETRIC_REPRESENTATION_CONTEXT() REPRESENTATION_CONTEXT('2D SPACE',''
  ) );
#860 = PCURVE('',#582,#861);
#861 = DEFINITIONAL_REPRESENTATION('',(#862),#868);
#862 = B_SPLINE_CURVE_WITH_KNOTS('',4,(#863,#864,#865,#866,#867),
  .UNSPECIFIED.,.F.,.F.,(5,5),(0.,1.),.PIECEWISE_BEZIER_KNOTS.);
#863 = CARTESIAN_POINT('',(-0.198206011374,-0.81853707768));
#864 = CARTESIAN_POINT('',(-0.190499223157,-0.863872558543));
#865 = CARTESIAN_POINT('',(-0.182804706818,-0.9092294199));
#866 = CARTESIAN_POINT('',(-0.175121442292,-0.954605818735));
#867 = CARTESIAN_POINT('',(-0.167448443199,-1.000000000001));
#868 = ( GEOMETRIC_REPRESENTATION_CONTEXT(2)
PARAMETRIC_REPRESENTATION_CONTEXT() REPRESENTATION_CONTEXT('2D SPACE',''
  ) );
#869 = ADVANCED_FACE('',(#870),#355,.F.);
#870 = FACE_BOUND('',#871,.F.);
#871 = EDGE_LOOP('',(#872,#894,#895,#923,#952,#982,#1008));
#872 = ORIENTED_EDGE('',*,*,#873,.F.);
#873 = EDGE_CURVE('',#791,#57,#874,.T.);
#874 = SURFACE_CURVE('',#875,(#880,#887),.PCURVE_S1.);
#875 = CIRCLE('',#876,3.);
#876 = AXIS2_PLACEMENT_3D('',#877,#878,#879);
#877 = CARTESIAN_POINT('',(0.,41.301812976,8.915963143));
#878 = DIRECTION('',(0.,-1.,0.));
#879 = DIRECTION('',(0.,-0.,-1.));
#880 = PCURVE('',#355,#881);
#881 = DEFINITIONAL_REPRESENTATION('',(#882),#886);
#882 = LINE('',#883,#884);
#883 = CARTESIAN_POINT('',(0.,1.05));
#884 = VECTOR('',#885,1.);
#885 = DIRECTION('',(1.,0.));
#886 = ( GEOMETRIC_REPRESENTATION_CONTEXT(2)
PARAMETRIC_REPRESENTATION_CONTEXT() REPRESENTATION_CONTEXT('2D SPACE',''
  ) );
#887 = PCURVE('',#828,#888);
#888 = DEFINITIONAL_REPRESENTATION('',(#889),#893);
#889 = CIRCLE('',#890,3.);
#890 = AXIS2_PLACEMENT_2D('',#891,#892);
#891 = CARTESIAN_POINT('',(0.,0.));
#892 = DIRECTION('',(1.,0.));
#893 = ( GEOMETRIC_REPRESENTATION_CONTEXT(2)
PARAMETRIC_REPRESENTATION_CONTEXT() REPRESENTATION_CONTEXT('2D SPACE',''
  ) );
#894 = ORIENTED_EDGE('',*,*,#790,.F.);
#895 = ORIENTED_EDGE('',*,*,#896,.T.);
#896 = EDGE_CURVE('',#758,#897,#899,.T.);
#897 = VERTEX_POINT('',#898);
#898 = CARTESIAN_POINT('',(0.98601323652,42.301812976,6.082629788556));
#899 = SURFACE_CURVE('',#900,(#905,#912),.PCURVE_S1.);
#900 = CIRCLE('',#901,3.);
#901 = AXIS2_PLACEMENT_3D('',#902,#903,#904);
#902 = CARTESIAN_POINT('',(0.,42.301812976,8.915963143));
#903 = DIRECTION('',(0.,-1.,0.));
#904 = DIRECTION('',(0.,-0.,-1.));
#905 = PCURVE('',#355,#906);
#906 = DEFINITIONAL_REPRESENTATION('',(#907),#911);
#907 = LINE('',#908,#909);
#908 = CARTESIAN_POINT('',(0.,5.000000000001E-02));
#909 = VECTOR('',#910,1.);
#910 = DIRECTION('',(1.,0.));
#911 = ( GEOMETRIC_REPRESENTATION_CONTEXT(2)
PARAMETRIC_REPRESENTATION_CONTEXT() REPRESENTATION_CONTEXT('2D SPACE',''
  ) );
#912 = PCURVE('',#774,#913);
#913 = DEFINITIONAL_REPRESENTATION('',(#914),#922);
#914 = ( BOUNDED_CURVE() B_SPLINE_CURVE(2,(#915,#916,#917,#918,#919,#920
,#921),.UNSPECIFIED.,.T.,.F.) B_SPLINE_CURVE_WITH_KNOTS((1,2,2,2,2,1),(
    -2.094395102393,0.,2.094395102393,4.188790204786,6.28318530718,
8.377580409573),.UNSPECIFIED.) CURVE() GEOMETRIC_REPRESENTATION_ITEM()
RATIONAL_B_SPLINE_CURVE((1.,0.5,1.,0.5,1.,0.5,1.)) REPRESENTATION_ITEM(
  '') );
#915 = CARTESIAN_POINT('',(-3.656540987179,1.295834818408E-16));
#916 = CARTESIAN_POINT('',(-3.656540987179,5.196152422707));
#917 = CARTESIAN_POINT('',(0.843459012821,2.598076211353));
#918 = CARTESIAN_POINT('',(5.343459012821,8.643715613292E-16));
#919 = CARTESIAN_POINT('',(0.843459012821,-2.598076211353));
#920 = CARTESIAN_POINT('',(-3.656540987179,-5.196152422707));
#921 = CARTESIAN_POINT('',(-3.656540987179,1.295834818408E-16));
#922 = ( GEOMETRIC_REPRESENTATION_CONTEXT(2)
PARAMETRIC_REPRESENTATION_CONTEXT() REPRESENTATION_CONTEXT('2D SPACE',''
  ) );
#923 = ORIENTED_EDGE('',*,*,#924,.T.);
#924 = EDGE_CURVE('',#897,#925,#927,.T.);
#925 = VERTEX_POINT('',#926);
#926 = CARTESIAN_POINT('',(1.04512222399,42.239928093518,6.103896369802)
  );
#927 = SURFACE_CURVE('',#928,(#934,#943),.PCURVE_S1.);
#928 = B_SPLINE_CURVE_WITH_KNOTS('',4,(#929,#930,#931,#932,#933),
  .UNSPECIFIED.,.F.,.F.,(5,5),(0.,1.),.PIECEWISE_BEZIER_KNOTS.);
#929 = CARTESIAN_POINT('',(0.986013236519,42.301812976001,6.082629788555
    ));
#930 = CARTESIAN_POINT('',(1.029493664373,42.256418794526,6.097761180464
    ));
#931 = CARTESIAN_POINT('',(1.072722639373,42.211042396231,6.113802480399
    ));
#932 = CARTESIAN_POINT('',(1.115676598614,42.165685533888,6.130751492286
    ));
#933 = CARTESIAN_POINT('',(1.158331545403,42.120350053681,6.148605553001
    ));
#934 = PCURVE('',#355,#935);
#935 = DEFINITIONAL_REPRESENTATION('',(#936),#942);
#936 = B_SPLINE_CURVE_WITH_KNOTS('',4,(#937,#938,#939,#940,#941),
  .UNSPECIFIED.,.F.,.F.,(5,5),(0.,1.),.PIECEWISE_BEZIER_KNOTS.);
#937 = CARTESIAN_POINT('',(0.334896137028,4.999999999871E-02));
#938 = CARTESIAN_POINT('',(0.350242170274,9.539418147418E-02));
#939 = CARTESIAN_POINT('',(0.36560872995,0.140770579769));
#940 = CARTESIAN_POINT('',(0.380997790684,0.186127442112));
#941 = CARTESIAN_POINT('',(0.396411392071,0.231462922319));
#942 = ( GEOMETRIC_REPRESENTATION_CONTEXT(2)
PARAMETRIC_REPRESENTATION_CONTEXT() REPRESENTATION_CONTEXT('2D SPACE',''
  ) );
#943 = PCURVE('',#582,#944);
#944 = DEFINITIONAL_REPRESENTATION('',(#945),#951);
#945 = B_SPLINE_CURVE_WITH_KNOTS('',4,(#946,#947,#948,#949,#950),
  .UNSPECIFIED.,.F.,.F.,(5,5),(0.,1.),.PIECEWISE_BEZIER_KNOTS.);
#946 = CARTESIAN_POINT('',(3.309041096789,-1.000000000001));
#947 = CARTESIAN_POINT('',(3.316714095918,-0.954605818526));
#948 = CARTESIAN_POINT('',(3.324397360351,-0.909229420231));
#949 = CARTESIAN_POINT('',(3.332091876858,-0.863872557888));
#950 = CARTESIAN_POINT('',(3.339798664963,-0.818537077681));
#951 = ( GEOMETRIC_REPRESENTATION_CONTEXT(2)
PARAMETRIC_REPRESENTATION_CONTEXT() REPRESENTATION_CONTEXT('2D SPACE',''
  ) );
#952 = ORIENTED_EDGE('',*,*,#953,.T.);
#953 = EDGE_CURVE('',#925,#954,#956,.T.);
#954 = VERTEX_POINT('',#955);
#955 = CARTESIAN_POINT('',(2.850135208717,42.301812976,9.852301378912));
#956 = SURFACE_CURVE('',#957,(#962,#975),.PCURVE_S1.);
#957 = ELLIPSE('',#958,4.242640687119,3.);
#958 = AXIS2_PLACEMENT_3D('',#959,#960,#961);
#959 = CARTESIAN_POINT('',(0.,44.432308269123,8.915963143));
#960 = DIRECTION('',(-0.632455540045,-0.707106781187,0.316227749995));
#961 = DIRECTION('',(0.632455540045,-0.707106781187,-0.316227749995));
#962 = PCURVE('',#355,#963);
#963 = DEFINITIONAL_REPRESENTATION('',(#964),#974);
#964 = B_SPLINE_CURVE_WITH_KNOTS('',8,(#965,#966,#967,#968,#969,#970,
    #971,#972,#973),.UNSPECIFIED.,.F.,.F.,(9,9),(5.478722320946,
    7.087648293413),.PIECEWISE_BEZIER_KNOTS.);
#965 = CARTESIAN_POINT('',(0.302685756894,-5.999999999062E-07));
#966 = CARTESIAN_POINT('',(0.503801503453,0.434685943985));
#967 = CARTESIAN_POINT('',(0.70491725001,0.77320004355));
#968 = CARTESIAN_POINT('',(0.906032996571,0.988749930501));
#969 = CARTESIAN_POINT('',(1.107148743121,1.062843374976));
#970 = CARTESIAN_POINT('',(1.308264489687,0.988749930501));
#971 = CARTESIAN_POINT('',(1.509380236243,0.77320004355));
#972 = CARTESIAN_POINT('',(1.710495982802,0.434685943985));
#973 = CARTESIAN_POINT('',(1.911611729361,-5.999999999062E-07));
#974 = ( GEOMETRIC_REPRESENTATION_CONTEXT(2)
PARAMETRIC_REPRESENTATION_CONTEXT() REPRESENTATION_CONTEXT('2D SPACE',''
  ) );
#975 = PCURVE('',#390,#976);
#976 = DEFINITIONAL_REPRESENTATION('',(#977),#981);
#977 = ELLIPSE('',#978,4.242640687119,3.);
#978 = AXIS2_PLACEMENT_2D('',#979,#980);
#979 = CARTESIAN_POINT('',(-4.919349471194,3.720082119293));
#980 = DIRECTION('',(8.647484871693E-18,-1.));
#981 = ( GEOMETRIC_REPRESENTATION_CONTEXT(2)
PARAMETRIC_REPRESENTATION_CONTEXT() REPRESENTATION_CONTEXT('2D SPACE',''
  ) );
#982 = ORIENTED_EDGE('',*,*,#983,.T.);
#983 = EDGE_CURVE('',#954,#339,#984,.T.);
#984 = SURFACE_CURVE('',#985,(#990,#997),.PCURVE_S1.);
#985 = CIRCLE('',#986,3.);
#986 = AXIS2_PLACEMENT_3D('',#987,#988,#989);
#987 = CARTESIAN_POINT('',(0.,42.301812976,8.915963143));
#988 = DIRECTION('',(0.,-1.,0.));
#989 = DIRECTION('',(0.,-0.,-1.));
#990 = PCURVE('',#355,#991);
#991 = DEFINITIONAL_REPRESENTATION('',(#992),#996);
#992 = LINE('',#993,#994);
#993 = CARTESIAN_POINT('',(0.,5.000000000001E-02));
#994 = VECTOR('',#995,1.);
#995 = DIRECTION('',(1.,0.));
#996 = ( GEOMETRIC_REPRESENTATION_CONTEXT(2)
PARAMETRIC_REPRESENTATION_CONTEXT() REPRESENTATION_CONTEXT('2D SPACE',''
  ) );
#997 = PCURVE('',#416,#998);
#998 = DEFINITIONAL_REPRESENTATION('',(#999),#1007);
#999 = ( BOUNDED_CURVE() B_SPLINE_CURVE(2,(#1000,#1001,#1002,#1003,#1004
,#1005,#1006),.UNSPECIFIED.,.T.,.F.) B_SPLINE_CURVE_WITH_KNOTS((1,2,2,2,
    2,1),(-2.094395102393,0.,2.094395102393,4.188790204786,6.28318530718
,8.377580409573),.UNSPECIFIED.) CURVE() GEOMETRIC_REPRESENTATION_ITEM()
RATIONAL_B_SPLINE_CURVE((1.,0.5,1.,0.5,1.,0.5,1.)) REPRESENTATION_ITEM(
  '') );
#1000 = CARTESIAN_POINT('',(-3.656540987179,1.295834818408E-16));
#1001 = CARTESIAN_POINT('',(-3.656540987179,5.196152422707));
#1002 = CARTESIAN_POINT('',(0.843459012821,2.598076211353));
#1003 = CARTESIAN_POINT('',(5.343459012821,8.643715613292E-16));
#1004 = CARTESIAN_POINT('',(0.843459012821,-2.598076211353));
#1005 = CARTESIAN_POINT('',(-3.656540987179,-5.196152422707));
#1006 = CARTESIAN_POINT('',(-3.656540987179,1.295834818408E-16));
#1007 = ( GEOMETRIC_REPRESENTATION_CONTEXT(2)
PARAMETRIC_REPRESENTATION_CONTEXT() REPRESENTATION_CONTEXT('2D SPACE',''
  ) );
#1008 = ORIENTED_EDGE('',*,*,#338,.T.);
#1009 = ADVANCED_FACE('',(#1010),#416,.T.);
#1010 = FACE_BOUND('',#1011,.T.);
#1011 = EDGE_LOOP('',(#1012,#1013,#1014));
#1012 = ORIENTED_EDGE('',*,*,#983,.T.);
#1013 = ORIENTED_EDGE('',*,*,#402,.T.);
#1014 = ORIENTED_EDGE('',*,*,#1015,.T.);
#1015 = EDGE_CURVE('',#375,#954,#1016,.T.);
#1016 = SURFACE_CURVE('',#1017,(#1021,#1028),.PCURVE_S1.);
#1017 = LINE('',#1018,#1019);
#1018 = CARTESIAN_POINT('',(4.105572797671,42.301812976,12.363176715841)
  );
#1019 = VECTOR('',#1020,1.);
#1020 = DIRECTION('',(-0.447213572841,0.,-0.894427202329));
#1021 = PCURVE('',#416,#1022);
#1022 = DEFINITIONAL_REPRESENTATION('',(#1023),#1027);
#1023 = LINE('',#1024,#1025);
#1024 = CARTESIAN_POINT('',(2.790672585662,4.105572797671));
#1025 = VECTOR('',#1026,1.);
#1026 = DIRECTION('',(-0.894427202329,-0.447213572841));
#1027 = ( GEOMETRIC_REPRESENTATION_CONTEXT(2)
PARAMETRIC_REPRESENTATION_CONTEXT() REPRESENTATION_CONTEXT('2D SPACE',''
  ) );
#1028 = PCURVE('',#390,#1029);
#1029 = DEFINITIONAL_REPRESENTATION('',(#1030),#1034);
#1030 = LINE('',#1031,#1032);
#1031 = CARTESIAN_POINT('',(-0.,0.707106781187));
#1032 = VECTOR('',#1033,1.);
#1033 = DIRECTION('',(-1.,0.));
#1034 = ( GEOMETRIC_REPRESENTATION_CONTEXT(2)
PARAMETRIC_REPRESENTATION_CONTEXT() REPRESENTATION_CONTEXT('2D SPACE',''
  ) );
#1035 = ADVANCED_FACE('',(#1036),#390,.F.);
#1036 = FACE_BOUND('',#1037,.T.);
#1037 = EDGE_LOOP('',(#1038,#1039,#1040,#1109,#1110));
#1038 = ORIENTED_EDGE('',*,*,#374,.F.);
#1039 = ORIENTED_EDGE('',*,*,#517,.T.);
#1040 = ORIENTED_EDGE('',*,*,#1041,.T.);
#1041 = EDGE_CURVE('',#518,#925,#1042,.T.);
#1042 = SURFACE_CURVE('',#1043,(#1048,#1055),.PCURVE_S1.);
#1043 = PARABOLA('',#1044,7.465124114177E-02);
#1044 = AXIS2_PLACEMENT_3D('',#1045,#1046,#1047);
#1045 = CARTESIAN_POINT('',(-9.442718206266E-02,43.196240178329,
    5.963176351041));
#1046 = DIRECTION('',(0.632455540045,0.707106781187,-0.316227749995));
#1047 = DIRECTION('',(0.632455540045,-0.707106781187,-0.316227749995));
#1048 = PCURVE('',#390,#1049);
#1049 = DEFINITIONAL_REPRESENTATION('',(#1050),#1054);
#1050 = B_SPLINE_CURVE_WITH_KNOTS('',2,(#1051,#1052,#1053),
  .UNSPECIFIED.,.F.,.F.,(3,3),(-0.894427145683,-0.61458012354),
  .PIECEWISE_BEZIER_KNOTS.);
#1051 = CARTESIAN_POINT('',(-6.708204272381,-0.707106781189));
#1052 = CARTESIAN_POINT('',(-6.848127783453,0.131133713592));
#1053 = CARTESIAN_POINT('',(-6.988051294524,0.707106781186));
#1054 = ( GEOMETRIC_REPRESENTATION_CONTEXT(2)
PARAMETRIC_REPRESENTATION_CONTEXT() REPRESENTATION_CONTEXT('2D SPACE',''
  ) );
#1055 = PCURVE('',#582,#1056);
#1056 = DEFINITIONAL_REPRESENTATION('',(#1057),#1108);
#1057 = B_SPLINE_CURVE_WITH_KNOTS('',9,(#1058,#1059,#1060,#1061,#1062,
    #1063,#1064,#1065,#1066,#1067,#1068,#1069,#1070,#1071,#1072,#1073,
    #1074,#1075,#1076,#1077,#1078,#1079,#1080,#1081,#1082,#1083,#1084,
    #1085,#1086,#1087,#1088,#1089,#1090,#1091,#1092,#1093,#1094,#1095,
    #1096,#1097,#1098,#1099,#1100,#1101,#1102,#1103,#1104,#1105,#1106,
    #1107),.UNSPECIFIED.,.F.,.F.,(10,8,8,8,8,8,10),(-0.894427145683,
    -0.824465390147,-0.754503634611,-0.719522756844,-0.684541879076,
    -0.649561001308,-0.61458012354),.UNSPECIFIED.);
#1058 = CARTESIAN_POINT('',(3.14159265359,1.497259794757E-12));
#1059 = CARTESIAN_POINT('',(3.145479417786,-3.292919656099E-02));
#1060 = CARTESIAN_POINT('',(3.149438206659,-6.553644839747E-02));
#1061 = CARTESIAN_POINT('',(3.153471208675,-9.782156680623E-02));
#1062 = CARTESIAN_POINT('',(3.157580862798,-0.129785290098));
#1063 = CARTESIAN_POINT('',(3.161769398462,-0.161425941389));
#1064 = CARTESIAN_POINT('',(3.166039746589,-0.192745988264));
#1065 = CARTESIAN_POINT('',(3.170394297841,-0.223743041494));
#1066 = CARTESIAN_POINT('',(3.174836126467,-0.25441859869));
#1067 = CARTESIAN_POINT('',(3.183900208163,-0.315125563498));
#1068 = CARTESIAN_POINT('',(3.188522478149,-0.345157090759));
#1069 = CARTESIAN_POINT('',(3.193238002475,-0.374866709181));
#1070 = CARTESIAN_POINT('',(3.198049917091,-0.404254228379));
#1071 = CARTESIAN_POINT('',(3.20296159237,-0.433319879449));
#1072 = CARTESIAN_POINT('',(3.207976524727,-0.462063617166));
#1073 = CARTESIAN_POINT('',(3.213098368842,-0.490485216279));
#1074 = CARTESIAN_POINT('',(3.218331081452,-0.518585004695));
#1075 = CARTESIAN_POINT('',(3.226352578589,-0.560251651244));
#1076 = CARTESIAN_POINT('',(3.229055153362,-0.57406005097));
#1077 = CARTESIAN_POINT('',(3.231786988244,-0.587787978427));
#1078 = CARTESIAN_POINT('',(3.234548599972,-0.601435374044));
#1079 = CARTESIAN_POINT('',(3.237340539212,-0.615002270531));
#1080 = CARTESIAN_POINT('',(3.240163377228,-0.628488726462));
#1081 = CARTESIAN_POINT('',(3.243017682145,-0.641894710424));
#1082 = CARTESIAN_POINT('',(3.245904022556,-0.655220114687));
#1083 = CARTESIAN_POINT('',(3.251742050027,-0.681710040119));
#1084 = CARTESIAN_POINT('',(3.254693726302,-0.694874510807));
#1085 = CARTESIAN_POINT('',(3.257678673938,-0.707958490648));
#1086 = CARTESIAN_POINT('',(3.260697518845,-0.72096198054));
#1087 = CARTESIAN_POINT('',(3.263750904748,-0.733884980931));
#1088 = CARTESIAN_POINT('',(3.266839493914,-0.746727491656));
#1089 = CARTESIAN_POINT('',(3.269963967877,-0.759489511763));
#1090 = CARTESIAN_POINT('',(3.273125028162,-0.772171039348));
#1091 = CARTESIAN_POINT('',(3.279521765865,-0.797373103429));
#1092 = CARTESIAN_POINT('',(3.282757450268,-0.809893666467));
#1093 = CARTESIAN_POINT('',(3.286031160521,-0.822333712831));
#1094 = CARTESIAN_POINT('',(3.289343645927,-0.834693260894));
#1095 = CARTESIAN_POINT('',(3.292695678884,-0.846972333865));
#1096 = CARTESIAN_POINT('',(3.296088047664,-0.859170929969));
#1097 = CARTESIAN_POINT('',(3.299521557886,-0.871289024023));
#1098 = CARTESIAN_POINT('',(3.302997042667,-0.883326600394));
#1099 = CARTESIAN_POINT('',(3.310033720275,-0.90724083432));
#1100 = CARTESIAN_POINT('',(3.313594893006,-0.919117423746));
#1101 = CARTESIAN_POINT('',(3.317199786416,-0.930913563358));
#1102 = CARTESIAN_POINT('',(3.320849275021,-0.94262920881));
#1103 = CARTESIAN_POINT('',(3.32454426868,-0.954264342179));
#1104 = CARTESIAN_POINT('',(3.328285717203,-0.96581898487));
#1105 = CARTESIAN_POINT('',(3.332074596511,-0.9772931514));
#1106 = CARTESIAN_POINT('',(3.335911900767,-0.988686820503));
#1107 = CARTESIAN_POINT('',(3.339798664963,-1.));
#1108 = ( GEOMETRIC_REPRESENTATION_CONTEXT(2)
PARAMETRIC_REPRESENTATION_CONTEXT() REPRESENTATION_CONTEXT('2D SPACE',''
  ) );
#1109 = ORIENTED_EDGE('',*,*,#953,.T.);
#1110 = ORIENTED_EDGE('',*,*,#1015,.F.);
#1111 = ADVANCED_FACE('',(#1112),#501,.F.);
#1112 = FACE_BOUND('',#1113,.F.);
#1113 = EDGE_LOOP('',(#1114,#1142,#1163,#1164));
#1114 = ORIENTED_EDGE('',*,*,#1115,.F.);
#1115 = EDGE_CURVE('',#1116,#1116,#1118,.T.);
#1116 = VERTEX_POINT('',#1117);
#1117 = CARTESIAN_POINT('',(-4.163799117101E-16,41.301812976,
    10.615963143));
#1118 = SURFACE_CURVE('',#1119,(#1124,#1131),.PCURVE_S1.);
#1119 = CIRCLE('',#1120,1.7);
#1120 = AXIS2_PLACEMENT_3D('',#1121,#1122,#1123);
#1121 = CARTESIAN_POINT('',(0.,41.301812976,8.915963143));
#1122 = DIRECTION('',(0.,1.,0.));
#1123 = DIRECTION('',(0.,-0.,1.));
#1124 = PCURVE('',#501,#1125);
#1125 = DEFINITIONAL_REPRESENTATION('',(#1126),#1130);
#1126 = LINE('',#1127,#1128);
#1127 = CARTESIAN_POINT('',(0.,1.049998301));
#1128 = VECTOR('',#1129,1.);
#1129 = DIRECTION('',(1.,0.));
#1130 = ( GEOMETRIC_REPRESENTATION_CONTEXT(2)
PARAMETRIC_REPRESENTATION_CONTEXT() REPRESENTATION_CONTEXT('2D SPACE',''
  ) );
#1131 = PCURVE('',#828,#1132);
#1132 = DEFINITIONAL_REPRESENTATION('',(#1133),#1141);
#1133 = ( BOUNDED_CURVE() B_SPLINE_CURVE(2,(#1134,#1135,#1136,#1137,
#1138,#1139,#1140),.UNSPECIFIED.,.T.,.F.) B_SPLINE_CURVE_WITH_KNOTS((1,2
    ,2,2,2,1),(-2.094395102393,0.,2.094395102393,4.188790204786,
6.28318530718,8.377580409573),.UNSPECIFIED.) CURVE()
GEOMETRIC_REPRESENTATION_ITEM() RATIONAL_B_SPLINE_CURVE((1.,0.5,1.,0.5,
1.,0.5,1.)) REPRESENTATION_ITEM('') );
#1134 = CARTESIAN_POINT('',(-1.7,0.));
#1135 = CARTESIAN_POINT('',(-1.7,2.944486372867));
#1136 = CARTESIAN_POINT('',(0.85,1.472243186434));
#1137 = CARTESIAN_POINT('',(3.4,4.163799117101E-16));
#1138 = CARTESIAN_POINT('',(0.85,-1.472243186434));
#1139 = CARTESIAN_POINT('',(-1.7,-2.944486372867));
#1140 = CARTESIAN_POINT('',(-1.7,0.));
#1141 = ( GEOMETRIC_REPRESENTATION_CONTEXT(2)
PARAMETRIC_REPRESENTATION_CONTEXT() REPRESENTATION_CONTEXT('2D SPACE',''
  ) );
#1142 = ORIENTED_EDGE('',*,*,#1143,.F.);
#1143 = EDGE_CURVE('',#485,#1116,#1144,.T.);
#1144 = SEAM_CURVE('',#1145,(#1149,#1156),.PCURVE_S1.);
#1145 = LINE('',#1146,#1147);
#1146 = CARTESIAN_POINT('',(-4.163799117101E-16,40.251814675,
    10.615963143));
#1147 = VECTOR('',#1148,1.);
#1148 = DIRECTION('',(0.,1.,0.));
#1149 = PCURVE('',#501,#1150);
#1150 = DEFINITIONAL_REPRESENTATION('',(#1151),#1155);
#1151 = LINE('',#1152,#1153);
#1152 = CARTESIAN_POINT('',(6.28318530718,-0.));
#1153 = VECTOR('',#1154,1.);
#1154 = DIRECTION('',(0.,1.));
#1155 = ( GEOMETRIC_REPRESENTATION_CONTEXT(2)
PARAMETRIC_REPRESENTATION_CONTEXT() REPRESENTATION_CONTEXT('2D SPACE',''
  ) );
#1156 = PCURVE('',#501,#1157);
#1157 = DEFINITIONAL_REPRESENTATION('',(#1158),#1162);
#1158 = LINE('',#1159,#1160);
#1159 = CARTESIAN_POINT('',(0.,-0.));
#1160 = VECTOR('',#1161,1.);
#1161 = DIRECTION('',(0.,1.));
#1162 = ( GEOMETRIC_REPRESENTATION_CONTEXT(2)
PARAMETRIC_REPRESENTATION_CONTEXT() REPRESENTATION_CONTEXT('2D SPACE',''
  ) );
#1163 = ORIENTED_EDGE('',*,*,#484,.T.);
#1164 = ORIENTED_EDGE('',*,*,#1143,.T.);
#1165 = ADVANCED_FACE('',(#1166),#582,.T.);
#1166 = FACE_BOUND('',#1167,.T.);
#1167 = EDGE_LOOP('',(#1168,#1169,#1170,#1171,#1197,#1198));
#1168 = ORIENTED_EDGE('',*,*,#567,.F.);
#1169 = ORIENTED_EDGE('',*,*,#597,.T.);
#1170 = ORIENTED_EDGE('',*,*,#843,.T.);
#1171 = ORIENTED_EDGE('',*,*,#1172,.T.);
#1172 = EDGE_CURVE('',#756,#897,#1173,.T.);
#1173 = SURFACE_CURVE('',#1174,(#1179,#1186),.PCURVE_S1.);
#1174 = CIRCLE('',#1175,1.);
#1175 = AXIS2_PLACEMENT_3D('',#1176,#1177,#1178);
#1176 = CARTESIAN_POINT('',(0.,42.301812976,5.915962763));
#1177 = DIRECTION('',(-0.,-1.,-0.));
#1178 = DIRECTION('',(-1.,0.,0.));
#1179 = PCURVE('',#582,#1180);
#1180 = DEFINITIONAL_REPRESENTATION('',(#1181),#1185);
#1181 = LINE('',#1182,#1183);
#1182 = CARTESIAN_POINT('',(0.,-1.));
#1183 = VECTOR('',#1184,1.);
#1184 = DIRECTION('',(1.,0.));
#1185 = ( GEOMETRIC_REPRESENTATION_CONTEXT(2)
PARAMETRIC_REPRESENTATION_CONTEXT() REPRESENTATION_CONTEXT('2D SPACE',''
  ) );
#1186 = PCURVE('',#774,#1187);
#1187 = DEFINITIONAL_REPRESENTATION('',(#1188),#1196);
#1188 = ( BOUNDED_CURVE() B_SPLINE_CURVE(2,(#1189,#1190,#1191,#1192,
#1193,#1194,#1195),.UNSPECIFIED.,.T.,.F.) B_SPLINE_CURVE_WITH_KNOTS((1,2
    ,2,2,2,1),(-2.094395102393,0.,2.094395102393,4.188790204786,
6.28318530718,8.377580409573),.UNSPECIFIED.) CURVE()
GEOMETRIC_REPRESENTATION_ITEM() RATIONAL_B_SPLINE_CURVE((1.,0.5,1.,0.5,
1.,0.5,1.)) REPRESENTATION_ITEM('') );
#1189 = CARTESIAN_POINT('',(-3.656541367179,-1.));
#1190 = CARTESIAN_POINT('',(-5.388592174748,-1.));
#1191 = CARTESIAN_POINT('',(-4.522566770963,0.5));
#1192 = CARTESIAN_POINT('',(-3.656541367179,2.));
#1193 = CARTESIAN_POINT('',(-2.790515963395,0.5));
#1194 = CARTESIAN_POINT('',(-1.92449055961,-1.));
#1195 = CARTESIAN_POINT('',(-3.656541367179,-1.));
#1196 = ( GEOMETRIC_REPRESENTATION_CONTEXT(2)
PARAMETRIC_REPRESENTATION_CONTEXT() REPRESENTATION_CONTEXT('2D SPACE',''
  ) );
#1197 = ORIENTED_EDGE('',*,*,#924,.T.);
#1198 = ORIENTED_EDGE('',*,*,#1041,.F.);
#1199 = ADVANCED_FACE('',(#1200),#774,.T.);
#1200 = FACE_BOUND('',#1201,.T.);
#1201 = EDGE_LOOP('',(#1202,#1203,#1204));
#1202 = ORIENTED_EDGE('',*,*,#1172,.F.);
#1203 = ORIENTED_EDGE('',*,*,#755,.T.);
#1204 = ORIENTED_EDGE('',*,*,#896,.T.);
#1205 = ADVANCED_FACE('',(#1206,#1210),#828,.F.);
#1206 = FACE_BOUND('',#1207,.F.);
#1207 = EDGE_LOOP('',(#1208,#1209));
#1208 = ORIENTED_EDGE('',*,*,#873,.T.);
#1209 = ORIENTED_EDGE('',*,*,#813,.T.);
#1210 = FACE_BOUND('',#1211,.F.);
#1211 = EDGE_LOOP('',(#1212));
#1212 = ORIENTED_EDGE('',*,*,#1115,.T.);
#1213 = ( GEOMETRIC_REPRESENTATION_CONTEXT(3)
GLOBAL_UNCERTAINTY_ASSIGNED_CONTEXT((#1217))
GLOBAL_UNIT_ASSIGNED_CONTEXT((#1214,#1215,#1216)) REPRESENTATION_CONTEXT
('Context #1','3D Context with UNIT and UNCERTAINTY') );
#1214 = ( LENGTH_UNIT() NAMED_UNIT(*) SI_UNIT(.MILLI.,.METRE.) );
#1215 = ( NAMED_UNIT(*) PLANE_ANGLE_UNIT() SI_UNIT($,.RADIAN.) );
#1216 = ( NAMED_UNIT(*) SI_UNIT($,.STERADIAN.) SOLID_ANGLE_UNIT() );
#1217 = UNCERTAINTY_MEASURE_WITH_UNIT(LENGTH_MEASURE(1.E-05),#1214,
  'distance_accuracy_value','confusion accuracy');
#1218 = PRODUCT_RELATED_PRODUCT_CATEGORY('part',$,(#7));
ENDSEC;
END-ISO-10303-21;
