%TF.GenerationSoftware,KiCad,Pcbnew,10.0.5*%
%TF.CreationDate,2026-08-19T04:48:03+02:00*%
%TF.ProjectId,attiny1624-ring,61747469-6e79-4313-9632-342d72696e67,1.0*%
%TF.SameCoordinates,Original*%
%TF.FileFunction,Soldermask,Top*%
%TF.FilePolarity,Negative*%
%FSLAX46Y46*%
G04 Gerber Fmt 4.6, Leading zero omitted, Abs format (unit mm)*
G04 Created by KiCad (PCBNEW 10.0.5) date 2026-08-19 04:48:03*
%MOMM*%
%LPD*%
G01*
G04 APERTURE LIST*
G04 Aperture macros list*
%AMRoundRect*
0 Rectangle with rounded corners*
0 $1 Rounding radius*
0 $2 $3 $4 $5 $6 $7 $8 $9 X,Y pos of 4 corners*
0 Add a 4 corners polygon primitive as box body*
4,1,4,$2,$3,$4,$5,$6,$7,$8,$9,$2,$3,0*
0 Add four circle primitives for the rounded corners*
1,1,$1+$1,$2,$3*
1,1,$1+$1,$4,$5*
1,1,$1+$1,$6,$7*
1,1,$1+$1,$8,$9*
0 Add four rect primitives between the rounded corners*
20,1,$1+$1,$2,$3,$4,$5,0*
20,1,$1+$1,$4,$5,$6,$7,0*
20,1,$1+$1,$6,$7,$8,$9,0*
20,1,$1+$1,$8,$9,$2,$3,0*%
G04 Aperture macros list end*
%ADD10RoundRect,0.300000X-0.575355X0.271969X-0.271969X-0.575355X0.575355X-0.271969X0.271969X0.575355X0*%
%ADD11RoundRect,0.300000X-0.590056X-0.238398X0.238398X-0.590056X0.590056X0.238398X-0.238398X0.590056X0*%
%ADD12RoundRect,0.250000X-0.400000X-0.625000X0.400000X-0.625000X0.400000X0.625000X-0.400000X0.625000X0*%
%ADD13RoundRect,0.250000X0.650000X-0.412500X0.650000X0.412500X-0.650000X0.412500X-0.650000X-0.412500X0*%
%ADD14R,3.150000X1.000000*%
%ADD15RoundRect,0.150000X-0.825000X-0.150000X0.825000X-0.150000X0.825000X0.150000X-0.825000X0.150000X0*%
%ADD16RoundRect,0.250000X-0.412500X-0.650000X0.412500X-0.650000X0.412500X0.650000X-0.412500X0.650000X0*%
%ADD17RoundRect,0.300000X0.635883X0.025540X-0.025540X0.635883X-0.635883X-0.025540X0.025540X-0.635883X0*%
%ADD18RoundRect,0.250000X0.625000X-0.400000X0.625000X0.400000X-0.625000X0.400000X-0.625000X-0.400000X0*%
%ADD19R,2.510000X1.000000*%
%ADD20RoundRect,0.300000X-0.153958X0.617492X-0.617492X-0.153958X0.153958X-0.617492X0.617492X0.153958X0*%
%ADD21RoundRect,0.300000X-0.624704X-0.121430X0.121430X-0.624704X0.624704X0.121430X-0.121430X0.624704X0*%
%ADD22RoundRect,0.300000X0.044393X0.634846X-0.634846X0.044393X-0.044393X-0.634846X0.634846X-0.044393X0*%
G04 APERTURE END LIST*
D10*
%TO.C,JP11*%
X109994135Y-113019161D03*
X120005865Y-140980839D03*
%TD*%
D11*
%TO.C,JP7*%
X108967538Y-115998642D03*
X132532462Y-126001358D03*
%TD*%
D12*
%TO.C,JP2*%
X130450000Y-105000000D03*
X133550000Y-105000000D03*
%TD*%
D13*
%TO.C,C3*%
X144500000Y-122562500D03*
X144500000Y-119437500D03*
%TD*%
D14*
%TO.C,J5*%
X139275000Y-105580000D03*
X144325000Y-105580000D03*
X139275000Y-108120000D03*
X144325000Y-108120000D03*
X139275000Y-110660000D03*
X144325000Y-110660000D03*
%TD*%
D15*
%TO.C,U1*%
X121525000Y-122190000D03*
X121525000Y-123460000D03*
X121525000Y-124730000D03*
X121525000Y-126000000D03*
X121525000Y-127270000D03*
X121525000Y-128540000D03*
X121525000Y-129810000D03*
X126475000Y-129810000D03*
X126475000Y-128540000D03*
X126475000Y-127270000D03*
X126475000Y-126000000D03*
X126475000Y-124730000D03*
X126475000Y-123460000D03*
X126475000Y-122190000D03*
%TD*%
D16*
%TO.C,C1*%
X118437500Y-117000000D03*
X121562500Y-117000000D03*
%TD*%
D14*
%TO.C,J1*%
X102875000Y-105580000D03*
X107925000Y-105580000D03*
X102875000Y-108120000D03*
X107925000Y-108120000D03*
X102875000Y-110660000D03*
X107925000Y-110660000D03*
%TD*%
D12*
%TO.C,R1*%
X134450000Y-116000000D03*
X137550000Y-116000000D03*
%TD*%
%TO.C,JP1*%
X113450000Y-105000000D03*
X116550000Y-105000000D03*
%TD*%
%TO.C,JP3*%
X121450000Y-135000000D03*
X124550000Y-135000000D03*
%TD*%
%TO.C,JP8*%
X132450000Y-129000000D03*
X135550000Y-129000000D03*
%TD*%
D17*
%TO.C,JP13*%
X127003994Y-137001713D03*
X113996006Y-124998287D03*
%TD*%
D18*
%TO.C,JP6*%
X112000000Y-122550000D03*
X112000000Y-119450000D03*
%TD*%
D19*
%TO.C,J4*%
X121345000Y-138960000D03*
X124655000Y-141500000D03*
X121345000Y-144040000D03*
%TD*%
D20*
%TO.C,JP10*%
X139024816Y-113035511D03*
X130475184Y-127264489D03*
%TD*%
D18*
%TO.C,JP4*%
X116000000Y-121550000D03*
X116000000Y-118450000D03*
%TD*%
D21*
%TO.C,JP5*%
X112006231Y-111014999D03*
X130493769Y-123485001D03*
%TD*%
D22*
%TO.C,JP12*%
X118517838Y-127326306D03*
X100782162Y-142743694D03*
%TD*%
D12*
%TO.C,JP9*%
X130450000Y-136000000D03*
X133550000Y-136000000D03*
%TD*%
D16*
%TO.C,C2*%
X123437500Y-117000000D03*
X126562500Y-117000000D03*
%TD*%
D12*
%TO.C,R2*%
X113450000Y-134000000D03*
X116550000Y-134000000D03*
%TD*%
D19*
%TO.C,J3*%
X102345000Y-137690000D03*
X105655000Y-140230000D03*
X102345000Y-142770000D03*
X105655000Y-145310000D03*
%TD*%
M02*
