%TF.GenerationSoftware,KiCad,Pcbnew,10.0.5*%
%TF.CreationDate,2026-08-19T04:56:43+02:00*%
%TF.ProjectId,attiny1624-ring,61747469-6e79-4313-9632-342d72696e67,1.0*%
%TF.SameCoordinates,Original*%
%TF.FileFunction,Copper,L1,Top*%
%TF.FilePolarity,Positive*%
%FSLAX46Y46*%
G04 Gerber Fmt 4.6, Leading zero omitted, Abs format (unit mm)*
G04 Created by KiCad (PCBNEW 10.0.5) date 2026-08-19 04:56:43*
%MOMM*%
%LPD*%
G01*
G04 APERTURE LIST*
G04 Aperture macros list*
%AMRoundRect*
0 Rectangle with rounded corners*
0 $1 Rounding radius*
0 $2 $3 $4 $5 $6 $7 $8 $9 X,Y pos of 4 corners*
0 Add a 4 corners polygon primitive as box body*
4,1,4,$2,$3,$4,$5,$6,$7,$8,$9,$2,$3,0*
0 Add four circle primitives for the rounded corners*
1,1,$1+$1,$2,$3*
1,1,$1+$1,$4,$5*
1,1,$1+$1,$6,$7*
1,1,$1+$1,$8,$9*
0 Add four rect primitives between the rounded corners*
20,1,$1+$1,$2,$3,$4,$5,0*
20,1,$1+$1,$4,$5,$6,$7,0*
20,1,$1+$1,$6,$7,$8,$9,0*
20,1,$1+$1,$8,$9,$2,$3,0*%
G04 Aperture macros list end*
%TA.AperFunction,SMDPad,CuDef*%
%ADD10RoundRect,0.150000X-0.825000X-0.150000X0.825000X-0.150000X0.825000X0.150000X-0.825000X0.150000X0*%
%TD*%
%TA.AperFunction,SMDPad,CuDef*%
%ADD11RoundRect,0.300000X-0.450000X0.450000X-0.450000X-0.450000X0.450000X-0.450000X0.450000X0.450000X0*%
%TD*%
%TA.AperFunction,SMDPad,CuDef*%
%ADD12RoundRect,0.250000X-0.400000X-0.625000X0.400000X-0.625000X0.400000X0.625000X-0.400000X0.625000X0*%
%TD*%
%TA.AperFunction,SMDPad,CuDef*%
%ADD13R,2.510000X1.000000*%
%TD*%
%TA.AperFunction,SMDPad,CuDef*%
%ADD14RoundRect,0.300000X0.044393X0.634846X-0.634846X0.044393X-0.044393X-0.634846X0.634846X-0.044393X0*%
%TD*%
%TA.AperFunction,SMDPad,CuDef*%
%ADD15RoundRect,0.300000X0.339120X0.538514X-0.538514X0.339120X-0.339120X-0.538514X0.538514X-0.339120X0*%
%TD*%
%TA.AperFunction,SMDPad,CuDef*%
%ADD16RoundRect,0.250000X0.625000X-0.400000X0.625000X0.400000X-0.625000X0.400000X-0.625000X-0.400000X0*%
%TD*%
%TA.AperFunction,SMDPad,CuDef*%
%ADD17R,3.150000X1.000000*%
%TD*%
%TA.AperFunction,SMDPad,CuDef*%
%ADD18RoundRect,0.300000X-0.153958X0.617492X-0.617492X-0.153958X0.153958X-0.617492X0.617492X0.153958X0*%
%TD*%
%TA.AperFunction,SMDPad,CuDef*%
%ADD19RoundRect,0.250000X-0.412500X-0.650000X0.412500X-0.650000X0.412500X0.650000X-0.412500X0.650000X0*%
%TD*%
%TA.AperFunction,SMDPad,CuDef*%
%ADD20RoundRect,0.300000X-0.590056X-0.238398X0.238398X-0.590056X0.590056X0.238398X-0.238398X0.590056X0*%
%TD*%
%TA.AperFunction,SMDPad,CuDef*%
%ADD21RoundRect,0.300000X0.468449X0.430761X-0.430761X0.468449X-0.468449X-0.430761X0.430761X-0.468449X0*%
%TD*%
%TA.AperFunction,SMDPad,CuDef*%
%ADD22RoundRect,0.300000X0.635883X0.025540X-0.025540X0.635883X-0.635883X-0.025540X0.025540X-0.635883X0*%
%TD*%
%TA.AperFunction,SMDPad,CuDef*%
%ADD23RoundRect,0.300000X-0.575355X0.271969X-0.271969X-0.575355X0.575355X-0.271969X0.271969X0.575355X0*%
%TD*%
%TA.AperFunction,SMDPad,CuDef*%
%ADD24RoundRect,0.250000X0.650000X-0.412500X0.650000X0.412500X-0.650000X0.412500X-0.650000X-0.412500X0*%
%TD*%
%TA.AperFunction,SMDPad,CuDef*%
%ADD25RoundRect,0.300000X0.265929X0.578171X-0.578171X0.265929X-0.265929X-0.578171X0.578171X-0.265929X0*%
%TD*%
%TA.AperFunction,SMDPad,CuDef*%
%ADD26RoundRect,0.300000X-0.624704X-0.121430X0.121430X-0.624704X0.624704X0.121430X-0.121430X0.624704X0*%
%TD*%
%TA.AperFunction,Conductor*%
%ADD27C,0.508000*%
%TD*%
%TA.AperFunction,Conductor*%
%ADD28C,0.406400*%
%TD*%
G04 APERTURE END LIST*
D10*
%TO.P,U1,1*%
%TO.N,+5V_U1*%
X121525000Y-122190000D03*
%TO.P,U1,2*%
%TO.N,LATCH_U1*%
X121525000Y-123460000D03*
%TO.P,U1,3*%
%TO.N,HOME*%
X121525000Y-124730000D03*
%TO.P,U1,4*%
%TO.N,unconnected-(U1-PA6-Pad4)*%
X121525000Y-126000000D03*
%TO.P,U1,5*%
%TO.N,unconnected-(U1-PA7-Pad5)*%
X121525000Y-127270000D03*
%TO.P,U1,6*%
%TO.N,MOTOR4*%
X121525000Y-128540000D03*
%TO.P,U1,7*%
%TO.N,MOTOR3_U1*%
X121525000Y-129810000D03*
%TO.P,U1,8*%
%TO.N,MOTOR2_U1*%
X126475000Y-129810000D03*
%TO.P,U1,9*%
%TO.N,MOTOR1_U1*%
X126475000Y-128540000D03*
%TO.P,U1,10*%
%TO.N,UPDI_U1*%
X126475000Y-127270000D03*
%TO.P,U1,11*%
%TO.N,DATA_IN_U1*%
X126475000Y-126000000D03*
%TO.P,U1,12*%
%TO.N,DATA_OUT_U1*%
X126475000Y-124730000D03*
%TO.P,U1,13*%
%TO.N,CLOCK_U1*%
X126475000Y-123460000D03*
%TO.P,U1,14*%
%TO.N,GND_U1*%
X126475000Y-122190000D03*
%TD*%
D11*
%TO.P,JP16,1*%
%TO.N,+5V_MAIN_TOP*%
X124500000Y-105000000D03*
%TO.P,JP16,2*%
%TO.N,+5V_MAIN*%
X124500000Y-132000000D03*
%TD*%
D12*
%TO.P,R2,1*%
%TO.N,+5V_HOME*%
X113450000Y-134000000D03*
%TO.P,R2,2*%
%TO.N,HOME*%
X116550000Y-134000000D03*
%TD*%
D13*
%TO.P,J3,1*%
%TO.N,MOTOR1_DRIVER*%
X102345000Y-137690000D03*
%TO.P,J3,2*%
%TO.N,MOTOR2_DRIVER*%
X105655000Y-140230000D03*
%TO.P,J3,3*%
%TO.N,MOTOR3_DRIVER*%
X102345000Y-142770000D03*
%TO.P,J3,4*%
%TO.N,MOTOR4*%
X105655000Y-145310000D03*
%TD*%
D12*
%TO.P,JP2,1*%
%TO.N,+5V_UPDI*%
X130450000Y-105000000D03*
%TO.P,JP2,2*%
%TO.N,+5V_MAIN_TOP*%
X133550000Y-105000000D03*
%TD*%
D14*
%TO.P,JP12,1*%
%TO.N,MOTOR3_U1*%
X118517838Y-127326306D03*
%TO.P,JP12,2*%
%TO.N,MOTOR3_DRIVER*%
X100782162Y-142743694D03*
%TD*%
D15*
%TO.P,JP14,1*%
%TO.N,MOTOR1_U1*%
X130023513Y-130988540D03*
%TO.P,JP14,2*%
%TO.N,MOTOR1_DRIVER*%
X100476487Y-137701460D03*
%TD*%
D12*
%TO.P,R1,1*%
%TO.N,+5V_UPDI*%
X134450000Y-116000000D03*
%TO.P,R1,2*%
%TO.N,UPDI_PROG*%
X137550000Y-116000000D03*
%TD*%
D16*
%TO.P,JP6,1*%
%TO.N,LATCH_CONN*%
X112000000Y-122550000D03*
%TO.P,JP6,2*%
%TO.N,LATCH_U1*%
X112000000Y-119450000D03*
%TD*%
D17*
%TO.P,J1,1*%
%TO.N,LATCH_CONN*%
X102875000Y-105580000D03*
%TO.P,J1,2*%
%TO.N,CLOCK_CONN*%
X107925000Y-105580000D03*
%TO.P,J1,3*%
%TO.N,DATA_CHAIN_IN*%
X102875000Y-108120000D03*
%TO.P,J1,4*%
%TO.N,+5V_CHAIN*%
X107925000Y-108120000D03*
%TO.P,J1,5*%
%TO.N,DATA_OUT_CHAIN*%
X102875000Y-110660000D03*
%TO.P,J1,6*%
%TO.N,GND_CHAIN*%
X107925000Y-110660000D03*
%TD*%
D18*
%TO.P,JP10,1*%
%TO.N,UPDI_PROG*%
X139024816Y-113035511D03*
%TO.P,JP10,2*%
%TO.N,UPDI_U1*%
X130475184Y-127264489D03*
%TD*%
D19*
%TO.P,C2,1*%
%TO.N,+5V_U1*%
X123437500Y-117000000D03*
%TO.P,C2,2*%
%TO.N,GND_U1*%
X126562500Y-117000000D03*
%TD*%
D16*
%TO.P,JP4,1*%
%TO.N,+5V_MCU_SOURCE*%
X116000000Y-121550000D03*
%TO.P,JP4,2*%
%TO.N,+5V_U1*%
X116000000Y-118450000D03*
%TD*%
D20*
%TO.P,JP7,1*%
%TO.N,DATA_CHAIN_IN*%
X108967538Y-115998642D03*
%TO.P,JP7,2*%
%TO.N,DATA_IN_U1*%
X132532462Y-126001358D03*
%TD*%
D12*
%TO.P,JP3,1*%
%TO.N,+5V_HOME*%
X121450000Y-135000000D03*
%TO.P,JP3,2*%
%TO.N,+5V_MAIN*%
X124550000Y-135000000D03*
%TD*%
D21*
%TO.P,JP8,1*%
%TO.N,DATA_OUT_U1*%
X132239693Y-119992039D03*
%TO.P,JP8,2*%
%TO.N,DATA_OUT_CHAIN*%
X108760307Y-119007961D03*
%TD*%
D13*
%TO.P,J4,1*%
%TO.N,+5V_HOME*%
X121345000Y-138960000D03*
%TO.P,J4,2*%
%TO.N,HOME*%
X124655000Y-141500000D03*
%TO.P,J4,3*%
%TO.N,GND*%
X121345000Y-144040000D03*
%TD*%
D22*
%TO.P,JP13,1*%
%TO.N,+5V_MAIN*%
X127003994Y-137001713D03*
%TO.P,JP13,2*%
%TO.N,+5V_MCU_SOURCE*%
X113996006Y-124998287D03*
%TD*%
D23*
%TO.P,JP11,1*%
%TO.N,GND_CHAIN*%
X109994135Y-113019161D03*
%TO.P,JP11,2*%
%TO.N,GND*%
X120005865Y-140980839D03*
%TD*%
D24*
%TO.P,C3,1*%
%TO.N,+5V_UPDI*%
X144500000Y-122562500D03*
%TO.P,C3,2*%
%TO.N,GND*%
X144500000Y-119437500D03*
%TD*%
D17*
%TO.P,J5,1*%
%TO.N,UPDI_PROG*%
X139275000Y-105580000D03*
%TO.P,J5,2*%
%TO.N,+5V_UPDI*%
X144325000Y-105580000D03*
%TO.P,J5,3*%
%TO.N,unconnected-(J5-NC-Pad3)*%
X139275000Y-108120000D03*
%TO.P,J5,4*%
%TO.N,unconnected-(J5-NC-Pad4)*%
X144325000Y-108120000D03*
%TO.P,J5,5*%
%TO.N,unconnected-(J5-NC-Pad5)*%
X139275000Y-110660000D03*
%TO.P,J5,6*%
%TO.N,GND*%
X144325000Y-110660000D03*
%TD*%
D19*
%TO.P,C1,1*%
%TO.N,+5V_U1*%
X118437500Y-117000000D03*
%TO.P,C1,2*%
%TO.N,GND_U1*%
X121562500Y-117000000D03*
%TD*%
D12*
%TO.P,JP9,1*%
%TO.N,GND_U1*%
X130450000Y-136000000D03*
%TO.P,JP9,2*%
%TO.N,GND*%
X133550000Y-136000000D03*
%TD*%
%TO.P,JP1,1*%
%TO.N,+5V_CHAIN*%
X113450000Y-105000000D03*
%TO.P,JP1,2*%
%TO.N,+5V_MAIN_TOP*%
X116550000Y-105000000D03*
%TD*%
D25*
%TO.P,JP15,1*%
%TO.N,MOTOR2_U1*%
X130989139Y-133500038D03*
%TO.P,JP15,2*%
%TO.N,MOTOR2_DRIVER*%
X108010861Y-141999962D03*
%TD*%
D26*
%TO.P,JP5,1*%
%TO.N,CLOCK_CONN*%
X112006231Y-111014999D03*
%TO.P,JP5,2*%
%TO.N,CLOCK_U1*%
X130493769Y-123485001D03*
%TD*%
%TO.N,+5V_U1*%
D27*
X119998100Y-115439400D02*
X121497130Y-115439400D01*
X118027100Y-118692100D02*
X118027100Y-118450000D01*
X118027100Y-117410400D02*
X118437500Y-117000000D01*
X118027100Y-118450000D02*
X118027100Y-117410400D01*
D28*
X123437500Y-116572600D02*
X123437500Y-117000000D01*
D27*
X121525000Y-122190000D02*
X118027100Y-118692100D01*
D28*
X122304300Y-115439400D02*
X123437500Y-116572600D01*
D27*
X118027100Y-118450000D02*
X116000000Y-118450000D01*
X118437500Y-117000000D02*
X119998100Y-115439400D01*
%TO.N,LATCH_U1*%
D28*
X118842571Y-121592671D02*
X119869017Y-122619117D01*
D27*
X112275000Y-119725000D02*
X112000000Y-119450000D01*
X115897522Y-120000000D02*
X112938908Y-120000000D01*
X121117450Y-123460000D02*
X121525000Y-123460000D01*
X118206175Y-120956275D02*
G75*
G03*
X115897522Y-119999976I-2308675J-2308625D01*
G01*
X112275000Y-119725000D02*
G75*
G03*
X112938908Y-119999996I663900J663900D01*
G01*
X120421718Y-123171818D02*
G75*
G03*
X121117450Y-123460039I695782J695718D01*
G01*
%TO.N,HOME*%
D28*
X103795100Y-145844347D02*
X103795100Y-144743453D01*
D27*
X119776700Y-124730000D02*
X121525000Y-124730000D01*
D28*
X109506500Y-134604277D02*
X109506500Y-142455804D01*
D27*
X123983248Y-144071751D02*
X123441095Y-144613903D01*
D28*
X108710917Y-145829582D02*
X114595100Y-139945400D01*
D27*
X105286953Y-144151600D02*
X106398075Y-144151600D01*
D28*
X108771299Y-143416399D02*
X109347120Y-142840579D01*
X110462775Y-132295624D02*
X116155768Y-126602630D01*
X112185800Y-133334998D02*
X112185800Y-134958441D01*
X119635122Y-144985519D02*
X114595100Y-139945400D01*
D27*
X106271814Y-146467100D02*
X105066738Y-146467100D01*
D28*
X114595100Y-139945400D02*
X113812076Y-139162409D01*
X113045498Y-132475300D02*
X113947174Y-132475300D01*
D27*
X116054471Y-133504471D02*
X116550000Y-134000000D01*
D28*
X120019895Y-145144900D02*
X122572007Y-145144900D01*
D27*
X124655000Y-142450000D02*
X124655000Y-141500000D01*
D28*
X104386953Y-144151600D02*
G75*
G03*
X103968484Y-144324984I47J-591800D01*
G01*
X103977500Y-146284700D02*
G75*
G03*
X104417852Y-146467120I440400J440400D01*
G01*
X110462775Y-132295624D02*
G75*
G03*
X109506475Y-134604277I2308625J-2308676D01*
G01*
X112437600Y-132727100D02*
G75*
G03*
X112185800Y-133334998I607900J-607900D01*
G01*
D27*
X119776700Y-124730000D02*
G75*
G03*
X116792159Y-125966228I0J-4220800D01*
G01*
D28*
X103795100Y-145844347D02*
G75*
G03*
X103977514Y-146284686I622800J47D01*
G01*
X113045498Y-132475300D02*
G75*
G03*
X112437600Y-132727100I2J-859700D01*
G01*
D27*
X124655000Y-142450000D02*
G75*
G02*
X123983248Y-144071751I-2293500J0D01*
G01*
D28*
X115787650Y-133237650D02*
G75*
G03*
X113947174Y-132475311I-1840450J-1840450D01*
G01*
D27*
X112185800Y-135832602D02*
G75*
G03*
X113390457Y-138740793I4112700J2D01*
G01*
D28*
X108771299Y-143416399D02*
G75*
G02*
X106996370Y-144151586I-1774899J1774899D01*
G01*
X123149167Y-144905832D02*
G75*
G02*
X122572007Y-145144913I-577167J577132D01*
G01*
X109506500Y-142455804D02*
G75*
G02*
X109347128Y-142840587I-544200J4D01*
G01*
X103968450Y-144324950D02*
G75*
G03*
X103795052Y-144743453I418450J-418550D01*
G01*
X119635122Y-144985519D02*
G75*
G03*
X120019895Y-145144917I384778J384719D01*
G01*
X108710917Y-145829582D02*
G75*
G02*
X107171814Y-146467115I-1539117J1539082D01*
G01*
%TO.N,MOTOR4*%
X110314700Y-135064769D02*
X110314700Y-142518109D01*
X108288320Y-145107979D02*
X109916251Y-143480048D01*
X111315799Y-132647899D02*
X111918451Y-132045248D01*
X123128300Y-129813650D02*
X123128300Y-129648392D01*
X122652509Y-128834509D02*
X122889232Y-129071232D01*
X122463399Y-130981899D02*
X122772377Y-130672922D01*
X107800600Y-145310000D02*
X107229200Y-145310000D01*
D27*
X107229200Y-145310000D02*
X105655000Y-145310000D01*
D28*
X119958189Y-131646800D02*
X112880390Y-131646800D01*
D27*
X121941500Y-128540000D02*
X121525000Y-128540000D01*
D28*
X108288320Y-145107979D02*
G75*
G02*
X107800600Y-145310011I-487720J487679D01*
G01*
X112880390Y-131646800D02*
G75*
G03*
X111918453Y-132045250I10J-1360400D01*
G01*
X111315799Y-132647899D02*
G75*
G03*
X110314686Y-135064769I2416901J-2416901D01*
G01*
X123128300Y-129813650D02*
G75*
G02*
X122772354Y-130672899I-1215200J50D01*
G01*
D27*
X122463399Y-130981899D02*
G75*
G02*
X120858189Y-131646794I-1605199J1605199D01*
G01*
X122652509Y-128834509D02*
G75*
G03*
X121941500Y-128539994I-711009J-710991D01*
G01*
D28*
X110314700Y-142518109D02*
G75*
G02*
X109916250Y-143480047I-1360400J9D01*
G01*
X122889232Y-129071232D02*
G75*
G02*
X123128313Y-129648392I-577132J-577168D01*
G01*
%TO.N,MOTOR3_U1*%
X119249726Y-128328426D02*
X120030349Y-129109049D01*
D27*
X121128150Y-129810000D02*
X121525000Y-129810000D01*
X118517800Y-127461400D02*
X118517800Y-127326300D01*
X120450684Y-129529384D02*
G75*
G03*
X121128150Y-129810030I677516J677484D01*
G01*
X118517800Y-127461400D02*
G75*
G03*
X118613322Y-127692038I326200J0D01*
G01*
%TO.N,MOTOR2_U1*%
X126475000Y-131120750D02*
X126475000Y-129810000D01*
D28*
X130454850Y-132965750D02*
X130989100Y-133500000D01*
D27*
X128682299Y-132431500D02*
X127785750Y-132431500D01*
X126475000Y-131120750D02*
G75*
G03*
X127785750Y-132431500I1310700J-50D01*
G01*
D28*
X130454850Y-132965750D02*
G75*
G03*
X129165056Y-132431518I-1289750J-1289750D01*
G01*
%TO.N,MOTOR1_U1*%
D27*
X130023500Y-129947250D02*
X130023500Y-130988500D01*
D28*
X128323393Y-128906000D02*
X127099801Y-128906000D01*
X126658000Y-128723000D02*
X126475000Y-128540000D01*
X126658000Y-128723000D02*
G75*
G03*
X127099801Y-128906000I441800J441800D01*
G01*
D27*
X130023500Y-129947250D02*
G75*
G03*
X128982250Y-128906000I-1041300J-50D01*
G01*
%TO.N,UPDI_U1*%
X126477750Y-127267250D02*
X126475000Y-127270000D01*
X126484389Y-127264500D02*
X130475200Y-127264500D01*
X126484389Y-127264500D02*
G75*
G03*
X126477753Y-127267253I11J-9400D01*
G01*
%TO.N,DATA_IN_U1*%
D28*
X131503300Y-125743000D02*
X127813726Y-125743000D01*
D27*
X126603500Y-125871500D02*
X126475000Y-126000000D01*
X132532500Y-125872200D02*
X132532500Y-126001400D01*
X132532500Y-125872200D02*
G75*
G03*
X132403300Y-125743000I-129200J0D01*
G01*
X126913726Y-125743000D02*
G75*
G03*
X126603492Y-125871492I-26J-438700D01*
G01*
%TO.N,DATA_OUT_U1*%
X126087650Y-124730000D02*
X126475000Y-124730000D01*
X127768097Y-119992000D02*
X132239700Y-119992000D01*
D28*
X125052879Y-124082579D02*
X125426402Y-124456102D01*
X124893500Y-123697804D02*
X124893500Y-122013992D01*
X125132567Y-121436832D02*
X125735450Y-120833950D01*
X124893500Y-123697804D02*
G75*
G03*
X125052871Y-124082587I544200J4D01*
G01*
X125132567Y-121436832D02*
G75*
G03*
X124893486Y-122013992I577133J-577168D01*
G01*
D27*
X125426402Y-124456102D02*
G75*
G03*
X126087650Y-124730049I661298J661202D01*
G01*
X127768097Y-119992000D02*
G75*
G03*
X125735451Y-120833951I3J-2874600D01*
G01*
%TO.N,CLOCK_U1*%
X126517677Y-123485000D02*
X130493800Y-123485000D01*
X126487500Y-123472500D02*
X126475000Y-123460000D01*
X126487500Y-123472500D02*
G75*
G03*
X126517677Y-123485009I30200J30200D01*
G01*
%TO.N,GND_U1*%
D28*
X122585500Y-118515900D02*
X125046600Y-118515900D01*
D27*
X121562500Y-117492900D02*
X122227450Y-118157850D01*
X121562500Y-117000000D02*
X121562500Y-117492900D01*
D28*
X126723800Y-121941200D02*
X131033000Y-121941200D01*
D27*
X126562500Y-117000000D02*
X130541500Y-117000000D01*
X125577164Y-117985335D02*
X126562500Y-117000000D01*
X130702200Y-136000000D02*
X130450000Y-136000000D01*
D28*
X131441500Y-117000000D02*
X133657900Y-119216400D01*
X126475000Y-122190000D02*
X126723800Y-121941200D01*
X131033000Y-121941200D02*
X131749900Y-122658000D01*
X133657900Y-119216400D02*
X133657900Y-120750000D01*
X131749900Y-122658000D02*
X134038600Y-124946800D01*
D27*
X132606500Y-134095700D02*
X130702200Y-136000000D01*
D28*
X133657900Y-120750000D02*
X131749900Y-122658000D01*
X134038600Y-124946800D02*
X134038600Y-127232600D01*
D27*
X132606500Y-128664700D02*
X132606500Y-134095700D01*
X133537365Y-127733834D02*
X132606500Y-128664700D01*
%TO.N,+5V_MAIN_TOP*%
X135778200Y-107228200D02*
X135778200Y-116026900D01*
D28*
X135778200Y-116926900D02*
X135199200Y-117505900D01*
D27*
X124500000Y-107399100D02*
X124500000Y-105000000D01*
X116550000Y-105000000D02*
X124500000Y-105000000D01*
X133550000Y-105000000D02*
X135778200Y-107228200D01*
D28*
X133706800Y-117505900D02*
X124500000Y-108299100D01*
X135199200Y-117505900D02*
X133706800Y-117505900D01*
%TO.N,+5V_MAIN*%
D27*
X124550000Y-135000000D02*
X125002300Y-135000000D01*
X124500000Y-134950000D02*
X124500000Y-132000000D01*
X124550000Y-135000000D02*
X124500000Y-134950000D01*
X125002300Y-135000000D02*
X127004000Y-137001700D01*
%TO.N,+5V_HOME*%
X121450000Y-135000000D02*
X121450000Y-135424900D01*
X121345000Y-137855100D02*
X121345000Y-135529900D01*
X121450000Y-135424900D02*
X121345000Y-135529900D01*
X121345000Y-138960000D02*
X121345000Y-137855100D01*
X114979900Y-135529900D02*
X113450000Y-134000000D01*
X121345000Y-135529900D02*
X114979900Y-135529900D01*
%TO.N,MOTOR1_DRIVER*%
X100484074Y-137693925D02*
X100476500Y-137701500D01*
X100486550Y-137690000D02*
X102345000Y-137690000D01*
X100486550Y-137690000D02*
G75*
G03*
X100485100Y-137691450I-50J-1400D01*
G01*
X100485100Y-137691450D02*
G75*
G02*
X100484050Y-137693900I-3500J50D01*
G01*
%TO.N,MOTOR2_DRIVER*%
X107164175Y-140230000D02*
X105655000Y-140230000D01*
X108010900Y-141076724D02*
X108010900Y-142000000D01*
X107762900Y-140478000D02*
G75*
G02*
X108010890Y-141076724I-598700J-598700D01*
G01*
X107762900Y-140478000D02*
G75*
G03*
X107164175Y-140230010I-598700J-598700D01*
G01*
%TO.N,MOTOR3_DRIVER*%
X102300103Y-142743700D02*
X100782200Y-142743700D01*
X102331850Y-142756850D02*
X102345000Y-142770000D01*
X102331850Y-142756850D02*
G75*
G03*
X102300103Y-142743699I-31750J-31750D01*
G01*
%TO.N,+5V_UPDI*%
X130450000Y-112000000D02*
X130450000Y-105000000D01*
X134450000Y-116000000D02*
X130450000Y-112000000D01*
X147800000Y-122562500D02*
X144500000Y-122562500D01*
X130449999Y-105000000D02*
X130449999Y-101000000D01*
X147500000Y-105580000D02*
X144325000Y-105580000D01*
X147500000Y-101000000D02*
X147500000Y-105580000D01*
X144325000Y-105580000D02*
X147800000Y-105580000D01*
X147800000Y-105580000D02*
X147800000Y-122562500D01*
X144500000Y-122562500D02*
X144500000Y-122562000D01*
X130449999Y-101000000D02*
X147500000Y-101000000D01*
%TO.N,UPDI_PROG*%
X138185050Y-105580000D02*
X139275000Y-105580000D01*
D28*
X137095100Y-111185204D02*
X137095100Y-107569950D01*
D27*
X138498111Y-115051888D02*
X137550000Y-116000000D01*
X139024800Y-113187900D02*
X139024800Y-113780350D01*
D28*
X138137021Y-112452521D02*
X137254479Y-111569979D01*
D27*
X139024800Y-113780350D02*
G75*
G02*
X138498081Y-115051858I-1798200J50D01*
G01*
X138612236Y-112927736D02*
G75*
G03*
X138872400Y-113035508I260164J260136D01*
G01*
X138185050Y-105580000D02*
G75*
G03*
X137095100Y-106669950I-50J-1089900D01*
G01*
D28*
X137095100Y-111185204D02*
G75*
G03*
X137254471Y-111569987I544200J4D01*
G01*
D27*
X139024800Y-113187900D02*
G75*
G03*
X138872400Y-113035500I-152400J0D01*
G01*
%TO.N,LATCH_CONN*%
X110469450Y-122550000D02*
X112000000Y-122550000D01*
D28*
X107220240Y-120831340D02*
X100524517Y-114135617D01*
D27*
X101266512Y-105580000D02*
X102875000Y-105580000D01*
D28*
X99887000Y-112596514D02*
X99887000Y-107859512D01*
D27*
X100291050Y-105984050D02*
G75*
G03*
X99887005Y-106959512I975450J-975450D01*
G01*
D28*
X99887000Y-112596514D02*
G75*
G03*
X100524528Y-114135606I2176600J14D01*
G01*
D27*
X107856637Y-121467737D02*
G75*
G03*
X110469450Y-122549957I2612763J2612837D01*
G01*
X101266512Y-105580000D02*
G75*
G03*
X100291046Y-105984046I-12J-1379500D01*
G01*
%TO.N,CLOCK_CONN*%
X112006057Y-105402998D02*
X112006231Y-111014999D01*
X108813306Y-104689552D02*
X107925000Y-105580000D01*
X112006200Y-111015000D02*
X112006000Y-111015000D01*
D28*
X111003000Y-103500000D02*
G75*
G03*
X109291634Y-104210090I0J-2417300D01*
G01*
X112006030Y-104502999D02*
G75*
G03*
X111003000Y-103499970I-1003030J-1D01*
G01*
%TO.N,DATA_CHAIN_IN*%
D27*
X102166532Y-108120000D02*
X102875000Y-108120000D01*
D28*
X109133594Y-120428400D02*
X108523690Y-120428400D01*
X101332617Y-113800817D02*
X107561751Y-120029951D01*
X110158200Y-118511641D02*
X110158200Y-119403794D01*
X100695100Y-112261714D02*
X100695100Y-109209950D01*
D27*
X109562850Y-116593950D02*
X108967500Y-115998600D01*
D28*
X107561751Y-120029951D02*
G75*
G03*
X108523690Y-120428403I961949J961951D01*
G01*
X101785050Y-108120000D02*
G75*
G03*
X100695100Y-109209950I-50J-1089900D01*
G01*
X100695100Y-112261714D02*
G75*
G03*
X101332628Y-113800806I2176600J14D01*
G01*
D27*
X109562850Y-116593950D02*
G75*
G02*
X110158220Y-118031252I-1437350J-1437350D01*
G01*
D28*
X109858100Y-120128300D02*
G75*
G02*
X109133594Y-120428398I-724500J724500D01*
G01*
X110158200Y-119403794D02*
G75*
G02*
X109858102Y-120128302I-1024600J-6D01*
G01*
%TO.N,+5V_CHAIN*%
D27*
X113450000Y-103801100D02*
X112729019Y-103080119D01*
D28*
X112340800Y-102691900D02*
X107882600Y-102691900D01*
D27*
X113450000Y-105000000D02*
X113450000Y-103801100D01*
D28*
X107882600Y-102691900D02*
X105745100Y-104829400D01*
X105745100Y-104829400D02*
X105745100Y-108120000D01*
D27*
X107925000Y-108120000D02*
X106508065Y-108120000D01*
%TO.N,DATA_OUT_CHAIN*%
X103964950Y-110660000D02*
X102875000Y-110660000D01*
X106648692Y-116896392D02*
X108760300Y-119008000D01*
X105054900Y-113048636D02*
X105054900Y-111749950D01*
X105054900Y-113048636D02*
G75*
G03*
X106648700Y-116896384I5441600J36D01*
G01*
X105054900Y-111749950D02*
G75*
G03*
X103964950Y-110660000I-1089900J50D01*
G01*
%TO.N,GND_CHAIN*%
X109994100Y-113019200D02*
X107925000Y-110950100D01*
X107925000Y-110950100D02*
X107925000Y-110660000D01*
%TO.N,+5V_MCU_SOURCE*%
X116000000Y-122994300D02*
X113996000Y-124998300D01*
X116000000Y-121550000D02*
X116000000Y-122994300D01*
%TO.N,GND*%
X120005900Y-140980800D02*
X121345000Y-142319900D01*
X124558900Y-139824500D02*
X129725500Y-139824500D01*
X144325000Y-110660000D02*
X146504900Y-110660000D01*
X133550000Y-136000000D02*
X133550000Y-130387500D01*
X121345000Y-142319900D02*
X121345000Y-144040000D01*
X120005900Y-140980800D02*
X121628755Y-140980800D01*
D28*
X122502600Y-140980800D02*
X123658900Y-139824500D01*
D27*
X129725500Y-139824500D02*
X133550000Y-136000000D01*
X146504900Y-117432600D02*
X144500000Y-119437500D01*
X133550000Y-130387500D02*
X144500000Y-119437500D01*
X146504900Y-110660000D02*
X146504900Y-117432600D01*
%TD*%
%TA.AperFunction,Conductor*%
%TO.N,+5V_UPDI*%
G36*
X133909546Y-115099778D02*
G01*
X133974841Y-115160661D01*
X134046177Y-115217800D01*
X134114792Y-115264059D01*
X134180183Y-115300004D01*
X134180196Y-115300009D01*
X134180197Y-115300010D01*
X134241844Y-115326200D01*
X134241843Y-115326200D01*
X134288491Y-115340018D01*
X134299287Y-115343216D01*
X134333801Y-115348716D01*
X134351987Y-115351615D01*
X134351988Y-115351615D01*
X134351995Y-115351616D01*
X134390994Y-115351904D01*
X134399241Y-115355392D01*
X134402052Y-115360045D01*
X134672910Y-116208206D01*
X134672163Y-116217129D01*
X134665324Y-116222910D01*
X134658206Y-116222910D01*
X133810045Y-115952052D01*
X133803206Y-115946271D01*
X133801904Y-115940994D01*
X133801616Y-115901995D01*
X133793216Y-115849287D01*
X133776201Y-115791848D01*
X133776200Y-115791844D01*
X133750010Y-115730197D01*
X133750009Y-115730196D01*
X133750004Y-115730183D01*
X133714059Y-115664792D01*
X133667800Y-115596177D01*
X133610661Y-115524841D01*
X133549778Y-115459546D01*
X133546643Y-115451160D01*
X133550062Y-115443297D01*
X133893297Y-115100062D01*
X133901569Y-115096636D01*
X133909546Y-115099778D01*
G37*
%TD.AperFunction*%
%TD*%
%TA.AperFunction,Conductor*%
%TO.N,GND_U1*%
G36*
X133902986Y-127096986D02*
G01*
X134174212Y-127368212D01*
X134177639Y-127376485D01*
X134174413Y-127384552D01*
X134121181Y-127440471D01*
X134062580Y-127507214D01*
X134005705Y-127575588D01*
X133949627Y-127644861D01*
X133893596Y-127714074D01*
X133893497Y-127714194D01*
X133836773Y-127782388D01*
X133836570Y-127782625D01*
X133778227Y-127849074D01*
X133777909Y-127849422D01*
X133725237Y-127904753D01*
X133717051Y-127908382D01*
X133708696Y-127905160D01*
X133708490Y-127904959D01*
X133366239Y-127562708D01*
X133362812Y-127554435D01*
X133366239Y-127546162D01*
X133366424Y-127545981D01*
X133421810Y-127493257D01*
X133422124Y-127492971D01*
X133488573Y-127434628D01*
X133488781Y-127434449D01*
X133557088Y-127377632D01*
X133626338Y-127321572D01*
X133695587Y-127265513D01*
X133763994Y-127208611D01*
X133830718Y-127150026D01*
X133886648Y-127096783D01*
X133895001Y-127093563D01*
X133902986Y-127096986D01*
G37*
%TD.AperFunction*%
%TD*%
%TA.AperFunction,Conductor*%
%TO.N,HOME*%
G36*
X113578078Y-138569710D02*
G01*
X113578317Y-138569955D01*
X113621029Y-138615242D01*
X113621402Y-138615658D01*
X113669715Y-138672054D01*
X113669952Y-138672339D01*
X113716756Y-138730611D01*
X113716870Y-138730756D01*
X113762904Y-138789956D01*
X113808994Y-138849228D01*
X113855971Y-138907717D01*
X113904592Y-138964470D01*
X113904598Y-138964477D01*
X113947961Y-139010456D01*
X113951144Y-139018825D01*
X113947722Y-139026756D01*
X113676429Y-139298061D01*
X113668156Y-139301488D01*
X113660129Y-139298300D01*
X113614158Y-139254947D01*
X113614153Y-139254942D01*
X113614148Y-139254938D01*
X113557376Y-139206306D01*
X113557365Y-139206297D01*
X113557352Y-139206286D01*
X113498927Y-139159363D01*
X113439622Y-139113251D01*
X113380349Y-139067164D01*
X113380205Y-139067050D01*
X113322035Y-139020333D01*
X113321749Y-139020097D01*
X113310493Y-139010455D01*
X113265279Y-138971724D01*
X113264898Y-138971380D01*
X113219611Y-138928672D01*
X113215944Y-138920504D01*
X113219127Y-138912134D01*
X113219308Y-138911946D01*
X113561532Y-138569709D01*
X113569805Y-138566283D01*
X113578078Y-138569710D01*
G37*
%TD.AperFunction*%
%TD*%
%TA.AperFunction,Conductor*%
%TO.N,UPDI_PROG*%
G36*
X138106702Y-115100063D02*
G01*
X138449935Y-115443296D01*
X138453362Y-115451569D01*
X138450219Y-115459548D01*
X138389342Y-115524835D01*
X138389333Y-115524845D01*
X138332198Y-115596176D01*
X138332190Y-115596187D01*
X138285953Y-115664770D01*
X138285944Y-115664783D01*
X138285939Y-115664792D01*
X138285934Y-115664800D01*
X138285934Y-115664801D01*
X138249998Y-115730177D01*
X138249996Y-115730180D01*
X138223795Y-115791856D01*
X138206783Y-115849283D01*
X138206783Y-115849284D01*
X138198383Y-115901986D01*
X138198095Y-115940994D01*
X138194607Y-115949241D01*
X138189954Y-115952052D01*
X137341793Y-116222910D01*
X137332870Y-116222163D01*
X137327089Y-116215324D01*
X137327089Y-116208208D01*
X137597947Y-115360044D01*
X137603728Y-115353206D01*
X137609003Y-115351904D01*
X137648004Y-115351616D01*
X137648010Y-115351615D01*
X137648012Y-115351615D01*
X137663165Y-115349199D01*
X137700712Y-115343216D01*
X137758150Y-115326201D01*
X137819816Y-115300004D01*
X137885207Y-115264059D01*
X137953821Y-115217800D01*
X138025158Y-115160661D01*
X138090452Y-115099777D01*
X138098838Y-115096643D01*
X138106702Y-115100063D01*
G37*
%TD.AperFunction*%
%TD*%
%TA.AperFunction,Conductor*%
%TO.N,UPDI_PROG*%
G36*
X137345444Y-106673377D02*
G01*
X137348871Y-106681650D01*
X137348869Y-106681877D01*
X137346920Y-106782261D01*
X137346907Y-106782632D01*
X137341168Y-106894818D01*
X137341153Y-106895064D01*
X137333027Y-107007431D01*
X137333017Y-107007554D01*
X137323700Y-107119950D01*
X137314373Y-107232450D01*
X137306237Y-107344950D01*
X137306237Y-107344958D01*
X137300482Y-107457453D01*
X137298523Y-107558477D01*
X137294936Y-107566682D01*
X137286825Y-107569950D01*
X136903375Y-107569950D01*
X136895102Y-107566523D01*
X136891677Y-107558477D01*
X136889717Y-107457450D01*
X136883962Y-107344950D01*
X136875826Y-107232450D01*
X136866500Y-107119950D01*
X136857173Y-107007450D01*
X136849043Y-106895042D01*
X136849030Y-106894818D01*
X136843291Y-106782632D01*
X136843278Y-106782261D01*
X136841331Y-106681877D01*
X136844597Y-106673539D01*
X136852802Y-106669952D01*
X136853029Y-106669950D01*
X137337171Y-106669950D01*
X137345444Y-106673377D01*
G37*
%TD.AperFunction*%
%TD*%
%TA.AperFunction,Conductor*%
%TO.N,UPDI_PROG*%
G36*
X138901757Y-105258469D02*
G01*
X139054985Y-105337519D01*
X139504844Y-105569602D01*
X139510625Y-105576441D01*
X139509878Y-105585364D01*
X139504844Y-105590398D01*
X138901761Y-105901528D01*
X138892838Y-105902275D01*
X138889110Y-105900284D01*
X138874742Y-105888846D01*
X138843760Y-105874654D01*
X138803003Y-105862480D01*
X138802996Y-105862478D01*
X138753422Y-105852389D01*
X138753411Y-105852387D01*
X138753404Y-105852386D01*
X138695880Y-105844432D01*
X138652864Y-105840594D01*
X138631357Y-105838676D01*
X138560757Y-105835179D01*
X138496518Y-105834179D01*
X138488299Y-105830623D01*
X138485000Y-105822480D01*
X138485000Y-105337519D01*
X138488427Y-105329246D01*
X138496516Y-105325820D01*
X138560755Y-105324820D01*
X138631356Y-105321323D01*
X138695880Y-105315567D01*
X138753404Y-105307613D01*
X138803003Y-105297519D01*
X138843757Y-105285346D01*
X138874741Y-105271153D01*
X138889110Y-105259714D01*
X138897716Y-105257243D01*
X138901757Y-105258469D01*
G37*
%TD.AperFunction*%
%TD*%
%TA.AperFunction,Conductor*%
%TO.N,HOME*%
G36*
X105277190Y-143898678D02*
G01*
X105278849Y-143899328D01*
X105285301Y-143905529D01*
X105285971Y-143907062D01*
X105286953Y-143911751D01*
X105286953Y-144391342D01*
X105286062Y-144395821D01*
X105285380Y-144397467D01*
X105279047Y-144403798D01*
X105277506Y-144404436D01*
X105272803Y-144405324D01*
X105174731Y-144403421D01*
X105174564Y-144403416D01*
X105174386Y-144403410D01*
X105174182Y-144403402D01*
X105062084Y-144397668D01*
X105061838Y-144397653D01*
X104949521Y-144389530D01*
X104949519Y-144389529D01*
X104949450Y-144389524D01*
X104949450Y-144389520D01*
X104949328Y-144389515D01*
X104836953Y-144380200D01*
X104724449Y-144370872D01*
X104718372Y-144370432D01*
X104718372Y-144370433D01*
X104611953Y-144362737D01*
X104499453Y-144356982D01*
X104486446Y-144356729D01*
X104486445Y-144356728D01*
X104400752Y-144355067D01*
X104396295Y-144354090D01*
X104394598Y-144353348D01*
X104388433Y-144346998D01*
X104387798Y-144345423D01*
X104386953Y-144341056D01*
X104386953Y-143962202D01*
X104387842Y-143957727D01*
X104388551Y-143956016D01*
X104394768Y-143949733D01*
X104396336Y-143949066D01*
X104400686Y-143948133D01*
X104499453Y-143946217D01*
X104611953Y-143940462D01*
X104724453Y-143932326D01*
X104836953Y-143923000D01*
X104949453Y-143913673D01*
X105061865Y-143905543D01*
X105061907Y-143905540D01*
X105062095Y-143905528D01*
X105174292Y-143899790D01*
X105174564Y-143899780D01*
X105174663Y-143899777D01*
X105272699Y-143897876D01*
X105277190Y-143898678D01*
G37*
%TD.AperFunction*%
%TD*%
%TA.AperFunction,Conductor*%
%TO.N,LATCH_CONN*%
G36*
X100137344Y-106962939D02*
G01*
X100140771Y-106971212D01*
X100140769Y-106971439D01*
X100138820Y-107071823D01*
X100138807Y-107072194D01*
X100133068Y-107184380D01*
X100133053Y-107184626D01*
X100124927Y-107296993D01*
X100124917Y-107297116D01*
X100115600Y-107409512D01*
X100106273Y-107522012D01*
X100098137Y-107634512D01*
X100098137Y-107634520D01*
X100092382Y-107747015D01*
X100090423Y-107848039D01*
X100086836Y-107856244D01*
X100078725Y-107859512D01*
X99695275Y-107859512D01*
X99687002Y-107856085D01*
X99683577Y-107848039D01*
X99681617Y-107747012D01*
X99675862Y-107634512D01*
X99667726Y-107522012D01*
X99658400Y-107409512D01*
X99649073Y-107297012D01*
X99640943Y-107184604D01*
X99640930Y-107184380D01*
X99635191Y-107072194D01*
X99635178Y-107071823D01*
X99633231Y-106971439D01*
X99636497Y-106963101D01*
X99644702Y-106959514D01*
X99644929Y-106959512D01*
X100129071Y-106959512D01*
X100137344Y-106962939D01*
G37*
%TD.AperFunction*%
%TD*%
%TA.AperFunction,Conductor*%
%TO.N,CLOCK_U1*%
G36*
X129931590Y-123001509D02*
G01*
X130848612Y-123474602D01*
X130854393Y-123481441D01*
X130853646Y-123490364D01*
X130848612Y-123495398D01*
X129931590Y-123968490D01*
X129922667Y-123969237D01*
X129917773Y-123966181D01*
X129881664Y-123928444D01*
X129830763Y-123886021D01*
X129830760Y-123886019D01*
X129770439Y-123846539D01*
X129700020Y-123811308D01*
X129618825Y-123781633D01*
X129526175Y-123758818D01*
X129526170Y-123758817D01*
X129526161Y-123758815D01*
X129421405Y-123744173D01*
X129421396Y-123744172D01*
X129421392Y-123744172D01*
X129314985Y-123739491D01*
X129306871Y-123735705D01*
X129303800Y-123727803D01*
X129303800Y-123242196D01*
X129307227Y-123233923D01*
X129314983Y-123230508D01*
X129421393Y-123225827D01*
X129526175Y-123211181D01*
X129618826Y-123188367D01*
X129700022Y-123158691D01*
X129770441Y-123123461D01*
X129830762Y-123083981D01*
X129881662Y-123041559D01*
X129917775Y-123003817D01*
X129925969Y-123000211D01*
X129931590Y-123001509D01*
G37*
%TD.AperFunction*%
%TD*%
%TA.AperFunction,Conductor*%
%TO.N,+5V_U1*%
G36*
X121597786Y-115187575D02*
G01*
X121597862Y-115187578D01*
X121598179Y-115187590D01*
X121598276Y-115187596D01*
X121698769Y-115193327D01*
X121698993Y-115193342D01*
X121699024Y-115193345D01*
X121799818Y-115201473D01*
X121900715Y-115210800D01*
X122001584Y-115220124D01*
X122010229Y-115220821D01*
X122102507Y-115228262D01*
X122203403Y-115234017D01*
X122290528Y-115235901D01*
X122294981Y-115236888D01*
X122296680Y-115237635D01*
X122302828Y-115243984D01*
X122303457Y-115245550D01*
X122304300Y-115249911D01*
X122304300Y-115628822D01*
X122303409Y-115633300D01*
X122302699Y-115635014D01*
X122296483Y-115641297D01*
X122294932Y-115641959D01*
X122290592Y-115642895D01*
X122203415Y-115644780D01*
X122102495Y-115650537D01*
X122001585Y-115658673D01*
X121900715Y-115668000D01*
X121799917Y-115677316D01*
X121799903Y-115677317D01*
X121799898Y-115677318D01*
X121799810Y-115677325D01*
X121799747Y-115677331D01*
X121699145Y-115685443D01*
X121699028Y-115685452D01*
X121698872Y-115685463D01*
X121698715Y-115685473D01*
X121598320Y-115691199D01*
X121598126Y-115691208D01*
X121597928Y-115691216D01*
X121597709Y-115691223D01*
X121511411Y-115693090D01*
X121506919Y-115692298D01*
X121505257Y-115691652D01*
X121498788Y-115685461D01*
X121498117Y-115683936D01*
X121497130Y-115679231D01*
X121497130Y-115199682D01*
X121498019Y-115195209D01*
X121498053Y-115195124D01*
X121498701Y-115193561D01*
X121505026Y-115187230D01*
X121506568Y-115186591D01*
X121511289Y-115185705D01*
X121597786Y-115187575D01*
G37*
%TD.AperFunction*%
%TD*%
%TA.AperFunction,Conductor*%
%TO.N,+5V_CHAIN*%
G36*
X106504447Y-107869510D02*
G01*
X106508062Y-107877702D01*
X106508065Y-107877970D01*
X106508065Y-108362029D01*
X106504638Y-108370302D01*
X106496365Y-108373729D01*
X106496097Y-108373726D01*
X106412917Y-108371822D01*
X106412480Y-108371804D01*
X106317472Y-108366071D01*
X106317182Y-108366050D01*
X106221959Y-108357926D01*
X106221815Y-108357912D01*
X106126582Y-108348600D01*
X106031276Y-108339279D01*
X106031247Y-108339276D01*
X106031211Y-108339273D01*
X105989059Y-108335677D01*
X105935836Y-108331136D01*
X105840464Y-108325381D01*
X105756532Y-108323461D01*
X105748340Y-108319846D01*
X105745100Y-108311764D01*
X105745100Y-107928235D01*
X105748527Y-107919962D01*
X105756531Y-107916538D01*
X105840470Y-107914617D01*
X105935841Y-107908862D01*
X106031211Y-107900726D01*
X106031215Y-107900725D01*
X106031269Y-107900721D01*
X106126582Y-107891400D01*
X106221953Y-107882073D01*
X106317261Y-107873942D01*
X106317388Y-107873933D01*
X106412527Y-107868192D01*
X106412867Y-107868178D01*
X106496098Y-107866273D01*
X106504447Y-107869510D01*
G37*
%TD.AperFunction*%
%TD*%
%TA.AperFunction,Conductor*%
%TO.N,+5V_U1*%
G36*
X116499995Y-118033450D02*
G01*
X116527776Y-118060823D01*
X116570986Y-118092154D01*
X116570993Y-118092157D01*
X116571000Y-118092162D01*
X116623620Y-118120730D01*
X116623633Y-118120737D01*
X116685761Y-118145817D01*
X116757416Y-118166639D01*
X116838644Y-118182447D01*
X116838654Y-118182448D01*
X116838659Y-118182449D01*
X116873208Y-118186266D01*
X116929490Y-118192485D01*
X117018709Y-118195605D01*
X117026857Y-118199319D01*
X117030000Y-118207298D01*
X117030000Y-118692701D01*
X117026573Y-118700974D01*
X117018709Y-118704394D01*
X116929487Y-118707514D01*
X116929485Y-118707514D01*
X116838659Y-118717549D01*
X116757414Y-118733360D01*
X116757411Y-118733361D01*
X116685759Y-118754182D01*
X116623644Y-118779257D01*
X116623620Y-118779268D01*
X116571000Y-118807836D01*
X116570985Y-118807845D01*
X116527778Y-118839174D01*
X116527775Y-118839176D01*
X116499997Y-118866548D01*
X116491699Y-118869914D01*
X116486421Y-118868612D01*
X115695155Y-118460398D01*
X115689374Y-118453559D01*
X115690121Y-118444636D01*
X115695155Y-118439602D01*
X116486422Y-118031386D01*
X116495344Y-118030640D01*
X116499995Y-118033450D01*
G37*
%TD.AperFunction*%
%TD*%
%TA.AperFunction,Conductor*%
%TO.N,GND*%
G36*
X121595753Y-143253427D02*
G01*
X121599179Y-143261518D01*
X121600179Y-143325757D01*
X121603676Y-143396357D01*
X121609432Y-143460878D01*
X121617387Y-143518411D01*
X121617389Y-143518422D01*
X121627478Y-143567996D01*
X121627480Y-143568003D01*
X121639654Y-143608760D01*
X121653846Y-143639742D01*
X121665284Y-143654110D01*
X121667755Y-143662717D01*
X121666528Y-143666761D01*
X121355398Y-144269844D01*
X121348559Y-144275625D01*
X121339636Y-144274878D01*
X121334602Y-144269844D01*
X121023470Y-143666760D01*
X121022723Y-143657837D01*
X121024713Y-143654111D01*
X121036153Y-143639741D01*
X121050346Y-143608757D01*
X121062519Y-143568003D01*
X121072613Y-143518404D01*
X121080567Y-143460880D01*
X121086323Y-143396356D01*
X121089820Y-143325755D01*
X121090820Y-143261516D01*
X121094376Y-143253299D01*
X121102519Y-143250000D01*
X121587480Y-143250000D01*
X121595753Y-143253427D01*
G37*
%TD.AperFunction*%
%TD*%
%TA.AperFunction,Conductor*%
%TO.N,+5V_MAIN_TOP*%
G36*
X123937820Y-104516508D02*
G01*
X124382656Y-104746000D01*
X124854844Y-104989601D01*
X124860625Y-104996440D01*
X124859878Y-105005363D01*
X124854844Y-105010397D01*
X124731621Y-105073968D01*
X124100365Y-105399634D01*
X124100366Y-105399633D01*
X124100365Y-105399632D01*
X123937821Y-105483490D01*
X123928898Y-105484237D01*
X123924004Y-105481181D01*
X123887890Y-105443439D01*
X123836987Y-105401016D01*
X123776663Y-105361537D01*
X123706240Y-105326306D01*
X123706235Y-105326304D01*
X123625051Y-105296634D01*
X123625042Y-105296631D01*
X123625040Y-105296631D01*
X123532386Y-105273818D01*
X123532383Y-105273817D01*
X123532377Y-105273816D01*
X123532372Y-105273815D01*
X123427608Y-105259172D01*
X123427594Y-105259171D01*
X123321186Y-105254491D01*
X123313071Y-105250704D01*
X123310000Y-105242802D01*
X123310000Y-104757196D01*
X123313427Y-104748923D01*
X123321183Y-104745508D01*
X123427598Y-104740827D01*
X123532386Y-104726181D01*
X123625040Y-104703368D01*
X123706240Y-104673693D01*
X123776663Y-104638462D01*
X123836987Y-104598983D01*
X123887890Y-104556560D01*
X123924005Y-104518816D01*
X123932199Y-104515210D01*
X123937820Y-104516508D01*
G37*
%TD.AperFunction*%
%TD*%
%TA.AperFunction,Conductor*%
%TO.N,LATCH_U1*%
G36*
X112639634Y-119405131D02*
G01*
X112647233Y-119409865D01*
X112649369Y-119415610D01*
X112652119Y-119445794D01*
X112652122Y-119445819D01*
X112659624Y-119494423D01*
X112659628Y-119494443D01*
X112672895Y-119548205D01*
X112672901Y-119548225D01*
X112693766Y-119602868D01*
X112724060Y-119654091D01*
X112744331Y-119675314D01*
X112765603Y-119697585D01*
X112765606Y-119697587D01*
X112765610Y-119697590D01*
X112820225Y-119729061D01*
X112820227Y-119729061D01*
X112820229Y-119729063D01*
X112820230Y-119729063D01*
X112820232Y-119729064D01*
X112847637Y-119735041D01*
X112879860Y-119742070D01*
X112887213Y-119747181D01*
X112889037Y-119754340D01*
X112854204Y-120238621D01*
X112850192Y-120246627D01*
X112841695Y-120249452D01*
X112841083Y-120249392D01*
X112725161Y-120234904D01*
X112724033Y-120234706D01*
X112610683Y-120209089D01*
X112609803Y-120208854D01*
X112509017Y-120177659D01*
X112508505Y-120177486D01*
X112418804Y-120144840D01*
X112418709Y-120144805D01*
X112338609Y-120114861D01*
X112338591Y-120114855D01*
X112267018Y-120091951D01*
X112202428Y-120080258D01*
X112202427Y-120080258D01*
X112197122Y-120080593D01*
X112151208Y-120083492D01*
X112142736Y-120080593D01*
X112139955Y-120076943D01*
X111977704Y-119744231D01*
X111749411Y-119276091D01*
X111748865Y-119267153D01*
X111754799Y-119260447D01*
X111761840Y-119259421D01*
X112639634Y-119405131D01*
G37*
%TD.AperFunction*%
%TD*%
%TA.AperFunction,Conductor*%
%TO.N,+5V_CHAIN*%
G36*
X107551757Y-107798469D02*
G01*
X107704985Y-107877519D01*
X108154844Y-108109602D01*
X108160625Y-108116441D01*
X108159878Y-108125364D01*
X108154844Y-108130398D01*
X107551761Y-108441528D01*
X107542838Y-108442275D01*
X107539110Y-108440284D01*
X107524742Y-108428846D01*
X107493760Y-108414654D01*
X107453003Y-108402480D01*
X107452996Y-108402478D01*
X107403422Y-108392389D01*
X107403411Y-108392387D01*
X107403404Y-108392386D01*
X107345880Y-108384432D01*
X107302864Y-108380594D01*
X107281357Y-108378676D01*
X107210757Y-108375179D01*
X107146518Y-108374179D01*
X107138299Y-108370623D01*
X107135000Y-108362480D01*
X107135000Y-107877519D01*
X107138427Y-107869246D01*
X107146516Y-107865820D01*
X107210755Y-107864820D01*
X107281356Y-107861323D01*
X107345880Y-107855567D01*
X107403404Y-107847613D01*
X107453003Y-107837519D01*
X107493757Y-107825346D01*
X107524741Y-107811153D01*
X107539110Y-107799714D01*
X107547716Y-107797243D01*
X107551757Y-107798469D01*
G37*
%TD.AperFunction*%
%TD*%
%TA.AperFunction,Conductor*%
%TO.N,+5V_HOME*%
G36*
X121595753Y-138173427D02*
G01*
X121599179Y-138181518D01*
X121600179Y-138245757D01*
X121603676Y-138316357D01*
X121609432Y-138380878D01*
X121617387Y-138438411D01*
X121617389Y-138438422D01*
X121627478Y-138487996D01*
X121627480Y-138488003D01*
X121639654Y-138528760D01*
X121653846Y-138559742D01*
X121665284Y-138574110D01*
X121667755Y-138582717D01*
X121666528Y-138586761D01*
X121355398Y-139189844D01*
X121348559Y-139195625D01*
X121339636Y-139194878D01*
X121334602Y-139189844D01*
X121023470Y-138586760D01*
X121022723Y-138577837D01*
X121024713Y-138574111D01*
X121036153Y-138559741D01*
X121050346Y-138528757D01*
X121062519Y-138488003D01*
X121072613Y-138438404D01*
X121080567Y-138380880D01*
X121086323Y-138316356D01*
X121089820Y-138245755D01*
X121090820Y-138181516D01*
X121094376Y-138173299D01*
X121102519Y-138170000D01*
X121587480Y-138170000D01*
X121595753Y-138173427D01*
G37*
%TD.AperFunction*%
%TD*%
%TA.AperFunction,Conductor*%
%TO.N,UPDI_PROG*%
G36*
X139031174Y-112675649D02*
G01*
X139036194Y-112680697D01*
X139506855Y-113599230D01*
X139507578Y-113608155D01*
X139504721Y-113612832D01*
X139462980Y-113654638D01*
X139436318Y-113690741D01*
X139420416Y-113712273D01*
X139420413Y-113712278D01*
X139381946Y-113780331D01*
X139381943Y-113780336D01*
X139346447Y-113859469D01*
X139346445Y-113859475D01*
X139312815Y-113950325D01*
X139312807Y-113950349D01*
X139279936Y-114053541D01*
X139246699Y-114169766D01*
X139215021Y-114288322D01*
X139209575Y-114295430D01*
X139200758Y-114296621D01*
X138730967Y-114173752D01*
X138723830Y-114168344D01*
X138722402Y-114160420D01*
X138738630Y-114067608D01*
X138738461Y-113973632D01*
X138723282Y-113889029D01*
X138696337Y-113813726D01*
X138660868Y-113747654D01*
X138635538Y-113712278D01*
X138620117Y-113690740D01*
X138620114Y-113690737D01*
X138577345Y-113642935D01*
X138577336Y-113642926D01*
X138577328Y-113642917D01*
X138542238Y-113610172D01*
X138538528Y-113602023D01*
X138539837Y-113596227D01*
X139015398Y-112680638D01*
X139022253Y-112674877D01*
X139031174Y-112675649D01*
G37*
%TD.AperFunction*%
%TD*%
%TA.AperFunction,Conductor*%
%TO.N,GND_U1*%
G36*
X122412707Y-117985842D02*
G01*
X122416783Y-117988668D01*
X122449922Y-118024175D01*
X122450136Y-118024410D01*
X122450364Y-118024668D01*
X122450585Y-118024926D01*
X122490728Y-118073098D01*
X122490855Y-118073253D01*
X122491024Y-118073463D01*
X122491161Y-118073637D01*
X122529825Y-118123707D01*
X122529857Y-118123799D01*
X122529882Y-118123781D01*
X122529961Y-118123885D01*
X122530035Y-118123983D01*
X122568119Y-118175230D01*
X122606281Y-118226581D01*
X122606299Y-118226604D01*
X122645278Y-118277082D01*
X122645297Y-118277106D01*
X122685835Y-118325753D01*
X122685898Y-118325831D01*
X122685978Y-118325925D01*
X122719882Y-118362249D01*
X122722286Y-118366128D01*
X122722952Y-118367906D01*
X122722726Y-118376672D01*
X122722076Y-118378168D01*
X122719618Y-118381779D01*
X122451452Y-118649945D01*
X122447654Y-118652483D01*
X122445900Y-118653209D01*
X122437134Y-118653283D01*
X122435617Y-118652685D01*
X122431925Y-118650353D01*
X122395525Y-118616378D01*
X122395431Y-118616298D01*
X122395353Y-118616235D01*
X122346706Y-118575697D01*
X122346682Y-118575678D01*
X122296204Y-118536699D01*
X122296181Y-118536681D01*
X122244830Y-118498519D01*
X122193583Y-118460435D01*
X122193485Y-118460361D01*
X122193381Y-118460282D01*
X122193307Y-118460225D01*
X122143247Y-118421569D01*
X122143063Y-118421424D01*
X122142853Y-118421255D01*
X122142698Y-118421128D01*
X122094526Y-118380985D01*
X122094268Y-118380764D01*
X122094010Y-118380536D01*
X122093775Y-118380322D01*
X122058399Y-118347305D01*
X122055735Y-118343603D01*
X122054996Y-118341981D01*
X122054684Y-118333034D01*
X122055243Y-118331540D01*
X122057924Y-118327374D01*
X122396848Y-117988449D01*
X122400643Y-117985914D01*
X122401320Y-117985634D01*
X122402291Y-117985233D01*
X122411239Y-117985233D01*
X122412707Y-117985842D01*
G37*
%TD.AperFunction*%
%TD*%
%TA.AperFunction,Conductor*%
%TO.N,MOTOR3_DRIVER*%
G36*
X101358160Y-142262516D02*
G01*
X101394277Y-142300261D01*
X101394281Y-142300265D01*
X101419732Y-142321474D01*
X101445183Y-142342685D01*
X101505510Y-142382165D01*
X101575937Y-142417395D01*
X101633241Y-142438335D01*
X101657136Y-142447067D01*
X101657138Y-142447067D01*
X101657142Y-142447069D01*
X101749802Y-142469882D01*
X101854595Y-142484528D01*
X101972200Y-142489700D01*
X101972200Y-142997700D01*
X101854594Y-143002871D01*
X101777584Y-143013632D01*
X101777579Y-143013632D01*
X101749813Y-143017513D01*
X101749807Y-143017514D01*
X101657144Y-143040327D01*
X101657133Y-143040330D01*
X101575937Y-143070001D01*
X101575936Y-143070001D01*
X101505503Y-143105234D01*
X101445180Y-143144710D01*
X101445167Y-143144720D01*
X101394276Y-143187130D01*
X101394272Y-143187133D01*
X101358153Y-143224879D01*
X101349957Y-143228487D01*
X101344336Y-143227188D01*
X100427318Y-142754089D01*
X100421537Y-142747250D01*
X100422284Y-142738327D01*
X100427318Y-142733293D01*
X100903466Y-142487653D01*
X101344345Y-142260207D01*
X101353267Y-142259461D01*
X101358160Y-142262516D01*
G37*
%TD.AperFunction*%
%TD*%
%TA.AperFunction,Conductor*%
%TO.N,CLOCK_CONN*%
G36*
X109155838Y-104074620D02*
G01*
X109262301Y-104180827D01*
X109427408Y-104345539D01*
X109430845Y-104353808D01*
X109427638Y-104361869D01*
X109377230Y-104415073D01*
X109321543Y-104479038D01*
X109321521Y-104479065D01*
X109267491Y-104544745D01*
X109267462Y-104544780D01*
X109267440Y-104544808D01*
X109214304Y-104611266D01*
X109161219Y-104677660D01*
X109161117Y-104677787D01*
X109107169Y-104743367D01*
X109106957Y-104743616D01*
X109051539Y-104807272D01*
X109051208Y-104807637D01*
X109001383Y-104860226D01*
X108993206Y-104863875D01*
X108984843Y-104860672D01*
X108984649Y-104860484D01*
X108801385Y-104677660D01*
X108641984Y-104518641D01*
X108638547Y-104510372D01*
X108641964Y-104502095D01*
X108642131Y-104501931D01*
X108694658Y-104451925D01*
X108694972Y-104451637D01*
X108758597Y-104395976D01*
X108758765Y-104395833D01*
X108824234Y-104341713D01*
X108890626Y-104288366D01*
X108957019Y-104235019D01*
X109022569Y-104180831D01*
X109086432Y-104124962D01*
X109139511Y-104074429D01*
X109147864Y-104071208D01*
X109155838Y-104074620D01*
G37*
%TD.AperFunction*%
%TD*%
%TA.AperFunction,Conductor*%
%TO.N,HOME*%
G36*
X124660364Y-141265121D02*
G01*
X124665398Y-141270155D01*
X124976529Y-141873239D01*
X124977276Y-141882162D01*
X124975285Y-141885888D01*
X124975286Y-141885889D01*
X124975285Y-141885890D01*
X124963847Y-141900257D01*
X124963844Y-141900262D01*
X124949654Y-141931238D01*
X124937480Y-141971995D01*
X124937478Y-141972002D01*
X124927389Y-142021576D01*
X124927387Y-142021587D01*
X124919432Y-142079120D01*
X124913676Y-142143641D01*
X124910179Y-142214241D01*
X124909179Y-142278482D01*
X124905623Y-142286701D01*
X124897480Y-142290000D01*
X124412519Y-142290000D01*
X124404246Y-142286573D01*
X124400820Y-142278483D01*
X124399820Y-142214244D01*
X124396323Y-142143643D01*
X124390567Y-142079119D01*
X124382613Y-142021595D01*
X124372519Y-141971996D01*
X124360346Y-141931242D01*
X124346153Y-141900258D01*
X124346152Y-141900257D01*
X124346152Y-141900256D01*
X124334715Y-141885889D01*
X124332244Y-141877282D01*
X124333471Y-141873238D01*
X124644602Y-141270155D01*
X124651441Y-141264374D01*
X124660364Y-141265121D01*
G37*
%TD.AperFunction*%
%TD*%
%TA.AperFunction,Conductor*%
%TO.N,+5V_CHAIN*%
G36*
X113700975Y-103973427D02*
G01*
X113704395Y-103981291D01*
X113707514Y-104070511D01*
X113707514Y-104070513D01*
X113717549Y-104161339D01*
X113733360Y-104242584D01*
X113733361Y-104242587D01*
X113754182Y-104314239D01*
X113779257Y-104376354D01*
X113779268Y-104376378D01*
X113807836Y-104428998D01*
X113807845Y-104429013D01*
X113839174Y-104472220D01*
X113839176Y-104472223D01*
X113866548Y-104500002D01*
X113869914Y-104508300D01*
X113868612Y-104513578D01*
X113460398Y-105304844D01*
X113453559Y-105310625D01*
X113444636Y-105309878D01*
X113439602Y-105304844D01*
X113031387Y-104513578D01*
X113030640Y-104504655D01*
X113033449Y-104500005D01*
X113060823Y-104472223D01*
X113092154Y-104429013D01*
X113120737Y-104376366D01*
X113145817Y-104314238D01*
X113166639Y-104242583D01*
X113182447Y-104161355D01*
X113192485Y-104070509D01*
X113195605Y-103981290D01*
X113199319Y-103973143D01*
X113207298Y-103970000D01*
X113692702Y-103970000D01*
X113700975Y-103973427D01*
G37*
%TD.AperFunction*%
%TD*%
%TA.AperFunction,Conductor*%
%TO.N,HOME*%
G36*
X116249404Y-133339510D02*
G01*
X116255426Y-133345034D01*
X116270087Y-133356550D01*
X116284468Y-133366418D01*
X116297905Y-133374572D01*
X116309737Y-133380946D01*
X116319301Y-133385475D01*
X116319309Y-133385478D01*
X116325364Y-133387868D01*
X116331381Y-133393224D01*
X116761510Y-134195671D01*
X116762398Y-134204581D01*
X116756725Y-134211510D01*
X116747815Y-134212398D01*
X116745671Y-134211510D01*
X115943224Y-133781381D01*
X115937868Y-133775364D01*
X115935478Y-133769309D01*
X115935475Y-133769301D01*
X115930946Y-133759737D01*
X115924572Y-133747905D01*
X115916418Y-133734468D01*
X115906550Y-133720087D01*
X115895034Y-133705426D01*
X115889510Y-133699404D01*
X115886444Y-133690991D01*
X115889859Y-133683224D01*
X116233224Y-133339859D01*
X116241496Y-133336433D01*
X116249404Y-133339510D01*
G37*
%TD.AperFunction*%
%TD*%
%TA.AperFunction,Conductor*%
%TO.N,CLOCK_CONN*%
G36*
X112257270Y-109828419D02*
G01*
X112260686Y-109836178D01*
X112265370Y-109942603D01*
X112280016Y-110047363D01*
X112280016Y-110047364D01*
X112280018Y-110047375D01*
X112280019Y-110047377D01*
X112302835Y-110140031D01*
X112332513Y-110221229D01*
X112367746Y-110291651D01*
X112367761Y-110291674D01*
X112407224Y-110351971D01*
X112407228Y-110351975D01*
X112449651Y-110402874D01*
X112487395Y-110438988D01*
X112491003Y-110447184D01*
X112489704Y-110452806D01*
X112016639Y-111369842D01*
X112009801Y-111375623D01*
X112000877Y-111374876D01*
X111995843Y-111369843D01*
X111522723Y-110452833D01*
X111521976Y-110443910D01*
X111525031Y-110439018D01*
X111562773Y-110402902D01*
X111605194Y-110351998D01*
X111644672Y-110291673D01*
X111679900Y-110221249D01*
X111709572Y-110140048D01*
X111732383Y-110047393D01*
X111747025Y-109942605D01*
X111751702Y-109836191D01*
X111755489Y-109828078D01*
X111763389Y-109825006D01*
X112248997Y-109824992D01*
X112257270Y-109828419D01*
G37*
%TD.AperFunction*%
%TD*%
%TA.AperFunction,Conductor*%
%TO.N,+5V_MAIN_TOP*%
G36*
X124750344Y-107402527D02*
G01*
X124753771Y-107410800D01*
X124753769Y-107411027D01*
X124751820Y-107511411D01*
X124751807Y-107511782D01*
X124746068Y-107623968D01*
X124746053Y-107624214D01*
X124737927Y-107736581D01*
X124737917Y-107736704D01*
X124728600Y-107849100D01*
X124719273Y-107961600D01*
X124711137Y-108074100D01*
X124711137Y-108074108D01*
X124705382Y-108186603D01*
X124703423Y-108287627D01*
X124699836Y-108295832D01*
X124691725Y-108299100D01*
X124308275Y-108299100D01*
X124300002Y-108295673D01*
X124296577Y-108287627D01*
X124294617Y-108186600D01*
X124288862Y-108074100D01*
X124280726Y-107961600D01*
X124271400Y-107849100D01*
X124262073Y-107736600D01*
X124253943Y-107624192D01*
X124253930Y-107623968D01*
X124248191Y-107511782D01*
X124248178Y-107511411D01*
X124246231Y-107411027D01*
X124249497Y-107402689D01*
X124257702Y-107399102D01*
X124257929Y-107399100D01*
X124742071Y-107399100D01*
X124750344Y-107402527D01*
G37*
%TD.AperFunction*%
%TD*%
%TA.AperFunction,Conductor*%
%TO.N,MOTOR2_U1*%
G36*
X128742167Y-132179663D02*
G01*
X128742436Y-132179677D01*
X128742843Y-132179704D01*
X128743100Y-132179725D01*
X128802711Y-132185410D01*
X128802834Y-132185423D01*
X128803114Y-132185455D01*
X128803143Y-132185459D01*
X128803336Y-132185484D01*
X128814014Y-132186923D01*
X128863207Y-132193556D01*
X128863417Y-132193586D01*
X128923677Y-132202900D01*
X128984022Y-132212226D01*
X129034582Y-132219042D01*
X129044365Y-132220362D01*
X129104538Y-132226100D01*
X129104627Y-132226110D01*
X129104700Y-132226116D01*
X129104708Y-132226117D01*
X129138120Y-132227325D01*
X129151455Y-132227807D01*
X129155892Y-132228858D01*
X129157625Y-132229650D01*
X129163651Y-132236010D01*
X129164245Y-132237521D01*
X129165056Y-132241802D01*
X129165056Y-132621087D01*
X129164165Y-132625566D01*
X129163436Y-132627325D01*
X129157302Y-132633571D01*
X129155813Y-132634220D01*
X129151561Y-132635187D01*
X129104712Y-132636880D01*
X129104612Y-132636888D01*
X129104514Y-132636899D01*
X129044368Y-132642635D01*
X128984143Y-132650756D01*
X128984054Y-132650768D01*
X128983960Y-132650779D01*
X128983842Y-132650800D01*
X128923677Y-132660100D01*
X128863435Y-132669409D01*
X128863194Y-132669443D01*
X128863180Y-132669444D01*
X128863181Y-132669445D01*
X128803314Y-132677517D01*
X128803097Y-132677544D01*
X128802885Y-132677568D01*
X128802865Y-132677571D01*
X128802659Y-132677592D01*
X128743159Y-132683267D01*
X128742796Y-132683296D01*
X128742437Y-132683319D01*
X128742112Y-132683335D01*
X128696747Y-132684976D01*
X128692244Y-132684250D01*
X128690574Y-132683628D01*
X128684017Y-132677533D01*
X128683356Y-132676088D01*
X128682299Y-132671227D01*
X128682299Y-132191957D01*
X128683188Y-132187484D01*
X128683222Y-132187399D01*
X128683870Y-132185836D01*
X128690195Y-132179505D01*
X128691665Y-132178896D01*
X128696561Y-132178015D01*
X128742167Y-132179663D01*
G37*
%TD.AperFunction*%
%TD*%
%TA.AperFunction,Conductor*%
%TO.N,DATA_CHAIN_IN*%
G36*
X110408340Y-118034679D02*
G01*
X110411767Y-118042952D01*
X110411759Y-118043377D01*
X110410029Y-118090943D01*
X110409984Y-118091634D01*
X110404282Y-118151130D01*
X110404229Y-118151585D01*
X110396139Y-118211298D01*
X110396106Y-118211522D01*
X110386800Y-118271445D01*
X110386800Y-118271446D01*
X110377474Y-118331481D01*
X110369338Y-118391533D01*
X110363581Y-118451604D01*
X110361810Y-118500366D01*
X110358085Y-118508509D01*
X110350118Y-118511641D01*
X109966282Y-118511641D01*
X109958009Y-118508214D01*
X109954590Y-118500366D01*
X109952817Y-118451604D01*
X109952817Y-118451592D01*
X109947062Y-118391543D01*
X109938926Y-118331495D01*
X109929600Y-118271446D01*
X109920282Y-118211457D01*
X109920266Y-118211350D01*
X109912169Y-118151585D01*
X109912116Y-118151130D01*
X109906414Y-118091634D01*
X109906369Y-118090943D01*
X109904641Y-118043377D01*
X109907765Y-118034985D01*
X109915908Y-118031260D01*
X109916333Y-118031252D01*
X110400067Y-118031252D01*
X110408340Y-118034679D01*
G37*
%TD.AperFunction*%
%TD*%
%TA.AperFunction,Conductor*%
%TO.N,MOTOR1_DRIVER*%
G36*
X101045063Y-137211516D02*
G01*
X101082729Y-137249587D01*
X101135418Y-137291850D01*
X101197677Y-137330900D01*
X101270192Y-137365539D01*
X101353649Y-137394567D01*
X101448737Y-137416786D01*
X101556141Y-137430996D01*
X101676550Y-137436000D01*
X101676550Y-137944000D01*
X101639687Y-137945620D01*
X101639677Y-137945620D01*
X101639673Y-137945620D01*
X101639670Y-137945620D01*
X101558290Y-137949198D01*
X101558270Y-137949200D01*
X101452853Y-137963931D01*
X101452819Y-137963937D01*
X101359562Y-137986911D01*
X101359541Y-137986918D01*
X101277831Y-138016842D01*
X101207023Y-138052429D01*
X101146505Y-138092379D01*
X101095648Y-138135398D01*
X101059767Y-138173824D01*
X101051616Y-138177532D01*
X101046011Y-138176318D01*
X100121842Y-137717276D01*
X100115957Y-137710526D01*
X100116568Y-137701592D01*
X100121522Y-137696484D01*
X101031226Y-137209430D01*
X101040136Y-137208547D01*
X101045063Y-137211516D01*
G37*
%TD.AperFunction*%
%TD*%
%TA.AperFunction,Conductor*%
%TO.N,MOTOR1_U1*%
G36*
X130162801Y-129415618D02*
G01*
X130163016Y-129416115D01*
X130230032Y-129581050D01*
X130230364Y-129581976D01*
X130281222Y-129745329D01*
X130281417Y-129746032D01*
X130318080Y-129896212D01*
X130318161Y-129896565D01*
X130347001Y-130032859D01*
X130374330Y-130154127D01*
X130406516Y-130259419D01*
X130406518Y-130259424D01*
X130449944Y-130347858D01*
X130505835Y-130412596D01*
X130508648Y-130421098D01*
X130507377Y-130425606D01*
X130033916Y-131343383D01*
X130027077Y-131349164D01*
X130018154Y-131348417D01*
X130013120Y-131343383D01*
X129539951Y-130426250D01*
X129539203Y-130417327D01*
X129542136Y-130412553D01*
X129591907Y-130363499D01*
X129646900Y-130292860D01*
X129696327Y-130208016D01*
X129735536Y-130110306D01*
X129759872Y-130001065D01*
X129764682Y-129881632D01*
X129745313Y-129753344D01*
X129700683Y-129627602D01*
X129701145Y-129618660D01*
X129706808Y-129613065D01*
X130147278Y-129409894D01*
X130156224Y-129409541D01*
X130162801Y-129415618D01*
G37*
%TD.AperFunction*%
%TD*%
%TA.AperFunction,Conductor*%
%TO.N,DATA_IN_U1*%
G36*
X132399711Y-125492497D02*
G01*
X132403298Y-125500702D01*
X132403300Y-125500929D01*
X132403300Y-125985070D01*
X132399873Y-125993343D01*
X132391600Y-125996770D01*
X132391373Y-125996768D01*
X132290988Y-125994820D01*
X132290617Y-125994807D01*
X132178431Y-125989068D01*
X132178185Y-125989053D01*
X132065818Y-125980927D01*
X132065695Y-125980917D01*
X131953300Y-125971600D01*
X131840842Y-125962276D01*
X131834719Y-125961833D01*
X131728300Y-125954137D01*
X131615800Y-125948382D01*
X131602793Y-125948129D01*
X131514773Y-125946422D01*
X131506568Y-125942835D01*
X131503300Y-125934724D01*
X131503300Y-125551275D01*
X131506727Y-125543002D01*
X131514772Y-125539577D01*
X131615800Y-125537617D01*
X131728300Y-125531862D01*
X131840800Y-125523726D01*
X131953300Y-125514400D01*
X132065800Y-125505073D01*
X132178212Y-125496943D01*
X132178400Y-125496931D01*
X132290639Y-125491190D01*
X132290965Y-125491178D01*
X132391373Y-125489231D01*
X132399711Y-125492497D01*
G37*
%TD.AperFunction*%
%TD*%
%TA.AperFunction,Conductor*%
%TO.N,+5V_U1*%
G36*
X123101206Y-115949979D02*
G01*
X123104958Y-115952435D01*
X123189298Y-116034608D01*
X123189307Y-116034616D01*
X123275441Y-116113516D01*
X123354703Y-116180782D01*
X123354715Y-116180792D01*
X123354729Y-116180803D01*
X123354765Y-116180831D01*
X123354764Y-116180831D01*
X123428347Y-116237720D01*
X123428358Y-116237728D01*
X123428409Y-116237762D01*
X123497347Y-116285437D01*
X123497531Y-116285573D01*
X123497627Y-116285631D01*
X123497629Y-116285633D01*
X123563788Y-116325817D01*
X123563801Y-116325825D01*
X123563807Y-116325828D01*
X123628130Y-116359606D01*
X123678768Y-116382386D01*
X123681531Y-116383629D01*
X123685248Y-116386277D01*
X123687063Y-116388204D01*
X123690187Y-116395049D01*
X123690243Y-116395603D01*
X123690147Y-116398676D01*
X123543715Y-117290424D01*
X123542108Y-117294703D01*
X123541227Y-117296121D01*
X123533950Y-117301339D01*
X123525972Y-117300368D01*
X123525182Y-117299965D01*
X123522263Y-117297853D01*
X123252401Y-117030367D01*
X122880306Y-116661548D01*
X122877754Y-116657763D01*
X122876667Y-116655170D01*
X122876075Y-116647941D01*
X122876146Y-116647643D01*
X122877096Y-116645057D01*
X122891938Y-116615925D01*
X122907155Y-116570823D01*
X122916383Y-116520016D01*
X122917765Y-116464924D01*
X122909444Y-116406970D01*
X122889561Y-116347575D01*
X122856259Y-116288161D01*
X122816050Y-116240144D01*
X122813859Y-116236141D01*
X122813235Y-116234156D01*
X122813792Y-116225701D01*
X122814382Y-116224439D01*
X122816706Y-116221121D01*
X123085239Y-115952588D01*
X123089026Y-115950057D01*
X123090719Y-115949355D01*
X123099603Y-115949328D01*
X123101206Y-115949979D01*
G37*
%TD.AperFunction*%
%TD*%
%TA.AperFunction,Conductor*%
%TO.N,LATCH_CONN*%
G36*
X102501757Y-105258469D02*
G01*
X102654985Y-105337519D01*
X103104844Y-105569602D01*
X103110625Y-105576441D01*
X103109878Y-105585364D01*
X103104844Y-105590398D01*
X102501761Y-105901528D01*
X102492838Y-105902275D01*
X102489110Y-105900284D01*
X102474742Y-105888846D01*
X102443760Y-105874654D01*
X102403003Y-105862480D01*
X102402996Y-105862478D01*
X102353422Y-105852389D01*
X102353411Y-105852387D01*
X102353404Y-105852386D01*
X102295880Y-105844432D01*
X102252864Y-105840594D01*
X102231357Y-105838676D01*
X102160757Y-105835179D01*
X102096518Y-105834179D01*
X102088299Y-105830623D01*
X102085000Y-105822480D01*
X102085000Y-105337519D01*
X102088427Y-105329246D01*
X102096516Y-105325820D01*
X102160755Y-105324820D01*
X102231356Y-105321323D01*
X102295880Y-105315567D01*
X102353404Y-105307613D01*
X102403003Y-105297519D01*
X102443757Y-105285346D01*
X102474741Y-105271153D01*
X102489110Y-105259714D01*
X102497716Y-105257243D01*
X102501757Y-105258469D01*
G37*
%TD.AperFunction*%
%TD*%
%TA.AperFunction,Conductor*%
%TO.N,GND_U1*%
G36*
X125405831Y-117814007D02*
G01*
X125406026Y-117814197D01*
X125748301Y-118156472D01*
X125751728Y-118164745D01*
X125748301Y-118173018D01*
X125748106Y-118173208D01*
X125689073Y-118229556D01*
X125688746Y-118229857D01*
X125618624Y-118291872D01*
X125618400Y-118292065D01*
X125546509Y-118352479D01*
X125546396Y-118352573D01*
X125473527Y-118412262D01*
X125400599Y-118471995D01*
X125328539Y-118532552D01*
X125258153Y-118594800D01*
X125198553Y-118651691D01*
X125190202Y-118654925D01*
X125182201Y-118651501D01*
X124910997Y-118380297D01*
X124907570Y-118372024D01*
X124910805Y-118363948D01*
X124967693Y-118304351D01*
X125029944Y-118233962D01*
X125090512Y-118161888D01*
X125150237Y-118088972D01*
X125209963Y-118016057D01*
X125270488Y-117944034D01*
X125270573Y-117943935D01*
X125332673Y-117873716D01*
X125332906Y-117873463D01*
X125389291Y-117814391D01*
X125397481Y-117810773D01*
X125405831Y-117814007D01*
G37*
%TD.AperFunction*%
%TD*%
%TA.AperFunction,Conductor*%
%TO.N,+5V_UPDI*%
G36*
X144710889Y-105259715D02*
G01*
X144725256Y-105271152D01*
X144725257Y-105271152D01*
X144725258Y-105271153D01*
X144756242Y-105285346D01*
X144796996Y-105297519D01*
X144846595Y-105307613D01*
X144904119Y-105315567D01*
X144968643Y-105321323D01*
X145039244Y-105324820D01*
X145103483Y-105325820D01*
X145111701Y-105329376D01*
X145115000Y-105337519D01*
X145115000Y-105822480D01*
X145111573Y-105830753D01*
X145103482Y-105834179D01*
X145039241Y-105835179D01*
X144968641Y-105838676D01*
X144925627Y-105842513D01*
X144904119Y-105844432D01*
X144871577Y-105848931D01*
X144846587Y-105852387D01*
X144846576Y-105852389D01*
X144797002Y-105862478D01*
X144796995Y-105862480D01*
X144756238Y-105874654D01*
X144725262Y-105888844D01*
X144725258Y-105888846D01*
X144710889Y-105900285D01*
X144702283Y-105902756D01*
X144698239Y-105901529D01*
X144095155Y-105590398D01*
X144089374Y-105583559D01*
X144090121Y-105574636D01*
X144095155Y-105569602D01*
X144545015Y-105337519D01*
X144698239Y-105258470D01*
X144707161Y-105257724D01*
X144710889Y-105259715D01*
G37*
%TD.AperFunction*%
%TD*%
%TA.AperFunction,Conductor*%
%TO.N,+5V_HOME*%
G36*
X121635058Y-134753173D02*
G01*
X121636059Y-134760828D01*
X121594111Y-134961291D01*
X121594111Y-134961293D01*
X121450000Y-135650000D01*
X121384787Y-135655753D01*
X121313615Y-135670921D01*
X121234939Y-135692366D01*
X121147218Y-135716950D01*
X121071239Y-135735948D01*
X121071238Y-135735948D01*
X121071238Y-135735947D01*
X121049205Y-135741458D01*
X121048596Y-135741593D01*
X120938877Y-135762897D01*
X120938066Y-135763026D01*
X120814802Y-135778089D01*
X120813866Y-135778165D01*
X120687183Y-135783396D01*
X120678775Y-135780313D01*
X120675010Y-135772189D01*
X120675000Y-135771706D01*
X120675000Y-135286372D01*
X120678427Y-135278099D01*
X120685406Y-135274744D01*
X120708736Y-135272153D01*
X120738627Y-135261943D01*
X120764326Y-135246810D01*
X120785488Y-135228297D01*
X120801767Y-135207944D01*
X120812817Y-135187296D01*
X120818293Y-135167892D01*
X120818047Y-135158699D01*
X120821252Y-135150339D01*
X120824482Y-135147938D01*
X121619348Y-134747980D01*
X121628279Y-134747323D01*
X121635058Y-134753173D01*
G37*
%TD.AperFunction*%
%TD*%
%TA.AperFunction,Conductor*%
%TO.N,GND_U1*%
G36*
X127071995Y-116575359D02*
G01*
X127101298Y-116604393D01*
X127146111Y-116637276D01*
X127200504Y-116667243D01*
X127264587Y-116693513D01*
X127338468Y-116715304D01*
X127422258Y-116731837D01*
X127516065Y-116742329D01*
X127608713Y-116745601D01*
X127616860Y-116749318D01*
X127620000Y-116757294D01*
X127620000Y-117242705D01*
X127616573Y-117250978D01*
X127608713Y-117254398D01*
X127526609Y-117257297D01*
X127516065Y-117257670D01*
X127516061Y-117257670D01*
X127516053Y-117257671D01*
X127422274Y-117268160D01*
X127422262Y-117268161D01*
X127422258Y-117268162D01*
X127422256Y-117268162D01*
X127422251Y-117268163D01*
X127338476Y-117284693D01*
X127338463Y-117284696D01*
X127264588Y-117306485D01*
X127200511Y-117332752D01*
X127146113Y-117362721D01*
X127101300Y-117395604D01*
X127101291Y-117395612D01*
X127071997Y-117424638D01*
X127063708Y-117428027D01*
X127058398Y-117426725D01*
X126652523Y-117217334D01*
X126796729Y-116765771D01*
X126504176Y-116859197D01*
X127058400Y-116573272D01*
X127067321Y-116572526D01*
X127071995Y-116575359D01*
G37*
%TD.AperFunction*%
%TD*%
%TA.AperFunction,Conductor*%
%TO.N,GND_CHAIN*%
G36*
X107851570Y-110441952D02*
G01*
X108360119Y-110892023D01*
X108364043Y-110900073D01*
X108363726Y-110903581D01*
X108360931Y-110914938D01*
X108360930Y-110914944D01*
X108362836Y-110940026D01*
X108362838Y-110940040D01*
X108370997Y-110970791D01*
X108371000Y-110970800D01*
X108385264Y-111005965D01*
X108385268Y-111005973D01*
X108405507Y-111044362D01*
X108431553Y-111084702D01*
X108431563Y-111084716D01*
X108463300Y-111125824D01*
X108493009Y-111158214D01*
X108496076Y-111166628D01*
X108492660Y-111174396D01*
X108149794Y-111517262D01*
X108141521Y-111520689D01*
X108133248Y-111517262D01*
X108133134Y-111517146D01*
X108072426Y-111454239D01*
X108072196Y-111453992D01*
X108010451Y-111386087D01*
X108010304Y-111385923D01*
X107954969Y-111322717D01*
X107954930Y-111322672D01*
X107905664Y-111265821D01*
X107861951Y-111216790D01*
X107861944Y-111216782D01*
X107823344Y-111177122D01*
X107823325Y-111177105D01*
X107789326Y-111148285D01*
X107789322Y-111148282D01*
X107766221Y-111135539D01*
X107760632Y-111128542D01*
X107760238Y-111124055D01*
X107832183Y-110449470D01*
X107836467Y-110441610D01*
X107845057Y-110439080D01*
X107851570Y-110441952D01*
G37*
%TD.AperFunction*%
%TD*%
%TA.AperFunction,Conductor*%
%TO.N,CLOCK_CONN*%
G36*
X108311273Y-104849459D02*
G01*
X108654605Y-105191966D01*
X108658042Y-105200235D01*
X108654753Y-105208382D01*
X108610090Y-105254566D01*
X108562706Y-105307018D01*
X108521206Y-105356769D01*
X108486229Y-105403088D01*
X108486211Y-105403113D01*
X108458340Y-105445335D01*
X108438169Y-105482796D01*
X108426333Y-105514758D01*
X108426333Y-105514760D01*
X108424283Y-105533008D01*
X108419954Y-105540847D01*
X108416229Y-105542843D01*
X107770033Y-105750063D01*
X107761108Y-105749326D01*
X107755319Y-105742495D01*
X107755310Y-105735376D01*
X107960972Y-105088679D01*
X107966744Y-105081836D01*
X107970783Y-105080603D01*
X107989032Y-105078509D01*
X108020963Y-105066598D01*
X108058363Y-105046343D01*
X108100540Y-105018357D01*
X108146797Y-104983251D01*
X108196442Y-104941636D01*
X108248781Y-104894123D01*
X108294859Y-104849349D01*
X108303178Y-104846043D01*
X108311273Y-104849459D01*
G37*
%TD.AperFunction*%
%TD*%
%TA.AperFunction,Conductor*%
%TO.N,+5V_MAIN_TOP*%
G36*
X124505363Y-104640120D02*
G01*
X124510397Y-104645154D01*
X124731621Y-105073966D01*
X124731621Y-105073967D01*
X124983490Y-105562177D01*
X124984237Y-105571100D01*
X124981181Y-105575994D01*
X124943442Y-105612104D01*
X124901017Y-105663011D01*
X124901014Y-105663015D01*
X124861540Y-105723331D01*
X124826304Y-105793763D01*
X124796634Y-105874947D01*
X124773816Y-105967621D01*
X124773815Y-105967626D01*
X124759172Y-106072390D01*
X124759171Y-106072403D01*
X124754492Y-106178814D01*
X124750705Y-106186929D01*
X124742803Y-106190000D01*
X124257197Y-106190000D01*
X124248924Y-106186573D01*
X124245508Y-106178814D01*
X124245328Y-106174745D01*
X124240827Y-106072401D01*
X124226181Y-105967613D01*
X124203368Y-105874959D01*
X124173693Y-105793759D01*
X124138462Y-105723336D01*
X124098983Y-105663012D01*
X124056560Y-105612109D01*
X124056556Y-105612104D01*
X124018818Y-105575994D01*
X124015210Y-105567799D01*
X124016508Y-105562180D01*
X124099653Y-105401016D01*
X124489603Y-104645151D01*
X124496440Y-104639373D01*
X124505363Y-104640120D01*
G37*
%TD.AperFunction*%
%TD*%
%TA.AperFunction,Conductor*%
%TO.N,LATCH_CONN*%
G36*
X107372193Y-120695611D02*
G01*
X107445009Y-120765655D01*
X107445017Y-120765662D01*
X107528636Y-120841143D01*
X107528649Y-120841154D01*
X107613964Y-120914961D01*
X107675304Y-120966909D01*
X107700083Y-120987894D01*
X107780631Y-121056109D01*
X107786133Y-121060768D01*
X107786227Y-121060848D01*
X107871423Y-121134553D01*
X107871608Y-121134716D01*
X107877184Y-121139749D01*
X107955040Y-121210026D01*
X107955267Y-121210239D01*
X107970702Y-121225086D01*
X108027644Y-121279861D01*
X108031231Y-121288066D01*
X108027965Y-121296404D01*
X108027806Y-121296566D01*
X107685466Y-121638906D01*
X107677193Y-121642333D01*
X107668920Y-121638906D01*
X107668761Y-121638744D01*
X107632285Y-121600825D01*
X107599139Y-121566367D01*
X107598926Y-121566140D01*
X107559406Y-121522358D01*
X107523616Y-121482708D01*
X107523453Y-121482523D01*
X107449748Y-121397327D01*
X107449668Y-121397233D01*
X107376794Y-121311183D01*
X107303880Y-121225086D01*
X107230054Y-121139749D01*
X107230043Y-121139736D01*
X107158833Y-121060848D01*
X107154555Y-121056109D01*
X107084511Y-120983293D01*
X107081245Y-120974955D01*
X107084669Y-120966910D01*
X107355810Y-120695769D01*
X107364082Y-120692343D01*
X107372193Y-120695611D01*
G37*
%TD.AperFunction*%
%TD*%
%TA.AperFunction,Conductor*%
%TO.N,GND*%
G36*
X121640654Y-140727037D02*
G01*
X121737811Y-140728978D01*
X121738165Y-140728991D01*
X121847094Y-140734730D01*
X121847330Y-140734745D01*
X121956446Y-140742873D01*
X122065677Y-140752200D01*
X122174908Y-140761526D01*
X122284138Y-140769662D01*
X122393369Y-140775417D01*
X122491136Y-140777370D01*
X122499337Y-140780962D01*
X122502600Y-140789068D01*
X122502600Y-141172531D01*
X122499173Y-141180804D01*
X122491134Y-141184229D01*
X122393365Y-141186182D01*
X122338753Y-141189059D01*
X122284138Y-141191937D01*
X122245901Y-141194785D01*
X122174914Y-141200072D01*
X122065677Y-141209400D01*
X121956502Y-141218721D01*
X121956376Y-141218731D01*
X121847338Y-141226852D01*
X121847085Y-141226868D01*
X121738179Y-141232606D01*
X121737797Y-141232620D01*
X121640689Y-141234561D01*
X121632349Y-141231300D01*
X121628757Y-141223097D01*
X121628755Y-141222863D01*
X121628755Y-140738736D01*
X121632182Y-140730463D01*
X121640455Y-140727036D01*
X121640654Y-140727037D01*
G37*
%TD.AperFunction*%
%TD*%
%TA.AperFunction,Conductor*%
%TO.N,MOTOR4*%
G36*
X106040889Y-144989715D02*
G01*
X106055256Y-145001152D01*
X106055257Y-145001152D01*
X106055258Y-145001153D01*
X106086242Y-145015346D01*
X106126996Y-145027519D01*
X106176595Y-145037613D01*
X106234119Y-145045567D01*
X106298643Y-145051323D01*
X106369244Y-145054820D01*
X106433483Y-145055820D01*
X106441701Y-145059376D01*
X106445000Y-145067519D01*
X106445000Y-145552480D01*
X106441573Y-145560753D01*
X106433482Y-145564179D01*
X106369241Y-145565179D01*
X106298641Y-145568676D01*
X106255627Y-145572513D01*
X106234119Y-145574432D01*
X106201577Y-145578931D01*
X106176587Y-145582387D01*
X106176576Y-145582389D01*
X106127002Y-145592478D01*
X106126995Y-145592480D01*
X106086238Y-145604654D01*
X106055262Y-145618844D01*
X106055258Y-145618846D01*
X106040889Y-145630285D01*
X106032283Y-145632756D01*
X106028239Y-145631529D01*
X105425155Y-145320398D01*
X105419374Y-145313559D01*
X105420121Y-145304636D01*
X105425155Y-145299602D01*
X105875015Y-145067519D01*
X106028239Y-144988470D01*
X106037161Y-144987724D01*
X106040889Y-144989715D01*
G37*
%TD.AperFunction*%
%TD*%
%TA.AperFunction,Conductor*%
%TO.N,+5V_MAIN*%
G36*
X126350404Y-135988197D02*
G01*
X126428961Y-136060136D01*
X126513414Y-136123877D01*
X126513416Y-136123878D01*
X126513423Y-136123883D01*
X126595053Y-136173258D01*
X126595072Y-136173268D01*
X126647331Y-136197554D01*
X126673465Y-136209700D01*
X126748174Y-136234586D01*
X126818747Y-136249327D01*
X126884739Y-136255324D01*
X126936964Y-136254174D01*
X126945310Y-136257418D01*
X126948367Y-136262312D01*
X127262255Y-137245278D01*
X127261507Y-137254201D01*
X127254668Y-137259983D01*
X127247550Y-137259982D01*
X126264595Y-136946059D01*
X126257756Y-136940278D01*
X126256457Y-136934658D01*
X126257609Y-136882432D01*
X126251614Y-136816441D01*
X126236875Y-136745869D01*
X126211991Y-136671161D01*
X126175558Y-136592760D01*
X126146218Y-136544252D01*
X126126179Y-136511121D01*
X126126174Y-136511113D01*
X126110540Y-136490399D01*
X126062434Y-136426659D01*
X125990497Y-136348104D01*
X125987438Y-136339689D01*
X125990853Y-136331931D01*
X126334231Y-135988553D01*
X126342503Y-135985127D01*
X126350404Y-135988197D01*
G37*
%TD.AperFunction*%
%TD*%
%TA.AperFunction,Conductor*%
%TO.N,+5V_MAIN_TOP*%
G36*
X136022419Y-116027790D02*
G01*
X136022634Y-116027879D01*
X136024064Y-116028471D01*
X136030396Y-116034799D01*
X136030399Y-116034805D01*
X136031037Y-116036346D01*
X136031925Y-116041049D01*
X136030021Y-116139120D01*
X136030016Y-116139287D01*
X136030010Y-116139465D01*
X136030002Y-116139669D01*
X136024269Y-116251746D01*
X136024268Y-116251745D01*
X136024254Y-116251992D01*
X136024253Y-116252014D01*
X136016127Y-116364381D01*
X136016117Y-116364504D01*
X136006800Y-116476900D01*
X135997473Y-116589400D01*
X135993138Y-116649337D01*
X135989332Y-116701962D01*
X135989331Y-116702005D01*
X135983582Y-116814406D01*
X135981668Y-116913100D01*
X135980691Y-116917559D01*
X135979951Y-116919252D01*
X135973606Y-116925416D01*
X135972030Y-116926051D01*
X135967658Y-116926900D01*
X135588802Y-116926900D01*
X135584320Y-116926007D01*
X135582613Y-116925299D01*
X135576332Y-116919080D01*
X135576331Y-116919078D01*
X135575666Y-116917515D01*
X135574733Y-116913164D01*
X135572817Y-116814400D01*
X135567062Y-116701900D01*
X135558926Y-116589400D01*
X135549600Y-116476900D01*
X135540273Y-116364400D01*
X135532145Y-116252014D01*
X135532130Y-116251768D01*
X135526395Y-116139669D01*
X135526387Y-116139465D01*
X135526381Y-116139287D01*
X135526376Y-116139120D01*
X135524476Y-116041153D01*
X135525279Y-116036661D01*
X135525929Y-116035001D01*
X135532133Y-116028549D01*
X135532418Y-116028424D01*
X135533668Y-116027879D01*
X135538352Y-116026900D01*
X136017944Y-116026900D01*
X136022419Y-116027790D01*
G37*
%TD.AperFunction*%
%TD*%
%TA.AperFunction,Conductor*%
%TO.N,+5V_U1*%
G36*
X118569462Y-117117285D02*
G01*
X118569461Y-117117286D01*
X118465374Y-117654223D01*
X118460435Y-117661692D01*
X118456123Y-117663480D01*
X118436521Y-117667295D01*
X118436514Y-117667297D01*
X118406655Y-117680989D01*
X118406654Y-117680990D01*
X118376188Y-117702677D01*
X118347010Y-117731984D01*
X118321015Y-117768537D01*
X118300106Y-117811948D01*
X118300103Y-117811956D01*
X118286166Y-117861869D01*
X118282063Y-117907254D01*
X118277905Y-117915185D01*
X118270411Y-117917900D01*
X117784967Y-117917900D01*
X117776694Y-117914473D01*
X117773267Y-117906200D01*
X117773268Y-117906035D01*
X117775080Y-117777676D01*
X117775088Y-117777382D01*
X117775435Y-117768537D01*
X117780028Y-117651613D01*
X117786430Y-117538872D01*
X117792785Y-117438048D01*
X117797585Y-117347878D01*
X117799327Y-117267099D01*
X117796505Y-117194447D01*
X117788778Y-117137276D01*
X117791066Y-117128620D01*
X117795527Y-117125061D01*
X117812629Y-117117286D01*
X118642621Y-116739901D01*
X118569462Y-117117285D01*
G37*
%TD.AperFunction*%
%TD*%
%TA.AperFunction,Conductor*%
%TO.N,HOME*%
G36*
X106472459Y-143899770D02*
G01*
X106472696Y-143899779D01*
X106472971Y-143899793D01*
X106473207Y-143899808D01*
X106547480Y-143905523D01*
X106547539Y-143905529D01*
X106547855Y-143905559D01*
X106622354Y-143913663D01*
X106622361Y-143913667D01*
X106622496Y-143913680D01*
X106697222Y-143923000D01*
X106772009Y-143932326D01*
X106846796Y-143940462D01*
X106921583Y-143946217D01*
X106982685Y-143948000D01*
X106987130Y-143949018D01*
X106988847Y-143949789D01*
X106994932Y-143956144D01*
X106995543Y-143957682D01*
X106996370Y-143962002D01*
X106996370Y-144341108D01*
X106995478Y-144345588D01*
X106994758Y-144347325D01*
X106988589Y-144353586D01*
X106987070Y-144354242D01*
X106982772Y-144355196D01*
X106921769Y-144356976D01*
X106921428Y-144356981D01*
X106921405Y-144356981D01*
X106921092Y-144357018D01*
X106846858Y-144362731D01*
X106846725Y-144362743D01*
X106846633Y-144362754D01*
X106772053Y-144370867D01*
X106697222Y-144380200D01*
X106622595Y-144389505D01*
X106622518Y-144389514D01*
X106622357Y-144389533D01*
X106622251Y-144389545D01*
X106547957Y-144397627D01*
X106547795Y-144397644D01*
X106547626Y-144397660D01*
X106547421Y-144397678D01*
X106473243Y-144403387D01*
X106472953Y-144403405D01*
X106472800Y-144403413D01*
X106472679Y-144403419D01*
X106472443Y-144403428D01*
X106412440Y-144405180D01*
X106407941Y-144404420D01*
X106406272Y-144403785D01*
X106399762Y-144397642D01*
X106399098Y-144396162D01*
X106398075Y-144391377D01*
X106398075Y-143911973D01*
X106398964Y-143907500D01*
X106398998Y-143907415D01*
X106399646Y-143905852D01*
X106405971Y-143899521D01*
X106407474Y-143898898D01*
X106412289Y-143898014D01*
X106472459Y-143899770D01*
G37*
%TD.AperFunction*%
%TD*%
%TA.AperFunction,Conductor*%
%TO.N,UPDI_U1*%
G36*
X129912997Y-126781006D02*
G01*
X130347826Y-127005327D01*
X130830027Y-127254086D01*
X130835808Y-127260925D01*
X130835061Y-127269848D01*
X130830027Y-127274882D01*
X129913012Y-127747987D01*
X129904089Y-127748735D01*
X129899195Y-127745678D01*
X129863081Y-127707936D01*
X129812188Y-127665522D01*
X129812175Y-127665512D01*
X129782017Y-127645775D01*
X129751856Y-127626036D01*
X129681434Y-127590806D01*
X129681429Y-127590804D01*
X129600246Y-127561134D01*
X129600237Y-127561131D01*
X129600235Y-127561131D01*
X129507582Y-127538318D01*
X129507579Y-127538317D01*
X129507573Y-127538316D01*
X129507568Y-127538315D01*
X129402809Y-127523673D01*
X129402800Y-127523672D01*
X129402796Y-127523672D01*
X129296385Y-127518991D01*
X129288271Y-127515205D01*
X129285200Y-127507303D01*
X129285200Y-127021696D01*
X129288627Y-127013423D01*
X129296383Y-127010008D01*
X129402794Y-127005327D01*
X129507578Y-126990681D01*
X129600230Y-126967867D01*
X129681427Y-126938191D01*
X129751847Y-126902960D01*
X129812168Y-126863480D01*
X129863069Y-126821057D01*
X129899182Y-126783315D01*
X129907377Y-126779708D01*
X129912997Y-126781006D01*
G37*
%TD.AperFunction*%
%TD*%
%TA.AperFunction,Conductor*%
%TO.N,MOTOR2_DRIVER*%
G36*
X108118484Y-140529263D02*
G01*
X108118765Y-140529769D01*
X108194086Y-140673763D01*
X108194542Y-140674741D01*
X108253988Y-140819468D01*
X108254279Y-140820257D01*
X108298412Y-140954409D01*
X108298554Y-140954871D01*
X108307401Y-140986048D01*
X108333378Y-141077599D01*
X108333381Y-141077608D01*
X108333380Y-141077608D01*
X108364804Y-141187643D01*
X108364806Y-141187650D01*
X108398782Y-141283767D01*
X108398784Y-141283773D01*
X108420504Y-141325215D01*
X108441311Y-141364916D01*
X108480320Y-141409421D01*
X108493137Y-141424044D01*
X108496013Y-141432524D01*
X108494736Y-141437121D01*
X108021241Y-142354806D01*
X108014402Y-142360587D01*
X108005478Y-142359839D01*
X108000445Y-142354805D01*
X107527409Y-141437774D01*
X107526662Y-141428850D01*
X107529734Y-141423942D01*
X107571350Y-141384287D01*
X107621655Y-141325215D01*
X107668991Y-141254313D01*
X107708044Y-141173123D01*
X107733500Y-141083187D01*
X107740043Y-140986048D01*
X107722361Y-140883247D01*
X107679346Y-140785856D01*
X107679140Y-140776906D01*
X107684119Y-140771047D01*
X108102469Y-140525105D01*
X108111337Y-140523867D01*
X108118484Y-140529263D01*
G37*
%TD.AperFunction*%
%TD*%
%TA.AperFunction,Conductor*%
%TO.N,MOTOR2_DRIVER*%
G36*
X106040889Y-139909715D02*
G01*
X106055256Y-139921152D01*
X106055257Y-139921152D01*
X106055258Y-139921153D01*
X106086242Y-139935346D01*
X106126996Y-139947519D01*
X106176595Y-139957613D01*
X106234119Y-139965567D01*
X106298643Y-139971323D01*
X106369244Y-139974820D01*
X106433483Y-139975820D01*
X106441701Y-139979376D01*
X106445000Y-139987519D01*
X106445000Y-140472480D01*
X106441573Y-140480753D01*
X106433482Y-140484179D01*
X106369241Y-140485179D01*
X106298641Y-140488676D01*
X106255627Y-140492513D01*
X106234119Y-140494432D01*
X106201577Y-140498931D01*
X106176587Y-140502387D01*
X106176576Y-140502389D01*
X106127002Y-140512478D01*
X106126995Y-140512480D01*
X106086238Y-140524654D01*
X106055262Y-140538844D01*
X106055258Y-140538846D01*
X106040889Y-140550285D01*
X106032283Y-140552756D01*
X106028239Y-140551529D01*
X105425155Y-140240398D01*
X105419374Y-140233559D01*
X105420121Y-140224636D01*
X105425155Y-140219602D01*
X105875015Y-139987519D01*
X106028239Y-139908470D01*
X106037161Y-139907724D01*
X106040889Y-139909715D01*
G37*
%TD.AperFunction*%
%TD*%
%TA.AperFunction,Conductor*%
%TO.N,+5V_HOME*%
G36*
X114085981Y-134046678D02*
G01*
X114089954Y-134047947D01*
X114096793Y-134053728D01*
X114098095Y-134059005D01*
X114098383Y-134098012D01*
X114106783Y-134150714D01*
X114106783Y-134150715D01*
X114123795Y-134208142D01*
X114123797Y-134208146D01*
X114123798Y-134208150D01*
X114149995Y-134269816D01*
X114185939Y-134335207D01*
X114185951Y-134335225D01*
X114185953Y-134335228D01*
X114232190Y-134403810D01*
X114232198Y-134403821D01*
X114289337Y-134475158D01*
X114350219Y-134540451D01*
X114353355Y-134548838D01*
X114349935Y-134556702D01*
X114006702Y-134899935D01*
X113998429Y-134903362D01*
X113990451Y-134900219D01*
X113925158Y-134839337D01*
X113853821Y-134782198D01*
X113853810Y-134782190D01*
X113785228Y-134735953D01*
X113785225Y-134735951D01*
X113785207Y-134735939D01*
X113719816Y-134699995D01*
X113658150Y-134673798D01*
X113658146Y-134673797D01*
X113658142Y-134673795D01*
X113600714Y-134656783D01*
X113548011Y-134648383D01*
X113548013Y-134648383D01*
X113509005Y-134648095D01*
X113500758Y-134644607D01*
X113497947Y-134639954D01*
X113466171Y-134540450D01*
X113227089Y-133791791D01*
X113227836Y-133782870D01*
X113234675Y-133777089D01*
X113241791Y-133777089D01*
X114085981Y-134046678D01*
G37*
%TD.AperFunction*%
%TD*%
%TA.AperFunction,Conductor*%
%TO.N,LATCH_U1*%
G36*
X120020969Y-122483340D02*
G01*
X120083338Y-122542983D01*
X120156479Y-122607987D01*
X120231334Y-122671334D01*
X120307011Y-122733821D01*
X120307012Y-122733822D01*
X120382694Y-122796315D01*
X120382802Y-122796406D01*
X120457436Y-122859566D01*
X120457639Y-122859742D01*
X120530543Y-122924535D01*
X120530822Y-122924793D01*
X120592676Y-122983943D01*
X120596287Y-122992137D01*
X120593046Y-123000484D01*
X120592863Y-123000671D01*
X120250571Y-123342963D01*
X120242298Y-123346390D01*
X120234025Y-123342963D01*
X120233882Y-123342817D01*
X120174693Y-123280922D01*
X120174435Y-123280643D01*
X120109642Y-123207739D01*
X120109466Y-123207536D01*
X120046290Y-123132882D01*
X120046199Y-123132774D01*
X119983722Y-123057112D01*
X119983721Y-123057111D01*
X119930133Y-122992212D01*
X119921230Y-122981429D01*
X119900118Y-122956482D01*
X119857887Y-122906579D01*
X119792883Y-122833438D01*
X119733240Y-122771069D01*
X119729999Y-122762722D01*
X119733422Y-122754711D01*
X120004611Y-122483522D01*
X120012883Y-122480096D01*
X120020969Y-122483340D01*
G37*
%TD.AperFunction*%
%TD*%
%TA.AperFunction,Conductor*%
%TO.N,+5V_CHAIN*%
G36*
X112492748Y-102555970D02*
G01*
X112534554Y-102595199D01*
X112587151Y-102639658D01*
X112641431Y-102682432D01*
X112696554Y-102724365D01*
X112751584Y-102766227D01*
X112751742Y-102766349D01*
X112805800Y-102808949D01*
X112806111Y-102809203D01*
X112858326Y-102853338D01*
X112858779Y-102853742D01*
X112899816Y-102892249D01*
X112903504Y-102900409D01*
X112900342Y-102908787D01*
X112900083Y-102909054D01*
X112557954Y-103251183D01*
X112549681Y-103254610D01*
X112541408Y-103251183D01*
X112541149Y-103250916D01*
X112502642Y-103209879D01*
X112502238Y-103209426D01*
X112458103Y-103157211D01*
X112457849Y-103156900D01*
X112415249Y-103102842D01*
X112415127Y-103102684D01*
X112373265Y-103047654D01*
X112331332Y-102992531D01*
X112288558Y-102938251D01*
X112244099Y-102885654D01*
X112204870Y-102843848D01*
X112201708Y-102835470D01*
X112205128Y-102827570D01*
X112476470Y-102556228D01*
X112484742Y-102552802D01*
X112492748Y-102555970D01*
G37*
%TD.AperFunction*%
%TD*%
%TA.AperFunction,Conductor*%
%TO.N,UPDI_PROG*%
G36*
X138288972Y-112316685D02*
G01*
X138341648Y-112366693D01*
X138405114Y-112422022D01*
X138470279Y-112475680D01*
X138536268Y-112528481D01*
X138536270Y-112528482D01*
X138536273Y-112528484D01*
X138602269Y-112581291D01*
X138610592Y-112588144D01*
X138667303Y-112634840D01*
X138667554Y-112635053D01*
X138730709Y-112690110D01*
X138731076Y-112690444D01*
X138762856Y-112720614D01*
X138783132Y-112739862D01*
X138786773Y-112748043D01*
X138783562Y-112756402D01*
X138783350Y-112756620D01*
X138441120Y-113098850D01*
X138432847Y-113102277D01*
X138424574Y-113098850D01*
X138424362Y-113098632D01*
X138374944Y-113046576D01*
X138374610Y-113046209D01*
X138319553Y-112983054D01*
X138319340Y-112982803D01*
X138291479Y-112948967D01*
X138265791Y-112917769D01*
X138212984Y-112851773D01*
X138212981Y-112851769D01*
X138160180Y-112785779D01*
X138106522Y-112720614D01*
X138051193Y-112657148D01*
X138001185Y-112604472D01*
X137997974Y-112596113D01*
X138001396Y-112588145D01*
X138272645Y-112316896D01*
X138280917Y-112313470D01*
X138288972Y-112316685D01*
G37*
%TD.AperFunction*%
%TD*%
%TA.AperFunction,Conductor*%
%TO.N,DATA_OUT_CHAIN*%
G36*
X103260889Y-110339715D02*
G01*
X103275256Y-110351152D01*
X103275257Y-110351152D01*
X103275258Y-110351153D01*
X103306242Y-110365346D01*
X103346996Y-110377519D01*
X103396595Y-110387613D01*
X103454119Y-110395567D01*
X103518643Y-110401323D01*
X103589244Y-110404820D01*
X103653483Y-110405820D01*
X103661701Y-110409376D01*
X103665000Y-110417519D01*
X103665000Y-110902480D01*
X103661573Y-110910753D01*
X103653482Y-110914179D01*
X103589241Y-110915179D01*
X103518641Y-110918676D01*
X103475627Y-110922513D01*
X103454119Y-110924432D01*
X103421577Y-110928931D01*
X103396587Y-110932387D01*
X103396576Y-110932389D01*
X103347002Y-110942478D01*
X103346995Y-110942480D01*
X103306238Y-110954654D01*
X103275262Y-110968844D01*
X103275258Y-110968846D01*
X103260889Y-110980285D01*
X103252283Y-110982756D01*
X103248239Y-110981529D01*
X102645155Y-110670398D01*
X102639374Y-110663559D01*
X102640121Y-110654636D01*
X102645155Y-110649602D01*
X103095015Y-110417519D01*
X103248239Y-110338470D01*
X103257161Y-110337724D01*
X103260889Y-110339715D01*
G37*
%TD.AperFunction*%
%TD*%
%TA.AperFunction,Conductor*%
%TO.N,GND_U1*%
G36*
X131124389Y-135234250D02*
G01*
X131467601Y-135577462D01*
X131471028Y-135585735D01*
X131467702Y-135593906D01*
X131392477Y-135670992D01*
X131319456Y-135750399D01*
X131319447Y-135750409D01*
X131256517Y-135824343D01*
X131222716Y-135868294D01*
X131203511Y-135893268D01*
X131160248Y-135957663D01*
X131160236Y-135957682D01*
X131126568Y-136017972D01*
X131126563Y-136017983D01*
X131102273Y-136074715D01*
X131089524Y-136120078D01*
X131083986Y-136127115D01*
X131078641Y-136128606D01*
X130188843Y-136157592D01*
X130180463Y-136154436D01*
X130176768Y-136146279D01*
X130178711Y-136139433D01*
X130670977Y-135397268D01*
X130678405Y-135392270D01*
X130683555Y-135392384D01*
X130714624Y-135400136D01*
X130714629Y-135400136D01*
X130714634Y-135400137D01*
X130736151Y-135401387D01*
X130760666Y-135402813D01*
X130812479Y-135397634D01*
X130868877Y-135383812D01*
X130928672Y-135360565D01*
X130990677Y-135327108D01*
X131053703Y-135282655D01*
X131108316Y-135233802D01*
X131116766Y-135230841D01*
X131124389Y-135234250D01*
G37*
%TD.AperFunction*%
%TD*%
%TA.AperFunction,Conductor*%
%TO.N,HOME*%
G36*
X106384130Y-146215277D02*
G01*
X106384177Y-146215279D01*
X106384471Y-146215289D01*
X106384479Y-146215290D01*
X106496707Y-146221031D01*
X106496788Y-146221035D01*
X106496900Y-146221043D01*
X106496942Y-146221046D01*
X106496947Y-146221046D01*
X106609314Y-146229173D01*
X106721814Y-146238500D01*
X106834314Y-146247826D01*
X106946814Y-146255962D01*
X107059314Y-146261717D01*
X107158018Y-146263631D01*
X107162468Y-146264606D01*
X107164168Y-146265350D01*
X107170330Y-146271693D01*
X107170966Y-146273272D01*
X107171814Y-146277642D01*
X107171814Y-146656496D01*
X107170921Y-146660978D01*
X107170213Y-146662685D01*
X107163988Y-146668968D01*
X107162428Y-146669632D01*
X107158073Y-146670565D01*
X107069392Y-146672285D01*
X107069392Y-146672286D01*
X107059314Y-146672482D01*
X106946814Y-146678237D01*
X106852218Y-146685078D01*
X106852218Y-146685077D01*
X106834323Y-146686371D01*
X106721814Y-146695700D01*
X106609437Y-146705015D01*
X106609304Y-146705025D01*
X106609243Y-146705029D01*
X106609244Y-146705030D01*
X106496928Y-146713153D01*
X106496682Y-146713168D01*
X106384583Y-146718902D01*
X106384379Y-146718910D01*
X106384201Y-146718916D01*
X106384034Y-146718921D01*
X106286067Y-146720822D01*
X106281575Y-146720019D01*
X106279917Y-146719370D01*
X106273462Y-146713163D01*
X106273462Y-146713162D01*
X106272794Y-146711634D01*
X106271814Y-146706947D01*
X106271814Y-146227356D01*
X106272703Y-146222883D01*
X106272737Y-146222798D01*
X106273385Y-146221235D01*
X106279710Y-146214904D01*
X106281264Y-146214260D01*
X106285960Y-146213373D01*
X106384130Y-146215277D01*
G37*
%TD.AperFunction*%
%TD*%
%TA.AperFunction,Conductor*%
%TO.N,MOTOR2_U1*%
G36*
X130215033Y-132521107D02*
G01*
X130280237Y-132558420D01*
X130322223Y-132582447D01*
X130428884Y-132637210D01*
X130526529Y-132680490D01*
X130616627Y-132713079D01*
X130616642Y-132713083D01*
X130616654Y-132713087D01*
X130671340Y-132727853D01*
X130700641Y-132735766D01*
X130780037Y-132749339D01*
X130856280Y-132754590D01*
X130922020Y-132752577D01*
X130930392Y-132755750D01*
X130933521Y-132760713D01*
X131247405Y-133743599D01*
X131246658Y-133752522D01*
X131239819Y-133758303D01*
X131232701Y-133758303D01*
X130250110Y-133444516D01*
X130243271Y-133438735D01*
X130241993Y-133432622D01*
X130245569Y-133376848D01*
X130246359Y-133305547D01*
X130240496Y-133229999D01*
X130224701Y-133152366D01*
X130224699Y-133152362D01*
X130224699Y-133152359D01*
X130195694Y-133074816D01*
X130195690Y-133074808D01*
X130150192Y-132999500D01*
X130084917Y-132928594D01*
X130084915Y-132928592D01*
X130005217Y-132870541D01*
X130000548Y-132862900D01*
X130002063Y-132855082D01*
X130199183Y-132525260D01*
X130206368Y-132519917D01*
X130215033Y-132521107D01*
G37*
%TD.AperFunction*%
%TD*%
%TA.AperFunction,Conductor*%
%TO.N,GND*%
G36*
X145076145Y-118518115D02*
G01*
X145419383Y-118861353D01*
X145422810Y-118869626D01*
X145419670Y-118877602D01*
X145356469Y-118945431D01*
X145356463Y-118945438D01*
X145297572Y-119019161D01*
X145297559Y-119019179D01*
X145250010Y-119090103D01*
X145250003Y-119090114D01*
X145213165Y-119157773D01*
X145186429Y-119221661D01*
X145169160Y-119281301D01*
X145169157Y-119281311D01*
X145160723Y-119336241D01*
X145160722Y-119336251D01*
X145160533Y-119377497D01*
X145157068Y-119385754D01*
X145152392Y-119388588D01*
X144620838Y-119558337D01*
X144620838Y-119558338D01*
X144620837Y-119558339D01*
X144265771Y-119671729D01*
X144548912Y-118785104D01*
X144554692Y-118778267D01*
X144559998Y-118776965D01*
X144601251Y-118776776D01*
X144610564Y-118775345D01*
X144656187Y-118768341D01*
X144656189Y-118768340D01*
X144656191Y-118768340D01*
X144715842Y-118751068D01*
X144779731Y-118724330D01*
X144847381Y-118687497D01*
X144918320Y-118639938D01*
X144918329Y-118639930D01*
X144918337Y-118639925D01*
X144992059Y-118581034D01*
X144992066Y-118581028D01*
X144992070Y-118581025D01*
X145059896Y-118517827D01*
X145068285Y-118514695D01*
X145076145Y-118518115D01*
G37*
%TD.AperFunction*%
%TD*%
%TA.AperFunction,Conductor*%
%TO.N,+5V_HOME*%
G36*
X121504719Y-134694943D02*
G01*
X121508885Y-134700715D01*
X121537769Y-134789028D01*
X121537769Y-134789027D01*
X121594111Y-134961287D01*
X121594111Y-134961291D01*
X121785713Y-135547089D01*
X121785028Y-135556017D01*
X121781655Y-135560055D01*
X121753023Y-135581727D01*
X121753020Y-135581730D01*
X121718838Y-135618493D01*
X121718833Y-135618500D01*
X121686851Y-135665149D01*
X121686848Y-135665154D01*
X121658193Y-135721475D01*
X121658190Y-135721482D01*
X121633966Y-135787298D01*
X121633961Y-135787313D01*
X121615284Y-135862429D01*
X121615282Y-135862439D01*
X121603254Y-135946710D01*
X121600263Y-136012227D01*
X121599524Y-136028437D01*
X121599510Y-136028734D01*
X121595709Y-136036842D01*
X121587822Y-136039900D01*
X121102465Y-136039900D01*
X121094192Y-136036473D01*
X121090767Y-136028438D01*
X121088698Y-135926400D01*
X121081888Y-135823704D01*
X121071917Y-135741533D01*
X121070707Y-135731559D01*
X121055295Y-135649711D01*
X121035792Y-135577909D01*
X121012336Y-135515900D01*
X120985067Y-135463430D01*
X120954125Y-135420247D01*
X121488357Y-134697397D01*
X121496029Y-134692782D01*
X121504719Y-134694943D01*
G37*
%TD.AperFunction*%
%TD*%
%TA.AperFunction,Conductor*%
%TO.N,MOTOR4*%
G36*
X120854600Y-131396297D02*
G01*
X120858187Y-131404502D01*
X120858189Y-131404729D01*
X120858189Y-131888870D01*
X120854762Y-131897143D01*
X120846489Y-131900570D01*
X120846262Y-131900568D01*
X120745877Y-131898620D01*
X120745506Y-131898607D01*
X120633320Y-131892868D01*
X120633074Y-131892853D01*
X120520707Y-131884727D01*
X120520584Y-131884717D01*
X120408189Y-131875400D01*
X120295731Y-131866076D01*
X120289608Y-131865633D01*
X120183189Y-131857937D01*
X120070689Y-131852182D01*
X120057682Y-131851929D01*
X119969662Y-131850222D01*
X119961457Y-131846635D01*
X119958189Y-131838524D01*
X119958189Y-131455075D01*
X119961616Y-131446802D01*
X119969661Y-131443377D01*
X120070689Y-131441417D01*
X120183189Y-131435662D01*
X120295689Y-131427526D01*
X120408189Y-131418200D01*
X120520689Y-131408873D01*
X120633101Y-131400743D01*
X120633289Y-131400731D01*
X120745528Y-131394990D01*
X120745854Y-131394978D01*
X120846262Y-131393031D01*
X120854600Y-131396297D01*
G37*
%TD.AperFunction*%
%TD*%
%TA.AperFunction,Conductor*%
%TO.N,+5V_MAIN*%
G36*
X125140181Y-134730312D02*
G01*
X125143991Y-134734441D01*
X125169315Y-134780502D01*
X125169320Y-134780509D01*
X125169325Y-134780517D01*
X125201781Y-134826402D01*
X125208275Y-134835583D01*
X125256596Y-134893485D01*
X125314160Y-134955571D01*
X125380847Y-135023199D01*
X125454102Y-135095332D01*
X125456525Y-135097718D01*
X125541112Y-135180524D01*
X125541159Y-135180571D01*
X125626096Y-135264669D01*
X125629564Y-135272925D01*
X125626178Y-135281215D01*
X125282915Y-135624478D01*
X125274642Y-135627905D01*
X125267014Y-135625077D01*
X125248820Y-135609435D01*
X125224218Y-135588282D01*
X125171711Y-135555578D01*
X125171709Y-135555577D01*
X125171708Y-135555576D01*
X125119253Y-135533085D01*
X125068371Y-135519848D01*
X125020597Y-135514913D01*
X125020593Y-135514913D01*
X124977459Y-135517325D01*
X124940506Y-135526129D01*
X124940498Y-135526132D01*
X124918460Y-135536860D01*
X124909521Y-135537400D01*
X124905363Y-135534899D01*
X124801792Y-135438369D01*
X124604351Y-135254347D01*
X124604350Y-135254347D01*
X124253707Y-134927538D01*
X124249992Y-134919392D01*
X124253126Y-134911004D01*
X124259332Y-134907520D01*
X125131388Y-134728618D01*
X125140181Y-134730312D01*
G37*
%TD.AperFunction*%
%TD*%
%TA.AperFunction,Conductor*%
%TO.N,+5V_MAIN_TOP*%
G36*
X134185981Y-105046678D02*
G01*
X134189954Y-105047947D01*
X134196793Y-105053728D01*
X134198095Y-105059005D01*
X134198383Y-105098012D01*
X134206783Y-105150714D01*
X134206783Y-105150715D01*
X134223795Y-105208142D01*
X134223797Y-105208146D01*
X134223798Y-105208150D01*
X134249995Y-105269816D01*
X134285939Y-105335207D01*
X134285951Y-105335225D01*
X134285953Y-105335228D01*
X134332190Y-105403810D01*
X134332198Y-105403821D01*
X134389337Y-105475158D01*
X134450219Y-105540451D01*
X134453355Y-105548838D01*
X134449935Y-105556702D01*
X134106702Y-105899935D01*
X134098429Y-105903362D01*
X134090451Y-105900219D01*
X134025158Y-105839337D01*
X133953821Y-105782198D01*
X133953810Y-105782190D01*
X133885228Y-105735953D01*
X133885225Y-105735951D01*
X133885207Y-105735939D01*
X133819816Y-105699995D01*
X133758150Y-105673798D01*
X133758146Y-105673797D01*
X133758142Y-105673795D01*
X133700714Y-105656783D01*
X133648011Y-105648383D01*
X133648013Y-105648383D01*
X133609005Y-105648095D01*
X133600758Y-105644607D01*
X133597947Y-105639954D01*
X133566171Y-105540450D01*
X133327089Y-104791791D01*
X133327836Y-104782870D01*
X133334675Y-104777089D01*
X133341791Y-104777089D01*
X134185981Y-105046678D01*
G37*
%TD.AperFunction*%
%TD*%
%TA.AperFunction,Conductor*%
%TO.N,LATCH_U1*%
G36*
X118393890Y-120785104D02*
G01*
X118394049Y-120785266D01*
X118432518Y-120825256D01*
X118463669Y-120857640D01*
X118463886Y-120857873D01*
X118497520Y-120895133D01*
X118539194Y-120941302D01*
X118539357Y-120941487D01*
X118613063Y-121026684D01*
X118613143Y-121026778D01*
X118686017Y-121112828D01*
X118758931Y-121198925D01*
X118771874Y-121213886D01*
X118832768Y-121284275D01*
X118837299Y-121289294D01*
X118908255Y-121367901D01*
X118978299Y-121440717D01*
X118981565Y-121449055D01*
X118978140Y-121457101D01*
X118707001Y-121728240D01*
X118698728Y-121731667D01*
X118690617Y-121728399D01*
X118617801Y-121658355D01*
X118589921Y-121633188D01*
X118534175Y-121582868D01*
X118448872Y-121509072D01*
X118448825Y-121509031D01*
X118362728Y-121436117D01*
X118276656Y-121363224D01*
X118276562Y-121363144D01*
X118191387Y-121289457D01*
X118191202Y-121289294D01*
X118145033Y-121247620D01*
X118107773Y-121213986D01*
X118107540Y-121213769D01*
X118075156Y-121182618D01*
X118035166Y-121144149D01*
X118031579Y-121135944D01*
X118034845Y-121127606D01*
X118034951Y-121127498D01*
X118377345Y-120785103D01*
X118385617Y-120781677D01*
X118393890Y-120785104D01*
G37*
%TD.AperFunction*%
%TD*%
%TA.AperFunction,Conductor*%
%TO.N,DATA_OUT_U1*%
G36*
X131677537Y-119508517D02*
G01*
X132594538Y-119981659D01*
X132600318Y-119988497D01*
X132599570Y-119997421D01*
X132594536Y-120002454D01*
X131677489Y-120475498D01*
X131668565Y-120476245D01*
X131663671Y-120473188D01*
X131627568Y-120435454D01*
X131627560Y-120435446D01*
X131576661Y-120393022D01*
X131516343Y-120353542D01*
X131481173Y-120335946D01*
X131445922Y-120318310D01*
X131364727Y-120288634D01*
X131272076Y-120265819D01*
X131272071Y-120265818D01*
X131272062Y-120265816D01*
X131167306Y-120251173D01*
X131167297Y-120251172D01*
X131167293Y-120251172D01*
X131060885Y-120246491D01*
X131052771Y-120242705D01*
X131049700Y-120234803D01*
X131049700Y-119749197D01*
X131053127Y-119740924D01*
X131060885Y-119737508D01*
X131167300Y-119732828D01*
X131167303Y-119732827D01*
X131167310Y-119732827D01*
X131272076Y-119718184D01*
X131272077Y-119718183D01*
X131272090Y-119718182D01*
X131364747Y-119695370D01*
X131445949Y-119665696D01*
X131516374Y-119630467D01*
X131576701Y-119590989D01*
X131627606Y-119548567D01*
X131663723Y-119510826D01*
X131671918Y-119507219D01*
X131677537Y-119508517D01*
G37*
%TD.AperFunction*%
%TD*%
%TA.AperFunction,Conductor*%
%TO.N,HOME*%
G36*
X105056891Y-146214253D02*
G01*
X105058559Y-146214892D01*
X105065058Y-146221047D01*
X105065722Y-146222537D01*
X105066738Y-146227303D01*
X105066738Y-146706752D01*
X105065847Y-146711231D01*
X105065165Y-146712877D01*
X105058834Y-146719207D01*
X105057330Y-146719830D01*
X105052537Y-146720717D01*
X104985994Y-146718925D01*
X104985770Y-146718917D01*
X104985620Y-146718910D01*
X104985535Y-146718905D01*
X104985264Y-146718890D01*
X104904769Y-146713179D01*
X104904638Y-146713169D01*
X104904480Y-146713156D01*
X104904271Y-146713137D01*
X104823474Y-146705032D01*
X104823461Y-146705030D01*
X104823392Y-146705023D01*
X104823392Y-146705015D01*
X104823236Y-146705006D01*
X104742295Y-146695700D01*
X104661353Y-146686392D01*
X104661282Y-146686383D01*
X104661197Y-146686374D01*
X104661184Y-146686373D01*
X104621180Y-146682360D01*
X104580065Y-146678235D01*
X104512373Y-146673433D01*
X104512373Y-146673432D01*
X104499849Y-146672544D01*
X104498962Y-146672482D01*
X104487595Y-146672176D01*
X104431561Y-146670668D01*
X104427110Y-146669657D01*
X104425400Y-146668894D01*
X104419299Y-146662541D01*
X104418683Y-146660995D01*
X104417852Y-146656664D01*
X104417852Y-146277616D01*
X104418742Y-146273141D01*
X104419459Y-146271409D01*
X104425640Y-146265139D01*
X104427175Y-146264479D01*
X104431474Y-146263532D01*
X104498962Y-146261717D01*
X104580073Y-146255962D01*
X104661061Y-146247838D01*
X104661091Y-146247836D01*
X104661128Y-146247832D01*
X104661205Y-146247824D01*
X104661236Y-146247820D01*
X104661245Y-146247819D01*
X104661246Y-146247819D01*
X104742295Y-146238500D01*
X104823276Y-146229187D01*
X104823276Y-146229188D01*
X104823455Y-146229167D01*
X104904357Y-146221052D01*
X104904654Y-146221026D01*
X104985256Y-146215307D01*
X104985461Y-146215294D01*
X104985838Y-146215277D01*
X104985913Y-146215274D01*
X105052399Y-146213485D01*
X105056891Y-146214253D01*
G37*
%TD.AperFunction*%
%TD*%
%TA.AperFunction,Conductor*%
%TO.N,HOME*%
G36*
X115939589Y-133101490D02*
G01*
X115966230Y-133125775D01*
X115966241Y-133125783D01*
X115966246Y-133125788D01*
X115982712Y-133138672D01*
X116003652Y-133155058D01*
X116003674Y-133155073D01*
X116003688Y-133155084D01*
X116024278Y-133169615D01*
X116042757Y-133182658D01*
X116082705Y-133209416D01*
X116122545Y-133236102D01*
X116122780Y-133236264D01*
X116140435Y-133248724D01*
X116161533Y-133263614D01*
X116161975Y-133263943D01*
X116197373Y-133291642D01*
X116198826Y-133292780D01*
X116199498Y-133293347D01*
X116225019Y-133316611D01*
X116228824Y-133324717D01*
X116225784Y-133333140D01*
X116225410Y-133333531D01*
X115883531Y-133675410D01*
X115875258Y-133678837D01*
X115866985Y-133675410D01*
X115866611Y-133675019D01*
X115843347Y-133649498D01*
X115842780Y-133648826D01*
X115813951Y-133611986D01*
X115813606Y-133611522D01*
X115786264Y-133572780D01*
X115786102Y-133572545D01*
X115759416Y-133532705D01*
X115732658Y-133492757D01*
X115719615Y-133474278D01*
X115705084Y-133453688D01*
X115705073Y-133453674D01*
X115705058Y-133453652D01*
X115675775Y-133416230D01*
X115651490Y-133389589D01*
X115648450Y-133381166D01*
X115651863Y-133373435D01*
X115923435Y-133101863D01*
X115931707Y-133098437D01*
X115939589Y-133101490D01*
G37*
%TD.AperFunction*%
%TD*%
%TA.AperFunction,Conductor*%
%TO.N,MOTOR3_DRIVER*%
G36*
X101988996Y-142429493D02*
G01*
X102575074Y-142771572D01*
X102580492Y-142778701D01*
X102579281Y-142787574D01*
X102573992Y-142792339D01*
X101955473Y-143071708D01*
X101946523Y-143071990D01*
X101942983Y-143069877D01*
X101929114Y-143057827D01*
X101929113Y-143057826D01*
X101898610Y-143042683D01*
X101898608Y-143042682D01*
X101898607Y-143042681D01*
X101858119Y-143029500D01*
X101858110Y-143029498D01*
X101821208Y-143021232D01*
X101808610Y-143018411D01*
X101802785Y-143017514D01*
X101777579Y-143013632D01*
X101777576Y-143013632D01*
X101751075Y-143009552D01*
X101686491Y-143003057D01*
X101615840Y-142999061D01*
X101540103Y-142997700D01*
X101540103Y-142489700D01*
X101621451Y-142488867D01*
X101697254Y-142486272D01*
X101766562Y-142481773D01*
X101828426Y-142475225D01*
X101881897Y-142466485D01*
X101926024Y-142455409D01*
X101959860Y-142441853D01*
X101959860Y-142441852D01*
X101959862Y-142441852D01*
X101966648Y-142436992D01*
X101976291Y-142430087D01*
X101985012Y-142428057D01*
X101988996Y-142429493D01*
G37*
%TD.AperFunction*%
%TD*%
%TA.AperFunction,Conductor*%
%TO.N,+5V_UPDI*%
G36*
X130700974Y-103973427D02*
G01*
X130704394Y-103981291D01*
X130707513Y-104070511D01*
X130707513Y-104070513D01*
X130717548Y-104161339D01*
X130733359Y-104242584D01*
X130733360Y-104242587D01*
X130754181Y-104314239D01*
X130779256Y-104376354D01*
X130779267Y-104376378D01*
X130807835Y-104428998D01*
X130807844Y-104429013D01*
X130839173Y-104472220D01*
X130839175Y-104472223D01*
X130866547Y-104500002D01*
X130869913Y-104508300D01*
X130868611Y-104513578D01*
X130617668Y-104999998D01*
X130450000Y-105324999D01*
X130031386Y-104513578D01*
X130030640Y-104504656D01*
X130033449Y-104500006D01*
X130060823Y-104472224D01*
X130092154Y-104429014D01*
X130120737Y-104376367D01*
X130145817Y-104314239D01*
X130166638Y-104242584D01*
X130182446Y-104161356D01*
X130192484Y-104070509D01*
X130195604Y-103981290D01*
X130199318Y-103973143D01*
X130207297Y-103970000D01*
X130692701Y-103970000D01*
X130700974Y-103973427D01*
G37*
%TD.AperFunction*%
%TD*%
%TA.AperFunction,Conductor*%
%TO.N,HOME*%
G36*
X123269763Y-144442586D02*
G01*
X123270120Y-144442928D01*
X123612069Y-144784877D01*
X123615496Y-144793150D01*
X123612069Y-144801423D01*
X123611712Y-144801765D01*
X123582962Y-144828182D01*
X123582351Y-144828706D01*
X123542323Y-144860703D01*
X123541902Y-144861025D01*
X123499965Y-144891540D01*
X123499751Y-144891692D01*
X123456775Y-144921512D01*
X123413690Y-144951406D01*
X123371433Y-144982154D01*
X123330895Y-145014559D01*
X123330879Y-145014572D01*
X123301109Y-145041927D01*
X123292698Y-145045002D01*
X123284920Y-145041585D01*
X123013412Y-144770077D01*
X123009985Y-144761804D01*
X123013069Y-144753889D01*
X123040430Y-144724113D01*
X123072852Y-144683553D01*
X123103590Y-144641309D01*
X123133486Y-144598223D01*
X123163382Y-144555137D01*
X123193992Y-144513067D01*
X123194270Y-144512704D01*
X123226302Y-144472632D01*
X123226803Y-144472048D01*
X123253232Y-144443284D01*
X123261353Y-144439511D01*
X123269763Y-144442586D01*
G37*
%TD.AperFunction*%
%TD*%
%TA.AperFunction,Conductor*%
%TO.N,GND_U1*%
G36*
X130553395Y-116746230D02*
G01*
X130653832Y-116748178D01*
X130654162Y-116748190D01*
X130766393Y-116753931D01*
X130766592Y-116753943D01*
X130879000Y-116762073D01*
X130991500Y-116771400D01*
X131104000Y-116780726D01*
X131216500Y-116788862D01*
X131329000Y-116794617D01*
X131430027Y-116796577D01*
X131438232Y-116800164D01*
X131441500Y-116808275D01*
X131441500Y-117191724D01*
X131438073Y-117199997D01*
X131430027Y-117203422D01*
X131339078Y-117205186D01*
X131329000Y-117205382D01*
X131216500Y-117211137D01*
X131121904Y-117217978D01*
X131103957Y-117219276D01*
X130991500Y-117228600D01*
X130879104Y-117237917D01*
X130878981Y-117237927D01*
X130766614Y-117246053D01*
X130766368Y-117246068D01*
X130654182Y-117251807D01*
X130653811Y-117251820D01*
X130553427Y-117253768D01*
X130545089Y-117250502D01*
X130541502Y-117242297D01*
X130541500Y-117242070D01*
X130541500Y-116757929D01*
X130544927Y-116749656D01*
X130553200Y-116746229D01*
X130553395Y-116746230D01*
G37*
%TD.AperFunction*%
%TD*%
%TA.AperFunction,Conductor*%
%TO.N,+5V_MAIN_TOP*%
G36*
X117049995Y-104583450D02*
G01*
X117077776Y-104610823D01*
X117120986Y-104642154D01*
X117120993Y-104642157D01*
X117121000Y-104642162D01*
X117173620Y-104670730D01*
X117173633Y-104670737D01*
X117235761Y-104695817D01*
X117307416Y-104716639D01*
X117388644Y-104732447D01*
X117388654Y-104732448D01*
X117388659Y-104732449D01*
X117423208Y-104736266D01*
X117479490Y-104742485D01*
X117568709Y-104745605D01*
X117576857Y-104749319D01*
X117580000Y-104757298D01*
X117580000Y-105242701D01*
X117576573Y-105250974D01*
X117568709Y-105254394D01*
X117479487Y-105257514D01*
X117479485Y-105257514D01*
X117388659Y-105267549D01*
X117307414Y-105283360D01*
X117307411Y-105283361D01*
X117235759Y-105304182D01*
X117173644Y-105329257D01*
X117173620Y-105329268D01*
X117121000Y-105357836D01*
X117120985Y-105357845D01*
X117077778Y-105389174D01*
X117077775Y-105389176D01*
X117049997Y-105416548D01*
X117041699Y-105419914D01*
X117036421Y-105418612D01*
X116245155Y-105010398D01*
X116239374Y-105003559D01*
X116240121Y-104994636D01*
X116245155Y-104989602D01*
X117036422Y-104581386D01*
X117045344Y-104580640D01*
X117049995Y-104583450D01*
G37*
%TD.AperFunction*%
%TD*%
%TA.AperFunction,Conductor*%
%TO.N,DATA_IN_U1*%
G36*
X126925621Y-125489230D02*
G01*
X127026058Y-125491178D01*
X127026388Y-125491190D01*
X127138619Y-125496931D01*
X127138818Y-125496943D01*
X127251226Y-125505073D01*
X127363726Y-125514400D01*
X127476226Y-125523726D01*
X127588726Y-125531862D01*
X127701226Y-125537617D01*
X127802253Y-125539577D01*
X127810458Y-125543164D01*
X127813726Y-125551275D01*
X127813726Y-125934724D01*
X127810299Y-125942997D01*
X127802253Y-125946422D01*
X127711304Y-125948186D01*
X127701226Y-125948382D01*
X127588726Y-125954137D01*
X127494130Y-125960978D01*
X127476183Y-125962276D01*
X127363726Y-125971600D01*
X127251330Y-125980917D01*
X127251207Y-125980927D01*
X127138840Y-125989053D01*
X127138594Y-125989068D01*
X127026408Y-125994807D01*
X127026037Y-125994820D01*
X126925653Y-125996768D01*
X126917315Y-125993502D01*
X126913728Y-125985297D01*
X126913726Y-125985070D01*
X126913726Y-125500929D01*
X126917153Y-125492656D01*
X126925426Y-125489229D01*
X126925621Y-125489230D01*
G37*
%TD.AperFunction*%
%TD*%
%TA.AperFunction,Conductor*%
%TO.N,+5V_MAIN*%
G36*
X124751027Y-133963427D02*
G01*
X124754444Y-133971236D01*
X124756149Y-134014327D01*
X124757863Y-134057634D01*
X124768845Y-134145898D01*
X124768847Y-134145910D01*
X124786044Y-134224777D01*
X124786046Y-134224784D01*
X124808538Y-134294137D01*
X124808541Y-134294145D01*
X124808543Y-134294149D01*
X124824077Y-134328690D01*
X124835438Y-134353951D01*
X124864487Y-134401905D01*
X124865809Y-134404087D01*
X124898757Y-134444496D01*
X124927069Y-134469524D01*
X124930998Y-134477570D01*
X124930099Y-134482840D01*
X124797396Y-134797135D01*
X124797396Y-134797136D01*
X124797397Y-134797135D01*
X124604351Y-135254348D01*
X124583747Y-135303148D01*
X124577372Y-135309437D01*
X124568417Y-135309376D01*
X124563012Y-135304743D01*
X124095321Y-134547128D01*
X124093891Y-134538288D01*
X124096347Y-134533424D01*
X124123481Y-134501393D01*
X124153238Y-134453441D01*
X124179674Y-134395913D01*
X124202330Y-134328676D01*
X124220749Y-134251598D01*
X124234472Y-134164548D01*
X124243041Y-134067392D01*
X124245686Y-133971376D01*
X124249340Y-133963202D01*
X124257382Y-133960000D01*
X124742754Y-133960000D01*
X124751027Y-133963427D01*
G37*
%TD.AperFunction*%
%TD*%
%TA.AperFunction,Conductor*%
%TO.N,DATA_CHAIN_IN*%
G36*
X109707280Y-116054389D02*
G01*
X109714119Y-116060170D01*
X109715419Y-116065323D01*
X109716595Y-116130595D01*
X109716597Y-116130610D01*
X109731383Y-116207126D01*
X109758839Y-116287998D01*
X109758844Y-116288011D01*
X109798152Y-116374668D01*
X109798159Y-116374683D01*
X109832179Y-116438127D01*
X109848534Y-116468628D01*
X109897373Y-116551342D01*
X109909186Y-116571348D01*
X109979253Y-116684209D01*
X110051794Y-116798973D01*
X110053318Y-116807797D01*
X110048159Y-116815112D01*
X109637959Y-117074585D01*
X109629135Y-117076111D01*
X109622266Y-117071612D01*
X109556560Y-116981938D01*
X109556559Y-116981936D01*
X109479548Y-116903587D01*
X109459073Y-116888166D01*
X109399657Y-116843415D01*
X109318854Y-116799453D01*
X109318853Y-116799452D01*
X109270011Y-116781251D01*
X109239101Y-116769733D01*
X109239099Y-116769732D01*
X109239095Y-116769731D01*
X109162371Y-116752290D01*
X109162369Y-116752289D01*
X109090629Y-116745159D01*
X109034554Y-116746208D01*
X109026218Y-116742936D01*
X109023190Y-116738069D01*
X108709270Y-115755078D01*
X108710017Y-115746157D01*
X108716856Y-115740376D01*
X108723973Y-115740376D01*
X109707280Y-116054389D01*
G37*
%TD.AperFunction*%
%TD*%
%TA.AperFunction,Conductor*%
%TO.N,HOME*%
G36*
X112385804Y-134961868D02*
G01*
X112389229Y-134969907D01*
X112391182Y-135067716D01*
X112396936Y-135176974D01*
X112405072Y-135286244D01*
X112414400Y-135395521D01*
X112423721Y-135504734D01*
X112423731Y-135504860D01*
X112431853Y-135613940D01*
X112431869Y-135614194D01*
X112437606Y-135723135D01*
X112437620Y-135723516D01*
X112439562Y-135820668D01*
X112436301Y-135829008D01*
X112428098Y-135832600D01*
X112427864Y-135832602D01*
X111943736Y-135832602D01*
X111935463Y-135829175D01*
X111932036Y-135820902D01*
X111932038Y-135820668D01*
X111933978Y-135723516D01*
X111933992Y-135723135D01*
X111939737Y-135614061D01*
X111947873Y-135504791D01*
X111957200Y-135395521D01*
X111966526Y-135286251D01*
X111974662Y-135176981D01*
X111980417Y-135067711D01*
X111982371Y-134969907D01*
X111985963Y-134961704D01*
X111994069Y-134958441D01*
X112377531Y-134958441D01*
X112385804Y-134961868D01*
G37*
%TD.AperFunction*%
%TD*%
%TA.AperFunction,Conductor*%
%TO.N,+5V_UPDI*%
G36*
X130617667Y-104999998D02*
G01*
X130617667Y-104999999D01*
X130804625Y-105362392D01*
X130868612Y-105486421D01*
X130869359Y-105495344D01*
X130866548Y-105499997D01*
X130839176Y-105527775D01*
X130839174Y-105527778D01*
X130807845Y-105570985D01*
X130807836Y-105571000D01*
X130779268Y-105623620D01*
X130779257Y-105623644D01*
X130754182Y-105685759D01*
X130733361Y-105757411D01*
X130733360Y-105757414D01*
X130717549Y-105838659D01*
X130707514Y-105929485D01*
X130707514Y-105929487D01*
X130704395Y-106018709D01*
X130700681Y-106026857D01*
X130692702Y-106030000D01*
X130207298Y-106030000D01*
X130199025Y-106026573D01*
X130195605Y-106018709D01*
X130192485Y-105929490D01*
X130182447Y-105838644D01*
X130166639Y-105757416D01*
X130145817Y-105685761D01*
X130120737Y-105623633D01*
X130092154Y-105570986D01*
X130060823Y-105527776D01*
X130033450Y-105499996D01*
X130030085Y-105491699D01*
X130031386Y-105486424D01*
X130450000Y-104675000D01*
X130617667Y-104999998D01*
G37*
%TD.AperFunction*%
%TD*%
%TA.AperFunction,Conductor*%
%TO.N,DATA_OUT_CHAIN*%
G36*
X108106705Y-117994498D02*
G01*
X108185262Y-118066435D01*
X108269695Y-118130158D01*
X108269702Y-118130162D01*
X108269703Y-118130163D01*
X108351349Y-118179543D01*
X108429746Y-118215972D01*
X108504452Y-118240852D01*
X108575021Y-118255587D01*
X108575029Y-118255587D01*
X108575031Y-118255588D01*
X108584528Y-118256450D01*
X108641009Y-118261580D01*
X108693232Y-118260426D01*
X108701576Y-118263669D01*
X108704633Y-118268563D01*
X109018582Y-119251509D01*
X109017835Y-119260433D01*
X109010997Y-119266214D01*
X109003878Y-119266215D01*
X108020904Y-118952352D01*
X108014065Y-118946571D01*
X108012766Y-118940949D01*
X108013915Y-118888726D01*
X108007917Y-118822735D01*
X107993177Y-118752164D01*
X107968292Y-118677457D01*
X107931858Y-118599058D01*
X107931856Y-118599055D01*
X107931852Y-118599047D01*
X107882479Y-118517419D01*
X107882474Y-118517412D01*
X107882473Y-118517410D01*
X107818733Y-118432959D01*
X107746797Y-118354404D01*
X107743738Y-118345989D01*
X107747153Y-118338231D01*
X108090531Y-117994853D01*
X108098803Y-117991427D01*
X108106705Y-117994498D01*
G37*
%TD.AperFunction*%
%TD*%
%TA.AperFunction,Conductor*%
%TO.N,MOTOR1_U1*%
G36*
X128972409Y-128653150D02*
G01*
X128974078Y-128653790D01*
X128980572Y-128659948D01*
X128981236Y-128661437D01*
X128982250Y-128666202D01*
X128982250Y-129145657D01*
X128981359Y-129150136D01*
X128980677Y-129151782D01*
X128974347Y-129158112D01*
X128972841Y-129158736D01*
X128968052Y-129159623D01*
X128900275Y-129157826D01*
X128899993Y-129157815D01*
X128899756Y-129157803D01*
X128899533Y-129157790D01*
X128817734Y-129152075D01*
X128817521Y-129152057D01*
X128817481Y-129152054D01*
X128817365Y-129152044D01*
X128817253Y-129152033D01*
X128735343Y-129143942D01*
X128735251Y-129143893D01*
X128735166Y-129143923D01*
X128735108Y-129143916D01*
X128735108Y-129143917D01*
X128652821Y-129134600D01*
X128570364Y-129125261D01*
X128488120Y-129117137D01*
X128488045Y-129117131D01*
X128488045Y-129117132D01*
X128488031Y-129117130D01*
X128488031Y-129117131D01*
X128487958Y-129117126D01*
X128487929Y-129117123D01*
X128487929Y-129117124D01*
X128444002Y-129114055D01*
X128405750Y-129111382D01*
X128388984Y-129110937D01*
X128388983Y-129110936D01*
X128337110Y-129109562D01*
X128332658Y-129108553D01*
X128330948Y-129107791D01*
X128324842Y-129101438D01*
X128324225Y-129099891D01*
X128323393Y-129095557D01*
X128323393Y-128716521D01*
X128324283Y-128712045D01*
X128324999Y-128710316D01*
X128331184Y-128704045D01*
X128331552Y-128703886D01*
X128332715Y-128703386D01*
X128337025Y-128702438D01*
X128405750Y-128700617D01*
X128488107Y-128694862D01*
X128570464Y-128686726D01*
X128652821Y-128677400D01*
X128735178Y-128668073D01*
X128817342Y-128659955D01*
X128817370Y-128659953D01*
X128817388Y-128659951D01*
X128817514Y-128659940D01*
X128817685Y-128659925D01*
X128899615Y-128654200D01*
X128899703Y-128654195D01*
X128900129Y-128654175D01*
X128900167Y-128654174D01*
X128967916Y-128652379D01*
X128972409Y-128653150D01*
G37*
%TD.AperFunction*%
%TD*%
%TA.AperFunction,Conductor*%
%TO.N,MOTOR1_DRIVER*%
G36*
X101971757Y-137368469D02*
G01*
X102102657Y-137436000D01*
X102574844Y-137679602D01*
X102580625Y-137686441D01*
X102579878Y-137695364D01*
X102574844Y-137700398D01*
X101971761Y-138011528D01*
X101962838Y-138012275D01*
X101959110Y-138010284D01*
X101944742Y-137998846D01*
X101913760Y-137984654D01*
X101873003Y-137972480D01*
X101872996Y-137972478D01*
X101823422Y-137962389D01*
X101823411Y-137962387D01*
X101823404Y-137962386D01*
X101765880Y-137954432D01*
X101701356Y-137948676D01*
X101639677Y-137945620D01*
X101639667Y-137945620D01*
X101630755Y-137945179D01*
X101555000Y-137944000D01*
X101555000Y-137436000D01*
X101630755Y-137434820D01*
X101701356Y-137431323D01*
X101765880Y-137425567D01*
X101823404Y-137417613D01*
X101873003Y-137407519D01*
X101913757Y-137395346D01*
X101944741Y-137381153D01*
X101959110Y-137369714D01*
X101967716Y-137367243D01*
X101971757Y-137368469D01*
G37*
%TD.AperFunction*%
%TD*%
%TA.AperFunction,Conductor*%
%TO.N,MOTOR3_U1*%
G36*
X118801045Y-127520859D02*
G01*
X118801204Y-127521021D01*
X118839673Y-127561011D01*
X118870824Y-127593395D01*
X118871041Y-127593628D01*
X118904675Y-127630888D01*
X118946349Y-127677057D01*
X118946512Y-127677242D01*
X119020218Y-127762439D01*
X119020298Y-127762533D01*
X119093172Y-127848583D01*
X119166086Y-127934680D01*
X119179029Y-127949641D01*
X119239923Y-128020030D01*
X119244454Y-128025049D01*
X119315410Y-128103656D01*
X119385454Y-128176472D01*
X119388720Y-128184810D01*
X119385295Y-128192856D01*
X119114156Y-128463995D01*
X119105883Y-128467422D01*
X119097772Y-128464154D01*
X119024956Y-128394110D01*
X118997076Y-128368943D01*
X118941330Y-128318623D01*
X118856027Y-128244827D01*
X118855980Y-128244786D01*
X118769883Y-128171872D01*
X118683811Y-128098979D01*
X118683717Y-128098899D01*
X118598542Y-128025212D01*
X118598357Y-128025049D01*
X118552188Y-127983375D01*
X118514928Y-127949741D01*
X118514695Y-127949524D01*
X118482311Y-127918373D01*
X118442321Y-127879904D01*
X118438734Y-127871699D01*
X118442000Y-127863361D01*
X118442106Y-127863253D01*
X118784500Y-127520858D01*
X118792772Y-127517432D01*
X118801045Y-127520859D01*
G37*
%TD.AperFunction*%
%TD*%
%TA.AperFunction,Conductor*%
%TO.N,+5V_MCU_SOURCE*%
G36*
X116005364Y-121240121D02*
G01*
X116010398Y-121245155D01*
X116418612Y-122036421D01*
X116419359Y-122045344D01*
X116416548Y-122049997D01*
X116389176Y-122077775D01*
X116389174Y-122077778D01*
X116357845Y-122120985D01*
X116357836Y-122121000D01*
X116329268Y-122173620D01*
X116329257Y-122173644D01*
X116304182Y-122235759D01*
X116283361Y-122307411D01*
X116283360Y-122307414D01*
X116267549Y-122388659D01*
X116257514Y-122479485D01*
X116257514Y-122479487D01*
X116254395Y-122568709D01*
X116250681Y-122576857D01*
X116242702Y-122580000D01*
X115757298Y-122580000D01*
X115749025Y-122576573D01*
X115745605Y-122568709D01*
X115742485Y-122479490D01*
X115732447Y-122388644D01*
X115716639Y-122307416D01*
X115695817Y-122235761D01*
X115670737Y-122173633D01*
X115642154Y-122120986D01*
X115610823Y-122077776D01*
X115583450Y-122049996D01*
X115580085Y-122041699D01*
X115581386Y-122036424D01*
X115989602Y-121245154D01*
X115996441Y-121239374D01*
X116005364Y-121240121D01*
G37*
%TD.AperFunction*%
%TD*%
%TA.AperFunction,Conductor*%
%TO.N,GND*%
G36*
X133688147Y-136057219D02*
G01*
X133688145Y-136057222D01*
X133688144Y-136057226D01*
X133688142Y-136057230D01*
X133502052Y-136639954D01*
X133496271Y-136646793D01*
X133490994Y-136648095D01*
X133451986Y-136648383D01*
X133399284Y-136656783D01*
X133399283Y-136656783D01*
X133341844Y-136673798D01*
X133280197Y-136699988D01*
X133280177Y-136699998D01*
X133214801Y-136735934D01*
X133214792Y-136735939D01*
X133214783Y-136735944D01*
X133214770Y-136735953D01*
X133146187Y-136782190D01*
X133146176Y-136782198D01*
X133074844Y-136839333D01*
X133074834Y-136839342D01*
X133009548Y-136900219D01*
X133001160Y-136903355D01*
X132993296Y-136899935D01*
X132650063Y-136556702D01*
X132646636Y-136548429D01*
X132649777Y-136540453D01*
X132710661Y-136475158D01*
X132767800Y-136403821D01*
X132814059Y-136335207D01*
X132850004Y-136269816D01*
X132876200Y-136208150D01*
X132893216Y-136150712D01*
X132901616Y-136098004D01*
X132901904Y-136059004D01*
X132905392Y-136050758D01*
X132910043Y-136047947D01*
X133779809Y-135770191D01*
X133688147Y-136057219D01*
G37*
%TD.AperFunction*%
%TD*%
%TA.AperFunction,Conductor*%
%TO.N,+5V_UPDI*%
G36*
X144710889Y-105259715D02*
G01*
X144725256Y-105271152D01*
X144725257Y-105271152D01*
X144725258Y-105271153D01*
X144756242Y-105285346D01*
X144796996Y-105297519D01*
X144846595Y-105307613D01*
X144904119Y-105315567D01*
X144968643Y-105321323D01*
X145039244Y-105324820D01*
X145103483Y-105325820D01*
X145111701Y-105329376D01*
X145115000Y-105337519D01*
X145115000Y-105822480D01*
X145111573Y-105830753D01*
X145103482Y-105834179D01*
X145039241Y-105835179D01*
X144968641Y-105838676D01*
X144925627Y-105842513D01*
X144904119Y-105844432D01*
X144871577Y-105848931D01*
X144846587Y-105852387D01*
X144846576Y-105852389D01*
X144797002Y-105862478D01*
X144796995Y-105862480D01*
X144756238Y-105874654D01*
X144725262Y-105888844D01*
X144725258Y-105888846D01*
X144710889Y-105900285D01*
X144702283Y-105902756D01*
X144698239Y-105901529D01*
X144095155Y-105590398D01*
X144089374Y-105583559D01*
X144090121Y-105574636D01*
X144095155Y-105569602D01*
X144545015Y-105337519D01*
X144698239Y-105258470D01*
X144707161Y-105257724D01*
X144710889Y-105259715D01*
G37*
%TD.AperFunction*%
%TD*%
%TA.AperFunction,Conductor*%
%TO.N,GND_U1*%
G36*
X126652523Y-117217334D02*
G01*
X126652521Y-117217334D01*
X126513588Y-117652392D01*
X126507807Y-117659231D01*
X126502497Y-117660533D01*
X126461251Y-117660722D01*
X126461241Y-117660723D01*
X126406311Y-117669157D01*
X126406301Y-117669160D01*
X126346660Y-117686428D01*
X126282764Y-117713169D01*
X126215113Y-117750002D01*
X126215102Y-117750009D01*
X126144178Y-117797558D01*
X126144160Y-117797571D01*
X126070437Y-117856462D01*
X126070430Y-117856468D01*
X126002601Y-117919669D01*
X125994212Y-117922802D01*
X125986352Y-117919382D01*
X125643115Y-117576145D01*
X125639688Y-117567872D01*
X125642828Y-117559896D01*
X125706025Y-117492070D01*
X125706034Y-117492059D01*
X125764925Y-117418337D01*
X125764930Y-117418329D01*
X125764938Y-117418320D01*
X125812497Y-117347382D01*
X125849330Y-117279731D01*
X125876068Y-117215842D01*
X125893340Y-117156191D01*
X125901776Y-117101251D01*
X125901965Y-117059999D01*
X125905430Y-117051745D01*
X125910102Y-117048913D01*
X126796729Y-116765771D01*
X126652523Y-117217334D01*
G37*
%TD.AperFunction*%
%TD*%
%TA.AperFunction,Conductor*%
%TO.N,GND*%
G36*
X124555311Y-139573997D02*
G01*
X124558898Y-139582202D01*
X124558900Y-139582429D01*
X124558900Y-140066570D01*
X124555473Y-140074843D01*
X124547200Y-140078270D01*
X124546973Y-140078268D01*
X124446588Y-140076320D01*
X124446217Y-140076307D01*
X124334031Y-140070568D01*
X124333785Y-140070553D01*
X124221418Y-140062427D01*
X124221295Y-140062417D01*
X124108900Y-140053100D01*
X123996442Y-140043776D01*
X123990319Y-140043333D01*
X123883900Y-140035637D01*
X123771400Y-140029882D01*
X123758393Y-140029629D01*
X123670373Y-140027922D01*
X123662168Y-140024335D01*
X123658900Y-140016224D01*
X123658900Y-139632775D01*
X123662327Y-139624502D01*
X123670372Y-139621077D01*
X123771400Y-139619117D01*
X123883900Y-139613362D01*
X123996400Y-139605226D01*
X124108900Y-139595900D01*
X124221400Y-139586573D01*
X124333812Y-139578443D01*
X124334000Y-139578431D01*
X124446239Y-139572690D01*
X124446565Y-139572678D01*
X124546973Y-139570731D01*
X124555311Y-139573997D01*
G37*
%TD.AperFunction*%
%TD*%
%TA.AperFunction,Conductor*%
%TO.N,GND*%
G36*
X144620839Y-119558337D02*
G01*
X144620838Y-119558337D01*
X144620837Y-119558338D01*
X144451088Y-120089892D01*
X144445307Y-120096731D01*
X144439997Y-120098033D01*
X144398751Y-120098222D01*
X144398741Y-120098223D01*
X144343811Y-120106657D01*
X144343801Y-120106660D01*
X144284161Y-120123929D01*
X144220273Y-120150665D01*
X144152614Y-120187503D01*
X144152603Y-120187510D01*
X144081679Y-120235059D01*
X144081661Y-120235072D01*
X144007938Y-120293963D01*
X144007931Y-120293969D01*
X143940102Y-120357170D01*
X143931713Y-120360303D01*
X143923853Y-120356883D01*
X143580615Y-120013645D01*
X143577188Y-120005372D01*
X143580328Y-119997396D01*
X143643525Y-119929570D01*
X143643534Y-119929559D01*
X143702425Y-119855837D01*
X143702430Y-119855829D01*
X143702438Y-119855820D01*
X143749997Y-119784881D01*
X143786830Y-119717231D01*
X143813568Y-119653342D01*
X143830840Y-119593691D01*
X143836269Y-119558338D01*
X143839275Y-119538757D01*
X143839276Y-119538751D01*
X143839465Y-119497499D01*
X143842930Y-119489245D01*
X143847602Y-119486413D01*
X144379161Y-119316661D01*
X144379161Y-119316660D01*
X144734229Y-119203271D01*
X144620839Y-119558337D01*
G37*
%TD.AperFunction*%
%TD*%
%TA.AperFunction,Conductor*%
%TO.N,+5V_MCU_SOURCE*%
G36*
X114665768Y-123985154D02*
G01*
X115009144Y-124328530D01*
X115012571Y-124336803D01*
X115009500Y-124344705D01*
X114937564Y-124423259D01*
X114873825Y-124507710D01*
X114873821Y-124507718D01*
X114824441Y-124589360D01*
X114788010Y-124667754D01*
X114763129Y-124742451D01*
X114763123Y-124742474D01*
X114748388Y-124813029D01*
X114742392Y-124879021D01*
X114743543Y-124931248D01*
X114740299Y-124939595D01*
X114735405Y-124942651D01*
X113752442Y-125256551D01*
X113743519Y-125255804D01*
X113737738Y-125248965D01*
X113737738Y-125241850D01*
X114051652Y-124258885D01*
X114057432Y-124252048D01*
X114063051Y-124250749D01*
X114115277Y-124251901D01*
X114181267Y-124245906D01*
X114251837Y-124231168D01*
X114289145Y-124218741D01*
X114326530Y-124206290D01*
X114326538Y-124206287D01*
X114326538Y-124206286D01*
X114326544Y-124206285D01*
X114404943Y-124169853D01*
X114486590Y-124120469D01*
X114571041Y-124056732D01*
X114649595Y-123984797D01*
X114658009Y-123981738D01*
X114665768Y-123985154D01*
G37*
%TD.AperFunction*%
%TD*%
%TA.AperFunction,Conductor*%
%TO.N,HOME*%
G36*
X116617008Y-125793406D02*
G01*
X116618562Y-125794015D01*
X116622566Y-125796635D01*
X116961688Y-126135757D01*
X116964224Y-126139551D01*
X116964906Y-126141197D01*
X116964906Y-126150151D01*
X116964302Y-126151610D01*
X116964266Y-126151699D01*
X116961569Y-126155649D01*
X116890868Y-126223660D01*
X116890715Y-126223805D01*
X116890618Y-126223895D01*
X116890500Y-126224003D01*
X116807204Y-126299190D01*
X116807152Y-126299237D01*
X116807004Y-126299369D01*
X116806871Y-126299485D01*
X116721848Y-126373041D01*
X116721776Y-126373103D01*
X116721682Y-126373183D01*
X116721660Y-126373201D01*
X116635611Y-126446076D01*
X116549561Y-126518949D01*
X116464190Y-126592803D01*
X116380529Y-126668320D01*
X116309398Y-126736744D01*
X116305556Y-126739205D01*
X116303836Y-126739879D01*
X116294984Y-126739751D01*
X116293422Y-126739086D01*
X116289732Y-126736594D01*
X116021843Y-126468705D01*
X116019308Y-126464912D01*
X116018598Y-126463199D01*
X116018555Y-126454359D01*
X116019192Y-126452777D01*
X116021606Y-126449046D01*
X116090083Y-126377860D01*
X116090090Y-126377853D01*
X116165571Y-126294234D01*
X116226465Y-126223845D01*
X116239408Y-126208884D01*
X116239449Y-126208837D01*
X116312322Y-126122787D01*
X116385179Y-126036756D01*
X116385204Y-126036743D01*
X116385196Y-126036737D01*
X116385276Y-126036643D01*
X116385338Y-126036571D01*
X116458912Y-125951526D01*
X116458973Y-125951456D01*
X116459104Y-125951307D01*
X116459206Y-125951192D01*
X116534414Y-125867873D01*
X116534423Y-125867863D01*
X116534442Y-125867842D01*
X116534653Y-125867615D01*
X116602676Y-125796900D01*
X116606419Y-125794293D01*
X116607055Y-125794015D01*
X116608052Y-125793578D01*
X116617002Y-125793404D01*
X116617008Y-125793406D01*
G37*
%TD.AperFunction*%
%TD*%
%TA.AperFunction,Conductor*%
%TO.N,LATCH_CONN*%
G36*
X111513576Y-122131386D02*
G01*
X111806386Y-122282447D01*
X112304844Y-122539602D01*
X112310625Y-122546441D01*
X112309878Y-122555364D01*
X112304844Y-122560398D01*
X111513578Y-122968612D01*
X111504655Y-122969359D01*
X111500002Y-122966548D01*
X111472223Y-122939176D01*
X111472220Y-122939174D01*
X111429013Y-122907845D01*
X111428998Y-122907836D01*
X111376378Y-122879268D01*
X111376371Y-122879265D01*
X111376366Y-122879262D01*
X111376354Y-122879257D01*
X111314239Y-122854182D01*
X111242587Y-122833361D01*
X111242584Y-122833360D01*
X111191317Y-122823383D01*
X111161355Y-122817552D01*
X111161353Y-122817551D01*
X111161339Y-122817549D01*
X111070512Y-122807514D01*
X110981291Y-122804394D01*
X110973143Y-122800680D01*
X110970000Y-122792701D01*
X110970000Y-122307298D01*
X110973427Y-122299025D01*
X110981290Y-122295605D01*
X111070509Y-122292485D01*
X111134659Y-122285396D01*
X111161339Y-122282449D01*
X111161341Y-122282448D01*
X111161355Y-122282447D01*
X111242583Y-122266639D01*
X111314238Y-122245817D01*
X111376366Y-122220737D01*
X111429013Y-122192154D01*
X111472223Y-122160823D01*
X111500004Y-122133450D01*
X111508300Y-122130085D01*
X111513576Y-122131386D01*
G37*
%TD.AperFunction*%
%TD*%
%TA.AperFunction,Conductor*%
%TO.N,GND_U1*%
G36*
X121500040Y-116695063D02*
G01*
X122093438Y-117383024D01*
X122096246Y-117391527D01*
X122094890Y-117396194D01*
X122083294Y-117417822D01*
X122083292Y-117417826D01*
X122073021Y-117454396D01*
X122068940Y-117497237D01*
X122068940Y-117497248D01*
X122072115Y-117544775D01*
X122083612Y-117595383D01*
X122083617Y-117595398D01*
X122104504Y-117647513D01*
X122104507Y-117647520D01*
X122135861Y-117699563D01*
X122171743Y-117741710D01*
X122174496Y-117750230D01*
X122171107Y-117757567D01*
X121827859Y-118100815D01*
X121819586Y-118104242D01*
X121811313Y-118100815D01*
X121811259Y-118100761D01*
X121724173Y-118012523D01*
X121724098Y-118012446D01*
X121639221Y-117924857D01*
X121639214Y-117924850D01*
X121563124Y-117846201D01*
X121494318Y-117776598D01*
X121431313Y-117716159D01*
X121431287Y-117716135D01*
X121372469Y-117664859D01*
X121372460Y-117664851D01*
X121372447Y-117664841D01*
X121316285Y-117622795D01*
X121316281Y-117622793D01*
X121316279Y-117622791D01*
X121268645Y-117594449D01*
X121263289Y-117587274D01*
X121263267Y-117581608D01*
X121479819Y-116699912D01*
X121485119Y-116692697D01*
X121493971Y-116691343D01*
X121500040Y-116695063D01*
G37*
%TD.AperFunction*%
%TD*%
%TA.AperFunction,Conductor*%
%TO.N,GND*%
G36*
X144710889Y-110339715D02*
G01*
X144725256Y-110351152D01*
X144725257Y-110351152D01*
X144725258Y-110351153D01*
X144756242Y-110365346D01*
X144796996Y-110377519D01*
X144846595Y-110387613D01*
X144904119Y-110395567D01*
X144968643Y-110401323D01*
X145039244Y-110404820D01*
X145103483Y-110405820D01*
X145111701Y-110409376D01*
X145115000Y-110417519D01*
X145115000Y-110902480D01*
X145111573Y-110910753D01*
X145103482Y-110914179D01*
X145039241Y-110915179D01*
X144968641Y-110918676D01*
X144925627Y-110922513D01*
X144904119Y-110924432D01*
X144871577Y-110928931D01*
X144846587Y-110932387D01*
X144846576Y-110932389D01*
X144797002Y-110942478D01*
X144796995Y-110942480D01*
X144756238Y-110954654D01*
X144725262Y-110968844D01*
X144725258Y-110968846D01*
X144710889Y-110980285D01*
X144702283Y-110982756D01*
X144698239Y-110981529D01*
X144095155Y-110670398D01*
X144089374Y-110663559D01*
X144090121Y-110654636D01*
X144095155Y-110649602D01*
X144545015Y-110417519D01*
X144698239Y-110338470D01*
X144707161Y-110337724D01*
X144710889Y-110339715D01*
G37*
%TD.AperFunction*%
%TD*%
%TA.AperFunction,Conductor*%
%TO.N,DATA_CHAIN_IN*%
G36*
X102483918Y-107819658D02*
G01*
X102902823Y-108015911D01*
X103102384Y-108109405D01*
X103108422Y-108116018D01*
X103108015Y-108124964D01*
X103102384Y-108130595D01*
X102483924Y-108420338D01*
X102474978Y-108420745D01*
X102471892Y-108419067D01*
X102465518Y-108414235D01*
X102444108Y-108405368D01*
X102414342Y-108397040D01*
X102414338Y-108397039D01*
X102377291Y-108389555D01*
X102377256Y-108389549D01*
X102351076Y-108385715D01*
X102333894Y-108383199D01*
X102333885Y-108383198D01*
X102333871Y-108383196D01*
X102285283Y-108378288D01*
X102232499Y-108375122D01*
X102187997Y-108374229D01*
X102179794Y-108370636D01*
X102176532Y-108362531D01*
X102176532Y-107877467D01*
X102179959Y-107869194D01*
X102187994Y-107865769D01*
X102232489Y-107864877D01*
X102285290Y-107861710D01*
X102333894Y-107856800D01*
X102377259Y-107850449D01*
X102377275Y-107850445D01*
X102377291Y-107850443D01*
X102396864Y-107846488D01*
X102414345Y-107842958D01*
X102444112Y-107834629D01*
X102465519Y-107825763D01*
X102471893Y-107820931D01*
X102480554Y-107818664D01*
X102483918Y-107819658D01*
G37*
%TD.AperFunction*%
%TD*%
%TA.AperFunction,Conductor*%
%TO.N,GND*%
G36*
X133800975Y-134973427D02*
G01*
X133804395Y-134981291D01*
X133807514Y-135070511D01*
X133807514Y-135070513D01*
X133817549Y-135161339D01*
X133833360Y-135242584D01*
X133833361Y-135242587D01*
X133854182Y-135314239D01*
X133879257Y-135376354D01*
X133879268Y-135376378D01*
X133907836Y-135428998D01*
X133907845Y-135429013D01*
X133939174Y-135472220D01*
X133939176Y-135472223D01*
X133966548Y-135500002D01*
X133969914Y-135508300D01*
X133968612Y-135513578D01*
X133752846Y-135931810D01*
X133688146Y-136057222D01*
X133688144Y-136057225D01*
X133550000Y-136325000D01*
X133131386Y-135513577D01*
X133130640Y-135504655D01*
X133133449Y-135500005D01*
X133160823Y-135472223D01*
X133192154Y-135429013D01*
X133220737Y-135376366D01*
X133245817Y-135314238D01*
X133266639Y-135242583D01*
X133282447Y-135161355D01*
X133292485Y-135070509D01*
X133295605Y-134981290D01*
X133299319Y-134973143D01*
X133307298Y-134970000D01*
X133792702Y-134970000D01*
X133800975Y-134973427D01*
G37*
%TD.AperFunction*%
%TD*%
%TA.AperFunction,Conductor*%
%TO.N,+5V_UPDI*%
G36*
X145009495Y-122137859D02*
G01*
X145038798Y-122166893D01*
X145083611Y-122199776D01*
X145138004Y-122229743D01*
X145202087Y-122256013D01*
X145275968Y-122277804D01*
X145359758Y-122294337D01*
X145453565Y-122304829D01*
X145546213Y-122308101D01*
X145554360Y-122311818D01*
X145557500Y-122319794D01*
X145557500Y-122805205D01*
X145554073Y-122813478D01*
X145546213Y-122816898D01*
X145464109Y-122819797D01*
X145453565Y-122820170D01*
X145453561Y-122820170D01*
X145453553Y-122820171D01*
X145359774Y-122830660D01*
X145359762Y-122830661D01*
X145359758Y-122830662D01*
X145359756Y-122830662D01*
X145359751Y-122830663D01*
X145275976Y-122847193D01*
X145275963Y-122847196D01*
X145202088Y-122868985D01*
X145138011Y-122895252D01*
X145083613Y-122925221D01*
X145038800Y-122958104D01*
X145038791Y-122958112D01*
X145009497Y-122987138D01*
X145001208Y-122990527D01*
X144995898Y-122989225D01*
X144188905Y-122572898D01*
X144183124Y-122566059D01*
X144183871Y-122557136D01*
X144188905Y-122552102D01*
X144995900Y-122135772D01*
X145004821Y-122135026D01*
X145009495Y-122137859D01*
G37*
%TD.AperFunction*%
%TD*%
%TA.AperFunction,Conductor*%
%TO.N,GND_CHAIN*%
G36*
X109340505Y-112005698D02*
G01*
X109419063Y-112077636D01*
X109503497Y-112141360D01*
X109503504Y-112141364D01*
X109503505Y-112141365D01*
X109585152Y-112190746D01*
X109663551Y-112227175D01*
X109738257Y-112252056D01*
X109808827Y-112266790D01*
X109808835Y-112266790D01*
X109808837Y-112266791D01*
X109818349Y-112267654D01*
X109874817Y-112272782D01*
X109927038Y-112271628D01*
X109935384Y-112274871D01*
X109938441Y-112279765D01*
X110252417Y-113262703D01*
X110251670Y-113271627D01*
X110244832Y-113277408D01*
X110237714Y-113277409D01*
X109254731Y-112963572D01*
X109247892Y-112957791D01*
X109246592Y-112952173D01*
X109247740Y-112899944D01*
X109241740Y-112833951D01*
X109226997Y-112763378D01*
X109202108Y-112688668D01*
X109165670Y-112610267D01*
X109116281Y-112528617D01*
X109052537Y-112444162D01*
X108980597Y-112365604D01*
X108977538Y-112357189D01*
X108980953Y-112349431D01*
X109324331Y-112006053D01*
X109332603Y-112002627D01*
X109340505Y-112005698D01*
G37*
%TD.AperFunction*%
%TD*%
%TA.AperFunction,Conductor*%
%TO.N,+5V_U1*%
G36*
X119013645Y-116080615D02*
G01*
X119356883Y-116423853D01*
X119360310Y-116432126D01*
X119357170Y-116440102D01*
X119293969Y-116507931D01*
X119293963Y-116507938D01*
X119235072Y-116581661D01*
X119235059Y-116581679D01*
X119187510Y-116652603D01*
X119187503Y-116652614D01*
X119150665Y-116720273D01*
X119123929Y-116784161D01*
X119106660Y-116843801D01*
X119106657Y-116843811D01*
X119098223Y-116898741D01*
X119098222Y-116898751D01*
X119098033Y-116939997D01*
X119094568Y-116948254D01*
X119089892Y-116951088D01*
X118569462Y-117117285D01*
X118569461Y-117117286D01*
X118203271Y-117234229D01*
X118486412Y-116347604D01*
X118492192Y-116340767D01*
X118497498Y-116339465D01*
X118538751Y-116339276D01*
X118548064Y-116337845D01*
X118593687Y-116330841D01*
X118593689Y-116330840D01*
X118593691Y-116330840D01*
X118653342Y-116313568D01*
X118717231Y-116286830D01*
X118784881Y-116249997D01*
X118855820Y-116202438D01*
X118855829Y-116202430D01*
X118855837Y-116202425D01*
X118929559Y-116143534D01*
X118929566Y-116143528D01*
X118929570Y-116143525D01*
X118997396Y-116080327D01*
X119005785Y-116077195D01*
X119013645Y-116080615D01*
G37*
%TD.AperFunction*%
%TD*%
%TA.AperFunction,Conductor*%
%TO.N,GND*%
G36*
X120753599Y-141039087D02*
G01*
X120752259Y-141100055D01*
X120758259Y-141166048D01*
X120773002Y-141236621D01*
X120796936Y-141308463D01*
X120797892Y-141311333D01*
X120834323Y-141389723D01*
X120834326Y-141389729D01*
X120834328Y-141389732D01*
X120883717Y-141471382D01*
X120947461Y-141555836D01*
X121019400Y-141634393D01*
X121022460Y-141642809D01*
X121019044Y-141650568D01*
X120675668Y-141993944D01*
X120667395Y-141997371D01*
X120659493Y-141994300D01*
X120580934Y-141922361D01*
X120496500Y-141858637D01*
X120496487Y-141858629D01*
X120414856Y-141809257D01*
X120414850Y-141809254D01*
X120414847Y-141809252D01*
X120414841Y-141809249D01*
X120414831Y-141809244D01*
X120336449Y-141772823D01*
X120311522Y-141764521D01*
X120261742Y-141747943D01*
X120261736Y-141747941D01*
X120261726Y-141747939D01*
X120191174Y-141733208D01*
X120191160Y-141733206D01*
X120125186Y-141727217D01*
X120125182Y-141727217D01*
X120119319Y-141727346D01*
X120072961Y-141728371D01*
X120064615Y-141725128D01*
X120061558Y-141720234D01*
X119955984Y-141389723D01*
X119747582Y-140737294D01*
X119748329Y-140728372D01*
X119755167Y-140722591D01*
X119762284Y-140722590D01*
X120753599Y-141039087D01*
G37*
%TD.AperFunction*%
%TD*%
%TA.AperFunction,Conductor*%
%TO.N,GND*%
G36*
X120581835Y-140499627D02*
G01*
X120617954Y-140537369D01*
X120668867Y-140579795D01*
X120668869Y-140579797D01*
X120714503Y-140609657D01*
X120729193Y-140619270D01*
X120799624Y-140654499D01*
X120880831Y-140684172D01*
X120927163Y-140695577D01*
X120973498Y-140706984D01*
X121078276Y-140721626D01*
X121078278Y-140721626D01*
X121078291Y-140721628D01*
X121184714Y-140726308D01*
X121192829Y-140730095D01*
X121195900Y-140737997D01*
X121195900Y-141223602D01*
X121192473Y-141231875D01*
X121184714Y-141235291D01*
X121078302Y-141239971D01*
X121078288Y-141239972D01*
X120973522Y-141254615D01*
X120973517Y-141254616D01*
X120880840Y-141277435D01*
X120799656Y-141307104D01*
X120799638Y-141307112D01*
X120796936Y-141308463D01*
X120796936Y-141308464D01*
X120729226Y-141342339D01*
X120668902Y-141381820D01*
X120617999Y-141424245D01*
X120575841Y-141468308D01*
X119863755Y-141100990D01*
X119651021Y-140991254D01*
X119645240Y-140984416D01*
X119645987Y-140975492D01*
X119651017Y-140970460D01*
X120568019Y-140497317D01*
X120576941Y-140496570D01*
X120581835Y-140499627D01*
G37*
%TD.AperFunction*%
%TD*%
%TA.AperFunction,Conductor*%
%TO.N,CLOCK_CONN*%
G36*
X112199903Y-104503882D02*
G01*
X112201612Y-104504590D01*
X112207896Y-104510811D01*
X112208561Y-104512371D01*
X112209496Y-104516732D01*
X112211416Y-104615492D01*
X112217174Y-104727992D01*
X112224233Y-104825574D01*
X112225311Y-104840474D01*
X112225314Y-104840505D01*
X112225316Y-104840535D01*
X112234643Y-104952991D01*
X112243963Y-105065373D01*
X112243964Y-105065378D01*
X112243973Y-105065491D01*
X112243982Y-105065614D01*
X112243980Y-105065619D01*
X112243982Y-105065623D01*
X112252101Y-105177829D01*
X112252117Y-105178075D01*
X112257856Y-105290220D01*
X112257864Y-105290424D01*
X112257870Y-105290602D01*
X112257875Y-105290769D01*
X112259779Y-105388737D01*
X112258976Y-105393229D01*
X112258327Y-105394887D01*
X112252122Y-105401341D01*
X112250593Y-105402010D01*
X112245903Y-105402991D01*
X111766312Y-105403004D01*
X111761837Y-105402114D01*
X111760192Y-105401433D01*
X111753860Y-105395105D01*
X111753218Y-105393554D01*
X111752331Y-105388854D01*
X111752333Y-105388737D01*
X111754226Y-105291007D01*
X111754234Y-105290865D01*
X111754239Y-105290544D01*
X111754240Y-105290508D01*
X111754250Y-105290236D01*
X111759981Y-105178140D01*
X111759996Y-105177893D01*
X111768120Y-105065506D01*
X111768128Y-105065408D01*
X111768130Y-105065384D01*
X111777443Y-104953006D01*
X111786762Y-104840554D01*
X111786762Y-104840548D01*
X111786766Y-104840505D01*
X111786769Y-104840474D01*
X111786769Y-104840459D01*
X111794899Y-104728005D01*
X111800650Y-104615505D01*
X111802562Y-104516797D01*
X111803537Y-104512346D01*
X111804280Y-104510647D01*
X111810622Y-104504487D01*
X111812204Y-104503849D01*
X111816567Y-104503003D01*
X112195427Y-104502992D01*
X112199903Y-104503882D01*
G37*
%TD.AperFunction*%
%TD*%
%TA.AperFunction,Conductor*%
%TO.N,+5V_MAIN*%
G36*
X124505364Y-131640121D02*
G01*
X124510398Y-131645155D01*
X124983490Y-132562177D01*
X124984237Y-132571100D01*
X124981181Y-132575994D01*
X124943442Y-132612104D01*
X124901017Y-132663011D01*
X124901014Y-132663015D01*
X124861540Y-132723331D01*
X124826304Y-132793763D01*
X124796634Y-132874947D01*
X124773816Y-132967621D01*
X124773815Y-132967626D01*
X124759172Y-133072390D01*
X124759171Y-133072403D01*
X124754492Y-133178814D01*
X124750705Y-133186929D01*
X124742803Y-133190000D01*
X124257197Y-133190000D01*
X124248924Y-133186573D01*
X124245508Y-133178814D01*
X124245328Y-133174745D01*
X124240827Y-133072401D01*
X124226181Y-132967613D01*
X124203368Y-132874959D01*
X124173693Y-132793759D01*
X124138462Y-132723336D01*
X124098983Y-132663012D01*
X124056560Y-132612109D01*
X124056556Y-132612104D01*
X124018818Y-132575994D01*
X124015210Y-132567799D01*
X124016508Y-132562180D01*
X124489602Y-131645154D01*
X124496441Y-131639374D01*
X124505364Y-131640121D01*
G37*
%TD.AperFunction*%
%TD*%
%TA.AperFunction,Conductor*%
%TO.N,MOTOR3_U1*%
G36*
X120182298Y-128973159D02*
G01*
X120228117Y-129016362D01*
X120284731Y-129064838D01*
X120305828Y-129081771D01*
X120306772Y-129082617D01*
X120307076Y-129082921D01*
X120310306Y-129085370D01*
X120310560Y-129085569D01*
X120343004Y-129111609D01*
X120343024Y-129111625D01*
X120402161Y-129157572D01*
X120461297Y-129203519D01*
X120489426Y-129226096D01*
X120519448Y-129250192D01*
X120519734Y-129250429D01*
X120575981Y-129298590D01*
X120576398Y-129298964D01*
X120621522Y-129341512D01*
X120625190Y-129349681D01*
X120622008Y-129358052D01*
X120621768Y-129358298D01*
X120279598Y-129700468D01*
X120271325Y-129703895D01*
X120263052Y-129700468D01*
X120262812Y-129700222D01*
X120220264Y-129655098D01*
X120219890Y-129654681D01*
X120171729Y-129598434D01*
X120171492Y-129598148D01*
X120147396Y-129568126D01*
X120124819Y-129539997D01*
X120078872Y-129480861D01*
X120032925Y-129421724D01*
X119986136Y-129363429D01*
X119937663Y-129306818D01*
X119929905Y-129298590D01*
X119894459Y-129260998D01*
X119891277Y-129252627D01*
X119894698Y-129244699D01*
X120165999Y-128973398D01*
X120174271Y-128969972D01*
X120182298Y-128973159D01*
G37*
%TD.AperFunction*%
%TD*%
%TA.AperFunction,Conductor*%
%TO.N,DATA_CHAIN_IN*%
G36*
X102162718Y-107869604D02*
G01*
X102166520Y-107877712D01*
X102166532Y-107878247D01*
X102166532Y-108361751D01*
X102163105Y-108370024D01*
X102154832Y-108373451D01*
X102154297Y-108373439D01*
X102119281Y-108371836D01*
X102118414Y-108371764D01*
X102071432Y-108366094D01*
X102070866Y-108366011D01*
X102023611Y-108357949D01*
X102023333Y-108357898D01*
X101975791Y-108348600D01*
X101928108Y-108339272D01*
X101880416Y-108331136D01*
X101841754Y-108326470D01*
X101832735Y-108325382D01*
X101830957Y-108325300D01*
X101796215Y-108323710D01*
X101788107Y-108319908D01*
X101785050Y-108312022D01*
X101785050Y-107927976D01*
X101788477Y-107919703D01*
X101796212Y-107916288D01*
X101832735Y-107914617D01*
X101880420Y-107908862D01*
X101907668Y-107904212D01*
X101928108Y-107900726D01*
X101975791Y-107891400D01*
X102023412Y-107882085D01*
X102023535Y-107882062D01*
X102070879Y-107873984D01*
X102071420Y-107873905D01*
X102118417Y-107868233D01*
X102119278Y-107868162D01*
X102154299Y-107866559D01*
X102162718Y-107869604D01*
G37*
%TD.AperFunction*%
%TD*%
M02*
