<?xml version="1.0" encoding="UTF-8" standalone="no"?>
<!-- Created with Inkscape (http://www.inkscape.org/) -->

<svg
   xmlns:dc="http://purl.org/dc/elements/1.1/"
   xmlns:cc="http://creativecommons.org/ns#"
   xmlns:rdf="http://www.w3.org/1999/02/22-rdf-syntax-ns#"
   xmlns:svg="http://www.w3.org/2000/svg"
   xmlns="http://www.w3.org/2000/svg"
   xmlns:sodipodi="http://sodipodi.sourceforge.net/DTD/sodipodi-0.dtd"
   xmlns:inkscape="http://www.inkscape.org/namespaces/inkscape"
   width="744.09448819"
   height="1052.3622047"
   id="svg2"
   version="1.1"
   inkscape:version="0.48.4 r9939"
   sodipodi:docname="wheel-vector.svg">
  <defs
     id="defs4" />
  <sodipodi:namedview
     id="base"
     pagecolor="#ffffff"
     bordercolor="#666666"
     borderopacity="1.0"
     inkscape:pageopacity="0.0"
     inkscape:pageshadow="2"
     inkscape:zoom="1.24"
     inkscape:cx="122.91974"
     inkscape:cy="539.55974"
     inkscape:document-units="px"
     inkscape:current-layer="layer1"
     showgrid="false"
     showguides="true"
     inkscape:guide-bbox="true"
     inkscape:snap-global="true"
     inkscape:window-width="1093"
     inkscape:window-height="689"
     inkscape:window-x="186"
     inkscape:window-y="0"
     inkscape:window-maximized="0">
    <inkscape:grid
       type="xygrid"
       id="grid3761" />
  </sodipodi:namedview>
  <metadata
     id="metadata7">
    <rdf:RDF>
      <cc:Work
         rdf:about="">
        <dc:format>image/svg+xml</dc:format>
        <dc:type
           rdf:resource="http://purl.org/dc/dcmitype/StillImage" />
        <dc:title></dc:title>
      </cc:Work>
    </rdf:RDF>
  </metadata>
  <g
     inkscape:label="Layer 1"
     inkscape:groupmode="layer"
     id="layer1">
    <path
       style="fill:none;stroke:#000000;stroke-width:0.25;stroke-miterlimit:4;stroke-opacity:1"
       d="m 12.419252,179.78077 0,10.625 14.125,0 0,141.71875 194.874998,0 0,-141.71875 14,0 0,-10.625 -14,0 -0.15625,0 -194.687498,0 -0.0312,0 -14.125,0 z"
       id="rect2985"
       inkscape:connector-curvature="0" />
    <path
       inkscape:connector-curvature="0"
       id="path3769"
       d="m 246.53251,179.78077 0,10.625 14.125,0 0,141.71875 194.875,0 0,-141.71875 14,0 0,-10.625 -14,0 -0.15625,0 -194.6875,0 -0.0312,0 -14.125,0 z"
       style="fill:none;stroke:#000000;stroke-width:0.25;stroke-miterlimit:4;stroke-opacity:1" />
    <path
       inkscape:connector-curvature="0"
       id="path3771"
       d="m 14.537924,343.97785 0,10.625 14.125,0 0,141.71875 194.874996,0 0,-141.71875 14,0 0,-10.625 -14,0 -0.15625,0 -194.687496,0 -0.0312,0 -14.125,0 z"
       style="fill:none;stroke:#000000;stroke-width:0.25;stroke-miterlimit:4;stroke-opacity:1" />
    <path
       style="fill:none;stroke:#000000;stroke-width:0.25;stroke-miterlimit:4;stroke-opacity:1"
       d="m 248.65118,343.97785 0,10.625 14.125,0 0,141.71875 194.875,0 0,-141.71875 14,0 0,-10.625 -14,0 -0.15625,0 -194.6875,0 -0.0312,0 -14.125,0 z"
       id="path3773"
       inkscape:connector-curvature="0" />
    <path
       style="fill:none;stroke:#000000;stroke-width:0.25;stroke-miterlimit:4;stroke-opacity:1"
       d="m 14.537924,508.17493 0,10.625 14.125,0 0,141.71875 194.874996,0 0,-141.71875 14,0 0,-10.625 -14,0 -0.15625,0 -194.687496,0 -0.0312,0 -14.125,0 z"
       id="path3775"
       inkscape:connector-curvature="0" />
    <path
       inkscape:connector-curvature="0"
       id="path3777"
       d="m 248.65118,508.17493 0,10.625 14.125,0 0,141.71875 194.875,0 0,-141.71875 14,0 0,-10.625 -14,0 -0.15625,0 -194.6875,0 -0.0312,0 -14.125,0 z"
       style="fill:none;stroke:#000000;stroke-width:0.25;stroke-miterlimit:4;stroke-opacity:1" />
    <path
       inkscape:connector-curvature="0"
       id="path3779"
       d="m 14.537924,669.194 0,10.625 14.125,0 0,141.71875 194.874996,0 0,-141.71875 14,0 0,-10.625 -14,0 -0.15625,0 -194.687496,0 -0.0312,0 -14.125,0 z"
       style="fill:none;stroke:#000000;stroke-width:0.25;stroke-miterlimit:4;stroke-opacity:1" />
    <path
       style="fill:none;stroke:#000000;stroke-width:0.25;stroke-miterlimit:4;stroke-opacity:1"
       d="m 248.65118,669.194 0,10.625 14.125,0 0,141.71875 194.875,0 0,-141.71875 14,0 0,-10.625 -14,0 -0.15625,0 -194.6875,0 -0.0312,0 -14.125,0 z"
       id="path3781"
       inkscape:connector-curvature="0" />
    <path
       style="fill:none;stroke:#000000;stroke-width:0.25;stroke-miterlimit:4;stroke-opacity:1"
       d="m 12.419252,835.50975 0,10.625 14.125,0 0,141.71875 194.874998,0 0,-141.71875 14,0 0,-10.625 -14,0 -0.15625,0 -194.687498,0 -0.0312,0 -14.125,0 z"
       id="path3783"
       inkscape:connector-curvature="0" />
    <path
       inkscape:connector-curvature="0"
       id="path3785"
       d="m 246.53251,835.50975 0,10.625 14.125,0 0,141.71875 194.875,0 0,-141.71875 14,0 0,-10.625 -14,0 -0.15625,0 -194.6875,0 -0.0312,0 -14.125,0 z"
       style="fill:none;stroke:#000000;stroke-width:0.25;stroke-miterlimit:4;stroke-opacity:1" />
  </g>
</svg>
