<?xml version="1.0" encoding="UTF-8" standalone="no"?>
<!-- Created with Inkscape (http://www.inkscape.org/) -->

<svg
   xmlns:dc="http://purl.org/dc/elements/1.1/"
   xmlns:cc="http://creativecommons.org/ns#"
   xmlns:rdf="http://www.w3.org/1999/02/22-rdf-syntax-ns#"
   xmlns:svg="http://www.w3.org/2000/svg"
   xmlns="http://www.w3.org/2000/svg"
   xmlns:sodipodi="http://sodipodi.sourceforge.net/DTD/sodipodi-0.dtd"
   xmlns:inkscape="http://www.inkscape.org/namespaces/inkscape"
   id="svg2"
   version="1.1"
   inkscape:version="0.48.5 r10040"
   width="2071.5754"
   height="2673.9075"
   xml:space="preserve"
   sodipodi:docname="letters.svg"
   inkscape:export-filename="/Users/Francisco/Documents/Code/flip-flap/mechanical/cards/letters.png"
   inkscape:export-xdpi="500.01074"
   inkscape:export-ydpi="500.01074"><metadata
     id="metadata8"><rdf:RDF><cc:Work
         rdf:about=""><dc:format>image/svg+xml</dc:format><dc:type
           rdf:resource="http://purl.org/dc/dcmitype/StillImage" /><dc:title></dc:title></cc:Work></rdf:RDF></metadata><defs
     id="defs6"><clipPath
       clipPathUnits="userSpaceOnUse"
       id="clipPath18"><path
         d="m 0,0 1683.78,0 0,2383.937 L 0,2383.937 0,0 z"
         id="path20"
         inkscape:connector-curvature="0" /></clipPath></defs><sodipodi:namedview
     pagecolor="#ffffff"
     bordercolor="#666666"
     borderopacity="1"
     objecttolerance="10"
     gridtolerance="10"
     guidetolerance="10"
     inkscape:pageopacity="0"
     inkscape:pageshadow="2"
     inkscape:window-width="1016"
     inkscape:window-height="838"
     id="namedview4"
     showgrid="false"
     inkscape:zoom="0.24258858"
     inkscape:cx="1046.875"
     inkscape:cy="619.98144"
     inkscape:window-x="0"
     inkscape:window-y="0"
     inkscape:window-maximized="0"
     inkscape:current-layer="g10"
     units="mm"
     fit-margin-top="5"
     fit-margin-left="-4"
     fit-margin-bottom="5"
     fit-margin-right="-4"
     borderlayer="true" /><g
     id="g10"
     inkscape:groupmode="layer"
     inkscape:label="letters"
     transform="matrix(1.25,0,0,-1.25,29.576772,2682.6378)"><path
       d="m 0,2384 1684,0 L 1684,0 0,0 0,2384 z"
       style="fill:#ffffff;fill-opacity:1;fill-rule:nonzero;stroke:none"
       id="path22"
       inkscape:connector-curvature="0" /><path
       d="m 3.2,2383.937 1683.78,0 L 1686.98,0 3.2,0 l 0,2383.937 z"
       style="fill:#ffffff;fill-opacity:1;fill-rule:nonzero;stroke:none"
       id="path24"
       inkscape:connector-curvature="0" /><g
       id="g3431"><path
         inkscape:connector-curvature="0"
         id="path26"
         style="fill:#c0c0c0;fill-opacity:1;fill-rule:nonzero;stroke:none"
         d="m 18,264.937 155.9055,0 0,-243.77953 -155.9055,0 0,243.77953 z" /><g
         id="text30"
         transform="matrix(1,0,0,-1,-30,-10)"><path
           inkscape:connector-curvature="0"
           id="path4620"
           style="font-size:290px;font-variant:normal;font-weight:normal;writing-mode:lr-tb;fill:#000000;fill-opacity:1;fill-rule:nonzero;stroke:none;font-family:BlueHighwayD;-inkscape-font-specification:BlueHighwayD-Regular"
           d="m 158.91636,-88.957 -65.540001,0 -9.57,40.02 -31.32,0 54.520001,-208.22 38.28,0 54.23,208.22 -30.74,0 -9.86,-40.02 m -58.29,-30.74 50.75,0 -25.52,-105.85 -25.23,105.85" /></g><path
         inkscape:connector-curvature="0"
         id="path34"
         style="fill:#c0c0c0;fill-opacity:1;fill-rule:nonzero;stroke:none"
         d="m 197,264.937 155.9055,0 0,-243.77953 -155.9055,0 0,243.77953 z" /><path
         inkscape:connector-curvature="0"
         id="path36"
         style="fill:#c0c0c0;fill-opacity:1;fill-rule:nonzero;stroke:none"
         d="m 376,264.937 155.9055,0 0,-243.77953 -155.9055,0 0,243.77953 z" /><path
         inkscape:connector-curvature="0"
         id="path38"
         style="fill:#c0c0c0;fill-opacity:1;fill-rule:nonzero;stroke:none"
         d="m 555,264.937 155.9055,0 0,-243.77953 -155.9055,0 0,243.77953 z" /><path
         inkscape:connector-curvature="0"
         id="path40"
         style="fill:#c0c0c0;fill-opacity:1;fill-rule:nonzero;stroke:none"
         d="m 734,264.937 155.9055,0 0,-243.77953 -155.9055,0 0,243.77953 z" /><path
         inkscape:connector-curvature="0"
         id="path42"
         style="fill:#c0c0c0;fill-opacity:1;fill-rule:nonzero;stroke:none"
         d="m 913,264.937 155.906,0 0,-243.77953 -155.906,0 0,243.77953 z" /><path
         inkscape:connector-curvature="0"
         id="path44"
         style="fill:#c0c0c0;fill-opacity:1;fill-rule:nonzero;stroke:none"
         d="m 1092,264.937 155.906,0 0,-243.77953 -155.906,0 0,243.77953 z" /><path
         inkscape:connector-curvature="0"
         id="path46"
         style="fill:#c0c0c0;fill-opacity:1;fill-rule:nonzero;stroke:none"
         d="m 1271,264.937 155.906,0 0,-243.77953 -155.906,0 0,243.77953 z" /><path
         inkscape:connector-curvature="0"
         id="path48"
         style="fill:#c0c0c0;fill-opacity:1;fill-rule:nonzero;stroke:none"
         d="m 1450,264.937 155.906,0 0,-243.77953 -155.906,0 0,243.77953 z" /><path
         inkscape:connector-curvature="0"
         id="path50"
         style="fill:#c0c0c0;fill-opacity:1;fill-rule:nonzero;stroke:none"
         d="m 18,532.937 155.9055,0 0,-243.7795 -155.9055,0 0,243.7795 z" /><path
         inkscape:connector-curvature="0"
         id="path52"
         style="fill:#c0c0c0;fill-opacity:1;fill-rule:nonzero;stroke:none"
         d="m 197,532.937 155.9055,0 0,-243.7795 -155.9055,0 0,243.7795 z" /><path
         inkscape:connector-curvature="0"
         id="path54"
         style="fill:#c0c0c0;fill-opacity:1;fill-rule:nonzero;stroke:none"
         d="m 376,532.937 155.9055,0 0,-243.7795 -155.9055,0 0,243.7795 z" /><path
         inkscape:connector-curvature="0"
         id="path56"
         style="fill:#c0c0c0;fill-opacity:1;fill-rule:nonzero;stroke:none"
         d="m 555,532.937 155.9055,0 0,-243.7795 -155.9055,0 0,243.7795 z" /><path
         inkscape:connector-curvature="0"
         id="path58"
         style="fill:#c0c0c0;fill-opacity:1;fill-rule:nonzero;stroke:none"
         d="m 734,532.937 155.9055,0 0,-243.7795 -155.9055,0 0,243.7795 z" /><path
         inkscape:connector-curvature="0"
         id="path60"
         style="fill:#c0c0c0;fill-opacity:1;fill-rule:nonzero;stroke:none"
         d="m 913,532.937 155.906,0 0,-243.7795 -155.906,0 0,243.7795 z" /><path
         inkscape:connector-curvature="0"
         id="path62"
         style="fill:#c0c0c0;fill-opacity:1;fill-rule:nonzero;stroke:none"
         d="m 1092,532.937 155.906,0 0,-243.7795 -155.906,0 0,243.7795 z" /><path
         inkscape:connector-curvature="0"
         id="path64"
         style="fill:#c0c0c0;fill-opacity:1;fill-rule:nonzero;stroke:none"
         d="m 1271,532.937 155.906,0 0,-243.7795 -155.906,0 0,243.7795 z" /><path
         inkscape:connector-curvature="0"
         id="path66"
         style="fill:#c0c0c0;fill-opacity:1;fill-rule:nonzero;stroke:none"
         d="m 1450,532.937 155.906,0 0,-243.7795 -155.906,0 0,243.7795 z" /><path
         inkscape:connector-curvature="0"
         id="path68"
         style="fill:#c0c0c0;fill-opacity:1;fill-rule:nonzero;stroke:none"
         d="m 18,800.937 155.9055,0 0,-243.7795 -155.9055,0 0,243.7795 z" /><path
         inkscape:connector-curvature="0"
         id="path70"
         style="fill:#c0c0c0;fill-opacity:1;fill-rule:nonzero;stroke:none"
         d="m 197,800.937 155.9055,0 0,-243.7795 -155.9055,0 0,243.7795 z" /><path
         inkscape:connector-curvature="0"
         id="path72"
         style="fill:#c0c0c0;fill-opacity:1;fill-rule:nonzero;stroke:none"
         d="m 376,800.937 155.9055,0 0,-243.7795 -155.9055,0 0,243.7795 z" /><path
         inkscape:connector-curvature="0"
         id="path74"
         style="fill:#c0c0c0;fill-opacity:1;fill-rule:nonzero;stroke:none"
         d="m 555,800.937 155.9055,0 0,-243.7795 -155.9055,0 0,243.7795 z" /><path
         inkscape:connector-curvature="0"
         id="path76"
         style="fill:#c0c0c0;fill-opacity:1;fill-rule:nonzero;stroke:none"
         d="m 734,800.937 155.9055,0 0,-243.7795 -155.9055,0 0,243.7795 z" /><path
         inkscape:connector-curvature="0"
         id="path78"
         style="fill:#c0c0c0;fill-opacity:1;fill-rule:nonzero;stroke:none"
         d="m 913,800.937 155.906,0 0,-243.7795 -155.906,0 0,243.7795 z" /><path
         inkscape:connector-curvature="0"
         id="path80"
         style="fill:#c0c0c0;fill-opacity:1;fill-rule:nonzero;stroke:none"
         d="m 1092,800.937 155.906,0 0,-243.7795 -155.906,0 0,243.7795 z" /><path
         inkscape:connector-curvature="0"
         id="path82"
         style="fill:#c0c0c0;fill-opacity:1;fill-rule:nonzero;stroke:none"
         d="m 1271,800.937 155.906,0 0,-243.7795 -155.906,0 0,243.7795 z" /><path
         inkscape:connector-curvature="0"
         id="path84"
         style="fill:#c0c0c0;fill-opacity:1;fill-rule:nonzero;stroke:none"
         d="m 1450,800.937 155.906,0 0,-243.7795 -155.906,0 0,243.7795 z" /><path
         inkscape:connector-curvature="0"
         id="path86"
         style="fill:#c0c0c0;fill-opacity:1;fill-rule:nonzero;stroke:none"
         d="m 18,1068.937 155.9055,0 0,-243.7795 -155.9055,0 0,243.7795 z" /><path
         inkscape:connector-curvature="0"
         id="path88"
         style="fill:#c0c0c0;fill-opacity:1;fill-rule:nonzero;stroke:none"
         d="m 197,1068.937 155.9055,0 0,-243.7795 -155.9055,0 0,243.7795 z" /><path
         inkscape:connector-curvature="0"
         id="path90"
         style="fill:#c0c0c0;fill-opacity:1;fill-rule:nonzero;stroke:none"
         d="m 376,1068.937 155.9055,0 0,-243.7795 -155.9055,0 0,243.7795 z" /><path
         inkscape:connector-curvature="0"
         id="path92"
         style="fill:#c0c0c0;fill-opacity:1;fill-rule:nonzero;stroke:none"
         d="m 555,1068.937 155.9055,0 0,-243.7795 -155.9055,0 0,243.7795 z" /><path
         inkscape:connector-curvature="0"
         id="path94"
         style="fill:#c0c0c0;fill-opacity:1;fill-rule:nonzero;stroke:none"
         d="m 734,1068.937 155.9055,0 0,-243.7795 -155.9055,0 0,243.7795 z" /><path
         inkscape:connector-curvature="0"
         id="path96"
         style="fill:#c0c0c0;fill-opacity:1;fill-rule:nonzero;stroke:none"
         d="m 913,1068.937 155.906,0 0,-243.7795 -155.906,0 0,243.7795 z" /><path
         inkscape:connector-curvature="0"
         id="path98"
         style="fill:#c0c0c0;fill-opacity:1;fill-rule:nonzero;stroke:none"
         d="m 1092,1068.937 155.906,0 0,-243.7795 -155.906,0 0,243.7795 z" /><path
         inkscape:connector-curvature="0"
         id="path100"
         style="fill:#c0c0c0;fill-opacity:1;fill-rule:nonzero;stroke:none"
         d="m 1271,1068.937 155.906,0 0,-243.7795 -155.906,0 0,243.7795 z" /><path
         inkscape:connector-curvature="0"
         id="path102"
         style="fill:#c0c0c0;fill-opacity:1;fill-rule:nonzero;stroke:none"
         d="m 1450,1068.937 155.906,0 0,-243.7795 -155.906,0 0,243.7795 z" /><path
         inkscape:connector-curvature="0"
         id="path104"
         style="fill:#c0c0c0;fill-opacity:1;fill-rule:nonzero;stroke:none"
         d="m 18,1336.937 155.9055,0 0,-243.78 -155.9055,0 0,243.78 z" /><path
         inkscape:connector-curvature="0"
         id="path106"
         style="fill:#c0c0c0;fill-opacity:1;fill-rule:nonzero;stroke:none"
         d="m 197,1336.937 155.9055,0 0,-243.78 -155.9055,0 0,243.78 z" /><path
         inkscape:connector-curvature="0"
         id="path108"
         style="fill:#c0c0c0;fill-opacity:1;fill-rule:nonzero;stroke:none"
         d="m 376,1336.937 155.9055,0 0,-243.78 -155.9055,0 0,243.78 z" /><g
         id="text112"
         transform="matrix(1,0,0,-1,-30,-10)"><path
           inkscape:connector-curvature="0"
           id="path4617"
           style="font-size:290px;font-variant:normal;font-weight:normal;writing-mode:lr-tb;fill:#000000;fill-opacity:1;fill-rule:nonzero;stroke:none;font-family:BlueHighwayD;-inkscape-font-specification:BlueHighwayD-Regular"
           d="m 277.59682,-79.677 36.83,0 c 7.34658,3e-5 13.14657,-2.706633 17.4,-8.12 4.44656,-5.413289 6.6699,-13.04995 6.67,-22.91 -1e-4,-9.27993 -2.0301,-16.52992 -6.09,-21.75 -3.86676,-5.21991 -9.57009,-7.82991 -17.11,-7.83 l -37.7,0 0,60.61 m 31.03,-91.35 c 3.09326,1.2e-4 5.89659,-0.77321 8.41,-2.32 2.51325,-1.73987 4.54325,-3.86654 6.09,-6.38 1.54658,-2.70653 2.70658,-5.7032 3.48,-8.99 0.96657,-3.47986 1.44991,-6.95985 1.45,-10.44 -9e-5,-7.73318 -1.83676,-14.11317 -5.51,-19.14 -3.48008,-5.21983 -8.12008,-7.82982 -13.92,-7.83 l -31.03,0 0,55.1 31.03,0 m -0.29,-86.13 c 6.37992,2.1e-4 12.46991,1.25687 18.27,3.77 5.7999,2.3202 10.92323,5.89686 15.37,10.73 4.44655,4.64019 7.92655,10.44018 10.44,17.4 2.70655,6.96017 4.05988,14.88683 4.06,23.78 -1.2e-4,8.89348 -1.54679,16.6268 -4.64,23.2 -2.90011,6.38012 -6.86344,11.89012 -11.89,16.53 3.67322,0.96678 7.34655,2.70678 11.02,5.22 3.67321,2.51344 6.86321,5.8001 9.57,9.86 2.70654,4.06009 4.92987,8.99009 6.67,14.79 1.73987,5.60674 2.60986,12.18007 2.61,19.72 -1.4e-4,19.913376 -5.22013,35.476694 -15.66,46.69 -10.24678,11.020005 -25.23009,16.53 -44.95,16.53 l -60.61,0 0,-208.22 59.74,0" /></g><g
         id="text118"
         transform="matrix(1,0,0,-1,-30,-10)"><path
           inkscape:connector-curvature="0"
           id="path4614"
           style="font-size:290px;font-variant:normal;font-weight:normal;writing-mode:lr-tb;fill:#000000;fill-opacity:1;fill-rule:nonzero;stroke:none;font-family:BlueHighwayD;-inkscape-font-specification:BlueHighwayD-Regular"
           d="m 528.51719,-204.957 c -4.25345,-8.11984 -9.18345,-13.82316 -14.79,-17.11 -5.60677,-3.28649 -13.24343,-4.92982 -22.91,-4.93 -7.15341,1.8e-4 -13.53341,1.74018 -19.14,5.22 -5.4134,3.48017 -10.05339,8.50683 -13.92,15.08 -3.86672,6.38015 -6.86338,14.11348 -8.99,23.2 -1.93338,9.08679 -2.90004,19.23678 -2.9,30.45 -4e-5,10.44009 1.06329,20.20342 3.19,29.29 2.31995,8.8934 5.41328,16.62672 9.28,23.2 4.05994,6.573378 8.89327,11.793373 14.5,15.66 5.79993,3.673365 12.17992,5.51003 19.14,5.51 8.89324,3e-5 15.9499,-1.836635 21.17,-5.51 5.21989,-3.673294 9.95655,-8.119956 14.21,-13.34 l 23.49,17.11 c -13.53347,23.393342 -33.54345,35.089997 -60.03,35.09 -10.82674,-3e-6 -20.88007,-2.706667 -30.16,-8.12 -9.08671,-5.413323 -16.91671,-12.856649 -23.49,-22.33 -6.57336,-9.473297 -11.69669,-20.686619 -15.37,-33.64 -3.67335,-13.14659 -5.51001,-27.45324 -5.51,-42.92 -1e-5,-15.07988 1.73999,-29.09653 5.22,-42.05 3.47998,-13.14651 8.40997,-24.4565 14.79,-33.93 6.57329,-9.66648 14.40329,-17.20647 23.49,-22.62 9.27993,-5.60646 19.62326,-8.40979 31.03,-8.41 28.41988,2.1e-4 49.00986,12.56686 61.77,37.7 l -24.07,17.4" /></g><g
         id="text124"
         transform="matrix(1,0,0,-1,-30,-10)"><path
           inkscape:connector-curvature="0"
           id="path4611"
           style="font-size:290px;font-variant:normal;font-weight:normal;writing-mode:lr-tb;fill:#000000;fill-opacity:1;fill-rule:nonzero;stroke:none;font-family:BlueHighwayD;-inkscape-font-specification:BlueHighwayD-Regular"
           d="m 623.70592,-226.127 0,145.87 18.56,0 c 9.85993,3.1e-5 18.65658,-1.739967 26.39,-5.22 7.73324,-3.673293 14.2099,-8.796622 19.43,-15.37 5.41322,-6.57328 9.47321,-14.3066 12.18,-23.2 2.89988,-8.89325 4.34987,-18.75324 4.35,-29.58 -1.3e-4,-11.01988 -1.35346,-20.97654 -4.06,-29.87 -2.51345,-8.89319 -6.38012,-16.43318 -11.6,-22.62 -5.2201,-6.37984 -11.69676,-11.30983 -19.43,-14.79 -7.73342,-3.47982 -16.82007,-5.21982 -27.26,-5.22 l -18.56,0 m -27.55,177.19 0,-208.22 51.62,0 c 12.75992,2.1e-4 24.45657,2.61021 35.09,7.83 10.63322,5.02686 19.71988,12.18019 27.26,21.46 7.73319,9.08684 13.62986,20.01016 17.69,32.77 4.25318,12.5668 6.37984,26.29345 6.38,41.18 -1.6e-4,16.24009 -2.22349,30.93341 -6.67,44.08 -4.44681,12.953381 -10.63347,23.97337 -18.56,33.06 -7.73346,8.893352 -17.01345,15.756678 -27.84,20.59 -10.63342,4.833335 -22.23341,7.25 -34.8,7.25 l -50.17,0" /></g><g
         id="text130"
         transform="matrix(1,0,0,-1,-30,-10)"><path
           inkscape:connector-curvature="0"
           id="path4608"
           style="font-size:290px;font-variant:normal;font-weight:normal;writing-mode:lr-tb;fill:#000000;fill-opacity:1;fill-rule:nonzero;stroke:none;font-family:BlueHighwayD;-inkscape-font-specification:BlueHighwayD-Regular"
           d="m 793.28092,-257.157 98.31,0 0,31.03 -69.31,0 0,55.1 42.92,0 0,30.74 -42.92,0 0,60.61 69.31,0 0,30.74 -98.31,0 0,-208.22" /></g><g
         id="text136"
         transform="matrix(1,0,0,-1,-30,-10)"><path
           inkscape:connector-curvature="0"
           id="path4605"
           style="font-size:290px;font-variant:normal;font-weight:normal;writing-mode:lr-tb;fill:#000000;fill-opacity:1;fill-rule:nonzero;stroke:none;font-family:BlueHighwayD;-inkscape-font-specification:BlueHighwayD-Regular"
           d="m 1005.1971,-171.027 44.37,0 0,30.74 -44.37,0 0,91.35 -28.99998,0 0,-208.22 98.30998,0 0,31.03 -69.31,0 0,55.1" /></g><g
         id="text142"
         transform="matrix(1,0,0,-1,-30,-10)"><path
           inkscape:connector-curvature="0"
           id="path4602"
           style="font-size:290px;font-variant:normal;font-weight:normal;writing-mode:lr-tb;fill:#000000;fill-opacity:1;fill-rule:nonzero;stroke:none;font-family:BlueHighwayD;-inkscape-font-specification:BlueHighwayD-Regular"
           d="m 1202.0313,-46.037 c -11.0201,-3e-6 -21.0734,-2.706667 -30.16,-8.12 -9.0868,-5.606656 -16.9167,-13.146649 -23.49,-22.62 -6.3801,-9.666629 -11.4067,-20.976618 -15.08,-33.93 -3.4801,-13.14659 -5.2201,-27.25991 -5.22,-42.34 -10e-5,-16.43321 1.8366,-31.2232 5.51,-44.37 3.6733,-13.33984 8.6999,-24.64983 15.08,-33.93 6.5733,-9.27981 14.4032,-16.33647 23.49,-21.17 9.0866,-5.02646 19.0432,-7.53979 29.87,-7.54 15.2732,2.1e-4 27.7432,3.19021 37.41,9.57 9.6665,6.18686 18.0765,15.75685 25.23,28.71 l -24.36,16.82 c -4.2535,-8.11984 -9.1835,-13.82316 -14.79,-17.11 -5.4135,-3.28649 -12.4701,-4.92982 -21.17,-4.93 -14.5001,1.8e-4 -25.8101,5.99351 -33.93,17.98 -7.9268,11.98681 -11.8901,30.64346 -11.89,55.97 -1e-4,10.82676 0.9666,20.78342 2.9,29.87 1.9332,9.08673 4.7366,17.01339 8.41,23.78 3.8666,6.573377 8.5066,11.793372 13.92,15.66 5.4132,3.673364 11.5032,5.510029 18.27,5.51 12.7599,2.9e-5 22.0398,-3.866634 27.84,-11.6 5.9932,-7.926618 8.9898,-18.84994 8.99,-32.77 l -33.93,0 0,-31.03 68.73,0 0,13.92 c -2e-4,12.76008 -1.5469,24.8434 -4.64,36.25 -3.0935,11.213376 -7.7335,21.073367 -13.92,29.58 -5.9935,8.506683 -13.4368,15.273343 -22.33,20.3 -8.8935,5.026666 -19.1401,7.539997 -30.74,7.54" /></g><g
         id="text148"
         transform="matrix(1,0,0,-1,-30,-10)"><path
           inkscape:connector-curvature="0"
           id="path4599"
           style="font-size:290px;font-variant:normal;font-weight:normal;writing-mode:lr-tb;fill:#000000;fill-opacity:1;fill-rule:nonzero;stroke:none;font-family:BlueHighwayD;-inkscape-font-specification:BlueHighwayD-Regular"
           d="m 1412.9321,-140.287 -67.86,0 0,91.35 -29,0 0,-208.22 29,0 0,86.13 67.86,0 0,-86.13 29,0 0,208.22 -29,0 0,-91.35" /></g><g
         id="text154"
         transform="matrix(1,0,0,-1,-30,-10)"><path
           inkscape:connector-curvature="0"
           id="path4596"
           style="font-size:290px;font-variant:normal;font-weight:normal;writing-mode:lr-tb;fill:#000000;fill-opacity:1;fill-rule:nonzero;stroke:none;font-family:BlueHighwayD;-inkscape-font-specification:BlueHighwayD-Regular"
           d="m 1543.5006,-257.157 29,0 0,208.22 -29,0 0,-208.22" /></g><g
         id="text160"
         transform="matrix(1,0,0,-1,-30,-10)"><path
           inkscape:connector-curvature="0"
           id="path4593"
           style="font-size:290px;font-variant:normal;font-weight:normal;writing-mode:lr-tb;fill:#000000;fill-opacity:1;fill-rule:nonzero;stroke:none;font-family:BlueHighwayD;-inkscape-font-specification:BlueHighwayD-Regular"
           d="m 160.22101,-525.15701 0,133.69 c -9e-5,10.82673 -1.54675,20.88005 -4.64,30.16 -2.90008,9.28003 -7.15341,17.30336 -12.76,24.07 -5.4134,6.76668 -12.08339,12.08334 -20.01,15.95 -7.73337,3.86667 -16.3367,5.8 -25.810001,5.8 -5.413349,0 -9.666678,-0.29 -12.76,-0.87 -3.093339,-0.38667 -5.220003,-0.77333 -6.38,-1.16 l 3.48,-29.29 c 4.253323,0.58003 8.409986,0.87003 12.47,0.87 12.373301,3e-5 21.749961,-3.76997 28.130001,-11.31 6.37995,-7.73329 9.56994,-20.58994 9.57,-38.57 l 0,-129.34 28.71,0" /></g><g
         id="text166"
         transform="matrix(1,0,0,-1,-30,-10)"><path
           inkscape:connector-curvature="0"
           id="path4590"
           style="font-size:290px;font-variant:normal;font-weight:normal;writing-mode:lr-tb;fill:#000000;fill-opacity:1;fill-rule:nonzero;stroke:none;font-family:BlueHighwayD;-inkscape-font-specification:BlueHighwayD-Regular"
           d="m 300.94127,-405.67701 -24.36,39.73 0,49.01 -29,0 0,-208.22 29,0 0,104.98 62.35,-104.98 34.51,0 -52.78,90.77 56.84,117.45 -35.67,0 -40.89,-88.74" /></g><g
         id="text172"
         transform="matrix(1,0,0,-1,-30,-10)"><path
           inkscape:connector-curvature="0"
           id="path4587"
           style="font-size:290px;font-variant:normal;font-weight:normal;writing-mode:lr-tb;fill:#000000;fill-opacity:1;fill-rule:nonzero;stroke:none;font-family:BlueHighwayD;-inkscape-font-specification:BlueHighwayD-Regular"
           d="m 437.02219,-525.15701 29,0 0,177.48 75.69,0 0,30.74 -104.69,0 0,-208.22" /></g><g
         id="text178"
         transform="matrix(1,0,0,-1,-30,-10)"><path
           inkscape:connector-curvature="0"
           id="path4584"
           style="font-size:290px;font-variant:normal;font-weight:normal;writing-mode:lr-tb;fill:#000000;fill-opacity:1;fill-rule:nonzero;stroke:none;font-family:BlueHighwayD;-inkscape-font-specification:BlueHighwayD-Regular"
           d="m 710.85071,-459.03701 -45.53,142.1 -1.45,0 -48.43,-142.39 0,142.39 -29,0 0,-208.22 39.44,0 38.86,120.06 37.7,-120.06 37.12,0 0,208.22 -28.71,0 0,-142.1" /></g><g
         id="text184"
         transform="matrix(1,0,0,-1,-30,-10)"><path
           inkscape:connector-curvature="0"
           id="path4581"
           style="font-size:290px;font-variant:normal;font-weight:normal;writing-mode:lr-tb;fill:#000000;fill-opacity:1;fill-rule:nonzero;stroke:none;font-family:BlueHighwayD;-inkscape-font-specification:BlueHighwayD-Regular"
           d="m 806.6205,-465.12701 0,148.19 -28.71,0 0,-208.22 35.38,0 63.8,142.1 0,-142.1 29,0 0,208.22 -32.77,0 -66.7,-148.19" /></g><g
         id="text190"
         transform="matrix(1,0,0,-1,-30,-10)"><path
           inkscape:connector-curvature="0"
           id="path4578"
           style="font-size:290px;font-variant:normal;font-weight:normal;writing-mode:lr-tb;fill:#000000;fill-opacity:1;fill-rule:nonzero;stroke:none;font-family:BlueHighwayD;-inkscape-font-specification:BlueHighwayD-Regular"
           d="m 1020.8563,-314.03701 c -11.0201,0 -21.07343,-2.41667 -30.16003,-7.25 -8.89338,-5.02666 -16.62671,-12.08332 -23.2,-21.17 -6.57336,-9.27997 -11.69669,-20.49329 -15.37,-33.64 -3.48001,-13.33993 -5.22001,-28.32325 -5.22,-44.95 -10e-6,-16.81988 1.73999,-31.8032 5.22,-44.95 3.67331,-13.33984 8.79664,-24.55316 15.37,-33.64 6.57329,-9.27981 14.30662,-16.33647 23.2,-21.17 9.0866,-4.83313 19.13993,-7.24979 30.16003,-7.25 11.0199,2.1e-4 21.0732,2.41687 30.16,7.25 9.0865,4.83353 16.9165,11.89019 23.49,21.17 6.5732,9.08684 11.5998,20.30016 15.08,33.64 3.6731,13.1468 5.5098,28.13012 5.51,44.95 -2e-4,16.62675 -1.8369,31.61007 -5.51,44.95 -3.4802,13.14671 -8.5068,24.36003 -15.08,33.64 -6.5735,9.08668 -14.4035,16.14334 -23.49,21.17 -9.0868,4.83333 -19.1401,7.25 -30.16,7.25 m 0,-32.48 c 13.3399,3e-5 24.2632,-6.08997 32.77,-18.27 8.6998,-12.17994 13.0498,-30.93326 13.05,-56.26 -2e-4,-25.32654 -3.9635,-44.07985 -11.89,-56.26 -7.9268,-12.37316 -19.2368,-18.55982 -33.93,-18.56 -14.5001,1.8e-4 -25.71342,6.18684 -33.64003,18.56 -7.92671,12.18015 -11.89004,30.93346 -11.89,56.26 -4e-5,25.32674 4.25329,44.08006 12.76,56.26 8.5066,12.18003 19.42993,18.27003 32.77003,18.27" /></g><g
         id="text196"
         transform="matrix(1,0,0,-1,-30,-10)"><path
           inkscape:connector-curvature="0"
           id="path4575"
           style="font-size:290px;font-variant:normal;font-weight:normal;writing-mode:lr-tb;fill:#000000;fill-opacity:1;fill-rule:nonzero;stroke:none;font-family:BlueHighwayD;-inkscape-font-specification:BlueHighwayD-Regular"
           d="m 1172.7406,-494.12701 0,64.38 38.28,0 c 9.4732,1.1e-4 16.3365,-2.60989 20.59,-7.83 4.2532,-5.21988 6.3799,-13.04987 6.38,-23.49 -10e-5,-11.01985 -2.1268,-19.23651 -6.38,-24.65 -4.2535,-5.60649 -11.1168,-8.40982 -20.59,-8.41 l -38.28,0 m 0,95.12 0,82.07 -29,0 0,-208.22 64.96,0 c 8.3132,2.1e-4 16.0465,1.35354 23.2,4.06 7.1532,2.51353 13.2432,6.3802 18.27,11.6 5.2198,5.22019 9.2798,11.79351 12.18,19.72 2.8998,7.92683 4.3498,17.20682 4.35,27.84 -2e-4,20.49346 -5.3168,36.15344 -15.95,46.98 -10.4401,10.63342 -24.4568,15.95008 -42.05,15.95 l -35.96,0" /></g><g
         id="text202"
         transform="matrix(1,0,0,-1,-30,-10)"><path
           inkscape:connector-curvature="0"
           id="path4572"
           style="font-size:290px;font-variant:normal;font-weight:normal;writing-mode:lr-tb;fill:#000000;fill-opacity:1;fill-rule:nonzero;stroke:none;font-family:BlueHighwayD;-inkscape-font-specification:BlueHighwayD-Regular"
           d="m 1378.8563,-314.03701 c -11.02,0 -21.0734,-2.41667 -30.16,-7.25 -8.8934,-5.02666 -16.6267,-12.08332 -23.2,-21.17 -6.5733,-9.27997 -11.6967,-20.49329 -15.37,-33.64 -3.48,-13.33993 -5.22,-28.32325 -5.22,-44.95 0,-16.81988 1.74,-31.8032 5.22,-44.95 3.6733,-13.33984 8.7967,-24.55316 15.37,-33.64 6.5733,-9.27981 14.3066,-16.33647 23.2,-21.17 9.0866,-4.83313 19.14,-7.24979 30.16,-7.25 11.0199,2.1e-4 21.0733,2.41687 30.16,7.25 9.0866,4.83353 16.9166,11.89019 23.49,21.17 6.5732,9.08684 11.5999,20.30016 15.08,33.64 3.6732,13.1468 5.5099,28.13012 5.51,44.95 -10e-5,17.59342 -2.0301,33.15674 -6.09,46.69 -3.8668,13.34004 -9.2801,24.65003 -16.24,33.93 l 13.92,20.3 -20.59,18.56 -13.05,-20.88 c -9.6667,5.60666 -20.3967,8.41 -32.19,8.41 m 0,-31.32 c 5.7999,3e-5 11.0199,-1.06331 15.66,-3.19 l -25.81,-37.99 20.3,-19.43 24.94,39.44 c 3.8666,-6.18661 6.5732,-13.72661 8.12,-22.62 1.7399,-9.08659 2.6099,-19.71991 2.61,-31.9 -10e-5,-25.32654 -3.9634,-44.07985 -11.89,-56.26 -7.9267,-12.37316 -19.2367,-18.55982 -33.93,-18.56 -14.5,1.8e-4 -25.7134,6.18684 -33.64,18.56 -7.9267,12.18015 -11.89,30.93346 -11.89,56.26 0,25.13341 4.2533,44.08006 12.76,56.84 8.5066,12.5667 19.43,18.85003 32.77,18.85" /></g><g
         id="text208"
         transform="matrix(1,0,0,-1,-30,-10)"><path
           inkscape:connector-curvature="0"
           id="path4569"
           style="font-size:290px;font-variant:normal;font-weight:normal;writing-mode:lr-tb;fill:#000000;fill-opacity:1;fill-rule:nonzero;stroke:none;font-family:BlueHighwayD;-inkscape-font-specification:BlueHighwayD-Regular"
           d="m 1529.1454,-494.12701 0,64.38 38.28,0 c 9.4732,1.1e-4 16.3365,-2.60989 20.59,-7.83 4.2532,-5.21988 6.3798,-13.04987 6.38,-23.49 -2e-4,-11.01985 -2.1268,-19.23651 -6.38,-24.65 -4.2535,-5.60649 -11.1168,-8.40982 -20.59,-8.41 l -38.28,0 m 29.87,95.12 -29.87,0 0,82.07 -29,0 0,-208.22 64.96,0 c 19.3332,2.1e-4 33.8332,5.60687 43.5,16.82 9.6665,11.02018 14.4998,26.48683 14.5,46.4 -2e-4,15.08013 -3.0935,27.45345 -9.28,37.12 -6.1868,9.66676 -14.7902,16.43342 -25.81,20.3 l 35.38,87.58 -31.32,0 -33.06,-82.07" /></g><g
         id="text214"
         transform="matrix(1,0,0,-1,-30,-10)"><path
           inkscape:connector-curvature="0"
           id="path4566"
           style="font-size:290px;font-variant:normal;font-weight:normal;writing-mode:lr-tb;fill:#000000;fill-opacity:1;fill-rule:nonzero;stroke:none;font-family:BlueHighwayD;-inkscape-font-specification:BlueHighwayD-Regular"
           d="m 78.875071,-629.88701 c 6.186637,4.64004 12.759964,8.5067 19.72,11.6 7.153279,3.09336 15.659939,4.64003 25.519999,4.64 9.47326,3e-5 17.01325,-2.2233 22.62,-6.67 5.60657,-4.63996 8.4099,-11.01996 8.41,-19.14 -1e-4,-7.34661 -2.70676,-13.82327 -8.12,-19.43 -5.22009,-5.79992 -13.14674,-12.27658 -23.78,-19.43 -6.76673,-4.44657 -14.01672,-9.2799 -21.75,-14.5 -7.540038,-5.41322 -14.306698,-11.79322 -20.299999,-19.14 -4.060022,-5.02654 -6.960019,-9.95653 -8.7,-14.79 -1.740016,-5.02652 -2.610015,-11.59985 -2.61,-19.72 -1.5e-5,-8.11983 1.54665,-15.27316 4.64,-21.46 3.093311,-6.18648 7.153307,-11.30981 12.18,-15.37 5.219963,-4.25313 11.116624,-7.44313 17.689999,-9.57 6.76661,-2.12646 13.7266,-3.18979 20.88,-3.19 10.82659,2.1e-4 20.78324,1.35354 29.87,4.06 9.27989,2.51354 15.85322,6.0902 19.72,10.73 l -7.83,31.9 c -4.64011,-4.4465 -10.24677,-7.9265 -16.82,-10.44 -6.57342,-2.51316 -14.21008,-3.76982 -22.91,-3.77 -8.8934,1.8e-4 -15.95006,1.83684 -21.17,5.51 -5.02671,3.48017 -7.540042,8.50683 -7.539999,15.08 -4.3e-5,3.67349 0.966622,7.15348 2.899999,10.44 2.12662,3.09348 4.63995,6.09014 7.54,8.99 3.09328,2.7068 6.47661,5.22013 10.15,7.54 3.67327,2.32013 7.15326,4.54346 10.44,6.67 7.73325,5.02678 14.88658,9.86011 21.46,14.5 6.76657,4.6401 12.56656,9.5701 17.4,14.79 4.83322,5.02676 8.60321,10.63342 11.31,16.82 2.89987,5.9934 4.34987,12.9534 4.35,20.88 -1.3e-4,9.28005 -1.54679,17.69004 -4.64,25.23 -3.09345,7.34669 -7.34678,13.63002 -12.76,18.85 -5.41344,5.22001 -11.79343,9.28 -19.14,12.18 -7.34675,2.70666 -15.27341,4.06 -23.78,4.06 -12.37339,0 -23.10338,-1.64334 -32.189999,-4.93 -9.086694,-3.28666 -16.916686,-7.44333 -23.49,-12.47 l 10.73,-30.45" /></g><g
         id="text220"
         transform="matrix(1,0,0,-1,-30,-10)"><path
           inkscape:connector-curvature="0"
           id="path4563"
           style="font-size:290px;font-variant:normal;font-weight:normal;writing-mode:lr-tb;fill:#000000;fill-opacity:1;fill-rule:nonzero;stroke:none;font-family:BlueHighwayD;-inkscape-font-specification:BlueHighwayD-Regular"
           d="m 320.95142,-584.93701 -31.61,0 0,-177.19 -47.85,0 0,-31.03 126.73,0 0,31.03 -47.27,0 0,177.19" /></g><g
         id="text226"
         transform="matrix(1,0,0,-1,-30,-10)"><path
           inkscape:connector-curvature="0"
           id="path4560"
           style="font-size:290px;font-variant:normal;font-weight:normal;writing-mode:lr-tb;fill:#000000;fill-opacity:1;fill-rule:nonzero;stroke:none;font-family:BlueHighwayD;-inkscape-font-specification:BlueHighwayD-Regular"
           d="m 485.16145,-582.03701 c -10.0534,0 -19.04339,-1.83667 -26.97,-5.51 -7.73338,-3.67333 -14.40337,-8.89332 -20.01,-15.66 -5.41336,-6.76664 -9.57002,-14.88664 -12.47,-24.36 -2.90002,-9.66662 -4.35002,-20.39661 -4.35,-32.19 l 0,-133.4 28.71,0 0,133.4 c -4e-5,17.40006 2.99662,29.58004 8.99,36.54 5.99327,6.96003 14.69327,10.44003 26.1,10.44 10.82658,3e-5 19.04324,-3.47997 24.65,-10.44 5.60656,-6.95996 8.40989,-19.13994 8.41,-36.54 l 0,-133.4 28.71,0 0,133.4 c -1.4e-4,11.60006 -1.35347,22.23338 -4.06,31.9 -2.7068,9.47337 -6.67013,17.69002 -11.89,24.65 -5.22012,6.76668 -11.69678,11.98667 -19.43,15.66 -7.5401,3.67333 -16.33676,5.51 -26.39,5.51" /></g><g
         id="text232"
         transform="matrix(1,0,0,-1,-30,-10)"><path
           inkscape:connector-curvature="0"
           id="path4557"
           style="font-size:290px;font-variant:normal;font-weight:normal;writing-mode:lr-tb;fill:#000000;fill-opacity:1;fill-rule:nonzero;stroke:none;font-family:BlueHighwayD;-inkscape-font-specification:BlueHighwayD-Regular"
           d="m 644.87635,-584.93701 -55.39,-208.22 33.35,0 40.02,164.43 40.02,-164.43 33.35,0 -56.55,208.22 -34.8,0" /></g><g
         id="text238"
         transform="matrix(0.95902088,0,0,-1,4.7581678,-10)"><path
           inkscape:connector-curvature="0"
           id="path4554"
           style="font-size:290px;font-variant:normal;font-weight:normal;writing-mode:lr-tb;fill:#000000;fill-opacity:1;fill-rule:nonzero;stroke:none;font-family:BlueHighwayCondensed;-inkscape-font-specification:BlueHighwayCondensed-Regular"
           d="m 790.81691,-584.93701 -29.29,-208.22 29,0 18.27,140.65 18.56,-140.65 29.29,0 17.98,140.07 18.56,-140.07 29.29,0 -30.45,208.22 -35.67,0 -15.08,-108.46 -16.24,108.46 -34.22,0" /></g><g
         id="text244"
         transform="matrix(1,0,0,-1,-30,-10)"><path
           inkscape:connector-curvature="0"
           id="path4551"
           style="font-size:290px;font-variant:normal;font-weight:normal;writing-mode:lr-tb;fill:#000000;fill-opacity:1;fill-rule:nonzero;stroke:none;font-family:BlueHighwayD;-inkscape-font-specification:BlueHighwayD-Regular"
           d="m 1039.1262,-688.75701 51.33,103.82 -33.64,0 -36.83,-75.69 -37.12,75.69 -33.35,0 51.91,-104.98 -51.91,-103.24 34.22,0 37.7,73.95 37.99,-73.95 33.06,0 -53.36,104.4" /></g><g
         id="text250"
         transform="matrix(1,0,0,-1,-30,-10)"><path
           inkscape:connector-curvature="0"
           id="path4548"
           style="font-size:290px;font-variant:normal;font-weight:normal;writing-mode:lr-tb;fill:#000000;fill-opacity:1;fill-rule:nonzero;stroke:none;font-family:BlueHighwayD;-inkscape-font-specification:BlueHighwayD-Regular"
           d="m 1215.8062,-584.93701 -31.32,0 0,-78.88 -53.94,-129.34 32.48,0 37.41,93.96 37.12,-93.96 32.19,0 -53.94,128.76 0,79.46" /></g><g
         id="text256"
         transform="matrix(1,0,0,-1,-30,-10)"><path
           inkscape:connector-curvature="0"
           id="path4545"
           style="font-size:290px;font-variant:normal;font-weight:normal;writing-mode:lr-tb;fill:#000000;fill-opacity:1;fill-rule:nonzero;stroke:none;font-family:BlueHighwayD;-inkscape-font-specification:BlueHighwayD-Regular"
           d="m 1321.8706,-616.54701 83.52,-147.61 -83.52,0 0,-29 115.71,0 0,32.19 -83.52,147.32 84.1,0 0,28.71 -116.29,0 0,-31.61" /></g><g
         id="text262"
         transform="matrix(1,0,0,-1,-30,-10)"><path
           inkscape:connector-curvature="0"
           id="path4542"
           style="font-size:290px;font-variant:normal;font-weight:normal;writing-mode:lr-tb;fill:#000000;fill-opacity:1;fill-rule:nonzero;stroke:none;font-family:BlueHighwayD;-inkscape-font-specification:BlueHighwayD-Regular"
           d="m 1558.5821,-584.93701 c -4.4467,0 -8.2167,-2.03 -11.31,-6.09 -2.9001,-4.25332 -4.3501,-9.18332 -4.35,-14.79 -10e-5,-5.99331 1.4499,-11.01997 4.35,-15.08 3.0933,-4.05996 6.8633,-6.08996 11.31,-6.09 3.8666,4e-5 7.2499,2.03004 10.15,6.09 2.8999,4.06003 4.3499,9.08669 4.35,15.08 -10e-5,5.60668 -1.4501,10.53668 -4.35,14.79 -2.9001,4.06 -6.2834,6.09 -10.15,6.09 m 0,-113.1 c -4.4467,1.1e-4 -8.2167,-2.02989 -11.31,-6.09 -2.9001,-4.05988 -4.3501,-8.98987 -4.35,-14.79 -10e-5,-5.79986 1.4499,-10.72986 4.35,-14.79 3.0933,-4.05985 6.8633,-6.08985 11.31,-6.09 3.8666,1.5e-4 7.2499,2.03015 10.15,6.09 2.8999,4.06014 4.3499,8.99014 4.35,14.79 -10e-5,5.80013 -1.4501,10.73012 -4.35,14.79 -2.9001,4.06011 -6.2834,6.09011 -10.15,6.09" /></g><g
         id="text268"
         transform="matrix(1,0,0,-1,-30,-10)"><path
           inkscape:connector-curvature="0"
           id="path4539"
           style="font-size:290px;font-variant:normal;font-weight:normal;writing-mode:lr-tb;fill:#000000;fill-opacity:1;fill-rule:nonzero;stroke:none;font-family:BlueHighwayD;-inkscape-font-specification:BlueHighwayD-Regular"
           d="m 125.56553,-852.93701 c -5.02669,0 -8.99002,-2.03 -11.89,-6.09 -2.90001,-4.25332 -4.35001,-9.18332 -4.35,-14.79 -1e-5,-5.99331 1.44999,-11.01997 4.35,-15.08 2.89998,-4.05996 6.86331,-6.08996 11.89,-6.09 4.44663,4e-5 8.3133,2.03004 11.6,6.09 3.47996,4.06003 5.21995,9.08669 5.22,15.08 -5e-5,5.60668 -1.74004,10.53668 -5.22,14.79 -3.2867,4.06 -7.15337,6.09 -11.6,6.09" /></g><g
         id="text274"
         transform="matrix(1,0,0,-1,-30,-10)"><path
           inkscape:connector-curvature="0"
           id="path4536"
           style="font-size:290px;font-variant:normal;font-weight:normal;writing-mode:lr-tb;fill:#000000;fill-opacity:1;fill-rule:nonzero;stroke:none;font-family:BlueHighwayD;-inkscape-font-specification:BlueHighwayD-Regular"
           d="m 304.85702,-1033.897 c -13.92007,2e-4 -23.87673,6.4768 -29.87,19.43 -5.80005,12.9535 -8.70005,32.09345 -8.7,57.41999 -5e-5,26.10008 3.09328,45.24006 9.28,57.42 6.18661,12.18003 15.94993,18.27003 29.29,18.27 13.53324,3e-5 23.39323,-6.08997 29.58,-18.27 6.37988,-12.17994 9.56988,-31.31992 9.57,-57.42 -1.2e-4,-25.32654 -2.90012,-44.46649 -8.7,-57.41999 -5.60678,-12.9532 -15.75677,-19.4298 -30.45,-19.43 m 0,183.85999 c -21.6534,0 -38.28005,-9.08666 -49.88,-27.26 -11.60002,-18.36663 -17.40002,-44.94993 -17.4,-79.75 -2e-5,-34.60653 5.70331,-61.09319 17.11,-79.45999 11.59995,-18.3665 28.2266,-27.5498 49.88,-27.55 22.23323,2e-4 39.05321,9.1835 50.46,27.55 11.59985,18.1735 17.39985,44.66013 17.4,79.45999 -1.5e-4,34.80007 -5.60681,61.38337 -16.82,79.75 -11.21346,18.17334 -28.13011,27.26 -50.75,27.26" /></g><g
         id="text280"
         transform="matrix(1,0,0,-1,-30,-10)"><path
           inkscape:connector-curvature="0"
           id="path4533"
           style="font-size:290px;font-variant:normal;font-weight:normal;writing-mode:lr-tb;fill:#000000;fill-opacity:1;fill-rule:nonzero;stroke:none;font-family:BlueHighwayD;-inkscape-font-specification:BlueHighwayD-Regular"
           d="m 472.98,-1013.887 -15.66,0 0,-28.42 c 5.79998,-0.3865 10.72998,-2.2232 14.79,-5.51 4.2533,-3.2865 6.8633,-7.7331 7.83,-13.34 l 21.75,0 0,208.21999 -28.71,0 0,-160.94999" /></g><g
         id="text286"
         transform="matrix(1,0,0,-1,-30,-10)"><path
           inkscape:connector-curvature="0"
           id="path4530"
           style="font-size:290px;font-variant:normal;font-weight:normal;writing-mode:lr-tb;fill:#000000;fill-opacity:1;fill-rule:nonzero;stroke:none;font-family:BlueHighwayD;-inkscape-font-specification:BlueHighwayD-Regular"
           d="m 608.91684,-869.46701 c -2e-5,-11.79331 0.77331,-22.2333 2.32,-31.32 1.73998,-9.08661 4.34997,-17.2066 7.83,-24.36 3.47997,-7.15326 7.82996,-13.53325 13.05,-19.14 5.41328,-5.60657 11.79328,-10.7299 19.14,-15.37 5.0266,-3.28656 9.95659,-5.99322 14.79,-8.12 4.83325,-2.31988 9.08658,-5.21988 12.76,-8.7 3.67324,-3.47987 5.99324,-7.1532 6.96,-11.02 1.1599,-3.86653 1.7399,-9.18319 1.74,-15.94999 -10e-5,-8.6999 -1.7401,-15.3698 -5.22,-20.01 -3.48009,-4.8332 -9.57008,-7.2498 -18.27,-7.25 -7.34673,2e-4 -13.82339,1.4502 -19.43,4.35 -5.41338,2.9002 -10.53671,8.7002 -15.37,17.4 l -19.14,-26.97 c 6.76664,-9.4732 14.49996,-16.5298 23.2,-21.17 8.89328,-4.6398 19.71994,-6.9598 32.48,-6.96 7.53992,2e-4 14.40324,1.3535 20.59,4.06 6.18656,2.5135 11.50322,6.2835 15.95,11.31 4.63988,5.0268 8.21655,11.2135 10.73,18.56 2.51321,7.3468 3.76987,15.6601 3.77,24.94 -1.3e-4,9.86013 -1.25679,18.36679 -3.77,25.51999 -2.32012,7.15345 -5.60678,13.43678 -9.86,18.85 -4.06011,5.2201 -8.89344,9.95676 -14.5,14.21 -5.60676,4.06009 -11.60009,7.92675 -17.98,11.6 -11.02007,6.38007 -18.65673,13.72673 -22.91,22.04 -4.06005,8.31338 -6.09005,18.07671 -6.09,29.29 l 75.11,0 0,30.74 -107.88,0 0,-16.53" /></g><g
         id="text292"
         transform="matrix(1,0,0,-1,-30,-10)"><path
           inkscape:connector-curvature="0"
           id="path4527"
           style="font-size:290px;font-variant:normal;font-weight:normal;writing-mode:lr-tb;fill:#000000;fill-opacity:1;fill-rule:nonzero;stroke:none;font-family:BlueHighwayD;-inkscape-font-specification:BlueHighwayD-Regular"
           d="m 839.68106,-850.03701 c -24.36004,0 -41.27669,-9.85999 -50.75,-29.58 l 24.07,-18.85 c 2.31996,5.6067 5.60663,10.05337 9.86,13.34 4.44662,3.09336 10.05328,4.64003 16.82,4.64 8.11993,3e-5 14.40326,-3.0933 18.85,-9.28 4.63992,-6.18663 6.95991,-14.20995 6.96,-24.07 -9e-5,-12.75993 -2.41675,-21.94325 -7.25,-27.55 -4.83341,-5.79991 -11.60007,-8.6999 -20.3,-8.7 l -10.73,0 0,-30.74 10.73,0 c 7.15327,1.3e-4 12.2766,-2.2232 15.37,-6.67 3.09326,-4.63986 4.63992,-11.69652 4.64,-21.16999 -8e-5,-7.3465 -1.45008,-13.2432 -4.35,-17.69 -2.90007,-4.6398 -7.7334,-6.9598 -14.5,-6.96 -5.60672,2e-4 -9.66672,1.1602 -12.18,3.48 -2.32004,2.1268 -4.64004,5.1235 -6.96,8.99 l -23.49,-10.15 c 0.77332,-3.6732 2.31998,-7.4432 4.64,-11.31 2.31998,-3.8665 5.31664,-7.3465 8.99,-10.44 3.86663,-3.2865 8.21663,-5.9931 13.05,-8.12 5.02662,-2.1265 10.53661,-3.1898 16.53,-3.19 6.1866,2e-4 11.9866,1.1602 17.4,3.48 5.41325,2.3202 10.14991,5.7035 14.21,10.15 4.0599,4.4468 7.2499,10.0535 9.57,16.82 2.3199,6.5735 3.4799,14.2102 3.48,22.91 -10e-5,11.02014 -1.64344,20.01013 -4.93,26.96999 -3.09343,6.96012 -7.73342,12.47012 -13.92,16.53 3.47991,1.35344 6.95991,3.57678 10.44,6.67 3.4799,3.09344 6.57323,6.9601 9.28,11.6 2.89989,4.44676 5.12322,9.66675 6.67,15.66 1.73989,5.80007 2.60989,12.18007 2.61,19.14 -1.1e-4,9.28005 -1.25678,17.88337 -3.77,25.81 -2.51344,7.92669 -6.0901,14.69335 -10.73,20.3 -4.6401,5.60667 -10.34342,10.05334 -17.11,13.34 -6.76674,3.09333 -14.50007,4.64 -23.2,4.64" /></g><g
         id="text298"
         transform="matrix(1,0,0,-1,-30,-10)"><path
           inkscape:connector-curvature="0"
           id="path4524"
           style="font-size:290px;font-variant:normal;font-weight:normal;writing-mode:lr-tb;fill:#000000;fill-opacity:1;fill-rule:nonzero;stroke:none;font-family:BlueHighwayD;-inkscape-font-specification:BlueHighwayD-Regular"
           d="m 990.98585,-937.32701 41.76005,0 0,-75.39999 -41.76005,75.39999 m 70.18005,84.39 -28.42,0 0,-53.94 -74.82005,0 0,-26.1 73.95005,-128.17999 29.29,0 0,123.82999 19.14,0 0,30.45 -19.14,0 0,53.94" /></g><g
         id="text304"
         transform="matrix(1,0,0,-1,-30,-10)"><path
           inkscape:connector-curvature="0"
           id="path4521"
           style="font-size:290px;font-variant:normal;font-weight:normal;writing-mode:lr-tb;fill:#000000;fill-opacity:1;fill-rule:nonzero;stroke:none;font-family:BlueHighwayD;-inkscape-font-specification:BlueHighwayD-Regular"
           d="m 1195.3619,-850.03701 c -13.34,0 -23.8767,-1.45 -31.61,-4.35 -7.54,-2.9 -14.21,-6.86333 -20.01,-11.89 l 14.5,-30.74 c 6.7666,5.41337 13.05,9.28003 18.85,11.6 5.9933,2.1267 11.8899,3.19003 17.69,3.19 10.4399,3e-5 18.8499,-3.28664 25.23,-9.86 6.3799,-6.57329 9.5699,-16.23995 9.57,-29 -10e-5,-13.53325 -2.8034,-23.68324 -8.41,-30.45 -5.6067,-6.76656 -12.4701,-10.14989 -20.59,-10.15 -4.8334,1.1e-4 -9.5701,1.16011 -14.21,3.48 -4.64,2.3201 -9.0867,6.0901 -13.34,11.31 l -26.68,-12.76 7.25,-101.49999 92.8,0 0,31.03 -66.7,0 -4.06,48.13999 c 3.8666,-3.86654 8.12,-6.66987 12.76,-8.41 4.6399,-1.9332 9.3766,-2.89986 14.21,-2.9 17.5933,1.4e-4 31.1266,6.38013 40.6,19.14 9.4732,12.76011 14.2099,30.54676 14.21,53.36 -10e-5,11.60005 -1.5468,21.84671 -4.64,30.74 -3.0934,8.70003 -7.4434,16.04669 -13.05,22.04 -5.4134,5.99334 -11.9868,10.53667 -19.72,13.63 -7.5401,2.9 -15.7567,4.35 -24.65,4.35" /></g><g
         id="text310"
         transform="matrix(1,0,0,-1,-30,-10)"><path
           inkscape:connector-curvature="0"
           id="path4518"
           style="font-size:290px;font-variant:normal;font-weight:normal;writing-mode:lr-tb;fill:#000000;fill-opacity:1;fill-rule:nonzero;stroke:none;font-family:BlueHighwayD;-inkscape-font-specification:BlueHighwayD-Regular"
           d="m 1380.8858,-959.36701 c -8.8933,1e-4 -15.7567,3.4801 -20.59,10.44 -4.8333,6.96009 -7.25,16.53008 -7.25,28.71 0,12.18005 2.1267,21.84671 6.38,29 4.4467,7.15336 11.1167,10.73003 20.01,10.73 8.8933,3e-5 15.8533,-3.47997 20.88,-10.44 5.22,-7.15329 7.83,-16.81995 7.83,-29 0,-12.17992 -2.5134,-21.74991 -7.54,-28.71 -4.8334,-7.15323 -11.4067,-10.7299 -19.72,-10.73 m -3.19,109.33 c -8.12,0 -15.4667,-1.93334 -22.04,-5.8 -6.5733,-3.86666 -12.18,-9.37666 -16.82,-16.53 -4.4466,-7.15331 -7.9266,-15.8533 -10.44,-26.1 -2.5133,-10.24661 -3.77,-21.74993 -3.77,-34.51 0,-17.01324 1.9334,-33.15656 5.8,-48.43 3.8667,-15.27319 9.1834,-28.70989 15.95,-40.30999 6.7667,-11.5998 14.79,-20.9765 24.07,-28.13 9.4733,-7.1531 19.72,-11.2131 30.74,-12.18 l 4.64,29 c -6.38,1.5468 -12.47,3.7702 -18.27,6.67 -5.8,2.9002 -11.1167,6.8635 -15.95,11.89 -4.64,5.0268 -8.7,11.3101 -12.18,18.84999 -3.2867,7.3468 -5.7033,16.33679 -7.25,26.97 1.74,-2.51322 3.8667,-4.92988 6.38,-7.25 2.7067,-2.51321 5.51,-4.63987 8.41,-6.38 3.0933,-1.9332 6.2833,-3.47987 9.57,-4.64 3.2866,-1.15987 6.4766,-1.73987 9.57,-1.74 6.96,1.3e-4 13.34,1.64347 19.14,4.93 5.9933,3.09346 11.1166,7.63679 15.37,13.63 4.2533,5.80011 7.5399,12.7601 9.86,20.88 2.5133,8.12009 3.7699,17.11008 3.77,26.97 -10e-5,23.97338 -5.1234,42.05003 -15.37,54.23 -10.0534,11.98667 -23.78,17.98 -41.18,17.98" /></g><g
         id="text316"
         transform="matrix(1,0,0,-1,-30,-10)"><path
           inkscape:connector-curvature="0"
           id="path4515"
           style="font-size:290px;font-variant:normal;font-weight:normal;writing-mode:lr-tb;fill:#000000;fill-opacity:1;fill-rule:nonzero;stroke:none;font-family:BlueHighwayD;-inkscape-font-specification:BlueHighwayD-Regular"
           d="m 1528.5652,-852.93701 c 0.7732,-17.59332 2.5132,-34.89663 5.22,-51.91 2.7066,-17.2066 6.2832,-33.44658 10.73,-48.72 4.6399,-15.46655 10.0532,-29.67654 16.24,-42.63 6.3799,-13.14649 13.5332,-24.45649 21.46,-33.92999 l -78.01,0 0,-31.03 110.2,0 0,35.67 c -8.1202,8.3135 -15.5635,18.7535 -22.33,31.31999 -6.5735,12.37346 -12.2768,26.10011 -17.11,41.18 -4.8335,15.08008 -8.6035,31.2234 -11.31,48.43 -2.7068,17.01337 -4.1568,34.22002 -4.35,51.62 l -30.74,0" /></g><g
         id="text322"
         transform="matrix(1,0,0,-1,-30,-10)"><path
           inkscape:connector-curvature="0"
           id="path4512"
           style="font-size:290px;font-variant:normal;font-weight:normal;writing-mode:lr-tb;fill:#000000;fill-opacity:1;fill-rule:nonzero;stroke:none;font-family:BlueHighwayD;-inkscape-font-specification:BlueHighwayD-Regular"
           d="m 127.01681,-1222.727 c -20.10672,1e-4 -30.160041,12.9534 -30.160001,38.86 -4e-5,12.18 2.706624,21.46 8.120001,27.84 5.41328,6.1867 12.75994,9.28 22.04,9.28 9.27992,0 16.52991,-2.8033 21.75,-8.41 5.2199,-5.8 7.8299,-15.37 7.83,-28.71 -1e-4,-13.3399 -2.3201,-23.1033 -6.96,-29.29 -4.64009,-6.3799 -12.18008,-9.5699 -22.62,-9.57 m 0,-80.91 c -7.54006,2e-4 -12.95339,2.4168 -16.24,7.25 -3.09339,4.6402 -4.64005,11.1168 -4.64,19.43 -5e-5,16.6268 6.95994,24.9401 20.88,24.94 6.18659,10e-5 10.92325,-2.3199 14.21,-6.96 3.28658,-4.6399 4.92991,-10.6332 4.93,-17.98 -9e-5,-8.3132 -1.45009,-14.7898 -4.35,-19.43 -2.70675,-4.8332 -7.63675,-7.2498 -14.79,-7.25 m -0.87,185.6 c -8.50673,0 -16.24005,-1.45 -23.2,-4.35 -6.766707,-2.9 -12.566702,-7.1533 -17.400001,-12.76 -4.833358,-5.6067 -8.603354,-12.3733 -11.31,-20.3 -2.706682,-8.12 -4.060014,-17.4 -4.06,-27.84 -1.4e-5,-6.9599 0.676652,-13.5333 2.03,-19.72 1.546649,-6.3799 3.576647,-12.0833 6.09,-17.11 2.706642,-5.2199 5.799972,-9.5699 9.28,-13.05 3.673299,-3.4799 7.539961,-5.8966 11.6,-7.25 -6.186703,-5.0266 -10.536699,-11.0199 -13.05,-17.98 -2.51336,-7.1532 -3.770026,-14.7899 -3.77,-22.91 -2.6e-5,-15.6598 3.866637,-28.0332 11.6,-37.12 7.926621,-9.0865 18.559941,-13.6298 31.900001,-13.63 14.11325,2e-4 25.2299,4.1569 33.35,12.47 8.31322,8.1202 12.46988,20.9768 12.47,38.57 -1.2e-4,8.3135 -1.35345,16.1435 -4.06,23.49 -2.70678,7.1535 -7.73344,13.3401 -15.08,18.56 4.83323,1.1601 9.18323,3.5768 13.05,7.25 3.86655,3.4801 7.05655,7.7334 9.57,12.76 2.70654,5.0267 4.73654,10.6334 6.09,16.82 1.35321,6.1867 2.02987,12.4701 2.03,18.85 -1.3e-4,21.0734 -5.12346,37.2167 -15.37,48.43 -10.24677,11.2133 -24.16675,16.82 -41.76,16.82" /></g><g
         id="text328"
         transform="matrix(1,0,0,-1,-30,-10)"><path
           inkscape:connector-curvature="0"
           id="path4509"
           style="font-size:290px;font-variant:normal;font-weight:normal;writing-mode:lr-tb;fill:#000000;fill-opacity:1;fill-rule:nonzero;stroke:none;font-family:BlueHighwayD;-inkscape-font-specification:BlueHighwayD-Regular"
           d="m 302.97219,-1221.857 c 8.89326,10e-5 15.65992,-3.3832 20.3,-10.15 4.83325,-6.9599 7.24991,-16.5299 7.25,-28.71 -9e-5,-12.1799 -2.22342,-21.8465 -6.67,-29 -4.44674,-7.3465 -11.02007,-11.0198 -19.72,-11.02 -8.70005,2e-4 -15.56338,3.6735 -20.59,11.02 -4.83337,7.1535 -7.25003,16.6268 -7.25,28.42 -3e-5,12.1801 2.2233,21.8468 6.67,29 4.63995,6.9601 11.30995,10.4401 20.01,10.44 m 3.77,-110.2 c 8.31326,2e-4 15.65992,2.0302 22.04,6.09 6.57324,3.8669 12.08323,9.4735 16.53,16.82 4.63989,7.1535 8.11989,15.9502 10.44,26.39 2.51322,10.4401 3.76988,22.0401 3.77,34.8 -1.2e-4,17.2068 -1.93345,33.5434 -5.8,49.01 -3.86678,15.2734 -9.2801,28.8067 -16.24,40.6 -6.76676,11.6 -14.88675,20.9767 -24.36,28.13 -9.28006,7.1533 -19.52672,11.02 -30.74,11.6 l -3.48,-29.29 c 5.99329,-0.58 11.79328,-2.32 17.4,-5.22 5.60661,-2.9 10.72993,-6.96 15.37,-12.18 4.63993,-5.22 8.60325,-11.6966 11.89,-19.43 3.47991,-7.7333 5.89658,-16.8199 7.25,-27.26 -2.90009,6.1867 -7.54008,11.0201 -13.92,14.5 -6.18674,3.4801 -12.47006,5.2201 -18.85,5.22 -7.34672,10e-5 -14.01671,-1.6433 -20.01,-4.93 -5.99336,-3.2866 -11.11669,-7.8299 -15.37,-13.63 -4.25335,-5.7999 -7.63668,-12.7599 -10.15,-20.88 -2.32001,-8.1199 -3.48001,-17.1099 -3.48,-26.97 -1e-5,-23.9732 5.02665,-42.1465 15.08,-54.52 10.24663,-12.5665 24.45662,-18.8498 42.63,-18.85" /></g><g
         id="text334"
         transform="matrix(1,0,0,-1,-30,-10)"><path
           inkscape:connector-curvature="0"
           id="path4506"
           style="font-size:290px;font-variant:normal;font-weight:normal;writing-mode:lr-tb;fill:#000000;fill-opacity:1;fill-rule:nonzero;stroke:none;font-family:BlueHighway;-inkscape-font-specification:BlueHighway-Regular"
           d="m 490.67206,-1169.077 c 11.5999,-4.2533 17.3999,-12.18 17.4,-23.78 -1e-4,-4.4466 -1.64344,-8.4099 -4.93,-11.89 -3.09343,-3.4799 -7.25009,-6.2833 -12.47,-8.41 l 0,44.08 m -27.55,-113.1 c -4.64006,0.5801 -8.02339,2.3201 -10.15,5.22 -2.12671,2.9001 -3.19005,6.4768 -3.19,10.73 -5e-5,3.0935 1.15995,6.0901 3.48,8.99 2.31995,2.9001 5.60661,5.1235 9.86,6.67 l 0,-31.61 m 27.55,161.24 -27.55,0 0,-18.56 c -8.12005,-1.16 -15.75671,-2.8033 -22.91,-4.93 -6.96003,-2.1267 -13.34002,-4.8333 -19.14,-8.12 l 8.7,-28.42 c 4.44664,2.7067 9.37663,5.22 14.79,7.54 5.60662,2.1267 11.79328,3.8667 18.56,5.22 l 0,-51.04 c -28.61336,-9.4732 -42.92002,-26.1966 -42.92,-50.17 -2e-5,-5.2199 0.96665,-10.1499 2.9,-14.79 1.93331,-4.8332 4.63998,-8.9898 8.12,-12.47 3.6733,-3.6732 8.11996,-6.6698 13.34,-8.99 5.41329,-2.5132 11.59995,-4.0598 18.56,-4.64 l 0,-18.85 27.55,0 0,17.69 c 15.27323,2.1268 27.06655,6.1868 35.38,12.18 l -7.83,29.58 c -5.60678,-4.8332 -14.7901,-8.5065 -27.55,-11.02 l 0,37.41 c 15.0799,3.6734 26.19655,9.5701 33.35,17.69 7.15321,7.9268 10.72987,18.8501 10.73,32.77 -1.3e-4,29.58 -14.69345,47.1733 -44.08,52.78 l 0,19.14" /></g><path
         d="m -21.894653,1214.937 1666.820653,0"
         style="fill:none;stroke:#ffffff;stroke-width:5;stroke-linecap:butt;stroke-linejoin:miter;stroke-miterlimit:4;stroke-opacity:1;stroke-dasharray:none"
         id="path340"
         inkscape:connector-curvature="0" /><path
         d="m -31,947.937 1666.821,0"
         style="fill:none;stroke:#ffffff;stroke-width:5;stroke-linecap:butt;stroke-linejoin:miter;stroke-miterlimit:4;stroke-opacity:1;stroke-dasharray:none"
         id="path344"
         inkscape:connector-curvature="0" /><path
         d="m -22,679.937 1666.821,0"
         style="fill:none;stroke:#ffffff;stroke-width:5;stroke-linecap:butt;stroke-linejoin:miter;stroke-miterlimit:4;stroke-opacity:1;stroke-dasharray:none"
         id="path348"
         inkscape:connector-curvature="0" /><path
         d="m -22,411.937 1666.821,0"
         style="fill:none;stroke:#ffffff;stroke-width:5;stroke-linecap:butt;stroke-linejoin:miter;stroke-miterlimit:4;stroke-opacity:1;stroke-dasharray:none"
         id="path352"
         inkscape:connector-curvature="0" /><path
         d="m -22,143.937 1666.821,0"
         style="fill:none;stroke:#ffffff;stroke-width:5;stroke-linecap:butt;stroke-linejoin:miter;stroke-miterlimit:4;stroke-opacity:1;stroke-dasharray:none"
         id="path356"
         inkscape:connector-curvature="0" /><path
         inkscape:connector-curvature="0"
         id="path358"
         style="fill:#c0c0c0;fill-opacity:1;fill-rule:nonzero;stroke:none"
         d="m 734,1336.937 155.9055,0 0,-243.78 -155.9055,0 0,243.78 z" /><path
         inkscape:connector-curvature="0"
         id="path360"
         style="fill:#c0c0c0;fill-opacity:1;fill-rule:nonzero;stroke:none"
         d="m 913,1336.937 155.906,0 0,-243.78 -155.906,0 0,243.78 z" /><path
         inkscape:connector-curvature="0"
         id="path362"
         style="fill:#c0c0c0;fill-opacity:1;fill-rule:nonzero;stroke:none"
         d="m 1092,1336.937 155.906,0 0,-243.78 -155.906,0 0,243.78 z" /><path
         inkscape:connector-curvature="0"
         id="path364"
         style="fill:#c0c0c0;fill-opacity:1;fill-rule:nonzero;stroke:none"
         d="m 1271,1336.937 155.906,0 0,-243.78 -155.906,0 0,243.78 z" /><path
         inkscape:connector-curvature="0"
         id="path366"
         style="fill:#c0c0c0;fill-opacity:1;fill-rule:nonzero;stroke:none"
         d="m 1450,1336.937 155.906,0 0,-243.78 -155.906,0 0,243.78 z" /><g
         id="text370"
         style="font-size:11.71615124px"
         transform="matrix(0.97634584,0,0,-1.0242272,-30,-10)"><path
           inkscape:connector-curvature="0"
           id="path4503"
           style="font-size:283.14031982px;font-variant:normal;font-weight:normal;writing-mode:lr-tb;fill:#000000;fill-opacity:1;fill-rule:nonzero;stroke:none;font-family:BlueHighway;-inkscape-font-specification:BlueHighway-Regular"
           d="m 795.86285,-1190.6899 50.11584,0 -59.74261,-107.0271 35.1094,0 41.90477,80.4119 41.90477,-80.4119 34.54312,0 -59.45947,107.0271 46.71815,0 0,22.6512 -46.71815,0 0,22.9343 46.71815,0 0,22.085 -46.71815,0 0,28.5972 -34.25998,0 0,-28.5972 -50.11584,0 0,-22.085 50.11584,0 0,-22.9343 -50.11584,0 0,-22.6512" /></g><g
         id="text376"
         transform="matrix(1,0,0,-1,-30,-10)"><path
           inkscape:connector-curvature="0"
           id="path4500"
           style="font-size:290px;font-variant:normal;font-weight:normal;writing-mode:lr-tb;fill:#000000;fill-opacity:1;fill-rule:nonzero;stroke:none;font-family:BlueHighway;-inkscape-font-specification:BlueHighway-Regular"
           d="m 965.61099,-1248.537 11.89,0 0,-24.07 c -4e-5,-7.7332 0.86996,-15.1765 2.61,-22.33 1.73996,-7.1532 4.54329,-13.4365 8.41,-18.85 4.05995,-5.6065 9.27994,-10.0531 15.66001,-13.34 6.3799,-3.2865 14.2099,-4.9298 23.49,-4.93 11.2132,2e-4 19.8165,2.3202 25.81,6.96 6.1865,4.4469 10.7299,9.9568 13.63,16.53 l -19.72,18.56 c -2.1268,-3.8665 -4.9301,-6.7665 -8.41,-8.7 -3.4801,-2.1265 -8.0234,-3.1898 -13.63,-3.19 -6.3801,2e-4 -11.3101,2.4168 -14.79,7.25 -3.2867,4.8335 -4.9301,11.6968 -4.93,20.59 l 0,25.52 33.35,0 0,31.03 -33.35,0 0,38.28 c -10e-5,7.3467 -1.0634,13.34 -3.19,17.98 -1.9334,4.4467 -3.9634,7.6367 -6.09001,9.57 l 75.69001,0 0,30.74 -118.03001,0 0,-30.74 3.48,0 c 6.18664,0 11.01997,-2.61 14.5,-7.83 3.6733,-5.4133 5.50996,-12.76 5.51,-22.04 l 0,-35.96 -11.89,0 0,-31.03" /></g><g
         id="text382"
         style="font-size:11.56309319px"
         transform="matrix(0.96359109,0,0,-1.0377846,-30,-10)"><path
           inkscape:connector-curvature="0"
           id="path4497"
           style="font-size:279.44140625px;font-variant:normal;font-weight:normal;writing-mode:lr-tb;fill:#000000;fill-opacity:1;fill-rule:nonzero;stroke:none;font-family:BlueHighwayD;-inkscape-font-specification:BlueHighwayD-Regular"
           d="m 1211.7946,-1172.7164 c -4.2848,3.1671 -7.8244,7.1724 -10.6187,12.0159 -2.7945,4.8438 -4.1917,10.8052 -4.1917,17.8843 0,19.9335 9.0353,29.9003 27.1059,29.9002 5.775,10e-5 10.8981,-1.3972 15.3692,-4.1916 4.471,-2.7944 7.9174,-6.334 10.3394,-10.6188 l -38.0041,-44.99 m 58.6827,67.0659 c -5.03,7.4518 -11.5503,13.5995 -19.5609,18.4431 -8.0107,4.6574 -17.6049,6.9861 -28.7824,6.9861 -8.3833,0 -16.1145,-1.3041 -23.1937,-3.9122 -6.8929,-2.6081 -12.8543,-6.334 -17.8842,-11.1777 -5.03,-5.0299 -8.9422,-11.1776 -11.7366,-18.4431 -2.6081,-7.2654 -3.9122,-15.5555 -3.9121,-24.8703 -10e-5,-7.2654 0.8383,-13.6925 2.5149,-19.2814 1.863,-5.7751 4.1916,-10.8982 6.9861,-15.3693 2.7944,-4.471 5.9614,-8.29 9.501,-11.4571 3.7258,-3.3532 7.5449,-6.2408 11.4571,-8.6627 -7.8244,-7.0791 -13.3201,-14.5308 -16.4871,-22.3553 -3.167,-7.8242 -4.7505,-16.4869 -4.7505,-25.9881 0,-8.5693 1.5835,-15.7417 4.7505,-21.517 3.3533,-5.7749 7.5449,-10.3391 12.5749,-13.6926 5.0299,-3.5394 10.5256,-5.9612 16.487,-7.2655 5.9614,-1.4901 11.6434,-2.2353 17.046,-2.2355 29.8069,2e-4 45.2694,14.0654 46.3872,42.1957 l -30.1796,11.7365 c -0.9316,-9.5008 -2.7014,-16.1143 -5.3094,-19.8403 -2.6082,-3.7258 -6.893,-5.5887 -12.8543,-5.5889 -6.1478,2e-4 -10.5257,1.8631 -13.1338,5.5889 -2.6081,3.5397 -3.9122,9.0354 -3.9122,16.487 0,2.6083 0.4657,5.4958 1.3973,8.6627 0.9314,3.1671 3.3532,7.7313 7.2654,13.6926 4.0984,5.7753 10.153,13.5065 18.1637,23.1937 8.0106,9.5011 19.0951,21.9828 33.2535,37.4451 2.4218,-5.2162 4.1916,-11.3639 5.3094,-18.4431 1.304,-7.0791 2.3286,-15.0898 3.0739,-24.032 l 30.4591,0 c -10e-5,6.7067 -0.559,13.5064 -1.6766,20.3992 -0.9317,6.893 -2.1426,13.4133 -3.6328,19.5609 -1.4905,6.1478 -3.2603,11.7366 -5.3094,16.7665 -1.8631,5.03 -3.6328,9.0353 -5.3094,12.016 l 35.4891,43.5929 -37.1657,0 -17.3254,-22.6348" /></g><g
         id="text388"
         transform="matrix(1,0,0,-1,-30,-10)"><path
           inkscape:connector-curvature="0"
           id="path4494"
           style="font-size:290px;font-variant:normal;font-weight:normal;writing-mode:lr-tb;fill:#000000;fill-opacity:1;fill-rule:nonzero;stroke:none;font-family:BlueHighwayCondensed;-inkscape-font-specification:BlueHighwayCondensed-Regular"
           d="m 1409.8869,-1209.057 c 1.3532,4.8334 4.6399,7.25 9.86,7.25 1.9332,0 3.5765,-0.7733 4.93,-2.32 1.5465,-1.5466 2.8032,-4.1566 3.77,-7.83 0.9665,-3.8666 1.6432,-8.9899 2.03,-15.37 0.5799,-6.3799 0.8699,-14.4999 0.87,-24.36 -10e-5,-18.5599 -3.8668,-33.2532 -11.6,-44.08 -7.5401,-11.0198 -19.8168,-16.5298 -36.83,-16.53 -11.4067,2e-4 -20.5901,1.8368 -27.55,5.51 -6.7667,3.6735 -11.9867,9.1835 -15.66,16.53 -3.6734,7.3468 -6.1867,16.6268 -7.54,27.84 -1.16,11.0201 -1.74,23.8768 -1.74,38.57 0,14.5001 1.16,26.68 3.48,36.54 2.32,9.86 5.6066,17.98 9.86,24.36 4.4466,6.1867 9.5699,10.8267 15.37,13.92 5.9933,3.0933 12.6633,5.22 20.01,6.38 l -4.06,22.04 c -10.4401,-2.1267 -19.9134,-5.6067 -28.42,-10.44 -8.3134,-4.8334 -15.4667,-11.4067 -21.46,-19.72 -5.8,-8.3133 -10.2467,-18.4633 -13.34,-30.45 -3.0933,-11.9866 -4.64,-26.2933 -4.64,-42.92 0,-37.3132 5.8967,-64.6699 17.69,-82.07 11.7933,-17.5932 30.3533,-26.3898 55.68,-26.39 23.3932,2e-4 41.3732,6.9602 53.94,20.88 12.7599,13.9201 19.1398,33.9301 19.14,60.03 -2e-4,12.3734 -0.5802,22.9101 -1.74,31.61 -1.1601,8.5067 -3.1901,15.4667 -6.09,20.88 -2.7068,5.22 -6.2835,9.0867 -10.73,11.6 -4.2535,2.32 -9.5701,3.48 -15.95,3.48 -4.4468,0 -8.4101,-0.9666 -11.89,-2.9 -3.4801,-2.1266 -6.1868,-4.4466 -8.12,-6.96 -2.5134,2.5134 -5.4134,4.8334 -8.7,6.96 -3.2868,2.1267 -7.7334,3.19 -13.34,3.19 -8.1201,0 -14.5001,-3.3833 -19.14,-10.15 -4.6401,-6.96 -6.96,-17.9799 -6.96,-33.06 0,-13.3399 2.2233,-23.3932 6.67,-30.16 4.6399,-6.7666 11.0199,-10.1499 19.14,-10.15 4.4466,10e-5 7.8299,0.5801 10.15,1.74 2.3199,1.1601 4.3499,2.5134 6.09,4.06 l 0,-4.93 16.82,0 0,57.42 m -29.87,-42.34 c -4.0601,10e-5 -6.8634,1.7401 -8.41,5.22 -1.3534,3.4801 -2.0301,9.8601 -2.03,19.14 -10e-5,8.7001 0.6766,14.8867 2.03,18.56 1.5466,3.6734 4.6399,5.51 9.28,5.51 5.0266,0 8.6999,-1.7399 11.02,-5.22 l 0,-37.7 c -2.9001,-3.6732 -6.8634,-5.5099 -11.89,-5.51" /></g><g
         id="text394"
         transform="matrix(1,0,0,-1,-30,-10)"><path
           inkscape:connector-curvature="0"
           id="path4491"
           style="font-size:290px;font-variant:normal;font-weight:normal;writing-mode:lr-tb;fill:#000000;fill-opacity:1;fill-rule:nonzero;stroke:none;font-family:BlueHighwayCondensed;-inkscape-font-specification:BlueHighwayCondensed-Regular"
           d="m 1488.547,-1120.937 0,0 m 28.71,-93.96 c -9.28,10e-5 -16.4334,-4.9299 -21.46,-14.79 -4.8334,-9.8599 -7.25,-24.7465 -7.25,-44.66 0,-20.2998 2.4166,-35.1865 7.25,-44.66 5.0266,-9.6665 12.18,-14.4998 21.46,-14.5 9.2799,2e-4 16.4333,4.8335 21.46,14.5 5.0266,9.4735 7.5399,24.3602 7.54,44.66 -10e-5,19.9135 -2.5134,34.8001 -7.54,44.66 -5.0267,9.8601 -12.1801,14.7901 -21.46,14.79 m 0,-20.01 c 3.4799,10e-5 6.0899,-3.0932 7.83,-9.28 1.9333,-6.1865 2.8999,-16.2399 2.9,-30.16 -10e-5,-13.9198 -0.9667,-23.9732 -2.9,-30.16 -1.7401,-6.3798 -4.3501,-9.5698 -7.83,-9.57 -3.6734,2e-4 -6.38,3.1902 -8.12,9.57 -1.5467,6.1868 -2.32,16.2402 -2.32,30.16 0,12.7601 0.7733,22.5235 2.32,29.29 1.74,6.7668 4.4466,10.1501 8.12,10.15 m -17.11,113.97 96.57,-208.22 20.01,0 -97.15,208.22 -19.43,0 m 98.6,4.64 c -9.2801,0 -16.4335,-4.93 -21.46,-14.79 -4.8334,-9.86 -7.2501,-24.7466 -7.25,-44.66 -10e-5,-20.2999 2.4166,-35.1866 7.25,-44.66 5.0265,-9.6666 12.1799,-14.4999 21.46,-14.5 9.2799,10e-5 16.4332,4.8334 21.46,14.5 5.0265,9.4734 7.5398,24.3601 7.54,44.66 -2e-4,19.9134 -2.5135,34.8 -7.54,44.66 -5.0268,9.86 -12.1801,14.79 -21.46,14.79 m 0,-20.01 c 3.4799,0 6.0899,-3.0933 7.83,-9.28 1.9332,-6.1866 2.8999,-16.24 2.9,-30.16 -1e-4,-13.9199 -0.9668,-23.9733 -2.9,-30.16 -1.7401,-6.3799 -4.3501,-9.5699 -7.83,-9.57 -3.6735,1e-4 -6.3801,3.1901 -8.12,9.57 -1.5468,6.1867 -2.3201,16.2401 -2.32,30.16 -10e-5,12.76 0.7732,22.5234 2.32,29.29 1.7399,6.7667 4.4465,10.15 8.12,10.15" /></g><path
         inkscape:connector-curvature="0"
         id="path398"
         style="fill:#c0c0c0;fill-opacity:1;fill-rule:nonzero;stroke:none"
         d="m 555,1336.937 155.9055,0 0,-243.78 -155.9055,0 0,243.78 z" /><g
         id="text402"
         transform="matrix(1,0,0,-1,-30,-10)"><path
           inkscape:connector-curvature="0"
           id="path4488"
           style="font-size:290px;font-variant:normal;font-weight:normal;writing-mode:lr-tb;fill:#000000;fill-opacity:1;fill-rule:nonzero;stroke:none;font-family:BlueHighway;-inkscape-font-specification:BlueHighway-Regular"
           d="m 598.79563,-1265.357 12.18,0 c 5.02664,-20.2998 13.43663,-36.4432 25.23,-48.43 11.98661,-12.1798 26.96993,-18.2698 44.95,-18.27 19.13989,2e-4 35.08987,6.0902 47.85,18.27 l -14.5,33.64 c -4.83345,-5.7998 -9.86012,-10.0532 -15.08,-12.76 -5.02677,-2.8998 -11.11677,-4.3498 -18.27,-4.35 -9.28008,2e-4 -17.01341,2.9002 -23.2,8.7 -6.18673,5.6068 -11.11672,13.3401 -14.79,23.2 l 64.67,0 -12.76,30.74 -58,0 0,16.82 50.75,0 -13.34,31.32 -30.74,0 c 4.05994,10.44 9.27994,18.6567 15.66,24.65 6.37992,5.9934 13.91992,8.99 22.62,8.99 5.41323,0 10.7299,-1.2566 15.95,-3.77 5.21989,-2.5133 9.95655,-5.6066 14.21,-9.28 l 18.27,26.97 c -12.18013,13.92 -28.61345,20.88 -49.3,20.88 -8.50675,0 -16.53008,-1.6433 -24.07,-4.93 -7.34673,-3.2867 -14.01672,-7.9267 -20.01,-13.92 -5.99338,-5.9933 -11.21337,-13.1466 -15.66,-21.46 -4.4467,-8.5066 -7.92669,-17.8833 -10.44,-28.13 l -17.4,0 5.22,-31.32 8.12,0 0,-17.4 -13.34,0 5.22,-30.16" /></g><path
         d="m -30,1215.937 1666.821,0"
         style="fill:none;stroke:#ffffff;stroke-width:5;stroke-linecap:butt;stroke-linejoin:miter;stroke-miterlimit:4;stroke-opacity:1;stroke-dasharray:none"
         id="path408"
         inkscape:connector-curvature="0" /><path
         inkscape:connector-curvature="0"
         id="path410"
         style="fill:#c0c0c0;fill-opacity:1;fill-rule:nonzero;stroke:none"
         d="m 17,1600.937 155.9055,0 0,-243.78 -155.9055,0 0,243.78 z" /><path
         inkscape:connector-curvature="0"
         id="path412"
         style="fill:#c0c0c0;fill-opacity:1;fill-rule:nonzero;stroke:none"
         d="m 196,1600.937 155.9055,0 0,-243.78 -155.9055,0 0,243.78 z" /><path
         inkscape:connector-curvature="0"
         id="path414"
         style="fill:#c0c0c0;fill-opacity:1;fill-rule:nonzero;stroke:none"
         d="m 375,1600.937 155.9055,0 0,-243.78 -155.9055,0 0,243.78 z" /><g
         id="text418"
         transform="matrix(1,0,0,-1,-30,-10)"><path
           inkscape:connector-curvature="0"
           id="path4485"
           style="font-size:290px;font-variant:normal;font-weight:normal;writing-mode:lr-tb;fill:#000000;fill-opacity:1;fill-rule:nonzero;stroke:none;font-family:BlueHighway;-inkscape-font-specification:BlueHighway-Regular"
           d="m 107.29718,-1485.597 -42.629999,-42.63 18.85,-18.56 42.629999,42.63 42.34,-42.63 18.56,18.85 -42.34,42.34 42.34,42.34 -18.56,18.85 -42.34,-42.63 -42.629999,42.63 -18.85,-18.56 42.629999,-42.63" /></g><g
         id="text424"
         style="font-size:11.89938927px"
         transform="matrix(1.0084551,0,0,-0.99161576,-30,-10)"><path
           inkscape:connector-curvature="0"
           id="path4482"
           style="font-size:287.568573px;font-variant:normal;font-weight:bold;writing-mode:lr-tb;fill:#000000;fill-opacity:1;fill-rule:nonzero;stroke:none;font-family:BlueHighway;-inkscape-font-specification:BlueHighway-Bold"
           d="m 246.38214,-1380.8994 79.36893,-242.4203 30.48227,0 -79.36893,242.4203 -30.48227,0" /></g><g
         id="text430"
         transform="matrix(1,0,0,-1,-30,-10)"><path
           inkscape:connector-curvature="0"
           id="path4479"
           style="font-size:290px;font-variant:normal;font-weight:normal;writing-mode:lr-tb;fill:#000000;fill-opacity:1;fill-rule:nonzero;stroke:none;font-family:BlueHighwayD;-inkscape-font-specification:BlueHighwayD-Regular"
           d="m 466.32553,-1466.137 0,0 m 16.24,0 c -5.02669,10e-5 -8.99002,-2.0299 -11.89,-6.09 -2.90001,-4.2533 -4.35001,-9.1832 -4.35,-14.79 -1e-5,-5.9932 1.44999,-11.0199 4.35,-15.08 2.89998,-4.0599 6.86331,-6.0899 11.89,-6.09 4.44663,10e-5 8.3133,2.0301 11.6,6.09 3.47996,4.0601 5.21995,9.0868 5.22,15.08 -5e-5,5.6068 -1.74004,10.5367 -5.22,14.79 -3.2867,4.0601 -7.15337,6.0901 -11.6,6.09" /></g><path
         d="m -24,1478.937 1666.821,0"
         style="fill:none;stroke:#ffffff;stroke-width:5;stroke-linecap:butt;stroke-linejoin:miter;stroke-miterlimit:4;stroke-opacity:1;stroke-dasharray:none"
         id="path436"
         inkscape:connector-curvature="0" /><path
         inkscape:connector-curvature="0"
         id="path438"
         style="fill:#c0c0c0;fill-opacity:1;fill-rule:nonzero;stroke:none"
         d="m 733,1600.937 155.9055,0 0,-243.78 -155.9055,0 0,243.78 z" /><path
         inkscape:connector-curvature="0"
         id="path440"
         style="fill:#c0c0c0;fill-opacity:1;fill-rule:nonzero;stroke:none"
         d="m 912,1600.937 155.906,0 0,-243.78 -155.906,0 0,243.78 z" /><path
         inkscape:connector-curvature="0"
         id="path442"
         style="fill:#c0c0c0;fill-opacity:1;fill-rule:nonzero;stroke:none"
         d="m 1091,1600.937 155.906,0 0,-243.78 -155.906,0 0,243.78 z" /><path
         inkscape:connector-curvature="0"
         id="path444"
         style="fill:#c0c0c0;fill-opacity:1;fill-rule:nonzero;stroke:none"
         d="m 1270,1600.937 155.906,0 0,-243.78 -155.906,0 0,243.78 z" /><path
         inkscape:connector-curvature="0"
         id="path446"
         style="fill:#c0c0c0;fill-opacity:1;fill-rule:nonzero;stroke:none"
         d="m 1449,1600.937 155.906,0 0,-243.78 -155.906,0 0,243.78 z" /><g
         id="text450"
         transform="matrix(1,0,0,-1,-30,-10)"><path
           inkscape:connector-curvature="0"
           id="path4476"
           style="font-size:290px;font-variant:normal;font-weight:bold;writing-mode:lr-tb;fill:#000000;fill-opacity:1;fill-rule:nonzero;stroke:none;font-family:BlueHighway;-inkscape-font-specification:BlueHighway-Bold"
           d="m 767.48719,-1515.147 0,-32.19 146.74,0 0,32.19 -146.74,0 m 0,87 0,-32.19 146.74,0 0,32.19 -146.74,0" /></g><g
         id="text456"
         style="font-size:11.90561104px"
         transform="matrix(0.99213426,0,0,-1.0079281,-30,-10)"><path
           inkscape:connector-curvature="0"
           id="path4473"
           style="font-size:287.71893311px;font-variant:normal;font-weight:bold;writing-mode:lr-tb;fill:#000000;fill-opacity:1;fill-rule:nonzero;stroke:none;font-family:BlueHighway;-inkscape-font-specification:BlueHighway-Bold"
           d="m 1003.218,-1478.525 -53.22797,-28.7719 12.65963,-23.0175 52.36484,30.7859 -1.4386,-60.9964 25.8947,0 0,60.9964 51.7894,-31.9368 13.5228,22.7298 -52.9403,29.9228 53.228,28.7718 -12.9473,23.0176 -52.0771,-30.786 1.4385,60.9965 -25.6069,0 0,-60.7087 -52.07716,31.9368 -13.23507,-23.0176 52.65253,-29.9227" /></g><g
         id="text462"
         transform="matrix(1,0,0,-1,-30,-10)"><path
           inkscape:connector-curvature="0"
           id="path4470"
           style="font-size:290px;font-variant:normal;font-weight:normal;writing-mode:lr-tb;fill:#000000;fill-opacity:1;fill-rule:nonzero;stroke:none;font-family:BlueHighwayD;-inkscape-font-specification:BlueHighwayD-Regular"
           d="m 1185.8072,-1476.147 -60.32,0 0,-26.39 60.32,0 0,-60.03 26.39,0 0,60.03 60.03,0 0,26.39 -60.03,0 0,60.32 -26.39,0 0,-60.32" /></g><g
         id="text468"
         transform="matrix(1,0,0,-1,-30,-10)"><path
           inkscape:connector-curvature="0"
           id="path4467"
           style="font-size:290px;font-variant:normal;font-weight:normal;writing-mode:lr-tb;fill:#000000;fill-opacity:1;fill-rule:nonzero;stroke:none;font-family:BlueHighway;-inkscape-font-specification:BlueHighway-Regular"
           d="m 1314.9251,-1519.427 113.97,0 0,30.74 -113.97,0 0,-30.74" /></g><g
         id="text474"
         transform="matrix(1,0,0,-1,-30,-10)"><path
           inkscape:connector-curvature="0"
           id="path4464"
           style="font-size:290px;font-variant:normal;font-weight:normal;writing-mode:lr-tb;fill:#000000;fill-opacity:1;fill-rule:nonzero;stroke:none;font-family:BlueHighwayCondensed;-inkscape-font-specification:BlueHighwayCondensed-Regular"
           d="m 1484.4872,-1402.337 0,0 m 60.32,-89.61 -60.32,0 0,-26.39 60.32,0 0,-60.03 26.39,0 0,60.03 60.03,0 0,26.39 -60.03,0 0,60.32 -26.39,0 0,-60.32 m -60.32,102.37 0,-26.39 146.74,0 0,26.39 -146.74,0" /></g><path
         inkscape:connector-curvature="0"
         id="path478"
         style="fill:#c0c0c0;fill-opacity:1;fill-rule:nonzero;stroke:none"
         d="m 554,1600.937 155.9055,0 0,-243.78 -155.9055,0 0,243.78 z" /><g
         id="text482"
         style="font-size:11.51867104px"
         transform="matrix(0.95988925,0,0,-1.0417869,-30,-10)"><path
           inkscape:connector-curvature="0"
           id="path4461"
           style="font-size:278.3678894px;font-variant:normal;font-weight:bold;writing-mode:lr-tb;fill:#000000;fill-opacity:1;fill-rule:nonzero;stroke:none;font-family:BlueHighway;-inkscape-font-specification:BlueHighway-Bold"
           d="m 669.76436,-1406.2158 31.1772,0 10.29961,-47.3225 -32.29067,0 -9.18614,47.3225 m 65.13808,-46.7658 -10.02124,46.2091 32.01231,0 0,28.9503 -37.02293,0 -10.57798,48.436 -23.38291,0 9.46451,-48.436 -31.45557,0 -10.02124,48.436 -23.66127,0 9.4645,-48.436 -30.06373,0 0,-28.9503 35.90946,0 9.18614,-46.2091 -32.29067,0 0,-29.2286 38.41476,0 8.90778,-47.0442 24.49637,0 -8.90777,47.0442 30.89883,0 10.29962,-47.0442 23.66127,0 -9.74288,47.0442 28.67189,0 0,29.2286 -34.23925,0" /></g><path
         d="m -31,1479.937 1666.821,0"
         style="fill:none;stroke:#ffffff;stroke-width:5;stroke-linecap:butt;stroke-linejoin:miter;stroke-miterlimit:4;stroke-opacity:1;stroke-dasharray:none"
         id="path488"
         inkscape:connector-curvature="0" /><path
         inkscape:connector-curvature="0"
         id="path490"
         style="fill:#c0c0c0;fill-opacity:1;fill-rule:nonzero;stroke:none"
         d="m 15,1862.937 155.9055,0 0,-243.78 -155.9055,0 0,243.78 z" /><path
         inkscape:connector-curvature="0"
         id="path492"
         style="fill:#c0c0c0;fill-opacity:1;fill-rule:nonzero;stroke:none"
         d="m 194,1862.937 155.9055,0 0,-243.78 -155.9055,0 0,243.78 z" /><path
         inkscape:connector-curvature="0"
         id="path494"
         style="fill:#c0c0c0;fill-opacity:1;fill-rule:nonzero;stroke:none"
         d="m 373,1862.937 155.9055,0 0,-243.78 -155.9055,0 0,243.78 z" /><g
         id="text498"
         style="font-size:11.37989998px"
         transform="matrix(1.0544909,0,0,-0.94832496,-30,-10)"><path
           inkscape:connector-curvature="0"
           id="path4458"
           style="font-size:275.01425171px;font-variant:normal;font-weight:bold;writing-mode:lr-tb;fill:#000000;fill-opacity:1;fill-rule:nonzero;stroke:none;font-family:BlueHighway;-inkscape-font-specification:BlueHighway-Bold"
           d="m 127.50823,-1719.1638 c -23.65126,-40.8855 -35.476864,-83.3293 -35.476839,-127.3316 -2.5e-5,-43.8188 11.825579,-86.2626 35.476839,-127.3316 l 34.10177,0 c -27.68484,37.5854 -41.52721,80.0293 -41.52716,127.3316 -5e-5,42.3522 13.56731,84.796 40.70211,127.3316 l -33.27672,0" /></g><g
         id="text504"
         style="font-size:11.37990093px"
         transform="matrix(1.0544909,0,0,-0.94832492,-30,-10)"><path
           inkscape:connector-curvature="0"
           id="path4455"
           style="font-size:275.01428223px;font-variant:normal;font-weight:bold;writing-mode:lr-tb;fill:#000000;fill-opacity:1;fill-rule:nonzero;stroke:none;font-family:BlueHighway;-inkscape-font-specification:BlueHighway-Bold"
           d="m 241.98038,-1719.4421 c 7.3337,-11.184 13.56736,-21.9095 18.70097,-32.1767 5.31692,-10.2672 9.62547,-20.4427 12.92568,-30.5266 3.30013,-10.2672 5.68358,-20.626 7.15037,-31.0766 1.46669,-10.6338 2.20006,-21.8177 2.20011,-33.5517 -5e-5,-12.1006 -0.91676,-23.6512 -2.75014,-34.6518 -1.65013,-11.0005 -4.21693,-21.6344 -7.7004,-31.9017 -3.48355,-10.4504 -7.7921,-20.6259 -12.92567,-30.5266 -5.13362,-9.9003 -11.09226,-19.9842 -17.87593,-30.2515 l 33.55174,0 c 12.28392,20.9012 21.26771,41.6189 26.9514,62.1532 5.68356,20.5345 8.52537,42.2606 8.52544,65.1784 -7e-5,22.9179 -2.84188,44.644 -8.52544,65.1784 -5.68369,20.5343 -14.66748,41.2521 -26.9514,62.1532 l -33.27673,0" /></g><g
         id="text510"
         transform="matrix(1,0,0,-1,-30,-10)"><path
           inkscape:connector-curvature="0"
           id="path4452"
           style="font-size:290px;font-variant:normal;font-weight:bold;writing-mode:lr-tb;fill:#000000;fill-opacity:1;fill-rule:nonzero;stroke:none;font-family:BlueHighway;-inkscape-font-specification:BlueHighway-Bold"
           d="m 407.48719,-1733.647 0,-32.19 146.74,-55.1 0,32.19 -108.17,39.15 108.17,38.86 0,32.19 -146.74,-55.1" /></g><path
         d="m -26,1740.937 1666.821,0"
         style="fill:none;stroke:#ffffff;stroke-width:5;stroke-linecap:butt;stroke-linejoin:miter;stroke-miterlimit:4;stroke-opacity:1;stroke-dasharray:none"
         id="path516"
         inkscape:connector-curvature="0" /><path
         inkscape:connector-curvature="0"
         id="path518"
         style="fill:#c0c0c0;fill-opacity:1;fill-rule:nonzero;stroke:none"
         d="m 731,1862.937 155.9055,0 0,-243.78 -155.9055,0 0,243.78 z" /><path
         inkscape:connector-curvature="0"
         id="path520"
         style="fill:#c0c0c0;fill-opacity:1;fill-rule:nonzero;stroke:none"
         d="m 910,1862.937 155.906,0 0,-243.78 -155.906,0 0,243.78 z" /><path
         inkscape:connector-curvature="0"
         id="path522"
         style="fill:#c0c0c0;fill-opacity:1;fill-rule:nonzero;stroke:none"
         d="m 1089,1862.937 155.906,0 0,-243.78 -155.906,0 0,243.78 z" /><path
         inkscape:connector-curvature="0"
         id="path524"
         style="fill:#c0c0c0;fill-opacity:1;fill-rule:nonzero;stroke:none"
         d="m 1268,1862.937 155.906,0 0,-243.78 -155.906,0 0,243.78 z" /><path
         inkscape:connector-curvature="0"
         id="path526"
         style="fill:#c0c0c0;fill-opacity:1;fill-rule:nonzero;stroke:none"
         d="m 1447,1862.937 155.906,0 0,-243.78 -155.906,0 0,243.78 z" /><path
         d="m 743.17113,1636.937 0,0 m 6.09,182.41 -6.09,0 0,18.56 c 4.83332,-2e-4 7.44332,3.3831 7.83,10.15 l 16.82,0 0,-115.42 -18.56,0 0,86.71 m -3.19,-182.41 96.57,208.22 20.01,0 -97.15,-208.22 -19.43,0 m 103.82,45.53 0,30.16 -11.02,-30.16 11.02,0 m 17.69,-48.43 -17.69,0 0,28.71 -27.55,0 0,21.17 26.39,65.54 18.85,0 0,-66.99 7.54,0 0,-19.72 -7.54,0 0,-28.71"
         style="font-size:290px;font-variant:normal;font-weight:normal;writing-mode:lr-tb;fill:#000000;fill-opacity:1;fill-rule:nonzero;stroke:none;font-family:BlueHighwayCondensed;-inkscape-font-specification:BlueHighwayCondensed-Regular"
         id="path4414"
         inkscape:connector-curvature="0" /><path
         d="m 919.1267,1633.937 0,0 m 6.09,182.41 -6.09,0 0,18.56 c 4.83331,-2e-4 7.44331,3.3831 7.83,10.15 l 16.82,0 0,-115.42 -18.56,0 0,86.71 m -3.19,-182.41 96.57,208.22 20.01,0 -97.15,-208.22 -19.43,0 m 87.58,7.54 c -1e-4,7.54 0.3866,14.0167 1.16,19.43 0.7732,5.4133 1.8366,10.0533 3.19,13.92 1.5466,4.06 3.2866,7.4433 5.22,10.15 2.1266,2.9 4.5432,5.4133 7.25,7.54 2.3199,1.9333 4.2532,3.5766 5.8,4.93 1.5465,1.5466 2.8032,3.0933 3.77,4.64 0.9665,1.7399 1.6432,3.6733 2.03,5.8 0.5799,2.1266 0.8699,4.6399 0.87,7.54 -10e-5,7.7333 -2.1268,11.5999 -6.38,11.6 -2.5135,-10e-5 -4.5435,-1.1601 -6.09,-3.48 -1.3535,-2.1267 -2.3201,-4.8334 -2.9,-8.12 l -13.34,14.79 c 1.7399,5.4132 4.4466,9.6666 8.12,12.76 3.6732,3.2866 8.2165,4.9299 13.63,4.93 8.3132,-10e-5 14.5965,-2.6101 18.85,-7.83 4.2532,-5.2201 6.3798,-13.9201 6.38,-26.1 -2e-4,-4.6401 -0.3868,-8.7001 -1.16,-12.18 -0.7735,-3.2867 -1.8368,-6.2834 -3.19,-8.99 -1.1601,-2.5134 -2.7068,-4.8334 -4.64,-6.96 -1.7401,-2.1267 -3.6735,-4.2534 -5.8,-6.38 -2.5135,-2.5134 -4.6401,-4.7367 -6.38,-6.67 -1.5468,-1.9334 -2.9001,-3.9634 -4.06,-6.09 -0.9668,-1.9334 -1.7401,-4.1567 -2.32,-6.67 -0.3868,-2.5133 -0.5801,-5.51 -0.58,-8.99 l 28.13,0 0,-20.01 -47.56,0 0,10.44"
         style="font-size:290px;font-variant:normal;font-weight:normal;writing-mode:lr-tb;fill:#000000;fill-opacity:1;fill-rule:nonzero;stroke:none;font-family:BlueHighwayCondensed;-inkscape-font-specification:BlueHighwayCondensed-Regular"
         id="path4411"
         inkscape:connector-curvature="0" /><path
         d="m 1093.6308,1636.937 0,0 m 22.62,93.96 c -11.7933,-10e-5 -19.3333,5.8966 -22.62,17.69 l 12.47,13.92 c 0.9667,-3.8668 2.03,-6.7668 3.19,-8.7 1.3534,-1.7401 3.6734,-2.6101 6.96,-2.61 1.9333,-10e-5 3.3833,1.2566 4.35,3.77 0.9667,2.5132 1.45,6.7666 1.45,12.76 0,7.3465 -0.6767,11.9865 -2.03,13.92 -1.3533,2.1265 -3.3833,3.1899 -6.09,3.19 l -6.38,0 0,20.3 4.93,0 c 2.7067,-2e-4 4.64,0.6765 5.8,2.03 1.16,1.5465 1.74,5.2198 1.74,11.02 0,4.4465 -0.58,7.4432 -1.74,8.99 -0.9667,1.7398 -2.2233,2.6098 -3.77,2.61 -1.16,-2e-4 -2.2233,-0.5802 -3.19,-1.74 -0.9666,-0.9668 -1.6433,-2.9002 -2.03,-5.8 l -14.79,7.83 c 1.3534,6.7665 3.77,11.6965 7.25,14.79 3.6734,3.0931 8.2167,4.6398 13.63,4.64 6.38,-2e-4 11.4067,-2.2235 15.08,-6.67 3.8667,-4.4469 5.8,-11.8902 5.8,-22.33 0,-6.5735 -0.4833,-11.6968 -1.45,-15.37 -0.9667,-3.6735 -2.5133,-6.3802 -4.64,-8.12 3.48,-2.5135 5.9933,-6.0901 7.54,-10.73 1.74,-4.4468 2.61,-10.7301 2.61,-18.85 0,-24.3601 -8.0233,-36.5401 -24.07,-36.54 m -4.64,-93.96 96.57,208.22 20.01,0 -97.15,-208.22 -19.43,0 m 103.82,45.53 0,30.16 -11.02,-30.16 11.02,0 m 17.69,-48.43 -17.69,0 0,28.71 -27.55,0 0,21.17 26.39,65.54 18.85,0 0,-66.99 7.54,0 0,-19.72 -7.54,0 0,-28.71"
         style="font-size:290px;font-variant:normal;font-weight:normal;writing-mode:lr-tb;fill:#000000;fill-opacity:1;fill-rule:nonzero;stroke:none;font-family:BlueHighwayCondensed;-inkscape-font-specification:BlueHighwayCondensed-Regular"
         id="path4408"
         inkscape:connector-curvature="0" /><path
         d="m 1281.14,1633.937 0,0 m 6.09,182.41 -6.09,0 0,18.56 c 4.8333,-2e-4 7.4433,3.3831 7.83,10.15 l 16.82,0 0,-115.42 -18.56,0 0,86.71 m -3.19,-182.41 96.57,208.22 20.01,0 -97.15,-208.22 -19.43,0 m 109.04,-4.64 c -11.7934,0 -19.3334,5.8967 -22.62,17.69 l 12.47,13.92 c 0.9666,-3.8667 2.0299,-6.7667 3.19,-8.7 1.3532,-1.74 3.6732,-2.61 6.96,-2.61 1.9332,0 3.3832,1.2567 4.35,3.77 0.9665,2.5133 1.4499,6.7667 1.45,12.76 -1e-4,7.3466 -0.6768,11.9866 -2.03,13.92 -1.3535,2.1266 -3.3835,3.19 -6.09,3.19 l -6.38,0 0,20.3 4.93,0 c 2.7065,-10e-5 4.6399,0.6766 5.8,2.03 1.1599,1.5466 1.7399,5.2199 1.74,11.02 -10e-5,4.4466 -0.5801,7.4433 -1.74,8.99 -0.9668,1.7399 -2.2235,2.6099 -3.77,2.61 -1.1601,-10e-5 -2.2234,-0.5801 -3.19,-1.74 -0.9668,-0.9667 -1.6434,-2.9001 -2.03,-5.8 l -14.79,7.83 c 1.3532,6.7666 3.7699,11.6966 7.25,14.79 3.6732,3.0932 8.2166,4.6399 13.63,4.64 6.3799,-10e-5 11.4065,-2.2234 15.08,-6.67 3.8665,-4.4468 5.7999,-11.8901 5.8,-22.33 -10e-5,-6.5734 -0.4835,-11.6967 -1.45,-15.37 -0.9668,-3.6734 -2.5135,-6.3801 -4.64,-8.12 3.4799,-2.5134 5.9932,-6.09 7.54,-10.73 1.7399,-4.4467 2.6099,-10.73 2.61,-18.85 -1e-4,-24.36 -8.0235,-36.54 -24.07,-36.54"
         style="font-size:290px;font-variant:normal;font-weight:normal;writing-mode:lr-tb;fill:#000000;fill-opacity:1;fill-rule:nonzero;stroke:none;font-family:BlueHighwayCondensed;-inkscape-font-specification:BlueHighwayCondensed-Regular"
         id="path4405"
         inkscape:connector-curvature="0" /><path
         sodipodi:nodetypes="ccccccccccccccccccccccccccccccccccccccccscccsccccccccccccccccccc"
         d="m 1437.9756,1636.937 0,0 m 12.8,106.14 c 0,7.5399 0.3866,14.0166 1.16,19.43 0.7733,5.4132 1.8366,10.0532 3.19,13.92 1.5466,4.0599 3.2866,7.4432 5.22,10.15 2.1266,2.8999 4.5433,5.4132 7.25,7.54 2.3199,1.9332 4.2533,3.5765 5.8,4.93 1.5466,1.5465 2.8033,3.0932 3.77,4.64 0.9666,1.7398 1.6433,3.6732 2.03,5.8 0.5799,2.1265 0.8699,4.6398 0.87,7.54 -10e-5,7.7332 -2.1267,11.5998 -6.38,11.6 -2.5134,-2e-4 -4.5434,-1.1602 -6.09,-3.48 -1.3534,-2.1268 -2.3201,-4.8335 -2.9,-8.12 l -13.34,14.79 c 1.74,5.4131 4.4466,9.6665 8.12,12.76 3.6733,3.2865 8.2166,4.9298 13.63,4.93 8.3133,-2e-4 14.5966,-2.6102 18.85,-7.83 4.2533,-5.2202 6.3799,-13.9202 6.38,-26.1 -1e-4,-4.6402 -0.3868,-8.7002 -1.16,-12.18 -0.7734,-3.2868 -1.8367,-6.2835 -3.19,-8.99 -1.1601,-2.5135 -2.7067,-4.8335 -4.64,-6.96 -1.7401,-2.1268 -3.6734,-4.2535 -5.8,-6.38 -2.5134,-2.5135 -4.6401,-4.7368 -6.38,-6.67 -1.5467,-1.9335 -2.9001,-3.9635 -4.06,-6.09 -0.9667,-1.9335 -1.7401,-4.1568 -2.32,-6.67 -0.3867,-2.5134 -0.5801,-5.5101 -0.58,-8.99 l 28.13,0 0,-20.01 -47.56,0 0,10.44 m 12.43,-106.14 96.57,208.22 20.01,0 -97.15,-208.22 -19.43,0 m 109.04,-4.64 c -11.7935,0 -19.3335,5.8967 -22.62,17.69 l 12.47,13.92 c 0.9665,-3.8667 2.0298,-6.7667 3.19,-8.7 1.3532,-1.74 3.6732,-2.61 6.96,-2.61 1.9332,0 3.3832,1.2567 4.35,3.77 0.9665,2.5133 1.4498,6.7667 1.45,12.76 -2e-4,7.3466 -0.6768,11.9866 -2.03,13.92 -1.3535,2.1266 -3.3835,3.19 -6.09,3.19 l -6.38,0 0,20.3 4.93,0 c 2.7065,-10e-5 4.6398,0.6766 5.8,2.03 1.1598,1.5466 1.7398,5.2199 1.74,11.02 -2e-4,4.4466 -0.5802,7.4433 -1.74,8.99 -0.9668,1.7399 -2.2235,2.6099 -3.77,2.61 -1.1602,-10e-5 -2.2235,-0.5801 -3.19,-1.74 -0.9668,-0.9667 -1.6435,-2.9001 -2.03,-5.8 l -14.79,7.83 c 1.3532,6.7666 3.7698,11.6966 7.25,14.79 3.6732,3.0932 8.2165,4.6399 13.63,4.64 6.3798,-10e-5 11.4065,-2.2234 15.08,-6.67 3.8665,-4.4468 5.7998,-11.8901 5.8,-22.33 -2e-4,-6.5734 -0.4835,-11.6967 -1.45,-15.37 -0.9669,-3.6734 -2.5135,-6.3801 -4.64,-8.12 3.4798,-2.5134 5.9931,-6.09 7.54,-10.73 1.7398,-4.4467 2.6098,-10.73 2.61,-18.85 -2e-4,-24.36 -8.0235,-36.54 -24.07,-36.54"
         style="font-size:290px;font-variant:normal;font-weight:normal;writing-mode:lr-tb;fill:#000000;fill-opacity:1;fill-rule:nonzero;stroke:none;font-family:BlueHighwayCondensed;-inkscape-font-specification:BlueHighwayCondensed-Regular"
         id="path4402"
         inkscape:connector-curvature="0" /><path
         inkscape:connector-curvature="0"
         id="path558"
         style="fill:#c0c0c0;fill-opacity:1;fill-rule:nonzero;stroke:none"
         d="m 552,1862.937 155.9055,0 0,-243.78 -155.9055,0 0,243.78 z" /><g
         id="text562"
         transform="matrix(1,0,0,-1,-30,-10)"><path
           inkscape:connector-curvature="0"
           id="path4449"
           style="font-size:290px;font-variant:normal;font-weight:bold;writing-mode:lr-tb;fill:#000000;fill-opacity:1;fill-rule:nonzero;stroke:none;font-family:BlueHighway;-inkscape-font-specification:BlueHighway-Bold"
           d="m 586.48719,-1678.547 0,-32.19 108.17,-38.86 -108.17,-39.15 0,-32.19 146.74,55.1 0,32.19 -146.74,55.1" /></g><path
         d="m -33,1741.937 1666.821,0"
         style="fill:none;stroke:#ffffff;stroke-width:5;stroke-linecap:butt;stroke-linejoin:miter;stroke-miterlimit:4;stroke-opacity:1;stroke-dasharray:none"
         id="path568"
         inkscape:connector-curvature="0" /><path
         inkscape:connector-curvature="0"
         id="path570"
         style="fill:#c0c0c0;fill-opacity:1;fill-rule:nonzero;stroke:none"
         d="m 14,2131.937 155.9055,0 0,-243.78 -155.9055,0 0,243.78 z" /><path
         inkscape:connector-curvature="0"
         id="path572"
         style="fill:#c0c0c0;fill-opacity:1;fill-rule:nonzero;stroke:none"
         d="m 193,2131.937 155.9055,0 0,-243.78 -155.9055,0 0,243.78 z" /><path
         inkscape:connector-curvature="0"
         id="path574"
         style="fill:#c0c0c0;fill-opacity:1;fill-rule:nonzero;stroke:none"
         d="m 372,2131.937 155.9055,0 0,-243.78 -155.9055,0 0,243.78 z" /><path
         inkscape:connector-curvature="0"
         id="path576"
         style="fill:#c0c0c0;fill-opacity:1;fill-rule:nonzero;stroke:none"
         d="m 551,2131.937 155.9055,0 0,-243.78 -155.9055,0 0,243.78 z" /><path
         inkscape:connector-curvature="0"
         id="path578"
         style="fill:#c0c0c0;fill-opacity:1;fill-rule:nonzero;stroke:none"
         d="m 730,2131.937 155.9055,0 0,-243.78 -155.9055,0 0,243.78 z" /><path
         inkscape:connector-curvature="0"
         id="path580"
         style="fill:#c0c0c0;fill-opacity:1;fill-rule:nonzero;stroke:none"
         d="m 909,2131.937 155.906,0 0,-243.78 -155.906,0 0,243.78 z" /><path
         inkscape:connector-curvature="0"
         id="path582"
         style="fill:#c0c0c0;fill-opacity:1;fill-rule:nonzero;stroke:none"
         d="m 1088,2131.937 155.906,0 0,-243.78 -155.906,0 0,243.78 z" /><path
         inkscape:connector-curvature="0"
         id="path584"
         style="fill:#c0c0c0;fill-opacity:1;fill-rule:nonzero;stroke:none"
         d="m 1267,2131.937 155.906,0 0,-243.78 -155.906,0 0,243.78 z" /><path
         inkscape:connector-curvature="0"
         id="path586"
         style="fill:#c0c0c0;fill-opacity:1;fill-rule:nonzero;stroke:none"
         d="m 1446,2131.937 155.906,0 0,-243.78 -155.906,0 0,243.78 z" /><g
         id="text590"
         transform="matrix(1,0,0,-1,-30,-10)"><path
           inkscape:connector-curvature="0"
           id="path4446"
           style="font-size:290px;font-variant:normal;font-weight:normal;writing-mode:lr-tb;fill:#000000;fill-opacity:1;fill-rule:nonzero;stroke:none;font-family:BlueHighwayD;-inkscape-font-specification:BlueHighwayD-Regular"
           d="m 110.54695,-1919.057 c 5.02664,-1.16 8.6033,-3.2867 10.73,-6.38 2.31997,-2.9 3.86663,-7.7334 4.64,-14.5 l -5.22,0 c -5.02669,0 -8.99002,-2.1267 -11.89,-6.38 -2.70668,-4.2533 -4.06002,-9.0867 -4.06,-14.5 -2e-5,-5.9933 1.54665,-11.02 4.64,-15.08 3.28664,-4.06 7.44331,-6.09 12.47,-6.09 4.05996,0 7.82996,2.03 11.31,6.09 3.67329,4.06 5.50995,9.0867 5.51,15.08 -5e-5,5.8 -0.58005,11.4067 -1.74,16.82 -1.16005,5.22 -2.99671,9.86 -5.51,13.92 -2.32004,4.2533 -5.22004,7.7333 -8.7,10.44 -3.48003,2.9 -7.54003,4.7366 -12.18,5.51 l 0,-4.93" /></g><g
         id="text596"
         transform="matrix(1,0,0,-1,-30,-10)"><path
           inkscape:connector-curvature="0"
           id="path4443"
           style="font-size:200px;font-variant:normal;font-weight:bold;writing-mode:lr-tb;fill:#000000;fill-opacity:1;fill-rule:nonzero;stroke:none;font-family:BlueHighway;-inkscape-font-specification:BlueHighway-Bold"
           d="m 229.20089,-2019.737 c -10e-6,-10.1333 1.86666,-19.6666 5.6,-28.6 3.73332,-9.0666 8.79998,-16.9332 15.2,-23.6 6.5333,-6.6665 14.13329,-11.9332 22.8,-15.8 8.79994,-3.8665 18.13327,-5.7999 28,-5.8 9.86658,10e-5 19.13324,1.9335 27.8,5.8 8.79989,3.8668 16.39988,9.1335 22.8,15.8 6.5332,6.6668 11.66653,14.5334 15.4,23.6 3.86652,8.9334 5.79985,18.4667 5.8,28.6 -1.5e-4,10.2667 -1.93348,19.8667 -5.8,28.8 -3.73347,8.9334 -8.8668,16.7333 -15.4,23.4 -6.40012,6.6667 -14.00011,11.9333 -22.8,15.8 -8.66676,3.8667 -17.93342,5.8 -27.8,5.8 -9.86673,0 -19.20006,-1.9333 -28,-5.8 -8.66671,-3.8667 -16.2667,-9.1333 -22.8,-15.8 -6.40002,-6.6667 -11.46668,-14.4666 -15.2,-23.4 -3.73334,-8.9333 -5.60001,-18.5333 -5.6,-28.8 m 14.6,0 c -2e-5,7.8667 1.46664,15.2667 4.4,22.2 3.06664,6.9334 7.1333,13 12.2,18.2 5.19996,5.0667 11.26662,9.1333 18.2,12.2 6.93327,2.9333 14.33326,4.4 22.2,4.4 7.99991,0 15.46657,-1.4667 22.4,-4.4 6.93323,-3.0667 12.93322,-7.1333 18,-12.2 5.19988,-5.2 9.26654,-11.2666 12.2,-18.2 3.06653,-6.9333 4.59986,-14.3333 4.6,-22.2 -1.4e-4,-7.9999 -1.53347,-15.4666 -4.6,-22.4 -2.93346,-6.9332 -7.00012,-12.9332 -12.2,-18 -5.06678,-5.1999 -11.06677,-9.2666 -18,-12.2 -6.93343,-3.0666 -14.40009,-4.5999 -22.4,-4.6 -7.86674,10e-5 -15.26673,1.5334 -22.2,4.6 -6.93338,2.9334 -13.00004,7.0001 -18.2,12.2 -5.0667,5.0668 -9.13336,11.0668 -12.2,18 -2.93336,6.9334 -4.40002,14.4001 -4.4,22.4 m 72.4,-18.6 c -2.26676,-3.0666 -4.60009,-5.1999 -7,-6.4 -2.40008,-1.3332 -5.13341,-1.9999 -8.2,-2 -5.73341,10e-5 -10.20007,2.3334 -13.4,7 -3.20006,4.6667 -4.80006,11.0001 -4.8,19 -6e-5,7.6001 1.6666,13.8667 5,18.8 3.4666,4.9334 7.99993,7.4 13.6,7.4 2.66659,0 5.33325,-0.7333 8,-2.2 2.79991,-1.4666 5.13324,-3.2666 7,-5.4 l 12.2,8.4 c -6.8001,10.2667 -16.00009,15.4 -27.6,15.4 -4.93341,0 -9.46674,-1.0666 -13.6,-3.2 -4.00006,-2.1333 -7.53339,-5.0666 -10.6,-8.8 -2.93338,-3.8666 -5.26672,-8.3333 -7,-13.4 -1.60005,-5.2 -2.40004,-10.8666 -2.4,-17 -4e-5,-5.9999 0.79995,-11.5333 2.4,-16.6 1.59995,-5.0666 3.79995,-9.4666 6.6,-13.2 2.93328,-3.8666 6.46661,-6.8666 10.6,-9 4.13326,-2.1332 8.79993,-3.1999 14,-3.2 12.66658,1e-4 22.13323,5.4001 28.4,16.2 l -13.2,8.2" /></g><g
         id="text602"
         transform="matrix(1,0,0,-1,-30,-10)"><path
           inkscape:connector-curvature="0"
           id="path4440"
           style="font-size:290px;font-variant:normal;font-weight:normal;writing-mode:lr-tb;fill:#000000;fill-opacity:1;fill-rule:nonzero;stroke:none;font-family:BlueHighwayD;-inkscape-font-specification:BlueHighwayD-Regular"
           d="m 412.72142,-1955.377 0,0 m 38.86,-49.3 c 6.95994,10e-5 12.85661,1.3534 17.69,4.06 5.0266,2.5134 9.56992,5.4134 13.63,8.7 4.05992,3.0934 7.82991,5.9934 11.31,8.7 3.67324,2.5134 7.5399,3.7701 11.6,3.77 5.02656,10e-5 9.27989,-1.8366 12.76,-5.51 3.47988,-3.8666 6.66988,-8.5066 9.57,-13.92 l 17.11,14.79 c -5.0268,9.28 -11.02013,16.4334 -17.98,21.46 -6.96012,4.8334 -14.11344,7.25 -21.46,7.25 -6.18676,0 -11.69676,-1.2566 -16.53,-3.77 -4.64008,-2.7066 -9.08674,-5.6066 -13.34,-8.7 -4.2534,-3.2866 -8.41006,-6.1866 -12.47,-8.7 -3.86672,-2.7066 -7.92672,-4.0599 -12.18,-4.06 -4.44671,10e-5 -8.41004,1.6434 -11.89,4.93 -3.2867,3.0934 -6.28336,7.25 -8.99,12.47 l -17.69,-13.92 c 5.02665,-9.2799 10.92331,-16.1433 17.69,-20.59 6.76663,-4.6399 13.82329,-6.9599 21.17,-6.96 m 0.87,-75.11 c 6.95994,2e-4 12.8566,1.3535 17.69,4.06 5.02659,2.5135 9.56992,5.4135 13.63,8.7 4.05992,3.0935 7.82991,5.9935 11.31,8.7 3.67324,2.5135 7.5399,3.7701 11.6,3.77 5.02656,10e-5 9.27989,-1.8365 12.76,-5.51 3.47988,-3.8665 6.66988,-8.5065 9.57,-13.92 l 17.11,14.79 c -5.0268,9.2801 -11.02013,16.4334 -17.98,21.46 -6.96012,4.8334 -14.11344,7.2501 -21.46,7.25 -6.18676,10e-5 -11.69676,-1.2566 -16.53,-3.77 -4.64008,-2.7066 -9.08674,-5.6066 -13.34,-8.7 -4.2534,-3.2865 -8.41007,-6.1865 -12.47,-8.7 -3.86672,-2.7065 -7.92672,-4.0599 -12.18,-4.06 -4.44671,1e-4 -8.41004,1.6435 -11.89,4.93 -3.2867,3.0935 -6.28336,7.2501 -8.99,12.47 l -17.69,-13.92 c 5.02665,-9.2799 10.92331,-16.1432 17.69,-20.59 6.76663,-4.6399 13.82329,-6.9598 21.17,-6.96" /></g><g
         id="text608"
         transform="matrix(1,0,0,-1,-30,-10)"><path
           inkscape:connector-curvature="0"
           id="path4437"
           style="font-size:290px;font-variant:normal;font-weight:normal;writing-mode:lr-tb;fill:#000000;fill-opacity:1;fill-rule:nonzero;stroke:none;font-family:BlueHighwayD;-inkscape-font-specification:BlueHighwayD-Regular"
           d="m 586.21142,-1917.537 0,0 m 7.54,-89.61 0,-26.68 130.21,-57.71 0,29.29 -104.98,42.05 104.98,41.76 0,29.29 -130.21,-58 m -7.54,101.21 0,-26.39 146.74,0 0,26.39 -146.74,0" /></g><g
         id="text614"
         transform="matrix(1,0,0,-1,-30,-10)"><path
           inkscape:connector-curvature="0"
           id="path4434"
           style="font-size:290px;font-variant:normal;font-weight:normal;writing-mode:lr-tb;fill:#000000;fill-opacity:1;fill-rule:nonzero;stroke:none;font-family:BlueHighwayD;-inkscape-font-specification:BlueHighwayD-Regular"
           d="m 765.21142,-1917.537 0,0 m 7.54,-31.61 0,-29.29 104.98,-41.76 -104.98,-42.05 0,-29.29 130.21,57.71 0,26.68 -130.21,58 m -7.54,43.21 0,-26.39 146.74,0 0,26.39 -146.74,0" /></g><g
         id="text620"
         transform="matrix(1,0,0,-1,-30,-10)"><path
           inkscape:connector-curvature="0"
           id="path4431"
           style="font-size:290px;font-variant:normal;font-weight:normal;writing-mode:lr-tb;fill:#000000;fill-opacity:1;fill-rule:nonzero;stroke:none;font-family:BlueHighwayD;-inkscape-font-specification:BlueHighwayD-Regular"
           d="m 983.21621,-2044.407 0,0 m 4.93,0 -4.93,-90.19 26.67999,0 -5.8,90.19 -15.94999,0 m 40.59999,0 -4.93,-90.19 26.68,0 -5.8,90.19 -15.95,0" /></g><g
         id="text626"
         transform="matrix(1,0,0,-1,-30,-10)"><path
           inkscape:connector-curvature="0"
           id="path4428"
           style="font-size:290px;font-variant:normal;font-weight:normal;writing-mode:lr-tb;fill:#000000;fill-opacity:1;fill-rule:nonzero;stroke:none;font-family:BlueHighwayD;-inkscape-font-specification:BlueHighwayD-Regular"
           d="m 1195.7115,-2133.1072 c 4.2533,2e-4 8.3133,0.8702 12.18,2.61 3.8667,1.5469 7.25,3.7702 10.15,6.67 2.9,2.9002 5.1233,6.2835 6.67,10.15 1.74,3.6735 2.61,7.6369 2.61,11.89 0,4.2535 -0.87,8.3135 -2.61,12.18 -1.5467,3.6735 -3.77,6.9602 -6.67,9.86 -2.9,2.9002 -6.2833,5.2202 -10.15,6.96 -3.8667,1.5468 -7.9267,2.3202 -12.18,2.32 -4.2533,2e-4 -8.3133,-0.7732 -12.18,-2.32 -3.6733,-1.7398 -6.96,-4.0598 -9.86,-6.96 -2.7066,-2.8998 -4.93,-6.1865 -6.67,-9.86 -1.5466,-3.8665 -2.32,-7.9265 -2.32,-12.18 0,-4.2531 0.7734,-8.2165 2.32,-11.89 1.74,-3.8665 3.9634,-7.2498 6.67,-10.15 2.9,-2.8998 6.1867,-5.1231 9.86,-6.67 3.8667,-1.7398 7.9267,-2.6098 12.18,-2.61 m 0,17.11 c -4.2533,2e-4 -7.7333,1.4502 -10.44,4.35 -2.7067,2.7069 -4.06,5.9935 -4.06,9.86 0,4.2535 1.3533,7.8302 4.06,10.73 2.7067,2.7068 6.1867,4.0602 10.44,4.06 4.06,2e-4 7.54,-1.3532 10.44,-4.06 2.9,-2.8998 4.35,-6.4765 4.35,-10.73 0,-3.8665 -1.45,-7.1531 -4.35,-9.86 -2.9,-2.8998 -6.38,-4.3498 -10.44,-4.35" /></g><g
         id="text632"
         transform="matrix(1,0,0,-1,-30,-10)"><path
           inkscape:connector-curvature="0"
           id="path4425"
           style="font-size:290px;font-variant:normal;font-weight:normal;writing-mode:lr-tb;fill:#000000;fill-opacity:1;fill-rule:nonzero;stroke:none;font-family:BlueHighwayD;-inkscape-font-specification:BlueHighwayD-Regular"
           d="m 1301.4872,-1932.037 0,0 m 0,-75.11 0,-26.39 146.74,0 0,26.39 -146.74,0 m 73.08,75.11 c -5.0268,0 -8.9901,-2.03 -11.89,-6.09 -2.9001,-4.2533 -4.3501,-9.1833 -4.35,-14.79 -10e-5,-5.9933 1.4499,-11.0199 4.35,-15.08 2.8999,-4.0599 6.8632,-6.0899 11.89,-6.09 4.4466,10e-5 8.3132,2.0301 11.6,6.09 3.4799,4.0601 5.2199,9.0867 5.22,15.08 -10e-5,5.6067 -1.7401,10.5367 -5.22,14.79 -3.2868,4.06 -7.1534,6.09 -11.6,6.09 m 0,-137.17 c -5.0268,2e-4 -8.9901,-2.0298 -11.89,-6.09 -2.9001,-4.2532 -4.3501,-9.1832 -4.35,-14.79 -10e-5,-5.9931 1.4499,-11.0198 4.35,-15.08 2.8999,-4.0598 6.8632,-6.0898 11.89,-6.09 4.4466,2e-4 8.3132,2.0302 11.6,6.09 3.4799,4.0602 5.2199,9.0869 5.22,15.08 -10e-5,5.6068 -1.7401,10.5368 -5.22,14.79 -3.2868,4.0602 -7.1534,6.0902 -11.6,6.09" /></g><g
         id="text638"
         transform="matrix(1,0,0,-1,-30,-10)"><path
           inkscape:connector-curvature="0"
           id="path4422"
           style="font-size:290px;font-variant:normal;font-weight:normal;writing-mode:lr-tb;fill:#000000;fill-opacity:1;fill-rule:nonzero;stroke:none;font-family:BlueHighwayD;-inkscape-font-specification:BlueHighwayD-Regular"
           d="m 1537.4461,-2044.407 -4.93,-90.19 26.68,0 -5.8,90.19 -15.95,0" /></g><path
         d="m -35,2010.937 1666.821,0"
         style="fill:none;stroke:#ffffff;stroke-width:5;stroke-linecap:butt;stroke-linejoin:miter;stroke-miterlimit:4;stroke-opacity:1;stroke-dasharray:none"
         id="path644"
         inkscape:connector-curvature="0" /></g></g></svg>